<svg version="1.1" id="Layer_1" xmlns="http://www.w3.org/2000/svg" xmlns:xlink="http://www.w3.org/1999/xlink" x="0px" y="0px" viewBox="0 0 2500 2500" style="enable-background:new 0 0 2500 2500;" xml:space="preserve"><style type="text/css">
	.st0{fill-rule:evenodd;clip-rule:evenodd;fill:#1E71B8;}
</style><path class="st0" d="M1941.87,1634.45v23.73c-34.74-22.67-75.34-34.73-116.83-34.68h-1.12c-119.01,0.73-215.75,97.84-215.75,216.87
	c0,119.04,96.74,216.14,215.75,216.88h1.12c43.09,0,83.24-12.78,116.83-34.68v22.63h99.69v-410.75H1941.87z M1941.87,1863.02
	c-10.58,54.77-59.16,96.74-116.83,96.74h-1.12c-65.33-0.73-118.27-54.03-118.27-119.39c0-65.34,52.94-118.65,118.27-119.02h1.12
	c57.68,0,106.24,41.63,116.83,96.39V1863.02z"/></svg>