<svg version="1.1" id="Layer_1" xmlns="http://www.w3.org/2000/svg" xmlns:xlink="http://www.w3.org/1999/xlink" x="0px" y="0px" viewBox="0 0 2500 2500" style="enable-background:new 0 0 2500 2500;" xml:space="preserve"><style type="text/css">
	.st0{fill-rule:evenodd;clip-rule:evenodd;fill:#1E71B8;}
</style><path class="st0" d="M843.28,1493.53v164.65h0c-34.9-22.63-75.61-34.67-117.21-34.68h-1.09c-119.02,0.73-215.78,97.84-215.78,216.87
	c0,119.04,96.74,216.14,215.78,216.88h1.09c41.6,0,82.31-12.05,117.21-34.68v22.63h99.67v-551.67H843.28z M843.28,1863.02
	L843.28,1863.02c-10.58,54.77-59.16,96.74-117.21,96.74h-1.09c-65.35-0.73-118.3-54.03-118.3-119.39
	c0-65.34,52.94-118.65,118.3-119.02h1.09c58.05,0,106.61,41.63,117.21,96.39V1863.02z"/></svg>