<svg version="1.1" id="Layer_1" xmlns="http://www.w3.org/2000/svg" xmlns:xlink="http://www.w3.org/1999/xlink" x="0px" y="0px" viewBox="0 0 2500 2500" style="enable-background:new 0 0 2500 2500;" xml:space="preserve"><style type="text/css">
	.st0{fill-rule:evenodd;clip-rule:evenodd;fill:#1E71B8;}
</style><path class="st0" d="M370.47,1634.45v23.73l0,0c-34.9-22.63-75.6-34.67-117.19-34.68h-1.1c-118.65,0.73-215.4,97.84-215.4,216.87
	c0,119.04,96.75,216.14,215.4,216.88h1.1c43.09,0,83.24-12.78,117.19-34.68v22.63h99.67v-410.75H370.47z M370.47,1863.02
	c-10.58,54.77-59.16,96.74-117.19,96.74h-1.1c-64.98-0.73-117.92-54.03-117.92-119.39c0-65.34,52.94-118.65,117.92-119.02h1.1
	c58.05,0,106.61,41.63,117.19,96.39V1863.02z"/></svg>