<svg version="1.1" id="Layer_1" xmlns="http://www.w3.org/2000/svg" xmlns:xlink="http://www.w3.org/1999/xlink" x="0px" y="0px" viewBox="0 0 2500 2500" style="enable-background:new 0 0 2500 2500;" xml:space="preserve"><style type="text/css">
	.st0{fill-rule:evenodd;clip-rule:evenodd;fill:#1E71B8;}
</style><path class="st0" d="M2396.06,1813.35c-3.64-1.84-8.77-3.66-14.62-5.85c-22.27-7.67-58.42-17.16-108.8-28.11
	c-44.18-9.87-66.44-22.63-66.44-38.7c0-11.32,4.01-20.45,11.67-27.02c10.23-8.77,28.47-13.15,54.77-13.15
	c26.65,0,46,5.85,57.33,17.16c6.94,6.94,12.04,19.34,15.33,36.87h105.89c0-51.84-21.18-89.08-62.8-111.71
	c-2.19-1.43-4.52-2.65-6.94-3.64c-28.86-13.51-67.18-20.45-115-20.45c-58.07,0-101.86,15.34-131.06,46.37
	c-23.36,24.82-34.68,55.12-34.68,90.91c0,44.56,21.89,76.68,66.44,97.49c16.8,8.03,57.68,19.35,122.68,33.23
	c43.45,9.49,65.33,23.01,65.33,40.17c0,10.23-4.36,18.99-13.85,27.02c-12.06,10.22-30.32,15.34-54.77,15.34
	c-32.5,0-55.5-5.47-69-16.06c-13.53-10.22-20.47-25.19-20.47-44.18h-110.98c0,50.39,21.18,87.99,63.89,112.8
	c33.97,19.35,78.51,29.22,133.65,29.22c36.86,0,69.71-6.21,97.83-18.25c5.85-2.56,10.97-5.12,16.45-8.04
	c43.45-24.08,65.35-62.42,65.35-114.99C2463.24,1866.66,2440.95,1834.52,2396.06,1813.35z"/></svg>