<svg version="1.1" id="Layer_1" xmlns="http://www.w3.org/2000/svg" xmlns:xlink="http://www.w3.org/1999/xlink" x="0px" y="0px" viewBox="0 0 2500 2500" style="enable-background:new 0 0 2500 2500;" xml:space="preserve"><style type="text/css">
	.st0{fill-rule:evenodd;clip-rule:evenodd;fill:#1E71B8;}
</style><path class="st0" d="M1473.82,1493.53v164.65c-33.97-21.89-73.77-34.68-116.86-34.68h-1.09c-119.01,0.73-215.77,97.84-215.77,216.87
	c0,119.04,96.75,216.14,215.77,216.88h1.09c43.09,0,82.89-12.78,116.86-34.68v22.63h99.66v-551.67H1473.82z M1473.82,1863.02
	c-10.58,54.77-59.16,96.74-116.86,96.74h-1.09c-65.35-0.73-118.28-54.03-118.28-119.39c0-65.34,52.93-118.65,118.28-119.02h1.09
	c57.7,0,106.26,41.63,116.86,96.39V1863.02z"/></svg>