<svg version="1.1" id="Layer_1" xmlns="http://www.w3.org/2000/svg" xmlns:xlink="http://www.w3.org/1999/xlink" x="0px" y="0px" viewBox="0 0 263.2 212.12" style="enable-background:new 0 0 263.2 212.12;" xml:space="preserve"><style type="text/css">
	.st0{fill:#D81A21;}
</style><path class="st0" d="M128.4,103.4c0,3.16,0,6.32,0.01,9.48c0,0.25-0.12,0.59,0.17,0.74c0.32,0.17,0.57-0.06,0.78-0.28
	c7.11-7.03,20.56-4.21,24.57,5.65c1.34,3.3,1.82,6.71,1.68,10.23c-0.07,1.86-0.17,3.74-0.65,5.54c-1.45,5.45-4.27,9.82-9.84,11.78
	c-4.14,1.46-8.34,1.27-12.48-0.12c-1.35-0.45-2.55-1.2-3.52-2.28c-0.16-0.18-0.34-0.35-0.54-0.48c-0.61-0.39-0.86-0.26-0.88,0.46
	c-0.02,0.69,0,1.38-0.01,2.08c-0.01,0.66-0.35,1-1.01,1c-4.33,0-8.67,0-13,0c-0.73,0-1.12-0.42-1.12-1.13
	c-0.01-2.47-0.01-4.94,0-7.4c0-0.69,0.36-1.05,1.07-1.05c0.81,0.01,1.63-0.02,2.44,0c0.67,0.01,1.01-0.27,0.99-0.96
	c-0.02-0.57,0.01-1.14,0.01-1.72c0-10.26,0-20.52,0-30.79c0-0.36-0.02-0.72-0.01-1.08c0.03-0.74-0.34-1.03-1.05-1.01
	c-0.51,0.01-1.02-0.01-1.53,0c-0.62,0.01-0.96-0.27-0.96-0.91c0-2.56,0.02-5.12,0.01-7.67c0-0.77,0.36-1.05,1.11-1.05
	c4.18,0.02,8.37,0,12.55,0.01c0.94,0,1.22,0.35,1.22,1.48C128.4,97.08,128.4,100.24,128.4,103.4z M128.87,128.83
	c0.03,0.69,0.08,1.61,0.28,2.53c0.74,3.46,3.08,5.71,6.28,6.05c3.09,0.33,6.13-1.36,7.34-4.3c1.44-3.51,1.17-7.02-0.67-10.32
	c-1.29-2.32-3.49-3.21-6.07-3.15c-2.63,0.06-4.68,1.18-5.95,3.55C129.17,124.87,128.9,126.7,128.87,128.83z"/></svg>