<svg version="1.1" id="Layer_1" xmlns="http://www.w3.org/2000/svg" xmlns:xlink="http://www.w3.org/1999/xlink" x="0px" y="0px" viewBox="0 0 263.2 212.12" style="enable-background:new 0 0 263.2 212.12;" xml:space="preserve"><style type="text/css">
	.st0{fill:#D81A21;}
</style><path class="st0" d="M28.55,138.18c0.33-0.47,0.78-0.56,1.33-0.57c3.06-0.03,2.63,0.53,3.87-2.69c4.05-10.54,7.97-21.12,12.15-31.6
	c0.36-0.9,0.13-1.25-0.81-1.28c-0.99-0.02-1.99,0.01-2.98-0.01c-1.16-0.03-1.57-0.45-1.56-1.61c0.01-2.2,0.03-4.39,0.06-6.59
	c0.02-0.98,0.4-1.38,1.37-1.38c4.36-0.01,8.73-0.05,13.09,0.03c3.35,0.06,4.78,1.24,5.94,4.38c4.85,13.09,9.73,26.17,14.6,39.24
	c0.42,1.13,0.98,1.5,2.17,1.52c0.63,0.01,1.27-0.02,1.9,0.01c0.85,0.04,1.41,0.58,1.42,1.44c0.02,2.35,0.02,4.69,0,7.04
	c-0.01,0.76-0.41,1.12-1.21,1.12c-6.71-0.01-13.42,0-20.13-0.01c-1.07,0-1.24-0.19-1.24-1.29c0-2.29-0.01-4.57,0-6.86
	c0-1.14,0.31-1.44,1.44-1.45c0.9-0.01,1.81-0.01,2.71,0c0.74,0,1.09-0.38,0.96-1.08c-0.28-1.61-0.94-3.1-1.57-4.59
	c-0.21-0.5-0.79-0.49-1.28-0.49c-2.47-0.01-4.94,0-7.4,0c-2.35,0-4.69,0.03-7.04,0c-0.75-0.01-1.16,0.27-1.39,0.98
	c-0.41,1.25-0.9,2.48-1.32,3.73c-0.31,0.91,0.03,1.4,1,1.43c1.11,0.04,2.23,0.03,3.34,0.01c0.77-0.02,1.11,0.34,1.11,1.08
	c0,2.5-0.01,5,0,7.49c0,0.71-0.3,1.03-1.04,1.03c-6.05-0.01-12.1-0.01-18.15,0.01c-0.63,0-0.98-0.35-1.33-0.75
	C28.55,143.72,28.55,140.95,28.55,138.18z M53.87,123.21c0,0,0-0.01,0-0.01c1.26,0,2.52,0,3.79,0c1.11-0.01,1.33-0.31,0.93-1.39
	c-1.4-3.8-2.81-7.59-4.22-11.38c-0.13-0.35-0.22-0.81-0.73-0.78c-0.47,0.03-0.6,0.44-0.73,0.81c-1.31,3.86-2.62,7.72-3.91,11.59
	c-0.28,0.85-0.04,1.15,0.9,1.16C51.23,123.23,52.55,123.21,53.87,123.21z"/></svg>