<svg version="1.1" id="Layer_1" xmlns="http://www.w3.org/2000/svg" xmlns:xlink="http://www.w3.org/1999/xlink" x="0px" y="0px" viewBox="0 0 263.2 212.12" style="enable-background:new 0 0 263.2 212.12;" xml:space="preserve"><style type="text/css">
	.st0{fill:#D81A21;}
</style><path class="st0" d="M234.28,117.14c0,1.9,0.01,3.79-0.01,5.69c-0.01,1.07-0.36,1.45-1.38,1.46c-2.17,0.02-4.33,0-6.5,0.02
	c-0.72,0.01-1.11-0.33-1.29-1c-0.97-3.57-3.96-5.48-7.62-4.87c-0.15,0.02-0.3,0.04-0.45,0.07c-1.51,0.28-2.45,1.08-2.62,2.24
	c-0.2,1.33,0.51,2.67,1.85,3.31c1.61,0.76,3.34,1.17,5.04,1.68c2.45,0.72,4.91,1.39,7.3,2.29c3.33,1.25,5.55,3.5,5.97,7.13
	c0.42,3.73-0.58,6.96-3.71,9.34c-2.27,1.73-4.8,2.72-7.65,2.85c-3.9,0.19-7.68-0.26-11.21-2.07c-0.67-0.34-1.33-0.7-1.91-1.18
	c-0.2-0.17-0.41-0.41-0.71-0.24c-0.29,0.16-0.21,0.47-0.21,0.74c0,0.54,0,1.08,0.01,1.63c0.01,0.54-0.21,0.87-0.78,0.88
	c-2.17,0.01-4.33,0.02-6.5,0c-0.86-0.01-0.88-0.67-0.88-1.29c0-3.73,0-7.46,0-11.2c0-0.09,0.01-0.18,0.01-0.27
	c0.01-0.73,0.42-1.14,1.12-1.15c2.2-0.03,4.39-0.03,6.59,0c0.63,0.01,1.22,0.31,1.47,0.91c1.45,3.49,4.43,4.3,7.76,4.51
	c0.81,0.05,1.63,0.01,2.4-0.28c0.98-0.37,1.78-0.98,1.94-2.06c0.16-1.08-0.62-1.7-1.42-2.22c-1.97-1.26-4.22-1.69-6.46-2.14
	c-2.19-0.44-4.33-1.02-6.32-2.05c-4.57-2.35-6.42-6.89-4.81-11.78c1.68-5.12,5.74-8.18,11.43-8.55c2.05-0.13,4.08-0.08,6.09,0.46
	c1.79,0.48,3.35,1.31,4.65,2.63c0.21,0.21,0.43,0.42,0.68,0.59c0.33,0.23,0.57,0.18,0.57-0.29c0-0.63,0.01-1.26,0.01-1.9
	c0-0.58,0.24-0.88,0.87-0.88c1.81,0.02,3.61-0.01,5.42,0.02c1.03,0.02,1.29,0.32,1.3,1.4C234.28,113.41,234.28,115.27,234.28,117.14
	z"/></svg>