<svg version="1.1" id="Layer_1" xmlns="http://www.w3.org/2000/svg" xmlns:xlink="http://www.w3.org/1999/xlink" x="0px" y="0px" viewBox="0 0 263.2 212.12" style="enable-background:new 0 0 263.2 212.12;" xml:space="preserve"><style type="text/css">
	.st0{fill:#D81A21;}
</style><path class="st0" d="M145.22,13.56c1.47,0.39,2.97,0.6,4.39,1.17c4.85,1.94,8.53,5.33,11.71,9.35c4.53,5.73,7.57,12.25,10.05,19.05
	c2.9,7.93,4.76,16.12,6.01,24.46c1.55,10.35,2.16,20.76,2.2,31.21c0.01,1.49-0.3,1.8-1.79,1.8c-2.29,0-4.58,0.01-6.86,0
	c-1.19,0-1.68-0.46-1.68-1.61c0-7.47-0.32-14.92-1.11-22.35c-1.18-11.16-3.22-22.12-7.59-32.53c-2.14-5.1-4.75-9.93-8.69-13.91
	c-2.05-2.07-4.33-3.83-7.29-4.42c-0.38-0.08-0.77-0.11-1.16-0.11c-1.8,0.01-2.75,1.2-2.39,2.98c0.26,1.26,0.93,2.34,1.56,3.43
	c1.61,2.79,3.26,5.55,4.16,8.67c1.31,4.55,1.45,9.02-1.09,13.25c-2.07,3.44-4.9,5.85-9.07,6.22c-3.13,0.27-5.75-0.95-8.08-2.94
	c-2.24-1.92-3.92-4.3-5.51-6.76c-1.89-2.93-3.52-6.02-5.63-8.81c-0.49-0.65-1.02-1.26-1.64-1.8c-1.55-1.36-2.61-1.42-4.27-0.21
	c-1.81,1.31-3.15,3.05-4.37,4.89c-3.15,4.76-5.15,10.03-6.82,15.44c-2.1,6.8-3.31,13.78-4.19,20.83c-0.76,6.06-1.47,12.12-2.2,18.18
	c-0.15,1.21-0.55,1.56-1.76,1.57c-2.47,0.01-4.94,0.01-7.4,0c-1.16,0-1.59-0.44-1.47-1.62c0.36-3.53,0.72-7.06,1.16-10.58
	c0.83-6.62,1.82-13.22,3.21-19.75c1.84-8.66,4.21-17.15,8.27-25.08c2.26-4.41,4.89-8.57,8.42-12.09c2.09-2.08,4.42-3.79,7.26-4.74
	c2.4-0.81,4.68-0.55,6.87,0.67c2.78,1.54,4.79,3.9,6.67,6.38c2.22,2.93,4.07,6.1,6.03,9.2c1.06,1.68,2.1,3.38,3.43,4.86
	c0.37,0.42,0.75,0.95,1.43,0.74c0.64-0.2,0.89-0.77,1.08-1.35c0.25-0.78,0.1-1.55-0.1-2.31c-0.44-1.67-1.2-3.2-1.95-4.74
	c-1.55-3.18-3.21-6.31-4.34-9.69c-2.13-6.36,1.9-15.85,10.81-16.76c0.12-0.01,0.24-0.03,0.29-0.16
	C142.93,13.56,144.07,13.56,145.22,13.56z"/></svg>