<svg version="1.1" id="Layer_1" xmlns="http://www.w3.org/2000/svg" xmlns:xlink="http://www.w3.org/1999/xlink" x="0px" y="0px" viewBox="0 0 263.2 212.12" style="enable-background:new 0 0 263.2 212.12;" xml:space="preserve"><style type="text/css">
	.st0{fill:#D81A21;}
</style><path class="st0" d="M92.98,147.22c-2.74,0-5.48,0-8.22,0c-1.5,0-1.56-0.06-1.56-1.6c0-2.32,0.02-4.63-0.01-6.95
	c-0.01-0.78,0.28-1.11,1.06-1.06c0.45,0.03,0.91-0.03,1.35,0.01c0.82,0.08,1.05-0.32,1.05-1.06c-0.01-5.27-0.01-10.53,0-15.8
	c0-0.84-0.28-1.24-1.2-1.27c-2.39-0.06-2.29,0.2-2.28-2.36c0-2.02-0.01-4.03,0.01-6.05c0.01-1.11,0.14-1.23,1.26-1.24
	c3.64-0.01,7.28,0,10.92,0c1.46,0,1.71,0.26,1.72,1.75c0.01,2.26,0,4.51,0.01,6.77c0,0.28-0.12,0.69,0.22,0.79
	c0.4,0.12,0.54-0.3,0.69-0.58c0.64-1.27,1.34-2.49,2.22-3.6c2.47-3.13,5.91-4.51,9.66-5.33c0.94-0.21,1.9-0.37,2.86-0.33
	c1.22,0.05,1.6,0.46,1.6,1.67c0,3.13,0,6.26,0,9.39c0,1.21-0.31,1.46-1.55,1.29c-3.17-0.43-6.23-0.27-9.09,1.39
	c-3.12,1.81-4.88,4.36-4.73,8.08c0.07,1.68,0.01,3.37,0.01,5.06c0,1.28,0.01,1.29,1.33,1.29c0.57,0,1.14,0,1.72,0.01
	c0.54,0.01,0.84,0.26,0.84,0.83c0,2.59,0.02,5.18,0,7.76c-0.01,0.82-0.5,1.14-1.3,1.13C98.7,147.21,95.84,147.22,92.98,147.22z"/></svg>