<svg version="1.1" id="Layer_1" xmlns="http://www.w3.org/2000/svg" xmlns:xlink="http://www.w3.org/1999/xlink" x="0px" y="0px" viewBox="0 0 263.2 212.12" style="enable-background:new 0 0 263.2 212.12;" xml:space="preserve"><style type="text/css">
	.st0{fill:#D81A21;}
</style><path class="st0" d="M129.03,198.51c-3.46,0-5.84-0.06-8.22,0.01c-6.16,0.18-12.26-0.31-18.34-1.26c-6.87-1.08-13.65-2.51-20.2-4.87
	c-5.23-1.89-10.24-4.2-14.43-7.95c-2.8-2.51-4.93-5.47-5.5-9.28c-0.89-5.94,1.3-10.61,6.19-14.01c3.48-2.43,7.45-3.56,11.6-4.18
	c7.84-1.16,15.54-0.16,23.19,1.51c10.25,2.23,20.11,5.65,29.63,10.02c2.39,1.1,3.35,2.85,2.85,5.27c-0.46,2.27-2.38,3.8-4.8,3.85
	c-1.2,0.02-2.32-0.26-3.41-0.72c-4.66-1.92-9.26-4.01-14.06-5.57c-8.83-2.86-17.82-4.79-27.16-4.6c-3.22,0.07-6.43,0.34-9.5,1.44
	c-0.91,0.33-1.77,0.76-2.54,1.35c-1.95,1.49-2.35,3.65-1.03,5.73c0.89,1.4,2.13,2.45,3.47,3.37c4.13,2.84,8.77,4.58,13.53,6.01
	c7.04,2.13,14.26,3.36,21.57,4.12c8.91,0.93,17.84,1.02,26.78,0.5c11.69-0.67,23.2-2.37,34.29-6.31c4.39-1.56,8.67-3.39,12.59-5.97
	c1.75-1.15,3.27-2.55,4.55-4.21c1.72-2.23,1.52-4.35-0.56-6.22c-0.78-0.7-0.85-1.09-0.24-1.92c1.48-2.01,2.87-4.08,4.08-6.27
	c0.4-0.72,0.84-0.87,1.61-0.48c7.3,3.63,8.14,10.6,5.62,16.9c-1.56,3.9-4.5,6.71-7.84,9.11c-5.77,4.16-12.27,6.82-18.99,8.95
	c-8.37,2.65-16.97,4.12-25.68,5.15C141.35,198.8,134.64,198.32,129.03,198.51z"/></svg>