<svg version="1.1" id="Layer_1" xmlns="http://www.w3.org/2000/svg" xmlns:xlink="http://www.w3.org/1999/xlink" x="0px" y="0px" viewBox="0 0 263.2 212.12" style="enable-background:new 0 0 263.2 212.12;" xml:space="preserve"><style type="text/css">
	.st0{fill:#D81A21;}
</style><path class="st0" d="M204.92,105.27c-0.23-0.62-0.38-1.14-0.6-1.63c-0.91-1.96-2.45-3-4.61-3.03c-2.26-0.03-4.51,0-6.77-0.01
	c-1.67-0.01-1.96-0.3-1.95-1.93c0.01-2.41,0.01-4.81,0.02-7.22c0.01-1.71,0.45-2.16,2.13-2.16c2.65,0,5.3-0.01,7.94,0.01
	c0.72,0.01,1.45,0.05,2.15,0.2c2.11,0.46,3.41,2,3.78,4.31c0.43,2.69-0.15,5.26-0.83,7.83
	C205.85,102.85,205.46,104.04,204.92,105.27z"/></svg>