<svg version="1.1" id="Layer_1" xmlns="http://www.w3.org/2000/svg" xmlns:xlink="http://www.w3.org/1999/xlink" x="0px" y="0px" viewBox="0 0 263.2 212.12" style="enable-background:new 0 0 263.2 212.12;" xml:space="preserve"><style type="text/css">
	.st0{fill:#D81A21;}
</style><path class="st0" d="M190.82,109.85c2.89,0,5.78,0,8.67,0c1.3,0,1.51,0.23,1.51,1.53c0,2.23,0.01,4.45,0,6.68
	c0,1.28-0.21,1.48-1.45,1.49c-3.06,0.03-2.49-0.37-3.53,2.54c-3.92,10.97-7.84,21.94-11.97,32.83c-0.7,1.84-1.66,3.53-2.91,5.06
	c-2.4,2.93-5.49,4.4-9.27,4.42c-4.88,0.02-9.23-1.35-12.88-4.71c-0.72-0.66-0.73-1.21-0.17-1.92c1.43-1.82,2.83-3.66,4.25-5.5
	c0.46-0.6,0.91-0.63,1.51-0.12c1.35,1.14,2.71,2.3,4.57,2.57c2.23,0.33,4.03-0.59,5.03-2.61c0.63-1.27,1.04-2.62,1.45-3.97
	c0.22-0.73-0.1-0.93-0.73-0.95c-0.99-0.03-1.98-0.04-2.97-0.11c-1.58-0.11-2.55-0.95-3.07-2.47c-2.66-7.88-5.37-15.74-8.07-23.6
	c-0.45-1.32-0.55-1.39-1.93-1.39c-2.46,0-2.45,0.23-2.43-2.48c0.02-1.99,0-3.97,0.01-5.96c0-1.02,0.25-1.31,1.27-1.31
	c5.36-0.02,10.71,0,16.07-0.01c0.79,0,1.12,0.33,1.11,1.15c-0.03,2.44-0.01,4.88-0.01,7.31c0,1.11-0.19,1.28-1.33,1.31
	c-1.31,0.03-1.31,0.03-0.98,1.29c1.31,4.97,2.62,9.93,3.91,14.9c0.2,0.79,0.55,1.3,1.44,1.32c0.66,0.01,1.05-0.22,1.26-0.88
	c1.64-5.21,3.31-10.42,4.96-15.62c0.27-0.86,0.11-1.1-0.78-1.16c-0.54-0.03-1.08-0.03-1.62-0.02c-0.67,0.01-1.03-0.33-1.03-0.98
	c-0.01-2.53,0.01-5.06,0.01-7.58c0-0.93,0.62-1.04,1.35-1.04C184.98,109.85,187.9,109.85,190.82,109.85z"/></svg>