<svg version="1.1" id="Layer_1" xmlns="http://www.w3.org/2000/svg" xmlns:xlink="http://www.w3.org/1999/xlink" x="0px" y="0px" viewBox="0 0 2500 2500" style="enable-background:new 0 0 2500 2500;" xml:space="preserve"><style type="text/css">
	.st0{fill-rule:evenodd;clip-rule:evenodd;fill:#D2B346;}
	.st1{fill-rule:evenodd;clip-rule:evenodd;fill:#CC2229;}
	.st2{fill-rule:evenodd;clip-rule:evenodd;}
</style><path d="M1718.51,1747.88l-56.16-87.73c-18.42-29.84-39.47-47.39-61.4-52.67c26.32-1.75,47.37-8.77,64.93-23.68
	c18.42-14.89,26.32-35.08,23.68-57.91c-3.51-23.66-14.02-43.82-35.11-59.62h0c-17.54-14.03-39.47-21.05-63.15-23.68
	c-16.67-0.88-47.39-0.88-92.14,0l-71.06-0.88v5.27c7.02,0.88,14.03,3.51,20.17,6.16c14.03,7.87,21.05,16.67,21.93,26.32v271.99
	c-0.88,10.52-7.9,19.3-21.93,26.32l-20.17,7.02v5.27h142.11v-4.41c-7.02-1.75-13.15-3.5-19.27-6.13
	c-12.28-8.77-18.44-16.67-18.44-26.32v-134.24c0-2.63,1.75-4.38,5.27-4.38c8.77,0,20.19,7.87,35.08,25.43
	c8.79,8.77,18.44,23.68,28.95,42.1l27.21,49.14c22.83,37.72,43.88,58.79,64.06,58.79c25.43,2.63,50.87,2.63,78.08,0.86v-6.13
	c-14.03-1.75-24.58-5.27-33.33-13.18C1731.64,1767.18,1725.52,1759.28,1718.51,1747.88z M1534.26,1594.35v-132.49
	c3.51-3.48,10.53-3.48,20.19-3.48c19.3,0,35.11,6.13,47.37,18.42c13.18,12.28,19.3,28.95,21.08,50c0.86,19.3-1.78,34.23-7.9,44.73
	c-5.27,8.79-15.78,16.67-31.59,21.93C1573.75,1596.1,1557.09,1596.1,1534.26,1594.35z"/></svg>