<svg version="1.1" id="Layer_1" xmlns="http://www.w3.org/2000/svg" xmlns:xlink="http://www.w3.org/1999/xlink" x="0px" y="0px" viewBox="0 0 2500 2500" style="enable-background:new 0 0 2500 2500;" xml:space="preserve"><style type="text/css">
	.st0{fill-rule:evenodd;clip-rule:evenodd;fill:#D2B346;}
	.st1{fill-rule:evenodd;clip-rule:evenodd;fill:#CC2229;}
	.st2{fill-rule:evenodd;clip-rule:evenodd;}
</style><path class="st0" d="M1454.44,731.04c-6.16-13.16-14.92-27.2-27.21-42.99l-19.3-25.43l-2.63-7.03l-0.88-3.5h-7.02
	c-2.63,1.75-7.02,5.27-12.28,11.4c-14.89,15.8-28.07,40.36-38.61,71.94c-9.62,31.59-18.42,51.76-24.55,58.78
	c-4.38,5.27-9.65,7.9-16.67,9.65c-8.79,0.88-18.44-0.87-28.09-6.13c-9.69-4.93-20.02-8.48-30.7-10.53
	c-10.53-2.63-12.28-1.75-8.77,0.88c27.18,15.78,34.2,48.25,21.06,96.51l-15.8,46.5l-17.55,43.86
	c-14.03,35.97-21.06,73.71-21.93,113.19c0-20.18-2.63-42.98-7.89-68.43c-7.03-31.59-15.8-51.76-25.45-58.78
	c-8.78-7.9-19.3-9.65-29.83-6.15c-11.4,2.63-18.42,9.65-24.56,21.06c2.63-23.7,7.02-37.73,13.16-42.99c7.9-4.38,21.93,0,42.11,12.28
	c-13.16-31.59-21.06-52.64-22.81-64.04c-6.13-25.45-5.27-46.5,1.75-64.04c4.38-9.65,10.53-16.67,20.18-21.93
	c4.72-2.39,9.74-4.16,14.92-5.27c3.51-0.88,5.27-1.75,4.38-4.38l-1.76-14.05c-0.87-2.63-0.87-4.38-2.63-4.38
	c-0.87,0.87-1.75,4.38-1.75,14.03c0,1.76-3.51,2.63-13.16,3.51c-15.8,2.63-28.95,6.15-39.48,13.16c-9.65,6.13-19.3,7.9-28.08,6.13
	c-7.02-0.87-12.28-3.51-16.67-9.65c-4.1-5.32-7.35-11.24-9.65-17.55l-13.16-38.61c-10.53-32.46-24.56-57.03-41.24-74.58l-12.28-11.4
	h-7.02l-0.87,3.5l-2.63,7.03l-18.42,22.8c-11.4,15.8-20.18,29.83-27.2,42.99c-20.18,38.61-30.71,78.09-31.59,116.69
	c-0.87,42.98,5.27,76.33,19.3,100.02l0.88-0.87c-9.65-29.83-13.16-62.29-9.65-97.39c2.63-25.45,8.77-51.76,19.3-79.84
	c8.77-24.58,18.42-44.75,28.95-59.67c-4.38,22.81-5.27,51.76-1.75,85.11c4.38,41.23,14.03,75.45,30.7,101.77h0.88
	c-10.53-30.71-17.55-66.68-19.3-106.16c-0.88-34.21,0.87-63.18,6.13-86.86c4.38-21.06,10.53-30.71,15.8-30.71
	c2.63,0,5.27,3.51,8.77,10.53c5.27,6.15,8.78,12.28,10.53,18.43c8.77,20.18,14.03,41.24,17.55,65.8
	c7.02,52.64,17.55,82.47,32.46,88.62c8.77,4.38,17.55,1.75,28.08-5.27c9.65-6.15,15.8-15.8,20.18-25.45
	c-3.5,13.16-5.27,25.45-3.5,35.97c0.87,11.41,4.38,23.7,10.53,37.73l16.67,31.59l-15.8-8.78l-9.65-2.63
	c-7.89,0-13.16,4.38-16.67,15.8c-4.38,11.41-7.02,28.08-7.02,48.26c0,4.38-2.63,7.02-5.27,7.9c-16.68,3.51-22.81,9.65-19.31,17.55
	c9.66-4.38,21.06-7.03,35.1-7.9c0-7.9,3.51-15.8,9.65-23.7c8.78-7.9,17.55-9.65,28.08-7.02c14.03,6.15,24.56,24.56,33.33,56.15
	c7.9,26.33,12.28,57.03,14.92,90.37l1.75,50.89c0.88-4.38,1.76-21.93,2.63-50.89c1.75-33.33,6.15-64.04,14.05-90.37
	c8.77-31.58,20.18-50,34.21-56.15c9.66-2.63,19.31-0.88,27.18,7.9c7.02,7.02,10.53,14.92,8.79,22.81
	c14.92,0.87,26.32,3.51,35.97,7.9c4.38-7.9-1.75-13.16-18.42-17.55c-3.51-0.88-5.27-3.51-6.16-7.9
	c-0.88-21.93-2.63-37.73-6.13-48.26c-3.51-11.4-8.79-15.8-16.67-15.8l-10.53,5.27l-12.28,5.27l11.39-23.68
	c9.65-18.43,13.18-37.73,13.18-55.28c-0.88-11.4-0.88-20.18-3.51-27.2c6.16,14.05,11.4,22.81,16.67,27.2
	c4.38,4.38,8.79,7.02,14.92,7.02c6.16,0.88,11.4,0,16.67-4.38c13.18-11.4,24.58-40.36,31.59-85.99c6.16-28.95,11.4-50,17.56-65.8
	l9.65-18.43c5.27-7.02,7.87-10.53,9.65-10.53c5.27,0,11.4,9.65,15.78,30.71c5.27,23.7,7.9,52.64,6.16,86.86
	c-1.78,39.48-7.9,75.45-19.3,106.16h0.86c16.67-26.32,26.32-60.53,30.73-101.77c3.5-33.35,2.63-62.29-1.78-85.11
	c10.53,14.92,20.19,35.1,29.84,59.67c10.53,28.08,16.67,54.4,18.42,79.84c2.63,35.1,0,68.43-8.77,97.39l0.88,0.87
	c13.15-23.7,19.3-57.03,19.3-100.02C1484.25,808.25,1474.6,770.52,1454.44,731.04L1454.44,731.04z"/></svg>