<svg version="1.1" id="Layer_1" xmlns="http://www.w3.org/2000/svg" xmlns:xlink="http://www.w3.org/1999/xlink" x="0px" y="0px" viewBox="0 0 2500 2500" style="enable-background:new 0 0 2500 2500;" xml:space="preserve"><style type="text/css">
	.st0{fill-rule:evenodd;clip-rule:evenodd;fill:#D2B346;}
	.st1{fill-rule:evenodd;clip-rule:evenodd;fill:#CC2229;}
	.st2{fill-rule:evenodd;clip-rule:evenodd;}
</style><path d="M1373.69,1751.42l-114.04-314.11h-53.53c-66.68,191.28-102.66,294.8-107.92,307.95c-5.27,14.92-14.03,25.46-24.56,31.59
	c-8.77,3.51-17.55,6.16-27.2,7.9v5.27h115.82v-5.27c-9.65-1.75-17.55-4.38-22.81-7.9c-7.02-4.38-10.53-11.4-10.53-20.17
	c0-5.27,2.63-14.92,6.15-28.09l29.83-88.61h99.15l0,0c9.65,28.95,19.3,57.02,29.82,84.23l7.9,29.84c0.88,9.65-2.63,16.67-9.65,21.91
	c-5.27,4.41-12.28,7.04-21.93,8.79v5.27h150.03l0.88-5.27c-7.96-1-15.68-3.37-22.83-7.02
	C1386.87,1773.36,1378.97,1763.71,1373.69,1751.42z M1173.67,1614.55L1173.67,1614.55l42.11-119.33l41.24,119.33H1173.67z"/></svg>