<svg version="1.1" id="Layer_1" xmlns="http://www.w3.org/2000/svg" xmlns:xlink="http://www.w3.org/1999/xlink" x="0px" y="0px" viewBox="0 0 2500 2500" style="enable-background:new 0 0 2500 2500;" xml:space="preserve"><style type="text/css">
	.st0{fill-rule:evenodd;clip-rule:evenodd;fill:#D2B346;}
	.st1{fill-rule:evenodd;clip-rule:evenodd;fill:#CC2229;}
	.st2{fill-rule:evenodd;clip-rule:evenodd;}
</style><path class="st2" d="M2389.71,1787.39c0-7.02-2.63-13.18-7.9-18.44c-5.24-5.24-11.4-7.87-19.3-7.87c-6.13,0-13.15,2.63-18.42,7.87
	c-4.38,5.27-7.02,11.43-7.02,18.44c0,7.9,1.75,14.03,7.02,19.3c5.27,5.27,12.28,7.9,18.42,7.9c7.9,0,14.06-2.63,19.3-7.9
	C2387.07,1801.44,2389.71,1795.3,2389.71,1787.39z M2386.18,1787.39c0,7.02-2.61,12.28-7.02,16.67c-4.38,5.27-9.65,7.02-16.67,7.02
	c-6.13,0-11.4-1.75-15.78-7.02c-4.57-4.33-7.12-10.37-7.02-16.67c0-6.16,2.63-11.43,7.02-15.81s9.65-6.13,15.78-6.13
	c7.02,0,12.28,1.75,16.67,6.13C2383.57,1775.98,2386.18,1781.24,2386.18,1787.39z"/></svg>