<svg version="1.1" id="Layer_1" xmlns="http://www.w3.org/2000/svg" xmlns:xlink="http://www.w3.org/1999/xlink" x="0px" y="0px" viewBox="0 0 2500 2500" style="enable-background:new 0 0 2500 2500;" xml:space="preserve"><style type="text/css">
	.st0{fill-rule:evenodd;clip-rule:evenodd;fill:#D2B346;}
	.st1{fill-rule:evenodd;clip-rule:evenodd;fill:#CC2229;}
	.st2{fill-rule:evenodd;clip-rule:evenodd;}
</style><path d="M748.15,1777.74c-10.53-4.38-19.3-14.03-24.56-26.32l-114.06-314.11h-52.64c-66.68,191.28-102.66,294.8-107.92,307.95
	c-5.27,14.92-13.16,25.46-25.45,31.59c-8.12,4.45-17.09,7.14-26.32,7.9v5.27h115.82v-5.27c-9.65-1.75-16.67-4.38-22.81-7.9
	c-7.02-4.38-11.4-11.4-10.53-20.17c0-5.27,1.75-14.92,6.13-28.09l30.71-88.61h97.39l30.71,84.23c4.38,14.92,7.03,24.58,7.9,29.84
	c0.87,9.65-2.63,16.67-10.53,21.91c-4.38,3.51-12.28,7.04-21.93,8.79v5.27h150.92v-5.27
	C763.21,1782.96,755.58,1780.61,748.15,1777.74L748.15,1777.74z M524.41,1614.55l40.36-119.33l42.11,119.33H524.41z"/></svg>