<svg version="1.1" id="Layer_1" xmlns="http://www.w3.org/2000/svg" xmlns:xlink="http://www.w3.org/1999/xlink" x="0px" y="0px" viewBox="0 0 2500 2500" style="enable-background:new 0 0 2500 2500;" xml:space="preserve"><style type="text/css">
	.st0{fill-rule:evenodd;clip-rule:evenodd;fill:#D2B346;}
	.st1{fill-rule:evenodd;clip-rule:evenodd;fill:#CC2229;}
	.st2{fill-rule:evenodd;clip-rule:evenodd;}
</style><path d="M2148.43,1446.1c6.16,1.75,13.18,3.5,21.08,7.02c13.15,7.87,20.17,17.54,21.05,28.95v269.36
	c-0.88,10.52-7.9,19.3-21.05,27.18c-7.9,3.51-14.92,5.27-21.08,7.02v4.41h147.4v-4.41c-7.02-1.75-14.03-3.5-20.19-7.02
	c-14.89-7.87-21.91-16.67-21.91-27.18v-269.36c0-11.43,7.02-21.08,21.91-28.95c6.16-3.51,13.18-5.27,20.19-7.02v-4.41h-147.4V1446.1
	z"/></svg>