<svg version="1.1" id="Layer_1" xmlns="http://www.w3.org/2000/svg" xmlns:xlink="http://www.w3.org/1999/xlink" x="0px" y="0px" viewBox="0 0 2500 2500" style="enable-background:new 0 0 2500 2500;" xml:space="preserve"><style type="text/css">
	.st0{fill-rule:evenodd;clip-rule:evenodd;fill:#D2B346;}
	.st1{fill-rule:evenodd;clip-rule:evenodd;fill:#CC2229;}
	.st2{fill-rule:evenodd;clip-rule:evenodd;}
</style><path d="M2374.79,1796.16l-1.75-4.38c-0.88-1.75-2.63-1.75-5.27-2.63l4.38-1.75c1.76-0.88,3.51-3.51,3.51-6.15
	c0-3.5-1.75-5.27-5.27-7.02l-7.9-0.86h-9.65v28.95h4.41v-11.43h4.38l5.27,0.88c1.75,0.88,2.61,3.51,2.61,7.02v1.75l0.88,1.78h5.27
	l-0.88-1.78V1796.16z M2366.9,1786.51l-4.41,0.88h-5.24v-10.53h5.24l6.16,0.88l0.86,5.27L2366.9,1786.51z"/></svg>