<svg version="1.1" id="Layer_1" xmlns="http://www.w3.org/2000/svg" xmlns:xlink="http://www.w3.org/1999/xlink" x="0px" y="0px" viewBox="0 0 2500 2500" style="enable-background:new 0 0 2500 2500;" xml:space="preserve"><style type="text/css">
	.st0{fill-rule:evenodd;clip-rule:evenodd;fill:#D2B346;}
	.st1{fill-rule:evenodd;clip-rule:evenodd;fill:#CC2229;}
	.st2{fill-rule:evenodd;clip-rule:evenodd;}
</style><path class="st2" d="M1436,678.4l-16.67-21.06c-0.86-3.51-2.63-6.15-3.5-9.65l-1.78-6.15c-2.61-4.38-8.77-5.27-17.54-3.51
	c-11.43,3.51-26.32,17.55-42.13,42.11c-24.58,34.23-45.63,60.54-64.04,76.34c-12.28,11.4-26.32,17.55-41.24,19.3
	c-3.51,0-7.02-0.88-10.53-2.63c-4.38-3.51-7.02-11.41-7.02-25.45c11.4-7.9,19.3-17.55,26.32-29.83c5.27-8.77,7.02-16.67,7.02-24.56
	c-0.86-7.9-12.27-8.77-35.1-1.75l-14.9,5.27l-5.27-5.27l-10.53-11.4c-9.65-7.02-15.8-5.27-19.3,4.38c-0.87,3.51-1.75,9.65-2.63,19.3
	c-27.2,13.16-41.24,24.56-41.24,32.46c0,5.27,2.63,9.65,8.78,13.15c5.27,2.63,14.92,6.15,28.95,9.65c0.88,7.9,0,12.28-2.63,14.92
	l-10.53,0.87c-17.55-1.75-31.59-7.89-43.86-18.42c-16.67-14.05-37.73-39.48-63.18-75.46c-12.28-18.42-26.32-32.46-41.24-42.11
	l-7.9-2.63h-8.74l-4.38,6.15l-0.88,7.89c0,2.63-2.63,5.27-4.38,8.78l-14.92,19.3l-32.46,42.99c-7.9,14.03-17.55,30.7-27.2,51.76
	c-12.28,27.2-20.18,58.78-23.68,94.76c-2.63,35.97-0.88,68.43,6.13,100.02c12.28,50.01,33.35,93.88,64.04,131.6l14.92,16.67
	c4.38,7.03,7.02,7.9,10.53,3.51c0.88-1.76,0-5.27-4.38-9.65l-10.53-13.16c-12.28-17.56-21.93-35.1-28.08-53.53
	c-18.43-46.5-21.06-71.94-8.78-78.09c8.78-3.51,19.3,4.38,32.46,25.45l8.77,14.92c3.51,7.9,6.15,11.4,9.65,10.53
	c3.51-2.63,1.75-7.03-4.38-15.8c-7.02-14.03-14.03-32.46-18.42-56.15c-5.27-30.71-2.63-50.01,7.89-57.03
	c11.41-6.15,24.58,0,39.48,19.3c5.27,5.27,8.77,12.28,12.28,19.3c6.15,12.28,9.65,20.18,10.53,25.45c1.75,7.02,2.63,9.65,6.15,8.77
	c4.38-0.88,5.27-4.38,1.75-11.4l-2.63-19.3c0-18.43,4.38-28.95,14.05-31.59c10.53-3.51,20.18,0.88,29.83,14.92
	c9.65,14.03,14.03,33.33,14.03,57.03c0,5.27-2.63,7.9-6.15,10.53c-14.03,5.27-20.18,12.28-20.18,20.18
	c0.87,9.65,3.51,16.67,9.65,22.81c28.95-14.05,49.13-16.67,64.04-7.02c11.4,7.02,23.7,28.08,35.1,64.04s18.42,72.81,21.93,111.42
	l1.76,25.45c0,5.27,0.87,7.02,4.38,7.02c3.51,0,5.27-1.75,4.38-7.02l1.75-25.45c3.51-38.61,11.41-75.46,21.93-109.67
	c10.53-35.1,22.81-57.03,34.21-65.8c14.03-9.65,34.23-7.03,63.18,5.25c7.9-3.5,11.4-11.4,12.28-21.05c0-8.78-6.16-15.8-20.19-20.18
	c-4.38-2.63-7.02-5.27-7.02-10.53c0-23.7,4.38-42.99,14.03-57.91c9.65-13.16,19.3-17.55,29.84-14.92
	c10.52,3.51,14.92,14.03,14.03,32.46l-1.75,19.3c-3.51,7.02-3.51,10.53,0.86,10.53c3.51,0.88,5.27-1.75,6.16-8.77
	c0-5.27,3.5-14.05,10.52-25.45c3.51-7.02,7.9-13.16,12.28-19.3c14.92-19.3,28.09-25.43,39.49-18.42c11.4,7.02,14.03,26.32,7.9,56.15
	c-2.81,12.76-6.33,25.36-10.53,37.73l-8.77,18.42c-5.27,9.65-6.16,14.05-3.51,15.8c3.51,0.88,7.02-1.75,9.65-9.65l9.65-14.92
	c13.18-21.93,22.83-29.83,32.45-25.45c12.28,5.27,9.68,31.59-9.62,78.09c-6.54,19.19-16.02,37.24-28.09,53.53l-10.52,13.16
	c-3.51,3.51-5.27,7.02-3.51,9.65c3.51,3.51,6.16,3.51,9.65-3.51l14.92-16.67c30.7-37.73,52.64-82.47,64.04-131.6
	c7.02-31.59,8.79-64.93,6.16-100.02c-3.51-35.97-10.53-67.56-23.68-94.76c-9.65-21.06-19.32-37.73-27.21-51.76L1436,678.4
	L1436,678.4z"/></svg>