<svg version="1.1" id="Layer_1" xmlns="http://www.w3.org/2000/svg" xmlns:xlink="http://www.w3.org/1999/xlink" x="0px" y="0px" viewBox="0 0 2500 2500" style="enable-background:new 0 0 2500 2500;" xml:space="preserve"><style type="text/css">
	.st0{fill-rule:evenodd;clip-rule:evenodd;fill:#D2B346;}
	.st1{fill-rule:evenodd;clip-rule:evenodd;fill:#CC2229;}
	.st2{fill-rule:evenodd;clip-rule:evenodd;}
</style><path d="M377.87,1631.22c-19.3-18.44-42.98-27.21-70.19-27.21c18.46-3.51,35.12-10.53,47.39-23.67
	c14.92-15.81,21.06-36.86,17.55-62.29c-4.38-24.58-16.67-42.98-35.97-57.04c-21.93-14.89-50.88-21.91-85.98-20.17
	c-62.29,1.75-107.92,1.75-140.38,0.86v5.27l21.93,6.16c7.9,5.27,13.16,7.87,14.92,10.52c4.38,4.38,7.02,9.65,6.15,15.81v271.99
	c0.87,9.65-7.03,19.3-21.06,26.32c-7.9,3.5-14.92,5.27-21.93,7.02v5.27h86.86l90.36,0.86c35.98-0.86,64.93-9.65,85.99-23.68
	c22.81-15.78,34.21-37.72,35.97-64.93C410.35,1673.33,399.82,1649.64,377.87,1631.22z M217.32,1462.77l21.06-4.38
	c17.55,0,33.35,6.13,46.5,16.67c14.92,13.15,21.93,30.7,21.93,51.75c0,25.46-5.27,42.98-16.68,53.53
	c-14.92,12.28-37.73,16.67-72.81,13.15V1462.77z M339.29,1695.26c0,14.03-1.75,27.21-6.13,36.86
	c-11.4,27.18-35.98,41.24-73.69,41.24c-27.2,0-42.11-10.53-41.24-32.48v-125.47l29.83-2.63c35.98,2.63,62.29,16.67,78.96,42.13
	C334.02,1666.32,338.41,1680.35,339.29,1695.26L339.29,1695.26z"/></svg>