<svg version="1.1" id="Layer_1" xmlns="http://www.w3.org/2000/svg" xmlns:xlink="http://www.w3.org/1999/xlink" x="0px" y="0px" viewBox="0 0 2500 2500" style="enable-background:new 0 0 2500 2500;" xml:space="preserve"><style type="text/css">
	.st0{fill-rule:evenodd;clip-rule:evenodd;fill:#D2B346;}
	.st1{fill-rule:evenodd;clip-rule:evenodd;fill:#CC2229;}
	.st2{fill-rule:evenodd;clip-rule:evenodd;}
</style><path class="st0" d="M1621.12,896.86c0-57.03-10.52-111.42-31.57-163.2c-21.93-49.13-51.78-93.88-90.39-132.49
	c-38.61-38.6-83.34-68.43-132.49-90.36c-51.75-21.06-106.17-32.46-163.2-32.46c-57.03,0-110.54,11.4-162.32,32.46
	c-49.84,21.28-95.12,51.96-133.36,90.36c-38.61,38.61-69.31,83.36-90.37,132.49c-21.06,51.76-32.46,106.17-32.46,163.2
	c0,57.03,11.4,110.54,32.46,162.32c21.06,50.89,51.76,94.76,90.37,133.36c38.61,38.61,82.47,69.31,133.36,89.5
	c51.76,21.93,105.29,33.33,162.32,33.33c57.03,0,111.44-11.4,163.2-33.33c49.14-20.19,93.88-50.89,132.49-89.5
	c38.61-38.6,68.44-82.46,90.39-133.36C1610.61,1007.4,1621.12,953.89,1621.12,896.86L1621.12,896.86z"/></svg>