<svg version="1.1" id="Layer_1" xmlns="http://www.w3.org/2000/svg" xmlns:xlink="http://www.w3.org/1999/xlink" x="0px" y="0px" viewBox="0 0 2500 2500" style="enable-background:new 0 0 2500 2500;" xml:space="preserve"><style type="text/css">
	.st0{fill-rule:evenodd;clip-rule:evenodd;fill:#D2B346;}
	.st1{fill-rule:evenodd;clip-rule:evenodd;fill:#CC2229;}
	.st2{fill-rule:evenodd;clip-rule:evenodd;}
</style><path d="M2082.65,1493.47c-34.23-32.48-80.74-49.14-138.65-51.78l0,0h-168.45v4.41c6.16,1.75,13.18,3.5,20.19,7.02
	c14.03,7.87,21.05,16.67,21.05,26.32v272.84c0,10.53-7.02,18.44-21.05,27.21l-20.19,5.27v5.27h69.31c13.18,0,45.65,0.86,97.4,2.63
	c63.18,0.86,111.44-16.69,146.52-54.41c31.59-32.45,47.37-71.94,47.37-118.45C2135.29,1567.15,2117.73,1525.05,2082.65,1493.47z
	 M2040.52,1713.68c-15.78,30.73-40.35,49.14-74.58,57.04l-25.43,2.63l-27.21-0.88c-11.4-2.63-17.56-5.27-21.05-8.77
	c-7.02-5.27-11.4-15.81-11.4-29.84c-0.88-25.43-0.88-115.82-0.88-270.24c18.4-6.12,41.23-6.12,68.42-1.74v0
	c33.36,7.02,60.54,23.68,80.74,50.89c21.05,27.21,30.7,60.54,31.59,100.01C2060.71,1654.03,2054.55,1687.37,2040.52,1713.68z"/></svg>