<svg version="1.1" id="Layer_1" xmlns="http://www.w3.org/2000/svg" xmlns:xlink="http://www.w3.org/1999/xlink" x="0px" y="0px" viewBox="0 0 2500 2500" style="enable-background:new 0 0 2500 2500;" xml:space="preserve"><style type="text/css">
	.st0{fill-rule:evenodd;clip-rule:evenodd;fill:#D2B346;}
	.st1{fill-rule:evenodd;clip-rule:evenodd;fill:#CC2229;}
	.st2{fill-rule:evenodd;clip-rule:evenodd;}
</style><path d="M1076.27,1709.3l-5.27-3.5c-16.67,24.58-35.97,43.85-61.41,56.13c-23.08,11.56-48.83,16.71-74.58,14.92
	c-31.58-0.88-58.78-15.78-80.71-42.1c-22.81-28.09-35.1-64.06-35.97-109.69c-1.76-48.26,7.02-88.61,27.2-120.2
	c21.93-34.23,51.76-50.89,89.48-53.53c30.71,0.01,56.16,8.81,78.97,27.22v0c21.93,19.3,35.98,43.88,40.36,73.72h5.27
	c-0.88-54.41,0-90.39,1.75-107.05h-2.63c-1.75,3.51-7.03,6.13-13.16,7.02l-21.06-1.75c-35.1-13.18-71.06-18.44-107.04-15.81
	c-46.5,1.78-86.86,20.19-119.32,53.53c-35.1,36.86-52.64,82.47-50.89,139.5c0.88,56.16,19.31,100.04,54.4,130.74
	c33.35,29.82,75.46,42.98,128.1,41.24c35.97-0.88,66.68-9.65,93.88-28.09c19.3-13.15,34.21-28.95,43.86-46.48L1076.27,1709.3z"/></svg>