<svg version="1.1" id="Layer_1" xmlns="http://www.w3.org/2000/svg" xmlns:xlink="http://www.w3.org/1999/xlink" x="0px" y="0px" viewBox="0 0 2500 2500" style="enable-background:new 0 0 2500 2500;" xml:space="preserve"><style type="text/css">
	.st0{fill-rule:evenodd;clip-rule:evenodd;fill:#D2B346;}
	.st1{fill-rule:evenodd;clip-rule:evenodd;fill:#CC2229;}
	.st2{fill-rule:evenodd;clip-rule:evenodd;}
</style><path class="st1" d="M1564.1,896.86c0-49.13-8.77-96.51-28.07-140.37c-17.56-42.99-43.88-81.61-77.21-114.94
	c-34.23-33.35-71.94-59.66-114.93-77.21c-44.76-19.3-91.26-28.07-140.4-28.07c-49.13,0-95.64,8.77-140.37,28.07
	c-43.88,17.55-81.59,43.86-114.94,77.21c-33.35,33.35-58.79,71.94-77.21,114.94c-19.3,43.86-28.95,91.24-28.95,140.37
	c0,49.13,9.65,95.64,28.95,140.37c18.42,42.99,43.86,81.61,77.21,114.94c32.85,33.06,71.91,59.3,114.94,77.21
	c44.29,19.25,92.08,29.11,140.37,28.96c49.14,0,95.64-9.65,140.4-28.96c42.98-18.42,80.71-43.86,114.93-77.21
	c33.33-33.35,59.66-71.94,77.21-114.94C1555.33,992.49,1564.1,945.99,1564.1,896.86z"/></svg>