<svg version="1.1" id="Layer_1" xmlns="http://www.w3.org/2000/svg" xmlns:xlink="http://www.w3.org/1999/xlink" x="0px" y="0px" viewBox="0 0 263.2 212.12" style="enable-background:new 0 0 263.2 212.12;" xml:space="preserve"><style type="text/css">
	.st0{fill:#005EA5;}
	.st1{fill:#DD5B9D;}
	.st2{fill:#FEFEFE;}
</style><path class="st0" d="M155.99,152.74c0,1.92,0,3.69,0,5.46c0,1.11,0.01,1.11-1.07,1.08c-0.85-0.03-1.69-0.08-2.54-0.09
	c-0.38-0.01-0.53-0.12-0.52-0.54c0.13-5.14,0.23-10.27,0.34-15.41c0-0.1,0-0.21,0.18-0.28c3,3.44,6.01,6.9,9.13,10.48
	c0.06-1.13,0.12-2.14,0.16-3.15c0.04-1.03,0.08-2.05,0.08-3.08c0-0.48,0.18-0.61,0.64-0.58c0.9,0.05,1.8,0.05,2.7,0.06
	c0.33,0,0.52,0.07,0.51,0.47c-0.15,5.03-0.28,10.07-0.43,15.1c0,0.02-0.04,0.03-0.13,0.11
	C162.05,159.17,159.05,155.99,155.99,152.74z"/></svg>