<svg version="1.1" id="Layer_1" xmlns="http://www.w3.org/2000/svg" xmlns:xlink="http://www.w3.org/1999/xlink" x="0px" y="0px" viewBox="0 0 263.2 212.12" style="enable-background:new 0 0 263.2 212.12;" xml:space="preserve"><style type="text/css">
	.st0{fill:#005EA5;}
	.st1{fill:#DD5B9D;}
	.st2{fill:#FEFEFE;}
</style><path class="st0" d="M130.55,142.01c2.26-0.15,2.26-0.15,2.3,2.05c0.02,0.95,0.06,1.9,0.05,2.85c-0.01,0.59,0.11,0.68,0.68,0.41
	c2.53-1.19,5-1.01,7.29,0.58c2.47,1.71,3.44,4.79,2.47,7.56c-0.98,2.83-3.78,4.69-6.87,4.6c-1.09-0.03-2.12-0.32-3.09-0.8
	c-0.04,0.07-0.06,0.09-0.06,0.12c-0.1,1.34-0.1,1.34-1.48,1.38c-0.59,0.01-1.18-0.01-1.77,0.04c-0.47,0.04-0.6-0.1-0.61-0.58
	c-0.07-3.18-0.18-6.37-0.27-9.55c-0.07-2.59-0.13-5.19-0.19-7.78c-0.01-0.25,0.03-0.51,0.04-0.76
	C129.53,141.95,130.05,142.17,130.55,142.01z"/></svg>