<svg version="1.1" id="Layer_1" xmlns="http://www.w3.org/2000/svg" xmlns:xlink="http://www.w3.org/1999/xlink" x="0px" y="0px" viewBox="0 0 263.2 212.12" style="enable-background:new 0 0 263.2 212.12;" xml:space="preserve"><style type="text/css">
	.st0{fill:#005EA5;}
	.st1{fill:#DD5B9D;}
	.st2{fill:#FEFEFE;}
</style><path class="st0" d="M149.26,149.49c-0.18,3.02-0.38,6.04-0.52,9.07c-0.03,0.7-0.24,0.92-0.95,0.81c-0.81-0.12-1.64-0.13-2.46-0.17
	c-0.39-0.02-0.59-0.11-0.55-0.59c0.26-3.79,0.5-7.58,0.72-11.37c0.02-0.42,0.17-0.51,0.55-0.48c0.97,0.08,1.95,0.13,2.92,0.17
	c0.34,0.01,0.45,0.15,0.42,0.48c-0.05,0.69-0.08,1.38-0.11,2.07C149.27,149.49,149.26,149.49,149.26,149.49z"/></svg>