<svg version="1.1" id="Layer_1" xmlns="http://www.w3.org/2000/svg" xmlns:xlink="http://www.w3.org/1999/xlink" x="0px" y="0px" viewBox="0 0 263.2 212.12" style="enable-background:new 0 0 263.2 212.12;" xml:space="preserve"><style type="text/css">
	.st0{fill:#005EA5;}
	.st1{fill:#DD5B9D;}
	.st2{fill:#FEFEFE;}
</style><path class="st0" d="M94.03,146.76c1.27-0.82,2.59-1.26,4.04-1.26c0.4,0,0.58,0.1,0.61,0.55c0.06,1.1,0.18,2.2,0.27,3.3
	c0.02,0.24,0.11,0.47-0.33,0.52c-2.81,0.3-4.01,1.63-3.95,4.5c0.02,1.38,0.22,2.76,0.35,4.14c0.11,1.2,0.22,2.4,0.35,3.6
	c0.04,0.34-0.08,0.46-0.4,0.49c-1.28,0.11-2.56,0.22-3.83,0.35c-0.39,0.04-0.47-0.14-0.5-0.48c-0.41-4.6-0.83-9.2-1.25-13.8
	c-0.08-0.87-0.15-1.74-0.26-2.6c-0.06-0.44,0.01-0.65,0.52-0.68c1.15-0.06,2.3-0.18,3.45-0.3c0.54-0.06,0.89,0,0.84,0.67
	C93.9,146.05,93.98,146.36,94.03,146.76z"/></svg>