<svg version="1.1" id="Layer_1" xmlns="http://www.w3.org/2000/svg" xmlns:xlink="http://www.w3.org/1999/xlink" x="0px" y="0px" viewBox="0 0 263.2 212.12" style="enable-background:new 0 0 263.2 212.12;" xml:space="preserve"><style type="text/css">
	.st0{fill:#005EA5;}
	.st1{fill:#DD5B9D;}
	.st2{fill:#FEFEFE;}
</style><path class="st1" d="M120.29,82.7c1.92,0.61,3.77,1.33,5.52,2.31c3.42,1.92,6.02,4.53,7.01,8.46c0.81,3.23,0.21,6.31-0.96,9.34
	c-1.49,3.87-4.23,6.63-7.78,8.63c-3.63,2.05-7.58,3.1-11.67,3.7c-2.95,0.44-5.93,0.54-8.9,0.61c-0.74,0.02-0.9-0.23-0.87-0.91
	c0.06-1.15,0.07-2.31,0.02-3.47c-0.03-0.74,0.13-1.03,0.97-0.99c2.83,0.13,5.6-0.24,8.19-1.42c4.08-1.85,6.37-5.07,6.64-9.52
	c0.21-3.44-1.55-5.91-4.52-7.55c-2.31-1.28-4.82-1.89-7.41-2.17c-1.95-0.21-1.94-0.16-2.03-2.14c-0.07-1.77-0.17-3.54-0.29-5.3
	c-0.04-0.54,0.07-0.74,0.67-0.79c2.97-0.23,5.74-1.07,8.14-2.92c2.99-2.3,4.32-6.03,3.36-9.43c-0.54-1.91-1.87-3.15-3.56-4.05
	c-2.1-1.11-4.38-1.57-6.7-1.9c-1.42-0.2-2.86-0.32-4.3-0.28c-0.42,0.01-0.58-0.09-0.6-0.55c-0.13-3.1-0.29-6.21-0.43-9.31
	c-0.06-1.36-0.11-2.72-0.17-4.08c-0.01-0.33-0.03-0.59,0.45-0.6c5.96-0.13,11.86,0.24,17.51,2.38c4.11,1.56,7.59,3.96,9.97,7.76
	c1.77,2.82,2.8,5.9,2.88,9.22c0.13,5-2.2,8.8-6.06,11.77c-1.41,1.09-2.93,1.99-4.52,2.79C120.66,82.38,120.41,82.41,120.29,82.7z"/></svg>