<svg version="1.1" id="Layer_1" xmlns="http://www.w3.org/2000/svg" xmlns:xlink="http://www.w3.org/1999/xlink" x="0px" y="0px" viewBox="0 0 263.2 212.12" style="enable-background:new 0 0 263.2 212.12;" xml:space="preserve"><style type="text/css">
	.st0{fill:#005EA5;}
	.st1{fill:#DD5B9D;}
	.st2{fill:#FEFEFE;}
</style><path class="st0" d="M139,131.1c2.43-2.36,4.7-4.55,6.95-6.76c0.36-0.36,0.57-0.43,0.97-0.03c0.65,0.65,1.37,1.24,2.09,1.82
	c0.31,0.25,0.34,0.4,0.03,0.69c-1.05,0.98-2.06,2.01-3.12,2.98c-0.44,0.4-0.51,0.65-0.12,1.16c1.34,1.75,2.62,3.56,3.94,5.32
	c0.32,0.42,0.42,0.65-0.13,0.97c-0.86,0.5-1.69,1.08-2.48,1.69c-0.46,0.35-0.66,0.22-0.94-0.2c-1.14-1.65-2.33-3.26-3.47-4.9
	c-0.31-0.45-0.48-0.49-0.89-0.09c-2.45,2.41-4.94,4.8-7.57,7.34c0.02-0.52,0.03-0.88,0.06-1.24c0.39-6.82,0.79-13.64,1.17-20.47
	c0.03-0.53,0.14-0.71,0.7-0.65c0.97,0.09,1.95,0.13,2.92,0.13c0.56,0,0.75,0.15,0.71,0.75c-0.26,3.3-0.47,6.61-0.7,9.91
	C139.06,129.98,139.04,130.44,139,131.1z"/></svg>