<svg version="1.1" id="Layer_1" xmlns="http://www.w3.org/2000/svg" xmlns:xlink="http://www.w3.org/1999/xlink" x="0px" y="0px" viewBox="0 0 263.2 212.12" style="enable-background:new 0 0 263.2 212.12;" xml:space="preserve"><style type="text/css">
	.st0{fill:#005EA5;}
	.st1{fill:#DD5B9D;}
	.st2{fill:#FEFEFE;}
</style><path class="st0" d="M99.08,82.95c0.31,10.24,0.62,20.49,0.92,30.73c0.04,1.24,0.25,1.09-1.06,1.15c-1.8,0.08-3.6,0.11-5.39,0.23
	c-0.6,0.04-0.77-0.15-0.88-0.7c-1.23-6.45-2.49-12.89-3.75-19.33c-1.77-9.03-3.56-18.07-5.32-27.1c-0.87-4.46-1.7-8.92-2.57-13.37
	c-0.1-0.53-0.08-0.72,0.55-0.82c5.25-0.82,10.48-1.69,15.73-2.55c0.46-0.08,0.85-0.22,0.87,0.57c0.3,10.4,0.64,20.8,0.97,31.19
	C99.13,82.95,99.1,82.95,99.08,82.95z"/></svg>