<svg version="1.1" id="Layer_1" xmlns="http://www.w3.org/2000/svg" xmlns:xlink="http://www.w3.org/1999/xlink" x="0px" y="0px" viewBox="0 0 263.2 212.12" style="enable-background:new 0 0 263.2 212.12;" xml:space="preserve"><style type="text/css">
	.st0{fill:#005EA5;}
	.st1{fill:#DD5B9D;}
	.st2{fill:#FEFEFE;}
</style><path class="st0" d="M181.27,71.64c-0.13,7.37-3.27,12.95-8.98,17.16c-2.22,1.64-4.62,2.96-7.18,4c-0.53,0.21-0.58,0.42-0.39,0.95
	c2.43,6.45,4.83,12.92,7.27,19.37c0.23,0.62,0.12,0.81-0.51,0.91c-2.28,0.39-4.55,0.81-6.81,1.25c-0.49,0.09-0.62-0.2-0.82-0.5
	c-2.82-4.5-5.64-9-8.46-13.5c-1.14-1.83-2.28-3.66-3.44-5.48c-0.21-0.32-0.28-0.63-0.23-1.01c0.31-2.29,0.61-4.58,0.87-6.87
	c0.06-0.53,0.26-0.73,0.76-0.86c2.86-0.78,5.63-1.75,8.06-3.52c3.11-2.27,4.41-5.98,3.39-9.59c-0.57-2.01-1.87-3.45-3.58-4.56
	c-1.81-1.17-3.83-1.85-5.91-2.33c-0.55-0.13-0.69-0.33-0.63-0.92c0.47-4.7,0.89-9.41,1.32-14.11c0.04-0.4,0.01-0.73,0.62-0.69
	c5.19,0.37,10.24,1.26,14.88,3.76c5.94,3.2,8.92,8.34,9.65,14.92C181.22,70.61,181.24,71.23,181.27,71.64z"/></svg>