<svg version="1.1" id="Layer_1" xmlns="http://www.w3.org/2000/svg" xmlns:xlink="http://www.w3.org/1999/xlink" x="0px" y="0px" viewBox="0 0 263.2 212.12" style="enable-background:new 0 0 263.2 212.12;" xml:space="preserve"><style type="text/css">
	.st0{fill:#005EA5;}
	.st1{fill:#DD5B9D;}
	.st2{fill:#FEFEFE;}
</style><path class="st0" d="M173.74,145.13c0.06-0.02,0.18,0.11,0.27,0.33c0.27,0.66,0.53,1.33,0.83,1.98c0.17,0.37,0.14,0.53-0.3,0.62
	c-0.58,0.11-1.13,0.33-1.65,0.62c-1.16,0.65-1.54,1.53-1.05,2.77c0.55,1.4,1.21,2.77,1.81,4.16c0.41,0.94,0.76,1.9,0.91,2.92
	c0.24,1.57-0.27,2.83-1.46,3.83c-1.32,1.11-2.9,1.6-4.55,1.93c-0.26,0.05-0.39-0.03-0.48-0.24c-0.08-0.19-0.17-0.37-0.24-0.56
	c-0.23-0.57-0.69-1.17-0.63-1.7c0.08-0.68,0.98-0.48,1.5-0.73c1.66-0.8,2.1-1.77,1.37-3.47c-0.61-1.44-1.3-2.84-1.96-4.26
	c-0.3-0.65-0.58-1.31-0.74-2.01c-0.29-1.24-0.03-2.36,0.75-3.33C169.51,146.26,171.48,145.64,173.74,145.13z"/></svg>