<svg version="1.1" id="Layer_1" xmlns="http://www.w3.org/2000/svg" xmlns:xlink="http://www.w3.org/1999/xlink" x="0px" y="0px" viewBox="0 0 263.2 212.12" style="enable-background:new 0 0 263.2 212.12;" xml:space="preserve"><style type="text/css">
	.st0{fill:#005EA5;}
	.st1{fill:#DD5B9D;}
	.st2{fill:#FEFEFE;}
</style><path class="st0" d="M93.06,127.16c4.42-2.27,7.98-1.97,10.59,0.85c2.26,2.45,2.61,5.98,0.87,8.82c-1.96,3.19-5.5,4.36-9.63,3.17
	c-0.03,0.04-0.08,0.08-0.07,0.12c0.16,1.5,0.16,1.49-1.36,1.68c-0.69,0.09-1.38,0.16-2.06,0.28c-0.46,0.09-0.61-0.02-0.67-0.51
	c-0.53-4.07-1.1-8.13-1.65-12.2c-0.33-2.44-0.64-4.88-0.99-7.32c-0.06-0.43-0.01-0.58,0.45-0.63c0.99-0.1,1.98-0.25,2.97-0.42
	c0.54-0.09,0.76,0.02,0.83,0.63C92.53,123.49,92.81,125.31,93.06,127.16z"/></svg>