<svg version="1.1" id="Layer_1" xmlns="http://www.w3.org/2000/svg" xmlns:xlink="http://www.w3.org/1999/xlink" x="0px" y="0px" viewBox="0 0 263.2 212.12" style="enable-background:new 0 0 263.2 212.12;" xml:space="preserve"><style type="text/css">
	.st0{fill:#005EA5;}
	.st1{fill:#DD5B9D;}
	.st2{fill:#FEFEFE;}
</style><path class="st0" d="M164.03,133.86c-0.07,1.98-0.16,4.05-0.19,6.13c-0.01,0.65-0.22,0.83-0.84,0.77c-1.02-0.09-2.05-0.11-3.08-0.15
	c-0.28-0.01-0.47-0.02-0.45-0.41c0.26-5.26,0.49-10.52,0.74-15.78c0-0.04,0.05-0.08,0.02-0.04c3.26,3.13,6.54,6.28,9.82,9.42
	c0.03-0.65,0.08-1.38,0.11-2.12c0.06-1.44,0.11-2.88,0.15-4.31c0.01-0.33,0.05-0.52,0.46-0.5c1.15,0.07,2.31,0.13,3.46,0.15
	c0.52,0.01,0.41,0.34,0.4,0.63c-0.1,2.34-0.21,4.67-0.33,7.01c-0.13,2.77-0.27,5.54-0.41,8.31c-0.01,0.14-0.02,0.29-0.02,0.29
	C170.62,140.16,167.32,137.01,164.03,133.86z"/></svg>