<svg version="1.1" id="Layer_1" xmlns="http://www.w3.org/2000/svg" xmlns:xlink="http://www.w3.org/1999/xlink" x="0px" y="0px" viewBox="0 0 263.2 212.12" style="enable-background:new 0 0 263.2 212.12;" xml:space="preserve"><style type="text/css">
	.st0{fill:#005EA5;}
	.st1{fill:#DD5B9D;}
	.st2{fill:#FEFEFE;}
</style><path class="st0" d="M117.83,141.38c-0.83,0.26-1.58,0.54-2.4,0.64c-3.38,0.4-6.61-1.32-8.05-4.33c-1.35-2.82-0.75-6.16,1.51-8.36
	c2.4-2.34,6.13-2.88,9.13-1.31c0.16,0.08,0.32,0.17,0.47,0.27c0.28,0.19,0.43,0.22,0.47-0.21c0.11-1.28,0.12-1.27,1.42-1.13
	c0.76,0.09,1.53,0.17,2.3,0.2c0.44,0.02,0.49,0.2,0.46,0.57c-0.23,2.92-0.45,5.83-0.67,8.75c-0.16,2.1-0.33,4.2-0.47,6.3
	c-0.03,0.46-0.15,0.61-0.65,0.54c-0.94-0.13-1.89-0.21-2.84-0.22c-0.67-0.01-0.86-0.26-0.74-0.87
	C117.82,141.95,117.81,141.7,117.83,141.38z"/></svg>