<svg version="1.1" id="Layer_1" xmlns="http://www.w3.org/2000/svg" xmlns:xlink="http://www.w3.org/1999/xlink" x="0px" y="0px" viewBox="0 0 263.2 212.12" style="enable-background:new 0 0 263.2 212.12;" xml:space="preserve"><style type="text/css">
	.st0{fill:#005EA5;}
	.st1{fill:#DD5B9D;}
	.st2{fill:#FEFEFE;}
</style><path class="st0" d="M117.87,150.51c4.05-1.83,7.41-0.04,8.97,2.06c1.75,2.36,1.75,5.56,0,7.89c-2.11,2.8-5.2,3.42-9.34,1.85
	c-0.02,0.02-0.04,0.03-0.05,0.05c-0.2,1.36-0.2,1.36-1.63,1.29c-0.54-0.03-1.08-0.08-1.62-0.05c-0.57,0.04-0.66-0.2-0.64-0.71
	c0.17-5.83,0.33-11.65,0.47-17.48c0.01-0.49,0.13-0.68,0.65-0.63c0.87,0.07,1.74,0.11,2.62,0.1c0.47,0,0.6,0.14,0.59,0.62
	C117.84,147.17,117.87,148.83,117.87,150.51z"/></svg>