<svg version="1.1" id="Layer_1" xmlns="http://www.w3.org/2000/svg" xmlns:xlink="http://www.w3.org/1999/xlink" x="0px" y="0px" viewBox="0 0 263.2 212.12" style="enable-background:new 0 0 263.2 212.12;" xml:space="preserve"><style type="text/css">
	.st0{fill:#005EA5;}
	.st1{fill:#DD5B9D;}
	.st2{fill:#FEFEFE;}
</style><path class="st0" d="M130.55,142.01c-0.49,0.26-1.01,0.07-1.51,0.13c-0.59-0.21-1.04,0.24-1.56,0.36c-1.51,0.34-1.23,0.6-1.88-0.88
	c-0.21-0.47-0.42-0.93-0.63-1.41c0.63-0.24,1.27-0.43,1.86-0.72c1.63-0.81,1.97-1.84,1.14-3.45c-0.74-1.43-1.5-2.86-2.15-4.34
	c-1.23-2.8-0.54-4.92,2.09-6.46c1.11-0.65,2.31-1.09,3.53-1.49c0.24-0.08,0.41-0.13,0.55,0.18c0.29,0.68,0.62,1.35,0.93,2.02
	c0.17,0.37,0.07,0.57-0.35,0.63c-0.28,0.04-0.55,0.13-0.81,0.24c-1.73,0.74-2.75,1.68-1.66,3.89c0.66,1.33,1.27,2.69,1.94,4.01
	c1.71,3.38,0.32,5.45-2.39,6.93c-0.15,0.08-0.3,0.16-0.43,0.39C129.67,142.01,130.11,142.01,130.55,142.01z"/></svg>