<svg version="1.1" id="Layer_1" xmlns="http://www.w3.org/2000/svg" xmlns:xlink="http://www.w3.org/1999/xlink" x="0px" y="0px" viewBox="0 0 263.2 212.12" style="enable-background:new 0 0 263.2 212.12;" xml:space="preserve"><style type="text/css">
	.st0{fill:#005EA5;}
	.st1{fill:#DD5B9D;}
	.st2{fill:#FEFEFE;}
</style><path class="st1" d="M131.46,19.57c-47.57,0.09-86.36,38.4-86.41,86.37c-0.05,48.15,39.01,86.49,86.41,86.51
	c47.65,0.02,86.42-38.7,86.45-86.39C217.94,58.81,179.72,19.65,131.46,19.57z M165.39,177.04c-7.34,3.52-15.06,5.8-23.13,6.91
	c-4.62,0.64-9.26,0.89-13.91,0.71c-10.45-0.42-20.46-2.75-29.99-7.11c-9.68-4.43-18.14-10.56-25.32-18.42
	c-9.91-10.85-16.34-23.49-19.16-37.93c-0.96-4.9-1.44-9.85-1.41-13.25c-0.02-14.04,2.8-25.81,8.41-36.9
	c3.37-6.67,7.64-12.71,12.77-18.15c9.03-9.59,19.79-16.5,32.25-20.76c5.41-1.85,10.96-3.04,16.64-3.68
	c4.25-0.48,8.51-0.6,12.77-0.39c9.65,0.48,18.93,2.63,27.79,6.52c9.48,4.16,17.85,9.93,25.03,17.38
	c10.33,10.72,17.15,23.35,20.31,37.92c1.11,5.11,1.67,10.27,1.72,15.5c0.16,15.88-4.08,30.48-12.79,43.74
	C189.33,161.41,178.62,170.69,165.39,177.04z"/></svg>