<svg version="1.1" id="Layer_1" xmlns="http://www.w3.org/2000/svg" xmlns:xlink="http://www.w3.org/1999/xlink" x="0px" y="0px" viewBox="0 0 263.2 212.12" style="enable-background:new 0 0 263.2 212.12;" xml:space="preserve"><style type="text/css">
	.st0{fill:#005EA5;}
	.st1{fill:#DD5B9D;}
	.st2{fill:#FEFEFE;}
</style><path class="st1" d="M137.86,113.44c0.1-5.01,0.19-10.02,0.29-15.03c0.09-4.21,0.19-8.42,0.29-12.63c0.11-5.03,0.22-10.07,0.33-15.1
	c0.1-4.49,0.19-8.99,0.3-13.48c0.07-2.88,0.18-5.75,0.23-8.63c0.01-0.58,0.22-0.66,0.74-0.62c3.4,0.27,6.81,0.5,10.21,0.75
	c1.2,0.09,2.4,0.22,3.61,0.27c0.52,0.02,0.5,0.31,0.46,0.66c-0.23,2.01-0.45,4.03-0.68,6.04c-0.34,3.06-0.69,6.12-1.02,9.18
	c-0.4,3.7-0.8,7.4-1.18,11.1c-0.33,3.22-0.65,6.43-0.98,9.65c-0.34,3.37-0.69,6.74-1.04,10.11c-0.33,3.24-0.65,6.48-0.98,9.73
	c-0.35,3.44-0.73,6.89-1.07,10.33c-0.04,0.43-0.23,0.51-0.6,0.47c-2.78-0.28-5.57-0.55-8.35-0.82c-0.45-0.04-0.68-0.24-0.62-0.74
	c0.05-0.41,0.01-0.82,0.01-1.23C137.83,113.44,137.84,113.44,137.86,113.44z"/></svg>