<svg xmlns="http://www.w3.org/2000/svg" width="2500" height="2500" viewBox="0 0 1013.718 1013.696"><linearGradient id="a" gradientUnits="userSpaceOnUse" x1="-1120.126" y1="2189.824" x2="-44.679" y2="1150.587" gradientTransform="matrix(1 0 0 -1 1045.93 2135.176)"><stop offset="0" stop-color="#dff4ff"/><stop offset=".098" stop-color="#d6eaf5"/><stop offset=".268" stop-color="#bfd0d9"/><stop offset=".488" stop-color="#98a5ac"/><stop offset=".747" stop-color="#646b6e"/><stop offset="1" stop-color="#2b2b2b"/></linearGradient><path d="M281.427 208.068c-10.251-9.951-26.069-12.951-40.939-3.733 2.847-7.363 1.691-14.858.187-19.015-6.414-11.662-8.662-13.137-13.899-17.561-17.097-14.324-35.082-2.093-47.93 13.219l-62.116 74.028 97.65 81.925 65.5-78.047c14.971-17.838 17.282-35.523 1.547-50.816zm-126.321 35.7l37.311-44.464c4.33-5.146 14.106-4.939 20.375.341 6.908 5.795 6.929 14.002 2.289 19.54l-36.896 43.95-23.079-19.367zm102.934 7.393l-38.896 46.353-24.355-20.47 39.186-46.711c4.434-5.281 14.312-6.817 20.974-1.229 7.504 6.312 8.246 15.912 3.091 22.057z" fill="#333"/></svg>