<svg xmlns="http://www.w3.org/2000/svg" width="2500" height="2500" viewBox="0 0 1013.718 1013.696"><linearGradient id="a" gradientUnits="userSpaceOnUse" x1="-1120.126" y1="2189.824" x2="-44.679" y2="1150.587" gradientTransform="matrix(1 0 0 -1 1045.93 2135.176)"><stop offset="0" stop-color="#dff4ff"/><stop offset=".098" stop-color="#d6eaf5"/><stop offset=".268" stop-color="#bfd0d9"/><stop offset=".488" stop-color="#98a5ac"/><stop offset=".747" stop-color="#646b6e"/><stop offset="1" stop-color="#2b2b2b"/></linearGradient><path d="M276.868 205.563c-10.229-9.951-26.068-12.953-40.916-3.743 2.824-7.364 1.67-14.86.166-18.996-6.415-11.682-8.642-13.137-13.923-17.57-17.096-14.333-35.059-2.095-47.887 13.231l-62.14 74.016 97.653 81.926 65.499-78.059c14.954-17.839 17.283-35.512 1.548-50.805zm-126.316 35.698l37.307-44.453c4.312-5.155 14.086-4.949 20.376.319 6.909 5.806 6.93 14.023 2.268 19.54l-36.873 43.959-23.078-19.365zm102.951 7.393l-38.896 46.352-24.398-20.47 39.207-46.721c4.434-5.269 14.291-6.806 20.953-1.216 7.547 6.32 8.29 15.9 3.134 22.055z" fill="url(#f)"/></svg>