<svg version="1.1" id="Layer_1" xmlns="http://www.w3.org/2000/svg" xmlns:xlink="http://www.w3.org/1999/xlink" x="0px" y="0px" viewBox="0 0 1951.91 916.64" style="enable-background:new 0 0 1951.91 916.64;" xml:space="preserve"><style type="text/css">
	.st0{fill:#CB4545;stroke:#CB4545;stroke-width:0.919;stroke-miterlimit:2.613;}
	.st1{fill:#285EA1;}
</style><g><path class="st0" d="M1008.54,622.33l-31.46,67.4c-67.4,26.96-141.55,35.95-213.46,33.71c-46.97-3.14-96.12-17.19-123.12-43.66
		c21.97,35.25,78.16,53.52,134.37,57.14c69.65,2.26,146.04-6.74,213.43-33.7l31.46-67.4l17.99-42.7h-16.92L1008.54,622.33z"/><path class="st0" d="M882.72,626.84h-38.23c-2.36,4.78-4.64,9.34-6.71,13.48h38.88L882.72,626.84z"/><path class="st0" d="M1033.25,518.99c-2.23-1.12-4.5-2.19-6.8-3.24l-65.09,34.7c-20.21-22.46-60.66-29.21-101.1-24.71
		c-26.96,0-58.42,15.72-76.39,33.7c-22.46,24.72-35.95,53.93-35.95,80.88c-1.51,10.58,3.09,21.15,12.41,28.32
		c-2.26-4.69-3.44-9.76-3.44-14.83c2.24-26.96,15.72-56.17,38.2-80.88c15.72-17.98,49.43-31.46,76.39-33.71
		c40.44-4.5,80.88,2.24,98.87,24.71l69.63-35.94l2.26-2.24C1039.98,523.49,1035.49,521.25,1033.25,518.99z"/></g></svg>