<svg version="1.1" id="Layer_1" xmlns="http://www.w3.org/2000/svg" xmlns:xlink="http://www.w3.org/1999/xlink" x="0px" y="0px" viewBox="0 0 1951.91 916.64" style="enable-background:new 0 0 1951.91 916.64;" xml:space="preserve"><style type="text/css">
	.st0{fill:#CB4545;stroke:#CB4545;stroke-width:0.919;stroke-miterlimit:2.613;}
	.st1{fill:#285EA1;}
</style><path class="st1" d="M837.78,572.91c-4.49,15.72-13.49,33.71-20.22,47.18h53.93l-20.22,44.94c-26.96,8.98-60.66,11.23-83.14,4.49
	c-20.22-4.49-31.45-20.22-31.45-35.94c0-26.95,15.72-56.16,38.2-80.88c15.72-17.98,47.17-33.71,76.39-33.71
	c40.45-4.49,80.88,2.26,98.87,24.71l69.63-35.94l2.26-2.26c-2.26-2.26-6.74-4.5-11.24-6.74c-38.18-20.22-89.87-29.19-148.28-26.96
	l0,0c-74.15,2.24-155.04,17.98-211.2,67.4c-29.21,29.21-42.7,58.42-42.7,92.12c6.74,53.92,76.4,80.88,146.04,85.38
	c69.65,2.24,146.04-6.74,213.44-33.71l29.21-67.4l20.25-42.68L837.78,572.91L837.78,572.91z"/></svg>