<svg version="1.1" id="Layer_1" xmlns="http://www.w3.org/2000/svg" xmlns:xlink="http://www.w3.org/1999/xlink" x="0px" y="0px" viewBox="0 0 1951.91 916.64" style="enable-background:new 0 0 1951.91 916.64;" xml:space="preserve"><style type="text/css">
	.st0{fill:#CB4545;stroke:#CB4545;stroke-width:0.919;stroke-miterlimit:2.613;}
	.st1{fill:#285EA1;}
</style><g><path class="st0" d="M660.28,231.4L660.28,231.4l-58.42,0.01c-6.73,15.72-13.48,29.21-20.22,44.93h15.85
		c4.1-10.41,9.29-20.39,15.62-31.46h58.42c5.57,0,11.13,1.11,15.88,3.04c0.4-1.85,0.39-3.64-0.16-5.29
		C685,235.89,671.51,231.4,660.28,231.4z"/><path class="st0" d="M536.72,375.2h16.62c5.69-13.48,12-26.97,17.06-40.45h67.42c6.33,0,12.66,0.99,17.83,3.21
		c0.09-1.06,0.15-2.12,0.15-3.21c-2.24-8.98-15.72-13.48-29.21-13.48h-65.16C552.44,339.24,543.46,357.22,536.72,375.2z"/><path class="st0" d="M781.83,327.31c0.81,1.67,1.51,3.4,2.05,5.19c4.49,20.22-8.99,42.7-33.71,60.66
		c-29.22,20.23-67.42,24.73-103.36,26.98H405.17l-1.01,2.23l-4.49,11.23h258.37c35.95-2.24,71.9-6.74,103.36-26.96
		c24.71-17.98,38.2-40.44,33.71-60.67C792.94,338.77,788.24,332.51,781.83,327.31z"/><path class="st0" d="M828.79,226.89c-2.55-3.65-5.71-6.76-9.34-9.43c7.53,19.4-5.61,42.07-26.6,58.87
		c-22.46,15.73-51.67,17.98-78.64,20.23c17.51,0,33.8,3.64,46.36,10.29c14.64-2.94,28.65-8.23,41.25-17.05
		C824.29,271.83,840.03,247.11,828.79,226.89z"/></g></svg>