<svg version="1.1" id="Layer_1" xmlns="http://www.w3.org/2000/svg" xmlns:xlink="http://www.w3.org/1999/xlink" x="0px" y="0px" viewBox="0 0 1951.91 916.64" style="enable-background:new 0 0 1951.91 916.64;" xml:space="preserve"><style type="text/css">
	.st0{fill:#CB4545;stroke:#CB4545;stroke-width:0.919;stroke-miterlimit:2.613;}
	.st1{fill:#285EA1;}
</style><path class="st1" d="M808.59,393.15c20.22,15.73,51.67,20.23,85.38,24.72c49.44,2.24,112.34,4.5,164.02-13.49
	c29.21-11.24,53.93-31.45,62.9-51.67l80.91-173l-13.5-2.24l-78.62,2.24l-76.4,168.5l-2.23,4.5c-8.99,11.23-24.72,13.49-38.2,15.72
	c-20.22,2.26-44.94,2.26-58.42-4.49c-6.74-4.49-8.99-6.74-6.74-13.49l76.37-170.73l0,0H878.24l-76.39,168.5
	C792.86,363.95,792.86,381.93,808.59,393.15z"/></svg>