<svg version="1.1" id="Layer_1" xmlns="http://www.w3.org/2000/svg" xmlns:xlink="http://www.w3.org/1999/xlink" x="0px" y="0px" viewBox="0 0 1951.91 916.64" style="enable-background:new 0 0 1951.91 916.64;" xml:space="preserve"><style type="text/css">
	.st0{fill:#CB4545;stroke:#CB4545;stroke-width:0.919;stroke-miterlimit:2.613;}
	.st1{fill:#285EA1;}
</style><path class="st1" d="M1150.09,411.15h217.93c32.67-0.06,65.18-4.6,96.61-13.49c44.94-13.48,83.14-40.44,103.36-69.65
	c17.96-29.21,33.7-60.66,24.72-87.62c-13.5-42.7-71.92-60.66-132.56-62.92h-204.47l0,0l-98.84,220.19L1150.09,411.15z
	 M1361.31,224.64h56.15v0.01c22.46,2.24,42.71,11.23,44.94,26.96c2.26,17.98-6.74,35.94-15.73,56.17
	c-13.48,20.22-35.94,47.18-69.63,53.92c-8.99,2.24-15.73,2.24-22.46,2.24h-56.19L1361.31,224.64z"/></svg>