<svg version="1.1" id="Layer_1" xmlns="http://www.w3.org/2000/svg" xmlns:xlink="http://www.w3.org/1999/xlink" x="0px" y="0px" viewBox="0 0 1951.91 916.64" style="enable-background:new 0 0 1951.91 916.64;" xml:space="preserve"><style type="text/css">
	.st0{fill:#CB4545;stroke:#CB4545;stroke-width:0.919;stroke-miterlimit:2.613;}
	.st1{fill:#285EA1;}
</style><g><path class="st0" d="M1381.51,244.88h58.4c11.27,1.25,22.52,4.59,30.67,10.02c-4.23-13.59-21.13-21.43-41.89-23.5h-56.19
		l-65.15,139.31h17.33L1381.51,244.88z"/><path class="st0" d="M1612.93,260.59c-2.82-8.94-7.52-16.79-13.75-23.62c1.85,3.22,3.44,6.59,4.75,10.15
		c8.99,26.96-6.73,58.42-26.95,87.62c-20.25,29.22-58.42,56.17-103.36,69.66c-29.21,8.99-62.92,13.49-96.61,13.49h-199.96
		l-6.74,13.46h217.93c33.72,0,65.15-4.5,96.61-13.48c44.94-13.49,83.14-40.45,103.36-69.66
		C1608.43,319.01,1624.15,287.56,1612.93,260.59z"/></g></svg>