<svg version="1.1" id="Layer_1" xmlns="http://www.w3.org/2000/svg" xmlns:xlink="http://www.w3.org/1999/xlink" x="0px" y="0px" viewBox="0 0 1951.91 916.64" style="enable-background:new 0 0 1951.91 916.64;" xml:space="preserve"><style type="text/css">
	.st0{fill:#CB4545;stroke:#CB4545;stroke-width:0.919;stroke-miterlimit:2.613;}
	.st1{fill:#285EA1;}
</style><g><path class="st0" d="M936.64,357.22c-2.24,6.74,2.24,8.99,6.76,13.49c1.31,0.56,2.68,1.06,4.09,1.53c0.1-0.49,0.22-1,0.4-1.54
		l76.39-170.76h-15.19L936.64,357.22z"/><path class="st0" d="M1208.52,197.69l-2.92,0.08l-73.48,161.69c-9,20.22-33.7,40.44-62.9,51.67
		c-51.67,17.99-114.6,15.73-166.27,13.49c-30.3-4.32-60.6-8.66-82.86-23.03c1.8,4.38,4.64,8.39,8.71,11.79
		c20.22,15.73,51.67,20.22,85.38,24.72c49.44,2.24,112.34,4.49,166.27-13.49c29.21-11.23,51.67-31.46,62.9-51.67l78.65-173
		L1208.52,197.69z"/></g></svg>