<svg version="1.1" id="Layer_1" xmlns="http://www.w3.org/2000/svg" xmlns:xlink="http://www.w3.org/1999/xlink" x="0px" y="0px" viewBox="0 0 1951.91 916.64" style="enable-background:new 0 0 1951.91 916.64;" xml:space="preserve"><style type="text/css">
	.st0{fill:#CB4545;stroke:#CB4545;stroke-width:0.919;stroke-miterlimit:2.613;}
	.st1{fill:#285EA1;}
</style><path class="st1" d="M741.17,386.41c24.72-17.98,38.2-40.44,31.45-60.66c-6.74-22.46-35.94-35.95-69.65-35.95
	c29.21-2.24,56.17-4.5,78.64-20.22c22.46-17.98,35.94-42.7,24.71-62.92c-15.72-22.46-51.67-26.96-87.62-26.96H485.04v0.01l0,0
	L381.69,402.15l-2.24,11.23h256.13C673.77,411.13,709.72,406.63,741.17,386.41z M590.63,224.64h60.67v0.01
	c11.23,0,22.46,4.5,24.71,11.23c2.24,6.73-2.24,15.73-8.99,22.46c-8.99,6.74-20.22,8.99-33.7,11.23H570.4
	C577.16,253.85,583.9,240.37,590.63,224.64z M624.34,361.71c-11.23,4.5-22.46,6.74-35.94,6.74h-62.92
	c8.99-17.98,17.98-35.94,24.71-53.92l67.4-0.01c13.48,0,26.96,4.49,26.96,13.48C644.56,341.49,640.07,352.72,624.34,361.71z"/></svg>