<svg version="1.1" id="Layer_1" xmlns="http://www.w3.org/2000/svg" xmlns:xlink="http://www.w3.org/1999/xlink" x="0px" y="0px" viewBox="0 0 2500 928" style="enable-background:new 0 0 2500 928;" xml:space="preserve"><style type="text/css">
	.st0{fill:none;stroke:#003562;stroke-width:5.054;}
	.st1{fill:none;stroke:#C79F2A;stroke-width:2.569;}
	.st2{fill:#BF1F2E;}
	.st3{fill:#C79F2A;}
	.st4{fill:url(#SVGID_1_);}
	.st5{stroke:#000000;stroke-width:0.349;}
	.st6{fill:url(#SVGID_2_);}
	.st7{fill:#B29960;}
	.st8{fill:none;stroke:#000000;stroke-width:0.349;stroke-linecap:round;stroke-linejoin:round;}
	.st9{fill:none;stroke:#000000;stroke-width:0.419;stroke-linecap:round;stroke-linejoin:round;}
	.st10{fill:#EEDE92;}
	.st11{fill:url(#SVGID_3_);}
	.st12{fill:url(#SVGID_4_);}
	.st13{fill:url(#SVGID_5_);}
	.st14{fill:url(#SVGID_6_);}
	.st15{fill:url(#SVGID_7_);}
	.st16{fill:url(#SVGID_8_);}
	.st17{fill-rule:evenodd;clip-rule:evenodd;fill:#C79F2A;}
	.st18{fill-rule:evenodd;clip-rule:evenodd;fill:url(#SVGID_9_);}
	.st19{fill-rule:evenodd;clip-rule:evenodd;fill:url(#SVGID_10_);}
	.st20{fill-rule:evenodd;clip-rule:evenodd;fill:#EEDE92;}
	.st21{fill-rule:evenodd;clip-rule:evenodd;fill:#76230B;stroke:#76230B;stroke-width:0.211;}
	.st22{fill-rule:evenodd;clip-rule:evenodd;fill:url(#SVGID_11_);}
	.st23{fill-rule:evenodd;clip-rule:evenodd;fill:url(#SVGID_12_);}
	.st24{fill:none;stroke:#000000;stroke-width:0.081;stroke-linecap:round;stroke-linejoin:round;}
	.st25{fill-rule:evenodd;clip-rule:evenodd;fill:url(#SVGID_13_);}
	.st26{fill:#76230B;}
	.st27{fill-rule:evenodd;clip-rule:evenodd;fill:url(#SVGID_14_);}
	.st28{fill:none;stroke:#000000;stroke-width:0.144;}
	.st29{stroke:#000000;stroke-width:0.26;stroke-linejoin:round;}
	.st30{fill:url(#SVGID_15_);}
	.st31{fill:url(#SVGID_16_);}
	.st32{fill:url(#SVGID_17_);}
	.st33{fill:url(#SVGID_18_);}
	.st34{fill:url(#SVGID_19_);}
	.st35{stroke:#000000;stroke-width:0.521;stroke-linejoin:round;}
	.st36{fill-rule:evenodd;clip-rule:evenodd;stroke:#000000;stroke-width:0.521;stroke-linejoin:round;}
	.st37{fill-rule:evenodd;clip-rule:evenodd;stroke:#000000;stroke-width:0.434;stroke-linejoin:round;}
	.st38{fill-rule:evenodd;clip-rule:evenodd;fill:url(#SVGID_20_);}
	.st39{fill:url(#SVGID_21_);}
	.st40{fill:#FFFFFF;}
	.st41{fill:#76230B;stroke:#76230B;stroke-width:1.204;}
	.st42{fill:#003562;stroke:#003562;stroke-width:1.376;}
	.st43{fill:#FFFFFF;stroke:#FFFFFF;stroke-width:0.111;}
	.st44{fill:#FFFFFF;stroke:#FFFFFF;stroke-width:0.538;}
	.st45{fill:#FFFFFF;stroke:#FFFFFF;stroke-width:0.522;}
</style><path class="st20" d="M1307.61,341.87c4.17,12.32,8.07,25.44,8.19,28.54c0,7.42-6.12,14.72-12.15,18.11l-28.45,15.94h56.47
	l2.46-4.31c0.04-0.06,4.55-7.33,13.73-7.34c9.9,0,13.56,6.79,13.73,7.08l2.39,4.56h44.7l-16.07-16.11c1.56-2.13,2.66-4.67,3.16-7.46
	c1.35-7.46-1.9-14.76-8.16-18.19c-6.04-3.42-13.57-2.68-18.83,1.84c-2.49,2.12-4.33,4.91-5.3,8.03
	c-6.25-4.69-13.23-16.53-16.67-25.9l-60.83-164.82c2.58,0.76,10.07,2.97,15.72-3.9c3.29-3.96,4-10.01,1.76-14.76
	c-1.18-2.48-4.92-8.19-14.81-8.19h-14.89l-1.77,5.66c-0.39,0.69-3.12,5.1-14.01,5.1c-10.9,0-13.64-4.42-14-5.1l-1.8-5.66h-14.86
	c-9.89,0.01-13.65,5.71-14.81,8.2c-2.24,4.74-1.52,10.81,1.74,14.75c5.66,6.88,13.14,4.65,15.72,3.91l-60.81,164.83
	c-3.42,9.38-10.39,21.2-16.65,25.88c-0.97-3.12-2.81-5.91-5.31-8.02c-5.26-4.52-12.8-5.26-18.83-1.84
	c-6.25,3.45-9.53,10.73-8.15,18.2c0.51,2.79,1.61,5.31,3.16,7.48l-16.07,16.1h44.72l2.38-4.6c0.14-0.27,3.83-7.07,13.74-7.07
	c9.19,0,13.68,7.25,13.74,7.31l2.43,4.35l56.47-0.01l-28.44-15.95c-6.04-3.38-12.16-10.68-12.17-18.11
	c0.13-3.1,4.05-16.22,8.21-28.55h99.21V341.87z M1252.52,215.4c2.6-7.74,4.85-9.73,5.45-10.14c0.58,0.41,2.87,2.4,5.42,10.14
	c0.58,1.68,11.42,32.86,32.24,92.67l-75.32,0.01C1241.14,248.27,1251.97,217.1,1252.52,215.4z"/></svg>