<svg version="1.1" id="Layer_1" xmlns="http://www.w3.org/2000/svg" xmlns:xlink="http://www.w3.org/1999/xlink" x="0px" y="0px" viewBox="0 0 2500 928" style="enable-background:new 0 0 2500 928;" xml:space="preserve"><style type="text/css">
	.st0{fill:none;stroke:#003562;stroke-width:5.054;}
	.st1{fill:none;stroke:#C79F2A;stroke-width:2.569;}
	.st2{fill:#BF1F2E;}
	.st3{fill:#C79F2A;}
	.st4{fill:url(#SVGID_1_);}
	.st5{stroke:#000000;stroke-width:0.349;}
	.st6{fill:url(#SVGID_2_);}
	.st7{fill:#B29960;}
	.st8{fill:none;stroke:#000000;stroke-width:0.349;stroke-linecap:round;stroke-linejoin:round;}
	.st9{fill:none;stroke:#000000;stroke-width:0.419;stroke-linecap:round;stroke-linejoin:round;}
	.st10{fill:#EEDE92;}
	.st11{fill:url(#SVGID_3_);}
	.st12{fill:url(#SVGID_4_);}
	.st13{fill:url(#SVGID_5_);}
	.st14{fill:url(#SVGID_6_);}
	.st15{fill:url(#SVGID_7_);}
	.st16{fill:url(#SVGID_8_);}
	.st17{fill-rule:evenodd;clip-rule:evenodd;fill:#C79F2A;}
	.st18{fill-rule:evenodd;clip-rule:evenodd;fill:url(#SVGID_9_);}
	.st19{fill-rule:evenodd;clip-rule:evenodd;fill:url(#SVGID_10_);}
	.st20{fill-rule:evenodd;clip-rule:evenodd;fill:#EEDE92;}
	.st21{fill-rule:evenodd;clip-rule:evenodd;fill:#76230B;stroke:#76230B;stroke-width:0.211;}
	.st22{fill-rule:evenodd;clip-rule:evenodd;fill:url(#SVGID_11_);}
	.st23{fill-rule:evenodd;clip-rule:evenodd;fill:url(#SVGID_12_);}
	.st24{fill:none;stroke:#000000;stroke-width:0.081;stroke-linecap:round;stroke-linejoin:round;}
	.st25{fill-rule:evenodd;clip-rule:evenodd;fill:url(#SVGID_13_);}
	.st26{fill:#76230B;}
	.st27{fill-rule:evenodd;clip-rule:evenodd;fill:url(#SVGID_14_);}
	.st28{fill:none;stroke:#000000;stroke-width:0.144;}
	.st29{stroke:#000000;stroke-width:0.26;stroke-linejoin:round;}
	.st30{fill:url(#SVGID_15_);}
	.st31{fill:url(#SVGID_16_);}
	.st32{fill:url(#SVGID_17_);}
	.st33{fill:url(#SVGID_18_);}
	.st34{fill:url(#SVGID_19_);}
	.st35{stroke:#000000;stroke-width:0.521;stroke-linejoin:round;}
	.st36{fill-rule:evenodd;clip-rule:evenodd;stroke:#000000;stroke-width:0.521;stroke-linejoin:round;}
	.st37{fill-rule:evenodd;clip-rule:evenodd;stroke:#000000;stroke-width:0.434;stroke-linejoin:round;}
	.st38{fill-rule:evenodd;clip-rule:evenodd;fill:url(#SVGID_20_);}
	.st39{fill:url(#SVGID_21_);}
	.st40{fill:#FFFFFF;}
	.st41{fill:#76230B;stroke:#76230B;stroke-width:1.204;}
	.st42{fill:#003562;stroke:#003562;stroke-width:1.376;}
	.st43{fill:#FFFFFF;stroke:#FFFFFF;stroke-width:0.111;}
	.st44{fill:#FFFFFF;stroke:#FFFFFF;stroke-width:0.538;}
	.st45{fill:#FFFFFF;stroke:#FFFFFF;stroke-width:0.522;}
</style><g><path class="st3" d="M1293.37,364.31c1.02,1.39,7.11,3.69,8.14,5.37c-9.62-1.11-16.22-4.28-19.44-7.34
		c-2.69-2.91-1.4-7.26-3.28-10.73c-0.06-1.88-0.51-3.65-0.72-5.01l16.03,0.01c-0.77,1.03,1.2,2.2-0.69,2.25
		c-0.66,0-1.98-0.32-2.66,0.39c1.23,2.24,11.38,5.75,13.04,7.12c0.03,0.53-8.29-2.67-8.79-2.67c-3.14-0.27-3.56,0.4-6.4-0.95
		c0.54,2.25,1.5,2.56,3.01,3.95c1.74,2.93,14.59,6.68,17.91,8.18c-2.13,0.55-17.06-4.31-19.22-4.46L1293.37,364.31L1293.37,364.31z"/><path class="st17" d="M1247.11,346.4c-0.1,2.01-0.58,10.99,6.25,13.38c6.83,2.42,19.68,5.53,13.4,2.4c0,0-8.7-2.58-9.63-6.31
		c0,0,9.78,2.97,15.52,2.22c0,0-15.77-4.62-16.87-7.87c0,0,4.29-1.72,5.94-1c1.67,0.75,6.14-0.36,6.7-1.66c0,0-4.64,0.66-6.5-0.08
		C1259.62,346.57,1247.11,346.4,1247.11,346.4L1247.11,346.4z"/></g></svg>