<svg version="1.1" id="Layer_1" xmlns="http://www.w3.org/2000/svg" xmlns:xlink="http://www.w3.org/1999/xlink" x="0px" y="0px" viewBox="0 0 2500 928" style="enable-background:new 0 0 2500 928;" xml:space="preserve"><style type="text/css">
	.st0{fill:none;stroke:#003562;stroke-width:5.054;}
	.st1{fill:none;stroke:#C79F2A;stroke-width:2.569;}
	.st2{fill:#BF1F2E;}
	.st3{fill:#C79F2A;}
	.st4{fill:url(#SVGID_1_);}
	.st5{stroke:#000000;stroke-width:0.349;}
	.st6{fill:url(#SVGID_2_);}
	.st7{fill:#B29960;}
	.st8{fill:none;stroke:#000000;stroke-width:0.349;stroke-linecap:round;stroke-linejoin:round;}
	.st9{fill:none;stroke:#000000;stroke-width:0.419;stroke-linecap:round;stroke-linejoin:round;}
	.st10{fill:#EEDE92;}
	.st11{fill:url(#SVGID_3_);}
	.st12{fill:url(#SVGID_4_);}
	.st13{fill:url(#SVGID_5_);}
	.st14{fill:url(#SVGID_6_);}
	.st15{fill:url(#SVGID_7_);}
	.st16{fill:url(#SVGID_8_);}
	.st17{fill-rule:evenodd;clip-rule:evenodd;fill:#C79F2A;}
	.st18{fill-rule:evenodd;clip-rule:evenodd;fill:url(#SVGID_9_);}
	.st19{fill-rule:evenodd;clip-rule:evenodd;fill:url(#SVGID_10_);}
	.st20{fill-rule:evenodd;clip-rule:evenodd;fill:#EEDE92;}
	.st21{fill-rule:evenodd;clip-rule:evenodd;fill:#76230B;stroke:#76230B;stroke-width:0.211;}
	.st22{fill-rule:evenodd;clip-rule:evenodd;fill:url(#SVGID_11_);}
	.st23{fill-rule:evenodd;clip-rule:evenodd;fill:url(#SVGID_12_);}
	.st24{fill:none;stroke:#000000;stroke-width:0.081;stroke-linecap:round;stroke-linejoin:round;}
	.st25{fill-rule:evenodd;clip-rule:evenodd;fill:url(#SVGID_13_);}
	.st26{fill:#76230B;}
	.st27{fill-rule:evenodd;clip-rule:evenodd;fill:url(#SVGID_14_);}
	.st28{fill:none;stroke:#000000;stroke-width:0.144;}
	.st29{stroke:#000000;stroke-width:0.26;stroke-linejoin:round;}
	.st30{fill:url(#SVGID_15_);}
	.st31{fill:url(#SVGID_16_);}
	.st32{fill:url(#SVGID_17_);}
	.st33{fill:url(#SVGID_18_);}
	.st34{fill:url(#SVGID_19_);}
	.st35{stroke:#000000;stroke-width:0.521;stroke-linejoin:round;}
	.st36{fill-rule:evenodd;clip-rule:evenodd;stroke:#000000;stroke-width:0.521;stroke-linejoin:round;}
	.st37{fill-rule:evenodd;clip-rule:evenodd;stroke:#000000;stroke-width:0.434;stroke-linejoin:round;}
	.st38{fill-rule:evenodd;clip-rule:evenodd;fill:url(#SVGID_20_);}
	.st39{fill:url(#SVGID_21_);}
	.st40{fill:#FFFFFF;}
	.st41{fill:#76230B;stroke:#76230B;stroke-width:1.204;}
	.st42{fill:#003562;stroke:#003562;stroke-width:1.376;}
	.st43{fill:#FFFFFF;stroke:#FFFFFF;stroke-width:0.111;}
	.st44{fill:#FFFFFF;stroke:#FFFFFF;stroke-width:0.538;}
	.st45{fill:#FFFFFF;stroke:#FFFFFF;stroke-width:0.522;}
</style><g><path class="st42" d="M751.39,733.93c-0.32,6.63,2.94,9.95,10.49,9.95c12.41,0,37.31-16.08,76.75-47.14
		c20.76-16.07,27.48-26.01,32.99-26.01c2.75,0,4.05,1.08,4.02,2.22c-0.23,4.45-10.28,12.71-28.22,27.15
		c-43.1,34.92-72.18,52.1-86.63,52.1c-19.94,0-31.55-16.07-30.39-37.67c0.27-5.61,1.92-11.08,3.56-16.11
		c-40.37,36.02-72.97,53.77-92.93,53.77c-22.01,0-37.17-13.36-36.06-34.97c1.22-23.27,25.29-49.33,60.36-89.19
		c-42.32,32.69-96.3,89.68-103.2,89.68c-2.08,0-4.37-0.81-3.36-1.68c8.88-7.37,76.48-78.59,136.83-127.37l49.69-2.2l-80,95.36
		c-22,26.57-35.91,42.64-36.38,52.1c-0.28,5.49,4.29,9.95,10.53,9.95c34.36,0,104.82-57.71,182.06-155.22l46.24-2.2l-95.39,114.73
		C759.89,716.17,751.79,725.6,751.39,733.93L751.39,733.93z"/><path class="st42" d="M1169.42,475.58l44.81-1.66l-150.99,199.56c-23.59,30.52-36.3,50.43-36.81,60.45
		c-0.23,4.42,4.38,7.74,10.61,7.74c8.96,0,35.94-16.07,77.58-49.31c17.21-13.86,23.81-21.62,27.88-21.62c2.11,0,4.15,0.55,4.04,2.22
		c-0.19,3.88-11.76,14.37-33.27,31.05c-37.96,29.93-62.98,48.21-88.43,48.21c-18.58,0-27.69-9.99-26.83-27.73
		c0.31-5.59,2.01-12.19,4.54-21.02c-34,32.68-64.42,48.75-89.2,48.75c-24.05,0-38.85-20.54-37.01-56.54
		c0.52-8.97,2.6-17.78,6.14-26.03c-6.61,7.76-11.57,11.04-15,11.04c-2.75,0-4.1-0.53-4.05-2.19c0.14-2.79,11.74-13.88,33.95-31.03
		c48.74-37.69,101.74-63.8,134.1-63.8c22.68,0,35.91,10.53,35.15,25.51c-0.17,3.32-1.05,7.22-3.41,12.17L1169.42,475.58z
		 M919.37,742.22c14.45,0,38.48-11.63,65.81-34.89c41.7-35.52,69.33-77.12,70.43-98.16c0.46-9.41-8.75-17.23-21.82-17.23
		c-21.35,0-49.63,15.02-78.01,44.94c-29.85,32.1-51.22,71.51-52.06,88.15C903.17,735.55,909.05,742.22,919.37,742.22L919.37,742.22z
		"/><path class="st42" d="M1178.47,752.21c-21.97,0-37.14-13.36-36.02-34.97c1.18-23.27,31.88-57.62,66.94-97.01
		c-42.19,31.02-63.69,60.43-71.26,60.43c-2.08,0-3.37-1.08-3.29-2.19c0.14-3.3,5.93-8.86,16.7-18.31l22.99-19.39
		c13-11.11,37.67-34.94,60.57-52.14l47.59-2.2l-79.92,95.36c-22.05,26.57-35.94,42.64-36.41,52.1c-0.28,5.49,4.28,9.95,10.44,9.95
		c34.43,0,104.89-57.71,182.16-155.22l46.2-2.2l-89.44,106.97c-15.44,18.29-23.55,29.36-23.92,36.59
		c-0.5,9.38,5.48,13.86,16.47,13.86c35.12,0,98.76-33.26,122.91-88.66c14.09-32.69,11.33-72.11,40.2-72.11
		c12.43,0,18.28,6.13,17.68,18.31c-0.78,15.52-27.77,57.7-71.13,97.57c4.14,0.57,8.88,1.65,12.28,1.65
		c15.89,0,37.62-8.28,57.03-24.37l9.37-8.33c0.78-1.08,3.54-1.63,5.63-1.63c2.06,0,2.66,1.11,2.58,3.34
		c-0.1,1.66-0.15,2.19-0.87,2.78l-7.91,7.2c-22.34,19.39-46.15,28.81-71.71,28.81c-4.11,0-9.62,0-15.7-1.08
		c-41.51,29.9-77.98,44.31-105.53,44.31c-22.68,0-35.69-14.98-34.52-37.71c0.17-3.87,1.17-9.41,2.85-15.5
		C1231.01,734.45,1198.48,752.21,1178.47,752.21L1178.47,752.21z M1870.82,483.46c10.95,0,18.18,6.59,17.7,16.01
		c-0.6,11.69-14.36,24.93-28.77,24.93c-11.04,0-18.94-6.62-18.52-16.02C1841.86,496.69,1856.35,483.46,1870.82,483.46z
		 M1684.54,680.15c-2.08,0-2.71-0.55-2.66-1.66c0.18-4.42,37.94-41.03,98.92-89.82l49.66-2.76l-79.97,95.93
		c-22,26.01-35.88,42.64-36.38,52.1c-0.35,5.49,4.95,10.49,11.07,10.49c18.68,0,44.24-16.62,83.01-48.23
		c20.18-16.6,28.17-25.45,32.99-25.45c2.76,0,4.04,1.08,4.01,2.75c-0.21,3.92-11.75,13.29-33.22,30.52
		c-38.72,30.45-64.41,48.21-86.5,48.21c-21.94,0-36.38-13.36-35.33-34.97c1.23-23.27,32.59-58.18,67.75-98.67
		C1714.92,651.25,1691.37,680.15,1684.54,680.15L1684.54,680.15z"/><path class="st42" d="M1835.71,680.68c-2.08,0-3.42-1.08-3.34-2.19c0.3-5.54,40.62-41.03,101.11-92.02
		c9.06-16.09,19.05-23.29,29.4-23.29c8.96,0,13.56,3.88,13.18,10.49c-0.23,6.13-5.32,10.58-15.14,13.9
		c-11.2,3.87-17.35,2.75-18.2,19.95c-1.11,21.6,3.37,53.76,2.24,75.4c-0.58,11.63-3.82,21.62-10.59,32.69
		c36.54-28.27,51.85-44.87,56.67-44.87c2.71,0,4.01,1.08,4,2.75c-0.18,3.36-10.22,12.19-28.17,26.62
		c-40.25,32.72-70.81,52.1-107.34,52.1c-28.13,0-46.15-11.65-45.29-28.85c0.5-9.41,11.25-17.73,22.24-17.73
		c8.29,0,14.21,5,13.91,10.54c-0.3,6.09-8.93,13.29-9.35,21.06c-0.13,3.33,3.16,6.07,10.07,6.07c23.29,0,79.01-51.59,82.8-125.26
		c0.35-6.63,0.05-13.86-0.3-21.07C1874.8,642.96,1843.92,680.68,1835.71,680.68L1835.71,680.68z M2289.49,632.44
		c13.88-15.52,23.32-25.48,23.73-33.24c0.26-5.01-2.42-7.25-9.27-7.25c-16.52,0-42.23,18.33-83.21,52.15
		c-19.39,16.1-34.95,36.59-41.1,36.59c-2.08,0-3.39-1.08-3.39-2.19c0.18-3.3,6-8.86,16.8-18.31l23.08-19.39
		c36.59-30.51,68.31-57.7,91.07-57.7c16.54,0,26.29,10.53,25.53,23.85c-1.13,23.26-23.32,52.15-43.91,78.15
		c19.36-14.37,46.76-38.82,68.84-53.8c16.83-32.11,30.71-48.21,58.9-48.21c9.67,0,15.65,3.95,15.39,8.84
		c-0.6,10.54-21.07,21.12-52.24,39.36c-17.07,9.98-36.7,31.08-37.74,50.52c-0.42,8.82,6.13,14.91,16.44,14.91
		c28.19,0,47.48-26.59,53.71-26.59c1.98,0,4.01,1.13,3.95,2.8c-0.32,6.65-32.56,31.05-56.64,31.05c-18.6,0-28.55-7.8-27.84-21.64
		c0.37-6.12,11.65-24.45,17.75-36.09c-30.61,19.93-72.58,59.34-113.86,99.27l-48.39,3.86L2289.49,632.44L2289.49,632.44z
		 M395.1,447.96C326.3,525,265.38,603.21,215.87,657.32c-47.46,51.95-111.06,141.05-32.7,141.05
		c56.72,0,223.67-198.06,304.74-305.93c51.6-68.75,186.98-79.46,120.21,26.19c-46.16,73.04-107.61,68.21-123.19,65.31
		c-11.07-4.42-20.4-2.03-26.25-2.03c-12.95,0-21.25,3.74-22.07,9.77c-0.81,5.53,3.21,8.74,12.3,8.74c6.47,0,21.96-7.34,41.52-5.08
		c36.87,4.37,67.35,30.98,41.99,83.25c-30.13,62.08-121.97,103.17-181.26,103.17c-99.3,0-17.05-115.61,37.4-117.19
		c3.47-0.14-4.24-4.22-6.89-4.22c-84,0-152.04,136.5-3.92,137.55c96,0.72,172.4-58.53,192.32-93.54
		c44.57-78.32-19.95-101.66-59.66-110.9c-4.68-1.16-3.15,0.9-7.25-0.53c19.76,6.65,106.7,2.46,147.54-62.19
		c63.62-100.68-97.39-138.77-172.11-43.41C434.44,543.69,236.77,789.6,188.8,789.6c-56.36,0,27.15-75.33,71.49-126.12
		c52.09-59.66,117.52-134.08,186.8-215.51H395.1L395.1,447.96z"/><path class="st42" d="M425.88,458.83c-17.92,53.36-132.96,156.54-275.25,111.11c-148.99-47.51-7.22-216.78,365.63-50.89
		c13.79,6.13,32.1,4.72,19.58-0.95C115.83,328.72-22.66,533.59,141,585.84c142.72,45.55,274.94-56.56,297.36-131.24L425.88,458.83
		L425.88,458.83z M1491.61,680.15c-2.74,0-3.39-0.55-3.29-2.21c0.1-2.24,9.54-11.65,28.19-27.16
		c46.05-38.82,98.5-67.12,136.38-67.12c23.37,0,37.26,11.09,36.48,25.51c-1.48,28.85-59.35,70.44-149.68,87.03
		c-2.56,9.99-4.37,17.19-4.64,22.19c-0.78,16.65,9.06,25.51,26.32,25.51c26.14,0,53.03-14.95,86.67-40.43
		c27.21-21.1,36.73-32.73,41.6-32.73c2.71,0,4.04,1.08,3.97,2.75c-0.21,3.92-13.15,14.42-36.78,33.28
		c-38.01,29.37-68.37,45.44-99.4,45.44c-33.69,0-57.19-24.95-55.42-59.86c0.37-7.24,2.16-14.95,5.35-23.28
		C1500.09,676.26,1495.09,680.15,1491.61,680.15L1491.61,680.15z M1667.11,601.41c0.27-6.08-4.95-11.09-11.85-11.09
		c-23.37,0-82.58,39.93-111.7,97.02C1615.74,675.19,1665.98,623.57,1667.11,601.41L1667.11,601.41z M1986.09,680.15
		c-2.76,0-3.39-0.55-3.34-2.21c0.15-2.24,9.54-11.65,28.27-27.16c46.02-38.82,98.47-67.12,136.27-67.12
		c23.47,0,37.26,11.09,36.59,25.51c-1.53,28.85-59.41,70.44-149.7,87.03c-2.61,9.99-4.37,17.19-4.59,22.19
		c-0.87,16.65,9.01,25.51,26.21,25.51c26.11,0,53.08-14.95,86.75-40.43c27.16-21.1,36.75-32.73,41.55-32.73
		c2.79,0,4.04,1.08,3.97,2.75c-0.21,3.92-13.11,14.42-36.83,33.28c-37.96,29.37-68.39,45.44-99.28,45.44
		c-33.77,0-57.25-24.95-55.46-59.86c0.35-7.24,2.11-14.95,5.3-23.28C1994.58,676.26,1989.55,680.15,1986.09,680.15L1986.09,680.15z
		 M2161.54,601.41c0.3-6.08-4.92-11.09-11.8-11.09c-23.42,0-82.69,39.93-111.7,97.02C2110.25,675.19,2160.46,623.57,2161.54,601.41
		L2161.54,601.41z"/></g></svg>