<svg version="1.1" id="Layer_1" xmlns="http://www.w3.org/2000/svg" xmlns:xlink="http://www.w3.org/1999/xlink" x="0px" y="0px" viewBox="0 0 2500 928" style="enable-background:new 0 0 2500 928;" xml:space="preserve"><style type="text/css">
	.st0{fill:none;stroke:#003562;stroke-width:5.054;}
	.st1{fill:none;stroke:#C79F2A;stroke-width:2.569;}
	.st2{fill:#BF1F2E;}
	.st3{fill:#C79F2A;}
	.st4{fill:url(#SVGID_1_);}
	.st5{stroke:#000000;stroke-width:0.349;}
	.st6{fill:url(#SVGID_2_);}
	.st7{fill:#B29960;}
	.st8{fill:none;stroke:#000000;stroke-width:0.349;stroke-linecap:round;stroke-linejoin:round;}
	.st9{fill:none;stroke:#000000;stroke-width:0.419;stroke-linecap:round;stroke-linejoin:round;}
	.st10{fill:#EEDE92;}
	.st11{fill:url(#SVGID_3_);}
	.st12{fill:url(#SVGID_4_);}
	.st13{fill:url(#SVGID_5_);}
	.st14{fill:url(#SVGID_6_);}
	.st15{fill:url(#SVGID_7_);}
	.st16{fill:url(#SVGID_8_);}
	.st17{fill-rule:evenodd;clip-rule:evenodd;fill:#C79F2A;}
	.st18{fill-rule:evenodd;clip-rule:evenodd;fill:url(#SVGID_9_);}
	.st19{fill-rule:evenodd;clip-rule:evenodd;fill:url(#SVGID_10_);}
	.st20{fill-rule:evenodd;clip-rule:evenodd;fill:#EEDE92;}
	.st21{fill-rule:evenodd;clip-rule:evenodd;fill:#76230B;stroke:#76230B;stroke-width:0.211;}
	.st22{fill-rule:evenodd;clip-rule:evenodd;fill:url(#SVGID_11_);}
	.st23{fill-rule:evenodd;clip-rule:evenodd;fill:url(#SVGID_12_);}
	.st24{fill:none;stroke:#000000;stroke-width:0.081;stroke-linecap:round;stroke-linejoin:round;}
	.st25{fill-rule:evenodd;clip-rule:evenodd;fill:url(#SVGID_13_);}
	.st26{fill:#76230B;}
	.st27{fill-rule:evenodd;clip-rule:evenodd;fill:url(#SVGID_14_);}
	.st28{fill:none;stroke:#000000;stroke-width:0.144;}
	.st29{stroke:#000000;stroke-width:0.26;stroke-linejoin:round;}
	.st30{fill:url(#SVGID_15_);}
	.st31{fill:url(#SVGID_16_);}
	.st32{fill:url(#SVGID_17_);}
	.st33{fill:url(#SVGID_18_);}
	.st34{fill:url(#SVGID_19_);}
	.st35{stroke:#000000;stroke-width:0.521;stroke-linejoin:round;}
	.st36{fill-rule:evenodd;clip-rule:evenodd;stroke:#000000;stroke-width:0.521;stroke-linejoin:round;}
	.st37{fill-rule:evenodd;clip-rule:evenodd;stroke:#000000;stroke-width:0.434;stroke-linejoin:round;}
	.st38{fill-rule:evenodd;clip-rule:evenodd;fill:url(#SVGID_20_);}
	.st39{fill:url(#SVGID_21_);}
	.st40{fill:#FFFFFF;}
	.st41{fill:#76230B;stroke:#76230B;stroke-width:1.204;}
	.st42{fill:#003562;stroke:#003562;stroke-width:1.376;}
	.st43{fill:#FFFFFF;stroke:#FFFFFF;stroke-width:0.111;}
	.st44{fill:#FFFFFF;stroke:#FFFFFF;stroke-width:0.538;}
	.st45{fill:#FFFFFF;stroke:#FFFFFF;stroke-width:0.522;}
</style><g><path class="st41" d="M762.43,744.96c-0.31,6.65,2.96,9.96,10.49,9.96c12.41,0,37.31-16.07,76.75-47.13
		c20.76-16.08,27.47-26.02,33-26.02c2.73,0,4.05,1.09,4.01,2.2c-0.22,4.47-10.27,12.73-28.2,27.19
		c-43.1,34.9-72.18,52.09-86.63,52.09c-19.96,0-31.55-16.08-30.42-37.68c0.27-5.59,1.92-11.07,3.54-16.1
		c-40.35,36.01-72.93,53.77-92.91,53.77c-22,0-37.17-13.34-36.05-34.94c1.25-23.29,25.27-49.34,60.34-89.23
		c-42.32,32.67-96.31,89.71-103.2,89.71c-2.08,0-4.36-0.81-3.34-1.7c8.87-7.37,76.48-78.59,136.82-127.35l49.67-2.25l-80,95.36
		c-21.98,26.6-35.89,42.67-36.37,52.12c-0.3,5.5,4.28,9.96,10.5,9.96c34.38,0,104.82-57.7,182.07-155.19l46.24-2.25l-95.39,114.76
		C770.92,727.23,762.82,736.61,762.43,744.96L762.43,744.96z"/><path class="st41" d="M1180.45,486.61l44.84-1.66l-151,199.53c-23.55,30.56-36.32,50.47-36.81,60.46
		c-0.23,4.44,4.38,7.75,10.62,7.75c8.95,0,35.92-16.08,77.57-49.35c17.2-13.83,23.81-21.58,27.87-21.58c2.13,0,4.15,0.57,4.08,2.2
		c-0.22,3.92-11.78,14.41-33.28,31.08c-37.98,29.9-63,48.2-88.45,48.2c-18.59,0-27.69-10-26.84-27.73
		c0.32-5.57,2.02-12.19,4.53-21.02c-33.99,32.67-64.41,48.75-89.19,48.75c-24.07,0-38.86-20.54-37.01-56.53
		c0.51-8.97,2.59-17.78,6.14-26.03c-6.59,7.76-11.57,11.03-15,11.03c-2.74,0-4.09-0.54-4.01-2.2c0.13-2.78,11.72-13.86,33.96-31.02
		c48.74-37.68,101.73-63.83,134.06-63.83c22.7,0,35.92,10.55,35.17,25.52c-0.19,3.33-1.07,7.22-3.41,12.19L1180.45,486.61z
		 M930.41,753.23c14.45,0,38.46-11.65,65.79-34.9c41.72-35.48,69.34-77.11,70.45-98.15c0.48-9.41-8.75-17.2-21.83-17.2
		c-21.35,0-49.63,14.99-77.97,44.94c-29.89,32.11-51.24,71.5-52.08,88.15C914.22,746.58,920.08,753.23,930.41,753.23L930.41,753.23z
		"/><path class="st41" d="M1189.5,763.24c-22,0-37.13-13.34-36.02-34.94c1.17-23.29,31.89-57.66,66.95-97.05
		c-42.19,31.03-63.71,60.45-71.24,60.45c-2.11,0-3.37-1.08-3.32-2.2c0.15-3.29,5.93-8.84,16.71-18.31l22.99-19.39
		c12.98-11.09,37.69-34.94,60.57-52.1l47.6-2.25l-79.91,95.36c-22.06,26.6-35.97,42.67-36.41,52.12c-0.28,5.5,4.28,9.96,10.45,9.96
		c34.41,0,104.89-57.7,182.14-155.19l46.23-2.25l-89.46,107c-15.43,18.31-23.55,29.39-23.92,36.59c-0.5,9.38,5.48,13.86,16.47,13.86
		c35.1,0,98.76-33.28,122.91-88.7c14.09-32.65,11.35-72.05,40.22-72.05c12.41,0,18.28,6.12,17.68,18.28
		c-0.8,15.52-27.79,57.71-71.13,97.59c4.11,0.57,8.86,1.67,12.25,1.67c15.92,0,37.62-8.33,57.05-24.37l9.35-8.33
		c0.78-1.07,3.56-1.66,5.63-1.66c2.03,0,2.66,1.11,2.58,3.37c-0.08,1.66-0.15,2.19-0.87,2.76l-7.91,7.2
		c-22.34,19.39-46.15,28.81-71.71,28.81c-4.09,0-9.59,0-15.7-1.11c-41.51,29.93-77.96,44.33-105.52,44.33
		c-22.69,0-35.66-14.95-34.53-37.69c0.18-3.86,1.17-9.42,2.85-15.5C1242.04,745.48,1209.52,763.24,1189.5,763.24L1189.5,763.24z
		 M1881.81,494.49c11.02,0,18.2,6.61,17.75,16.02c-0.58,11.67-14.36,24.91-28.8,24.91c-11.02,0-18.91-6.62-18.49-16.03
		C1852.91,507.73,1867.4,494.49,1881.81,494.49L1881.81,494.49z M1695.58,691.17c-2.11,0-2.71-0.54-2.69-1.66
		c0.18-4.42,37.96-41.02,98.95-89.78l49.66-2.82l-80,95.93c-21.94,26.05-35.88,42.67-36.36,52.12c-0.35,5.5,4.92,10.52,11.07,10.52
		c18.65,0,44.26-16.62,83.03-48.26c20.13-16.58,28.14-25.44,32.96-25.44c2.76,0,4.01,1.09,4,2.73
		c-0.18,3.95-11.72,13.31-33.22,30.56c-38.72,30.43-64.41,48.2-86.45,48.2c-21.97,0-36.46-13.34-35.38-34.94
		c1.26-23.29,32.59-58.22,67.75-98.69C1725.96,662.3,1702.43,691.17,1695.58,691.17z"/><path class="st41" d="M1846.76,691.71c-2.11,0-3.45-1.08-3.34-2.2c0.27-5.55,40.62-41.02,101.06-92.03
		c9.09-16.06,19.08-23.29,29.43-23.29c8.96,0,13.56,3.9,13.2,10.52c-0.26,6.13-5.35,10.59-15.14,13.88
		c-11.2,3.87-17.35,2.79-18.2,19.96c-1.13,21.57,3.37,53.76,2.24,75.38c-0.58,11.63-3.82,21.61-10.59,32.7
		c36.51-28.27,51.82-44.88,56.69-44.88c2.66,0,4,1.09,3.97,2.73c-0.18,3.39-10.25,12.2-28.22,26.66
		c-40.2,32.69-70.78,52.09-107.29,52.09c-28.14,0-46.18-11.65-45.32-28.83c0.5-9.42,11.27-17.75,22.27-17.75
		c8.27,0,14.19,4.99,13.91,10.57c-0.32,6.08-8.99,13.28-9.35,21.04c-0.15,3.33,3.14,6.05,10.01,6.05
		c23.35,0,79.04-51.56,82.85-125.24c0.35-6.66,0.03-13.86-0.32-21.07C1885.83,654,1854.97,691.71,1846.76,691.71L1846.76,691.71z
		 M2300.55,643.47c13.86-15.53,23.32-25.49,23.73-33.23c0.26-5.03-2.42-7.25-9.27-7.25c-16.49,0-42.26,18.33-83.21,52.12
		c-19.41,16.11-34.95,36.61-41.12,36.61c-2.06,0-3.39-1.08-3.37-2.2c0.18-3.29,6-8.84,16.78-18.31l23.05-19.39
		c36.64-30.48,68.37-57.67,91.07-57.67c16.6,0,26.32,10.53,25.61,23.83c-1.18,23.26-23.35,52.17-43.97,78.19
		c19.36-14.4,46.78-38.84,68.87-53.83c16.8-32.1,30.69-48.2,58.9-48.2c9.67,0,15.65,3.92,15.36,8.84
		c-0.6,10.54-21.04,21.1-52.24,39.36c-17.05,9.99-36.7,31.12-37.77,50.5c-0.37,8.84,6.17,14.95,16.49,14.95
		c28.19,0,47.45-26.56,53.68-26.56c1.98,0,4.06,1.11,3.97,2.74c-0.32,6.67-32.56,31.08-56.67,31.08c-18.58,0-28.55-7.83-27.84-21.65
		c0.4-6.11,11.67-24.45,17.78-36.09c-30.61,19.94-72.58,59.33-113.83,99.27l-48.41,3.84L2300.55,643.47L2300.55,643.47z
		 M406.14,458.99c-68.83,77.06-129.75,155.23-179.23,209.39c-47.46,51.94-111.06,141.04-32.73,141.04
		c56.74,0,223.68-198.06,304.74-305.96c51.63-68.73,187-79.41,120.21,26.24c-46.15,73.01-107.6,68.19-123.17,65.27
		c-11.08-4.4-20.41-1.99-26.25-1.99c-12.96,0-21.25,3.73-22.12,9.73c-0.78,5.53,3.24,8.77,12.33,8.77c6.48,0,21.98-7.35,41.54-5.09
		c36.9,4.36,67.35,30.99,42.01,83.25c-30.15,62.07-122,103.14-181.27,103.14c-99.31,0-17.06-115.58,37.4-117.18
		c3.48-0.13-4.26-4.19-6.88-4.19c-84.01,0-152.05,136.5-3.91,137.57c95.98,0.69,172.38-58.53,192.29-93.57
		c44.57-78.26-19.96-101.66-59.67-110.9c-4.65-1.13-3.14,0.9-7.25-0.49c19.77,6.65,106.71,2.43,147.57-62.21
		c63.6-100.68-97.41-138.83-172.15-43.41c-44.13,56.35-241.8,302.26-289.77,302.26c-56.33,0,27.18-75.32,71.5-126.07
		c52.1-59.7,117.52-134.08,186.79-215.56h-51.96V458.99z"/><path class="st41" d="M436.93,469.86C418.98,523.19,303.94,626.43,161.67,581c-149.01-47.53-7.25-216.79,365.61-50.91
		c13.82,6.14,32.1,4.71,19.59-0.91c-420-189.43-558.49,15.47-394.84,67.71c142.73,45.52,274.95-56.56,297.35-131.25L436.93,469.86
		L436.93,469.86z M1502.67,691.17c-2.74,0-3.39-0.54-3.32-2.22c0.1-2.21,9.54-11.63,28.19-27.14
		c46.05-38.84,98.47-67.14,136.36-67.14c23.4,0,37.26,11.08,36.48,25.52c-1.45,28.85-59.35,70.44-149.68,87.03
		c-2.51,9.99-4.37,17.2-4.62,22.18c-0.82,16.67,9.04,25.53,26.29,25.53c26.14,0,53.05-14.94,86.67-40.43
		c27.24-21.1,36.73-32.73,41.6-32.73c2.74,0,4.01,1.09,3.97,2.73c-0.21,3.95-13.11,14.44-36.78,33.31
		c-38.01,29.36-68.34,45.44-99.36,45.44c-33.75,0-57.25-24.95-55.46-59.89c0.37-7.19,2.19-14.91,5.37-23.23
		C1511.13,687.3,1506.12,691.17,1502.67,691.17L1502.67,691.17z M1678.16,612.43c0.26-6.08-4.95-11.04-11.88-11.04
		c-23.37,0-82.56,39.9-111.69,96.99C1626.75,686.22,1677.01,634.6,1678.16,612.43L1678.16,612.43z M1997.13,691.17
		c-2.76,0-3.39-0.54-3.34-2.22c0.15-2.21,9.54-11.63,28.27-27.14c46-38.84,98.47-67.14,136.27-67.14
		c23.42,0,37.26,11.08,36.56,25.52c-1.53,28.85-59.41,70.44-149.7,87.03c-2.58,9.99-4.37,17.2-4.56,22.18
		c-0.87,16.67,8.99,25.53,26.19,25.53c26.16,0,53.11-14.94,86.75-40.43c27.19-21.1,36.75-32.73,41.57-32.73
		c2.79,0,4.01,1.09,3.95,2.73c-0.15,3.95-13.11,14.44-36.78,33.31c-37.99,29.36-68.39,45.44-99.31,45.44
		c-33.77,0-57.25-24.95-55.46-59.89c0.32-7.19,2.13-14.91,5.27-23.23C2005.57,687.3,2000.6,691.17,1997.13,691.17L1997.13,691.17z
		 M2172.61,612.43c0.26-6.08-4.95-11.04-11.83-11.04c-23.4,0-82.69,39.9-111.7,96.99C2121.27,686.22,2171.49,634.6,2172.61,612.43
		L2172.61,612.43z"/></g></svg>