<svg version="1.1" id="Layer_1" xmlns="http://www.w3.org/2000/svg" xmlns:xlink="http://www.w3.org/1999/xlink" x="0px" y="0px" viewBox="0 0 2500 928" style="enable-background:new 0 0 2500 928;" xml:space="preserve"><style type="text/css">
	.st0{fill:none;stroke:#003562;stroke-width:5.054;}
	.st1{fill:none;stroke:#C79F2A;stroke-width:2.569;}
	.st2{fill:#BF1F2E;}
	.st3{fill:#C79F2A;}
	.st4{fill:url(#SVGID_1_);}
	.st5{stroke:#000000;stroke-width:0.349;}
	.st6{fill:url(#SVGID_2_);}
	.st7{fill:#B29960;}
	.st8{fill:none;stroke:#000000;stroke-width:0.349;stroke-linecap:round;stroke-linejoin:round;}
	.st9{fill:none;stroke:#000000;stroke-width:0.419;stroke-linecap:round;stroke-linejoin:round;}
	.st10{fill:#EEDE92;}
	.st11{fill:url(#SVGID_3_);}
	.st12{fill:url(#SVGID_4_);}
	.st13{fill:url(#SVGID_5_);}
	.st14{fill:url(#SVGID_6_);}
	.st15{fill:url(#SVGID_7_);}
	.st16{fill:url(#SVGID_8_);}
	.st17{fill-rule:evenodd;clip-rule:evenodd;fill:#C79F2A;}
	.st18{fill-rule:evenodd;clip-rule:evenodd;fill:url(#SVGID_9_);}
	.st19{fill-rule:evenodd;clip-rule:evenodd;fill:url(#SVGID_10_);}
	.st20{fill-rule:evenodd;clip-rule:evenodd;fill:#EEDE92;}
	.st21{fill-rule:evenodd;clip-rule:evenodd;fill:#76230B;stroke:#76230B;stroke-width:0.211;}
	.st22{fill-rule:evenodd;clip-rule:evenodd;fill:url(#SVGID_11_);}
	.st23{fill-rule:evenodd;clip-rule:evenodd;fill:url(#SVGID_12_);}
	.st24{fill:none;stroke:#000000;stroke-width:0.081;stroke-linecap:round;stroke-linejoin:round;}
	.st25{fill-rule:evenodd;clip-rule:evenodd;fill:url(#SVGID_13_);}
	.st26{fill:#76230B;}
	.st27{fill-rule:evenodd;clip-rule:evenodd;fill:url(#SVGID_14_);}
	.st28{fill:none;stroke:#000000;stroke-width:0.144;}
	.st29{stroke:#000000;stroke-width:0.26;stroke-linejoin:round;}
	.st30{fill:url(#SVGID_15_);}
	.st31{fill:url(#SVGID_16_);}
	.st32{fill:url(#SVGID_17_);}
	.st33{fill:url(#SVGID_18_);}
	.st34{fill:url(#SVGID_19_);}
	.st35{stroke:#000000;stroke-width:0.521;stroke-linejoin:round;}
	.st36{fill-rule:evenodd;clip-rule:evenodd;stroke:#000000;stroke-width:0.521;stroke-linejoin:round;}
	.st37{fill-rule:evenodd;clip-rule:evenodd;stroke:#000000;stroke-width:0.434;stroke-linejoin:round;}
	.st38{fill-rule:evenodd;clip-rule:evenodd;fill:url(#SVGID_20_);}
	.st39{fill:url(#SVGID_21_);}
	.st40{fill:#FFFFFF;}
	.st41{fill:#76230B;stroke:#76230B;stroke-width:1.204;}
	.st42{fill:#003562;stroke:#003562;stroke-width:1.376;}
	.st43{fill:#FFFFFF;stroke:#FFFFFF;stroke-width:0.111;}
	.st44{fill:#FFFFFF;stroke:#FFFFFF;stroke-width:0.538;}
	.st45{fill:#FFFFFF;stroke:#FFFFFF;stroke-width:0.522;}
</style><path class="st21" d="M1202.29,333.36c0,0-10.67,30.31-10.67,37.05c0,11.07,8.27,20.93,16.55,25.54h-18.9
	c-4.61-7.23-12.59-11.61-21.16-11.65c-13.65,0-19.91,9.01-21.26,11.66h-19.05l8.77-8.78c-8.97-1.23-10.86-13.29-4.15-16.99
	c7.22-3.99,14.96,3.42,11.66,12.51c16.75,4.72,30.49-26.1,33.05-33.03l59.57-160.89c2.65-6.66,2.89-11.9-1.62-14.39
	c-7.02-3.87-10.14,3.12-14.28-1.88c-1.75-2.13-2.48-9.02,6.5-9.02h8.64c0,0,3.37,10.77,22.02,10.77c18.64,0,22.03-10.77,22.03-10.77
	l8.64-0.01c8.99,0,8.28,6.89,6.5,9.02c-4.11,5.03-7.25-1.98-14.28,1.9c-4.49,2.48-4.26,7.73-1.61,14.37l59.59,160.85
	c2.53,6.94,16.3,37.74,33.06,33.03c-3.32-9.08,4.4-16.49,11.62-12.52c6.75,3.72,4.82,15.79-4.11,17.03l8.74,8.75h-19.01
	c-1.38-2.64-7.66-11.65-21.26-11.65c-11.99,0-19.26,8.27-21.17,11.65l-18.87,0.01c8.24-4.65,16.51-14.51,16.51-25.56
	c0-6.75-10.63-37.04-10.63-37.04h-111.41L1202.29,333.36z M1307.59,316.59c-15.95-45.8-35.38-101.69-36.12-103.88
	c-2.8-8.43-7.03-16.02-13.52-16.02s-10.71,7.58-13.5,16.02c-0.75,2.2-20.16,58.08-36.1,103.9L1307.59,316.59L1307.59,316.59z"/></svg>