<svg version="1.1" id="Layer_1" xmlns="http://www.w3.org/2000/svg" xmlns:xlink="http://www.w3.org/1999/xlink" x="0px" y="0px" viewBox="0 0 2500 928" style="enable-background:new 0 0 2500 928;" xml:space="preserve"><style type="text/css">
	.st0{fill:none;stroke:#003562;stroke-width:5.054;}
	.st1{fill:none;stroke:#C79F2A;stroke-width:2.569;}
	.st2{fill:#BF1F2E;}
	.st3{fill:#C79F2A;}
	.st4{fill:url(#SVGID_1_);}
	.st5{stroke:#000000;stroke-width:0.349;}
	.st6{fill:url(#SVGID_2_);}
	.st7{fill:#B29960;}
	.st8{fill:none;stroke:#000000;stroke-width:0.349;stroke-linecap:round;stroke-linejoin:round;}
	.st9{fill:none;stroke:#000000;stroke-width:0.419;stroke-linecap:round;stroke-linejoin:round;}
	.st10{fill:#EEDE92;}
	.st11{fill:url(#SVGID_3_);}
	.st12{fill:url(#SVGID_4_);}
	.st13{fill:url(#SVGID_5_);}
	.st14{fill:url(#SVGID_6_);}
	.st15{fill:url(#SVGID_7_);}
	.st16{fill:url(#SVGID_8_);}
	.st17{fill-rule:evenodd;clip-rule:evenodd;fill:#C79F2A;}
	.st18{fill-rule:evenodd;clip-rule:evenodd;fill:url(#SVGID_9_);}
	.st19{fill-rule:evenodd;clip-rule:evenodd;fill:url(#SVGID_10_);}
	.st20{fill-rule:evenodd;clip-rule:evenodd;fill:#EEDE92;}
	.st21{fill-rule:evenodd;clip-rule:evenodd;fill:#76230B;stroke:#76230B;stroke-width:0.211;}
	.st22{fill-rule:evenodd;clip-rule:evenodd;fill:url(#SVGID_11_);}
	.st23{fill-rule:evenodd;clip-rule:evenodd;fill:url(#SVGID_12_);}
	.st24{fill:none;stroke:#000000;stroke-width:0.081;stroke-linecap:round;stroke-linejoin:round;}
	.st25{fill-rule:evenodd;clip-rule:evenodd;fill:url(#SVGID_13_);}
	.st26{fill:#76230B;}
	.st27{fill-rule:evenodd;clip-rule:evenodd;fill:url(#SVGID_14_);}
	.st28{fill:none;stroke:#000000;stroke-width:0.144;}
	.st29{stroke:#000000;stroke-width:0.26;stroke-linejoin:round;}
	.st30{fill:url(#SVGID_15_);}
	.st31{fill:url(#SVGID_16_);}
	.st32{fill:url(#SVGID_17_);}
	.st33{fill:url(#SVGID_18_);}
	.st34{fill:url(#SVGID_19_);}
	.st35{stroke:#000000;stroke-width:0.521;stroke-linejoin:round;}
	.st36{fill-rule:evenodd;clip-rule:evenodd;stroke:#000000;stroke-width:0.521;stroke-linejoin:round;}
	.st37{fill-rule:evenodd;clip-rule:evenodd;stroke:#000000;stroke-width:0.434;stroke-linejoin:round;}
	.st38{fill-rule:evenodd;clip-rule:evenodd;fill:url(#SVGID_20_);}
	.st39{fill:url(#SVGID_21_);}
	.st40{fill:#FFFFFF;}
	.st41{fill:#76230B;stroke:#76230B;stroke-width:1.204;}
	.st42{fill:#003562;stroke:#003562;stroke-width:1.376;}
	.st43{fill:#FFFFFF;stroke:#FFFFFF;stroke-width:0.111;}
	.st44{fill:#FFFFFF;stroke:#FFFFFF;stroke-width:0.538;}
	.st45{fill:#FFFFFF;stroke:#FFFFFF;stroke-width:0.522;}
</style><path class="st43" d="M2316.31,730.22c4.01,0.01,6.95,1.36,8.77,4.05c1.84,2.64,2.06,5.82,0.66,9.59s-4,6.98-7.8,9.64
	c-3.4,2.5-7.5,3.88-11.72,3.95c-4.01-0.04-6.95-1.35-8.74-4.04c-1.81-2.66-2.01-5.87-0.6-9.67c1.38-3.74,3.97-6.93,7.78-9.55
	C2308.45,731.53,2312.35,730.21,2316.31,730.22L2316.31,730.22z M2328.08,743.85c1.61-4.35,1.35-8.03-0.8-11.12
	c-2.11-3.06-5.5-4.62-10.14-4.64c-4.61,0-9.11,1.53-13.54,4.58c-4.42,3.02-7.4,6.72-9.04,11.04c-1.63,4.38-1.4,8.12,0.73,11.18
	c2.11,3.1,5.48,4.64,10.12,4.68c4.67,0.01,9.19-1.52,13.59-4.58C2323.44,751.91,2326.48,748.21,2328.08,743.85L2328.08,743.85z
	 M2316.99,740.41c-0.49,1.32-1.59,2.32-2.94,2.69c-1.06,0.28-2.17,0.39-3.27,0.35h-2.98l2.34-6.21h2.79
	c1.84,0.01,3.09,0.24,3.77,0.64C2317.36,738.32,2317.47,739.13,2316.99,740.41L2316.99,740.41z M2307.75,735.06l-6.43,17.3
	l3.19,0.03l2.51-6.8h2.56c1.76,0,2.89,0.18,3.45,0.59c0.9,0.63,1,1.94,0.27,3.95l-0.5,1.36l-0.15,0.58c0,0.05-0.05,0.13-0.05,0.19
	v0.15l3.09,0.04l-0.05-0.23c0-0.31,0.06-0.62,0.18-0.9c0.13-0.45,0.27-0.87,0.42-1.29l0.48-1.29c0.32-0.86,0.32-1.8,0-2.66
	c-0.3-0.91-1.18-1.48-2.53-1.72c1.03-0.11,2.04-0.39,2.98-0.81c1.46-0.68,2.57-1.92,3.09-3.45c0.8-2.16,0.4-3.61-1.23-4.37
	c-0.9-0.4-2.51-0.64-4.8-0.64L2307.75,735.06L2307.75,735.06z"/></svg>