<svg version="1.1" id="Layer_1" xmlns="http://www.w3.org/2000/svg" xmlns:xlink="http://www.w3.org/1999/xlink" x="0px" y="0px" viewBox="0 0 2500 928" style="enable-background:new 0 0 2500 928;" xml:space="preserve"><style type="text/css">
	.st0{fill:none;stroke:#003562;stroke-width:5.054;}
	.st1{fill:none;stroke:#C79F2A;stroke-width:2.569;}
	.st2{fill:#BF1F2E;}
	.st3{fill:#C79F2A;}
	.st4{fill:url(#SVGID_1_);}
	.st5{stroke:#000000;stroke-width:0.349;}
	.st6{fill:url(#SVGID_2_);}
	.st7{fill:#B29960;}
	.st8{fill:none;stroke:#000000;stroke-width:0.349;stroke-linecap:round;stroke-linejoin:round;}
	.st9{fill:none;stroke:#000000;stroke-width:0.419;stroke-linecap:round;stroke-linejoin:round;}
	.st10{fill:#EEDE92;}
	.st11{fill:url(#SVGID_3_);}
	.st12{fill:url(#SVGID_4_);}
	.st13{fill:url(#SVGID_5_);}
	.st14{fill:url(#SVGID_6_);}
	.st15{fill:url(#SVGID_7_);}
	.st16{fill:url(#SVGID_8_);}
	.st17{fill-rule:evenodd;clip-rule:evenodd;fill:#C79F2A;}
	.st18{fill-rule:evenodd;clip-rule:evenodd;fill:url(#SVGID_9_);}
	.st19{fill-rule:evenodd;clip-rule:evenodd;fill:url(#SVGID_10_);}
	.st20{fill-rule:evenodd;clip-rule:evenodd;fill:#EEDE92;}
	.st21{fill-rule:evenodd;clip-rule:evenodd;fill:#76230B;stroke:#76230B;stroke-width:0.211;}
	.st22{fill-rule:evenodd;clip-rule:evenodd;fill:url(#SVGID_11_);}
	.st23{fill-rule:evenodd;clip-rule:evenodd;fill:url(#SVGID_12_);}
	.st24{fill:none;stroke:#000000;stroke-width:0.081;stroke-linecap:round;stroke-linejoin:round;}
	.st25{fill-rule:evenodd;clip-rule:evenodd;fill:url(#SVGID_13_);}
	.st26{fill:#76230B;}
	.st27{fill-rule:evenodd;clip-rule:evenodd;fill:url(#SVGID_14_);}
	.st28{fill:none;stroke:#000000;stroke-width:0.144;}
	.st29{stroke:#000000;stroke-width:0.26;stroke-linejoin:round;}
	.st30{fill:url(#SVGID_15_);}
	.st31{fill:url(#SVGID_16_);}
	.st32{fill:url(#SVGID_17_);}
	.st33{fill:url(#SVGID_18_);}
	.st34{fill:url(#SVGID_19_);}
	.st35{stroke:#000000;stroke-width:0.521;stroke-linejoin:round;}
	.st36{fill-rule:evenodd;clip-rule:evenodd;stroke:#000000;stroke-width:0.521;stroke-linejoin:round;}
	.st37{fill-rule:evenodd;clip-rule:evenodd;stroke:#000000;stroke-width:0.434;stroke-linejoin:round;}
	.st38{fill-rule:evenodd;clip-rule:evenodd;fill:url(#SVGID_20_);}
	.st39{fill:url(#SVGID_21_);}
	.st40{fill:#FFFFFF;}
	.st41{fill:#76230B;stroke:#76230B;stroke-width:1.204;}
	.st42{fill:#003562;stroke:#003562;stroke-width:1.376;}
	.st43{fill:#FFFFFF;stroke:#FFFFFF;stroke-width:0.111;}
	.st44{fill:#FFFFFF;stroke:#FFFFFF;stroke-width:0.538;}
	.st45{fill:#FFFFFF;stroke:#FFFFFF;stroke-width:0.522;}
</style><path d="M1341.08,295.91c10.99-0.64,9.14-7.57,9.14-7.57c10.7,3.46,10.07-6.31,10.07-6.31c6.61,2.84,10.09-1.57,10.09-1.57
	c12.3,9.77,15.44,3.46,15.44,3.46c23.29,11.63,20.16-0.63,20.16-0.63c14.78,13.24,16.09,9.13,16.09,9.13
	c19.21,18.91,22.68,11.02,22.68,11.02c3.14,3.16,20.49,15.77,18.6,5.07c-1.9-10.72-26.16-38.14-26.16-38.14
	c1.56,0,2.51,0.32,2.21-0.32c-4.04-8.07-28.69-29.93-28.69-29.93l1.58-0.63c-2.53-2.21-49.39-45.39-81.54-45.39
	c-40.34,0-56.29,48.66-58.53,54.03c-0.19,0.49,0.99,1.93,0.59,2.84c-1.97-3.18-4.87-8.6-11.27-14.77
	c-7.01-6.8-7.62-10.54-7.62-10.54l-4.37,11.35c0,0-2.08,5.67-3.86,9.14c-1.8,3.47-10.5,14.32-10.5,14.32
	c-1.8,0.86-2.67,2.49-3.99,3.21c-4.01,1.45-13.91,5.86-18.42,6.88c-1.61,0.33,7.6,3.07,16.65-2.03c2.76-1.58-0.13,7.34,0.73,9.22
	c0.81,1.9,2.51-0.19,4.18,1.9c1.68,2.08-1.26,4.6,0.84,6.07c2.11,1.5,9.76,2.04,6.03,2.98c-3.51,0.86-3.72,3.75-3.09,5.03
	c0.63,1.23,1.05,1.23,0.42,2.71c-0.63,1.47-2.94,1.26-0.22,2.94c2.73,1.67,11.76-0.63,11.76-0.63s-2.94,2.94-6.52,4.2
	c-2.02,0.68-4.2,0.64-6.2-0.1c0,0-1.27,0.63,0.95,2.51c2.2,1.89,2.94,2.3,3.24,4.83c0.31,2.51-5.46-0.12-5.46-0.12
	c1.58,2.2,6.31,4.1,5.05,4.73c-1.26,0.64-4.1,0.32-4.1,1.25c0,0.95,1.89,1.9,1.89,1.9l-5.67,0.63c-4.92,0.54-6.13-0.42-6.13-0.42
	c2.24,2.22,2.34,2.61,3.61,3.25c1.26,0.62,2.84,0.62,3.46,1.88c0.64,1.25-0.3,3.77-5.05-0.35c-4.72-4.08-8.18-2.19-8.18-2.19
	c2.51,0.64,1.26,1.59,1.26,1.59c-5.45-3.02-19.49-6.76-19.49-6.76c2.52,3.14,11.06,6.68,12.95,7.93c1.88,1.26,10.36,1.2,10.36,1.2
	c5.99,4.1,10.67,3.32,10.67,3.32c11.66,6.63,10.72-0.63,10.72-0.63c14.8,2.82,20.48-3.48,20.48-3.48
	c6.88,18.64,12.28,3.77,12.28,3.77c3.81,5.37,7.22,0,7.22,0c4.11,5.69,7.58-0.63,7.58-0.63c6.32,6.32,9.15-2.2,9.15-2.2
	c4.41,3.48,6.92-2.2,6.92-2.2c6.3,3.79,6.93-3.47,6.93-3.47c4.72,2.84,6-6.62,6-6.62c8.19,2.85,6.3-5.35,6.3-5.35
	c2.51,1.88,6.29-0.66,6.29-0.66L1341.08,295.91L1341.08,295.91z"/></svg>