<svg version="1.1" id="Layer_1" xmlns="http://www.w3.org/2000/svg" xmlns:xlink="http://www.w3.org/1999/xlink" x="0px" y="0px" viewBox="0 0 2500 928" style="enable-background:new 0 0 2500 928;" xml:space="preserve"><style type="text/css">
	.st0{fill:none;stroke:#003562;stroke-width:5.054;}
	.st1{fill:none;stroke:#C79F2A;stroke-width:2.569;}
	.st2{fill:#BF1F2E;}
	.st3{fill:#C79F2A;}
	.st4{fill:url(#SVGID_1_);}
	.st5{stroke:#000000;stroke-width:0.349;}
	.st6{fill:url(#SVGID_2_);}
	.st7{fill:#B29960;}
	.st8{fill:none;stroke:#000000;stroke-width:0.349;stroke-linecap:round;stroke-linejoin:round;}
	.st9{fill:none;stroke:#000000;stroke-width:0.419;stroke-linecap:round;stroke-linejoin:round;}
	.st10{fill:#EEDE92;}
	.st11{fill:url(#SVGID_3_);}
	.st12{fill:url(#SVGID_4_);}
	.st13{fill:url(#SVGID_5_);}
	.st14{fill:url(#SVGID_6_);}
	.st15{fill:url(#SVGID_7_);}
	.st16{fill:url(#SVGID_8_);}
	.st17{fill-rule:evenodd;clip-rule:evenodd;fill:#C79F2A;}
	.st18{fill-rule:evenodd;clip-rule:evenodd;fill:url(#SVGID_9_);}
	.st19{fill-rule:evenodd;clip-rule:evenodd;fill:url(#SVGID_10_);}
	.st20{fill-rule:evenodd;clip-rule:evenodd;fill:#EEDE92;}
	.st21{fill-rule:evenodd;clip-rule:evenodd;fill:#76230B;stroke:#76230B;stroke-width:0.211;}
	.st22{fill-rule:evenodd;clip-rule:evenodd;fill:url(#SVGID_11_);}
	.st23{fill-rule:evenodd;clip-rule:evenodd;fill:url(#SVGID_12_);}
	.st24{fill:none;stroke:#000000;stroke-width:0.081;stroke-linecap:round;stroke-linejoin:round;}
	.st25{fill-rule:evenodd;clip-rule:evenodd;fill:url(#SVGID_13_);}
	.st26{fill:#76230B;}
	.st27{fill-rule:evenodd;clip-rule:evenodd;fill:url(#SVGID_14_);}
	.st28{fill:none;stroke:#000000;stroke-width:0.144;}
	.st29{stroke:#000000;stroke-width:0.26;stroke-linejoin:round;}
	.st30{fill:url(#SVGID_15_);}
	.st31{fill:url(#SVGID_16_);}
	.st32{fill:url(#SVGID_17_);}
	.st33{fill:url(#SVGID_18_);}
	.st34{fill:url(#SVGID_19_);}
	.st35{stroke:#000000;stroke-width:0.521;stroke-linejoin:round;}
	.st36{fill-rule:evenodd;clip-rule:evenodd;stroke:#000000;stroke-width:0.521;stroke-linejoin:round;}
	.st37{fill-rule:evenodd;clip-rule:evenodd;stroke:#000000;stroke-width:0.434;stroke-linejoin:round;}
	.st38{fill-rule:evenodd;clip-rule:evenodd;fill:url(#SVGID_20_);}
	.st39{fill:url(#SVGID_21_);}
	.st40{fill:#FFFFFF;}
	.st41{fill:#76230B;stroke:#76230B;stroke-width:1.204;}
	.st42{fill:#003562;stroke:#003562;stroke-width:1.376;}
	.st43{fill:#FFFFFF;stroke:#FFFFFF;stroke-width:0.111;}
	.st44{fill:#FFFFFF;stroke:#FFFFFF;stroke-width:0.538;}
	.st45{fill:#FFFFFF;stroke:#FFFFFF;stroke-width:0.522;}
</style><path class="st15" d="M1302.91,344.8c4.01,12.32,6.16,23.89,6.38,25.8c-0.1,4.64-4.55,9.83-8.84,12.25l-28.42,15.94l3.16,12.19
	l60.27-0.01l4.2-7.44c1.92-2.61,4.95-4.17,8.19-4.2c5.62,0,7.74,3.21,8.01,3.64l4.19,8.01h64.35l-23.76-23.78
	c0.69-1.64,1.18-3.36,1.48-5.12c1.9-10.22-2.69-20.3-11.38-25.08c-8.41-4.73-18.89-3.69-26.21,2.6c-0.82,0.69-1.59,1.44-2.31,2.24
	c-3.87-5.36-7.02-11.22-9.35-17.41l-57.37-155.51c5.18-0.99,8.82-3.96,11.17-6.84c4.9-5.93,8.18-17.03,0.18-28.05l3.64-5.55
	l-41.55,0.01c0,0-0.17,10.76-11,10.76c-10.85,0-10.99-10.76-10.99-10.76h-41.59l3.68,5.55c-8,11-4.76,22.12,0.14,28.04
	c2.39,2.91,6.02,5.85,11.2,6.84l-57.32,155.53c-2.32,6.19-5.46,12.04-9.32,17.41c-7.18-8.15-19.07-10.17-28.54-4.85
	c-8.69,4.78-13.27,14.89-11.4,25.09c0.33,1.77,0.84,3.48,1.52,5.12l-23.76,23.78h64.37l4.19-7.98c0.27-0.44,2.38-3.68,8.02-3.68
	c3.23,0.05,6.26,1.6,8.19,4.19l4.2,7.44h60.27l3.16-12.19l-28.41-15.94c-4.29-2.42-11.31-7.61-11.45-12.25
	c1.47-8.74,3.6-17.36,6.38-25.78L1302.91,344.8L1302.91,344.8z M1257.87,214.95c2.6,7.52,15.22,39.27,31.71,86.7l-63.42-0.48
	C1242.67,253.72,1255.25,222.47,1257.87,214.95L1257.87,214.95z"/></svg>