<svg version="1.1" id="Layer_1" xmlns="http://www.w3.org/2000/svg" xmlns:xlink="http://www.w3.org/1999/xlink" x="0px" y="0px" viewBox="0 0 2500 928" style="enable-background:new 0 0 2500 928;" xml:space="preserve"><style type="text/css">
	.st0{fill:none;stroke:#003562;stroke-width:5.054;}
	.st1{fill:none;stroke:#C79F2A;stroke-width:2.569;}
	.st2{fill:#BF1F2E;}
	.st3{fill:#C79F2A;}
	.st4{fill:url(#SVGID_1_);}
	.st5{stroke:#000000;stroke-width:0.349;}
	.st6{fill:url(#SVGID_2_);}
	.st7{fill:#B29960;}
	.st8{fill:none;stroke:#000000;stroke-width:0.349;stroke-linecap:round;stroke-linejoin:round;}
	.st9{fill:none;stroke:#000000;stroke-width:0.419;stroke-linecap:round;stroke-linejoin:round;}
	.st10{fill:#EEDE92;}
	.st11{fill:url(#SVGID_3_);}
	.st12{fill:url(#SVGID_4_);}
	.st13{fill:url(#SVGID_5_);}
	.st14{fill:url(#SVGID_6_);}
	.st15{fill:url(#SVGID_7_);}
	.st16{fill:url(#SVGID_8_);}
	.st17{fill-rule:evenodd;clip-rule:evenodd;fill:#C79F2A;}
	.st18{fill-rule:evenodd;clip-rule:evenodd;fill:url(#SVGID_9_);}
	.st19{fill-rule:evenodd;clip-rule:evenodd;fill:url(#SVGID_10_);}
	.st20{fill-rule:evenodd;clip-rule:evenodd;fill:#EEDE92;}
	.st21{fill-rule:evenodd;clip-rule:evenodd;fill:#76230B;stroke:#76230B;stroke-width:0.211;}
	.st22{fill-rule:evenodd;clip-rule:evenodd;fill:url(#SVGID_11_);}
	.st23{fill-rule:evenodd;clip-rule:evenodd;fill:url(#SVGID_12_);}
	.st24{fill:none;stroke:#000000;stroke-width:0.081;stroke-linecap:round;stroke-linejoin:round;}
	.st25{fill-rule:evenodd;clip-rule:evenodd;fill:url(#SVGID_13_);}
	.st26{fill:#76230B;}
	.st27{fill-rule:evenodd;clip-rule:evenodd;fill:url(#SVGID_14_);}
	.st28{fill:none;stroke:#000000;stroke-width:0.144;}
	.st29{stroke:#000000;stroke-width:0.26;stroke-linejoin:round;}
	.st30{fill:url(#SVGID_15_);}
	.st31{fill:url(#SVGID_16_);}
	.st32{fill:url(#SVGID_17_);}
	.st33{fill:url(#SVGID_18_);}
	.st34{fill:url(#SVGID_19_);}
	.st35{stroke:#000000;stroke-width:0.521;stroke-linejoin:round;}
	.st36{fill-rule:evenodd;clip-rule:evenodd;stroke:#000000;stroke-width:0.521;stroke-linejoin:round;}
	.st37{fill-rule:evenodd;clip-rule:evenodd;stroke:#000000;stroke-width:0.434;stroke-linejoin:round;}
	.st38{fill-rule:evenodd;clip-rule:evenodd;fill:url(#SVGID_20_);}
	.st39{fill:url(#SVGID_21_);}
	.st40{fill:#FFFFFF;}
	.st41{fill:#76230B;stroke:#76230B;stroke-width:1.204;}
	.st42{fill:#003562;stroke:#003562;stroke-width:1.376;}
	.st43{fill:#FFFFFF;stroke:#FFFFFF;stroke-width:0.111;}
	.st44{fill:#FFFFFF;stroke:#FFFFFF;stroke-width:0.538;}
	.st45{fill:#FFFFFF;stroke:#FFFFFF;stroke-width:0.522;}
</style><g><path class="st29" d="M1284.5,398.57l-2.56-1.38l-3.68,2.71l2.6,2.04c-1.23,1.25-2.31,2.37-2.55,2.91
		c1.18,1.21,14.78,5.03,16.44,5.34c0.49-1.89-7.47-11.92-8.48-13.29L1284.5,398.57z"/><linearGradient id="SVGID_15_" gradientUnits="userSpaceOnUse" x1="-7106.8481" y1="8734.3096" x2="-7116.0405" y2="8740.0371" gradientTransform="matrix(1.7946 0 0 -1.7946 14046.6914 16082.0791)"><stop offset="0" style="stop-color:#E4CC8A"/><stop offset="1" style="stop-color:#C79F2A"/></linearGradient><path class="st30" d="M1284.5,398.57l-2.56-1.38l-3.68,2.71l2.6,2.04c-1.23,1.25-2.31,2.37-2.55,2.91
		c1.18,1.21,14.78,5.03,16.44,5.34c0.49-1.89-7.47-11.92-8.48-13.29L1284.5,398.57z"/><path class="st29" d="M1304.44,380.76c-0.17,1.07-0.48,2.11-0.93,3.1l-4.77-1.26l-2.34,2.88l6.17,0.66l-1.08,2.39
		c1.83,0.14,15.71,0.89,17.17,0C1317.32,386.82,1306.47,381.43,1304.44,380.76L1304.44,380.76z"/><linearGradient id="SVGID_16_" gradientUnits="userSpaceOnUse" x1="-7093.7402" y1="8745.8154" x2="-7109.5181" y2="8748.2275" gradientTransform="matrix(1.7946 0 0 -1.7946 14046.6914 16082.0791)"><stop offset="0" style="stop-color:#E4CC8A"/><stop offset="1" style="stop-color:#C79F2A"/></linearGradient><path class="st31" d="M1304.44,380.76c-0.17,1.07-0.48,2.11-0.93,3.1l-4.77-1.26l-2.34,2.88l6.17,0.66l-1.08,2.39
		c1.83,0.14,15.71,0.89,17.17,0C1317.32,386.82,1306.47,381.43,1304.44,380.76L1304.44,380.76z"/><path class="st29" d="M1253.43,370.61l-21.92-2.28l-1.2-2.28l-11.65-2.21l1.66,3.51l-2.58,3.48l11.66,1.13l1.81-1.65l21.75,2.25
		L1253.43,370.61z M1288.76,376.31l21.83,2.26c-0.6,1.12-1.09,2.02-1.14,2.2l17.93,0.54c-1.5-1.52-12.78-6.67-14.62-6.81
		c0,0.14-0.54,1.16-1.18,2.3l-22.56-2.37L1288.76,376.31z"/><linearGradient id="SVGID_17_" gradientUnits="userSpaceOnUse" x1="-7256.292" y1="8756.0938" x2="-7236.4067" y2="8756.0938" gradientTransform="matrix(1.7946 0 0 -1.7946 14237.6338 16082.0791)"><stop offset="0" style="stop-color:#E4CC8A"/><stop offset="1" style="stop-color:#C79F2A"/></linearGradient><path class="st32" d="M1253.43,370.61l-21.92-2.28l-1.2-2.28l-11.65-2.21l1.66,3.51l-2.58,3.48l11.66,1.13l1.81-1.65l21.75,2.25
		L1253.43,370.61z"/><linearGradient id="SVGID_18_" gradientUnits="userSpaceOnUse" x1="-7088.9102" y1="8749.7754" x2="-7107.9541" y2="8752.4355" gradientTransform="matrix(1.7946 0 0 -1.7946 14046.6914 16082.0791)"><stop offset="0" style="stop-color:#E4CC8A"/><stop offset="1" style="stop-color:#C79F2A"/></linearGradient><path class="st33" d="M1288.76,376.31l21.83,2.26c-0.6,1.12-1.09,2.02-1.14,2.2l17.93,0.54c-1.5-1.52-12.78-6.67-14.62-6.81
		c0,0.14-0.54,1.16-1.18,2.3l-22.56-2.37L1288.76,376.31z"/><path class="st29" d="M1250.15,372.78l-0.05-3.59l-7.84-10.26l0.98-3.61l-6.26-8.68l-1.66,5.36l-4.81-0.73l6.09,8.69h3.7
		L1250.15,372.78z"/><linearGradient id="SVGID_19_" gradientUnits="userSpaceOnUse" x1="-7249.1953" y1="8760.8291" x2="-7238.2495" y2="8760.8291" gradientTransform="matrix(1.7946 0 0 -1.7946 14237.6338 16082.0791)"><stop offset="0" style="stop-color:#E4CC8A"/><stop offset="1" style="stop-color:#C79F2A"/></linearGradient><path class="st34" d="M1250.15,372.78l-0.05-3.59l-7.84-10.26l0.98-3.61l-6.26-8.68l-1.66,5.36l-4.81-0.73l6.09,8.69h3.7
		L1250.15,372.78z"/></g></svg>