<svg version="1.1" id="Layer_1" xmlns="http://www.w3.org/2000/svg" xmlns:xlink="http://www.w3.org/1999/xlink" x="0px" y="0px" viewBox="0 0 2500 928" style="enable-background:new 0 0 2500 928;" xml:space="preserve"><style type="text/css">
	.st0{fill:none;stroke:#003562;stroke-width:5.054;}
	.st1{fill:none;stroke:#C79F2A;stroke-width:2.569;}
	.st2{fill:#BF1F2E;}
	.st3{fill:#C79F2A;}
	.st4{fill:url(#SVGID_1_);}
	.st5{stroke:#000000;stroke-width:0.349;}
	.st6{fill:url(#SVGID_2_);}
	.st7{fill:#B29960;}
	.st8{fill:none;stroke:#000000;stroke-width:0.349;stroke-linecap:round;stroke-linejoin:round;}
	.st9{fill:none;stroke:#000000;stroke-width:0.419;stroke-linecap:round;stroke-linejoin:round;}
	.st10{fill:#EEDE92;}
	.st11{fill:url(#SVGID_3_);}
	.st12{fill:url(#SVGID_4_);}
	.st13{fill:url(#SVGID_5_);}
	.st14{fill:url(#SVGID_6_);}
	.st15{fill:url(#SVGID_7_);}
	.st16{fill:url(#SVGID_8_);}
	.st17{fill-rule:evenodd;clip-rule:evenodd;fill:#C79F2A;}
	.st18{fill-rule:evenodd;clip-rule:evenodd;fill:url(#SVGID_9_);}
	.st19{fill-rule:evenodd;clip-rule:evenodd;fill:url(#SVGID_10_);}
	.st20{fill-rule:evenodd;clip-rule:evenodd;fill:#EEDE92;}
	.st21{fill-rule:evenodd;clip-rule:evenodd;fill:#76230B;stroke:#76230B;stroke-width:0.211;}
	.st22{fill-rule:evenodd;clip-rule:evenodd;fill:url(#SVGID_11_);}
	.st23{fill-rule:evenodd;clip-rule:evenodd;fill:url(#SVGID_12_);}
	.st24{fill:none;stroke:#000000;stroke-width:0.081;stroke-linecap:round;stroke-linejoin:round;}
	.st25{fill-rule:evenodd;clip-rule:evenodd;fill:url(#SVGID_13_);}
	.st26{fill:#76230B;}
	.st27{fill-rule:evenodd;clip-rule:evenodd;fill:url(#SVGID_14_);}
	.st28{fill:none;stroke:#000000;stroke-width:0.144;}
	.st29{stroke:#000000;stroke-width:0.26;stroke-linejoin:round;}
	.st30{fill:url(#SVGID_15_);}
	.st31{fill:url(#SVGID_16_);}
	.st32{fill:url(#SVGID_17_);}
	.st33{fill:url(#SVGID_18_);}
	.st34{fill:url(#SVGID_19_);}
	.st35{stroke:#000000;stroke-width:0.521;stroke-linejoin:round;}
	.st36{fill-rule:evenodd;clip-rule:evenodd;stroke:#000000;stroke-width:0.521;stroke-linejoin:round;}
	.st37{fill-rule:evenodd;clip-rule:evenodd;stroke:#000000;stroke-width:0.434;stroke-linejoin:round;}
	.st38{fill-rule:evenodd;clip-rule:evenodd;fill:url(#SVGID_20_);}
	.st39{fill:url(#SVGID_21_);}
	.st40{fill:#FFFFFF;}
	.st41{fill:#76230B;stroke:#76230B;stroke-width:1.204;}
	.st42{fill:#003562;stroke:#003562;stroke-width:1.376;}
	.st43{fill:#FFFFFF;stroke:#FFFFFF;stroke-width:0.111;}
	.st44{fill:#FFFFFF;stroke:#FFFFFF;stroke-width:0.538;}
	.st45{fill:#FFFFFF;stroke:#FFFFFF;stroke-width:0.522;}
</style><path class="st3" d="M1459.02,303.68v1.34c0,0-27.06-31.28-31.26-34.92c-4.24-3.64,4.29-0.04,4.29-0.04
	C1434.23,271.67,1444.72,277.87,1459.02,303.68z M1319.33,317.06c-4.82-1.22-3.9-9.98-3.56-11.7c2.76,1.74,4.22-0.98,4.22-0.98
	C1321.86,316.11,1319.33,317.06,1319.33,317.06z M1404.63,285.67c-7.64,2.34-17.33-4.83-17.33-4.83c1.88,0.15,8.79,0.5,8.79,0.5
	c-6.4-1.89-21.6-12.83-23.92-15.48c3.9-0.17,8.41,2.33,8.41,2.33C1408.07,279.76,1404.63,285.67,1404.63,285.67z M1421.56,288.88
	c0,0,3.16-0.45,2.61-1.31c-4.82-7.15-20.59-19.19-24.84-20.94l10.32,2.58c0,0,7.21,4.17,13.64,10.71
	c7.28,7.43,18.13,19.59,18.41,22.07C1438.85,300.57,1429.66,298.85,1421.56,288.88L1421.56,288.88z M1460.62,311.19
	c-9.49-1.99-43.86-39.86-50.71-44.67c8.69,4.26,11.45,0.37,11.45,0.37c9.22,5.77,40.65,43.84,40.65,43.84L1460.62,311.19
	L1460.62,311.19z M1428.78,276.28l-5.9-6.7l-3.29,1.7L1428.78,276.28z M1437.12,284.2l-2.94-2.92l-4.14-1.26
	C1433.78,285.46,1437.12,284.2,1437.12,284.2L1437.12,284.2z M1395.82,268.78l7.51,4.18l-9.62-3.37L1395.82,268.78L1395.82,268.78z
	 M1393.13,265.63c1.98,3.91-4.06,3.43-9.24,2.26c6.95,2.98,19.54,9.5,27.34,18.58c0,0,7.93,4.89,9.94,4.44
	C1421.17,290.91,1417.93,275.5,1393.13,265.63z M1279.1,315.46c-0.59,0.41-1.26,1.02-2.02,1.53c-1.45,1.62-2.19,3.66-2.19,3.66
	c-0.49-1.21-1.23-2.3-2.19-3.2c-0.68-0.44-1.27-1.02-1.72-1.7c-0.15,7.03,2.38,13.25,4.23,13.92
	C1279.13,326.22,1279.25,317.32,1279.1,315.46L1279.1,315.46z M1280.69,315.03c-0.31,1.4-0.31,8.73,2.66,11.08
	c0,0,2.49-0.51,2.65-10.04c0,0-0.76,0.44-1.74,0.53c-0.57,1.13-0.83,2.4-0.76,3.66l0.01,0.12l-0.01-0.12
	c-0.04-1.45-1.02-3.11-2.46-4.55L1280.69,315.03z M1368.14,264.25c0,0-0.42,0.42-1.29,0.73c-2.24,1.94,3.97,5.62,1.13,5.27
	c-2.94-0.39-6.4-5.51-8.25-6.61l-1.26,0.91c1.32,1.4,5.18,7.34,11.31,11.71c2.94,1.11,7.48,2.76,9.64,0.98c0,0-1.74,1.57-4.09,2.15
	c2.87,1.21,6.11,1.93,9.69,1.74l0.78-2.33C1385.82,278.79,1375.17,274.24,1368.14,264.25L1368.14,264.25z M1294.12,314.22
	c-1.39,1.26-4.33,1.81-4.8,1.5c-0.94,9.95,2.38,10.17,2.38,10.17c2.02-1.72,2.6-4.76,2.69-7.34c-0.6,0.32-2.16,1-2.96-0.37
	c0,0,1.95-0.73,2.7-3.21v-0.75L1294.12,314.22z M1300.55,310.02c-1.09,2.51-3.74,2.98-4.69,2.51c-0.76,10.63,2.98,13.11,2.98,13.11
	c1.98-1.31,2.39-4.96,2.31-8.45c-1.11,0.5-2.85,0.26-2.85,0.26c1.7-1.25,1.97-6.4,1.97-6.4L1300.55,310.02L1300.55,310.02z
	 M1308.35,307.86c-1.88,4.35-4.78,3.41-5.49,3.59c-0.78,9.68,4.38,10.48,4.38,10.48c1.36-1.07,1.67-4.44,1.61-7.64l-2.19,0.67
	c0,0-1.22,0.99,0.26-0.75c1.49-1.72,1.49-5.66,1.49-5.66L1308.35,307.86L1308.35,307.86z M1312.08,311.77
	c1.23-1.75-2.21-2.44-2.21-2.44s-2.21,5.9,3.79,9.99c0,0,0.8-3.55,0.1-10.08C1313.32,310.15,1312.76,311.01,1312.08,311.77
	L1312.08,311.77z M1327.52,294.84c0.68,2.56,1.5,5.94,1.4,7.37c0,0,1.54,3.46,5.14,2.82c0,0,1.86-2.78-4.26-11.71
	C1329.41,295.35,1327.97,294.99,1327.52,294.84z M1321.95,305.62c0.67,2.4,2.7,4.18,5.17,4.54c0,0,4.11-1.18-1.71-13.64
	C1325.46,297.97,1325.46,305.36,1321.95,305.62z M1350.88,276.79c0.05,0.06,0.1,0.08,0.14,0.12c4.46,4.08,0.73,5.18-1.47,2.21
	c-1.68-2.22-4.19-4.47-5.81-4.29c-0.44,0.38-0.78,0.85-0.99,1.39c1.85,3.7,5.45,9.71,12.48,9.2c0,0,5.14-0.55,0-6.65
	C1355.21,278.77,1353.28,277.92,1350.88,276.79L1350.88,276.79z M1357.68,267.39c-0.9,0.46-1.83,0.85-2.79,1.18
	c-0.35,1.35,3.87,3.81,2.76,4.63c-1.43,1.08-7.06-2.38-10.07-3.59c-1.17-0.04-2.33-0.19-3.47-0.45l0.13,0.32
	c2.75,2.13,12.03,10.23,23.05,9.41C1367.29,278.89,1368.75,275.23,1357.68,267.39z M1330.51,291.72l0.04,0.06
	c0,0,1.41,3.91,5.76,5.48c0,0,5.75-2.6-1.29-10.68C1334.29,287.26,1331.81,289.65,1330.51,291.72z M1335.37,284.73
	c2.03,2.21,6.43,6.38,11.45,6.13c0,0,1.17-4.59-4.82-12.83c-0.63,0.48-1.34,0.87-2.08,1.14c0,0.77,0.27,1.75,1.11,2.89
	c2.24,2.94,0.76,3.32-1.45,1.48c-1.79-1.47-3.29-1.27-3.84-0.44L1335.37,284.73L1335.37,284.73z M1410.05,243.35
	c8.21,6.88,25.51,21.88,26.53,27.52c-18.05-4.67-44.65-32.37-46.28-34.65l8.86,4.91c5.19,6.22,15.14,11.72,15.14,11.72
	c-1-1.98-7.85-10.17-7.85-10.17L1410.05,243.35L1410.05,243.35z M1325.67,272.24l1.95,0.99l-1.95-5.4l1.45-0.49
	c10.98,9.67,5.24,14.41,5.24,14.41C1326.79,279.61,1326.14,274.52,1325.67,272.24L1325.67,272.24z M1383.89,245.86
	c14.12,7.87,23.68,17.08,23.68,17.08l2.16,5.25C1400.31,268.57,1386.2,249.12,1383.89,245.86L1383.89,245.86z M1380.55,237.49
	l-0.32-1.97c17.73,7.22,34.5,25.08,40.96,30.07l-4.24,1.4c-3.77-0.5-5.87-2.29-5.87-2.29
	C1407.09,259.6,1383.49,239.47,1380.55,237.49L1380.55,237.49z M1268.54,298.11c3.27,5.31,6.7,4.59,6.7,4.59
	c-0.96,5.14,1.48,11.79,1.48,11.79C1265.18,309.58,1267.79,296.9,1268.54,298.11z M1278.15,300.99c0,4.37,3.74,8.43,3.74,8.43
	l-0.3,3.73C1275.04,309.43,1278.15,298.32,1278.15,300.99L1278.15,300.99z M1295.41,291.8l-1.66-0.3c-0.36,0.72-0.82,3.23-0.9,6.17
	c0.63-0.95,1.65-0.84,2.34-0.76c0.23,0.03,0.45,0.06,0.63,0.06v1.47c-0.27,0-0.54-0.02-0.81-0.06c-0.8-0.1-0.86-0.06-0.95,0.17
	l-1.2-0.6c-0.08,4.72,0.87,10.43,4.85,11.72l1.34-3.93C1299.02,305.75,1295.08,296.06,1295.41,291.8z M1290.7,292.97l-1.3-0.82
	c-0.55,0.75-1.21,2.85-1.53,5.45c0.64-0.31,1.34-0.47,2.06-0.48v2.2c-0.62,0.02-1.22,0.25-1.7,0.64l-0.54-0.54
	c-0.32,4.64,0.41,10.01,3.84,11.9l1.31-3.63C1292.85,307.7,1290.55,297.89,1290.7,292.97z M1285.26,292.59
	c0.08-1.98-1.8,1.27-2.62,6.02c0.7-0.19,1.43-0.18,2.12,0.03l-0.53,2.15c-0.6-0.15-0.98-0.1-1.13,0c-0.09,0.12-0.14,0.5,0,1.12
	l-0.8,0.19c-0.13,4.01,0.78,8.36,4.11,11.31l0.18-6.39C1286.6,307.02,1284.95,302.77,1285.26,292.59L1285.26,292.59z
	 M1312.46,303.64l-0.81,3.92l-3.47-0.64c-3.46-4.45-4.74-8.36-4.96-11.6c0.07-0.07,0.12-0.15,0.15-0.24
	c0.28-0.57,1.57-0.57,2.33-0.57c0.4-0.01,0.72-0.32,0.73-0.72c0.01-0.41-0.32-0.75-0.73-0.76c0,0,0,0,0,0c-0.72,0-1.68,0-2.51,0.32
	c0.14-2.38,0.8-4.32,1.4-5.63l0.98,0.17C1306.91,300.53,1312.46,303.64,1312.46,303.64L1312.46,303.64z M1308.16,302.64h0.98
	c0.5,0,0.5-0.49,0.5-0.99L1308.16,302.64z M1304.74,303.35l-0.98,3.75c-5.12-0.63-6.03-6.52-5.73-11.16c0.37,0.12,0.78,0,0.9-0.36
	c0.13-0.18,0.17-0.26,0.99-0.13c0.26,0.01,0.54,0.05,0.84,0.05c0.4,0.01,0.74-0.3,0.76-0.71c0,0,0-0.01,0-0.01
	c0.01-0.4-0.3-0.74-0.71-0.76c-0.02,0-0.03,0-0.05,0c-0.22,0-0.45-0.03-0.67-0.08c-0.55-0.05-1.3-0.14-1.9,0.32
	c0.11-1.34,0.44-2.65,0.96-3.88l2.64,0.5C1301.46,295.98,1303.44,302.37,1304.74,303.35L1304.74,303.35z M1300.75,303.64h1.49
	c0.48,0,0.48-0.51,0.48-1L1300.75,303.64z M1313.85,303.94c-2.58-2.87-4.39-6.36-5.23-10.13c0.05,0.04,0.1,0.09,0.18,0.13
	c0.4,0.19,0.82,0.04,0.99-0.31l0.6-1.2l0.67-1.35h0.13c2.06,4.98,5.95,10.73,5.95,10.73
	C1317.77,306.39,1313.85,303.94,1313.85,303.94L1313.85,303.94z M1308.48,292.96l0.6-1.21l0.87-1.75c0.13-0.24,0.38-0.39,0.66-0.4
	h0.04c-0.25-0.72-0.43-1.46-0.55-2.21l-2.13-1.14c-0.27,1.02-0.23,3.66,0.49,6.83L1308.48,292.96L1308.48,292.96z M1313.08,301.17
	c0.99,0.48,1.48-0.5,1.94-1.47L1313.08,301.17z M1312,289.01c-1.21-4.23-1.17-7.67-0.86-8.79l2.97,0.49
	c0.37,1.83,1.27,4.23,2.46,6.54c-1.9-0.39-3.15,0.6-4.17,1.44C1312.29,288.81,1312.13,288.9,1312,289.01L1312,289.01z
	 M1317.45,288.9c-0.24,0.43-0.73,0.65-1.21,0.53c-0.9-0.22-1.41,0.17-2.43,1c-0.06,0.03-0.13,0.09-0.22,0.14
	c0.35,0.64,0.58,1.41,0.58,2.22c-0.01,0.33-0.16,0.65-0.41,0.86c1.26,2.6,2.98,5.28,5.43,7.74c0,0,2.31,2.43,3.46-0.5l0.72-6.16
	C1321.3,294.24,1319.18,291.78,1317.45,288.9L1317.45,288.9z M1321.95,294.27c0.5,1.97,0,4.94-2.94,4.94L1321.95,294.27z
	 M1318.3,282.31c0.35-0.35,0.69-0.69,0.98-1.05c0.2-0.25,0.49-0.4,0.81-0.41c-0.65-1.18-1.08-2.46-1.3-3.79l-0.98-0.32
	c-0.62,0.62-1.02,3.52-0.58,6.68C1317.58,283.02,1317.95,282.64,1318.3,282.31L1318.3,282.31z M1325.86,287.73
	c0,0-0.6-0.48-1.47-1.31c-0.06,1.53-0.37,3.5-1.94,3.91l1.66-4.19c-1.11-1.11-2.12-2.33-3.01-3.63c-0.38,0.5-0.82,0.96-1.29,1.38
	c-1,1.02-1.41,1.49-1.23,2.24c0.09,0.4-0.04,0.82-0.35,1.09c1.22,3.05,3.52,5.59,7.64,5.67v-5.16L1325.86,287.73z M1329.1,280.6
	c-0.19,1.48-0.3,3.2-2.22,2.83l1.92-3.06c-1.65-1.29-3.5-2.94-3.93-4.51l-1.81,1.14l-3.12-1.47c0.33,2.29,2.3,7.88,5.77,9.99
	l4.73,0.17l1.14-3.43C1331.59,282.28,1330.48,281.59,1329.1,280.6z M1338.1,269.68c-6.23-2.65-9.99-8.38-11.62-10.82l-1.62,2.43
	c0.76,1.95,1.74,3.64,2.76,5.09c0-0.39,0.01-0.77,0.05-1.16c0.05-0.34,0.07-0.68,0.06-1.02c0-0.6,0.49-1.11,1.11-1.11
	c0.6,0,1.12,0.5,1.12,1.11c0,0.42-0.05,0.84-0.08,1.22c-0.08,1.02-0.18,1.81,0.37,2.62c0.3,0.45,0.22,1.04-0.18,1.4
	c3.11,3.28,6.08,4.78,6.08,4.78s3.27-0.32,3.45-1.29C1339.74,271.95,1338.1,269.68,1338.1,269.68L1338.1,269.68z M1380.1,254.66
	c-3.24-3.95-6.58-7.4-11.72-8.82c4.22,4.06,7.46,8.39,9.29,11.12C1381.36,258.03,1380.1,254.66,1380.1,254.66L1380.1,254.66z
	 M1383.29,258.06c-0.85,1.81-3.54,0.57-5.22-0.48c0.87,1.34,1.35,2.17,1.35,2.17c4.37,5.93,6.56,2.49,6.56,2.49
	C1385.2,260.77,1384.3,259.37,1383.29,258.06L1383.29,258.06z M1344.99,258.12c-0.89-1.23-1.86-2.4-2.89-3.51
	c-0.51,1.13-1.88,1.97-4.89,1.22c2.61-0.44,3.3-0.12,3.77-2.35c-2.01-1.94-3.69-3.15-4.76-4.65l-0.24,2.7l-2.91,0.28
	c1.09,2.37,0.91,2.57,2.96,5.32c4.78,6.5,19.17,8.32,19.17,8.32S1350.88,263.04,1344.99,258.12L1344.99,258.12z M1383.21,248.27
	c-1.93,1.98-3.95,1.29-3.95,1.29c2.16-0.71,2.21-1.43,2.21-2.82c-0.9-0.77-1.79-1.56-2.76-2.34c-1.61-0.9,0,4.17-5.17,1.47
	c1.88,3.01,15.07,16.9,25.53,20.02c0,0-2.13-3.37-6.75-8.51c-0.93,3.5-6.8-1-6.8-1c4.92,1.98,3.47-1.97,3.47-1.97L1383.21,248.27
	L1383.21,248.27z M1375.07,256.22c-1.45,2.29-6.58-1.62-6.58-1.62c4.95,1.97,3.48-1.97,3.48-1.97c-1.49-2.06-3.3-3.86-5.37-5.34
	c-1.98,2.26-4.17,1.53-4.17,1.53c2.13-0.71,2.24-1.44,2.24-2.78c-1.32-0.75-2.67-1.43-4.06-2.04c0.75,3.21-3.97,0-5.53,0
	c1.95,3.63,14.04,13.22,22.9,19.77C1377.42,261.12,1376.43,258.57,1375.07,256.22L1375.07,256.22z M1365.93,256.95
	c-1.43,2.31-6.56-1.59-6.56-1.59c3.79,1.52,3.79-0.48,3.61-1.47c-2.03-2.03-4.15-3.97-6.35-5.82c-1.43,3.3-3.66,1.36-3.66,1.36
	c2.42,0.3,1.84-1.93,1.27-3.28c-1.11-0.84-2.25-1.63-3.43-2.37c0.49,2.21-2.19,1.39-3.56,1c1.36,2.48,15.34,18.97,25.34,19.44
	C1370.83,262.36,1368.57,259.75,1365.93,256.95L1365.93,256.95z M1359.5,259.69c-1.65-1.64-3.28-3.29-4.9-4.95l-3.6,1.59
	c2.46-0.98,1.49-2.96,1.49-2.96l-0.13-0.98c-0.96-1-1.76-1.89-2.48-2.67c-0.35,0.77-1.84,2.8-6.27,1.2c1.95,0,3.97-0.96,4.42-3.39
	c-0.96-1.11-1.81-2.3-2.56-3.56l-1.11-1.07c0.63,2.58,0.76,3.7-0.26,5.17c-1.23,1.49-6.16,0.75-6.16,0.75
	c1.05,1.61,8.72,7.39,9.74,8.41c6.81,6.84,13.01,5.91,13.01,5.91L1359.5,259.69L1359.5,259.69z M1342.21,265.46
	c0,0-1.08-0.71-2.56-2.06v0.18c0.1,1.36,0.23,3.24-1.29,4.73c-0.35,0.36-0.92,0.36-1.27,0.01c0,0-0.01-0.01-0.01-0.01
	c-0.37-0.33-0.4-0.9-0.07-1.27c0.02-0.02,0.04-0.05,0.07-0.07c0.85-0.87,0.8-2.06,0.71-3.29l-0.03-0.95c0-0.33,0.18-0.6,0.44-0.78
	c-1.19-1.22-2.26-2.55-3.19-3.97c-0.04,0-0.1,0.05-0.14,0.05c-0.75,0.08-1.42,0.47-1.86,1.08c-0.66,0.93-0.82,2.37-0.53,3.95
	c0.09,0.38-0.14,0.76-0.52,0.85c-0.01,0-0.02,0.01-0.03,0.01c-0.4,0.1-0.76-0.17-0.87-0.57c-0.39-1.98-0.13-3.82,0.76-5.07
	c0.56-0.82,1.42-1.4,2.39-1.62c-1.05-1.78-1.88-3.69-2.46-5.68l-1.34,1.14c0,0,0.33,3.46-0.15,4.94c-0.5,1.47-1.81,1.47-2.48,1.3
	c0.82,1.97,5.27,10.98,13.78,11.48C1341.56,269.88,1343.37,268.24,1342.21,265.46z M1382.41,241.95c-1.9,0.55-7.88-1.71-7.88-1.71
	c-2.21-4.8-10.62-11.87-13.68-12.97C1376.2,232.63,1381.33,239.96,1382.41,241.95z M1365.51,240.39l-1.26,3.45l-3.97-2.7
	c-1.68-3.2-10.4-10.18-12.61-11.89l3.93-0.27C1358.45,232.69,1363.4,238.52,1365.51,240.39L1365.51,240.39z M1325.82,265.55
	c-8.37,0.98-13.05-2.47-14.53-5.41l1.48-1.99c4.17,2.97,9.37,1.5,9.37,1.5C1325.09,261.62,1325.82,265.55,1325.82,265.55z
	 M1308.02,264.35l1.61-0.76c7.38,6.63,12.12,2.25,12.12,2.25c4.19,3.91,3.45,7.35,3.45,7.35
	C1315.61,274.68,1309.24,266.82,1308.02,264.35z M1268.99,290.35l2.94-0.24c2.71,4.44,8.86,5.68,8.86,5.68l-0.48,4.15
	C1273.67,302.16,1268.5,292.59,1268.99,290.35z M1358.98,227.1l-0.8-0.06c1.57,1.18,6.38,4.96,7.58,7.74l-11.54-6.62
	c2.52,2.85,11.15,8.37,14.09,12.71l4.45,2.7l0.53-3.7C1373.27,239.87,1365.64,230.54,1358.98,227.1z M1282.69,289.9
	c-1.25,0-2.6-0.51-4.13-1.95l-0.24,0.99c-0.57-0.14-1.05-0.04-1.35,0.27c-0.28,0.3-0.39,0.78-0.26,1.34l-1.07,0.27
	c1.57,2.43,4.24,4.27,8.79,2.28L1282.69,289.9z M1275.38,287.65c0.55-0.53,1.26-0.87,2.02-0.95c-0.58-0.71-1.11-1.45-1.59-2.22
	l-2.2,1c0.15,0.6,0.44,1.95,1.03,3.38C1274.81,288.41,1275.06,288,1275.38,287.65z M1325.06,237.64c0.04,0.52,0.02,1.05-0.06,1.57
	c0.99,1.71,5.09,8.61,3.84,7.39c-1.85-1.85-5.82-3.16-5.82-3.16l0.31-0.81c-0.82,0.87-1.79,1.47-2.43,1.9
	c9.58,8.37,11.54,4.19,11.54,4.19C1332.69,242.81,1325.06,237.64,1325.06,237.64L1325.06,237.64z M1335.91,234.23
	c0,0-0.19,0.82-1.47,1.44c0.53,0.75,3.5,5.01,2.24,4.92c-1.16-0.06-5.17-3.1-6.72-4.29c-1.47-0.09-2.93-0.28-4.37-0.58
	c1.48,1.71,10.34,9.83,16.47,9.35C1342.06,245.06,1342.79,240.64,1335.91,234.23L1335.91,234.23z M1344.95,228.89
	c-1.92,3.06,6.03,7.49,3.11,6.99c-2.71-0.44-7.37-3.64-8.16-4.18c-0.7,0.15-1.42,0.26-2.13,0.32c10.07,12.39,15.27,9.36,18.2,8.38
	C1354.24,235.75,1345.21,229.08,1344.95,228.89L1344.95,228.89z M1290.91,282.55c-0.27,1.35-1.45,5.19-6.35,3.96
	c2.92-0.95,3.92-2.91,4.42-5.8c-2.36-1.69-5.1-2.75-7.98-3.09c0,0,1.26,2.96,1,4.69c0,0-1.74-0.24-3.19-2.47l-2.96,1.48
	c0.98,1.97,5.4,10.81,17.47,8.11C1293.32,289.42,1293.58,285.82,1290.91,282.55L1290.91,282.55z M1387.88,234.23
	c-2.14-1.77-4.57-3.15-7.19-4.08c0.66,0.99,3.32,5.09,1.35,3.14c-2.24-2.22-6.27-4.06-6.27-4.06l-1.5-0.75
	c-2.33-0.41-4.69-0.63-7.06-0.66c10.3,4.18,12.56,6.65,14.54,8.34l6.65,2.24L1387.88,234.23L1387.88,234.23z M1322.51,247.71
	l-1.68,0.5l3.2,4.1l-5.55-3.43l-0.14,0.04c0,0.45,0.21,1.44,0.1,2.62c1.68,1.77,6.85,3.77,5.09,4.2c-1.7,0.44-5.63-0.54-6.72-0.85
	c-0.64,0.59-1.37,1.06-2.16,1.41c0,0,7.64,3.45,13.27,1.97C1327.89,258.27,1332.1,253.11,1322.51,247.71L1322.51,247.71z
	 M1316.19,271.98c-0.41-0.06-0.93-0.19-1.53-0.31c-0.1,0.93-0.85,4.94-4.85,3.77c1.95-0.77,2.75-2.16,3.19-4.19
	c-2.62-0.76-5.76-2.08-6.9-4.9l-1.79,0.64c1.18,1.59,4.09,5.23,6.38,5.99l-6.88-2.1c2.34,3.68,6.92,8.63,13.6,6.27L1316.19,271.98
	L1316.19,271.98z M1308.08,276.9c-0.08,0.87-0.8,4.99-4.8,3.81c2.06-0.82,2.87-2.39,3.25-4.68c-2.89-1.74-5.38-4.08-7.29-6.86
	l-2.25,0.51l6.79,8.25c-2.44,0-7.38-5.41-7.38-5.41l-1.16-2.42l-0.17,0.03c0.73,3.2,2.46,12.55,14.04,14.5l0.23-7.13
	C1308.97,277.34,1308.56,277.13,1308.08,276.9L1308.08,276.9z M1293.35,275.47l-3.72-0.13c-0.23,5.43,5.41,13.52,12.78,14.53
	l0.5-5.9c-0.91-0.41-1.05-0.35-2.46-1.38c-1.17,3.72-3.54,2.24-3.54,2.24c2.31-1.16,2.19-2.64,2.03-3.2c-1.1-0.8-2.09-1.74-2.94-2.8
	c-0.04,0.01-0.04,0.08-0.1,0.09c-0.51,0.54-1.63,0.32-2.42-0.49C1292.64,277.6,1292.77,276.03,1293.35,275.47L1293.35,275.47z
	 M1285.24,265.58c0,0,0.27,0.58,0.36,1.35c0.77,1.29,2.6,3.93,4.81,4.68l-7.26-0.85c1.67,1.68,3.34,2.92,8.34,3.14l3.42-0.4
	C1294.9,273.48,1296.67,268.04,1285.24,265.58z M1322.93,222.25c-1.34,3.96,1.95,6.48,1.95,6.48c-3.31-1.4-6.45-3.19-9.35-5.32
	c0.54,2.42,5.72,5.27,8.83,7.64c0,0,5.89,2.47,11.06,1.72l1.72-1.23C1337.15,231.55,1328.38,228.12,1322.93,222.25z M1292.35,255.99
	c0,1.03-0.15,1.95-0.4,2.83c0.68,1.41,2.74,5.52,4.38,5.9c1.67,0.41-4.01-0.54-6.41-2.35c-0.3,0.3-0.63,0.58-0.95,0.86
	c7.01,7.71,15.7,1.68,15.7,1.68C1295.7,262.49,1292.35,255.99,1292.35,255.99L1292.35,255.99z M1307.14,251.9l6.22-1.7
	c-3.65-0.41-9.41-1.47-13.05-4.15c0,0,0,1.74-1.23,1.97c0.5,1.48,5.67,4.92,12.3,6.89c0,0,1.43-0.31,2.85-1.23L1307.14,251.9
	L1307.14,251.9z M1343.94,228.33l-6.38,1.47c-4.45-1.74-9.83-8.37-11.07-10.34l5.17,0.99
	C1334.37,223.4,1343.94,228.33,1343.94,228.33z M1337.71,227.27h1.48l-6.43-3.46L1337.71,227.27z M1310.58,234.68
	c1.12,1.13,3.47,3.43,3,3.91c-0.54,0.54-4.6-1.16-5.41-1.95c-0.63-0.6-0.89-1.38-0.78-1.97l-2.11,2.28
	c2.22,2.96,8.1,5.91,16.72,3.45l0.96-1.97C1322.97,238.43,1318.38,238.84,1310.58,234.68L1310.58,234.68z M1348.34,221.94
	c0.02,0.32-0.08,0.63-0.28,0.87c-0.57,0.55-1.66,0.33-2.48-0.49c-0.8-0.81-1.02-1.92-0.45-2.47c0-0.03,0.03-0.05,0.05-0.06
	c-1.69-0.8-3.49-1.34-5.35-1.61l2.82,3.65c-2.87,0-7.93-2.7-9.62-3.65l-0.76,0.1c1.98,2.46,9.09,9.37,18.94,7.13
	C1350.43,224.14,1349.46,222.96,1348.34,221.94L1348.34,221.94z M1323.58,232.23c0.22,0.57,0.19,1.12-0.17,1.45
	c-0.58,0.53-1.67,0.31-2.48-0.51c-0.8-0.81-1.03-1.88-0.5-2.43c-2.58-1.23-4.99-2.78-7.2-4.59c-0.39,2.98,3.78,5.57,3.78,5.57
	c-2.37,0-5.3-0.76-6.86-1.22c1.97,2.42,5.41,5.59,11.79,5.35l6.16-1.71C1328.1,234.11,1326.16,233.39,1323.58,232.23L1323.58,232.23
	z M1313.31,245.5c0,0,4.19-0.27,6.63-1.84c-1.67,0.33-8.14,1.04-15.29-5.49c0,0,0.04,0.87-0.3,1.98l4.8,4.35
	c-2.21-0.27-4.37-0.85-6.41-1.72c-0.53,0.45-1.13,0.8-1.77,1.05c1.95,1.22,7.12,4.17,15.75,3.68c0,0,0.63-0.32,1.38-0.86
	C1316.41,246.93,1314.69,246.51,1313.31,245.5L1313.31,245.5z M1304.87,257.68c0,0,3,0.28,5.14,1.23l1.56-1.74
	c-1.08-0.64-8.82-3.24-12.98-5.89c2.42,2.49,6.39,6.85,4.63,6.53c-2.28-0.45-4.55-1.77-8.63-4.17c1.67,3.56,7.48,8.14,12.39,8.59
	l1.57-1.72C1307.15,259.82,1305.9,258.86,1304.87,257.68L1304.87,257.68z M1271.48,313.51c0,0-6.22,1.45-10.54,0l-5.4-2.56
	c1.81-0.45,9.82,0.35,11.17-0.99C1266.71,309.98,1269.69,312.64,1271.48,313.51L1271.48,313.51z M1241.55,290.21
	c2.01-0.9,8.75-2.03,10.12-3.39c0,0,2.48,1.83-0.9,4.74C1250.76,291.56,1246.04,292.68,1241.55,290.21z M1248.03,294.1
	c2.03-1.81,11.02-3.83,15.98-3.61l1.99,2.02c0,0-7.64,5.63-13.04,6.29c-5.36,0.68,0.46-1.31,0.46-2.89
	C1253.43,294.32,1248.92,296.79,1248.03,294.1z M1261.98,298.94l2.02-1.8l1.8,2.03c0,0-3.15,2.26-2.71,4.49
	c0.46,2.25,2.26,3.38,2.26,3.38s-11.25,7.4-20.45-2.26C1248.26,304.79,1255.23,303.19,1261.98,298.94L1261.98,298.94z
	 M1243.88,307.48c1.57,0.9,5.23,3.28,7.28,3.51l4.67,1.4c0,0-9.08,3.46-12.46,2.56C1244.51,313.37,1248.95,315.08,1243.88,307.48z
	 M1244.06,326.1c0,0,4.92-4.69-2.51-5.9c0,0,9.4-1.39,10.93,0.75C1255.54,325.14,1244.06,326.1,1244.06,326.1z M1262.59,320.31
	c0,0-5.18,2.02-8.32,1.58c0,0,2.28-1.35,0.44-2.7c-1.79-1.35-7.19-1.58-8.32-1.81c3.16-0.9,11.69-4.78,22.46-0.09L1262.59,320.31
	L1262.59,320.31z M1273.83,255.66c0,0,20.58-56.92,54.82-56.92c0,0,6.52-1.27,11.57,2.93c0,0,1.67-1.47,4.4-0.62
	c2.74,0.84,14.72,4.62,17.86,10.49l1.68-1.26c0,0,7.78,2.11,10.52,7.78l1.9-0.85c0,0,14.06,7.16,26.44,18.91l-9.67-1.48
	c0,0-11.96-10.27-15.94-13.02c0,0,1.03,2.31,1.03,3.57c0,0-20.57-10.26-31.48-17.41c0,0,1.88,3.54,5.45,6.48l-2.94-0.63
	c0,0-8.38-6.71-21.83-3.97c0,0,0.09,2.24,2.19,3.92l-5.01-1.97c0,0-0.15-3.46-5.39-0.94c-5.27,2.52-10.5,6.94-16.79,15.77
	c0,0-3.6,2.1-5.69,1.47l0.23,1.68c0,0,2.71,0.42,1.26,1.67c-1.48,1.25-4.83,4.37-8,3.12c0.42,3.14,4.62,2.96,6.31,2.56l-2.74,3.34
	c-1.47,1.05-5.32-1.77-5.32-1.77l0.9,2.19c1.48,1.68,3.37,0.86,3.37,0.86l-1.04,2.51c-1.27,1.68-5.18,0.14-5.18,0.14
	c2.1,2.11,3.21,3.18,3.06,4.15c-0.32,2.06-4.82,0.54-4.82,0.54l-0.63,0.84c1.05,1.92,3.56,2.53,2.94,4.41
	c-0.62,1.9-4.62,0.84-4.62,0.84l-0.84,1.07c1.27,0.22,3.99,2.53,1.68,4.19c-2.3,1.68-5.04,0.64-5.04,0.64l-0.85,0.81l3.59,1.92
	l-0.64,2.1c-2.75,2.74-5.66,0.41-5.66,0.41l-1.05,1.27c0.4,1.48,4.22,1.05,4.22,1.05l-0.66,1.68c-2.51,1.67-4.62,0-4.62,0
	l-0.42,1.67c0.21,1.47,4.19,1.07,4.19,1.07l-0.62,1.25c-1.88,2.29-3.38,1.05-5.05,0.42c1.67,6.68-1.27,8.19-1.27,8.19
	c0,1.48-0.78,4.18-4.82,4.18c-3.97,0-4.42-5.01-3.78-6.68c0.63-1.67-0.15,6.23,4.23,3.6c3.39-2.02-6.95-5.9-1.5-8.84
	c0.21,1.47-0.01,5.36,3.37,3.99c0,0-4-5.46-0.84-8.2c0,0,0.51,3.65,2.96,2.11c0,0-4.63-7.79,0.84-9.24c0,0-0.84-4.83,2.69-5.25
	C1272.75,258.42,1273.83,257.57,1273.83,255.66L1273.83,255.66z M1344.04,204.11c2.94,0.41,14.21,6.26,14.21,6.26
	c-2.08-3.75-11.26-6.68-11.26-6.68L1344.04,204.11L1344.04,204.11z M1343.14,207.56c-4.32-6.77-11.33-5.9-14.78-6.43
	C1335.1,203.72,1343.14,207.56,1343.14,207.56z M1248.62,263.7c5.95-2.2,12.53,2.47,12.53,2.47c0.6-4.67-4.4-5.95-7.51-5.31
	L1248.62,263.7z M1243.93,283.09c6.27,0.6,9.72-6.58,9.72-6.58c-5.93,5.01-11.57-0.62-10.66-2.19
	C1242.39,275.24,1237.68,282.46,1243.93,283.09L1243.93,283.09z M1250.51,266.8c10.31-1.57,6.25,7.52,6.25,7.52
	c6.25-7.83,0.63-9.38-1.56-9.38C1252.7,264.93,1250.51,266.8,1250.51,266.8z M1262.65,269.68c-5.41,8.54-11.87,16.35-17.17,16.35
	c-2.51,0-3.3,0.18-4.8-1.45l-3.88-5.36c-0.55-4.64,8.68-9.42,8.68-9.42c-3.05-0.76-9.31,1.25-11.08,2.76
	c-0.26-3.84,1.68-6.84,3.3-7.52c1.07-2.31,10-2.46,10-2.46s-2.57-1.12-3.69-1.09l4.83-1.27c0,0,2.65-0.62,6.32-1.18
	C1259.78,259.5,1265.26,261.69,1262.65,269.68z M1251.26,237.44c0,0,2.85-5.63,5.69-1.49l2.2,1.34l-7.66,2.13l10.28,0.46l1.52,2.43
	l-3.05,0.87l5.9,1.75l1.53,2.42h-4.14l0.42,1.32l5.03,0.87c0,0-3.06,3.92-10.27,3.48l-6.35-1.31l8.79-2.97l-2.66-0.96
	c0,0-5.24-0.22-8.77,0.44c0,0,7.74-3.12,9.92-3.54l-6.18,0.01l3.93-3.28c0,0-5.21,0.62-12.47,10.39L1251.26,237.44L1251.26,237.44z"/></svg>