<svg version="1.1" id="Layer_1" xmlns="http://www.w3.org/2000/svg" xmlns:xlink="http://www.w3.org/1999/xlink" x="0px" y="0px" viewBox="0 0 2500 928" style="enable-background:new 0 0 2500 928;" xml:space="preserve"><style type="text/css">
	.st0{fill:none;stroke:#003562;stroke-width:5.054;}
	.st1{fill:none;stroke:#C79F2A;stroke-width:2.569;}
	.st2{fill:#BF1F2E;}
	.st3{fill:#C79F2A;}
	.st4{fill:url(#SVGID_1_);}
	.st5{stroke:#000000;stroke-width:0.349;}
	.st6{fill:url(#SVGID_2_);}
	.st7{fill:#B29960;}
	.st8{fill:none;stroke:#000000;stroke-width:0.349;stroke-linecap:round;stroke-linejoin:round;}
	.st9{fill:none;stroke:#000000;stroke-width:0.419;stroke-linecap:round;stroke-linejoin:round;}
	.st10{fill:#EEDE92;}
	.st11{fill:url(#SVGID_3_);}
	.st12{fill:url(#SVGID_4_);}
	.st13{fill:url(#SVGID_5_);}
	.st14{fill:url(#SVGID_6_);}
	.st15{fill:url(#SVGID_7_);}
	.st16{fill:url(#SVGID_8_);}
	.st17{fill-rule:evenodd;clip-rule:evenodd;fill:#C79F2A;}
	.st18{fill-rule:evenodd;clip-rule:evenodd;fill:url(#SVGID_9_);}
	.st19{fill-rule:evenodd;clip-rule:evenodd;fill:url(#SVGID_10_);}
	.st20{fill-rule:evenodd;clip-rule:evenodd;fill:#EEDE92;}
	.st21{fill-rule:evenodd;clip-rule:evenodd;fill:#76230B;stroke:#76230B;stroke-width:0.211;}
	.st22{fill-rule:evenodd;clip-rule:evenodd;fill:url(#SVGID_11_);}
	.st23{fill-rule:evenodd;clip-rule:evenodd;fill:url(#SVGID_12_);}
	.st24{fill:none;stroke:#000000;stroke-width:0.081;stroke-linecap:round;stroke-linejoin:round;}
	.st25{fill-rule:evenodd;clip-rule:evenodd;fill:url(#SVGID_13_);}
	.st26{fill:#76230B;}
	.st27{fill-rule:evenodd;clip-rule:evenodd;fill:url(#SVGID_14_);}
	.st28{fill:none;stroke:#000000;stroke-width:0.144;}
	.st29{stroke:#000000;stroke-width:0.26;stroke-linejoin:round;}
	.st30{fill:url(#SVGID_15_);}
	.st31{fill:url(#SVGID_16_);}
	.st32{fill:url(#SVGID_17_);}
	.st33{fill:url(#SVGID_18_);}
	.st34{fill:url(#SVGID_19_);}
	.st35{stroke:#000000;stroke-width:0.521;stroke-linejoin:round;}
	.st36{fill-rule:evenodd;clip-rule:evenodd;stroke:#000000;stroke-width:0.521;stroke-linejoin:round;}
	.st37{fill-rule:evenodd;clip-rule:evenodd;stroke:#000000;stroke-width:0.434;stroke-linejoin:round;}
	.st38{fill-rule:evenodd;clip-rule:evenodd;fill:url(#SVGID_20_);}
	.st39{fill:url(#SVGID_21_);}
	.st40{fill:#FFFFFF;}
	.st41{fill:#76230B;stroke:#76230B;stroke-width:1.204;}
	.st42{fill:#003562;stroke:#003562;stroke-width:1.376;}
	.st43{fill:#FFFFFF;stroke:#FFFFFF;stroke-width:0.111;}
	.st44{fill:#FFFFFF;stroke:#FFFFFF;stroke-width:0.538;}
	.st45{fill:#FFFFFF;stroke:#FFFFFF;stroke-width:0.522;}
</style><path class="st37" d="M1269.27,369.19c-0.51-0.86-1.5-1.03-2.48-0.84c-0.35,1.05-6.2,2.89-7.51,3.77c-0.08,0.17-0.12,0.4-0.15,0.6
	c-0.21-0.49-0.63-0.96-1.59-1.36c-1.25-1.7-2.12-6.13-2.76-8.28l-3.55-1.32c0.15,0.59,0.3,1.2,0.39,1.81
	c1.44,3.97,2.65,9.5-0.14,10.8c-3.16,0.93-13.43,0.23-14.73,2.19c0.01,0.53-1.34,1.67-0.69,1.83c1.31-0.55,8.32-1.27,9.49-1.45
	c1.61-1.02,2.65-0.06,4.13-0.27c-0.55,0.86-1.45,1.44-2.46,1.59c-1.14,0.03-1.45,2.13-2.79,1.09c-1.18-0.84-7.78,1.03-8.91,2.1
	c-2.31,0.4-5.72,5.8-5.36,7.52c1.12-3.15,5.46-1.43,7.11-2.69c2.43-2.98,6.25-2.73,9.37-4.33c1.99-0.75,3.75-2.69,5.73-3.09
	c-0.46,1.76-2.11,2.47-3.07,3.73c-3.48,0.41-6.05,3.96-9.04,5.58c-1.09,2.25-1.71,5.16-1.5,6.44c0.53,2.48,0.27,2.74,3.56-3.34
	c1.65-0.91,8.05-3.52,10.5-7.85c1.95-0.4,4.59-1.31,5.9-3.59c0.23-0.8,1.22-2.57,1.36-3.88c1.44,0.03,3.14-1.3,4.5-1.95
	c1.31-1.08,3.64-0.44,4.77-2.01C1269.63,371.07,1269.61,370.09,1269.27,369.19L1269.27,369.19z"/></svg>