<svg version="1.1" id="Layer_1" xmlns="http://www.w3.org/2000/svg" xmlns:xlink="http://www.w3.org/1999/xlink" x="0px" y="0px" viewBox="0 0 2500 928" style="enable-background:new 0 0 2500 928;" xml:space="preserve"><style type="text/css">
	.st0{fill:none;stroke:#003562;stroke-width:5.054;}
	.st1{fill:none;stroke:#C79F2A;stroke-width:2.569;}
	.st2{fill:#BF1F2E;}
	.st3{fill:#C79F2A;}
	.st4{fill:url(#SVGID_1_);}
	.st5{stroke:#000000;stroke-width:0.349;}
	.st6{fill:url(#SVGID_2_);}
	.st7{fill:#B29960;}
	.st8{fill:none;stroke:#000000;stroke-width:0.349;stroke-linecap:round;stroke-linejoin:round;}
	.st9{fill:none;stroke:#000000;stroke-width:0.419;stroke-linecap:round;stroke-linejoin:round;}
	.st10{fill:#EEDE92;}
	.st11{fill:url(#SVGID_3_);}
	.st12{fill:url(#SVGID_4_);}
	.st13{fill:url(#SVGID_5_);}
	.st14{fill:url(#SVGID_6_);}
	.st15{fill:url(#SVGID_7_);}
	.st16{fill:url(#SVGID_8_);}
	.st17{fill-rule:evenodd;clip-rule:evenodd;fill:#C79F2A;}
	.st18{fill-rule:evenodd;clip-rule:evenodd;fill:url(#SVGID_9_);}
	.st19{fill-rule:evenodd;clip-rule:evenodd;fill:url(#SVGID_10_);}
	.st20{fill-rule:evenodd;clip-rule:evenodd;fill:#EEDE92;}
	.st21{fill-rule:evenodd;clip-rule:evenodd;fill:#76230B;stroke:#76230B;stroke-width:0.211;}
	.st22{fill-rule:evenodd;clip-rule:evenodd;fill:url(#SVGID_11_);}
	.st23{fill-rule:evenodd;clip-rule:evenodd;fill:url(#SVGID_12_);}
	.st24{fill:none;stroke:#000000;stroke-width:0.081;stroke-linecap:round;stroke-linejoin:round;}
	.st25{fill-rule:evenodd;clip-rule:evenodd;fill:url(#SVGID_13_);}
	.st26{fill:#76230B;}
	.st27{fill-rule:evenodd;clip-rule:evenodd;fill:url(#SVGID_14_);}
	.st28{fill:none;stroke:#000000;stroke-width:0.144;}
	.st29{stroke:#000000;stroke-width:0.26;stroke-linejoin:round;}
	.st30{fill:url(#SVGID_15_);}
	.st31{fill:url(#SVGID_16_);}
	.st32{fill:url(#SVGID_17_);}
	.st33{fill:url(#SVGID_18_);}
	.st34{fill:url(#SVGID_19_);}
	.st35{stroke:#000000;stroke-width:0.521;stroke-linejoin:round;}
	.st36{fill-rule:evenodd;clip-rule:evenodd;stroke:#000000;stroke-width:0.521;stroke-linejoin:round;}
	.st37{fill-rule:evenodd;clip-rule:evenodd;stroke:#000000;stroke-width:0.434;stroke-linejoin:round;}
	.st38{fill-rule:evenodd;clip-rule:evenodd;fill:url(#SVGID_20_);}
	.st39{fill:url(#SVGID_21_);}
	.st40{fill:#FFFFFF;}
	.st41{fill:#76230B;stroke:#76230B;stroke-width:1.204;}
	.st42{fill:#003562;stroke:#003562;stroke-width:1.376;}
	.st43{fill:#FFFFFF;stroke:#FFFFFF;stroke-width:0.111;}
	.st44{fill:#FFFFFF;stroke:#FFFFFF;stroke-width:0.538;}
	.st45{fill:#FFFFFF;stroke:#FFFFFF;stroke-width:0.522;}
</style><path class="st6" d="M1194.5,223.94c3.92,3.95,5.54,7.69,6.05,9.1l-0.71,1.41c-1.39-2.82-13.13-13.82-15.22-14.76
	c9.83,1.18,18.29,8.32,18.29,8.32l-0.46,1.02C1201.28,227.2,1196.89,225.13,1194.5,223.94L1194.5,223.94z M1216.34,204.11
	c0.16,0.12,0.34,0.23,0.53,0.31l-20.25,54.03c-22.1-5.5-33.77-31.07-34.13-31.06c-7.97-9.05-18.37-19.82-28.08-27.77
	c-11.15-9.58-21.91-15.74-36.07-20.07c-10.03-4.69-38.89-6.98-43.54,1.13c-2.89,0.1-4.87-0.06-2.4-4.63c1-4.31,8.28-6.05,11.29-8.32
	c6.38-2.85,8.46-2.08,15.86-1.66c6.29-5.17,19.37-6.99,28.68-4.45c8.11-0.26,15.95,2.65,22.9,5.82l1.95,2.19
	c0,0-12.02-4.62-18.14-4.62c0,0,11.48,4.11,16.17,6.81c0,0,13.58,8.3,14.69,10.25l1.3-3.48c0,0-4.36-4.82-10.95-7.02l-3.07-1.83
	c0,0,12.29-0.78,17.74,4.89c0,0,7.46-0.86,23.63,10.52c0,0,8.12,0,14.67,6.56c0,0,11.16,0.44,22.78,12.03c0,0-0.22,3.73-2.2,4.82
	l1.71-2.97c-3.75-5-14.73-9.54-18.18-9.54c13.79,5.64,16.47,12.51,16.47,12.51s-6.13-5.69-11.8-6.99c0,0-3.07-0.22-6.36,0.44
	c0,0-5.8-12.19-18.32-12.19l6.89,3.75c0,0,2.93,3.61,4.01,5.14c0,0-0.89,1.31-1.76,1.09c0,0-11.83-8-22.77-13.79l0.96,4.44
	c-3.53-2.24-7.29-4.11-11.21-5.55l-3.33-0.62c0,0,12.6,4.59,22.9,15.31c0,0-4.7-0.22-5.82,0.86c0,0-7.87-10.73-26.25-17.07
	l0.45,1.76l0.28,0.14c2.93,6.53,9.76,11.88,9.76,11.88l7.47,5.26c0,0,1.92,9.42,1.71,12.28c0,0-12.02-14.24-18.37-19.27
	c0,0-12.24-11.83-24.5-13.78c0,0,15.52,8.45,18.97,11.87c0,0,19.1,16.13,28.1,30.13c0,0,12.68,27.81,35.03,32.85L1216.34,204.11
	L1216.34,204.11z M1153.01,177.97l7.24,5.46l5.05,0.22C1161.81,180.65,1157.55,178.68,1153.01,177.97z M1092.12,163.17
	c22.97,6.11,34.8,20.03,34.8,20.03l1.62,1.61c-1.62-5.78-10.17-11.78-12.96-13.67c-3.68-2.52,10.39,4.1,13.05,6.9l-0.98-2.71
	C1121.1,167.89,1096.72,163.17,1092.12,163.17L1092.12,163.17z M1084.05,164.81l11.88,0.63
	C1092.49,163.26,1086.84,163.26,1084.05,164.81z M1105.31,175.34l-4.82-6.43c-30.24-5.66-41.86,3.78-45.79,6.84
	C1075.44,165.96,1099.84,173.8,1105.31,175.34z M1109.39,176.08l4.38,1.56c0,0-0.64-4.08-8.46-6.86L1109.39,176.08L1109.39,176.08z
	 M1208.54,217.07c0,0-14.87-12.25-24.7-13.41c2.11,0.94,17.2,15.03,18.6,17.84h1.83c-1.43-3.64-3.57-6.96-6.31-9.76
	c2.8,1.26,7.8,5.03,9.37,7.83v0.04L1208.54,217.07L1208.54,217.07z M1172.71,200.06c3.51,0.22,8.42,1.75,8.42,1.75
	c-4.59-5.46-20.89-14.67-20.89-14.67l-0.67-1.09c0.95,1.59,2.2,4.42,3.48,6.09C1168.98,196.25,1172.71,200.06,1172.71,200.06z
	 M1209.33,209.86c-2.83-2.58-14.75-8.06-17.78-7.83c3.99,1.4,17.07,11.81,17.07,11.81L1209.33,209.86z M1139.03,186.09
	c2.79,3.23,7.15,8,9.62,10.44c2.66-0.18,8.59,1.48,8.59,1.48C1154.42,194.31,1143.36,188.34,1139.03,186.09z M1170.9,212.73
	l5.63,2.91c-0.55-0.78-2.92-3.93-8.32-8.27c3.74,1.25,11.57,6.25,15.34,10.94l2.34,0.98c0,0-3.05-4.91-9.62-10.07
	c-6.54-5.16-17.97-10.26-21.26-10.73C1156.17,201.76,1165.76,211.07,1170.9,212.73z M1197.67,237.27l0.78-1.81
	c-7.01-7.52-22.56-18.05-25.57-19.04c6.77,11.04,22.55,26.06,22.55,26.06l0.6-1.35c-1.49-1.53-7.44-7.69-9.35-13.13
	C1189.76,229.54,1193.95,231.37,1197.67,237.27L1197.67,237.27z M1188.81,219.06c0,0,7.73,0.69,10.79,3.28
	c0,0-15.3-17.66-30.53-21.66C1170.93,201.86,1185.53,213.67,1188.81,219.06z M1187.96,249.75l5.64-2.58l-1.63-0.95
	c-20.85-11.24-25.78-28.08-25.78-28.08c4.2,2.82,10.07,10.76,10.07,10.76l1.16-1.88c-4.67-6.57-17.32-20.85-20.35-24.36
	c0,2.56,3.11,12.57,7.82,17.48l-4.94-2.71C1174.69,243.19,1187.96,249.75,1187.96,249.75z"/></svg>