<svg version="1.1" id="Layer_1" xmlns="http://www.w3.org/2000/svg" xmlns:xlink="http://www.w3.org/1999/xlink" x="0px" y="0px" viewBox="0 0 2500 928" style="enable-background:new 0 0 2500 928;" xml:space="preserve"><style type="text/css">
	.st0{fill:none;stroke:#003562;stroke-width:5.054;}
	.st1{fill:none;stroke:#C79F2A;stroke-width:2.569;}
	.st2{fill:#BF1F2E;}
	.st3{fill:#C79F2A;}
	.st4{fill:url(#SVGID_1_);}
	.st5{stroke:#000000;stroke-width:0.349;}
	.st6{fill:url(#SVGID_2_);}
	.st7{fill:#B29960;}
	.st8{fill:none;stroke:#000000;stroke-width:0.349;stroke-linecap:round;stroke-linejoin:round;}
	.st9{fill:none;stroke:#000000;stroke-width:0.419;stroke-linecap:round;stroke-linejoin:round;}
	.st10{fill:#EEDE92;}
	.st11{fill:url(#SVGID_3_);}
	.st12{fill:url(#SVGID_4_);}
	.st13{fill:url(#SVGID_5_);}
	.st14{fill:url(#SVGID_6_);}
	.st15{fill:url(#SVGID_7_);}
	.st16{fill:url(#SVGID_8_);}
	.st17{fill-rule:evenodd;clip-rule:evenodd;fill:#C79F2A;}
	.st18{fill-rule:evenodd;clip-rule:evenodd;fill:url(#SVGID_9_);}
	.st19{fill-rule:evenodd;clip-rule:evenodd;fill:url(#SVGID_10_);}
	.st20{fill-rule:evenodd;clip-rule:evenodd;fill:#EEDE92;}
	.st21{fill-rule:evenodd;clip-rule:evenodd;fill:#76230B;stroke:#76230B;stroke-width:0.211;}
	.st22{fill-rule:evenodd;clip-rule:evenodd;fill:url(#SVGID_11_);}
	.st23{fill-rule:evenodd;clip-rule:evenodd;fill:url(#SVGID_12_);}
	.st24{fill:none;stroke:#000000;stroke-width:0.081;stroke-linecap:round;stroke-linejoin:round;}
	.st25{fill-rule:evenodd;clip-rule:evenodd;fill:url(#SVGID_13_);}
	.st26{fill:#76230B;}
	.st27{fill-rule:evenodd;clip-rule:evenodd;fill:url(#SVGID_14_);}
	.st28{fill:none;stroke:#000000;stroke-width:0.144;}
	.st29{stroke:#000000;stroke-width:0.26;stroke-linejoin:round;}
	.st30{fill:url(#SVGID_15_);}
	.st31{fill:url(#SVGID_16_);}
	.st32{fill:url(#SVGID_17_);}
	.st33{fill:url(#SVGID_18_);}
	.st34{fill:url(#SVGID_19_);}
	.st35{stroke:#000000;stroke-width:0.521;stroke-linejoin:round;}
	.st36{fill-rule:evenodd;clip-rule:evenodd;stroke:#000000;stroke-width:0.521;stroke-linejoin:round;}
	.st37{fill-rule:evenodd;clip-rule:evenodd;stroke:#000000;stroke-width:0.434;stroke-linejoin:round;}
	.st38{fill-rule:evenodd;clip-rule:evenodd;fill:url(#SVGID_20_);}
	.st39{fill:url(#SVGID_21_);}
	.st40{fill:#FFFFFF;}
	.st41{fill:#76230B;stroke:#76230B;stroke-width:1.204;}
	.st42{fill:#003562;stroke:#003562;stroke-width:1.376;}
	.st43{fill:#FFFFFF;stroke:#FFFFFF;stroke-width:0.111;}
	.st44{fill:#FFFFFF;stroke:#FFFFFF;stroke-width:0.538;}
	.st45{fill:#FFFFFF;stroke:#FFFFFF;stroke-width:0.522;}
</style><path class="st5" d="M1205.35,197.85c-4.87-3.02-10.88-4.45-17.06-5.35c-5.07-2.71-16.01-13.33-22.01-14.24
	c-5.44-3.48-6.02-4.6-12.87-5.18c-5.72-3.32-15.32-5.62-23.27-5.35c-7.1-3.27-15.13-6.34-23.46-6.09
	c-9.33-2.55-22.43-3.21-28.71,1.93c-7.43-0.41-9.47,1.32-15.86,4.18c-3.02,2.26-12.82,5.27-13.83,9.58
	c-2.44,4.56,2.04,5.95,4.95,5.87c4.63-8.11,33.49-7.07,43.53-2.38c14.18,4.35,24.93,9.23,36.06,18.79
	c9.72,7.94,20.12,18.72,28.09,27.77c0,0,12.02,25.54,34.14,31.06l20.22-54.03C1211.4,202.35,1209.24,199.76,1205.35,197.85
	L1205.35,197.85z"/></svg>