<svg version="1.1" id="Layer_1" xmlns="http://www.w3.org/2000/svg" xmlns:xlink="http://www.w3.org/1999/xlink" x="0px" y="0px" viewBox="0 0 2500 928" style="enable-background:new 0 0 2500 928;" xml:space="preserve"><style type="text/css">
	.st0{fill:none;stroke:#003562;stroke-width:5.054;}
	.st1{fill:none;stroke:#C79F2A;stroke-width:2.569;}
	.st2{fill:#BF1F2E;}
	.st3{fill:#C79F2A;}
	.st4{fill:url(#SVGID_1_);}
	.st5{stroke:#000000;stroke-width:0.349;}
	.st6{fill:url(#SVGID_2_);}
	.st7{fill:#B29960;}
	.st8{fill:none;stroke:#000000;stroke-width:0.349;stroke-linecap:round;stroke-linejoin:round;}
	.st9{fill:none;stroke:#000000;stroke-width:0.419;stroke-linecap:round;stroke-linejoin:round;}
	.st10{fill:#EEDE92;}
	.st11{fill:url(#SVGID_3_);}
	.st12{fill:url(#SVGID_4_);}
	.st13{fill:url(#SVGID_5_);}
	.st14{fill:url(#SVGID_6_);}
	.st15{fill:url(#SVGID_7_);}
	.st16{fill:url(#SVGID_8_);}
	.st17{fill-rule:evenodd;clip-rule:evenodd;fill:#C79F2A;}
	.st18{fill-rule:evenodd;clip-rule:evenodd;fill:url(#SVGID_9_);}
	.st19{fill-rule:evenodd;clip-rule:evenodd;fill:url(#SVGID_10_);}
	.st20{fill-rule:evenodd;clip-rule:evenodd;fill:#EEDE92;}
	.st21{fill-rule:evenodd;clip-rule:evenodd;fill:#76230B;stroke:#76230B;stroke-width:0.211;}
	.st22{fill-rule:evenodd;clip-rule:evenodd;fill:url(#SVGID_11_);}
	.st23{fill-rule:evenodd;clip-rule:evenodd;fill:url(#SVGID_12_);}
	.st24{fill:none;stroke:#000000;stroke-width:0.081;stroke-linecap:round;stroke-linejoin:round;}
	.st25{fill-rule:evenodd;clip-rule:evenodd;fill:url(#SVGID_13_);}
	.st26{fill:#76230B;}
	.st27{fill-rule:evenodd;clip-rule:evenodd;fill:url(#SVGID_14_);}
	.st28{fill:none;stroke:#000000;stroke-width:0.144;}
	.st29{stroke:#000000;stroke-width:0.26;stroke-linejoin:round;}
	.st30{fill:url(#SVGID_15_);}
	.st31{fill:url(#SVGID_16_);}
	.st32{fill:url(#SVGID_17_);}
	.st33{fill:url(#SVGID_18_);}
	.st34{fill:url(#SVGID_19_);}
	.st35{stroke:#000000;stroke-width:0.521;stroke-linejoin:round;}
	.st36{fill-rule:evenodd;clip-rule:evenodd;stroke:#000000;stroke-width:0.521;stroke-linejoin:round;}
	.st37{fill-rule:evenodd;clip-rule:evenodd;stroke:#000000;stroke-width:0.434;stroke-linejoin:round;}
	.st38{fill-rule:evenodd;clip-rule:evenodd;fill:url(#SVGID_20_);}
	.st39{fill:url(#SVGID_21_);}
	.st40{fill:#FFFFFF;}
	.st41{fill:#76230B;stroke:#76230B;stroke-width:1.204;}
	.st42{fill:#003562;stroke:#003562;stroke-width:1.376;}
	.st43{fill:#FFFFFF;stroke:#FFFFFF;stroke-width:0.111;}
	.st44{fill:#FFFFFF;stroke:#FFFFFF;stroke-width:0.538;}
	.st45{fill:#FFFFFF;stroke:#FFFFFF;stroke-width:0.522;}
</style><path class="st3" d="M1192.95,223.94c3.91,3.95,5.52,7.69,6.03,9.1l-0.68,1.41c-1.4-2.82-13.11-13.82-15.23-14.76
	c9.85,1.18,18.31,8.32,18.31,8.32l-0.46,1.02C1199.71,227.2,1195.3,225.13,1192.95,223.94z M1214.76,204.11
	c0.15,0.1,0.31,0.22,0.51,0.31l-20.22,54.03c-22.12-5.5-33.77-31.07-34.14-31.06c-7.97-9.05-18.37-19.82-28.09-27.77
	c-11.13-9.58-21.88-15.74-36.06-20.07c-10.04-4.69-38.9-6.98-43.53,1.13c-2.91,0.1-4.87-0.06-2.4-4.63
	c0.98-4.31,8.27-6.05,11.27-8.32c6.39-2.85,8.43-2.08,15.86-1.66c6.27-5.17,19.37-6.99,28.71-4.45c8.1-0.26,15.94,2.65,22.87,5.82
	l1.95,2.19c0,0-12.03-4.62-18.16-4.62c0,0,11.51,4.11,16.19,6.81c0,0,13.6,8.3,14.68,10.25l1.31-3.48c0,0-4.38-4.82-10.95-7.02
	l-3.07-1.83c0,0,12.26-0.78,17.74,4.89c0,0,7.46-0.86,23.62,10.52c0,0,8.11,0,14.69,6.56c0,0,11.15,0.44,22.77,12.03
	c0,0-0.21,3.73-2.2,4.82l1.7-2.97c-3.74-5-14.71-9.54-18.15-9.54c13.77,5.64,16.45,12.51,16.45,12.51s-6.13-5.69-11.8-6.99
	c0,0-3.09-0.22-6.36,0.44c0,0-5.78-12.19-18.32-12.19l6.88,3.75c0,0,2.91,3.61,4.01,5.14c0,0-0.89,1.31-1.75,1.09
	c0,0-11.83-8-22.77-13.79l0.96,4.44c-3.53-2.24-7.29-4.1-11.21-5.55l-3.34-0.62c0,0,12.59,4.59,22.87,15.31c0,0-4.69-0.22-5.78,0.86
	c0,0-7.88-10.73-26.28-17.07l0.45,1.76l0.3,0.14c2.93,6.53,9.78,11.88,9.78,11.88l7.44,5.26c0,0,1.92,9.42,1.71,12.28
	c0,0-12.01-14.24-18.34-19.27c0,0-12.24-11.83-24.53-13.78c0,0,15.53,8.45,18.99,11.87c0,0,19.13,16.13,28.1,30.13
	c0,0,12.68,27.81,35.01,32.85L1214.76,204.11L1214.76,204.11z M1151.44,177.97l7.24,5.46l5.03,0.22
	C1160.22,180.65,1155.98,178.68,1151.44,177.97z M1090.55,163.17c22.99,6.11,34.81,20.03,34.81,20.03l1.61,1.61
	c-1.61-5.78-10.18-11.78-12.95-13.67c-3.68-2.52,10.39,4.1,13.05,6.9l-0.98-2.71C1119.54,167.89,1095.14,163.17,1090.55,163.17
	L1090.55,163.17z M1082.45,164.81l11.9,0.63C1090.91,163.26,1085.27,163.26,1082.45,164.81z M1103.73,175.34l-4.8-6.43
	c-30.24-5.66-41.84,3.78-45.79,6.84C1073.87,165.96,1098.27,173.8,1103.73,175.34z M1107.81,176.08l4.4,1.56
	c0,0-0.64-4.08-8.48-6.86L1107.81,176.08z M1206.96,217.07c0,0-14.86-12.25-24.7-13.41c2.13,0.94,17.21,15.03,18.61,17.84h1.83
	c-1.45-3.64-3.6-6.95-6.32-9.76c2.83,1.26,7.83,5.03,9.38,7.83l-0.01,0.04L1206.96,217.07L1206.96,217.07z M1171.17,200.06
	c3.48,0.22,8.39,1.75,8.39,1.75c-4.6-5.46-20.89-14.67-20.89-14.67l-0.66-1.09c0.95,1.59,2.2,4.42,3.48,6.09
	C1167.42,196.25,1171.17,200.06,1171.17,200.06z M1207.74,209.86c-2.83-2.58-14.72-8.06-17.78-7.83
	c3.99,1.4,17.08,11.81,17.08,11.81L1207.74,209.86z M1137.48,186.09c2.79,3.23,7.12,8,9.59,10.44c2.67-0.18,8.59,1.48,8.59,1.48
	C1152.86,194.31,1141.8,188.34,1137.48,186.09z M1169.34,212.73l5.62,2.91c-0.55-0.78-2.92-3.93-8.33-8.27
	c3.75,1.25,11.6,6.25,15.34,10.94l2.37,0.98c0,0-3.07-4.91-9.63-10.07c-6.57-5.16-17.98-10.26-21.26-10.73
	C1154.6,201.76,1164.19,211.07,1169.34,212.73L1169.34,212.73z M1196.08,237.27l0.8-1.81c-7.02-7.52-22.55-18.05-25.58-19.04
	c6.77,11.04,22.56,26.06,22.56,26.06l0.59-1.35c-1.5-1.53-7.43-7.69-9.35-13.13C1188.18,229.54,1192.41,231.37,1196.08,237.27
	L1196.08,237.27z M1187.23,219.06c0,0,7.74,0.69,10.79,3.28c0,0-15.31-17.66-30.53-21.66
	C1169.37,201.86,1183.94,213.67,1187.23,219.06z M1186.38,249.75l5.64-2.58l-1.65-0.95c-20.84-11.24-25.76-28.08-25.76-28.08
	c4.2,2.82,10.07,10.76,10.07,10.76l1.16-1.88c-4.68-6.57-17.33-20.85-20.36-24.36c0,2.56,3.12,12.57,7.8,17.48l-4.94-2.71
	C1173.11,243.19,1186.38,249.75,1186.38,249.75z"/></svg>