<svg version="1.1" id="Layer_1" xmlns="http://www.w3.org/2000/svg" xmlns:xlink="http://www.w3.org/1999/xlink" x="0px" y="0px" viewBox="0 0 2500 928" style="enable-background:new 0 0 2500 928;" xml:space="preserve"><style type="text/css">
	.st0{fill:none;stroke:#003562;stroke-width:5.054;}
	.st1{fill:none;stroke:#C79F2A;stroke-width:2.569;}
	.st2{fill:#BF1F2E;}
	.st3{fill:#C79F2A;}
	.st4{fill:url(#SVGID_1_);}
	.st5{stroke:#000000;stroke-width:0.349;}
	.st6{fill:url(#SVGID_2_);}
	.st7{fill:#B29960;}
	.st8{fill:none;stroke:#000000;stroke-width:0.349;stroke-linecap:round;stroke-linejoin:round;}
	.st9{fill:none;stroke:#000000;stroke-width:0.419;stroke-linecap:round;stroke-linejoin:round;}
	.st10{fill:#EEDE92;}
	.st11{fill:url(#SVGID_3_);}
	.st12{fill:url(#SVGID_4_);}
	.st13{fill:url(#SVGID_5_);}
	.st14{fill:url(#SVGID_6_);}
	.st15{fill:url(#SVGID_7_);}
	.st16{fill:url(#SVGID_8_);}
	.st17{fill-rule:evenodd;clip-rule:evenodd;fill:#C79F2A;}
	.st18{fill-rule:evenodd;clip-rule:evenodd;fill:url(#SVGID_9_);}
	.st19{fill-rule:evenodd;clip-rule:evenodd;fill:url(#SVGID_10_);}
	.st20{fill-rule:evenodd;clip-rule:evenodd;fill:#EEDE92;}
	.st21{fill-rule:evenodd;clip-rule:evenodd;fill:#76230B;stroke:#76230B;stroke-width:0.211;}
	.st22{fill-rule:evenodd;clip-rule:evenodd;fill:url(#SVGID_11_);}
	.st23{fill-rule:evenodd;clip-rule:evenodd;fill:url(#SVGID_12_);}
	.st24{fill:none;stroke:#000000;stroke-width:0.081;stroke-linecap:round;stroke-linejoin:round;}
	.st25{fill-rule:evenodd;clip-rule:evenodd;fill:url(#SVGID_13_);}
	.st26{fill:#76230B;}
	.st27{fill-rule:evenodd;clip-rule:evenodd;fill:url(#SVGID_14_);}
	.st28{fill:none;stroke:#000000;stroke-width:0.144;}
	.st29{stroke:#000000;stroke-width:0.26;stroke-linejoin:round;}
	.st30{fill:url(#SVGID_15_);}
	.st31{fill:url(#SVGID_16_);}
	.st32{fill:url(#SVGID_17_);}
	.st33{fill:url(#SVGID_18_);}
	.st34{fill:url(#SVGID_19_);}
	.st35{stroke:#000000;stroke-width:0.521;stroke-linejoin:round;}
	.st36{fill-rule:evenodd;clip-rule:evenodd;stroke:#000000;stroke-width:0.521;stroke-linejoin:round;}
	.st37{fill-rule:evenodd;clip-rule:evenodd;stroke:#000000;stroke-width:0.434;stroke-linejoin:round;}
	.st38{fill-rule:evenodd;clip-rule:evenodd;fill:url(#SVGID_20_);}
	.st39{fill:url(#SVGID_21_);}
	.st40{fill:#FFFFFF;}
	.st41{fill:#76230B;stroke:#76230B;stroke-width:1.204;}
	.st42{fill:#003562;stroke:#003562;stroke-width:1.376;}
	.st43{fill:#FFFFFF;stroke:#FFFFFF;stroke-width:0.111;}
	.st44{fill:#FFFFFF;stroke:#FFFFFF;stroke-width:0.538;}
	.st45{fill:#FFFFFF;stroke:#FFFFFF;stroke-width:0.522;}
</style><g><path class="st44" d="M741.22,723.71c-0.33,6.66,2.94,10,10.48,10c12.39,0,37.31-16.08,76.75-47.14
		c20.75-16.07,27.47-26.05,33-26.05c2.75,0,4.05,1.12,4.01,2.22c-0.22,4.46-10.27,12.73-28.2,27.16
		c-43.12,34.9-72.18,52.1-86.63,52.1c-19.94,0-31.55-16.07-30.4-37.67c0.27-5.59,1.92-11.09,3.55-16.1
		c-40.38,36.01-72.94,53.76-92.92,53.76c-22.01,0-37.17-13.36-36.06-34.95c1.25-23.28,25.29-49.31,60.36-89.2
		c-42.32,32.69-96.31,89.69-103.19,89.69c-2.1,0-4.36-0.82-3.34-1.68c8.87-7.38,76.49-78.61,136.82-127.35l49.67-2.26l-79.99,95.37
		c-22.02,26.61-35.93,42.67-36.39,52.09c-0.26,5.5,4.31,10,10.53,10c34.35,0,104.82-57.73,182.07-155.2l46.23-2.26l-95.37,114.77
		C749.69,705.99,741.61,715.43,741.22,723.71z"/><path class="st44" d="M1159.24,465.39l44.81-1.65L1053.08,663.3c-23.56,30.51-36.33,50.43-36.82,60.41
		c-0.24,4.44,4.38,7.75,10.61,7.75c8.95,0,35.92-16.03,77.57-49.29c17.23-13.87,23.81-21.65,27.87-21.65c2.13,0,4.15,0.57,4.06,2.22
		c-0.23,3.92-11.79,14.4-33.28,31.06c-37.96,29.9-62.98,48.21-88.45,48.21c-18.58,0-27.69-9.99-26.83-27.72
		c0.32-5.58,2.03-12.19,4.55-21.04c-33.99,32.69-64.43,48.76-89.22,48.76c-24.05,0-38.85-20.54-36.99-56.51
		c0.49-8.97,2.56-17.78,6.12-26.03c-6.59,7.75-11.56,11.04-14.99,11.04c-2.75,0-4.1-0.55-4.05-2.21
		c0.14-2.79,11.74-13.86,33.96-31.02c48.74-37.68,101.73-63.8,134.07-63.8c22.68,0,35.91,10.53,35.16,25.52
		c-0.18,3.29-1.05,7.21-3.41,12.15L1159.24,465.39L1159.24,465.39z M909.18,732.02c14.46,0,38.48-11.65,65.81-34.9
		c41.72-35.48,69.34-77.12,70.47-98.13c0.46-9.42-8.78-17.23-21.83-17.23c-21.37,0-49.66,15.02-77.99,44.92
		c-29.88,32.14-51.23,71.54-52.08,88.18C893,725.36,898.84,732.02,909.18,732.02z"/><path class="st44" d="M1168.28,742.01c-21.98,0-37.11-13.36-36.02-34.95c1.18-23.28,31.87-57.62,66.94-97.02
		c-42.19,31.03-63.67,60.46-71.26,60.46c-2.07,0-3.37-1.11-3.3-2.21c0.17-3.32,5.95-8.84,16.72-18.31l23-19.41
		c12.98-11.07,37.68-34.92,60.57-52.08l47.6-2.26l-79.94,95.37c-22.07,26.61-35.94,42.67-36.41,52.09c-0.28,5.5,4.28,10,10.44,10
		c34.44,0,104.89-57.73,182.16-155.2l46.22-2.26l-89.46,106.98c-15.44,18.31-23.55,29.4-23.9,36.59c-0.53,9.38,5.46,13.9,16.47,13.9
		c35.1,0,98.76-33.3,122.91-88.7c14.04-32.68,11.33-72.07,40.17-72.07c12.46,0,18.31,6.11,17.7,18.28
		c-0.8,15.5-27.77,57.71-71.13,97.57c4.14,0.58,8.86,1.66,12.28,1.66c15.86,0,37.59-8.28,57.03-24.36l9.35-8.33
		c0.78-1.08,3.56-1.63,5.64-1.63c2.03,0,2.64,1.08,2.56,3.34c-0.08,1.63-0.13,2.19-0.85,2.76l-7.93,7.19
		c-22.34,19.39-46.13,28.83-71.68,28.83c-4.11,0-9.64,0-15.7-1.12c-41.51,29.93-78.01,44.31-105.53,44.31
		c-22.7,0-35.7-14.96-34.56-37.69c0.21-3.87,1.18-9.44,2.87-15.49C1220.83,724.26,1188.31,742.01,1168.28,742.01L1168.28,742.01z
		 M1860.6,473.27c11.02,0,18.2,6.61,17.73,16.03c-0.58,11.67-14.31,24.91-28.74,24.91c-11.04,0-18.96-6.62-18.5-16.01
		C1831.7,486.52,1846.18,473.27,1860.6,473.27L1860.6,473.27z M1674.37,669.96c-2.08,0-2.71-0.55-2.71-1.66
		c0.21-4.42,37.99-41.05,98.97-89.78l49.66-2.8l-80.03,95.91c-21.94,26.03-35.85,42.67-36.33,52.09
		c-0.35,5.5,4.95,10.52,11.07,10.52c18.68,0,44.24-16.6,83.01-48.23c20.16-16.6,28.17-25.47,32.99-25.47c2.79,0,4.01,1.12,4,2.78
		c-0.18,3.91-11.72,13.28-33.22,30.51c-38.72,30.45-64.41,48.21-86.48,48.21c-21.94,0-36.43-13.36-35.35-34.95
		c1.23-23.28,32.59-58.2,67.75-98.65C1704.75,641.07,1681.2,669.96,1674.37,669.96L1674.37,669.96z"/><path class="st44" d="M1825.54,670.51c-2.08,0-3.42-1.11-3.37-2.21c0.3-5.55,40.65-41.05,101.11-92.05
		c9.09-16.06,19.05-23.29,29.37-23.29c8.99,0,13.59,3.91,13.23,10.5c-0.26,6.13-5.32,10.59-15.14,13.91
		c-11.2,3.87-17.35,2.76-18.2,19.94c-1.13,21.6,3.37,53.79,2.21,75.4c-0.58,11.65-3.79,21.6-10.57,32.69
		c36.51-28.26,51.85-44.88,56.67-44.88c2.66,0,4.01,1.12,4,2.78c-0.18,3.37-10.25,12.17-28.19,26.61
		c-40.25,32.72-70.81,52.1-107.29,52.1c-28.19,0-46.18-11.65-45.34-28.83c0.5-9.42,11.25-17.74,22.27-17.74
		c8.24,0,14.21,4.99,13.91,10.55c-0.3,6.08-8.96,13.28-9.35,21.06c-0.18,3.32,3.16,6.07,10.04,6.07
		c23.32,0,79.04-51.58,82.83-125.26c0.35-6.65,0.03-13.87-0.32-21.07C1864.61,632.79,1833.75,670.51,1825.54,670.51L1825.54,670.51z
		 M2279.32,622.25c13.88-15.53,23.32-25.45,23.73-33.24c0.26-5-2.43-7.22-9.27-7.22c-16.52,0-42.23,18.33-83.24,52.13
		c-19.39,16.09-34.95,36.61-41.1,36.61c-2.06,0-3.39-1.11-3.37-2.21c0.18-3.32,6-8.84,16.78-18.31l23.08-19.41
		c36.59-30.45,68.34-57.64,91.04-57.64c16.55,0,26.34,10.54,25.61,23.85c-1.16,23.22-23.35,52.14-43.97,78.14
		c19.36-14.4,46.78-38.82,68.84-53.81c16.8-32.11,30.74-48.18,58.93-48.18c9.64,0,15.62,3.92,15.39,8.84
		c-0.6,10.52-21.07,21.1-52.27,39.35c-17.05,10-36.7,31.11-37.74,50.51c-0.42,8.84,6.16,14.95,16.44,14.95
		c28.22,0,47.5-26.59,53.68-26.59c2.03,0,4.06,1.11,4,2.76c-0.35,6.66-32.59,31.06-56.64,31.06c-18.63,0-28.58-7.8-27.87-21.64
		c0.4-6.09,11.67-24.45,17.75-36.07c-30.56,19.94-72.58,59.33-113.86,99.26l-48.34,3.84L2279.32,622.25z"/><g><path class="st45" d="M384.91,437.77c-68.8,77.03-129.71,155.24-179.22,209.38c-47.46,51.94-111.07,141.04-32.72,141.04
			c56.73,0,223.68-198.05,304.74-305.95c51.6-68.74,186.97-79.45,120.2,26.2c-46.15,73.04-107.59,68.19-123.18,65.29
			c-11.08-4.41-20.4-1.98-26.24-1.98c-12.95,0-21.26,3.72-22.1,9.72c-0.8,5.53,3.23,8.78,12.3,8.78c6.49,0,21.98-7.39,41.56-5.1
			c36.88,4.38,67.34,30.99,41.97,83.28C492.11,730.48,400.27,771.55,341,771.55c-99.33,0-17.07-115.58,37.37-117.18
			c3.48-0.1-4.24-4.22-6.89-4.22c-84,0-152.04,136.51-3.92,137.57c96,0.72,172.4-58.56,192.32-93.55
			c44.56-78.26-19.95-101.65-59.67-110.9c-4.65-1.13-3.15,0.9-7.24-0.5c19.75,6.65,106.69,2.43,147.54-62.22
			c63.62-100.68-97.39-138.79-172.11-43.37c-44.13,56.32-241.81,302.26-289.79,302.26c-56.33,0,27.18-75.33,71.5-126.11
			c52.09-59.68,117.51-134.08,186.79-215.53h-52L384.91,437.77z"/><path class="st45" d="M415.72,448.65C397.77,502,282.7,605.19,140.43,559.76c-149.01-47.53-7.2-216.77,365.63-50.88
			c13.81,6.12,32.1,4.69,19.58-0.95c-420.01-189.4-558.48,15.49-394.84,67.74c142.73,45.53,277.16-58.76,299.58-133.45
			L415.72,448.65L415.72,448.65z"/></g><path class="st44" d="M1481.44,669.96c-2.71,0-3.39-0.55-3.29-2.21c0.13-2.24,9.54-11.62,28.19-27.16
		c46.05-38.81,98.47-67.11,136.33-67.11c23.42,0,37.28,11.08,36.54,25.52c-1.48,28.82-59.38,70.41-149.7,87.01
		c-2.53,9.99-4.37,17.2-4.62,22.2c-0.78,16.62,9.04,25.52,26.29,25.52c26.14,0,53.03-14.98,86.7-40.46
		c27.19-21.08,36.7-32.73,41.57-32.73c2.71,0,4.04,1.12,3.97,2.78c-0.21,3.91-13.11,14.41-36.78,33.27
		c-37.99,29.37-68.37,45.44-99.37,45.44c-33.69,0-57.22-24.93-55.43-59.84c0.35-7.24,2.16-14.96,5.37-23.29
		C1489.95,666.09,1484.92,669.96,1481.44,669.96L1481.44,669.96z M1656.94,591.22c0.26-6.08-4.95-11.07-11.88-11.07
		c-23.37,0-82.58,39.9-111.69,97.01C1605.57,664.98,1655.81,613.38,1656.94,591.22z M1975.92,669.96c-2.76,0-3.37-0.55-3.34-2.21
		c0.15-2.24,9.54-11.62,28.27-27.16c46.02-38.81,98.45-67.11,136.27-67.11c23.45,0,37.26,11.08,36.56,25.52
		c-1.53,28.82-59.41,70.41-149.7,87.01c-2.61,9.99-4.37,17.2-4.59,22.2c-0.87,16.62,9.01,25.52,26.21,25.52
		c26.14,0,53.05-14.98,86.75-40.46c27.22-21.08,36.78-32.73,41.57-32.73c2.79,0,4.04,1.12,3.97,2.78
		c-0.21,3.91-13.11,14.41-36.83,33.27c-37.96,29.37-68.37,45.44-99.31,45.44c-33.75,0-57.25-24.93-55.43-59.84
		c0.32-7.24,2.11-14.96,5.27-23.29C1984.36,666.09,1979.38,669.96,1975.92,669.96L1975.92,669.96z M2151.37,591.22
		c0.3-6.08-4.92-11.07-11.8-11.07c-23.4,0-82.66,39.9-111.73,97.01C2100.05,664.98,2150.24,613.38,2151.37,591.22z"/></g></svg>