<svg version="1.1" id="Layer_1" xmlns="http://www.w3.org/2000/svg" xmlns:xlink="http://www.w3.org/1999/xlink" x="0px" y="0px" viewBox="0 0 2500 2500" style="enable-background:new 0 0 2500 2500;" xml:space="preserve"><style type="text/css">
	.st0{fill-rule:evenodd;clip-rule:evenodd;fill:#3261A5;}
	.st1{fill:#CC2131;}
	.st2{fill-rule:evenodd;clip-rule:evenodd;fill:#EEBD31;}
	.st3{fill-rule:evenodd;clip-rule:evenodd;fill:#CC2131;}
</style><path class="st2" d="M1782.28,1356.11L1782.28,1356.11c-4.66-5.07-12.84-6.23-24.14-3.11c-130,30.38-279.08,72.02-447.64,124.96
	c-181.01,56.85-327.76,109.39-439.87,157.63l-11.3,5.45c-2.71,1.95-5.06,4.28-6.23,7.81c-3.51,7.37-1.56,14.8,5.85,22.57
	c12.84,15.58,34.25,30.75,64.62,45.55c32.68,15.55,70.06,28.42,112.88,38.14c104.33,22.96,209.03,21.79,314.11-3.51
	c149.1-35.8,264.69-103.52,346.84-203.18c27.26-33.46,49.44-68.9,66.57-105.89c10.52-22.57,17.91-42.81,22.19-60.72
	C1788.5,1369.72,1787.35,1361.16,1782.28,1356.11z M1702.49,1455.38c-26.47,56.43-63.84,105.48-112.5,147.89
	c-43.59,38.16-93.42,68.12-149.07,89.91c54.86-31.13,101.98-70.45,140.92-118.32c33.05-40.08,58.77-83.67,77.05-131.16
	c3.13-9.34,7.78-15.95,14.8-19.86c5.82-3.11,11.67-3.89,17.91-1.95c6.24,1.95,10.52,5.85,12.46,11.67
	C1706.77,1439.8,1706.39,1447.19,1702.49,1455.38L1702.49,1455.38z"/></svg>