<svg version="1.1" id="Layer_1" xmlns="http://www.w3.org/2000/svg" xmlns:xlink="http://www.w3.org/1999/xlink" x="0px" y="0px" viewBox="0 0 2500 2500" style="enable-background:new 0 0 2500 2500;" xml:space="preserve"><style type="text/css">
	.st0{fill-rule:evenodd;clip-rule:evenodd;fill:#3261A5;}
	.st1{fill:#CC2131;}
	.st2{fill-rule:evenodd;clip-rule:evenodd;fill:#EEBD31;}
	.st3{fill-rule:evenodd;clip-rule:evenodd;fill:#CC2131;}
</style><path class="st1" d="M936.82,778.46c-7-4.28-16.74-4.67-28.03-1.17c-12.07,3.5-24.91,7.78-38.92,13.23v195.79
	c-0.79,29.19-9.73,45.55-27.64,50.22c-8.95,1.95-15.95,0.39-20.63-4.67c-4.28-4.67-6.61-12.44-6.61-22.57l-0.39-160.38
	c0-12.85-3.9-21.8-11.67-26.47c-7.39-4.67-16.73-4.67-28.42-1.17l-39.71,14.4v194.25c-0.36,32.7,9.74,56.43,30.36,70.45
	c21.04,14.8,48.65,17.13,82.53,7.02c33.09-9.74,57.22-24.53,72.79-43.22c18.69-22.58,28.03-54.11,28.4-94.99V804.53h0.01
	C948.88,791.69,945,783.13,936.82,778.46z"/></svg>