<svg version="1.1" id="Layer_1" xmlns="http://www.w3.org/2000/svg" xmlns:xlink="http://www.w3.org/1999/xlink" x="0px" y="0px" viewBox="0 0 2500 2500" style="enable-background:new 0 0 2500 2500;" xml:space="preserve"><style type="text/css">
	.st0{fill-rule:evenodd;clip-rule:evenodd;fill:#3261A5;}
	.st1{fill:#CC2131;}
	.st2{fill-rule:evenodd;clip-rule:evenodd;fill:#EEBD31;}
	.st3{fill-rule:evenodd;clip-rule:evenodd;fill:#CC2131;}
</style><path class="st2" d="M1626.97,502.46c-43.59-73.97-142.08-119.5-296.23-135.86c-64.24-7-133.12-3.89-207.08,9.34
	c-78.25,13.63-145.97,35.43-203.2,66.18C778,518.8,696.26,620.41,674.84,747.3c-3.11,11.67-2.35,19.87,1.54,24.91
	c4.29,5.06,11.3,5.84,21.02,2.71c190.34-63.84,337.88-109.76,442.2-137.79c164.65-43.2,322.7-78.23,474.51-104.3h0
	c9.35-1.18,14.77-5.07,17.12-10.52C1633.96,515.69,1632.41,509.08,1626.97,502.46z M853.51,545.27
	c-37.38,47.88-62.67,97.33-75.91,147.53c-0.77,5.85-2.72,10.52-6.61,13.24l0,0c-3.1,2.72-6.61,3.89-10.51,3.49
	c-4.28-0.4-7.79-1.95-10.51-5.06c-2.72-3.51-3.89-7.79-3.89-13.24c1.56-15.19,7.78-33.48,18.68-55.67
	c11.69-23.36,26.86-46.7,45.55-70.45c45.93-57.22,98.48-98.87,158.04-124.95C926.7,465.47,888.55,500.5,853.51,545.27z
	 M1477.9,517.29c-7.41,3.11-18.7,6.21-34.28,9.73l-45.93,10.89c13.62-4.28,25.3-11.3,33.86-21.02c9.35-9.34,14.01-20.23,13.63-31.92
	c0-9.34-5.47-19.47-15.58-29.97c-10.52-10.89-25.28-21.01-44.38-30.35c-43.59-22.2-98.09-35.06-163.48-39.71
	c33.09-2.72,67.35-1.17,102.38,3.88c32.7,5.07,63.05,12.45,91.85,22.97c27.64,10.88,49.83,22.58,65.78,35.42
	c16.74,13.63,25.3,26.86,24.93,39.7C1506.3,500.52,1496.97,510.65,1477.9,517.29z"/></svg>