<svg version="1.1" id="Layer_1" xmlns="http://www.w3.org/2000/svg" xmlns:xlink="http://www.w3.org/1999/xlink" x="0px" y="0px" viewBox="0 0 2500 2500" style="enable-background:new 0 0 2500 2500;" xml:space="preserve"><style type="text/css">
	.st0{fill-rule:evenodd;clip-rule:evenodd;fill:#3261A5;}
	.st1{fill:#CC2131;}
	.st2{fill-rule:evenodd;clip-rule:evenodd;fill:#EEBD31;}
	.st3{fill-rule:evenodd;clip-rule:evenodd;fill:#CC2131;}
</style><path class="st1" d="M1313.19,816.99c0,7.79,2.74,13.63,7.81,17.91c5.05,4.29,11.3,5.84,18.69,4.29l17.12-3.89l0.38,32.29
	c0,6.63-3.9,11.69-12.06,15.58c-7.81,3.89-17.12,5.84-27.26,5.45c-29.18-0.39-43.59-21.79-44.38-64.23
	c0.38-26.47,6.61-47.88,17.91-65c11.3-15.95,25.68-26.1,43.98-31.15c11.67-2.71,26.87-3.1,45.95-0.78
	c14.8,2.74,26.47,0.39,35.03-5.84c8.56-6.23,12.88-15.97,13.27-28.82c0.38-13.62-5.45-24.12-17.51-31.53
	c-13.24-7.39-31.94-10.52-56.85-10.12c-52.94,1.93-94.59,20.25-124.95,55.26c-28.03,32.31-42.03,73.19-42.03,123.02
	c0,47.09,14.01,82.14,41.63,105.11c25.69,21.41,59.17,28.42,99.24,21.02c34.28-6.63,61.13-18.68,80.58-36.2
	c14.41-12.46,21.43-29.19,21.43-49.83V757.82l-117.97,26.47V816.99z"/></svg>