<svg version="1.1" id="Layer_1" xmlns="http://www.w3.org/2000/svg" xmlns:xlink="http://www.w3.org/1999/xlink" x="0px" y="0px" viewBox="0 0 2500 2500" style="enable-background:new 0 0 2500 2500;" xml:space="preserve"><style type="text/css">
	.st0{fill-rule:evenodd;clip-rule:evenodd;fill:#3261A5;}
	.st1{fill:#CC2131;}
	.st2{fill-rule:evenodd;clip-rule:evenodd;fill:#EEBD31;}
	.st3{fill-rule:evenodd;clip-rule:evenodd;fill:#CC2131;}
</style><path class="st1" d="M1128.32,882.39c33.09-27.24,49.44-58.78,49.82-93.8c0-24.53-9.34-42.81-28.4-54.5
	c-19.47-12.06-44.38-14.79-74.34-7.79c-25.69,5.84-60.72,16.74-104.69,31.92v295.84h0l47.08-15.95
	c21.41-8.56,31.92-22.58,32.31-42.81l0.39-77.08l67.73,70.45c10.13,9.74,21.41,14.02,34.63,13.26c10.52-1.18,19.09-4.68,26.08-11.31
	c8.57-7.78,12.85-17.9,12.85-29.97c-0.39-11.67-4.28-21.4-12.07-29.19L1128.32,882.39z M1050.08,873.81v-82.12
	c30.36-11.3,45.94-4.67,46.33,19.86C1096.8,837.22,1081.22,857.86,1050.08,873.81z"/></svg>