<svg version="1.1" id="Layer_1" xmlns="http://www.w3.org/2000/svg" xmlns:xlink="http://www.w3.org/1999/xlink" x="0px" y="0px" viewBox="0 0 2500 2500" style="enable-background:new 0 0 2500 2500;" xml:space="preserve"><style type="text/css">
	.st0{fill-rule:evenodd;clip-rule:evenodd;fill:#3261A5;}
	.st1{fill:#CC2131;}
	.st2{fill-rule:evenodd;clip-rule:evenodd;fill:#EEBD31;}
	.st3{fill-rule:evenodd;clip-rule:evenodd;fill:#CC2131;}
</style><path class="st1" d="M712.21,1031.07c-9.48-10.45-22.27-17.32-36.21-19.45c27.64-22.2,41.26-48.27,41.26-78.62
	c0.01-24.14-9.71-41.27-28.39-51.78v0c-20.63-10.91-47.09-10.91-79.41,1.15c-16.34,5.85-48.65,18.69-97.3,38.53l0.38,315.31
	l116-49.44c31.92-13.24,55.67-28.03,71.23-43.99c19.47-20.25,28.79-43.98,28.4-72.01C727.79,1055.19,722.73,1041.97,712.21,1031.07z
	 M592.32,945.44c12.85-7.02,23.75-8.57,32.32-5.85c8.17,3.11,12.45,10.12,12.06,21.8c0,19.86-10.12,34.64-29.58,44.37h0l-14.8,6.23
	V945.44z M611.02,1129.16l-17.9,8.17v-76.69c15.16-7.77,27.63-9.33,36.98-4.66v0c8.95,4.67,13.62,12.84,13.62,25.29
	C644.51,1103.09,633.2,1119.04,611.02,1129.16z"/></svg>