<svg version="1.1" id="Layer_1" xmlns="http://www.w3.org/2000/svg" xmlns:xlink="http://www.w3.org/1999/xlink" x="0px" y="0px" viewBox="0 0 2500 2500" style="enable-background:new 0 0 2500 2500;" xml:space="preserve"><style type="text/css">
	.st0{fill-rule:evenodd;clip-rule:evenodd;fill:#3261A5;}
	.st1{fill:#CC2131;}
	.st2{fill-rule:evenodd;clip-rule:evenodd;fill:#EEBD31;}
	.st3{fill-rule:evenodd;clip-rule:evenodd;fill:#CC2131;}
</style><path class="st1" d="M1410.92,987.09L1410.92,987.09c-10.87,14.4-16.34,33.86-16.34,59.56l-0.38,130.01
	c-49.04-61.5-89.93-108.61-121.85-140.92c-17.52-17.12-40.1-20.62-68.52-10.49l-63.05,19.07v434.01l61.11-21
	c22.58-7.81,38.55-19.08,48.26-33.11c9.35-14.01,13.63-32.68,13.63-56.44l-0.79-149.85l131.19,151.42
	c19.45,19.83,43.59,25.68,72.77,17.12c13.08-3.73,24.57-11.66,32.7-22.57c9.35-11.67,14.01-25.3,14.38-40.88V947
	c-22.57,4.67-43.19,9.73-62.27,15.17C1433.9,967.23,1420.27,975.42,1410.92,987.09z"/></svg>