<svg version="1.1" id="Layer_1" xmlns="http://www.w3.org/2000/svg" xmlns:xlink="http://www.w3.org/1999/xlink" x="0px" y="0px" viewBox="0 0 2500 2500" style="enable-background:new 0 0 2500 2500;" xml:space="preserve"><style type="text/css">
	.st0{fill-rule:evenodd;clip-rule:evenodd;fill:#3261A5;}
	.st1{fill:#CC2131;}
	.st2{fill-rule:evenodd;clip-rule:evenodd;fill:#EEBD31;}
	.st3{fill-rule:evenodd;clip-rule:evenodd;fill:#CC2131;}
</style><path class="st1" d="M831.71,1372.84l96.92-152.98c8.95-14.79,11.3-29.97,7-45.15c-4.67-15.97-15.17-27.64-31.14-34.64
	c-16.74-7.78-33.47-8.56-49.04-2.72c-13.63,5.06-24.12,13.24-31.53,24.91l-111.72,189.97l-0.38-153l-131.19,54.51l-0.78,432.46
	l92.64-38.94c12.45-3.09,22.19-10.89,29.18-22.19c7.02-10.89,10.13-24.9,9.74-42.41v-137.43l103.54,110.17
	c12.84,12.84,28.01,20.62,45.54,22.57c20.25,2.74,38.92-3.11,56.06-16.74c15.56-12.84,23.73-29.18,24.53-49.04
	c0.39-18.29-4.29-33.09-14.79-44.76L831.71,1372.84z"/></svg>