<svg version="1.1" id="Layer_1" xmlns="http://www.w3.org/2000/svg" xmlns:xlink="http://www.w3.org/1999/xlink" x="0px" y="0px" viewBox="0 0 2500 2500" style="enable-background:new 0 0 2500 2500;" xml:space="preserve"><style type="text/css">
	.st0{fill-rule:evenodd;clip-rule:evenodd;fill:#3261A5;}
	.st1{fill:#CC2131;}
	.st2{fill-rule:evenodd;clip-rule:evenodd;fill:#EEBD31;}
	.st3{fill-rule:evenodd;clip-rule:evenodd;fill:#CC2131;}
</style><path class="st1" d="M1846.91,786.21l-51.37-57.6c31.92-21.41,48.26-48.27,48.26-80.58c0.36-24.12-8.57-42.41-26.48-56.42h0
	c-18.69-14.41-42.81-19.86-71.61-15.95l-104.32,17.51v283.38l43.19-8.17c22.19-5.07,33.46-18.29,33.86-40.48v-69.3l66.57,78.23
	c6.61,7.39,14.8,11.67,23.73,13.24c10.52,1.93,20.62,0,30.35-6.24c10.52-6.63,16.37-15.95,17.54-27.64
	C1857.8,804.51,1854.69,794.4,1846.91,786.21z M1718.44,714.61l-0.4-76.69c29.99-6.23,45.55,1.18,45.95,22.58
	C1763.99,685.02,1748.82,702.94,1718.44,714.61z"/></svg>