<svg version="1.1" id="Layer_1" xmlns="http://www.w3.org/2000/svg" xmlns:xlink="http://www.w3.org/1999/xlink" x="0px" y="0px" viewBox="0 0 2500 2500" style="enable-background:new 0 0 2500 2500;" xml:space="preserve"><style type="text/css">
	.st0{fill-rule:evenodd;clip-rule:evenodd;fill:#3261A5;}
	.st1{fill:#CC2131;}
	.st2{fill-rule:evenodd;clip-rule:evenodd;fill:#EEBD31;}
	.st3{fill-rule:evenodd;clip-rule:evenodd;fill:#CC2131;}
</style><path class="st1" d="M1728.99,1071.57v42.83c0.38,31.14,14.8,43.98,43.98,38.13l23.36-5.84l0.4,35.04c0.38,3.1-0.8,6.61-4.28,10.52
	c-6.61,8.56-19.86,14.4-39.34,18.29c-29.56,4.28-51.75-1.56-66.92-18.68c-14.41-15.97-21.82-41.27-22.19-75.13
	c0.79-33.85,9.73-61.89,27.24-83.69c15.98-19.84,36.6-33.09,62.67-38.92c22.97-5.45,44.76-7,65.41-4.28l38.14,7.39
	c14.8,2.35,26.85-1.17,37.37-9.35c8.96-7.77,15.17-18.29,17.91-31.13c2.64-12.44,1.26-25.4-3.94-37l0,0
	c-5.82-12.44-15.17-21.01-28.39-26.46c-20.65-7.79-43.24-12.85-68.9-14.41c-25.3-1.56-50.61,0-76.3,5.46
	c-49.04,9.73-91.09,30.74-125.74,63.05c-50.21,46.72-75.51,110.17-75.51,191.12c0,67.74,22.19,117.93,66.57,150.64
	c37.74,27.64,84.07,38.53,138.57,32.29c61.5-6.99,109.39-27.64,144.03-61.88c19.86-19.45,29.58-46.32,29.97-80.57
	c0.79-23.36,0.79-72.8,0-147.53L1728.99,1071.57z"/></svg>