<svg version="1.1" id="Layer_1" xmlns="http://www.w3.org/2000/svg" xmlns:xlink="http://www.w3.org/1999/xlink" x="0px" y="0px" viewBox="0 0 2500 2500" style="enable-background:new 0 0 2500 2500;" xml:space="preserve"><style type="text/css">
	.st0{fill-rule:evenodd;clip-rule:evenodd;fill:#3261A5;}
	.st1{fill:#CC2131;}
	.st2{fill-rule:evenodd;clip-rule:evenodd;fill:#EEBD31;}
	.st3{fill-rule:evenodd;clip-rule:evenodd;fill:#CC2131;}
</style><path class="st0" d="M1469.71,316.41c-84.59-27.59-173-41.64-261.98-41.65c-128.06,0-248.73,24.53-361.22,73.95
	c-106.26,46.32-199.29,111.72-279.87,195.8c-77.47,81.36-137.8,174.38-180.23,279.1c-42.81,104.7-63.85,212.13-63.85,322.7
	c0,119.11,22.19,232.78,66.96,341.75c43.59,106.26,104.7,200.1,184.51,281.83c78.71,81.66,172.94,146.77,277.15,191.51
	c109.37,47.5,224.6,70.85,346.06,70.85c211.36,0,395.86-63.84,553.51-192.29c61.9-50.23,116.4-108.62,163.9-174.38
	c40.1-55.68,71.61-112.12,94.59-168.56l-147.53-80.2c-62.29,140.14-148.7,251.08-259.24,332.43
	c-117.18,86.03-249.9,130.02-397.45,132.36c-109.39,1.57-212.54-15.55-309.07-51.78c-94.2-35.03-177.1-86.03-248.73-153.35
	l-85.25,36.57v-131.95c-47.5-63.84-83.29-133.9-108.21-211.37c-25.69-79.79-38.53-164.28-38.53-253.01
	c0-114.04,21.02-221.86,63.06-323.86c40.88-99.26,99.26-186.44,175.16-261.57c76.69-76.3,165.83-134.68,267.81-175.95
	c105.89-42.42,219.54-63.84,340.6-63.84C1326.85,291.5,1396.53,300.06,1469.71,316.41L1469.71,316.41z"/></svg>