<svg version="1.1" id="Layer_1" xmlns="http://www.w3.org/2000/svg" xmlns:xlink="http://www.w3.org/1999/xlink" x="0px" y="0px" viewBox="0 0 1919 2500" style="enable-background:new 0 0 1919 2500;" xml:space="preserve"><style type="text/css">
	.st0{fill-rule:evenodd;clip-rule:evenodd;fill:#59595B;}
	.st1{fill-rule:evenodd;clip-rule:evenodd;fill:#808183;}
	.st2{fill-rule:evenodd;clip-rule:evenodd;fill:#929496;}
	.st3{fill-rule:evenodd;clip-rule:evenodd;fill:#BBBCBF;}
	.st4{fill-rule:evenodd;clip-rule:evenodd;fill:#A6A8AA;}
	.st5{fill-rule:evenodd;clip-rule:evenodd;fill:#E6E6E7;}
	.st6{fill-rule:evenodd;clip-rule:evenodd;fill:#434244;}
	.st7{fill-rule:evenodd;clip-rule:evenodd;}
	.st8{fill-rule:evenodd;clip-rule:evenodd;fill:#D0D1D3;}
	.st9{fill-rule:evenodd;clip-rule:evenodd;fill:#D4A950;}
	.st10{fill-rule:evenodd;clip-rule:evenodd;fill:#3A529A;}
	.st11{fill-rule:evenodd;clip-rule:evenodd;fill:#C03B35;}
	.st12{fill-rule:evenodd;clip-rule:evenodd;fill:#6D6E70;}
</style><path class="st1" d="M735.31,15.37l29.25,24.42c-400.28,117.1-585.99,405.96-583.14,714.6c1.82,197.13,92.11,370.38,226.09,497.78
	c151.85,144.41,338.31,219.67,541.55,238.78h10.08v83.94l-4.95-0.19l-12.25-0.63l-12.21-0.84l-12.61-1.07l-12.57-1.26l-12.75-1.49
	l-12.75-1.69l-12.94-1.93l-13.12-2.13l-13.12-2.36l-13.27-2.58l-13.32-2.81l-13.3-3.02l-13.47-3.26l-13.48-3.48l-13.47-3.71
	l-13.71-3.92l-13.67-4.16l-13.64-4.41l-13.64-4.62l-13.67-4.87l-13.71-5.08l-13.84-5.34l-13.64-5.57l-13.67-5.8l-13.73-6.05
	l-13.64-6.28l-13.47-6.54l-17.85-8.92l-17.52-9.32l-17.47-9.7l-17.16-10.08l-17.12-10.45l-16.73-10.82l-16.62-11.18l-16.37-11.56
	l-16.06-11.89l-15.84-12.24l-15.5-12.59l-15.27-12.94l-14.97-13.25l-14.78-13.6l-14.37-13.93l-14.01-14.24l-13.71-14.56l-13.3-14.87
	l-13.11-15.16l-12.57-15.47l-12.17-15.76l-11.89-16.06l-11.48-16.33l-10.92-16.62l-10.55-16.89l-10.2-17.16l-9.66-17.42l-9.12-17.69
	l-8.76-17.93l-8.37-18.19l-7.69-18.43l-7.28-18.69l-2.73-7.27l-2.58-7.24l-2.49-7.24l-2.39-7.2l-2.39-7.17l-2.38-7.17l-2.13-7.18
	l-2.23-7.17l-2-7.17l-1.98-7.21l-2.03-7.21l-1.79-7.28l-1.86-7.28l-1.57-7.33l-1.69-7.38l-1.42-7.44l-1.5-7.47l-1.42-7.56
	l-1.32-7.61l-1.26-7.71l-1.06-7.77l-1.12-7.87l-0.92-7.97l-0.9-8.09l-0.77-8.17l-0.72-8.3l-0.72-8.42l-0.56-8.54l-0.34-8.67
	l-0.36-8.82l-0.4-8.96l-0.2-9.12l-0.16-17.76l0.16-17.47l0.6-17.19l0.9-16.92l1.09-16.63l1.66-16.37l1.79-16.1l2.2-15.83l2.53-15.56
	l2.78-15.3l3.11-15.06l3.26-14.8l3.64-14.56l3.99-14.31l4.16-14.05l4.45-13.83l4.68-13.58l4.94-13.35l5.08-13.12l5.31-12.91
	l5.67-12.68l5.78-12.47l6.03-12.25l6.2-12.05l6.37-11.81l6.58-11.62l6.7-11.42l6.93-11.25l7.11-11.03l7.16-10.85l7.44-10.66
	l7.46-10.48l4.92-6.71l4.89-6.61l5.12-6.53l5.07-6.44l5.12-6.34l5.12-6.25l5.08-6.15l5.28-6.08l5.27-5.97l5.31-5.9l5.28-5.81
	l5.42-5.72l5.31-5.64l5.51-5.57l5.4-5.47l5.51-5.4l5.48-5.31l5.44-5.24l5.65-5.15l5.47-5.08l5.51-4.99l5.61-4.94l5.67-4.84
	l5.67-4.78l5.6-4.69l5.5-4.64l5.67-4.55l5.67-4.49l5.6-4.44l5.84-4.35l5.67-4.29l5.67-4.22l15.61-11.38l15.86-10.86l15.86-10.33
	l15.69-9.85l15.7-9.36l15.49-8.89l15.44-8.42l15.53-7.99l15.11-7.54l15.14-7.13l14.74-6.73l14.61-6.33l14.37-5.95l14.04-5.58
	l13.88-5.24l13.31-4.89l13.1-4.57l12.75-4.25l12.38-3.96l12.04-3.68l11.49-3.39L735.31,15.37L735.31,15.37z"/></svg>