<svg version="1.1" id="Layer_1" xmlns="http://www.w3.org/2000/svg" xmlns:xlink="http://www.w3.org/1999/xlink" x="0px" y="0px" viewBox="0 0 1919 2500" style="enable-background:new 0 0 1919 2500;" xml:space="preserve"><style type="text/css">
	.st0{fill-rule:evenodd;clip-rule:evenodd;fill:#59595B;}
	.st1{fill-rule:evenodd;clip-rule:evenodd;fill:#808183;}
	.st2{fill-rule:evenodd;clip-rule:evenodd;fill:#929496;}
	.st3{fill-rule:evenodd;clip-rule:evenodd;fill:#BBBCBF;}
	.st4{fill-rule:evenodd;clip-rule:evenodd;fill:#A6A8AA;}
	.st5{fill-rule:evenodd;clip-rule:evenodd;fill:#E6E6E7;}
	.st6{fill-rule:evenodd;clip-rule:evenodd;fill:#434244;}
	.st7{fill-rule:evenodd;clip-rule:evenodd;}
	.st8{fill-rule:evenodd;clip-rule:evenodd;fill:#D0D1D3;}
	.st9{fill-rule:evenodd;clip-rule:evenodd;fill:#D4A950;}
	.st10{fill-rule:evenodd;clip-rule:evenodd;fill:#3A529A;}
	.st11{fill-rule:evenodd;clip-rule:evenodd;fill:#C03B35;}
	.st12{fill-rule:evenodd;clip-rule:evenodd;fill:#6D6E70;}
</style><path class="st8" d="M994.8,1278.59l7.6-2.18l8.07-2.32l8.57-2.43l9.07-2.58l9.5-2.72l9.93-2.82l10.32-2.93l10.65-3.08l10.96-3.15
	l11.25-3.26l11.51-3.33l11.71-3.45l11.89-3.51l12.05-3.61l12.17-3.66l12.25-3.74l12.29-3.79l12.32-3.85l12.31-3.89l12.27-3.95
	l12.18-3.99l12.09-4.02l11.94-4.04l11.76-4.08l11.56-4.09l11.32-4.12l11.06-4.11l10.78-4.14l10.43-4.14l10.09-4.12l9.7-4.14
	l9.29-4.12l4.94-2.28l4.81-2.32l4.67-2.3l4.51-2.35l4.37-2.33l4.22-2.36l4.04-2.35l3.89-2.38l3.72-2.36l3.56-2.38l3.41-2.39
	l3.23-2.4l3.08-2.42l2.91-2.46l2.73-2.48l2.5-2.48l3.06-3.25l2.88-3.22l2.79-3.29l2.68-3.35l2.56-3.41l2.46-3.48l2.36-3.56
	l2.26-3.65l2.13-3.68l2.05-3.79l1.93-3.88l1.82-3.94l1.72-4.04l1.62-4.12l1.5-4.18l1.43-4.29l1.35-4.39l1.25-4.47l1.15-4.57
	l1.07-4.69l1-4.78l0.94-4.89l0.84-5.02l0.8-5.14l0.74-5.3l0.67-5.41l0.63-5.57l0.59-5.72l0.52-5.87l0.49-6.05l0.44-6.18l0.4-6.37
	l18.71-311.29l102.03-173.39L960.31,430.3v857.95L994.8,1278.59L994.8,1278.59z M958.68,450.71l-579.51,64.95l88.65,150.62
	l18.98,316.11c4.06,67.64,13.73,100.91,42.42,130.64c9.69,10.05,29.07,22.2,54.46,33.72c93.36,42.41,268.48,89.92,346.05,112.32
	l28.95,8.1V450.71z"/></svg>