<svg version="1.1" id="Layer_1" xmlns="http://www.w3.org/2000/svg" xmlns:xlink="http://www.w3.org/1999/xlink" x="0px" y="0px" viewBox="0 0 1919 2500" style="enable-background:new 0 0 1919 2500;" xml:space="preserve"><style type="text/css">
	.st0{fill-rule:evenodd;clip-rule:evenodd;fill:#59595B;}
	.st1{fill-rule:evenodd;clip-rule:evenodd;fill:#808183;}
	.st2{fill-rule:evenodd;clip-rule:evenodd;fill:#929496;}
	.st3{fill-rule:evenodd;clip-rule:evenodd;fill:#BBBCBF;}
	.st4{fill-rule:evenodd;clip-rule:evenodd;fill:#A6A8AA;}
	.st5{fill-rule:evenodd;clip-rule:evenodd;fill:#E6E6E7;}
	.st6{fill-rule:evenodd;clip-rule:evenodd;fill:#434244;}
	.st7{fill-rule:evenodd;clip-rule:evenodd;}
	.st8{fill-rule:evenodd;clip-rule:evenodd;fill:#D0D1D3;}
	.st9{fill-rule:evenodd;clip-rule:evenodd;fill:#D4A950;}
	.st10{fill-rule:evenodd;clip-rule:evenodd;fill:#3A529A;}
	.st11{fill-rule:evenodd;clip-rule:evenodd;fill:#C03B35;}
	.st12{fill-rule:evenodd;clip-rule:evenodd;fill:#6D6E70;}
</style><path class="st7" d="M965.6,1582.1c16.85-3.51,144.79-37.15,263.15,24.85c-67.88-0.33-220.88-16.7-263-24.77L965.6,1582.1z
	 M1223.79,1526.23c14.7-7.61,119.61-64.15,247.94-39.36l-0.04,0.03c-30.58,7.89-77.99,17.36-123.43,25.83
	C1334.8,1515.24,1257.18,1523.78,1223.79,1526.23z M1688.85,1278.42c-101.04,23.31-141.47,45.63-207.04,105.29
	C1593.67,1346.81,1669.09,1299.86,1688.85,1278.42z M1835.24,971.17c-26.61,27.62-53.1,42.26-83.6,81.48
	c-17.79,22.91-36.98,55.23-58.34,100.58C1760.42,1089.68,1793.22,1056.5,1835.24,971.17z M1618.82,1244.47
	c-0.43-27.94-11.61-79.43,57.08-218.31c-1.02,23.07-6.17,63.49-20.04,113.98C1647.21,1171.62,1634.49,1205.05,1618.82,1244.47z
	 M1756.27,1000.41c-9.62-28.08-37.43-76.18-16.67-241.1c6.37,18.59,16.14,64.13,19.21,128.03
	C1760.39,920.57,1758.8,957.16,1756.27,1000.41z M1391.26,1438.88c9.76-26.96,21.24-102.69,133-194.31
	c-6.84,19.26-25.8,59.37-60.18,107.5C1444.77,1379.09,1420.35,1406.58,1391.26,1438.88L1391.26,1438.88z M1830.96,576.46
	c-30.58,67.65-33.82,143.16-28.57,232.14C1819.76,734.13,1834.14,649.09,1830.96,576.46z"/></svg>