<svg version="1.1" id="Layer_1" xmlns="http://www.w3.org/2000/svg" xmlns:xlink="http://www.w3.org/1999/xlink" x="0px" y="0px" viewBox="0 0 1919 2500" style="enable-background:new 0 0 1919 2500;" xml:space="preserve"><style type="text/css">
	.st0{fill-rule:evenodd;clip-rule:evenodd;fill:#59595B;}
	.st1{fill-rule:evenodd;clip-rule:evenodd;fill:#808183;}
	.st2{fill-rule:evenodd;clip-rule:evenodd;fill:#929496;}
	.st3{fill-rule:evenodd;clip-rule:evenodd;fill:#BBBCBF;}
	.st4{fill-rule:evenodd;clip-rule:evenodd;fill:#A6A8AA;}
	.st5{fill-rule:evenodd;clip-rule:evenodd;fill:#E6E6E7;}
	.st6{fill-rule:evenodd;clip-rule:evenodd;fill:#434244;}
	.st7{fill-rule:evenodd;clip-rule:evenodd;}
	.st8{fill-rule:evenodd;clip-rule:evenodd;fill:#D0D1D3;}
	.st9{fill-rule:evenodd;clip-rule:evenodd;fill:#D4A950;}
	.st10{fill-rule:evenodd;clip-rule:evenodd;fill:#3A529A;}
	.st11{fill-rule:evenodd;clip-rule:evenodd;fill:#C03B35;}
	.st12{fill-rule:evenodd;clip-rule:evenodd;fill:#6D6E70;}
</style><path class="st0" d="M959.85,1490.95h10.08c203.23-19.11,389.7-94.37,541.55-238.78c133.97-127.41,224.25-300.65,226.09-497.78
	c2.85-308.64-182.85-597.5-583.14-714.6l29.27-24.42l4.38,1.29l11.49,3.39l12.04,3.68l12.37,3.96l12.77,4.25l13.1,4.57l13.31,4.89
	l13.88,5.24l14.03,5.58l14.37,5.95l14.61,6.33l14.74,6.73l15.14,7.13l15.11,7.54l15.53,7.99l15.44,8.42l15.49,8.89l15.7,9.35
	l15.69,9.85l15.86,10.33l15.84,10.86l15.63,11.38l5.67,4.22l5.65,4.29l5.84,4.35l5.61,4.44l5.67,4.49l5.67,4.55l5.51,4.64l5.6,4.69
	l5.67,4.78l5.67,4.84l5.6,4.94l5.51,4.99l5.48,5.08l5.65,5.15l5.44,5.24l5.5,5.31l5.5,5.4l5.4,5.47l5.52,5.57l5.3,5.64l5.44,5.72
	l5.28,5.81l5.31,5.9l5.25,5.97l5.27,6.08l5.08,6.15l5.12,6.25l5.12,6.34l5.07,6.44l5.12,6.53l4.91,6.61l4.92,6.71l7.46,10.48
	l7.46,10.66l7.16,10.85l7.1,11.03l6.93,11.25l6.71,11.42l6.58,11.62l6.37,11.82l6.21,12.05l6.03,12.25l5.78,12.47l5.65,12.68
	l5.31,12.91l5.1,13.12l4.94,13.35l4.68,13.58l4.45,13.83l4.16,14.05l3.99,14.31l3.64,14.56l3.26,14.8l3.11,15.06l2.76,15.3
	l2.55,15.56l2.2,15.83l1.79,16.1l1.66,16.37l1.07,16.63l0.9,16.92l0.6,17.19l0.14,17.47l-0.14,17.76l-0.2,9.12l-0.4,8.96l-0.36,8.82
	l-0.34,8.67l-0.56,8.54l-0.72,8.42l-0.72,8.3l-0.74,8.17l-0.9,8.09l-0.92,7.97l-1.13,7.87l-1.04,7.77l-1.27,7.71l-1.32,7.61
	l-1.42,7.56l-1.5,7.47l-1.43,7.44l-1.67,7.38l-1.57,7.33l-1.86,7.28l-1.79,7.26l-2.03,7.21l-1.99,7.21l-2.02,7.17l-2.22,7.17
	l-2.13,7.18l-2.38,7.17l-2.39,7.17l-2.38,7.2l-2.49,7.21l-2.59,7.24l-2.72,7.27l-7.3,18.69l-7.69,18.43l-8.37,18.19l-8.76,17.93
	l-9.1,17.69l-9.66,17.42l-10.22,17.16l-10.53,16.89l-10.92,16.62l-11.49,16.33l-11.88,16.06l-12.17,15.76l-12.58,15.47l-13.11,15.16
	l-13.3,14.87l-13.73,14.56l-14.01,14.24l-14.37,13.93l-14.78,13.6l-14.97,13.25l-15.26,12.94l-15.5,12.59l-15.84,12.24l-16.04,11.89
	l-16.39,11.56l-16.6,11.18l-16.73,10.82l-17.12,10.45l-17.16,10.08l-17.49,9.7l-17.53,9.32l-17.83,8.92l-13.47,6.54l-13.62,6.28
	l-13.73,6.05l-13.67,5.8l-13.64,5.57l-13.84,5.34l-13.71,5.08l-13.67,4.87l-13.65,4.62l-13.62,4.41l-13.67,4.16l-13.71,3.92
	l-13.47,3.71l-13.48,3.48l-13.47,3.26l-13.28,3.02l-13.32,2.81l-13.28,2.58l-13.12,2.36l-13.12,2.13l-12.94,1.93l-12.75,1.69
	l-12.75,1.49l-12.64,1.35l-12.61,1.07l-12.21,0.84l-12.25,0.63l-4.95,0.19L959.85,1490.95L959.85,1490.95z"/></svg>