<svg version="1.1" id="Layer_1" xmlns="http://www.w3.org/2000/svg" xmlns:xlink="http://www.w3.org/1999/xlink" x="0px" y="0px" viewBox="0 0 1919 2500" style="enable-background:new 0 0 1919 2500;" xml:space="preserve"><style type="text/css">
	.st0{fill-rule:evenodd;clip-rule:evenodd;fill:#59595B;}
	.st1{fill-rule:evenodd;clip-rule:evenodd;fill:#808183;}
	.st2{fill-rule:evenodd;clip-rule:evenodd;fill:#929496;}
	.st3{fill-rule:evenodd;clip-rule:evenodd;fill:#BBBCBF;}
	.st4{fill-rule:evenodd;clip-rule:evenodd;fill:#A6A8AA;}
	.st5{fill-rule:evenodd;clip-rule:evenodd;fill:#E6E6E7;}
	.st6{fill-rule:evenodd;clip-rule:evenodd;fill:#434244;}
	.st7{fill-rule:evenodd;clip-rule:evenodd;}
	.st8{fill-rule:evenodd;clip-rule:evenodd;fill:#D0D1D3;}
	.st9{fill-rule:evenodd;clip-rule:evenodd;fill:#D4A950;}
	.st10{fill-rule:evenodd;clip-rule:evenodd;fill:#3A529A;}
	.st11{fill-rule:evenodd;clip-rule:evenodd;fill:#C03B35;}
	.st12{fill-rule:evenodd;clip-rule:evenodd;fill:#6D6E70;}
</style><path class="st9" d="M1389.74,1038.72l-1.25,7.18l-2.22,9.07l-2.73,8.36l-3.36,7.64l-4.06,7.03l-4.82,6.43l-5.7,5.9l-6.67,5.41
	l-7.73,4.98l-8.9,4.55l-10.16,4.15l-11.54,3.78l-16.06,4.72l-15,4.39l-14,4.09l-13.04,3.76l-12.18,3.49l-11.38,3.23l-10.65,2.99
	l-9.98,2.78l-9.4,2.58l-8.89,2.39l-8.46,2.22l-8.07,2.08l-7.8,1.96l-7.54,1.85l-7.41,1.76l-7.33,1.7l-7.33,1.66l-7.39,1.63
	l-7.56,1.62l-7.74,1.63l-8.03,1.67l-8.39,1.72l-8.82,1.79l-9.32,1.89l-9.89,1.99l-10.55,2.12l-11.25,2.28l-12.04,2.43l-12.9,2.63
	l-13.83,2.82l-14.83,3.06l-15.9,3.31l-26.56,5.55v-160.28H1389.74L1389.74,1038.72z M1396.49,852.94l-2.16,102H961.12v-102H1396.49z
	 M518.36,657.41l-0.01-0.49l-60.15-108.18h499.69v108.67L518.36,657.41L518.36,657.41z M522.43,849.69l-2.3-108.51h437.75v108.51
	H522.43z"/></svg>