<svg version="1.1" id="Layer_1" xmlns="http://www.w3.org/2000/svg" xmlns:xlink="http://www.w3.org/1999/xlink" x="0px" y="0px" viewBox="0 0 1919 2500" style="enable-background:new 0 0 1919 2500;" xml:space="preserve"><style type="text/css">
	.st0{fill-rule:evenodd;clip-rule:evenodd;fill:#59595B;}
	.st1{fill-rule:evenodd;clip-rule:evenodd;fill:#808183;}
	.st2{fill-rule:evenodd;clip-rule:evenodd;fill:#929496;}
	.st3{fill-rule:evenodd;clip-rule:evenodd;fill:#BBBCBF;}
	.st4{fill-rule:evenodd;clip-rule:evenodd;fill:#A6A8AA;}
	.st5{fill-rule:evenodd;clip-rule:evenodd;fill:#E6E6E7;}
	.st6{fill-rule:evenodd;clip-rule:evenodd;fill:#434244;}
	.st7{fill-rule:evenodd;clip-rule:evenodd;}
	.st8{fill-rule:evenodd;clip-rule:evenodd;fill:#D0D1D3;}
	.st9{fill-rule:evenodd;clip-rule:evenodd;fill:#D4A950;}
	.st10{fill-rule:evenodd;clip-rule:evenodd;fill:#3A529A;}
	.st11{fill-rule:evenodd;clip-rule:evenodd;fill:#C03B35;}
	.st12{fill-rule:evenodd;clip-rule:evenodd;fill:#6D6E70;}
</style><path class="st5" d="M226.1,1278.42c101.06,23.31,141.49,45.63,207.07,105.32C433.4,1383.97,297.32,1391.77,226.1,1278.42z
	 M225.72,1162.03c-14.2-6.6-119.95-45.15-146.14-190.98c26.65,27.71,53.18,42.33,83.71,81.61
	C182.21,1077.02,202.7,1112.03,225.72,1162.03L225.72,1162.03z M112.01,817.51c-8.13-12.88-73.42-100.83-28.05-241.1
	C115.57,646.33,118.01,724.64,112.01,817.51z M173.31,459.21c-0.89-13.54-22.31-99.41,80.5-200.47
	C246.41,340.8,215.31,388.03,173.31,459.21z M349.86,218.7c4.57-11.64,11.48-80.93,143.18-141.09
	C454.95,146.78,410.01,168.67,349.86,218.7L349.86,218.7z"/></svg>