<svg version="1.1" id="Layer_1" xmlns="http://www.w3.org/2000/svg" xmlns:xlink="http://www.w3.org/1999/xlink" x="0px" y="0px" viewBox="0 0 1919 2500" style="enable-background:new 0 0 1919 2500;" xml:space="preserve"><style type="text/css">
	.st0{fill-rule:evenodd;clip-rule:evenodd;fill:#59595B;}
	.st1{fill-rule:evenodd;clip-rule:evenodd;fill:#808183;}
	.st2{fill-rule:evenodd;clip-rule:evenodd;fill:#929496;}
	.st3{fill-rule:evenodd;clip-rule:evenodd;fill:#BBBCBF;}
	.st4{fill-rule:evenodd;clip-rule:evenodd;fill:#A6A8AA;}
	.st5{fill-rule:evenodd;clip-rule:evenodd;fill:#E6E6E7;}
	.st6{fill-rule:evenodd;clip-rule:evenodd;fill:#434244;}
	.st7{fill-rule:evenodd;clip-rule:evenodd;}
	.st8{fill-rule:evenodd;clip-rule:evenodd;fill:#D0D1D3;}
	.st9{fill-rule:evenodd;clip-rule:evenodd;fill:#D4A950;}
	.st10{fill-rule:evenodd;clip-rule:evenodd;fill:#3A529A;}
	.st11{fill-rule:evenodd;clip-rule:evenodd;fill:#C03B35;}
	.st12{fill-rule:evenodd;clip-rule:evenodd;fill:#6D6E70;}
</style><path class="st5" d="M503.24,114.65l0.06-0.04c62.83-28.11,106.54-48.85,210.96-63.16C683.77,67.6,575.04,111.79,503.24,114.65z
	 M1688.85,1278.42c-101.07,23.31-141.5,45.63-207.08,105.32C1481.54,1383.97,1617.61,1391.78,1688.85,1278.42z M1689.23,1162.03
	c14.2-6.6,119.95-45.15,146.14-190.98c-26.65,27.71-53.18,42.33-83.72,81.61C1732.73,1077.02,1712.25,1112.03,1689.23,1162.03
	L1689.23,1162.03z M1802.94,817.51c8.11-12.88,73.42-100.83,28.05-241.1C1799.38,646.33,1796.94,724.64,1802.94,817.51z
	 M1741.63,459.21c0.89-13.54,22.33-99.41-80.5-200.47C1668.54,340.8,1699.62,388.03,1741.63,459.21z M1565.09,218.7
	c-4.57-11.64-11.48-80.93-143.19-141.09C1460,146.78,1504.92,168.67,1565.09,218.7z"/></svg>