<svg version="1.1" id="Layer_1" xmlns="http://www.w3.org/2000/svg" xmlns:xlink="http://www.w3.org/1999/xlink" x="0px" y="0px" viewBox="0 0 1919 2500" style="enable-background:new 0 0 1919 2500;" xml:space="preserve"><style type="text/css">
	.st0{fill-rule:evenodd;clip-rule:evenodd;fill:#59595B;}
	.st1{fill-rule:evenodd;clip-rule:evenodd;fill:#808183;}
	.st2{fill-rule:evenodd;clip-rule:evenodd;fill:#929496;}
	.st3{fill-rule:evenodd;clip-rule:evenodd;fill:#BBBCBF;}
	.st4{fill-rule:evenodd;clip-rule:evenodd;fill:#A6A8AA;}
	.st5{fill-rule:evenodd;clip-rule:evenodd;fill:#E6E6E7;}
	.st6{fill-rule:evenodd;clip-rule:evenodd;fill:#434244;}
	.st7{fill-rule:evenodd;clip-rule:evenodd;}
	.st8{fill-rule:evenodd;clip-rule:evenodd;fill:#D0D1D3;}
	.st9{fill-rule:evenodd;clip-rule:evenodd;fill:#D4A950;}
	.st10{fill-rule:evenodd;clip-rule:evenodd;fill:#3A529A;}
	.st11{fill-rule:evenodd;clip-rule:evenodd;fill:#C03B35;}
	.st12{fill-rule:evenodd;clip-rule:evenodd;fill:#6D6E70;}
</style><path class="st3" d="M961.12,748.92v-48.03h220.48v48.03H961.12z M1181.6,849.69H961.12v-47.9h220.48V849.69z M1404.62,649.79
	l-3.98,7.13l-0.86,40.73h-214.95v-47.86H1404.62z M1184.83,548.74h275.96l-26.79,48.19h-249.17V548.74z M957.88,950.5v44.71H737.4
	V950.5H957.88z M737.4,852.94h220.48v44.68H737.4V852.94z M530.72,1046.76l-0.21-0.86l-1.72-9.85l-1.29-10.65l-0.94-11.45
	l-0.69-12.31l-0.11-3.19h208.4v48.3L530.72,1046.76L530.72,1046.76z M734.15,1151.58l-6.73-1.73l-8.46-2.22l-8.89-2.39l-9.4-2.58
	l-9.99-2.78l-10.65-2.99l-11.36-3.23l-12.18-3.49l-13.04-3.76l-14-4.09l-15-4.39l-16.06-4.72l-11.55-3.78l-10.16-4.15l-8.89-4.55
	l-1.69-1.09h168.04V1151.58L734.15,1151.58z"/></svg>