<svg version="1.1" id="Layer_1" xmlns="http://www.w3.org/2000/svg" xmlns:xlink="http://www.w3.org/1999/xlink" x="0px" y="0px" viewBox="0 0 1919 2500" style="enable-background:new 0 0 1919 2500;" xml:space="preserve"><style type="text/css">
	.st0{fill-rule:evenodd;clip-rule:evenodd;fill:#59595B;}
	.st1{fill-rule:evenodd;clip-rule:evenodd;fill:#808183;}
	.st2{fill-rule:evenodd;clip-rule:evenodd;fill:#929496;}
	.st3{fill-rule:evenodd;clip-rule:evenodd;fill:#BBBCBF;}
	.st4{fill-rule:evenodd;clip-rule:evenodd;fill:#A6A8AA;}
	.st5{fill-rule:evenodd;clip-rule:evenodd;fill:#E6E6E7;}
	.st6{fill-rule:evenodd;clip-rule:evenodd;fill:#434244;}
	.st7{fill-rule:evenodd;clip-rule:evenodd;}
	.st8{fill-rule:evenodd;clip-rule:evenodd;fill:#D0D1D3;}
	.st9{fill-rule:evenodd;clip-rule:evenodd;fill:#D4A950;}
	.st10{fill-rule:evenodd;clip-rule:evenodd;fill:#3A529A;}
	.st11{fill-rule:evenodd;clip-rule:evenodd;fill:#C03B35;}
	.st12{fill-rule:evenodd;clip-rule:evenodd;fill:#6D6E70;}
</style><path class="st5" d="M1411.71,114.65l-0.06-0.04c-62.83-28.11-106.55-48.85-210.96-63.16
	C1231.16,67.6,1339.91,111.79,1411.71,114.65L1411.71,114.65z M958.68,430.3l-612.85,68.68l102.04,173.39l18.68,311.29l0.42,6.37
	l0.44,6.18l0.49,6.05l0.53,5.88l0.59,5.71l0.62,5.57l0.67,5.41l0.74,5.3l0.8,5.14l0.84,5.02l0.94,4.89l1,4.79l1.09,4.69l1.14,4.55
	l1.25,4.47l1.33,4.39l1.43,4.31l1.52,4.18l1.62,4.11l1.72,4.04l1.82,3.94l1.93,3.88l2.05,3.79l2.13,3.68l2.26,3.66l2.36,3.55
	l2.46,3.48l2.56,3.42l2.69,3.33l2.76,3.29l2.91,3.22l3.05,3.25l2.5,2.48l2.73,2.48l2.92,2.46l3.06,2.42l3.23,2.4l3.41,2.39
	l3.56,2.38l3.72,2.36l3.89,2.38l4.04,2.35l4.22,2.36l4.37,2.33l4.52,2.35l4.65,2.32l4.81,2.3l4.95,2.28l9.27,4.12l9.7,4.14
	l10.1,4.12l10.42,4.14l10.78,4.14l11.05,4.11l11.34,4.12l11.56,4.09l11.76,4.08l11.94,4.04l12.08,4.02l12.18,3.99l12.27,3.95
	l12.31,3.89l12.32,3.85l12.29,3.79l12.25,3.74l12.17,3.66l12.05,3.61l11.89,3.51l11.71,3.45l11.51,3.33l11.25,3.26l10.96,3.15
	l10.66,3.08l10.3,2.93l9.93,2.82l9.52,2.72l9.06,2.58l8.59,2.43l8.07,2.32l7.6,2.18l34.48,9.66L958.68,430.3L958.68,430.3z"/></svg>