<svg version="1.1" id="Layer_1" xmlns="http://www.w3.org/2000/svg" xmlns:xlink="http://www.w3.org/1999/xlink" x="0px" y="0px" viewBox="0 0 1919 2500" style="enable-background:new 0 0 1919 2500;" xml:space="preserve"><style type="text/css">
	.st0{fill-rule:evenodd;clip-rule:evenodd;fill:#59595B;}
	.st1{fill-rule:evenodd;clip-rule:evenodd;fill:#808183;}
	.st2{fill-rule:evenodd;clip-rule:evenodd;fill:#929496;}
	.st3{fill-rule:evenodd;clip-rule:evenodd;fill:#BBBCBF;}
	.st4{fill-rule:evenodd;clip-rule:evenodd;fill:#A6A8AA;}
	.st5{fill-rule:evenodd;clip-rule:evenodd;fill:#E6E6E7;}
	.st6{fill-rule:evenodd;clip-rule:evenodd;fill:#434244;}
	.st7{fill-rule:evenodd;clip-rule:evenodd;}
	.st8{fill-rule:evenodd;clip-rule:evenodd;fill:#D0D1D3;}
	.st9{fill-rule:evenodd;clip-rule:evenodd;fill:#D4A950;}
	.st10{fill-rule:evenodd;clip-rule:evenodd;fill:#3A529A;}
	.st11{fill-rule:evenodd;clip-rule:evenodd;fill:#C03B35;}
	.st12{fill-rule:evenodd;clip-rule:evenodd;fill:#6D6E70;}
</style><path class="st3" d="M690.11,0l43.65,14.08l0.43,0.36c-79.04,22.68-194.04,64.62-306.13,147.54
	c-60.47,44.71-120.96,100.63-173.65,172.86c-80.71,110.97-139.56,252.72-135.76,444.03c1.86,98.14,18.45,169.48,47.42,247.41
	C240.62,1227.11,404.4,1387.6,595,1480.87c123.98,60.75,253.36,91.05,363.54,95.19h0.62v82.68h-10.13
	c-207.88-11.65-388.1-82.58-531.79-188.06c-214.65-157.53-346.89-393.32-360.58-632.4c-16.03-280.34,93.23-485.09,225.5-614
	C463.44,47.63,689.67-0.14,690.11,0z"/></svg>