<svg version="1.1" id="Layer_1" xmlns="http://www.w3.org/2000/svg" xmlns:xlink="http://www.w3.org/1999/xlink" x="0px" y="0px" viewBox="0 0 1919 2500" style="enable-background:new 0 0 1919 2500;" xml:space="preserve"><style type="text/css">
	.st0{fill-rule:evenodd;clip-rule:evenodd;fill:#59595B;}
	.st1{fill-rule:evenodd;clip-rule:evenodd;fill:#808183;}
	.st2{fill-rule:evenodd;clip-rule:evenodd;fill:#929496;}
	.st3{fill-rule:evenodd;clip-rule:evenodd;fill:#BBBCBF;}
	.st4{fill-rule:evenodd;clip-rule:evenodd;fill:#A6A8AA;}
	.st5{fill-rule:evenodd;clip-rule:evenodd;fill:#E6E6E7;}
	.st6{fill-rule:evenodd;clip-rule:evenodd;fill:#434244;}
	.st7{fill-rule:evenodd;clip-rule:evenodd;}
	.st8{fill-rule:evenodd;clip-rule:evenodd;fill:#D0D1D3;}
	.st9{fill-rule:evenodd;clip-rule:evenodd;fill:#D4A950;}
	.st10{fill-rule:evenodd;clip-rule:evenodd;fill:#3A529A;}
	.st11{fill-rule:evenodd;clip-rule:evenodd;fill:#C03B35;}
	.st12{fill-rule:evenodd;clip-rule:evenodd;fill:#6D6E70;}
</style><path class="st2" d="M959.85,1576.08h0.62c110.17-4.14,239.55-34.48,363.54-95.19c190.56-93.31,354.38-253.77,428.93-454.59
	c28.97-77.93,45.56-149.27,47.42-247.41c3.79-191.31-55.07-333.05-135.78-444.03c-52.68-72.23-113.16-128.15-173.65-172.86
	c-112.08-82.94-227.07-124.86-306.13-147.54l0.43-0.36L1228.87,0c0.44-0.14,226.69,47.63,407.96,224.28
	c132.29,128.92,241.54,333.65,225.5,614c-13.67,239.08-145.91,474.87-360.55,632.42c-143.71,105.48-323.91,176.39-531.79,188.06
	h-10.13v-82.68L959.85,1576.08L959.85,1576.08z"/></svg>