<svg version="1.1" id="Layer_1" xmlns="http://www.w3.org/2000/svg" xmlns:xlink="http://www.w3.org/1999/xlink" x="0px" y="0px" viewBox="0 0 1919 2500" style="enable-background:new 0 0 1919 2500;" xml:space="preserve"><style type="text/css">
	.st0{fill-rule:evenodd;clip-rule:evenodd;fill:#59595B;}
	.st1{fill-rule:evenodd;clip-rule:evenodd;fill:#808183;}
	.st2{fill-rule:evenodd;clip-rule:evenodd;fill:#929496;}
	.st3{fill-rule:evenodd;clip-rule:evenodd;fill:#BBBCBF;}
	.st4{fill-rule:evenodd;clip-rule:evenodd;fill:#A6A8AA;}
	.st5{fill-rule:evenodd;clip-rule:evenodd;fill:#E6E6E7;}
	.st6{fill-rule:evenodd;clip-rule:evenodd;fill:#434244;}
	.st7{fill-rule:evenodd;clip-rule:evenodd;}
	.st8{fill-rule:evenodd;clip-rule:evenodd;fill:#D0D1D3;}
	.st9{fill-rule:evenodd;clip-rule:evenodd;fill:#D4A950;}
	.st10{fill-rule:evenodd;clip-rule:evenodd;fill:#3A529A;}
	.st11{fill-rule:evenodd;clip-rule:evenodd;fill:#C03B35;}
	.st12{fill-rule:evenodd;clip-rule:evenodd;fill:#6D6E70;}
</style><path class="st3" d="M762.57,40.39l5.81,4.87C375.94,160.57,193.86,444.99,196.68,748.89c1.79,194.11,90.29,364.7,221.65,490.16
	c148.87,142.19,331.69,216.28,530.95,235.12h20.45c199.25-18.82,382.06-92.93,530.95-235.12
	c131.36-125.46,219.86-296.04,221.65-490.16c2.81-303.9-179.27-588.32-571.72-703.63l5.82-4.87c398.89,117.47,584,405.87,581.14,714
	c-1.83,197.13-92.11,370.38-226.09,497.78c-151.85,144.41-338.32,219.67-541.55,238.78h-20.87
	c-203.24-19.11-389.7-94.37-541.55-238.78c-133.97-127.41-224.25-300.65-226.07-497.78C178.59,446.26,363.69,157.86,762.57,40.39
	L762.57,40.39z"/></svg>