<svg version="1.1" id="Layer_1" xmlns="http://www.w3.org/2000/svg" xmlns:xlink="http://www.w3.org/1999/xlink" x="0px" y="0px" viewBox="0 0 1919 2500" style="enable-background:new 0 0 1919 2500;" xml:space="preserve"><style type="text/css">
	.st0{fill-rule:evenodd;clip-rule:evenodd;fill:#59595B;}
	.st1{fill-rule:evenodd;clip-rule:evenodd;fill:#808183;}
	.st2{fill-rule:evenodd;clip-rule:evenodd;fill:#929496;}
	.st3{fill-rule:evenodd;clip-rule:evenodd;fill:#BBBCBF;}
	.st4{fill-rule:evenodd;clip-rule:evenodd;fill:#A6A8AA;}
	.st5{fill-rule:evenodd;clip-rule:evenodd;fill:#E6E6E7;}
	.st6{fill-rule:evenodd;clip-rule:evenodd;fill:#434244;}
	.st7{fill-rule:evenodd;clip-rule:evenodd;}
	.st8{fill-rule:evenodd;clip-rule:evenodd;fill:#D0D1D3;}
	.st9{fill-rule:evenodd;clip-rule:evenodd;fill:#D4A950;}
	.st10{fill-rule:evenodd;clip-rule:evenodd;fill:#3A529A;}
	.st11{fill-rule:evenodd;clip-rule:evenodd;fill:#C03B35;}
	.st12{fill-rule:evenodd;clip-rule:evenodd;fill:#6D6E70;}
</style><path class="st12" d="M994.14,1276.24l7.59-2.18l8.07-2.32l8.57-2.43l9.07-2.58l9.52-2.7l9.93-2.82l10.3-2.95l10.65-3.06l10.96-3.16
	l11.25-3.23l11.49-3.36l11.71-3.43l11.89-3.51l12.05-3.61l12.15-3.66l12.24-3.74l12.29-3.79l12.31-3.84l12.29-3.91l12.27-3.94
	l12.17-3.98l12.07-4.02l11.92-4.04l11.75-4.08l11.55-4.08l11.31-4.11l11.05-4.11l10.75-4.12l10.4-4.12l10.06-4.12l9.67-4.12
	l9.25-4.11l4.92-2.26l4.78-2.3l4.61-2.29l4.49-2.32l4.32-2.32l4.19-2.35l3.99-2.32l3.85-2.35l3.68-2.35l3.51-2.33l3.38-2.36
	l3.16-2.36l3.02-2.38l2.85-2.4l2.66-2.42l2.43-2.4l3.01-3.19l2.85-3.18l2.75-3.23l2.62-3.29l2.52-3.35l2.43-3.42l2.32-3.51
	l2.22-3.58l2.1-3.62l1.99-3.72l1.89-3.81l1.8-3.88l1.69-3.96l1.6-4.06l1.47-4.12l1.42-4.22l1.32-4.35l1.23-4.41l1.15-4.51l1.06-4.64
	l0.99-4.74l0.93-4.85l0.84-4.98l0.8-5.11l0.73-5.27l0.69-5.38l0.62-5.52l0.57-5.7l0.52-5.84l0.49-6.03l0.44-6.18l0.42-6.35
	l18.73-311.86l100.38-170.57l-26.68,13.32l-89.68,152.38l-18.96,315.71l-0.42,6.27l-0.42,6.05l-0.49,5.87l-0.5,5.68l-0.56,5.52
	l-0.59,5.34l-0.66,5.17l-0.69,5.01l-0.77,4.85l-0.8,4.72l-0.87,4.57l-0.92,4.44l-1,4.29l-1.04,4.16l-1.13,4.05l-1.19,3.95
	l-1.27,3.81l-1.36,3.74l-1.42,3.65l-1.5,3.51l-1.59,3.45l-1.67,3.36l-1.76,3.28l-1.86,3.21l-1.96,3.15l-2.05,3.09l-2.13,3.02
	l-2.23,2.98l-2.35,2.92l-2.45,2.89l-2.56,2.86l-2.66,2.83l-1.98,1.95l-2.2,2l-2.4,2.05l-2.62,2.05l-2.83,2.1l-3.01,2.12l-3.22,2.13
	l-3.39,2.18l-3.58,2.16l-3.74,2.19l-3.95,2.2l-4.08,2.19l-4.26,2.19l-4.41,2.2l-4.55,2.18l-4.71,2.18l-9.03,4.02l-9.45,4.02
	l-9.89,4.04l-10.23,4.05l-10.59,4.06l-10.91,4.06l-11.18,4.06l-11.44,4.04l-11.65,4.04l-11.82,4.01l-11.99,3.99l-12.09,3.95
	l-12.18,3.94l-12.24,3.86l-12.25,3.82l-12.24,3.78l-12.19,3.72l-12.11,3.65l-12.01,3.59l-11.85,3.51l-11.69,3.42l-11.45,3.35
	l-11.22,3.25l-10.95,3.15l-10.63,3.05l-10.29,2.93l-9.92,2.82l-9.5,2.7l-9.07,2.59l-8.6,2.45l-8.09,2.3l-7.56,2.18l-30.21,8.46
	l-30.2-8.46l-7.57-2.18l-8.07-2.3l-8.6-2.45l-9.07-2.59l-9.5-2.7l-9.93-2.82l-10.29-2.93l-10.63-3.05l-10.93-3.15l-11.23-3.25
	l-11.45-3.35l-11.69-3.42l-11.85-3.51l-12.01-3.59l-12.09-3.65l-12.21-3.72l-12.22-3.78l-12.25-3.82l-12.24-3.86l-12.19-3.94
	l-12.09-3.95l-11.98-3.99l-11.82-4.01l-11.66-4.04l-11.42-4.04l-11.18-4.06l-10.92-4.06l-10.58-4.06l-10.25-4.05l-9.88-4.04
	l-9.45-4.02l-9.02-4.02l-4.71-2.16l-4.57-2.19l-4.41-2.2l-4.26-2.19l-4.08-2.19l-3.95-2.2l-3.74-2.19l-3.58-2.16l-3.39-2.18
	l-3.22-2.13l-3.01-2.12l-2.83-2.1l-2.6-2.05l-2.4-2.05l-2.22-2l-1.98-1.95l-2.66-2.83l-2.56-2.86l-2.45-2.89l-2.35-2.92l-2.23-2.98
	l-2.15-3.02l-2.03-3.08l-1.96-3.16l-1.86-3.21l-1.76-3.28l-1.67-3.36l-1.6-3.45l-1.5-3.52l-1.42-3.62l-1.35-3.74l-1.29-3.82
	l-1.19-3.95l-1.13-4.05l-1.04-4.15l-0.99-4.31l-0.93-4.44l-0.87-4.57l-0.8-4.72l-0.77-4.85l-0.69-4.99l-0.66-5.2l-0.59-5.32
	l-0.56-5.52l-0.52-5.68l-0.47-5.87l-0.43-6.05l-0.42-6.27l-18.95-315.71l-89.65-152.37l-26.69-13.34l100.38,170.57l18.72,311.86
	l0.42,6.35l0.43,6.18l0.49,6.03l0.53,5.85l0.59,5.68l0.6,5.52l0.69,5.38l0.73,5.27l0.8,5.11l0.84,4.98l0.93,4.85l0.99,4.75
	l1.07,4.64l1.13,4.49l1.23,4.41l1.32,4.35l1.42,4.24l1.49,4.12l1.59,4.05l1.69,3.96l1.8,3.88l1.89,3.81l2,3.72l2.1,3.62l2.22,3.59
	l2.32,3.51l2.43,3.41l2.52,3.35l2.63,3.29l2.73,3.23l2.85,3.18l3.01,3.19l2.42,2.4l2.68,2.42l2.85,2.4l3.01,2.38l3.19,2.36
	l3.35,2.36l3.52,2.33l3.68,2.35l3.85,2.35l3.99,2.32l4.19,2.35l4.32,2.32l4.49,2.32l4.61,2.29l4.78,2.3l4.94,2.26l9.23,4.11
	l9.66,4.12l10.08,4.12l10.4,4.12l10.75,4.12l11.03,4.11l11.31,4.11l11.55,4.08l11.75,4.08l11.92,4.04l12.06,4.02l12.17,3.98
	l12.27,3.94l12.29,3.91l12.32,3.84l12.28,3.79l12.24,3.74l12.17,3.66l12.04,3.61l11.89,3.51l11.71,3.43l11.51,3.36l11.23,3.23
	l10.96,3.16l10.65,3.06l10.32,2.95l9.92,2.82l9.52,2.71l9.07,2.58l8.57,2.43l8.07,2.32l7.6,2.18l34.63,9.7L994.14,1276.24
	L994.14,1276.24z"/></svg>