<svg version="1.1" id="Layer_1" xmlns="http://www.w3.org/2000/svg" xmlns:xlink="http://www.w3.org/1999/xlink" x="0px" y="0px" viewBox="0 0 1919 2500" style="enable-background:new 0 0 1919 2500;" xml:space="preserve"><style type="text/css">
	.st0{fill-rule:evenodd;clip-rule:evenodd;fill:#59595B;}
	.st1{fill-rule:evenodd;clip-rule:evenodd;fill:#808183;}
	.st2{fill-rule:evenodd;clip-rule:evenodd;fill:#929496;}
	.st3{fill-rule:evenodd;clip-rule:evenodd;fill:#BBBCBF;}
	.st4{fill-rule:evenodd;clip-rule:evenodd;fill:#A6A8AA;}
	.st5{fill-rule:evenodd;clip-rule:evenodd;fill:#E6E6E7;}
	.st6{fill-rule:evenodd;clip-rule:evenodd;fill:#434244;}
	.st7{fill-rule:evenodd;clip-rule:evenodd;}
	.st8{fill-rule:evenodd;clip-rule:evenodd;fill:#D0D1D3;}
	.st9{fill-rule:evenodd;clip-rule:evenodd;fill:#D4A950;}
	.st10{fill-rule:evenodd;clip-rule:evenodd;fill:#3A529A;}
	.st11{fill-rule:evenodd;clip-rule:evenodd;fill:#C03B35;}
	.st12{fill-rule:evenodd;clip-rule:evenodd;fill:#6D6E70;}
</style><path class="st7" d="M949.35,1582.1c-16.86-3.51-144.79-37.15-263.15,24.85c67.88-0.33,220.88-16.7,262.98-24.77
	C949.23,1582.16,949.29,1582.13,949.35,1582.1z M691.16,1526.23c-14.7-7.61-119.61-64.15-247.94-39.36l0.04,0.03
	c30.57,7.89,77.99,17.36,123.43,25.83C580.15,1515.24,657.77,1523.78,691.16,1526.23z M226.1,1278.42
	c101.04,23.31,141.47,45.63,207.02,105.29C321.27,1346.81,245.84,1299.86,226.1,1278.42z M79.69,971.17
	c26.62,27.62,53.1,42.26,83.58,81.48c17.8,22.91,37,55.23,58.35,100.58C154.53,1089.68,121.73,1056.5,79.69,971.17z M296.12,1244.47
	c0.44-27.94,11.61-79.43-57.09-218.31c1.03,23.07,6.18,63.49,20.04,113.98C267.74,1171.62,280.45,1205.05,296.12,1244.47z
	 M158.67,1000.41c9.62-28.08,37.44-76.18,16.67-241.1c-6.37,18.59-16.14,64.13-19.19,128.03
	C154.56,920.57,156.15,957.16,158.67,1000.41z M523.69,1438.88c-9.78-26.96-21.25-102.69-133-194.31
	c6.84,19.26,25.79,59.37,60.18,107.5C470.18,1379.09,494.58,1406.58,523.69,1438.88C523.68,1438.88,523.68,1438.88,523.69,1438.88
	L523.69,1438.88z M83.97,576.46c30.58,67.65,33.83,143.16,28.58,232.14C95.18,734.13,80.8,649.09,83.97,576.46z"/></svg>