<svg version="1.1" id="Layer_1" xmlns="http://www.w3.org/2000/svg" xmlns:xlink="http://www.w3.org/1999/xlink" x="0px" y="0px" viewBox="0 0 1919 2500" style="enable-background:new 0 0 1919 2500;" xml:space="preserve"><style type="text/css">
	.st0{fill-rule:evenodd;clip-rule:evenodd;fill:#59595B;}
	.st1{fill-rule:evenodd;clip-rule:evenodd;fill:#808183;}
	.st2{fill-rule:evenodd;clip-rule:evenodd;fill:#929496;}
	.st3{fill-rule:evenodd;clip-rule:evenodd;fill:#BBBCBF;}
	.st4{fill-rule:evenodd;clip-rule:evenodd;fill:#A6A8AA;}
	.st5{fill-rule:evenodd;clip-rule:evenodd;fill:#E6E6E7;}
	.st6{fill-rule:evenodd;clip-rule:evenodd;fill:#434244;}
	.st7{fill-rule:evenodd;clip-rule:evenodd;}
	.st8{fill-rule:evenodd;clip-rule:evenodd;fill:#D0D1D3;}
	.st9{fill-rule:evenodd;clip-rule:evenodd;fill:#D4A950;}
	.st10{fill-rule:evenodd;clip-rule:evenodd;fill:#3A529A;}
	.st11{fill-rule:evenodd;clip-rule:evenodd;fill:#C03B35;}
	.st12{fill-rule:evenodd;clip-rule:evenodd;fill:#6D6E70;}
</style><path class="st5" d="M158.67,1000.44c9.62-28.08,37.47-76.17,16.67-241.23C116.52,876.91,140.08,935.34,158.67,1000.44z
	 M296.12,1244.51c0.43-27.92,11.65-79.42-57.12-218.44C220.12,1149.09,259.41,1193.06,296.12,1244.51z M523.69,1438.88
	c-9.78-26.96-21.25-102.69-133.02-194.31C413.78,1368.04,470.6,1399.51,523.69,1438.88z M814.14,1554.51
	c-9.67-14.01-59.41-103.7-201.38-152.88C676.79,1499.42,742.8,1535.46,814.14,1554.51z M691.17,1526.23
	c-14.67-7.59-119.59-64.15-247.95-39.36C519.73,1541.54,602.84,1537.39,691.17,1526.23z M949.35,1582.1
	c-16.86-3.51-144.85-37.17-263.23,24.89C802.62,1641.25,862.27,1615.79,949.35,1582.1z"/></svg>