<svg version="1.1" id="Layer_1" xmlns="http://www.w3.org/2000/svg" xmlns:xlink="http://www.w3.org/1999/xlink" x="0px" y="0px" viewBox="0 0 1919 2500" style="enable-background:new 0 0 1919 2500;" xml:space="preserve"><style type="text/css">
	.st0{fill-rule:evenodd;clip-rule:evenodd;fill:#59595B;}
	.st1{fill-rule:evenodd;clip-rule:evenodd;fill:#808183;}
	.st2{fill-rule:evenodd;clip-rule:evenodd;fill:#929496;}
	.st3{fill-rule:evenodd;clip-rule:evenodd;fill:#BBBCBF;}
	.st4{fill-rule:evenodd;clip-rule:evenodd;fill:#A6A8AA;}
	.st5{fill-rule:evenodd;clip-rule:evenodd;fill:#E6E6E7;}
	.st6{fill-rule:evenodd;clip-rule:evenodd;fill:#434244;}
	.st7{fill-rule:evenodd;clip-rule:evenodd;}
	.st8{fill-rule:evenodd;clip-rule:evenodd;fill:#D0D1D3;}
	.st9{fill-rule:evenodd;clip-rule:evenodd;fill:#D4A950;}
	.st10{fill-rule:evenodd;clip-rule:evenodd;fill:#3A529A;}
	.st11{fill-rule:evenodd;clip-rule:evenodd;fill:#C03B35;}
	.st12{fill-rule:evenodd;clip-rule:evenodd;fill:#6D6E70;}
</style><path class="st11" d="M1399.73,700.89l-3.16,148.8h-211.73v-148.8H1399.73L1399.73,700.89z M961.12,548.74h220.48v148.92H961.12
	V548.74z M525.63,995.21l-0.24-6.73l-2.88-135.55h211.65v142.28H525.63z M957.88,1199l-26.56-5.55l-15.9-3.31l-14.83-3.06
	l-13.83-2.82l-12.91-2.63l-12.04-2.43l-11.25-2.28l-10.53-2.12l-9.89-1.99l-9.3-1.89l-8.83-1.79l-8.39-1.72l-8.04-1.67l-7.74-1.63
	l-7.53-1.62l-7.4-1.63l-7.33-1.66l-7.33-1.7l-7.41-1.76l-7.56-1.85l-5.88-1.47V998.46h220.48L957.88,1199L957.88,1199z"/></svg>