<svg version="1.1" id="Layer_1" xmlns="http://www.w3.org/2000/svg" xmlns:xlink="http://www.w3.org/1999/xlink" x="0px" y="0px" viewBox="0 0 1919 2500" style="enable-background:new 0 0 1919 2500;" xml:space="preserve"><style type="text/css">
	.st0{fill-rule:evenodd;clip-rule:evenodd;fill:#59595B;}
	.st1{fill-rule:evenodd;clip-rule:evenodd;fill:#808183;}
	.st2{fill-rule:evenodd;clip-rule:evenodd;fill:#929496;}
	.st3{fill-rule:evenodd;clip-rule:evenodd;fill:#BBBCBF;}
	.st4{fill-rule:evenodd;clip-rule:evenodd;fill:#A6A8AA;}
	.st5{fill-rule:evenodd;clip-rule:evenodd;fill:#E6E6E7;}
	.st6{fill-rule:evenodd;clip-rule:evenodd;fill:#434244;}
	.st7{fill-rule:evenodd;clip-rule:evenodd;}
	.st8{fill-rule:evenodd;clip-rule:evenodd;fill:#D0D1D3;}
	.st9{fill-rule:evenodd;clip-rule:evenodd;fill:#D4A950;}
	.st10{fill-rule:evenodd;clip-rule:evenodd;fill:#3A529A;}
	.st11{fill-rule:evenodd;clip-rule:evenodd;fill:#C03B35;}
	.st12{fill-rule:evenodd;clip-rule:evenodd;fill:#6D6E70;}
</style><path class="st7" d="M1107.81,2227.86c11.58,0,24.4-9.07,28.6-20.19c4.19-11.11-1.83-20.18-13.4-20.18s-24.4,9.07-28.6,20.18
	C1090.25,2218.78,1096.26,2227.86,1107.81,2227.86z M1393.72,2404c0,13.65,7.81,22.63,15.57,26.89c17.2,9.46,50.06-13.15,63.7-22.6
	c7.2-4.98,14.11-10.5,20.04-16.43c24.26-24.26,28.68-23.16,28.68-23.16s-8.82,18.76-8.82,36.41c0,18.76,7.71,27.59,24.27,27.59
	c15.44,0,51.85-18.76,78.34-45.24c26.49-25.38,34.21-26.49,34.21-26.49s-2.2,6.63-2.2,18.76s-2.19,61.78,70.64,61.78
	c79.45,0,137.92-66.21,137.92-66.21l-4.42-3.29c0,0-62.9,58.48-130.21,58.48c-40.63,0-47.99-26.86-37.27-58.72
	c17.47-51.91,69.97-111.19,125.32-123.9c19.38-4.47,40.79-0.86,34.29,23.43c-3.09,11.58-12.52,27.58-34.06,42.22v9.93
	c0,0,57.38-18.76,57.38-59.6c0-18.76-16.54-27.59-36.42-27.59c-20.61,0-66.74,9.47-120.59,50.32
	c-24.63,18.68-44.24,40.59-65.89,62.26c-16,15.99-65.53,62.8-93.57,71.45c-17.25,5.28-26.38-2.88-20.47-19.22
	c3.08-8.53,10.86-19.62,29.07-40.1c27.58-29.8,94.89-102.62,94.89-102.62s-13.24-14.35-44.14-14.35c-32,0-113.65,18.76-174.35,79.46
	c-56.29,56.27-105.92,101.51-131.31,99.3c-29.8-2.2-38.61-18.76-37.53-37.51c22.89-14.6,45.14-30.2,66.67-46.74
	c51.47-39.9,105.69-84.91,139.28-141.73c16.49-27.87,26.76-57.59-2.91-57.59c-20.98,0-79.46,29.78-144.57,93.8
	c-65.11,65.1-82.75,104.82-82.75,145.65c0,3.31,1.09,6.63,1.09,8.83c-34.21,20.97-67.31,35.31-94.9,35.31
	c-35.31,0-45.24-17.65-44.14-37.51c65.18-41.78,136.89-98.65,187.26-158.32c10.51-12.45,61.18-87.76,14.68-87.76
	c-19.86,0-79.46,29.78-143.45,93.8c-65.11,65.1-82.75,104.82-82.75,145.65c0,3.31,0,6.63,1.1,9.93
	c-34.22,20.97-68.41,34.21-96,34.21c-12.15,0-15.46-4.42-15.46-18.76c0-17.65,16.56-41.93,32-58.48c16.54-15.44,93.8-96,93.8-96
	h-37.48c0,0-16.97,18.08-35.54,37.58c-12.29,12.98-24.72,25.83-37.28,38.56c-29.2,29.2-95.02,99.3-132.41,99.3
	c-16.24,0-11.59-20.82-6.6-30.64c27.81-54.73,106.9-129.11,153.21-173.46c33.92-32.5,72.99-69.56,72.99-69.56h-36.41
	c-70.64,67.31-100.43,97.11-102.63,99.31c0,0-11.03-6.63-32-6.63c-20.97,0-87.16,8.83-157.79,79.46
	c-70.63,70.62-105.94,101.51-126.9,101.51c-13.3,0-10.83-12.82-5.37-25.03c23.8-53.2,82.97-99.68,122.34-141.59
	c0,0-8.42-9.12-27.46-12.82c-54.67-10.61-121.71,20.34-167.58,56.9c-12.57,10-23.64,21.54-35.65,32.16
	c-47.63,42.11-192.9,158.79-298.98,158.79c-51.87,0-78.34-23.17-78.34-78.36c0-39.72,28.68-94.89,89.38-163.3
	c20.13,0.07,40.26-0.62,60.34-2.08c106.37-8.06,241.87-39.66,348.32-92.87c45.77-22.88,112.86-60.14,138.63-105.84
	c19.82-35.16-1.43-65.18-43.01-65.18c-130.21,0-402.77,113.67-544.01,252.69c-65.11-1.1-135.72-13.24-135.72-78.34
	c-1.1-78.36,168.84-151.18,326.63-151.18l-3.31-9.92c0,0-228.42,2.2-331.04,104.82c-18.79,18.79-32.03,37.53-32.03,61.81
	c0,23.17,3.31,73.92,163.31,84.97C115.9,2300.28,85,2354.33,85,2406.2c0,48.56,26.48,93.8,114.75,93.8
	c122.5,0,282.49-135.72,282.49-135.72c0,8.83-8.83,23.17-8.83,41.93c0,17.65,7.73,27.59,24.27,27.59
	c36.74,0,70.62-40.45,99.31-59.58c-4.15,10.08-7.73,17.63-7.73,34.21c0,15.44,8.83,25.38,26.49,25.38
	c16.54,0,50.75-19.86,80.55-49.66c13.24-14.34,17.65-15.44,17.65-15.44c-6.86,18.85-12.48,65.1,17.66,65.1
	c16.54,0,40.83-11.03,76.14-46.34c18.76-18.76,26.49-18.76,26.49-18.76c-0.39,2.56-1,5.08-1.83,7.53
	c-4.47,14.1-10.05,27.78-4.78,42.54c2.91,8.13,9.37,15.04,23.17,15.04c22.07,0,55.17-20.97,80.55-46.34
	c25.38-25.38,26.49-18.76,26.49-18.76c0,7.73-5.52,9.92-5.52,26.48c0,15.46,1.1,38.63,36.42,38.63c22.07,0,57.38-15.46,94.89-36.42
	c8.83,26.49,37.53,36.42,64.02,36.42h4.41c20.98,0,56.29-15.46,93.8-36.42c8.83,25.38,35.32,35.32,59.6,36.42
	c27.58,1.1,97.09-71.73,97.09-61.78C1402.53,2383.03,1393.72,2384.13,1393.72,2404L1393.72,2404z M716.19,1995.7
	c54.03,0,48.2,37.87,18.76,67.31c-8.69,8.69-20.15,17.96-33.93,27.51c-86.57,60.02-264.28,131.56-416.39,145.51
	c-19.05,1.68-38.16,2.5-57.28,2.43c13.25-13.25,25.36-26.92,39.66-39.14C365.29,2115.22,590.37,1995.7,716.19,1995.7L716.19,1995.7z
	 M576.05,2376.42c-19.86,19.85-58.49,48.55-75.04,48.55c-3.31,0-7.73-4.42-7.73-11.03c0-27.59,40.83-67.31,75.04-101.53
	c34.21-34.21,84.97-57.38,104.84-57.38c12.14,0,16.54,1.1,16.54,6.61C689.7,2270.48,597.01,2355.44,576.05,2376.42L576.05,2376.42z
	 M738.26,2422.74c-31.21,0,16.46-64.29,23.17-70.63c18.76-18.76,91.58-97.09,134.62-97.09c11.03,0,18.76,4.41,18.76,6.61
	c0,4.42-2.2,9.93-17.66,24.27c-14.34,15.46-27.58,32-46.34,50.76C832.04,2355.43,763.63,2422.74,738.26,2422.74z M1195.08,2231.85
	c27.59-27.59,80.56-81.66,109.26-81.66c17.39,0,15.11,29.3-57.39,100.43c-31.99,31.99-86.07,82.75-140.14,120.28
	C1115.25,2322.47,1161.99,2264.94,1195.08,2231.85L1195.08,2231.85z M1272.32,2358.76c12.15-35.31,54.07-94.9,84.97-126.89
	c24.57-24.57,69.27-70.14,99.02-79.82c16.23-5.28,25.83,1.6,17.2,19.61c-6.8,14.14-23.82,39.53-63.26,78.97
	c-32,31.99-86.07,82.75-141.24,120.28C1270.12,2367.59,1271.22,2363.16,1272.32,2358.76L1272.32,2358.76z M1489.72,2311.3
	c24.26-23.49,56.86-42.54,80.46-51.61c6.07-2.33,32.85-10.82,39.44-2.63c3.81,4.74-1,9.33-4.05,12.88
	c-20.42,23.79-91.18,87.47-108.14,105.35c-20.97,19.86-58.48,48.56-75.04,48.56c-4.41,0-7.71-4.42-7.71-11.03
	C1414.69,2386.33,1455.5,2345.52,1489.72,2311.3z M1896.9,2396.27c12.14,1.1,22.07-8.82,22.07-20.97c0-11.03-9.93-20.97-22.07-20.97
	c-11.03,0-20.97,9.93-20.97,20.97C1875.93,2387.44,1885.86,2397.37,1896.9,2396.27z M1896.9,2357.64c9.92,0,18.76,7.73,18.76,17.65
	c0,9.93-8.83,18.76-18.76,18.76s-17.66-8.82-17.66-18.76C1879.24,2365.37,1886.97,2357.64,1896.9,2357.64z M1891.37,2377.5h5.52
	c5.51,0,6.61,0,6.61,5.52v4.42h3.31v-5.51c0-2.2-1.1-3.31-2.2-5.51l-1.1-1.12c2.2-1.09,3.31-2.19,3.31-4.41
	c0-4.42-3.31-6.63-8.83-6.63h-9.92v23.17h3.31L1891.37,2377.5L1891.37,2377.5z M1891.37,2366.48h6.61c3.31,0,5.52,2.2,5.52,4.42
	c0,2.22-2.2,3.31-6.61,3.31h-5.52V2366.48L1891.37,2366.48z"/></svg>