<svg version="1.1" id="Layer_1" xmlns="http://www.w3.org/2000/svg" xmlns:xlink="http://www.w3.org/1999/xlink" x="0px" y="0px" viewBox="0 0 1919 2500" style="enable-background:new 0 0 1919 2500;" xml:space="preserve"><style type="text/css">
	.st0{fill-rule:evenodd;clip-rule:evenodd;fill:#59595B;}
	.st1{fill-rule:evenodd;clip-rule:evenodd;fill:#808183;}
	.st2{fill-rule:evenodd;clip-rule:evenodd;fill:#929496;}
	.st3{fill-rule:evenodd;clip-rule:evenodd;fill:#BBBCBF;}
	.st4{fill-rule:evenodd;clip-rule:evenodd;fill:#A6A8AA;}
	.st5{fill-rule:evenodd;clip-rule:evenodd;fill:#E6E6E7;}
	.st6{fill-rule:evenodd;clip-rule:evenodd;fill:#434244;}
	.st7{fill-rule:evenodd;clip-rule:evenodd;}
	.st8{fill-rule:evenodd;clip-rule:evenodd;fill:#D0D1D3;}
	.st9{fill-rule:evenodd;clip-rule:evenodd;fill:#D4A950;}
	.st10{fill-rule:evenodd;clip-rule:evenodd;fill:#3A529A;}
	.st11{fill-rule:evenodd;clip-rule:evenodd;fill:#C03B35;}
	.st12{fill-rule:evenodd;clip-rule:evenodd;fill:#6D6E70;}
</style><path class="st4" d="M995.36,1280.55l7.6-2.19l8.07-2.32l8.57-2.43l9.07-2.58l9.5-2.71l9.93-2.82l10.32-2.95l10.65-3.06l10.98-3.15
	l11.25-3.26l11.51-3.36l11.71-3.43l11.91-3.52l12.05-3.59l12.18-3.68l12.25-3.74l12.29-3.79l12.34-3.85l12.31-3.89l12.28-3.96
	l12.19-3.98l12.09-4.02l11.95-4.05l11.78-4.09l11.56-4.09l11.34-4.12l11.09-4.11l10.81-4.15l10.45-4.14l10.1-4.14l9.75-4.15
	l9.29-4.14l4.99-2.29l4.84-2.32l4.68-2.33l4.54-2.35l4.39-2.36l4.25-2.38l4.06-2.38l3.94-2.38l3.75-2.4l3.61-2.39l3.45-2.43
	l3.28-2.43l3.12-2.45l2.98-2.5l2.79-2.55l2.56-2.52l3.09-3.29l2.93-3.28l2.81-3.32l2.71-3.39l2.6-3.45l2.5-3.54l2.39-3.61l2.29-3.69
	l2.16-3.76l2.08-3.84l1.96-3.92l1.85-4.01l1.75-4.08l1.65-4.18l1.52-4.24l1.46-4.34l1.35-4.45l1.25-4.51l1.16-4.59l1.1-4.74l1-4.82
	l0.93-4.94l0.87-5.05l0.82-5.18l0.73-5.32l0.69-5.44l0.62-5.58l0.59-5.74l0.53-5.9l0.49-6.07l0.44-6.21l0.42-6.37l18.68-310.81
	l103.36-175.65l-617-69.16L342.5,497.33l103.36,175.65l18.66,310.81l0.4,6.37l0.46,6.21l0.49,6.07l0.53,5.9l0.57,5.74l0.63,5.58
	l0.69,5.44l0.74,5.32l0.8,5.18l0.86,5.05l0.94,4.94l1,4.84l1.1,4.74l1.16,4.58l1.26,4.51l1.35,4.45l1.45,4.35l1.53,4.24l1.65,4.16
	l1.73,4.08l1.86,4.01l1.95,3.92l2.08,3.84l2.16,3.76l2.29,3.69l2.4,3.62l2.49,3.52l2.6,3.46l2.72,3.38l2.81,3.32l2.93,3.28
	l3.09,3.29l2.56,2.52l2.81,2.55l2.96,2.5l3.12,2.45l3.28,2.43l3.45,2.43l3.61,2.39l3.76,2.4l3.92,2.38l4.06,2.38l4.25,2.38
	l4.39,2.36l4.54,2.35l4.69,2.33l4.84,2.32l4.98,2.29l9.29,4.14l9.73,4.15l10.12,4.14l10.45,4.14l10.79,4.15l11.09,4.11l11.34,4.12
	l11.58,4.09l11.78,4.09l11.95,4.05l12.08,4.02l12.19,3.98l12.28,3.96l12.32,3.89l12.32,3.85l12.29,3.79l12.27,3.74l12.17,3.68
	l12.05,3.59l11.91,3.52l11.72,3.43l11.49,3.36l11.26,3.26l10.96,3.15l10.65,3.06l10.33,2.95l9.92,2.82l9.52,2.71l9.07,2.58
	l8.57,2.43l8.06,2.32l7.61,2.19l35.85,10.03L995.36,1280.55L995.36,1280.55z"/></svg>