<svg version="1.1" id="Layer_1" xmlns="http://www.w3.org/2000/svg" xmlns:xlink="http://www.w3.org/1999/xlink" x="0px" y="0px" viewBox="0 0 1919 2500" style="enable-background:new 0 0 1919 2500;" xml:space="preserve"><style type="text/css">
	.st0{fill-rule:evenodd;clip-rule:evenodd;fill:#59595B;}
	.st1{fill-rule:evenodd;clip-rule:evenodd;fill:#808183;}
	.st2{fill-rule:evenodd;clip-rule:evenodd;fill:#929496;}
	.st3{fill-rule:evenodd;clip-rule:evenodd;fill:#BBBCBF;}
	.st4{fill-rule:evenodd;clip-rule:evenodd;fill:#A6A8AA;}
	.st5{fill-rule:evenodd;clip-rule:evenodd;fill:#E6E6E7;}
	.st6{fill-rule:evenodd;clip-rule:evenodd;fill:#434244;}
	.st7{fill-rule:evenodd;clip-rule:evenodd;}
	.st8{fill-rule:evenodd;clip-rule:evenodd;fill:#D0D1D3;}
	.st9{fill-rule:evenodd;clip-rule:evenodd;fill:#D4A950;}
	.st10{fill-rule:evenodd;clip-rule:evenodd;fill:#3A529A;}
	.st11{fill-rule:evenodd;clip-rule:evenodd;fill:#C03B35;}
	.st12{fill-rule:evenodd;clip-rule:evenodd;fill:#6D6E70;}
</style><path class="st7" d="M1100.81,1554.51c9.67-14.01,59.39-103.7,201.38-152.88l-0.16,0.23c-18.56,19.62-60.12,56.25-108.83,93
	c-25.89,19.52-56.89,38.23-92.31,59.62L1100.81,1554.51L1100.81,1554.51z M1741.63,459.21l0.01-0.14
	c-16.92-64.19-30.1-112.76-80.48-200.27l-0.04-0.04C1668.54,340.8,1699.62,388.03,1741.63,459.21z M1565.09,218.7l-0.01-0.01
	c-36.92-47.36-70.01-81.46-143.09-140.93C1460.05,146.8,1504.96,168.7,1565.09,218.7L1565.09,218.7z"/></svg>