<svg version="1.1" id="Layer_1" xmlns="http://www.w3.org/2000/svg" xmlns:xlink="http://www.w3.org/1999/xlink" x="0px" y="0px" viewBox="0 0 1919 2500" style="enable-background:new 0 0 1919 2500;" xml:space="preserve"><style type="text/css">
	.st0{fill-rule:evenodd;clip-rule:evenodd;fill:#59595B;}
	.st1{fill-rule:evenodd;clip-rule:evenodd;fill:#808183;}
	.st2{fill-rule:evenodd;clip-rule:evenodd;fill:#929496;}
	.st3{fill-rule:evenodd;clip-rule:evenodd;fill:#BBBCBF;}
	.st4{fill-rule:evenodd;clip-rule:evenodd;fill:#A6A8AA;}
	.st5{fill-rule:evenodd;clip-rule:evenodd;fill:#E6E6E7;}
	.st6{fill-rule:evenodd;clip-rule:evenodd;fill:#434244;}
	.st7{fill-rule:evenodd;clip-rule:evenodd;}
	.st8{fill-rule:evenodd;clip-rule:evenodd;fill:#D0D1D3;}
	.st9{fill-rule:evenodd;clip-rule:evenodd;fill:#D4A950;}
	.st10{fill-rule:evenodd;clip-rule:evenodd;fill:#3A529A;}
	.st11{fill-rule:evenodd;clip-rule:evenodd;fill:#C03B35;}
	.st12{fill-rule:evenodd;clip-rule:evenodd;fill:#6D6E70;}
</style><path class="st5" d="M1756.28,1000.44c-9.62-28.08-37.47-76.17-16.67-241.23C1798.43,876.91,1774.87,935.34,1756.28,1000.44z
	 M1618.82,1244.51c-0.42-27.92-11.65-79.42,57.12-218.44C1694.81,1149.09,1655.53,1193.06,1618.82,1244.51z M1391.26,1438.88
	c9.76-26.96,21.24-102.69,133-194.31C1501.17,1368.04,1444.34,1399.51,1391.26,1438.88z M1100.81,1554.51
	c9.67-14.01,59.39-103.7,201.38-152.88C1238.15,1499.42,1172.13,1535.46,1100.81,1554.51z M1223.78,1526.23
	c14.67-7.59,119.59-64.15,247.95-39.36C1395.22,1541.54,1312.11,1537.39,1223.78,1526.23L1223.78,1526.23z M965.6,1582.1
	c16.86-3.51,144.85-37.17,263.23,24.89C1112.32,1641.25,1052.68,1615.79,965.6,1582.1z"/></svg>