<svg version="1.1" id="Layer_1" xmlns="http://www.w3.org/2000/svg" xmlns:xlink="http://www.w3.org/1999/xlink" x="0px" y="0px" viewBox="0 0 501.14 292.89" style="enable-background:new 0 0 501.14 292.89;" xml:space="preserve"><style type="text/css">
	.st0{fill:#CB0103;}
</style><path class="st0" d="M173.07,78.98c-5.65,0.05-11.3-0.04-16.95,0.03c-8.22,0.1-16.46-0.38-24.67,0.38
	c-9.32,0.86-18.18,3.34-26.36,7.97c-14.94,8.45-24.47,21.2-29.32,37.51c-4.17,14.02-4.13,28.11,0.13,42.11
	c3.48,11.45,9.58,21.29,18.7,29.13c12.26,10.55,26.79,15.48,42.69,15.83c20.56,0.46,41.14,0.18,61.72,0.2c1.09,0,2.19-0.07,3.2-0.57
	c3.05-1.5,4.27-4,4.27-7.33c-0.03-23.32-0.02-46.63-0.01-69.95c0-16.24-0.03-32.48,0.07-48.72c0.03-4.66,1.93-8.56,6.2-10.83
	c5.23-2.78,11.58-0.66,15,4.83c3.9,6.26,7.77,12.55,11.66,18.82c11.65,18.8,23.3,37.61,34.97,56.4
	c10.29,16.57,20.59,33.12,30.9,49.68c1.24,2,2.45,4.03,3.83,5.92c1.04,1.42,2.49,2.27,4.39,1.99c1.93-0.28,2.68-1.7,3.28-3.28
	c0.34-0.88,0.36-1.82,0.36-2.75c0-39.28,0-78.56,0.02-117.85c0-1.97-0.07-3.94,0.39-5.89c1.21-5.12,4.83-8.65,9.93-9.04
	c4.99-0.38,8.57,2.29,11.11,6.29c4.66,7.34,9.15,14.78,13.73,22.16c10.74,17.32,21.5,34.63,32.25,51.93
	c10.76,17.32,21.52,34.64,32.31,51.94c1.06,1.71,1.88,3.58,3.37,5.02c1.33,1.29,2.83,1.88,4.63,1.29c1.68-0.55,2.46-1.93,2.8-3.53
	c0.21-0.95,0.25-1.96,0.25-2.94c0.01-51.79,0.01-103.58,0-155.37c0-2.42-0.01-2.42-2.35-2.24c-7.04-0.12-14.07-0.17-21.11,0.02
	c-0.09-0.09-0.17-0.09-0.25,0.01c-1.68,0.05-0.67,1.19-0.76,1.88c0,0.11,0,0.23,0,0.34c-0.04,0.54-0.12,1.08-0.12,1.62
	c-0.01,27.66-0.01,55.32,0,82.98c0,0.54,0.08,1.08,0.12,1.62c0.13,0.06,0.2,0.14,0.25,0.25c-0.05-0.1-0.12-0.19-0.25-0.25
	c-0.11,0.89-0.22,1.78-0.34,2.7c-0.51-0.22-0.74-0.58-0.96-0.96c-1.08-1.89-2.15-3.79-3.24-5.67
	c-10.73-18.41-21.48-36.81-32.21-55.22c-3.97-6.81-7.97-13.56-13.8-19.05c-6.92-6.51-15.02-10.43-24.44-11.16
	c-6.76-0.53-13.17,1.35-18.94,4.92c-11.37,7.04-16.86,17.56-17.04,30.71c-0.25,18.1-0.09,36.21-0.11,54.31c0,0.79,0.23,1.6-0.1,2.4
	c-0.56-0.14-0.62-0.58-0.79-0.89c-4.34-7.53-8.64-15.09-13-22.61c-8.28-14.27-16.64-28.49-24.87-42.78
	c-4.97-8.62-11.03-16.19-19.82-21.13c-11.46-6.43-23.2-7-34.66-0.23c-11.74,6.93-17.28,17.79-17.35,31.19
	c-0.18,32.31-0.06,64.63-0.07,96.94c0,5.18-2.36,7.55-7.52,7.55c-9.49,0-18.98-0.01-28.47,0c-4.34,0.01-8.65-0.27-12.92-1.04
	c-9.33-1.69-17.71-5.39-24.39-12.24c-13.8-14.15-14.57-35.91-4.52-51.57c8.36-13.03,20.78-19,35.99-19.32
	c11.02-0.23,22.05-0.09,33.08-0.05c1.16,0,1.65-0.17,1.64-1.48c-0.06-7.19-0.06-14.37,0-21.56
	C174.58,79.21,174.17,78.97,173.07,78.98z"/></svg>