<svg version="1.1" id="Layer_1" xmlns="http://www.w3.org/2000/svg" xmlns:xlink="http://www.w3.org/1999/xlink" x="0px" y="0px" viewBox="0 0 501.14 292.89" style="enable-background:new 0 0 501.14 292.89;" xml:space="preserve"><style type="text/css">
	.st0{fill:#CB0103;}
</style><path class="st0" d="M459.11,48.58c0.14,0.05,0.18,0,0.08-0.13c-0.02-0.02-0.09-0.01-0.13-0.01c0,0,0,0.01,0,0.01
	c0,0-0.07-0.06-0.07-0.06l-0.06,0.07c-0.43-0.88-1.22-0.42-1.83-0.43c-7.01-0.04-14.02-0.02-21.03-0.04
	c-1.91-0.01-1.94-0.01-1.68,2.07c-0.04,0.6-0.11,1.2-0.11,1.79c-0.01,52.09-0.02,104.18-0.03,156.26c-0.23,0.29-0.22,0.61-0.16,0.94
	c-0.06,0.23-0.11,0.46-0.17,0.68c-0.09,0.32-0.19,0.64-0.28,0.97c-1.18,3.11-2.95,5.76-6.16,7.05c-4.93,1.98-10.5,0-13.51-4.8
	c-6.96-11.11-13.88-22.24-20.82-33.36c-9.19-14.73-18.39-29.46-27.57-44.2c-8.17-13.14-16.31-26.29-24.46-39.44
	c-2.8-4.51-5.55-9.04-8.42-13.5c-1.46-2.27-3.74-3.06-5.94-2.34c-2.04,0.67-3.39,2.71-3.43,5.24c-0.02,1.15-0.03,2.3-0.03,3.46
	c0,38.4,0,76.81,0,115.21c0,2.58-0.04,5.13-1,7.6c-1.92,4.93-6.19,7.71-10.99,6.91c-3.89-0.65-6.53-3.08-8.55-6.32
	c-10.3-16.56-20.62-33.11-30.93-49.67c-11.61-18.64-23.23-37.27-34.82-55.91c-4.97-7.99-9.88-16-14.85-23.99
	c-1.68-2.71-4.12-3.6-6.69-2.4c-2.31,1.08-2.8,3.22-2.81,5.49c-0.02,39.45-0.11,78.89,0.04,118.34c0.03,8.02-6.36,14.4-14.19,14.29
	c-18.49-0.26-36.98-0.1-55.47-0.08c-5.6,0.01-11.16-0.34-16.69-1.27c-12.54-2.1-24.05-6.69-33.92-14.79
	c-16.73-13.73-24.8-31.83-25.92-53.18c-0.59-11.25,1.32-22.13,5.51-32.61c4.45-11.14,11.2-20.64,20.54-28.16
	c12.99-10.46,28.1-15.14,44.6-15.47c11.85-0.24,23.7-0.11,35.55-0.05c1.52,0.01,1.82-0.49,1.81-1.87
	c-0.06-7.02-0.09-14.05,0.02-21.07c0.02-1.6-0.55-1.88-1.95-1.87c-9.16,0.05-18.32-0.01-27.49,0.03
	c-10.94,0.06-21.76,1.1-32.38,3.87c-14.08,3.68-26.85,9.95-37.95,19.39c-10.26,8.73-18.21,19.25-23.75,31.56
	c-7,15.56-10.1,31.85-8.85,48.9c1.14,15.56,5.36,30.19,13.2,43.74c7.88,13.62,18.55,24.53,31.98,32.7
	c16.94,10.3,35.55,14.81,55.19,15.08c18.98,0.26,37.96,0.07,56.95,0.08c2.85,0,5.69-0.16,8.5-0.64c11.17-1.92,19.95-7.3,25.17-17.67
	c3.32-6.61,4.32-13.74,4.32-21.05c0.01-15.36,0.02-30.72,0.03-46.08c0-0.78-0.17-1.58,0.18-2.49c0.31,0.43,0.52,0.67,0.68,0.94
	c5.5,9.1,10.99,18.2,16.48,27.3c8.06,13.35,16.13,26.69,24.19,40.04c5.73,9.49,13.51,16.57,24.2,20.01
	c10.87,3.49,21.38,2.68,30.92-3.94c9.62-6.68,13.69-16.51,13.88-27.83c0.3-17.5,0.11-35,0.13-52.5c0-1.28,0-2.56,0-3.85
	c2.41,3.36,4.46,6.81,6.53,10.24c11.62,19.25,23.28,38.47,34.87,57.74c4.67,7.78,10.71,14.1,18.98,17.98
	c12.46,5.84,24.79,5.99,36.48-1.93c6.27-4.25,10.27-10.32,12.12-17.72c0.67-1.68,1.06-3.41,1.08-5.22c0.04-0.23,0.08-0.46,0.13-0.7
	c0.37-1.72,0.83-3.44,0.64-5.23c0.18-0.99,0.14-1.99,0.03-2.98c0.03-0.55,0.08-1.09,0.08-1.64c0-51.46,0-102.91,0-154.37
	c0-0.54-0.06-1.09-0.09-1.63c0.02-0.55,0.04-1.09,0.06-1.64C459.08,48.51,459.08,48.57,459.11,48.58z"/></svg>