<svg version="1.1" id="Layer_1" xmlns="http://www.w3.org/2000/svg" xmlns:xlink="http://www.w3.org/1999/xlink" x="0px" y="0px" viewBox="0 0 2500 819" style="enable-background:new 0 0 2500 819;" xml:space="preserve"><style type="text/css">
	.st0{fill:#E61A27;}
</style><path class="st0" d="M2194.46,720.66c-8.07,5.49-19.4,1.27-15.16-11.31c10.56-32.02,52.51-97.27,52.51-97.27l116.86-207.27h-80.05
	c-3.81,6.25-11.94,20.6-11.94,20.6c-3.7-6.17-14.78-19.88-19.34-22.85c-19.56-12.36-48.25-6.52-68.04,4.69
	c-86.06,50.32-148.85,149.74-198.37,227.28c0,0-52.13,86.19-81.06,92.6c-22.59,1.83-20.26-28.6-19.28-35.69
	c8.73-51.24,29.02-99.95,49.45-144.09c41.57-28.82,89-66.55,132.11-107.94c93.56-89.43,172.43-190.75,183.96-213.39
	c0,0-12.48,2.52-27.21,2.97c-71.98,100.4-219.26,246.32-263.92,268.04c19.78-47.58,147.59-274.68,256.34-383.31l17.12-16.47
	c26.47-25.84,53.88-52.37,75.25-56.72c2.26-0.23,5.16,0,7.67,5.27c0.95,20.12-6.54,34.99-15.13,51.91l-12.04,24.7
	c0,0,17.06-3.2,28.27-6.87c13-24.46,27.4-51.91,22.09-84.61c-1.77-10.52-9.39-18.52-19.34-20.36c-32.44-6.17-67.8,17.83-96.25,37.28
	l-1.15,0.68c-146.26,114.58-269.75,279.71-377.73,505.21c-7.83,5.94-38.06,13.03-43.2,9.6c10.66-21.95,24.09-51.46,30.8-83.48
	c1.16-9.15,2.24-18.52,2.24-27.67c0-19.68-4.73-38.2-22.36-51c-20.68-10.29-46.23-5.49-63.46,2.28
	c-77.18,32.02-134.86,111.16-176.49,176.33c-22.39,41.41-44.71,85.75-50.89,136.53c-4.35,39.79,4.51,65.41,27.13,78.22
	c23.26,11.88,52.54-0.47,64.05-6.41c78.19-41.17,132.83-123.73,175.89-199.2c1.71-0.23,25.22-0.91,43.01-5.49
	c0.23,0,0.33,0,0.73,0.24c-1.02,3.42-10.21,30.87-10.21,30.87c-27.29,80.04-39.92,134.47-14.13,166.72
	c36.84,45.51,97.83-1.59,147.45-63.81c-10.65,74.55,27.99,86.22,57.44,80.51c33.83-9.14,71.54-45.29,89.03-63.81
	c-5.62,21.72-4.09,60.61,26.69,64.49c21.09,3.9,36.88-7.57,55.15-17.41c65.53-35.68,143.97-154.58,164.33-188.95h-26.7
	C2277.64,636.07,2240.8,693.43,2194.46,720.66L2194.46,720.66z M1606.28,712.69c-4.16-6.18-5.53-12.93-5.67-20.23
	c-0.8-44.85,47.45-125.15,81.51-168.9h0.07c14.27,31.25,46.59,51.34,66.1,59.8C1724.06,637.34,1640.95,752.94,1606.28,712.69
	L1606.28,712.69z M1761.96,559.23c-2.31,1.61-43.06-12.12-50.94-49.85c-6.68-32.49,15.69-57.87,37.33-70.67
	c9.29-7.32,23.28-9.83,33.55-6.19c9.53,6.42,12.11,17.86,12.11,30.19c0,7.56-1,15.33-1.89,22.42l-0.19,1.61
	C1785.11,512.1,1775.04,536.46,1761.96,559.23L1761.96,559.23z M2088.83,698.29c-0.03,0-7.73,6.86-7.73,6.86
	c-10.99,9.83-22.31,20.35-35.96,15.09c-3.77-1.37-6.43-6.4-7.06-10.3c-0.62-28.13,12.04-54.2,24.33-79.58l3.15-6.63
	c35.34-59,76.41-128.53,136.74-176.78c10.17-7.33,21.2-13.5,32.84-8.69c2.68,2.51,5.8,6.86,5.8,11.2c0,1.38-1.23,5.03-1.93,6.17
	c-16.85,27.23-32.89,55.81-48.5,83.25C2160,593.08,2128.37,649.11,2088.83,698.29z"/></svg>