<svg version="1.1" id="Layer_1" xmlns="http://www.w3.org/2000/svg" xmlns:xlink="http://www.w3.org/1999/xlink" x="0px" y="0px" viewBox="0 0 2500 819" style="enable-background:new 0 0 2500 819;" xml:space="preserve"><style type="text/css">
	.st0{fill:#E61A27;}
</style><path class="st0" d="M960.03,714.29c-93.03-59.92-219.27-70.44-422.87-13.95c-217.05,51.01-289.42,83.7-384.46,18.07
	c-36.51-32.24-49.6-84.16-39.83-158.94c22.67-121.91,83.94-239.22,192.77-369.35c60.74-67.69,117.09-125.79,191.5-149.12
	c57.03-14.63,51.69,30.18,44.79,36.59c-7.28,0-19.51,1.15-28.97,7.32c-7.67,5.95-28.73,25.16-29.86,51.01
	c-1.63,39.56,39.31,31.33,56.97,9.61c19.03-24.48,47.17-71.35,25.04-115.04c-9.28-15.55-25.3-26.3-45.2-29.96
	C451.78-3.38,388.33,29.1,329.76,65.01C201.7,153.97,99.25,277.25,41.28,412.18C7.86,493.6-22.36,610.22,22.94,705.15
	c35.05,65.86,107.81,100.85,194.62,93.53c60.88-6.4,134.51-26.08,184.02-37.96c49.52-11.9,302.98-99.03,386.26,52.61
	c0,0,27.69-53.76,96.9-54.91c56.9-5.25,138.99,16.47,198.76,60.38C1063.59,788.85,1007.13,744.71,960.03,714.29z"/></svg>