<svg version="1.1" id="Layer_1" xmlns="http://www.w3.org/2000/svg" xmlns:xlink="http://www.w3.org/1999/xlink" x="0px" y="0px" viewBox="0 0 2500 819" style="enable-background:new 0 0 2500 819;" xml:space="preserve"><style type="text/css">
	.st0{fill:#E61A27;}
</style><path class="st0" d="M1015.93,519.57c-0.07,0-7.97,4.05-12.51,0.85c-5.63-4.8-3.41-14.79,0.07-21.87
	c0.22-0.46,167.51-290.61,167.51-290.61h-78.99c0,0-8.63,13.96-9.33,14.88c-0.53-0.46-1.8-2.86-2.67-4.01
	c-48.94-67.69-159.76,36.43-243.19,157.18c-32.12,46.43-73.02,98.71-115.43,136.44c0,0-62.83,57.59-89.67,16.21
	c-9.81-17.38-6.79-42.8-1.26-59.49c31.25-88.97,85.11-169.71,146.39-218.42c17.3-13.48,36.1-17.38,45.43-11.67
	c8.89,5.27,10.33,18.29,4.7,27.22c-14.27-0.46-25.71,3.88-35,13.49c-18.31,19.21-24.67,37.74-18.85,55.12
	c28.28,40.25,84.69-39.34,81.97-87.83c-0.98-17.38-10.25-33.85-24.09-41.86c-20.63-12.34-52.1-9.15-72.46,0.69
	c-27.27,10.29-70.42,46.19-95.61,74.1c-31.71,35-86.1,73.87-103.11,69.52c5.56-14.87,51.5-108.86,3.17-144.08v0
	c-47.41-31.1-142.69,28.36-219,130.36c-69.79,91.49-99.92,197.82-67.12,247c48.78,57.86,139.35-26.3,177.86-71.35l4.97-5.27
	c26.19-28.13,46.42-61.98,66.01-94.46c0,0,18-29.73,18.86-31.11c11.12-2.05,24.53-5.25,39.62-9.6
	c-0.22,0.68-57.77,97.42-51.9,145.44c1.83,14.65,0.43,68.17,52.68,84.4c69.64,11.67,125.24-42.31,174.3-90.34
	c0,0,8.36-8,13.09-12.56c-1.2,4.79-2.76,11.18-2.76,11.18c-20.39,70.9,7.09,85.78,24.28,91.27
	c51.95,15.11,114.02-60.37,114.22-60.37c-1.61,23.78-6.32,43.44,18.75,59.22c23.65,8.47,47.59-4.44,65.79-16.57
	c65.55-46.19,118.35-118.5,161-181h-27.21C1126.13,401.68,1059.32,498.52,1015.93,519.57z M514.11,381.3c0,0-0.69,2.07-1.03,2.74
	c-0.09,0-34.44,56.02-34.44,56.02c-20.73,27.68-46.62,62.45-78.97,79.14c-9.59,3.2-22.85,5.27-29.61-3.19
	c-14.32-17.16-6.94-40.94-0.94-60.15l2.12-6.86c17.19-46.65,44.47-87.83,71.03-126.02c0.33-0.23,1.07-0.45,1.34-0.45
	c0.07,0.23,0.17,0.23,0.22,0.69c16.66,32.01,47.91,46.87,71.27,53.74c0.14,0,0.29,0.23,0.29,0.69
	C515.4,378.33,515.02,379.25,514.11,381.3L514.11,381.3z M546.66,315.21c-0.15,0.46-15.3,35.22-15.3,35.22
	c-2.19,1.83-5.65,0.92-9.62,0l-6.8-1.15c-21.35-6.63-37.46-20.81-42.42-37.73c-6.85-32.93,21.29-58.78,33.68-68.15
	c11.89-8.24,30.38-12.58,41.12-4.12c6.62,7.78,9.13,17.84,9.13,28.82C556.45,282.96,551.86,299.66,546.66,315.21z M954.81,443.28
	c0.08-0.23-11.88,18.07-11.88,18.07c-16.77,25.61-33.66,47.57-61.21,62.88c-3.19,0.94-8.07,1.42-12.09-0.16
	c-0.93-0.36-1.81-0.84-2.62-1.44c-5.19-3.43-7.23-9.15-6.65-15.1c1.65-19.66,21.67-79.8,83.46-163.05l0,0
	c15.37-21.27,60.09-78.22,70.99-87.82c22.35-19.66,36.52-22.07,44.46-18.67c5.1,2.18,7.63,6.74,8.13,10.66
	C1033.18,309.94,992.79,380.16,954.81,443.28z"/></svg>