<svg version="1.1" id="Layer_1" xmlns="http://www.w3.org/2000/svg" xmlns:xlink="http://www.w3.org/1999/xlink" x="0px" y="0px" viewBox="0 0 2500 819" style="enable-background:new 0 0 2500 819;" xml:space="preserve"><style type="text/css">
	.st0{fill:#E61A27;}
</style><path class="st0" d="M2092.4,97.94c-36.34-22.18-74.76-43.23-112.57-64.04c-85.87-46.88-155.77-30.42-191.34-17.61
	c-13.98,5.03-26.76,9.38-26.76,9.38c-26.4-28.82-69.7-26.08-101.6-18.3c-114.73,32.93-221.25,113.2-335.46,252.49
	c-83.96,109.09-136.04,203.32-163.8,296.4c-21.4,62.66-27.9,154.83,24.33,209.49c44.4,46.42,103.28,36.36,144.86,19.67
	c90.08-44.37,171.05-139.97,211.39-249.98c9.74-32.7,20.54-78.9,3.78-114.12l0,0c-7.62-16.46-25.7-26.98-44.97-25.84
	c-62.57,5.72-123.78,57.18-155.91,131.04c-16.86,37.97-26.07,69.3-32.1,119.15c19.46-22.41,59.15-59.22,104.18-79.35
	c0,0,6.13-47.8,37.38-90.34c11.83-17.62,35.49-45.97,62.06-38.43c23.22,7.78,15.06,72.05-15.8,134.24
	c-22.83,45.75-57.77,91.5-93.12,123.05c-31.25,26.53-77.49,58.55-117.95,33.85c-25.48-15.09-38.48-46.66-35.73-87.37
	c12.17-115.49,64.75-213.83,139.98-325.9c77.58-104.06,163.09-210.86,278.28-267.82c23.5-11.89,45.26-14.63,64.07-7.32
	c0,0-108.14,59.46-159.68,169.47c-13.11,27.91-31.35,65.63-12.98,99.03c9.6,17.38,26.63,18.75,40.36,17.84
	c63.18-14.64,104.01-73.64,137.36-127.61c19.34-40.94,36.52-81.65,36.52-126.93c0-5.49-0.28-12.8-0.75-18.3
	c30.18-16,92.09,12.35,92.09,12.35c48.37,16.02,151.37,94.92,186.11,110.01c16.95-19.67,44.8-49.39,60.48-64.26L2092.4,97.94z
	 M1752.36,76.67L1752.36,76.67c-11.93,136.77-118.23,217.05-144.54,223.44c-15.94,3.2-43.14-3.89-18.86-61.28
	c35.76-77.31,96.81-142.94,162.31-176.56C1752.87,67.98,1752.83,71.63,1752.36,76.67z"/></svg>