<svg version="1.1" id="Layer_1" xmlns="http://www.w3.org/2000/svg" xmlns:xlink="http://www.w3.org/1999/xlink" x="0px" y="0px" viewBox="0 0 2500 2500" style="enable-background:new 0 0 2500 2500;" xml:space="preserve"><style type="text/css">
	.st0{fill:#123CD0;}
</style><path class="st0" d="M849.29,961.47L849.29,961.47c-154.86-126.6-390.3-219.32-633.77-213.04c-44.01,2.17-141.44,7.16-176.35,68.92
	c-3.58,12.53-4.93,32.45,8.95,36.7c13.88,4.25,60.72,14.38,66.24-2.68c5.53-17.08-40.57-14.24-40.27-23.27
	c0.3-9.03,40.73-17.83,66.24-19.7c160.23-8.07,309.73,22.37,444.89,81.45c138.75,62.66,307.93,160.24,348.21,322.26
	c8.07,58.17-7.16,111.02-53.71,148.59c-100.26,73.4-235.43,85.04-363.43,64.45c-4.49-0.87-9.86-6.24-10.75-10.73
	c-11.63-65.37-6.26-140.55-4.47-208.58c0-9.84,8.21-12.53,17.16-10.74c72.51,8.95,189.51,23.31,212.9,47.44
	c16.26,16.8-36.7,36.94-38.49,49.25c-1.79,12.3,28.64,10.73,44.76,10.73c24.18-1.76,50.28-17.83,58.18-40.26
	c7.91-22.46,1.8-61.77-23.27-82.36c-74.29-52.83-168.28-57.3-262.27-61.78c-21.49-51.01,1.79-121.75-47.44-159.33
	c-6.28-4.47-15.82-2.31-19.7,4.47c-17,48.34-18.79,102.95-23.27,156.66c-3.58,1.79-1.79,8.05-6.26,6.26
	c-77.88,15.23-155.75,34.91-217.53,84.15c-9.84,12.53-16.11,28.64-10.74,44.75c40.27,80.56,125.31,145.91,204.09,179.03
	c40.28,16.1,17.91,66.22,45.65,92.19c9.84,8.05,25.97,10.74,38.49,6.26c19.69-7.17,25.95-27.74,32.22-44.76
	c93.11,21.48,207.68,24.16,298.99-2.68c93.99-25.07,204.99-103.84,221.11-208.58C1039.06,1144.09,931.89,1029,849.29,961.47z
	 M407.08,1383.99c-37.6-5.38-78.93-28.44-110.11-46.56c-31.18-18.14-64.46-43.86-87.73-75.19c-8.95-15.23,5.38-27.76,17.02-32.23
	c57.29-21.48,122.63-27.74,184.4-28.64l0,0c4.46,1.79,0.88,5.37,4.47,7.16C416.03,1268.51,416.03,1325.8,407.08,1383.99z"/></svg>