<svg version="1.1" id="Layer_1" xmlns="http://www.w3.org/2000/svg" xmlns:xlink="http://www.w3.org/1999/xlink" x="0px" y="0px" viewBox="0 0 2500 2500" style="enable-background:new 0 0 2500 2500;" xml:space="preserve"><style type="text/css">
	.st0{fill:#123CD0;}
</style><path class="st0" d="M1302.23,875.54c-12.49-10.82-28.25-17.13-44.76-17.9h0c-68.92-69.83-193.05-16.04-236.32,32.23
	c-25.95,31.32-49.23,70.71-30.43,111.89c3.58,6.94,10.7,7.25,13.53,11.49c13.71,20.6-6.85,49.62,16.9,68.17
	c16.41,10.82,27.74-15.21,41.18-23.27c27.76,10.74,66.24,10.74,96.68,3.58c50.88-14.24,125.34-57.29,156.65-121.73
	C1323.71,918.51,1319.25,891.65,1302.23,875.54z M1031.9,974c-8.95-17.9,0.44-34.69,15.21-51.92
	c14.76-17.24,42.06-27.76,66.24-32.23c5.37,2.68,0,5.37,0.01,8.96C1078.45,918.51,1063.24,950.74,1031.9,974z M1259.27,956.99
	c-42.97,39.4-99.36,56.39-158.45,51.02c-12.53-8.05,3.58-16.11,6.26-23.27c43.86-44.75,90.41-91.31,152.19-85.92
	c6.23,2.68,12.54,8.95,15.23,15.2C1280.74,930.14,1271.82,945.35,1259.27,956.99z"/></svg>