<svg version="1.1" id="Layer_1" xmlns="http://www.w3.org/2000/svg" xmlns:xlink="http://www.w3.org/1999/xlink" x="0px" y="0px" viewBox="0 0 2500 2500" style="enable-background:new 0 0 2500 2500;" xml:space="preserve"><style type="text/css">
	.st0{fill:#123CD0;}
</style><path class="st0" d="M2127.57,1165.57c4.31,7.24,8.81,18.42,0,23.27c-40.28,17.9-94.87,9.84-141.44,15.21
	c-12.53,10.74-22.39,28.64-17.92,44.76c4.5,2.68,8.51,6.77,13.45,6.25c28.62,1.8,71.61-13.42,90.43,13.42
	c4.59,7.99-0.62,37.82-13.42,38.49c-34.93,4.5-92.36-4.38-109.23,4.5c-21.48,14.32-19.7,42.06-27.76,64.46
	c15.23,9.84,31.17-0.23,49.22-2.7c33.15-5.37,69.86-15.21,102.95-8.05c6.26,11.63,15.23,24.18,8.95,38.49
	c-56.43,44.76-129.22,90.63-206.76,58.18c-29.1-13.05-42.07-57.29-32.22-94.86c6.25-26.86,33.99-52.81,17-81.46
	c-2.68-12.54,4.49-23.27,15.23-25.95c29.53,0,23.25-36.7,38.48-53.72c-17-18.79-59.96-17.9-55.48-55.5
	c20.6-10.74,45.67-7.16,68.91-10.74c52.81-10.75,111.89-17.02,165.64-10.75C2104.29,1131.03,2118.62,1152.14,2127.57,1165.57z"/></svg>