<svg version="1.1" id="Layer_1" xmlns="http://www.w3.org/2000/svg" xmlns:xlink="http://www.w3.org/1999/xlink" x="0px" y="0px" viewBox="0 0 2500 2500" style="enable-background:new 0 0 2500 2500;" xml:space="preserve"><style type="text/css">
	.st0{fill:#123CD0;}
</style><path class="st0" d="M1794.55,1165.57c28.65,69.83,52.81,179.92,0,247.06c-14.32,16.11-39.38,30.96-55.48,18.79
	c-59.09-47.43-84.13-115.47-120.84-176.35c-5.37-2.68-5.37,4.49-8.05,7.17c-13.42,61.76,11.63,142.33-30.43,190.66
	c-16.11,2.68-31.18-5.6-36.7-21.48c-20.6-63.55,0.87-129.8,6.24-193.35c12.54-32.23,17.91-69.82,45.67-93.99
	c44.76,17.9,66.24,68.04,92.18,104.74c18.82,27.74,34.02,59.08,55.5,84.13c18.79-8.05,9.55-32.62,8.96-47.44
	c-7.19-58.18-23.29-111.89-38.52-167.39c-0.87-14.32-8.92-38.49,6.26-47.44C1759.66,1088.59,1776.64,1130.65,1794.55,1165.57z"/></svg>