<svg version="1.1" id="Layer_1" xmlns="http://www.w3.org/2000/svg" xmlns:xlink="http://www.w3.org/1999/xlink" x="0px" y="0px" viewBox="0 0 2500 2500" style="enable-background:new 0 0 2500 2500;" xml:space="preserve"><style type="text/css">
	.st0{fill:#123CD0;}
</style><path class="st0" d="M1524.22,1144.08c0,13.44-10.74,30.22-19.71,32.23c-85.92,13.42-181.71,5.37-262.26,32.22
	c-2.68,9.84,8.95,11.63,15.21,14.32c68.91,10.74,141.44,13.42,208.58,30.44c35.5,9.01,48.35,51.04,51.04,85.94
	c1.65,27.52-8.94,60.87-35.81,79.67c-66.22,42.07-167.37,40.27-234.53,1.8c-25.67-14.4-50.13-37.59-51.92-66.24
	c0.16-22.75,9.86-40.66,25.97-49.23c64.46-25.97,144.12-11.62,199.63,21.48c3.55,17.91-15.82,16.94-25.1,23.28
	c-61.78,35.81-108.31-40.26-165.6-12.54c-8.05,5.37-13.88,20.35-4.47,25.07c70.71,31.33,149.49,8.95,219.31-10.74
	c8.05-2.68,17.91-10.74,18.79-18.79c-2.68-28.65-34.9-34.9-55.5-42.96c-60.87-15.21-128-15.21-193.35-21.48
	c-12.53-2.68-28.49-11.41-32.22-21.48c-7.16-21.48-7.16-51.02,8.95-68.92c83.24-73.41,209.45-67.13,315.07-47.44
	C1513.47,1133.34,1521.52,1136.02,1524.22,1144.08L1524.22,1144.08z"/></svg>