<svg version="1.1" id="Layer_1" xmlns="http://www.w3.org/2000/svg" xmlns:xlink="http://www.w3.org/1999/xlink" x="0px" y="0px" viewBox="0 0 2500 2500" style="enable-background:new 0 0 2500 2500;" xml:space="preserve"><style type="text/css">
	.st0{fill:#123CD0;}
</style><path class="st0" d="M2445.33,1179.91c-8.38-14.55-28.62-34.02-51.04-32.23c-85.04,26.85-142.32,117.26-200.53,180.82
	c-3.55,1.76-5.37-1.82-8.05-4.5c0-77.87,72.53-126.22,75.21-204.09v0c-2.68-3.58-6.26-4.47-10.7-4.49
	c-34.9,28.64-64.47,66.24-85.95,103.84c-27.74,56.39-49.22,129.81-15.2,190.67c-14.19,38.12-33.59,83.64-38.51,102.94
	c-4.92,19.35-64.45,171.01,8.05,228.29c10.74,3.58,27.73,20.58,34.89,1.79c13.42-93.99,37.64-184.4,72.54-270.34
	c84.11,8.96,158-43.94,200.5-96.66C2467.74,1322.24,2474.88,1238.99,2445.33,1179.91z M2353.17,1356.25
	c-24.19,9.84-47.44,27.74-75.21,24.16c20.6-55.5,61.79-102.05,102.95-148.59c8.94-2.68,13.42-17.02,24.16-15.23l0,0
	c3.58,7.16,10.74,13.42,12.54,21.5C2420.3,1287.34,2394.33,1330.28,2353.17,1356.25z"/></svg>