<svg version="1.1" id="Layer_1" xmlns="http://www.w3.org/2000/svg" xmlns:xlink="http://www.w3.org/1999/xlink" x="0px" y="0px" viewBox="0 0 263.2 212.12" style="enable-background:new 0 0 263.2 212.12;" xml:space="preserve"><style type="text/css">
	.st0{fill:#E21837;}
	.st1{fill:#006491;}
</style><path class="st1" d="M98.56,202.53c-2.02,0.01-3.54-0.92-4.94-2.13c-0.35-0.3-0.68-0.64-1.01-0.97
	c-17.2-17.19-34.4-34.39-51.6-51.58c-1.12-1.12-2.11-2.32-2.5-3.89c-0.59-2.36,0.25-4.34,1.85-6c3.13-3.23,6.31-6.4,9.48-9.59
	c15.87-15.97,31.75-31.93,47.6-47.91c0.55-0.55,0.8-0.59,1.38-0.02c20.52,20.55,41.06,41.08,61.61,61.6
	c0.48,0.48,0.57,0.71,0.03,1.25c-18.81,18.77-37.6,37.56-56.39,56.34c-1.48,1.48-3.07,2.75-5.28,2.89
	C98.69,202.52,98.58,202.53,98.56,202.53z M136.69,142.69c0.01-8.55-6.97-15.53-15.53-15.54c-8.54,0-15.53,7.01-15.52,15.55
	c0.02,8.51,6.97,15.47,15.49,15.49C129.69,158.22,136.68,151.25,136.69,142.69z M91.34,142.65c-0.01-8.55-6.92-15.47-15.46-15.5
	c-8.55-0.03-15.53,6.93-15.54,15.5c-0.01,8.58,6.94,15.54,15.5,15.54C84.41,158.19,91.35,151.24,91.34,142.65z"/></svg>