<svg version="1.1" id="Layer_1" xmlns="http://www.w3.org/2000/svg" xmlns:xlink="http://www.w3.org/1999/xlink" x="0px" y="0px" viewBox="0 0 263.2 212.12" style="enable-background:new 0 0 263.2 212.12;" xml:space="preserve"><style type="text/css">
	.st0{fill:#E21837;}
	.st1{fill:#006491;}
</style><path class="st0" d="M164.72,16.18c1.59-0.02,2.93,0.62,4.15,1.56c0.58,0.45,1.13,0.96,1.65,1.48
	c17.24,17.23,34.48,34.46,51.72,51.7c0.29,0.29,0.58,0.59,0.84,0.9c2.42,2.87,2.41,6.05-0.15,8.81c-2.15,2.31-4.41,4.51-6.63,6.74
	c-16.89,17-33.79,33.99-50.67,51c-0.46,0.46-0.69,0.45-1.14,0c-20.58-20.6-41.18-41.19-61.78-61.77c-0.43-0.43-0.5-0.65-0.03-1.12
	c18.86-18.83,37.71-37.68,56.56-56.52C160.75,17.44,162.44,16.21,164.72,16.18z M164.65,91.67c8.51,0.05,15.48-6.86,15.53-15.42
	c0.06-8.55-6.83-15.56-15.33-15.61c-8.62-0.05-15.6,6.8-15.66,15.37C149.13,84.65,156.01,91.62,164.65,91.67z"/></svg>