<svg version="1.1" id="Layer_1" xmlns="http://www.w3.org/2000/svg" xmlns:xlink="http://www.w3.org/1999/xlink" x="0px" y="0px" viewBox="0 0 91.41 212.12" style="enable-background:new 0 0 91.41 212.12;" xml:space="preserve"><style type="text/css">
	.st0{fill:#EA2E30;}
</style><path class="st0" d="M72.19,19.98c0.15,0.14,0.08,0.32,0.08,0.49c-0.16,3.93-0.33,7.86-0.49,11.79c-0.22,5.2-0.43,10.39-0.65,15.59
	c-0.21,5.13-0.43,10.27-0.64,15.4c-0.13,3.09-0.26,6.18-0.39,9.27c-0.3,7.28-0.61,14.56-0.91,21.84c-0.13,3.01-0.25,6.01-0.38,9.02
	c-0.22,5.2-0.43,10.39-0.65,15.59c-0.12,2.88-0.24,5.75-0.36,8.63c-0.22,5.22-0.43,10.43-0.65,15.65c-0.03,0.66-0.09,1.33-0.11,1.99
	c-0.01,0.29-0.08,0.45-0.4,0.42c-0.13-0.01-0.26,0-0.39,0c-14.07,0-28.13,0-42.2,0c-0.85,0-0.78,0-0.77-0.86
	c0.02-1.73-0.09-3.46-0.16-5.19c-0.06-1.51-0.08-3.03-0.12-4.54c-0.14-4.53-0.31-9.06-0.46-13.59c-0.13-3.85-0.26-7.69-0.39-11.54
	c-0.08-2.45-0.17-4.9-0.25-7.35c-0.13-3.85-0.26-7.69-0.39-11.54c-0.14-4.16-0.28-8.33-0.42-12.49c-0.07-2.1-0.15-4.21-0.22-6.31
	c-0.14-4.19-0.28-8.38-0.43-12.57c-0.07-2.1-0.15-4.21-0.22-6.31c-0.13-3.78-0.26-7.57-0.39-11.35c-0.08-2.48-0.17-4.96-0.26-7.44
	c-0.13-3.89-0.27-7.78-0.4-11.67c-0.03-0.97-0.1-1.95-0.03-2.92C36.83,19.98,54.51,19.98,72.19,19.98z M28.7,82.73
	c0.16,8,0.33,16,0.49,24c0.2,10,0.39,20,0.56,30c0.01,0.54,0.17,0.67,0.69,0.67c10.05-0.02,20.09-0.02,30.14,0
	c0.52,0,0.69-0.12,0.69-0.67c-0.02-4.97-0.02-9.94,0-14.91c0-0.54-0.13-0.68-0.67-0.67c-4.04,0.02-8.09,0-12.13,0.03
	c-0.53,0-0.68-0.13-0.68-0.67c0.02-11.57,0.02-23.14,0-34.72c0-0.59,0.17-0.7,0.72-0.7c4.71,0.02,9.42,0,14.13,0.03
	c0.64,0,0.77-0.18,0.77-0.79c-0.03-4.93-0.02-9.85,0-14.78c0-0.54-0.14-0.67-0.68-0.67c-4.65,0.02-9.29,0-13.94,0.03
	c-0.55,0-0.67-0.15-0.67-0.68c0.02-7.29,0.02-14.58,0-21.88c0-0.57,0.13-0.71,0.71-0.71c5.03,0.02,10.07,0.01,15.1,0.03
	c0.51,0,0.69-0.09,0.69-0.65c-0.02-5.38-0.02-10.75,0-16.13c0-0.54-0.13-0.67-0.67-0.67c-11.89,0.02-23.79,0.02-35.68,0
	c-0.51,0-0.64,0.13-0.63,0.64c0.1,3.83,0.17,7.66,0.24,11.48C28.16,54.47,28.43,68.6,28.7,82.73z"/></svg>