<svg version="1.1" id="Layer_1" xmlns="http://www.w3.org/2000/svg" xmlns:xlink="http://www.w3.org/1999/xlink" x="0px" y="0px" viewBox="0 0 501.14 292.89" style="enable-background:new 0 0 501.14 292.89;" xml:space="preserve"><style type="text/css">
	.st0{fill:#EE0000;}
</style><path class="st0" d="M139.12,197.32c1.4-9.05,2.76-17.87,4.16-26.9c0.69,0,1.36,0,2.03,0c20.75,0,41.5-0.02,62.25,0.03
	c1.51,0,2.11-0.3,2.22-1.94c0.21-3.15,0.7-6.28,1.09-9.59c-0.76-0.03-1.38-0.09-1.99-0.09c-15.03,0.02-30.07,0.06-45.1,0.07
	c-6.43,0-15.28-4.11-17.16-11.92c-0.88-3.64-1.09-7.3-0.65-11.16c0.61-0.03,1.17-0.09,1.73-0.09c26.41,0,52.83-0.01,79.24,0.01
	c2,0,4.01,0.2,6.01,0.38c7.88,0.7,11.22,6.62,11.54,12.21c0.26,4.67-0.2,9.41-0.67,14.08c-0.5,4.99-1.26,9.97-2.12,14.92
	c-2.16,12.54-11.05,18.61-21.51,19.73c-3.97,0.42-8.02,0.25-12.03,0.25c-22.29,0.02-44.57,0.01-66.86,0.01
	C140.63,197.32,139.96,197.32,139.12,197.32z"/></svg>