<svg version="1.1" id="Layer_1" xmlns="http://www.w3.org/2000/svg" xmlns:xlink="http://www.w3.org/1999/xlink" x="0px" y="0px" viewBox="0 0 501.14 292.89" style="enable-background:new 0 0 501.14 292.89;" xml:space="preserve"><style type="text/css">
	.st0{fill:#EE0000;}
</style><path class="st0" d="M355.6,124.91c1.38-9.91,2.72-19.54,4.08-29.35c0.65,0,1.22,0,1.79,0c24.83-0.01,49.65-0.05,74.48,0
	c4.58,0.01,9.14,0.57,13.1,3.16c6.54,4.27,8.37,10.71,7.9,18.08c-0.14,2.21-0.59,4.4-0.79,6.61c-0.11,1.23-0.65,1.53-1.83,1.53
	c-9.53-0.05-19.06-0.03-28.59-0.03c-22.66,0-45.31,0-67.97,0C357.15,124.91,356.53,124.91,355.6,124.91z"/></svg>