<svg version="1.1" id="Layer_1" xmlns="http://www.w3.org/2000/svg" xmlns:xlink="http://www.w3.org/1999/xlink" x="0px" y="0px" viewBox="0 0 501.14 292.89" style="enable-background:new 0 0 501.14 292.89;" xml:space="preserve"><style type="text/css">
	.st0{fill:#EE0000;}
</style><path class="st0" d="M137.97,158.97c-0.85,0-1.48,0-2.12,0c-17.21,0-34.41,0.02-51.62-0.03c-1.46,0-2.01,0.34-2.14,1.87
	c-0.25,3.1-0.75,6.19-1.17,9.51c18.53,0,36.96,0,55.52,0c0,0.67,0.05,1.13-0.01,1.57c-1.03,8.08-2.11,16.16-3.08,24.25
	c-0.16,1.3-0.89,1.18-1.75,1.18c-9.95,0-19.91,0-29.86,0c-18.53,0-37.06,0-55.59,0c-0.62,0-1.24,0-2.03,0
	c2.58-20.67,5.14-41.13,7.71-61.72c29.59,0,59.14,0,88.85,0C139.78,143.38,138.88,151.09,137.97,158.97z"/></svg>