<svg version="1.1" id="Layer_1" xmlns="http://www.w3.org/2000/svg" xmlns:xlink="http://www.w3.org/1999/xlink" x="0px" y="0px" viewBox="0 0 501.14 292.89" style="enable-background:new 0 0 501.14 292.89;" xml:space="preserve"><style type="text/css">
	.st0{fill:#EE0000;}
</style><path class="st0" d="M453.9,136.12c-0.58,4.72-1.15,9.39-1.72,14.06c-1.66,13.44-3.32,26.88-4.98,40.32
	c-0.23,1.89-0.39,3.79-0.73,5.66c-0.08,0.44-0.72,1.11-1.1,1.11c-10.43,0.04-20.85,0.02-31.28-0.01c-0.04,0-0.08-0.06-0.34-0.25
	c0.28-2.52,0.57-5.18,0.89-7.83c1.76-14.55,3.53-29.09,5.29-43.64c0.34-2.84,0.64-5.68,1.06-8.5c0.06-0.42,0.73-1.07,1.12-1.08
	c10.43-0.05,20.85-0.03,31.28-0.01C453.5,135.96,453.6,136.02,453.9,136.12z"/></svg>