<svg xmlns="http://www.w3.org/2000/svg" width="2500" height="693" viewBox="10 45.67 160.003 44.33"><path d="M169.018 84.244c0-2.465-1.748-4.27-4.156-4.27-2.404 0-4.154 1.805-4.154 4.27 0 2.461 1.75 4.263 4.154 4.263 2.408 0 4.156-1.805 4.156-4.263zm-5.248.219v2.789h-.901v-6.15h2.239c1.312 0 1.914.573 1.914 1.69 0 .688-.465 1.233-1.064 1.312v.026c.52.083.711.547.818 1.396.082.55.191 1.504.387 1.728h-1.066c-.248-.578-.223-1.396-.414-2.081-.158-.521-.436-.711-1.033-.711h-.875v.003l-.005-.002zm1.117-.795c.875 0 1.125-.466 1.125-.877 0-.486-.25-.87-1.125-.87h-1.117v1.749h1.117v-.002zm-5.17.576c0-3.037 2.411-5.09 5.141-5.09 2.738 0 5.146 2.053 5.146 5.09 0 3.031-2.407 5.086-5.146 5.086-2.73 0-5.141-2.055-5.141-5.086z" fill="#ff5a00"/><path d="M169.018 84.244c0-2.465-1.748-4.27-4.156-4.27-2.404 0-4.154 1.805-4.154 4.27 0 2.461 1.75 4.263 4.154 4.263 2.408 0 4.156-1.805 4.156-4.263zm-5.248.219v2.789h-.901v-6.15h2.239c1.312 0 1.914.573 1.914 1.69 0 .688-.465 1.233-1.064 1.312v.026c.52.083.711.547.818 1.396.082.55.191 1.504.387 1.728h-1.066c-.248-.578-.223-1.396-.414-2.081-.158-.521-.436-.711-1.033-.711h-.875v.003l-.005-.002zm1.117-.795c.875 0 1.125-.466 1.125-.877 0-.486-.25-.87-1.125-.87h-1.117v1.749h1.117v-.002zm-5.17.576c0-3.037 2.411-5.09 5.141-5.09 2.738 0 5.146 2.053 5.146 5.09 0 3.031-2.407 5.086-5.146 5.086-2.73 0-5.141-2.055-5.141-5.086z" fill="#ff5a00"/></svg>