<svg xmlns="http://www.w3.org/2000/svg" width="2500" height="937" viewBox="6.077 6.461 289.506 108.556"><path fill="#C9C9CA" d="M150.824 6.461C70.48 6.461 6.077 30.543 6.077 60.736c0 30.015 64.935 54.281 144.748 54.281 79.818 0 144.758-24.35 144.758-54.281-.002-29.925-64.94-54.275-144.759-54.275m143.873 50.084c.052.265.088.533.134.79-.038-.256-.091-.522-.134-.79"/><path fill="url(#e)" d="M208.088 74.182h.004c.156-.302.312-.621.479-.963.127-.263.064-.337-.045-.381-.314-.113-.639-.354-.684-.603-.021-.045-.023-.088-.027-.139l.004.027c.04.481.167 1.387.269 2.059z"/></svg>