<svg xmlns="http://www.w3.org/2000/svg" width="2500" height="937" viewBox="6.077 6.461 289.506 108.556"><path fill="#C9C9CA" d="M150.824 6.461C70.48 6.461 6.077 30.543 6.077 60.736c0 30.015 64.935 54.281 144.748 54.281 79.818 0 144.758-24.35 144.758-54.281-.002-29.925-64.94-54.275-144.759-54.275m143.873 50.084c.052.265.088.533.134.79-.038-.256-.091-.522-.134-.79"/><path fill="url(#l)" d="M184.053 72.573c1.742-.943 3.272-2.943 3.082-6.188-.101-1.615-.568-3.279-1.324-4.621.514.979.729 2.119.547 3.32-.334 2.094-1.469 3.94-3.398 4.896-1.635.801-3.545.66-4.883-.533a3.87 3.87 0 0 1-.936-1.322c.344 1.582.645 2.745 1.057 3.368 1.261 1.902 3.445 2.382 5.855 1.08z"/></svg>