<svg xmlns="http://www.w3.org/2000/svg" width="2500" height="937" viewBox="6.077 6.461 289.506 108.556"><path fill="#C9C9CA" d="M150.824 6.461C70.48 6.461 6.077 30.543 6.077 60.736c0 30.015 64.935 54.281 144.748 54.281 79.818 0 144.758-24.35 144.758-54.281-.002-29.925-64.94-54.275-144.759-54.275m143.873 50.084c.052.265.088.533.134.79-.038-.256-.091-.522-.134-.79"/><path fill="url(#i)" d="M131.846 72.206c2.658-3.604 5.652-4.967 9.066-6.442.45-.197.504-.451.418-.849-.146-.68-.62-2.368-.765-2.774.108.371.012.655-.432.82-3.874 1.471-7.758 3.755-10.445 7.354-3.048 4.084-3.865 8.996-1.829 11.826.485.662 1.063 1.153 1.701 1.473-1.097-3.38-.296-7.912 2.286-11.408z"/></svg>