<svg xmlns="http://www.w3.org/2000/svg" width="2500" height="937" viewBox="6.077 6.461 289.506 108.556"><path fill="#C9C9CA" d="M150.824 6.461C70.48 6.461 6.077 30.543 6.077 60.736c0 30.015 64.935 54.281 144.748 54.281 79.818 0 144.758-24.35 144.758-54.281-.002-29.925-64.94-54.275-144.759-54.275m143.873 50.084c.052.265.088.533.134.79-.038-.256-.091-.522-.134-.79"/><path fill="url(#n)" d="M147.864 60.193c.062.067.111.134.165.201 1.276 1.899 1.972 4.572 2.042 7.333.076.582.325.596.607.297.258-.262.51-.541.758-.81-.373-1.483-.951-2.817-1.546-4.104-.222-.464-1.19-2.128-2.026-2.917z"/></svg>