<svg xmlns="http://www.w3.org/2000/svg" width="2500" height="937" viewBox="6.077 6.461 289.506 108.556"><path fill="#C9C9CA" d="M150.824 6.461C70.48 6.461 6.077 30.543 6.077 60.736c0 30.015 64.935 54.281 144.748 54.281 79.818 0 144.758-24.35 144.758-54.281-.002-29.925-64.94-54.275-144.759-54.275m143.873 50.084c.052.265.088.533.134.79-.038-.256-.091-.522-.134-.79"/><path fill="url(#f)" d="M211.562 61.693c1.021.979 1.644 2.166 1.76 3.258.045.517.439.574.761.123.084-.123.18-.276.293-.448-.088-.125-.185-.245-.275-.363a28.27 28.27 0 0 0-2.539-2.57z"/></svg>