<svg xmlns="http://www.w3.org/2000/svg" width="2500" height="937" viewBox="6.077 6.461 289.506 108.556"><path fill="#C9C9CA" d="M150.824 6.461C70.48 6.461 6.077 30.543 6.077 60.736c0 30.015 64.935 54.281 144.748 54.281 79.818 0 144.758-24.35 144.758-54.281-.002-29.925-64.94-54.275-144.759-54.275m143.873 50.084c.052.265.088.533.134.79-.038-.256-.091-.522-.134-.79"/><path fill="#FFF" d="M82.087 90.613c-7.905.057-14.865-4.834-15.666-13.286-.443-4.685.881-8.865 3.533-12.306 2.352-3.066 6.338-5.612 9.702-6.236 1.103-.199 2.575-.069 3.187.655.954 1.113.676 2.337-.274 2.822-2.572 1.312-5.668 3.561-7.196 6.629-1.242 2.5-1.494 5.525.398 8.399 3.179 4.79 12.025 4.925 20.252-2.721 2.039-1.873 3.861-3.67 5.719-5.795 3.622-4.147 4.825-5.66 9.643-12.339.061-.075.077-.175.051-.225-.039-.087-.109-.112-.25-.118-3.213.089-6.019 1.05-8.741 3.083-.785.571-1.915.49-2.409-.262-.549-.852-.156-1.961.75-2.585 4.381-3.046 9.171-3.602 14.062-4.429-.003 0 .342.014.619-.356 2.007-2.574 3.522-4.898 5.665-7.506 2.157-2.642 4.94-5.064 7.069-6.893 2.971-2.556 4.876-3.415 6.812-4.468.511-.268-.062-.587-.221-.587-10.809-2.029-22.042-4.661-32.774-.687-7.437 2.776-10.697 8.673-9.124 12.61 1.11 2.794 4.787 3.247 8.227 1.565a18.62 18.62 0 0 0 7.378-6.561c1.047-1.613 3.255-.45 2.062 2.354-3.14 7.382-9.14 13.237-16.448 13.479-6.223.206-10.238-4.369-10.222-10.016.021-11.138 12.424-18.474 25.451-19.572 15.691-1.294 30.553 2.886 46.129 4.775 11.938 1.443 23.384 1.473 35.38-1.281 1.416-.308 2.416.595 2.318 2.028-.117 2.071-1.722 4.064-5.67 6.22-4.496 2.467-9.193 3.212-14.104 3.255-11.875.097-22.938-4.53-34.382-7.016.016.499.146 1.098-.274 1.414-6.338 4.674-12.069 9.425-15.909 16.092-.127.156-.057.3.166.284 3.332-.175 6.332-.259 9.44-.508.542-.045.562-.179.517-.577-.273-2.299.396-4.922 2.418-6.727 2.068-1.853 4.66-2.063 6.376-.731 1.953 1.523 1.781 4.262.715 6.316-1.089 2.083-2.885 3.193-4.608 3.732 0 0-.361.082-.307.412.067.522 2.416 1.826 2.617 2.173.194.327.097.839-.265 1.23-.249.284-.638.553-1.133.546-.409-.009-.651-.149-1.165-.431-1.06-.568-2.371-1.506-3.252-2.615-.297-.372-.45-.382-1.2-.34-3.364.196-8.613.7-12.172 1.147-.858.107-.986.268-1.165.562-5.671 9.354-11.725 19.437-18.373 26.188-7.132 7.252-13.062 9.152-19.352 9.204m54.035-41.548c.093.478.277.571.495.53 1.079-.216 2.259-1.106 2.961-2.132.64-.935.937-2.284.303-2.826-.565-.483-1.484-.343-2.167.258-1.353 1.199-1.764 2.898-1.592 4.17"/></svg>