<svg xmlns="http://www.w3.org/2000/svg" width="2500" height="937" viewBox="6.077 6.461 289.506 108.556"><path fill="#C9C9CA" d="M150.824 6.461C70.48 6.461 6.077 30.543 6.077 60.736c0 30.015 64.935 54.281 144.748 54.281 79.818 0 144.758-24.35 144.758-54.281-.002-29.925-64.94-54.275-144.759-54.275m143.873 50.084c.052.265.088.533.134.79-.038-.256-.091-.522-.134-.79"/><path fill="url(#t)" d="M187.492 37.01c-4.495 2.467-9.192 3.212-14.104 3.255-11.875.097-22.938-4.53-34.382-7.016.016.499.146 1.098-.274 1.414-6.338 4.674-12.069 9.425-15.909 16.092-.127.156-.057.3.166.284 1.012-.046 1.991-.092 2.956-.145 3.497-5.478 7.238-8.618 12.95-12.834.428-.324.855-.549.715-1.768 11.48 2.549 20.21 6.771 35.035 6.81 4.424.015 10.662-1.46 14.018-3.479 3.857-2.32 4.883-4.026 5.021-5.829.045-.563-.104-1.399-.195-1.83-.131-.611-.217-1.391-.391-1.971.059.236.086.503.064.796-.117 2.074-1.721 4.067-5.67 6.221z"/></svg>