<svg xmlns="http://www.w3.org/2000/svg" width="2500" height="937" viewBox="6.077 6.461 289.506 108.556"><path fill="#C9C9CA" d="M150.824 6.461C70.48 6.461 6.077 30.543 6.077 60.736c0 30.015 64.935 54.281 144.748 54.281 79.818 0 144.758-24.35 144.758-54.281-.002-29.925-64.94-54.275-144.759-54.275m143.873 50.084c.052.265.088.533.134.79-.038-.256-.091-.522-.134-.79"/><path fill="url(#s)" d="M100.032 58.915a1.537 1.537 0 0 1-.252-.813c-.074 1.212.415 2.994.807 3.589.431.664 1.644.99 2.604.274 2.17-1.598 4.129-2.529 6.321-2.944.563-.771 1.171-1.625 1.867-2.585.061-.075.077-.175.051-.225-.039-.087-.109-.112-.25-.118-3.213.089-6.021 1.05-8.741 3.083-.783.572-1.913.491-2.407-.261z"/></svg>