<svg xmlns="http://www.w3.org/2000/svg" width="2500" height="937" viewBox="6.077 6.461 289.506 108.556"><path fill="#C9C9CA" d="M150.824 6.461C70.48 6.461 6.077 30.543 6.077 60.736c0 30.015 64.935 54.281 144.748 54.281 79.818 0 144.758-24.35 144.758-54.281-.002-29.925-64.94-54.275-144.759-54.275m143.873 50.084c.052.265.088.533.134.79-.038-.256-.091-.522-.134-.79"/><path fill="#FFF" d="M235.865 45.17c.189-.331-.006-.573-.424-.573-2.188 0-5.047.007-7.317.007-.543 0-.818.06-1.074.566-.84 1.609-11.064 16.928-12.967 19.901-.322.453-.716.395-.761-.123-.188-1.768-1.717-3.805-4.121-4.771-1.834-.745-3.625-.879-5.483-.63-3.363.451-6.357 2.229-8.992 4.226-3.971 3.02-7.396 6.929-11.814 9.818-2.412 1.571-5.719 2.944-7.928.896-2.004-1.854-1.773-5.977 1.283-9.166.32-.329.711-.057.65.246-.291 1.447.062 2.879 1.157 3.881 1.339 1.193 3.248 1.335 4.884.533 1.932-.955 3.065-2.805 3.397-4.896.512-3.258-1.994-6.126-5.129-6.355-2.543-.18-4.984.706-7.361 2.669-1.188.99-1.87 1.715-2.899 3.188-.254.361-.64.398-.625-.134.117-4.163-1.604-6.508-5.049-6.582-2.672-.069-5.525 1.387-7.752 3.157-2.438 1.955-4.57 4.556-6.861 6.994-.282.299-.531.285-.607-.297-.07-2.762-.766-5.435-2.042-7.333-.457-.659-1.403-.986-2.202-.54-.369.2-1.651.792-2.591 1.546-.459.383-.638.934-.438 1.642 1.23 4.128.961 8.811-.711 12.774-1.532 3.619-4.516 6.896-8.026 7.998-2.307.731-4.714.373-6.201-1.676-2.036-2.83-1.219-7.742 1.829-11.826 2.687-3.599 6.571-5.883 10.445-7.354.457-.179.552-.47.421-.857-.21-.636-.545-1.502-.683-1.896-.354-.943-1.353-1.102-2.569-.968-2.815.328-5.354 1.291-7.863 2.635-6.568 3.518-9.861 10.325-11.307 13.97-.693 1.753-1.289 2.841-2.061 3.812-1.037 1.302-2.333 2.486-4.713 4.574-.214.193-.37.59-.191.963.242.502 1.478 2.246 1.825 2.404.386.192.836-.074 1.019-.205 1.663-1.125 3.654-2.912 4.627-4.129.341-.414.692-.238.875.389.906 3.25 3.287 5.896 6.577 7.002 6.027 2.027 12.275-.91 16.99-6.026 2.997-3.256 4.079-5.351 5.228-6.771 1.947-2.414 5.79-7.812 10.362-11.274 1.68-1.278 3.667-2.252 4.662-1.604.801.52 1.061 1.721-.228 4.062-4.662 8.52-11.526 18.528-12.789 20.948-.227.422-.024.756.416.756 2.438-.012 4.861-.006 7.074-.006.371-.017.533-.188.719-.448 3.582-5.604 6.951-10.935 10.562-16.448.201-.321.387-.071.396.066.072 1.285.39 3.031 1.147 4.181 1.361 2.124 3.296 3.037 5.443 3.053 1.707.02 2.566-.24 4.41-.929a15.391 15.391 0 0 0 3.621-1.946c.537-.373.633.256.619.354-.826 4.447.191 9.72 4.614 11.9 5.296 2.61 11.105-1.056 14.446-4.365.329-.319.678-.289.713.398.067 1.271.643 2.768 1.688 3.812 2.799 2.813 8.457 1.699 14.127-2.691 3.646-2.813 7.459-6.787 10.908-10.993.121-.164.221-.429-.025-.689-.521-.549-1.281-1.176-1.803-1.662-.238-.198-.584-.141-.789.011-3.529 3.354-6.703 7.188-11.299 10.35-1.549 1.086-4.016 1.957-5.127.457-.432-.582-.382-1.393.043-2.447 1.344-3.347 22.548-35.627 23.645-37.529m-28.021 27.068c.045.248.365.486.684.602.107.044.172.118.043.38-.897 1.934-1.727 3.045-2.857 4.727-1.036 1.55-2.211 2.763-3.625 3.926-2.139 1.769-5.108 3.691-7.563 2.396-1.09-.562-1.562-2.088-1.537-3.326.056-3.475 1.593-7.039 4.445-10.543 3.479-4.285 7.328-6.506 9.852-5.295 2.609 1.246 1.777 4.271.609 6.647-.09.18-.1.338-.051.486"/></svg>