<svg xmlns="http://www.w3.org/2000/svg" width="2500" height="937" viewBox="6.077 6.461 289.506 108.556"><path fill="#C9C9CA" d="M150.824 6.461C70.48 6.461 6.077 30.543 6.077 60.736c0 30.015 64.935 54.281 144.748 54.281 79.818 0 144.758-24.35 144.758-54.281-.002-29.925-64.94-54.275-144.759-54.275m143.873 50.084c.052.265.088.533.134.79-.038-.256-.091-.522-.134-.79"/><path fill="url(#v)" d="M142.457 48.813c-1.089 2.083-2.885 3.193-4.608 3.732 0 0-.361.082-.307.412.042.37 1.264 1.144 2.027 1.687.111-.03.277-.091.277-.091.884-.351 2.358-1.25 3.21-3.115.546-1.203.843-2.147.606-4.212-.172-1.44-.463-2.742-.849-3.415.745 1.509.448 3.446-.356 5.002z"/></svg>