<svg xmlns="http://www.w3.org/2000/svg" width="2500" height="937" viewBox="6.077 6.461 289.506 108.556"><path fill="#C9C9CA" d="M150.824 6.461C70.48 6.461 6.077 30.543 6.077 60.736c0 30.015 64.935 54.281 144.748 54.281 79.818 0 144.758-24.35 144.758-54.281-.002-29.925-64.94-54.275-144.759-54.275m143.873 50.084c.052.265.088.533.134.79-.038-.256-.091-.522-.134-.79"/><path fill="#4B4B4B" d="M150.824 6.461C70.48 6.461 6.077 30.543 6.077 60.736c0 30.015 64.935 54.281 144.748 54.281 79.818 0 144.758-24.35 144.758-54.281-.002-29.925-64.94-54.275-144.759-54.275M7.069 61.335c-.029-6.352 2.771-12.663 8.658-18.604C36.449 21.828 90.745 7.7 150.584 7.456c79.27-.33 143.866 23.306 144.004 52.688.028 6.354-2.938 12.581-8.826 18.517-20.725 20.907-74.854 35.124-134.688 35.362-79.269.331-143.871-23.302-144.005-52.688m287.628-4.79c.052.265.088.533.134.79-.038-.256-.091-.522-.134-.79"/></svg>