<svg xmlns="http://www.w3.org/2000/svg" width="2500" height="937" viewBox="6.077 6.461 289.506 108.556"><path fill="#C9C9CA" d="M150.824 6.461C70.48 6.461 6.077 30.543 6.077 60.736c0 30.015 64.935 54.281 144.748 54.281 79.818 0 144.758-24.35 144.758-54.281-.002-29.925-64.94-54.275-144.759-54.275m143.873 50.084c.052.265.088.533.134.79-.038-.256-.091-.522-.134-.79"/><path fill="url(#y)" d="M286.084 78.995c-20.767 20.939-75.103 35.23-135.009 35.479a384.776 384.776 0 0 1-24.854-.676c7.994.51 16.221.768 24.604.768 79.568 0 144.304-24.293 144.304-53.812 0-1.128-.104-2.245-.285-3.357.131.913.188 1.834.197 2.759.035 6.438-3.021 12.85-8.957 18.839"/></svg>