<svg xmlns="http://www.w3.org/2000/svg" width="2500" height="937" viewBox="6.077 6.461 289.506 108.556"><path fill="#C9C9CA" d="M150.824 6.461C70.48 6.461 6.077 30.543 6.077 60.736c0 30.015 64.935 54.281 144.748 54.281 79.818 0 144.758-24.35 144.758-54.281-.002-29.925-64.94-54.275-144.759-54.275m143.873 50.084c.052.265.088.533.134.79-.038-.256-.091-.522-.134-.79"/><path fill="url(#u)" d="M137.89 44.749c-.141.134-.3.271-.457.415-1.133 1.173-1.478 2.726-1.312 3.901.093.478.277.571.495.53a4.02 4.02 0 0 0 .657-.206c.08-.647.351-1.275 1.005-1.851.473-.418 1.066-.612 1.573-.528.437-.866.562-1.908.029-2.373-.512-.442-1.329-.359-1.99.112z"/></svg>