<svg xmlns="http://www.w3.org/2000/svg" width="2500" height="937" viewBox="6.077 6.461 289.506 108.556"><path fill="#C9C9CA" d="M150.824 6.461C70.48 6.461 6.077 30.543 6.077 60.736c0 30.015 64.935 54.281 144.748 54.281 79.818 0 144.758-24.35 144.758-54.281-.002-29.925-64.94-54.275-144.759-54.275m143.873 50.084c.052.265.088.533.134.79-.038-.256-.091-.522-.134-.79"/><path fill="url(#h)" d="M207.281 65.104c-2.522-1.211-6.37 1.01-9.852 5.295-2.854 3.504-4.392 7.067-4.445 10.541-.022 1.238.447 2.768 1.537 3.326a3.33 3.33 0 0 0 1.09.377 5.543 5.543 0 0 1-.19-1.396c-.043-3.585 1.071-7.165 3.932-10.674 3.457-4.264 7.094-6.389 9.619-5.215-.13-.938-.618-1.747-1.691-2.254z"/></svg>