<svg xmlns="http://www.w3.org/2000/svg" width="2500" height="937" viewBox="6.077 6.461 289.506 108.556"><path fill="#C9C9CA" d="M150.824 6.461C70.48 6.461 6.077 30.543 6.077 60.736c0 30.015 64.935 54.281 144.748 54.281 79.818 0 144.758-24.35 144.758-54.281-.002-29.925-64.94-54.275-144.759-54.275m143.873 50.084c.052.265.088.533.134.79-.038-.256-.091-.522-.134-.79"/><path fill="url(#m)" d="M235.865 45.17c-1.098 1.901-22.301 34.182-23.641 37.521-.424 1.057-.474 1.865-.043 2.447.438.586 1.076.809 1.801.797.074-.408.229-.867.422-1.352 1.34-3.351 21.197-33.526 22.287-35.436.09-.163.058-.346.029-.468-.064-.303-.73-3.511-.795-3.812a.435.435 0 0 1-.06.303z"/></svg>