<svg xmlns="http://www.w3.org/2000/svg" width="2500" height="937" viewBox="6.077 6.461 289.506 108.556"><path fill="#C9C9CA" d="M150.824 6.461C70.48 6.461 6.077 30.543 6.077 60.736c0 30.015 64.935 54.281 144.748 54.281 79.818 0 144.758-24.35 144.758-54.281-.002-29.925-64.94-54.275-144.759-54.275m143.873 50.084c.052.265.088.533.134.79-.038-.256-.091-.522-.134-.79"/><path fill="url(#b)" d="M151.477 19.549c66.949 0 122.229 16.356 130.674 37.526v-.004C276.51 34.8 219.872 17.304 150.818 17.304c-72.788 0-131.789 19.435-131.789 43.42 0 1.955.395 3.875 1.149 5.762a14.772 14.772 0 0 1-.495-3.771c.002-23.837 59.005-43.166 131.794-43.166z"/></svg>