<svg xmlns="http://www.w3.org/2000/svg" width="2500" height="937" viewBox="6.077 6.461 289.506 108.556"><path fill="#C9C9CA" d="M150.824 6.461C70.48 6.461 6.077 30.543 6.077 60.736c0 30.015 64.935 54.281 144.748 54.281 79.818 0 144.758-24.35 144.758-54.281-.002-29.925-64.94-54.275-144.759-54.275m143.873 50.084c.052.265.088.533.134.79-.038-.256-.091-.522-.134-.79"/><path fill="url(#x)" d="M6.514 60.736c0 1.418.167 2.826.457 4.213a20.443 20.443 0 0 1-.351-3.61c-.028-6.437 2.85-12.935 8.786-18.924C36.244 21.396 90.595 7.253 150.583 7.001c8.312-.037 16.457.195 24.395.67a385.821 385.821 0 0 0-24.152-.758C70.803 6.913 6.514 30.909 6.514 60.736z"/></svg>