<svg xmlns="http://www.w3.org/2000/svg" width="2500" height="937" viewBox="6.077 6.461 289.506 108.556"><path fill="#C9C9CA" d="M150.824 6.461C70.48 6.461 6.077 30.543 6.077 60.736c0 30.015 64.935 54.281 144.748 54.281 79.818 0 144.758-24.35 144.758-54.281-.002-29.925-64.94-54.275-144.759-54.275m143.873 50.084c.052.265.088.533.134.79-.038-.256-.091-.522-.134-.79"/><path fill="url(#o)" d="M113.646 90.365c.386.195.785.018.977-.09 1.293-.662 3.811-2.598 4.896-3.949.329-.307.645-.098.75.229.453 1.436 1.117 2.543 1.861 3.721.81 1.312 2.438 2.672 4.547 3.25 2.729.765 5.674.9 9.545-.578 3.104-1.188 6.357-3.608 8.858-6.327 3.002-3.259 4.088-5.347 5.225-6.771 1.947-2.41 4.978-6.679 9.226-10.303 1.486-1.271 3.113-2.095 4.134-1.695.614-1.582.323-2.455-.33-2.875-.994-.647-2.982.324-4.66 1.604-4.574 3.464-8.417 8.86-10.363 11.274-1.148 1.42-2.23 3.515-5.228 6.771-4.713 5.116-10.962 8.057-16.99 6.026-3.29-1.106-5.671-3.752-6.577-7.002-.182-.627-.533-.803-.875-.389-.973 1.217-2.964 3.004-4.627 4.129-.182.131-.632.397-1.018.205-.348-.158-1.583-1.902-1.825-2.404a.487.487 0 0 1-.061-.168v.022c.434 2.146.488 2.396 1.075 3.388.665 1.094 1.313 1.87 1.46 1.932z"/></svg>