<svg xmlns="http://www.w3.org/2000/svg" width="2500" height="937" viewBox="6.077 6.461 289.506 108.556"><path fill="#C9C9CA" d="M150.824 6.461C70.48 6.461 6.077 30.543 6.077 60.736c0 30.015 64.935 54.281 144.748 54.281 79.818 0 144.758-24.35 144.758-54.281-.002-29.925-64.94-54.275-144.759-54.275m143.873 50.084c.052.265.088.533.134.79-.038-.256-.091-.522-.134-.79"/><path fill="url(#a)" d="M150.829 8.628c-78.746 0-142.534 23.276-142.534 52.08 0 28.79 63.788 52.081 142.534 52.081 78.756 0 142.528-23.291 142.528-52.081 0-28.802-63.773-52.08-142.528-52.08"/></svg>