<svg xmlns="http://www.w3.org/2000/svg" width="2500" height="937" viewBox="6.077 6.461 289.506 108.556"><path fill="#C9C9CA" d="M150.824 6.461C70.48 6.461 6.077 30.543 6.077 60.736c0 30.015 64.935 54.281 144.748 54.281 79.818 0 144.758-24.35 144.758-54.281-.002-29.925-64.94-54.275-144.759-54.275m143.873 50.084c.052.265.088.533.134.79-.038-.256-.091-.522-.134-.79"/><path fill="url(#j)" d="M151.348 93.582c2.619 0 5.838 0 8.016-.013.324-.018.555-.201.725-.443 3.255-5.1 6.73-10.633 10.056-15.737.729 2.575 1.104 3.773 2.461 4.986 1.381 1.233 2.658 1.557 4.537 1.573 1.707.021 3.389-.661 5.391-1.492a12.36 12.36 0 0 0 1.937-1.039c0-.946.096-1.897.264-2.805.014-.098-.082-.727-.619-.354a15.246 15.246 0 0 1-3.621 1.947c-1.844.688-2.703.946-4.41.93-2.147-.017-4.082-.93-5.442-3.054-.761-1.147-1.076-2.896-1.148-4.18-.01-.141-.194-.391-.396-.067-3.609 5.516-6.979 10.846-10.561 16.447-.187.264-.349.436-.72.448-2.213 0-4.637-.006-7.074.008-.255 0-.438-.117-.491-.295.191.855.504 2.404.586 2.766.054.245.237.374.509.374z"/></svg>