<svg xmlns="http://www.w3.org/2000/svg" width="2500" height="937" viewBox="6.077 6.461 289.506 108.556"><path fill="#C9C9CA" d="M150.824 6.461C70.48 6.461 6.077 30.543 6.077 60.736c0 30.015 64.935 54.281 144.748 54.281 79.818 0 144.758-24.35 144.758-54.281-.002-29.925-64.94-54.275-144.759-54.275m143.873 50.084c.052.265.088.533.134.79-.038-.256-.091-.522-.134-.79"/><path fill="url(#c)" d="M286.525 55.292a17.43 17.43 0 0 1 .873 5.433c0 26.258-61.147 47.541-136.582 47.541-67.131 0-122.943-16.861-134.426-39.062 8.713 23.075 65.786 40.901 134.971 40.977h.836c75.238-.074 136.166-21.142 136.166-47.138.002-2.637-.627-5.233-1.838-7.751z"/></svg>