<svg xmlns="http://www.w3.org/2000/svg" width="2500" height="937" viewBox="6.077 6.461 289.506 108.556"><path fill="#C9C9CA" d="M150.824 6.461C70.48 6.461 6.077 30.543 6.077 60.736c0 30.015 64.935 54.281 144.748 54.281 79.818 0 144.758-24.35 144.758-54.281-.002-29.925-64.94-54.275-144.759-54.275m143.873 50.084c.052.265.088.533.134.79-.038-.256-.091-.522-.134-.79"/><path fill="url(#r)" d="M73.215 90.338c3.065 2.16 6.083 2.876 9.604 2.938 7.152.125 13.685-2.828 20.613-9.858 6.651-6.75 12.408-16.183 18.085-25.531.188-.329.389-.476 1.34-.6 3.562-.439 6.753-.643 9.899-.938.938-.088 1.651-.174 1.995.166 1.136 1.137 2.458 2.176 3.332 2.684.581.007 1.069.135 1.41.44.367-.048.702-.252.919-.463.408-.399.424-.866.357-1.262-.141-.777-.351-2.308-.6-2.752.172.338.061.816-.278 1.199-.249.284-.638.553-1.133.547-.409-.01-.651-.15-1.165-.432-1.061-.567-2.371-1.506-3.252-2.615-.297-.372-.45-.382-1.2-.34-3.364.196-8.613.7-12.172 1.147-.858.107-.986.268-1.165.562-5.671 9.354-11.725 19.437-18.373 26.188-7.129 7.24-13.059 9.141-19.349 9.19-7.259.051-13.718-4.062-15.356-11.289v.004c.885 4.038 3.486 8.896 6.489 11.015z"/></svg>