<svg xmlns="http://www.w3.org/2000/svg" width="2500" height="937" viewBox="6.077 6.461 289.506 108.556"><path fill="#C9C9CA" d="M150.824 6.461C70.48 6.461 6.077 30.543 6.077 60.736c0 30.015 64.935 54.281 144.748 54.281 79.818 0 144.758-24.35 144.758-54.281-.002-29.925-64.94-54.275-144.759-54.275m143.873 50.084c.052.265.088.533.134.79-.038-.256-.091-.522-.134-.79"/><path fill="url(#d)" d="M177.1 68.042c-.301-.764-.357-1.622-.184-2.475.061-.303-.33-.575-.65-.246-3.059 3.189-3.287 7.314-1.283 9.166.715.666 1.539.965 2.416 1.021-1.305-1.656-1.922-4.903-.299-7.466z"/></svg>