<svg xmlns="http://www.w3.org/2000/svg" width="2500" height="937" viewBox="6.077 6.461 289.506 108.556"><path fill="#C9C9CA" d="M150.824 6.461C70.48 6.461 6.077 30.543 6.077 60.736c0 30.015 64.935 54.281 144.748 54.281 79.818 0 144.758-24.35 144.758-54.281-.002-29.925-64.94-54.275-144.759-54.275m143.873 50.084c.052.265.088.533.134.79-.038-.256-.091-.522-.134-.79"/><path fill="url(#q)" d="M103.631 33.82c9.351-3.084 19.775-1.134 28.148.658 1.171-.731 2.196-1.236 3.223-1.799.511-.268-.061-.587-.22-.587-10.809-2.029-22.042-4.661-32.773-.687-7.438 2.776-10.697 8.673-9.124 12.61.3.751.779 1.335 1.404 1.75-.525-3.631 2.197-9.581 9.342-11.945z"/></svg>