<svg xmlns="http://www.w3.org/2000/svg" width="2500" height="937" viewBox="6.077 6.461 289.506 108.556"><path fill="#C9C9CA" d="M150.824 6.461C70.48 6.461 6.077 30.543 6.077 60.736c0 30.015 64.935 54.281 144.748 54.281 79.818 0 144.758-24.35 144.758-54.281-.002-29.925-64.94-54.275-144.759-54.275m143.873 50.084c.052.265.088.533.134.79-.038-.256-.091-.522-.134-.79"/><path fill="url(#p)" d="M77.297 71.087c1.522-3.069 3.664-4.534 5.77-5.866.906-.574 1.308-1.13.769-2.625-.153-.427-.239-1.195-.409-1.875.054.664-.274 1.235-.861 1.541-2.572 1.312-5.668 3.561-7.196 6.629-1.242 2.5-1.494 5.525.398 8.399.159.229.331.461.521.674h.002c-.608-2.386.046-4.956 1.006-6.877z"/></svg>