<svg xmlns="http://www.w3.org/2000/svg" width="2500" height="937" viewBox="6.077 6.461 289.506 108.556"><path fill="#C9C9CA" d="M150.824 6.461C70.48 6.461 6.077 30.543 6.077 60.736c0 30.015 64.935 54.281 144.748 54.281 79.818 0 144.758-24.35 144.758-54.281-.002-29.925-64.94-54.275-144.759-54.275m143.873 50.084c.052.265.088.533.134.79-.038-.256-.091-.522-.134-.79"/><path fill="#FFF" d="M150.818 13.184c-75.439 0-136.594 21.279-136.594 47.541 0 26.258 61.155 47.541 136.594 47.541 75.433 0 136.58-21.283 136.58-47.541 0-26.262-61.148-47.541-136.58-47.541zm0 90.964c-72.788 0-131.789-19.436-131.789-43.424 0-23.987 59-43.421 131.789-43.421 72.793 0 131.787 19.435 131.787 43.421 0 23.989-58.994 43.424-131.787 43.424z"/></svg>