<svg xmlns="http://www.w3.org/2000/svg" width="2500" height="937" viewBox="6.077 6.461 289.506 108.556"><path fill="#C9C9CA" d="M150.824 6.461C70.48 6.461 6.077 30.543 6.077 60.736c0 30.015 64.935 54.281 144.748 54.281 79.818 0 144.758-24.35 144.758-54.281-.002-29.925-64.94-54.275-144.759-54.275m143.873 50.084c.052.265.088.533.134.79-.038-.256-.091-.522-.134-.79"/><path fill="url(#w)" d="M110.553 41.375c-3.14 7.382-9.14 13.237-16.448 13.479-4.087.137-7.215-1.79-8.878-4.729 1.215 2.194 3.271 4.118 5.103 5.271 1.583.986 3.536 1.535 5.77 1.46 7.615-.26 13.385-6.536 15.299-11.838.511-1.43.112-2.962-.124-3.998-.096-.396-.227-1.299-.517-1.942h-.003c.216.531.216 1.313-.202 2.297z"/></svg>