<svg xmlns="http://www.w3.org/2000/svg" width="2500" height="937" viewBox="6.077 6.461 289.506 108.556"><path fill="#C9C9CA" d="M150.824 6.461C70.48 6.461 6.077 30.543 6.077 60.736c0 30.015 64.935 54.281 144.748 54.281 79.818 0 144.758-24.35 144.758-54.281-.002-29.925-64.94-54.275-144.759-54.275m143.873 50.084c.052.265.088.533.134.79-.038-.256-.091-.522-.134-.79"/><path fill="url(#k)" d="M186.389 90.531c.604 1.16 1.959 2.462 2.781 2.871 4.694 2.313 11.396-.309 15.701-4.447.043-.057.053-.061.114-.128.197.743.439 1.646.474 1.771.293.961.754 1.834 1.157 2.297 2.945 3.328 9.197 1.813 15.705-3.223 3.638-2.812 6.334-5.636 9.638-9.479.133-.16.121-.396.047-.756-.189-.836-.486-2.348-.652-3.108a.619.619 0 0 1-.127.35c-3.449 4.205-7.262 8.18-10.908 10.992-5.67 4.393-11.33 5.508-14.127 2.692-1.047-1.047-1.619-2.543-1.688-3.812-.034-.688-.383-.72-.713-.397-3.342 3.311-9.151 6.977-14.446 4.365-2.73-1.348-4.154-3.877-4.666-6.66.004.029.014.064.021.095.327 1.972.756 4.819 1.689 6.577z"/></svg>