<svg version="1.1" id="Layer_1" xmlns="http://www.w3.org/2000/svg" xmlns:xlink="http://www.w3.org/1999/xlink" x="0px" y="0px" viewBox="0 0 2500 1673" style="enable-background:new 0 0 2500 1673;" xml:space="preserve"><style type="text/css">
	.st0{fill:#CF4037;}
	.st1{fill:#FFFFFF;}
</style><path class="st1" d="M833.7,689.59c-11.71-82.13-103.22-35.21-103.22-35.21l-130.77,50.45l-3-188.8
	c68.09-7.06,96.24-16.44,161.92-44.59C908.7,407.18,890,257.94,890,257.94c-100.89,103.22-213.5,63.36-513.78,136.1
	S47.8,663.84,47.8,731.85s49.25,192.33,166.58,192.33s119.66-117.26,119.66-117.26c-152.47,42.19-175.96-110.28-70.42-187.67
	c88.43-64.86,248.63-77.4,248.63-77.4c-72.74,75.07-63.36,168.91-63.36,168.91l1.2,51.8l-78.6,30.33V917.2l81.3-30.33
	c2.55,124.01,5.48,279.93,5.48,349.37c0,124.32-28.15,147.81-28.15,147.81c-114.93,124.32-253.36,44.59-248.63-96.16
	c4.73-140.76,150.14-131.37,150.14-131.37c16.44-72.74-42.19-150.14-168.91-93.84s-185.35,258.09-96.16,403.5
	s309.66,140.76,429.32,46.92s112.6-255.69,112.6-255.69l-6.76-426.17l140.46-52.4l2.33,518.43l147.81-56.3v-436.3
	c0-143.08,105.55-91.51,105.55-91.51l2.33-121.99C894.66,516.03,833.7,689.59,833.7,689.59L833.7,689.59z"/></svg>