<svg version="1.1" id="Layer_1" xmlns="http://www.w3.org/2000/svg" xmlns:xlink="http://www.w3.org/1999/xlink" x="0px" y="0px" viewBox="0 0 2500 1673" style="enable-background:new 0 0 2500 1673;" xml:space="preserve"><style type="text/css">
	.st0{fill:#CF4037;}
	.st1{fill:#FFFFFF;}
</style><path d="M268.88,813.08c-6.31-41.21,14.94-93.01,63.66-128.74c35.96-26.35,83.63-44.07,127.69-55.78
	c10.49-32.51,28.32-62.18,52.1-86.71c0,0-160.2,12.54-248.63,77.4C175.49,683.81,177.29,800.62,268.88,813.08L268.88,813.08z
	 M758.63,471.44c-65.69,28.15-93.84,37.53-161.85,44.59l3,188.8l67.49-26.05l-1.65-97.67c68.01-7.06,96.16-16.44,161.85-44.59
	c150.06-64.26,131.37-213.5,131.37-213.5c-29.88,30.55-60.81,48.57-97.29,60.73C842.26,416.64,810.58,449.14,758.63,471.44
	L758.63,471.44z M396.35,907.89l-24.85,9.31v-38.96c-19.23,2.79-38.86,0.67-57.05-6.16c-16.22,26.95-45.87,52.1-100.14,52.1
	c-24.17,0-45.42-5.33-63.96-14.34c26.65,43.69,69.96,79.42,132.87,79.42C357.46,989.27,385.61,942.35,396.35,907.89L396.35,907.89z
	 M670.65,896.26l71.92-26.8l-0.38-90.68l-140.46,52.4l6.76,426.17c0,0,7.06,161.85-112.6,255.69
	c-93.39,73.19-248.18,92.19-353.95,27.78c92.79,135.5,305.98,128.97,422.87,37.31c119.66-93.84,112.6-255.69,112.6-255.69
	L670.65,896.26L670.65,896.26z M440.41,891.45v90.83l14.19-5.33l-1.8-90.16L440.41,891.45z"/></svg>