<svg version="1.1" id="Layer_1" xmlns="http://www.w3.org/2000/svg" xmlns:xlink="http://www.w3.org/1999/xlink" x="0px" y="0px" viewBox="0 0 2500 1673" style="enable-background:new 0 0 2500 1673;" xml:space="preserve"><style type="text/css">
	.st0{fill:#CF4037;}
	.st1{fill:#FFFFFF;}
</style><path class="st1" d="M1621.11,1180.69l11.26-4.2l-0.07-25.52l11.86-4.43c8.48-3.15,9.01,0.08,9.01,9.01
	c-0.21,4.27,0.22,8.55,1.28,12.69l12.69-4.65v-1.73c-2.48-0.15-2.48-2.55-2.48-12.09c0-12.16-2.48-13.29-6.98-13.96
	c5.49-4.64,8.6-11.5,8.48-18.69c0-5.63-2.78-17.42-17.34-12.01l-27.85,10.28L1621.11,1180.69L1621.11,1180.69z M1688.07,1142.41
	l20.34-7.51l3.53,12.16l12.54-4.65l-19.59-58.03l-13.21,4.95l-19.52,72.44l12.16-4.5L1688.07,1142.41z M1787.16,1119.21l23.8-8.86
	c18.17-6.68,22.82-28.6,22.75-42.56c0-12.39-3.9-29.65-22.45-22.75l-24.32,9.01L1787.16,1119.21L1787.16,1119.21z M1565.78,1201.11
	l23.35-8.63c11.26-4.13,14.26-7.58,17.34-12.39c2.98-4.5,4.62-9.76,4.73-15.16c0-6.46-1.8-12.16-8.56-12.61
	c2.25-2.25,6.76-6.46,6.68-15.84c0-6.68-3.45-15.39-16.97-10.43l-26.72,9.91L1565.78,1201.11L1565.78,1201.11z"/></svg>