<svg version="1.1" id="Layer_1" xmlns="http://www.w3.org/2000/svg" xmlns:xlink="http://www.w3.org/1999/xlink" x="0px" y="0px" viewBox="0 0 2500 1673" style="enable-background:new 0 0 2500 1673;" xml:space="preserve"><style type="text/css">
	.st0{fill:#CF4037;}
	.st1{fill:#FFFFFF;}
</style><path class="st0" d="M2292,418.81c-6.85-9.05-14.19-17.72-22-25.97l28.15-7.28c85.73-22.22,85.73-100.44,85.73-126.12
	c0-34.08-26.2-77.25-76.35-100.59c-17.19-42.71-68.69-86.41-150.81-86.41c-63.51,0-123.56,36.41-161.4,89.41
	C1758.86-12.61,1342.67-67.71,934.52,105.47c-170.03,72.14-300.43,149.24-399.14,232.34c-47.82,7.81-102.17,18.02-164.7,33.18
	C49.15,448.84,24.15,666.84,24.15,731.85c0,57.43,32.51,152.77,107.5,194.88c27.18,44.44,69.96,81.98,130.85,89.26l0.23,5.03
	c-27.33-4.05-63.43-0.6-109.53,19.97c-63.06,28.08-113.28,89.11-137.6,167.48c-28.38,91.21-16.82,192.18,30.93,269.95
	c18.92,30.93,44.29,56.83,74.69,76.95c39.04,58.78,102.09,98.57,178.67,112.3c96.69,17.34,206.74-8.78,280.53-66.59
	c39.69-31.53,70.82-72.52,90.53-119.21c243,44.44,534.5,2.18,686.06-53.3c502.44-184,684.63-460.03,743.86-584.64
	c26.2,17.87,59.08,27.93,95.41,27.93c128.59,0,218.38-94.59,218.38-230.01C2414.44,534.27,2349.73,464.31,2292,418.81L2292,418.81z"/></svg>