<svg version="1.1" id="Layer_1" xmlns="http://www.w3.org/2000/svg" xmlns:xlink="http://www.w3.org/1999/xlink" x="0px" y="0px" viewBox="0 0 2500 1673" style="enable-background:new 0 0 2500 1673;" xml:space="preserve"><style type="text/css">
	.st0{fill:#CF4037;}
	.st1{fill:#FFFFFF;}
</style><path class="st1" d="M2152.07,328.35c-58.63-39.86-44.59-117.26,16.44-117.26s53.98,82.13,53.98,82.13
	c63.36-16.44,68.01-68.01,68.01-103.22s-44.59-93.84-133.7-93.84c-89.11,0-178.29,86.78-178.29,187.67s49.25,129.04,138.43,206.44
	s46.92,161.85-18.77,161.85c-65.69,0-56.3-79.72-56.3-79.72c-89.18,56.3-51.65,206.44,84.45,206.44
	c105.55,0,194.73-72.74,194.73-206.44S2210.7,368.22,2152.07,328.35z"/></svg>