<svg version="1.1" id="Layer_1" xmlns="http://www.w3.org/2000/svg" xmlns:xlink="http://www.w3.org/1999/xlink" x="0px" y="0px" viewBox="0 0 2500 1673" style="enable-background:new 0 0 2500 1673;" xml:space="preserve"><style type="text/css">
	.st0{fill:#CF4037;}
	.st1{fill:#FFFFFF;}
</style><path d="M267.6,1438.03c-12.64-26.53-18.55-55.77-17.19-85.13c4.65-140.76,150.14-131.37,150.14-131.37
	c11.19-49.55-12.46-101.19-68.69-111.33c3.38,14.71,3.3,30.55-0.23,46.24c0,0-145.48-9.38-150.14,131.37
	C179.02,1361.31,215.73,1418.21,267.6,1438.03L267.6,1438.03z M2222.49,277.83c-1.35-23.72-9.76-66.81-53.98-66.81
	c-60.96,0-75.07,77.4-16.44,117.26c10.66,7.21,22.97,15.46,36.03,24.92C2175.8,320.55,2189.38,285.86,2222.49,277.83z
	 M2290.5,189.93c0,27.85-3,66.06-35.73,88.88c42.19,14.04,36.63,79.42,36.63,79.42c63.36-16.44,68.01-68.01,68.01-103.22
	c0-25.9-24.1-64.33-72.14-82.95C2289.33,177.8,2290.42,183.83,2290.5,189.93L2290.5,189.93z M2110.33,651
	c-0.23-8.11,0.38-13.66,0.38-13.66c-6.76,4.28-12.76,9.16-18.09,14.41c1.73,0.08,3.6,0.23,5.48,0.23
	C2102.2,652.04,2106.3,651.71,2110.33,651L2110.33,651z M2145.32,520.76c-8.3-11.22-17.85-21.47-28.45-30.55
	c-10.7-9.28-21.46-18.49-32.28-27.63C2100.2,481.65,2120.62,499.66,2145.32,520.76z M2268.06,426.47
	c30.25,37.61,52.92,85.2,52.92,145.79c0,133.7-89.18,206.44-194.73,206.44c-20.57,0-38.89-3.53-54.88-9.53
	c17.34,41.21,59.61,74.62,123.79,74.62c105.55,0,194.73-72.74,194.73-206.44C2389.89,534.65,2324.81,469.33,2268.06,426.47
	L2268.06,426.47z M1599.34,972.83c-44.14,41.06-67.19,35.43-79.12,15.99c-10.66,22.75-30.03,45.19-64.86,59.61
	c-30.03,12.46-57.35,14.79-80.62,8.71c24.92,59.91,79.8,85.28,149.54,56.38C1620.43,1073.72,1599.34,972.83,1599.34,972.83
	L1599.34,972.83z M1433.81,389.99l67.94-24.25l-0.98-84.9c0,0-11.56,1.88-67.94,23.27L1433.81,389.99z M1288.25,568.5l-20.34,7.66
	l-1.73,91.73l22.82-8.63L1288.25,568.5z M1535.98,566.17c2.4-44.7,10.45-88.92,23.95-131.6l-38.96,13.96v32.28l-85.88,32.36
	l3.75,338.34c0,0-7.88,126.34,68.69,74.77c0-5.93,0.23-9.61,0.23-9.61L1504,578.34L1535.98,566.17L1535.98,566.17z M1197.86,570.38
	l-24.85,10.21l5.48,336.61c0,0-7.81,149.31,69.96,104.5c-1.95-21.54-1.05-39.34-1.05-39.34l-6.46-395.92l-43.69,16.37
	L1197.86,570.38L1197.86,570.38z M1172.04,520.53c10.58-2.03,19.44-5.71,26.95-10.36l0.68-36.33l33.26-11.86
	c3.98-13.89,5.18-27.55,5.18-37.99c0-32.05-15.61-93.01-72.97-96.01c2.85,11.26,4.05,22.15,4.05,30.93
	c0,32.88-11.71,98.49-86.78,98.49l-4.95-0.15c4.5,20.49,14.26,42.56,34.53,55.03l59.53-24.4L1172.04,520.53L1172.04,520.53z
	 M1263.93,1078.45c-12.91,31.68-41.74,63.58-104.2,73.34c-14.45,2.46-29.21,2.33-43.62-0.38c15.46,40.91,47.22,75.6,112.53,65.46
	c136.03-21.09,112.6-147.81,112.6-147.81C1300.26,1105.4,1277.06,1099.09,1263.93,1078.45L1263.93,1078.45z M1029.41,638.39
	c-10.01-1.78-20.28-1.34-30.1,1.28l-1.43,73.42c0,0-46.92-22.97-78.22,4.2c-11.19,20.72-17.12,37.46-17.12,37.46
	c-0.44-2.92-0.99-5.83-1.65-8.71c-5.33,14.41-8.56,33.48-8.56,58.55v436.3l-79.27,30.18l0.38,91.21l147.81-56.3v-436.3
	c0-87.08,39.04-102.02,69.66-100.44L1029.41,638.39L1029.41,638.39z"/></svg>