<svg version="1.1" id="Layer_1" xmlns="http://www.w3.org/2000/svg" xmlns:xlink="http://www.w3.org/1999/xlink" x="0px" y="0px" viewBox="0 0 2500 1673" style="enable-background:new 0 0 2500 1673;" xml:space="preserve"><style type="text/css">
	.st0{fill:#CF4037;}
	.st1{fill:#FFFFFF;}
</style><path class="st1" d="M274.96,1358.08c1.13-33.93,11.71-60.28,31.53-78.3c2.63-2.4,5.4-4.65,8.26-6.68
	c22.9,40.24,53.82,74.02,90.76,102.32c-39.19,38.89-82.5,54.2-121.46,43.17C277.18,1399.19,274.09,1378.65,274.96,1358.08
	L274.96,1358.08z M2208.53,338.86c-0.76-5.23-0.35-10.56,1.2-15.61c0.23-0.98,0.68-1.8,1.05-2.7l17.72-4.58
	c8.71-2.25,16.67-5.18,23.8-8.56c1.69,1.04,3.23,2.3,4.58,3.75c11.86,12.84,12.54,40.69,11.86,49.4l-2.4,28.23
	C2248.48,370.57,2229.14,353.88,2208.53,338.86L2208.53,338.86z"/></svg>