<svg version="1.1" id="Layer_1" xmlns="http://www.w3.org/2000/svg" xmlns:xlink="http://www.w3.org/1999/xlink" x="0px" y="0px" viewBox="0 0 496.07 212.12" style="enable-background:new 0 0 496.07 212.12;" xml:space="preserve"><style type="text/css">
	.st0{fill:#3382C3;}
</style><path class="st0" d="M370.35,17.11c2.95,0,5.9,0,8.85,0c1.25,0.13,2.49,0.28,3.74,0.39c12.71,1.13,24.6,4.89,35.71,11.15
	c31.59,17.81,49.29,53.55,44.3,89.42c-2.64,18.99-10.42,35.61-23.75,49.35c-19.81,20.42-44.09,29.47-72.48,27.27
	c-10.82-0.84-21.12-3.76-30.84-8.58c-20.23-10.06-34.7-25.55-43.44-46.39c-0.11-0.26-0.25-0.5-0.49-0.98
	c0.19,6.73-0.22,13.09-1.64,19.37c-1.99,8.78-5.73,16.64-12.38,22.87c-8.92,8.35-19.74,12-31.77,12.06
	c-25.17,0.12-50.33,0.04-75.5,0.04c-0.42,0-0.85,0-1.29,0c0-58.09,0-116.06,0-174.1c0.48,0,0.87,0,1.26,0
	c23.94,0,47.89-0.05,71.83,0.02c10.91,0.04,21.19,2.74,30.7,8.11c8.83,4.99,15.28,12.08,18.61,21.79
	c2.06,6.01,2.45,12.23,2.18,18.51c-0.02,0.36,0,0.72,0,1.23c0.19-0.21,0.25-0.25,0.28-0.3c0.07-0.12,0.13-0.25,0.19-0.38
	c8.01-16.59,19.94-29.58,35.85-38.87c10.59-6.18,22.01-9.95,34.2-11.34C366.43,17.5,368.39,17.31,370.35,17.11z M418.76,106.08
	c-0.02-24.32-19.64-43.93-43.95-43.95c-24.32-0.02-43.98,19.68-43.96,44.04c0.02,24.28,19.72,43.94,44,43.9
	C399.17,150.03,418.79,130.37,418.76,106.08z M212.29,152.15c0.51,0,0.9,0,1.3,0c7.47,0,14.95-0.02,22.42,0.01
	c5.07,0.02,8.49-2.48,10.58-6.92c1.41-3,1.63-6.22,1.32-9.49c-0.66-6.86-5.53-10.39-11.66-10.24c-7.54,0.19-15.09,0.05-22.63,0.05
	c-0.42,0-0.84,0-1.33,0C212.29,134.45,212.29,143.23,212.29,152.15z M212.29,87.62c0.25,0.02,0.4,0.04,0.54,0.04
	c8.23,0,16.46,0,24.69-0.01c0.39,0,0.79-0.07,1.16-0.18c3.97-1.09,6.78-3.51,8.27-7.37c1.18-3.06,1.32-6.24,0.82-9.45
	c-0.91-5.81-5-9.28-10.86-9.28c-7.76,0-15.53,0-23.29,0c-0.42,0-0.84,0-1.33,0C212.29,70.19,212.29,78.87,212.29,87.62z M286.6,92.9
	c-2.21,3.08-4.99,5.79-8.38,7.85c-3.4,2.06-7.14,3.18-11.07,4.1c8.19,2.77,15.07,7.14,19.46,14.62c-0.26-4.45-0.72-8.89-0.72-13.33
	C285.9,101.7,286.35,97.27,286.6,92.9z"/></svg>