<svg version="1.1" id="Layer_1" xmlns="http://www.w3.org/2000/svg" xmlns:xlink="http://www.w3.org/1999/xlink" x="0px" y="0px" viewBox="0 0 496.07 212.12" style="enable-background:new 0 0 496.07 212.12;" xml:space="preserve"><style type="text/css">
	.st0{fill:#3382C3;}
</style><path class="st0" d="M32.29,193.16c0-58.03,0-116.07,0-174.1c0.35-0.03,0.71-0.09,1.07-0.09c15.24,0,30.49,0,45.73,0
	c0.38,0,0.77,0,1.31,0c0,21.96,0,43.79,0,65.61c10.28,0,20.4,0,30.66,0c0-21.89,0-43.72,0-65.51c16.08,0,32.01,0,47.95,0
	c0,58.03,0,115.96,0,173.92c-16.03,0-31.97,0-48.02,0c0-21.48,0-42.89,0-64.28c-10.26,0-20.42,0-30.62,0c0,10.76,0,21.44,0,32.11
	c0,10.7,0,21.4,0,32.24c-0.58,0-1.04,0-1.49,0c-15.06,0-30.13,0-45.19,0C33.21,193.07,32.75,193.13,32.29,193.16z"/></svg>