<svg version="1.1" id="Layer_1" xmlns="http://www.w3.org/2000/svg" xmlns:xlink="http://www.w3.org/1999/xlink" x="0px" y="0px" viewBox="0 0 2500 1259" style="enable-background:new 0 0 2500 1259;" xml:space="preserve"><style type="text/css">
	.st0{fill:#ED1C24;}
	.st1{fill:#048743;}
</style><path class="st1" d="M2034.5,1064.36L2034.5,1064.36c-14.87,14.97-34.32,29.82-53.43,35.89c-17.98,5.79-69.31,10.27-84.42-32.09
	c-3.24-9.19-0.58-12.02,7.72-14.48c12.37-3.68,44.25-13.06,77.93-25.68c30.53-11.4,57.82-25.4,66.33-31.1
	c15.29-10.02,17.54-24.14,10.85-39.34c-21.45-48.21-69.96-98.67-150.6-83.33c-64.12,12.23-110,69.93-110,135.93
	c0,81.75,49.24,129.52,111.94,144.35c57.93,13.77,126.05-14.32,155.21-61.54C2077.58,1074.78,2045.05,1053.19,2034.5,1064.36z
	 M1889.36,1000.04L1889.36,1000.04c-3.77-10.39-3.47-33.52,3.59-52.57c4.8-12.81,11.89-22.83,24.37-27.82
	c14.05-5.65,26.07-4.11,35.47,1.31c10.76,6.19,18.41,18.44,23.33,34.97c3.38,11.49,2.67,23.63-1.1,28.16
	c-5.45,6.62-13.93,9.93-23.93,13.52c-7.62,2.71-15.3,5.28-23.01,7.72C1905.3,1012.46,1894.67,1014.45,1889.36,1000.04z"/></svg>