<svg version="1.1" id="Layer_1" xmlns="http://www.w3.org/2000/svg" xmlns:xlink="http://www.w3.org/1999/xlink" x="0px" y="0px" viewBox="0 0 2500 1259" style="enable-background:new 0 0 2500 1259;" xml:space="preserve"><style type="text/css">
	.st0{fill:#ED1C24;}
	.st1{fill:#048743;}
</style><path class="st1" d="M1462.2,1064.36c-14.9,14.97-34.32,29.82-53.38,35.89c-18.02,5.79-69.36,10.27-84.44-32.09
	c-3.27-9.19-0.6-12.02,7.7-14.48c12.37-3.68,44.28-13.06,77.93-25.68c30.55-11.4,57.82-25.4,66.33-31.1
	c15.31-10.02,17.56-24.14,10.85-39.34c-21.45-48.21-69.93-98.67-150.61-83.33c-64.09,12.23-110,69.93-110,135.93
	c0,81.75,49.24,129.52,111.94,144.35c57.93,13.77,126.08-14.32,155.23-61.54C1505.31,1074.78,1472.75,1053.19,1462.2,1064.36z
	 M1317.07,1000.04L1317.07,1000.04c-3.73-10.39-3.47-33.52,3.59-52.57c4.8-12.81,11.89-22.83,24.37-27.82
	c14.05-5.65,26.07-4.11,35.47,1.31c10.76,6.19,18.44,18.44,23.33,34.97c3.4,11.49,2.67,23.63-1.08,28.16
	c-5.49,6.62-13.98,9.93-23.95,13.52c-7.62,2.71-15.28,5.29-22.99,7.72C1333.05,1012.46,1322.38,1014.45,1317.07,1000.04z"/></svg>