<svg version="1.1" id="Layer_1" xmlns="http://www.w3.org/2000/svg" xmlns:xlink="http://www.w3.org/1999/xlink" x="0px" y="0px" viewBox="0 0 2500 1259" style="enable-background:new 0 0 2500 1259;" xml:space="preserve"><style type="text/css">
	.st0{fill:#ED1C24;}
	.st1{fill:#048743;}
</style><path class="st0" d="M1065.84,637.88c-1.59,1.16-3.75,1.16-5.33,0c-1.66-1.19-2.32-3.06-1.72-4.87l72-221.69L942.37,274.43
	c-1.58-1.14-2.23-3.18-1.61-5.03c0.56-1.88,2.29-3.16,4.25-3.15h232.91l71.96-221.46c0.6-1.88,2.35-3.15,4.32-3.15
	c2.02,0,3.7,1.33,4.32,3.15l71.94,221.46h232.93c1.91,0,3.7,1.22,4.32,3.15c0.61,1.86-0.06,3.9-1.66,5.03l-188.47,136.88
	l72.01,221.6c0.57,1.84-0.07,3.77-1.7,4.97c-1.59,1.16-3.75,1.16-5.33,0L1254.2,500.95L1065.84,637.88L1065.84,637.88z"/></svg>