<svg version="1.1" id="Layer_1" xmlns="http://www.w3.org/2000/svg" xmlns:xlink="http://www.w3.org/1999/xlink" x="0px" y="0px" viewBox="0 0 2500 1259" style="enable-background:new 0 0 2500 1259;" xml:space="preserve"><style type="text/css">
	.st0{fill:#ED1C24;}
	.st1{fill:#048743;}
</style><path class="st1" d="M452.33,823.27c4.23-1.96,13.06-5.96,17.38-8c3.56-1.7,4.5-4.99,3.84-9.65c-0.62-4.19-1.59-11.33-2.18-15.73
	c-0.78-5.57-4.8-6.78-11.59-6.78H332c-6.78,0-10.69,1.21-11.47,6.78c-0.6,4.39-1.58,11.54-2.18,15.73
	c-0.69,4.67,0.25,7.89,3.73,9.75c4.55,2.46,10.92,6.05,15.04,8.28c5.49,3.01,9.1,9.24,9.2,24l0.02,66.72c0,0.01,0,0.03,0,0.04
	c-0.01,4.5-3.66,8.15-8.16,8.14h-71.54c0,0-0.01,0-0.01,0c-4.51-0.01-8.16-3.67-8.15-8.18l0.02-66.72c0.09-14.76,3.7-20.99,9.22-24
	c4.09-2.23,10.48-5.82,15.04-8.28c3.47-1.86,4.39-5.08,3.7-9.75c-0.6-4.19-1.59-11.33-2.18-15.73c-0.78-5.57-4.67-6.78-11.47-6.78
	H145.01c-6.78,0-10.81,1.21-11.56,6.78c-0.6,4.39-1.59,11.54-2.18,15.73c-0.69,4.67,0.28,7.95,3.84,9.65
	c4.3,2.04,13.13,6.04,17.36,8c9.31,4.32,12.9,14.64,12.92,27.42l0.02,228.91c0,11.84-3.54,23.11-11.86,26.97
	c-4.23,1.97-14,6.32-18.49,8.41c-3.29,1.52-4.37,4.25-3.77,9.57c0.46,4.18,1.7,16.78,2.16,21.17c0.57,5.61,4.78,6.8,11.56,6.8
	h134.01c7.24,0,10.97-2.02,11.45-6.8c0.46-4.39,1.68-16.32,2.14-20.51c0.53-4.69,0.39-8.35-3.19-9.98
	c-5.22-2.35-14.44-6.6-18.67-8.48c-7.84-3.47-12.16-13.08-12.25-27.45l-0.02-92.58c0-4.51,3.65-8.16,8.16-8.17h71.54
	c0.01,0,0.02,0,0.02,0c4.5,0.01,8.15,3.66,8.14,8.17l-0.02,92.58c-0.09,14.36-4.41,23.98-12.23,27.45
	c-4.25,1.88-13.47,6.14-18.67,8.48c-3.61,1.63-3.72,5.29-3.22,9.98c0.46,4.18,1.68,16.11,2.14,20.51c0.48,4.78,4.21,6.8,11.45,6.8
	h134c6.78,0,11.01-1.19,11.59-6.8c0.44-4.39,1.7-16.99,2.16-21.17c0.57-5.31-0.48-8.05-3.77-9.57c-4.48-2.09-14.28-6.44-18.51-8.41
	c-8.32-3.86-11.84-15.13-11.84-26.97l0.02-228.91C439.46,837.91,443.04,827.59,452.33,823.27z"/></svg>