<svg version="1.1" id="Layer_1" xmlns="http://www.w3.org/2000/svg" xmlns:xlink="http://www.w3.org/1999/xlink" x="0px" y="0px" viewBox="0 0 2500 1259" style="enable-background:new 0 0 2500 1259;" xml:space="preserve"><style type="text/css">
	.st0{fill:#ED1C24;}
	.st1{fill:#048743;}
</style><path class="st1" d="M1201.73,1098.33c-6.39,3.29-13.1,9.63-16.97,7.5c-2.87-1.56-3.15-4.09-3.15-10.3v-144.9h0
	c0-47.84-21.68-66.1-46.78-74.12c-28.99-9.22-63.98,5.95-81.93,14.25c-4.74,2.19-9.44,4.48-14.09,6.87
	c-4.64-10.9-7.1-13.98-13.98-13.98h-84.9c-6.78,0-10.81,1.22-11.56,6.78c-0.62,4.39-1.54,11.38-2.14,15.52
	c-0.64,4.44-0.09,7.82,3.45,9.82c2.21,1.26,6.94,4,10.28,5.89c5.68,3.17,10.81,11.36,10.85,28.85l0.02,130.3
	c0,14.4-4.78,23.15-10.64,26.42c-5.03,2.77-10.05,5.57-15.04,8.41c-3.45,1.93-4.39,4.6-3.79,9.84c0.46,4.16,1.63,15.84,2.09,20.23
	c0.55,5.61,4.78,6.8,11.56,6.8h119.09c7.63,0,10.97-1.91,11.47-6.8c0.44-4.39,1.59-15.27,1.95-19.45c0.51-5.86,0.23-8.48-3.52-10.58
	c-5-2.73-9.98-5.5-14.94-8.3c-7.7-4.37-10.92-15.73-10.92-26.05l0.05-103.57c0-27.06,13.2-42.25,31.31-44.49
	c12.05-1.52,27.49,5.91,27.49,27.22v139.52c0,39.73,33.77,54.97,60.28,54.97c28.07,0,52.03-12.9,62.74-35.34
	c3.4-7.1-0.76-12.51-4.23-16.35C1211.8,1098.92,1208.21,1095.02,1201.73,1098.33z"/></svg>