<svg version="1.1" id="Layer_1" xmlns="http://www.w3.org/2000/svg" xmlns:xlink="http://www.w3.org/1999/xlink" x="0px" y="0px" viewBox="0 0 2500 1259" style="enable-background:new 0 0 2500 1259;" xml:space="preserve"><style type="text/css">
	.st0{fill:#ED1C24;}
	.st1{fill:#048743;}
</style><path class="st1" d="M2368.61,815.59c-0.94-6.09-3.01-9.6-7.7-12.69c4.25-1.61,8.46-6.85,8.46-14.44
	c0-12.07-10.92-15.81-17.24-15.81h-27.15v56.76h12.99v-22.19h4.87c6.58,0,10.37,1.8,12.21,7.89c1.36,4.18,1.95,8.25,4.64,14.3
	c5.43,0,7.79,0.02,14.12,0.02C2372.29,826.18,2369.53,821.75,2368.61,815.59L2368.61,815.59z M2348.5,796.04h-10.44v-13.03h9.17
	c3.98,0,8.76,1.61,8.76,6.18C2355.99,793.11,2352.95,796.05,2348.5,796.04z"/></svg>