<svg version="1.1" id="Layer_1" xmlns="http://www.w3.org/2000/svg" xmlns:xlink="http://www.w3.org/1999/xlink" x="0px" y="0px" viewBox="0 0 2500 1259" style="enable-background:new 0 0 2500 1259;" xml:space="preserve"><style type="text/css">
	.st0{fill:#ED1C24;}
	.st1{fill:#048743;}
</style><g><path d="M1105.73,419.29l-181.2-131.66c-4.25-3.13-7.21-7.48-8.66-12.3c-2.87,9.58,0.56,19.97,8.66,25.92l177.62,129.06
		L1105.73,419.29z"/><path d="M1463.21,658.72c-8.51,6.18-19.72,5.89-27.81,0.09l-181.21-131.66l-181.2,131.66c-8.09,5.79-19.31,6.09-27.82-0.09
		c-4.31-3.16-7.3-7.57-8.76-12.45c-2.88,9.66,0.61,20.1,8.76,26.07c8.51,6.19,19.73,5.89,27.81,0.09l181.2-131.66l181.21,131.66
		c8.09,5.79,19.31,6.09,27.81-0.09c8.17-5.95,11.66-16.4,8.77-26.05C1470.53,651.17,1467.53,655.58,1463.21,658.72z"/><path d="M1592.52,275.32c-1.45,4.82-4.4,9.18-8.66,12.3l-181.2,131.66l3.58,11.02l177.62-129.06
		C1591.96,295.3,1595.4,284.91,1592.52,275.32z"/></g></svg>