<svg version="1.1" id="Layer_1" xmlns="http://www.w3.org/2000/svg" xmlns:xlink="http://www.w3.org/1999/xlink" x="0px" y="0px" viewBox="0 0 2500 1259" style="enable-background:new 0 0 2500 1259;" xml:space="preserve"><style type="text/css">
	.st0{fill:#ED1C24;}
	.st1{fill:#048743;}
</style><path class="st1" d="M711.53,1064.36c-14.94,14.97-34.35,29.82-53.45,35.89c-18,5.79-69.31,10.27-84.42-32.09
	c-3.27-9.19-0.62-12.02,7.7-14.48c12.37-3.68,44.28-13.06,77.94-25.68c30.55-11.4,57.8-25.4,66.35-31.1
	c15.29-10.02,17.54-24.14,10.83-39.34c-21.43-48.21-69.96-98.67-150.6-83.33c-64.1,12.23-110.01,69.93-110.01,135.93
	c0,81.75,49.27,129.52,111.94,144.35c57.96,13.77,126.08-14.32,155.23-61.54C754.59,1074.78,722.04,1053.19,711.53,1064.36z
	 M566.35,1000.04L566.35,1000.04c-6.28-17.36-1.26-70.39,27.96-80.39c30.74-10.55,49.63,5.29,58.81,36.28
	c3.42,11.49,2.67,23.63-1.08,28.16c-5.45,6.62-15.17,10.55-23.93,13.52l-23.01,7.61C582.47,1012.91,571.66,1014.45,566.35,1000.04z"/></svg>