<svg version="1.1" id="Layer_1" xmlns="http://www.w3.org/2000/svg" xmlns:xlink="http://www.w3.org/1999/xlink" x="0px" y="0px" viewBox="0 0 2500 1259" style="enable-background:new 0 0 2500 1259;" xml:space="preserve"><style type="text/css">
	.st0{fill:#ED1C24;}
	.st1{fill:#048743;}
</style><path class="st1" d="M896.91,1115.69c-4.99-2.75-9.97-5.51-14.94-8.3c-6.21-3.45-10.78-11.93-10.9-25.7l0,0l-0.03-190.03
	c0-0.01,0-0.02,0-0.04c0-4.4-3.58-7.97-7.98-7.96h-90.26c-6.78,0-10.81,1.21-11.56,6.78c-0.62,4.39-1.54,11.38-2.14,15.52
	c-0.64,4.43-0.07,7.82,3.45,9.82c2.23,1.26,6.94,3.97,10.3,5.86c5.66,3.2,10.81,11.38,10.83,28.88l0.02,130.31
	c0,14.39-4.78,23.15-10.64,26.41c-5.02,2.78-10.03,5.57-15.04,8.39c-3.42,1.95-4.37,4.62-3.79,9.84c0.72,6.75,1.42,13.5,2.09,20.25
	c0.57,5.61,4.78,6.81,11.56,6.81H887c7.63,0,10.96-1.91,11.47-6.81c0.44-4.39,1.59-15.26,1.93-19.45
	C900.93,1120.41,900.63,1117.76,896.91,1115.69z"/></svg>