<svg version="1.1" id="Layer_1" xmlns="http://www.w3.org/2000/svg" xmlns:xlink="http://www.w3.org/1999/xlink" x="0px" y="0px" viewBox="0 0 2500 2500" style="enable-background:new 0 0 2500 2500;" xml:space="preserve"><style type="text/css">
	.st0{fill-rule:evenodd;clip-rule:evenodd;fill:#C23C40;}
</style><path class="st0" d="M439.64,1809.94l31.97,3.37c15.15,1.7,15.15,13.48,15.15,21.89v38.7h-148.1v-38.7c0-8.4,1.69-20.19,16.83-21.89
	l31.97-3.37v-31.97H195.61v31.97l31.98,3.37c13.46,1.7,15.14,13.48,15.14,21.89v124.54c0,8.43-1.67,20.22-15.14,21.89l-31.98,3.37
	v31.97h191.86v-31.97l-31.97-3.37c-15.15-1.67-16.83-13.45-16.83-21.89v-37.02h148.1v37.02c0,8.43,0,20.22-15.15,21.89l-31.97,3.37
	v31.97H631.5v-31.97l-31.97-3.37c-13.46-1.67-15.15-13.45-15.15-21.89v-124.54c0-8.4,1.69-20.19,15.15-21.89l31.97-3.37v-31.97
	H439.64V1809.94z"/></svg>