<svg version="1.1" id="Layer_1" xmlns="http://www.w3.org/2000/svg" xmlns:xlink="http://www.w3.org/1999/xlink" x="0px" y="0px" viewBox="0 0 2500 2500" style="enable-background:new 0 0 2500 2500;" xml:space="preserve"><style type="text/css">
	.st0{fill-rule:evenodd;clip-rule:evenodd;fill:#C23C40;}
</style><path class="st0" d="M1585.75,1431.27c26.93-11.78,43.75-25.25,53.85-35.37c8.4-6.72,31.97-31.97,48.82-50.49
	c9.55-9.57,18.54-19.69,26.93-30.3c6.74-8.4,21.89-26.93,28.6-35.34c1.71-3.33,0.01-6.71-3.36-6.71v0L508.64,1503.65l106.03,99.27
	l568.85-70.67c-10.1-5.05-11.78-10.1-11.78-16.82c0-6.74,5.05-13.48,15.14-15.15c5.06,0,314.72-45.45,336.6-48.82
	C1533.56,1449.76,1558.82,1444.72,1585.75,1431.27z"/></svg>