<svg version="1.1" id="Layer_1" xmlns="http://www.w3.org/2000/svg" xmlns:xlink="http://www.w3.org/1999/xlink" x="0px" y="0px" viewBox="0 0 2500 2500" style="enable-background:new 0 0 2500 2500;" xml:space="preserve"><style type="text/css">
	.st0{fill-rule:evenodd;clip-rule:evenodd;fill:#C23C40;}
</style><path class="st0" d="M2013.23,862.44c10.09-11.79,25.24-37.03,37.02-55.55c11.79-18.51,23.57-40.39,35.34-63.95
	c5.06-8.42,23.55-45.43,26.93-53.85c1.69-5.05-3.37-8.42-6.72-6.73c-28.62,11.78-55.55,21.88-82.47,33.66
	c-6.73,1.69-47.12,16.83-57.22,20.19c-10.08,3.36-48.81,16.82-69,23.55L380.75,1257.94c-35.36,11.78-57.24,25.23-57.24,53.85
	c0,11.79,5.06,26.94,16.83,37.02l31.97,30.3l397.19-102.67c-6.73-3.37-11.78-10.08-11.78-16.82c0-3.37,3.37-13.48,11.78-15.15
	l1119.17-299.55c11.78-5.06,38.7-11.79,69-31.98C1981.24,896.09,1996.38,882.63,2013.23,862.44z"/></svg>