<svg version="1.1" id="Layer_1" xmlns="http://www.w3.org/2000/svg" xmlns:xlink="http://www.w3.org/1999/xlink" x="0px" y="0px" viewBox="0 0 2500 2500" style="enable-background:new 0 0 2500 2500;" xml:space="preserve"><style type="text/css">
	.st0{fill-rule:evenodd;clip-rule:evenodd;fill:#C23C40;}
</style><path class="st0" d="M1313.1,1809.94h0.01v0l33.67,3.37c13.45,1.7,15.15,13.48,15.15,21.89v119.49l-126.23-166.61
	c-6.73-8.43-11.78-10.1-25.24-10.1h-164.94v31.97l31.97,3.37c15.15,1.7,16.83,13.48,16.83,21.89v124.54
	c0,8.43-1.69,20.22-16.83,21.89l-31.97,3.37v31.97h153.15v-31.97l-31.98-3.37c-13.46-1.67-15.15-13.45-15.15-21.89v-119.49
	l126.23,166.64c6.74,8.4,11.78,10.08,25.23,10.08h116.14v-181.76c0-8.4,1.67-20.19,16.82-21.89l31.97-3.37v-31.97H1313.1V1809.94z"/></svg>