<svg version="1.1" id="Layer_1" xmlns="http://www.w3.org/2000/svg" xmlns:xlink="http://www.w3.org/1999/xlink" x="0px" y="0px" viewBox="0 0 2500 2500" style="enable-background:new 0 0 2500 2500;" xml:space="preserve"><style type="text/css">
	.st0{fill-rule:evenodd;clip-rule:evenodd;fill:#C23C40;}
</style><path class="st0" d="M242.72,1419.51l201.97,201.94c5.06,5.06,20.21,20.18,35.34,37.03c20.21,18.51,23.57,28.59,30.3,38.7
	c6.73,10.12,11.79,25.27,15.15,35.34h178.4l-383.72-356.8c-23.55-21.85-35.34-48.78-35.34-69c0-45.45,40.39-69,75.73-80.78
	l1518.05-536.87c18.52-5.05,104.37-37.02,109.41-38.7c21.88-8.42,53.85-21.88,69-26.93c25.24-10.1,48.82-23.57,77.42-50.5
	c13.48-11.79,30.3-30.28,47.12-57.22c13.48-21.88,28.62-55.54,38.7-79.1c15.98-37.4,30.03-75.6,42.07-114.45
	c1.7-5.05-5.03-8.42-8.4-6.73c-13.45,8.42-84.15,42.07-141.37,69c-11.78,5.05-92.57,43.76-121.16,55.54
	c-25.25,11.78-92.57,42.07-116.14,52.16c-21.85,11.79-124.52,55.55-144.72,63.97l0,0L318.45,1130.03
	c-100.98,40.4-134.64,99.3-134.64,159.89C183.81,1333.67,204.01,1382.49,242.72,1419.51z"/></svg>