<svg version="1.1" id="Layer_1" xmlns="http://www.w3.org/2000/svg" xmlns:xlink="http://www.w3.org/1999/xlink" x="0px" y="0px" viewBox="0 0 2500 2500" style="enable-background:new 0 0 2500 2500;" xml:space="preserve"><style type="text/css">
	.st0{fill-rule:evenodd;clip-rule:evenodd;fill:#C23C40;}
</style><path class="st0" d="M1841.59,1148.52c10.08-11.78,28.6-35.34,42.07-52.16c10.08-13.46,18.52-26.93,25.23-37.02
	c6.74-10.09,21.89-37.03,30.3-48.81c1.69-3.39-1.67-8.43-5.05-6.74l0,0L394.2,1399.29l92.57,85.85l474.6-90.89
	c-8.4-5.05-13.46-8.4-13.46-16.82c0.13-7.68,5.85-14.11,13.46-15.15l770.81-149.79c10.1-1.69,37.03-6.74,62.27-23.57
	C1819.7,1173.78,1833.17,1156.96,1841.59,1148.52z"/></svg>