<svg version="1.1" id="Layer_1" xmlns="http://www.w3.org/2000/svg" xmlns:xlink="http://www.w3.org/1999/xlink" x="0px" y="0px" viewBox="0 0 2500 2500" style="enable-background:new 0 0 2500 2500;" xml:space="preserve"><style type="text/css">
	.st0{fill-rule:evenodd;clip-rule:evenodd;fill:#C23C40;}
</style><path class="st0" d="M2285.9,1981.61L2285.9,1981.61c-15.15-1.67-20.22-11.78-25.25-18.52l-111.07-169.97
	c-8.4-11.78-13.48-15.15-25.25-15.15h-181.76v31.97l42.07,5.07c6.74,0,15.15,8.4,8.4,20.19l-82.45,132.97
	c-3.37,5.05-6.74,11.78-16.85,13.45l-31.97,3.37v31.97h153.16V1985l-25.25-1.67c-11.78-1.7-18.52-10.1-11.78-18.52l11.78-20.22
	h148.11l10.1,16.85c10.08,13.45-1.7,20.19-13.48,20.19l-26.93,3.37v31.97h208.68V1985L2285.9,1981.61z M2014.92,1900.84l45.45-72.37
	l48.79,72.37H2014.92z"/></svg>