<svg version="1.1" id="Layer_1" xmlns="http://www.w3.org/2000/svg" xmlns:xlink="http://www.w3.org/1999/xlink" x="0px" y="0px" viewBox="0 0 2500 2500" style="enable-background:new 0 0 2500 2500;" xml:space="preserve"><style type="text/css">
	.st0{fill-rule:evenodd;clip-rule:evenodd;fill:#A73444;}
	.st1{fill-rule:evenodd;clip-rule:evenodd;fill:#1E3146;}
</style><path class="st1" d="M1446.36,1076.01c-69.15-34.56-172.89-9.87-735.98-380.33C147.3,325.23,957.35,191.87,957.35,191.87
	C117.66-0.77-356.53,488.25,458.48,1164.93l-212.41,148.19c261.78,158.06,479.12,414.9,395.15,760.65l-118.54,93.85
	c0,0,281.55,123.49,444.55,182.76C1253.71,2058.94,1589.59,1490.93,1446.36,1076.01z M1164.8,1732.96l-153.12-177.83l-212.39,34.58
	l98.79-158.04l-153.12-172.89l0,0l202.51,88.91l93.86-143.24l44.45,202.51l217.33,103.75l-192.64,19.75L1164.8,1732.96z"/></svg>