<svg version="1.1" id="Layer_1" xmlns="http://www.w3.org/2000/svg" xmlns:xlink="http://www.w3.org/1999/xlink" x="0px" y="0px" viewBox="0 0 2500 824" style="enable-background:new 0 0 2500 824;" xml:space="preserve"><style type="text/css">
	.st0{fill:url(#SVGID_1_);}
	.st1{fill:url(#SVGID_2_);}
	.st2{fill:url(#SVGID_3_);}
	.st3{fill:url(#SVGID_4_);}
</style><path class="st0" d="M1181.7,589.06L1181.7,589.06c-1.16,15.02-5.79,27.75-15.04,38.2c-10.42,9.27-23.15,13.9-38.19,15.01h-115.73
	c-15.04-1.16-27.77-5.79-37.03-15.01c-10.41-10.41-15.04-23.13-16.2-38.2V256.91h-197.9v349.5c0,46.3,9.26,86.79,27.78,119.16
	c18.52,32.42,45.13,56.71,78.7,72.91c34.72,16.2,72.91,25.51,119.19,25.51h194.43v-2.3c41.67,0,77.53-9.29,106.46-26.64
	c28.93-18.54,52.08-43.96,68.3-76.42c15.02-32.38,23.14-70.6,24.29-112.26V256.91H1181.7V589.06z"/></svg>