<svg version="1.1" id="Layer_1" xmlns="http://www.w3.org/2000/svg" xmlns:xlink="http://www.w3.org/1999/xlink" x="0px" y="0px" viewBox="0 0 2500 824" style="enable-background:new 0 0 2500 824;" xml:space="preserve"><style type="text/css">
	.st0{fill:url(#SVGID_1_);}
	.st1{fill:url(#SVGID_2_);}
	.st2{fill:url(#SVGID_3_);}
	.st3{fill:url(#SVGID_4_);}
</style><path class="st3" d="M2499.86,256.91L2499.86,256.91l-199.05,0v332.14c0,15.01-5.8,27.74-15.04,38.2c-9.27,9.26-22,13.89-37,15.01
	h-115.74c-16.2-1.16-28.94-5.79-38.19-15.01c-9.29-10.41-15.04-23.14-15.04-38.2V256.91h-199.05v349.5
	c1.18,46.3,9.29,86.79,28.95,119.16c19.64,32.42,45.11,56.71,78.68,72.91c34.73,16.2,74.06,25.51,119.18,25.51h193.29v-2.3
	c41.67,0,77.53-9.29,107.62-26.64c28.92-18.54,52.08-43.96,67.14-76.42c16.18-32.38,24.29-70.6,24.29-112.26L2499.86,256.91z"/></svg>