<svg version="1.1" id="Layer_1" xmlns="http://www.w3.org/2000/svg" xmlns:xlink="http://www.w3.org/1999/xlink" x="0px" y="0px" viewBox="0 0 2500 824" style="enable-background:new 0 0 2500 824;" xml:space="preserve"><style type="text/css">
	.st0{fill:url(#SVGID_1_);}
	.st1{fill:url(#SVGID_2_);}
	.st2{fill:url(#SVGID_3_);}
	.st3{fill:url(#SVGID_4_);}
</style><path class="st1" d="M508.17,277.75c-34.73-15.04-72.91-21.99-114.57-20.84H265.13l-49.76,5.8c-11.58,3.47-17.36,5.79-17.36,5.79V0
	H0.12v824h197.89V490.69c1.16-13.9,5.79-27.77,16.2-37.03c10.41-9.26,21.99-15.04,38.19-15.04h115.73
	c13.88,0,26.62,5.83,37.03,15.04c10.41,9.26,15.02,23.13,16.19,37.03V824h197.89V465.24c0-49.77-10.41-90.27-30.09-121.52
	C568.35,313.63,541.73,291.64,508.17,277.75z"/></svg>