<svg version="1.1" id="Layer_1" xmlns="http://www.w3.org/2000/svg" xmlns:xlink="http://www.w3.org/1999/xlink" x="0px" y="0px" viewBox="0 0 2500 2500" style="enable-background:new 0 0 2500 2500;" xml:space="preserve"><style type="text/css">
	.st0{fill-rule:evenodd;clip-rule:evenodd;fill:#3566A4;}
	.st1{fill-rule:evenodd;clip-rule:evenodd;fill:#FFFFFF;}
	.st2{fill:#FFFFFF;}
</style><path class="st1" d="M2116.03,922.08l-1.72,6.26c-17.25,51.1-34.47,97.78-54.08,151.05c-1.57,5.28-5.72,13.07-5.72,13.07
	c-22.7-27.35-67.38-40.83-104.13-35.12c-71.18,13.72-116.01,84.49-135.07,150.38c-10.26,36.85-11.18,81.44,12.79,110.94
	c23.92,29.51,75.29,39.84,115.92,25.87c15.3-2.15,40.71-21.52,40.71-21.52s-0.91,18.78,2.84,27.11l122.2-0.27l3.37-28
	c23.61-131.45,67.27-258.49,129.46-376.68c3.11-6.01,11.17-23.2,11.17-23.2l0,0L2116.03,922.08z M2007.73,1228.73
	c-14.85,15.3-31.21,23.32-47.57,20.21c-16.37-3.11-28.17-13.06-30.32-28.14c-4.28-33.98,10.57-69.27,41.3-85.59h0
	c16.86-9.69,43.46-6.37,52.61,11.72C2032.87,1165.06,2022.05,1213.9,2007.73,1228.73z"/></svg>