<svg version="1.1" id="Layer_1" xmlns="http://www.w3.org/2000/svg" xmlns:xlink="http://www.w3.org/1999/xlink" x="0px" y="0px" viewBox="0 0 2500 2500" style="enable-background:new 0 0 2500 2500;" xml:space="preserve"><style type="text/css">
	.st0{fill-rule:evenodd;clip-rule:evenodd;fill:#3566A4;}
	.st1{fill-rule:evenodd;clip-rule:evenodd;fill:#FFFFFF;}
	.st2{fill:#FFFFFF;}
</style><path class="st1" d="M487.9,928.65c0,0-1.44,7.03-6.16,14.29c-29.48,49.51-51.43,101.31-59.57,157.79
	c7.15-1.58,16.19-5.06,22.7-10.38c46.82-39.77,78.01-68.99,106.6-115.16c0,0,98.74-1.02,149.4-0.22
	c-7.76,10.73-19.45,21-32.45,32.54c-77.01,65.68-150.02,119.7-211.13,200.59c3.63,13.36,7.72,28.57,15.56,42.36
	c38.65,64.12,91.01,146.09,165.92,165.05c27.44,7,56.02-6.51,74.28-16.71c1.49,4.53-0.65,9.75-3.2,16.54
	c-32.63,60.04-94.8,88.89-162.07,89.06c-41.27-0.34-80.08-18.78-102.69-54.42c-35.46-51.57-51.87-110.06-75.2-168.01
	c-0.97-3.51-2.08-7.87-2.85-6.36c-25.29,40.5-34.05,148.46-34.05,148.46l-165.88,0.16c0,0,20.36-54.86,28.27-83.46
	c51.88-143.46,128.6-412.61,128.6-412.61L487.9,928.65L487.9,928.65z"/></svg>