<svg version="1.1" id="Layer_1" xmlns="http://www.w3.org/2000/svg" xmlns:xlink="http://www.w3.org/1999/xlink" x="0px" y="0px" viewBox="0 0 2500 2500" style="enable-background:new 0 0 2500 2500;" xml:space="preserve"><style type="text/css">
	.st0{fill-rule:evenodd;clip-rule:evenodd;fill:#3566A4;}
	.st1{fill-rule:evenodd;clip-rule:evenodd;fill:#FFFFFF;}
	.st2{fill:#FFFFFF;}
</style><path class="st1" d="M1044.46,1083.44c-29.58-25.87-70.75-37.52-111.35-27.31c-54.4,14.6-96.9,57.83-123.01,103.19l-2.5,2.79
	c-1.34-22.62-9.56-42.29-19.32-61.98c-13.51-25.77-40.14-41.81-66.86-48.86c-67.91-12.63-123.51,24.56-162.17,75.51
	c-27.83,38.21-45.5,78.23-41.46,136.12c4.27,34.71,19.26,69.53,53.49,87.17c41.1,19.21,100.76,15.19,136.92-12.4
	c36.11-20.05,53.98-53.07,77.95-83.76l0.75,1.5c3.57,28.69,7.11,58.12,27.56,80.15c19.7,21.28,46.38,28.29,74.68,26.28
	c71.1-1.65,135.81-59.92,163.86-119.97C1075.56,1194.55,1084.57,1126.03,1044.46,1083.44z M708.99,1218.57
	c-7.72,10.04-18.3,19.38-32.04,23.09c-16.82,2.88-33.62-2.55-41.89-16.95c-12.06-20.67-1.85-47.51,10.53-67
	c14.77-23.99,50.57-40.76,72.83-23.48C740.66,1151.48,715.48,1210.18,708.99,1218.57z M998.1,1164.93
	c-1.97,15.49-21.37,58.97-54.33,67.73c-12.24,2.14-23.68,2.83-35.1-7.09c-16.59-14.42-7.25-42.28,0.54-59.56
	c8.6-20.3,30.17-39.7,52.37-44.03h0c9.93-0.67,17.7-1.97,27.43,7.02S1000.1,1149.43,998.1,1164.93z"/></svg>