<svg version="1.1" id="Layer_1" xmlns="http://www.w3.org/2000/svg" xmlns:xlink="http://www.w3.org/1999/xlink" x="0px" y="0px" viewBox="0 0 2500 2500" style="enable-background:new 0 0 2500 2500;" xml:space="preserve"><style type="text/css">
	.st0{fill-rule:evenodd;clip-rule:evenodd;fill:#3566A4;}
	.st1{fill-rule:evenodd;clip-rule:evenodd;fill:#FFFFFF;}
	.st2{fill:#FFFFFF;}
</style><path class="st0" d="M1746.03,913.23c46.64-15.23,106.9-18.79,156.32,40.21c49.4,58.97,46.72,56.15,58.84,69.84
	c35.54-4.28,56.59,2.37,76.46,14.25c0,0,2.76-6.99,8.18-18.86c13.24-29.09,37.16-104.06,42.98-136.39
	c18.82,0.27,190.98,0.08,190.98,0.08s78.86,70.81,109.92,103.5c-25.73,57.08-54.51,112.62-74.15,172.02
	c-16.42,42.07-28.27,85.69-39.36,129.32c-11.8,39.86-22.52,100.76-26.07,122.68c-3.5,21.89-4.81,36.74-3.24,55.76l-153.41,0.18
	c0,0-5.21-5.8-8.31-10.62c-28.39,14.09-62.93,29.61-96.47,17.26c-37.39-12.44-63.38-40.65-89.6-64.85
	c-9.52,14.06-13.15,30.71-14.19,50.37l24.95,29.61c-3.24,17.33-15.58,31.54-24.9,46.52c-34.84,52.48-92.46,88.17-157.41,85.35
	c-63.44-4.33-122.1-23.67-162.89-76.03c-20.62-26.74-33.23-47.53-48.29-72.05l-152.1,0.13c0,0-46.22-47.82-70.53-66.12
	c-10.05,15.75-19.43,64.34-19.43,64.34s-126.39,3.27-138.56-0.86c-12.18-4.15-22.84-10.78-22.84-10.78
	c-39.97,26.82-92.94,50.49-142.4,26.7c-37.29-18.43-64.52-49.57-96.35-79.25c-8.09,5.73-16.95,13.42-25.41,20.14
	c-13.85,12.7-43.11,35.06-43.11,35.06l30.22,40.23c-14.27,59.41-65.3,124.56-129.59,136.09c-45.96,10.91-98.65,4.41-138.21-16.29
	c-40.36-16.17-73.72-43.58-104.77-77.04c-6.89,2.23-11.61,15.71-11.61,15.71l-227.78-0.4c0,0-75.55-74.68-113.65-112.56
	c28.99-79.66,61.04-158.54,86.98-239.73c36.99-105.38,94.72-317.23,94.72-317.23l268.06-0.04l52.29,49.41l126.13,0.12
	c0,0,75.61,72.5,119.81,112.25c14.63-10.17,30.98-21.06,50.13-26.19c26.1-10.35,58.1-13.01,87.29-7.21
	c29.19,5.77,61.4,15.5,95.69,59.45c0,0,9.47-23.76,12.92-32.07c21.08-59.38,31.63-87.27,47.29-145.33
	c63.71-0.19,184.88,0.23,184.88,0.23l82.38,69.69c0,0,13.24-24.93,18.07-37.42c13.24-28.53,25.28-74.64,25.28-74.64l223.17-0.13
	L1746.03,913.23z"/></svg>