<svg version="1.1" id="Layer_1" xmlns="http://www.w3.org/2000/svg" xmlns:xlink="http://www.w3.org/1999/xlink" x="0px" y="0px" viewBox="0 0 2500 2500" style="enable-background:new 0 0 2500 2500;" xml:space="preserve"><style type="text/css">
	.st0{fill-rule:evenodd;clip-rule:evenodd;fill:#3566A4;}
	.st1{fill-rule:evenodd;clip-rule:evenodd;fill:#FFFFFF;}
	.st2{fill:#FFFFFF;}
</style><path class="st2" d="M1768.05,1348.89c0,0,43.01-183.34,70.54-269.82c0.79-6.78,5.45-21.04,5.45-21.04l-124.99-0.32
	c0,0-32.02,133.85-50.89,196.26c-6.08,20.36-14.34,48.27-23.97,67.87c0,0-5.56-10.09-7.39-16.64
	c-16.24-42.74-25.03-72.07-29.23-113.56c-2.66-28.33-0.87-55.07,0.93-78.8c10.61-76.08,20.17-151.59,58.95-215.35l-174.64,0.06
	c0,0-9.73,25.37-11.32,32.15c-51.57,126.2-114.55,246.28-188.94,362.52c-10.1,20.25-31.84,57.78-31.84,57.78l142.41-0.12
	c2.41-12.8,8.42-30.26,13.13-43.03c9.33-19.51,14.88-41.08,27.29-59.08l68.83-0.16c2.45,65.61,6.41,134.74,33.41,191.54
	c20.26,42.39,62.01,75.16,111.73,71.06c30.57-1.98,56.69-16.08,80.53-33.97c23.07-18.73,50.95-53.86,58.87-87.71
	c-16.72,9.83-24.51,11.11-39.87,16.25c-37.52,4.94-70.22-11.92-89.83-42.26c-3.01-5.3-7.34-13.54-7.34-13.54
	S1734.43,1348.62,1768.05,1348.89z M1512.34,1118.76c-0.83,16.3-2.5,60.27-2.5,60.27h-44.3l33.49-72.8l18.52-42.62
	C1517.54,1063.61,1513.18,1102.23,1512.34,1118.76z"/></svg>