<svg version="1.1" id="Layer_1" xmlns="http://www.w3.org/2000/svg" xmlns:xlink="http://www.w3.org/1999/xlink" x="0px" y="0px" viewBox="0 0 2038.6 1779.4" style="enable-background:new 0 0 2038.6 1779.4;" xml:space="preserve"><style type="text/css">
	.st0{fill:#CC2131;}
	.st1{fill:#7F3733;}
	.st2{fill:#ECB73B;}
	.st3{fill:#FFFFFF;}
</style><path class="st3" d="M1392,1242.7c1.9,0,3.9,0,5.7,0.4c2.2,0.5,1.5,2.9,1,4.6c-0.5,1.9-1.6,5.3-1.3,7.1h7.5l0.2-0.5
	c-1.4-0.8,0.7-7.7,1-8.8c0.7-2.7,0.1-4.7-3.8-5.1v-0.1c4.7-0.5,6.6-3.7,7.5-6.7c1.4-5.2-2.6-6.7-8.5-6.7h-12.9l-7.9,28h6.8l3.4-12
	L1392,1242.7z M1415.1,1254.7l3.8-7.1h8l-0.2,7.1h7.3l-0.4-28h-9.2l-16.6,28H1415.1z M1460.5,1232.2c-0.7,2.6-1.4,5.2-1.9,7.9
	c-0.6,2.7-1.1,5.4-1.6,8h-0.1c-0.2-3.8-0.8-7.5-1.7-11.1l-2.5-10.2h-7l-7.9,28h6.8l1.5-5.3c0.6-2.2,1.3-5,1.9-7.8s1.1-5.7,1.5-8h0.1
	c0.4,4.4,0.9,7.8,1.7,11.1l2.5,10h7.1l7.9-28h-6.8L1460.5,1232.2z M1480.6,1254.7c1.7,0,3.6-0.1,5.3-0.7c6.3-2.5,8.1-8.9,9.6-14.4
	c1.3-4.6,1.7-7.7,0.7-9.7c-1.4-2.6-4.5-3.2-6.2-3.2h-14.2l-7.9,28L1480.6,1254.7L1480.6,1254.7z"/></svg>