<svg version="1.1" id="Layer_1" xmlns="http://www.w3.org/2000/svg" xmlns:xlink="http://www.w3.org/1999/xlink" x="0px" y="0px" viewBox="0 0 2038.6 1779.4" style="enable-background:new 0 0 2038.6 1779.4;" xml:space="preserve"><style type="text/css">
	.st0{fill:#CC2131;}
	.st1{fill:#7F3733;}
	.st2{fill:#ECB73B;}
	.st3{fill:#FFFFFF;}
</style><path d="M633.2,502.8H504.6c0,0-27.4,1.5-42.2,12.6c-23.7,17.8-33.2,45.4-33.2,45.4l-178.2,819c0,0,64.9-26.8,165.2-26.8
	s301.7,47.1,301.7,47.1s59,14.7,92.3,14.7c30.3,0,52.9-26.1,57.2-34.4c3.5-6.9,22.4-115.2,22.4-115.2s-42.1,19.7-68.4,20
	c-24.9,0.4-72.6-6.5-95-11.8c-20.2-4.8-71.5-20.7-93.6-26.1s-35.8-12.2-70.1-15.4c-34.4-3.2-45.2-5.4-60.6-5.4s-58.5,1.4-58.5,1.4
	l134.3-632.7c0,0,7.7-27.9,23.5-51.5C614.1,524.4,633.2,502.8,633.2,502.8L633.2,502.8z"/></svg>