<svg version="1.1" id="Layer_1" xmlns="http://www.w3.org/2000/svg" xmlns:xlink="http://www.w3.org/1999/xlink" x="0px" y="0px" viewBox="0 0 2038.6 1779.4" style="enable-background:new 0 0 2038.6 1779.4;" xml:space="preserve"><style type="text/css">
	.st0{fill:#CC2131;}
	.st1{fill:#7F3733;}
	.st2{fill:#ECB73B;}
	.st3{fill:#FFFFFF;}
</style><path class="st3" d="M881.3,625.8c0,0-13.9,4.9-22.9,13c-9,8.1-13.1,25-13.1,25s-9.6-18.4-20.2-25.9s-32.5-12.2-48-12.2
	c-15.6,0-57.7-5.1-110.6,34.7c-53,39.8-87.1,112-101.6,157.7s-33.3,94.5-30.8,175.9c2.4,81.4,29.2,108.1,56.8,137.1
	s65,30.7,87.9,30.7s44-5,56-11.7c12.1-6.7,21.3-18.2,21.3-18.2s8.2,13.1,14.5,19.8c6.4,6.7,21.3,10,21.3,10h113.8
	c0,0-26.1-16.7-23.7-66.3c1.3-26.5,14.7-81.4,14.7-81.4l70.6-337.8c0,0,11.4-24.9,18.8-33.2c7.3-8.4,16.1-17.2,16.1-17.2H881.3z
	 M821.9,750.1l-57,269.7c0,0,0.2,47.2-47,57.1c-27.8,5.9-39.8-16.5-43.9-28.2c-2-5.7-13.9-99.7,1.6-166.9
	c18.4-79.2,45.4-118.3,63.4-140c18-21.7,36.8-34,54.6-32.3c17.8,1.7,25.1,11.5,26.8,15.6C822.1,729.2,821.9,750.1,821.9,750.1z"/></svg>