<svg version="1.1" id="Layer_1" xmlns="http://www.w3.org/2000/svg" xmlns:xlink="http://www.w3.org/1999/xlink" x="0px" y="0px" viewBox="0 0 2038.6 1779.4" style="enable-background:new 0 0 2038.6 1779.4;" xml:space="preserve"><style type="text/css">
	.st0{fill:#CC2131;}
	.st1{fill:#7F3733;}
	.st2{fill:#ECB73B;}
	.st3{fill:#FFFFFF;}
</style><path class="st3" d="M1757,625.7h-148.2c0,0-90.1,0-120.1,22.2c-29.6,21.9-44.8,54-49.7,85.5c-4.9,31.5,2.3,68.2,18.6,96.4
	c16.3,28.2,38.2,59.4,74.8,87c36.6,27.5,54.6,53.8,57.8,73c3.3,19.2-3.1,36.8-8.2,44.8c-7.4,11.7-26.8,25.1-35.8,26.7
	c-9,1.7-100.7,2.5-100.7,2.5s-33.3-4.2-46.3,6.5c-9.5,7.8-15.7,21.1-18.1,30c-2.5,9-12.9,61.3-12.9,61.3h169
	c0,0,127.6,7.3,179.8-84.7c52.7-92.8,8.8-161.9-2.5-178.4c-9.9-14.5-30.9-39-46.4-50.7s-67.4-49.6-76.4-60.5s-18-29.8-12.3-45.7
	s11.7-17.5,19.6-20c8-2.5,103.2-0.8,103.2-0.8s16.1-2.3,23.5-9s13.9-20.9,13.9-20.9L1757,625.7z"/></svg>