<svg version="1.1" id="Layer_1" xmlns="http://www.w3.org/2000/svg" xmlns:xlink="http://www.w3.org/1999/xlink" x="0px" y="0px" viewBox="0 0 2038.6 1779.4" style="enable-background:new 0 0 2038.6 1779.4;" xml:space="preserve"><style type="text/css">
	.st0{fill:#CC2131;}
	.st1{fill:#7F3733;}
	.st2{fill:#ECB73B;}
	.st3{fill:#FFFFFF;}
</style><path class="st3" d="M1088.6,625.7c0,0-25.9-1.2-36.6,12.2c-10.6,13.4-15.7,16.9-18.8,30.9c-3.1,14-7.1,32.3-7.1,32.3l-64.4,294.5
	c0,0-16.3,74.1,1.6,107.2c18,33.2,25.3,39.6,47.2,48c21.9,8.4,64.2,10.9,64.2,10.9s50.5,9,85.4-17.5s33.3-29.8,33.3-29.8
	s6.7,38.8-16.1,71.3c-22.9,32.5-36,44.9-57.8,53.2c-21.9,8.3-58.2,7.5-88.5,4.2c-30.2-3.3-39-9.2-55.4-9.2
	c-16.3,0-31.7-0.8-44.8,9.2s-15.3,14.8-17.8,22.3s-19.6,98-19.6,98s34.9-9.3,83-7.5c66.6,2.5,98.9,11.7,133.2,13.3
	c34.3,1.7,79.9-10.2,108.3-31.7s43.7-45.5,62.5-87.8c18.8-42.4,30.8-101.2,34.9-117c4.1-15.9,87.9-448.3,87.9-448.3
	s5.5-20.6,12.9-29.8s24.5-28.9,24.5-28.9h-110.5c0,0-18,0-30.2,11.3c-11.7,10.8-17,17.5-18.6,23.4s-7.4,37.3-7.4,37.3l-63.3,298.7
	c0,0-10,44-22.9,54.9c-12.9,10.8-35.5,17.3-47.8,18.1c-12.3,0.8-30.8-2.3-37.4-9c-6.5-6.7-11.4-18.6-12.3-29.2
	c-0.8-10.6-1.6-20.7,1.6-31.5c3.3-10.8,60.9-303.7,60.9-303.7s7.4-29,17.2-41.5c9.8-12.5,25.9-28.9,25.9-28.9L1088.6,625.7
	L1088.6,625.7z"/></svg>