<svg version="1.1" id="Layer_1" xmlns="http://www.w3.org/2000/svg" xmlns:xlink="http://www.w3.org/1999/xlink" x="0px" y="0px" viewBox="0 0 2038.6 1779.4" style="enable-background:new 0 0 2038.6 1779.4;" xml:space="preserve"><style type="text/css">
	.st0{fill:#CC2131;}
	.st1{fill:#7F3733;}
	.st2{fill:#ECB73B;}
	.st3{fill:#FFFFFF;}
</style><path class="st3" d="M530.1,1550.4c-3.8-10.3-6.8-16.3-14.3-24c-4.1,3.5-4.5,7.9-4.5,13.6c0,6.6,5.1,8.7,8.3,14.3
	c2.3,4.1,2.8,9.9,7.5,9.9c1.9,0,3-1.9,3-3.9c0-3.1-2.3-4.4-2.3-7.6C527.9,1550.4,529.6,1552.6,530.1,1550.4L530.1,1550.4z
	 M1186.5,1601.8c-3.4-6-5.2-10.2-5.2-17.2c0-3.1,4-3.1,7.1-3.1c4.4,0,8.8,2.9,8.8,7.4c0,5.4-1.1,12.3-6.5,12.3
	C1187.8,1601.2,1188.8,1603.1,1186.5,1601.8L1186.5,1601.8z M1422.3,463.8c-3.1-4.1-5.7-7.3-5.7-12.6v-12.6c0-9.5-4-15.1-8.5-23.1
	c8.7,2.4,12.7,9,17.9,16.5c4,5.8,9,8.3,11.3,15.3c-2.1,0.7-4.4,1-6.6,1c-2.8,0-4.7,3.4-4.7,6.3s1.9,4.4,1.9,7.3
	C1427.9,463.5,1423,462.5,1422.3,463.8L1422.3,463.8z M1538.9,441.4c-5.4,0-5.7-7.3-5.7-12.9c0-3.9,0.7-6.6,1.9-10.2
	c3.8,0.2,5.6,0.7,9.4,1c1.2,11.7,1.4,18.2,3.8,29.9C1544.1,447.7,1543.6,441.4,1538.9,441.4L1538.9,441.4z M1413.8,346.2
	c-10.6,0-12.7-14.3-23.4-14.3c-2.8,0-4,1.7-6.6,2.9c3.5,8.3,11.1,9.2,17.9,14.6c5.9,4.6,9.2,9.7,16.7,9.7c5,0,10.4-2.7,10.4-7.8
	C1428.9,345,1419.9,346.2,1413.8,346.2L1413.8,346.2z"/></svg>