<svg version="1.1" id="Layer_1" xmlns="http://www.w3.org/2000/svg" xmlns:xlink="http://www.w3.org/1999/xlink" x="0px" y="0px" viewBox="0 0 2038.6 1779.4" style="enable-background:new 0 0 2038.6 1779.4;" xml:space="preserve"><style type="text/css">
	.st0{fill:#CC2131;}
	.st1{fill:#7F3733;}
	.st2{fill:#ECB73B;}
	.st3{fill:#FFFFFF;}
</style><path class="st2" d="M986,218.9l9.3,8.4l5.3-1.2l3-1.2l1.2-6l7.7,5.4l3.5,4.8l13,4.8l4.6,0.6l3.5-6.6l5.9,7.2l5.9,0.6l4.2-2.4l4.7,3
	l6.5,1.8l9.3-2.4l7.7-0.6l11.8,3.6l4.2,3.6l5.9,3c1.8-1.1,3.6-3,5.6-3c5.2,0,4.4,7.1,7.7,11.1c2.9-1.5,4.8-3.6,8.3-3.6
	c2.7,0,3.8,2.4,6.5,2.4c2.1,0,3.2-1.2,5.3-1.2c3.7,0,4,5.4,7.7,5.4c5.5,0,8-4.8,13.4-4.8c1.8,0,3.5,1.2,3.5,3c0,2.1-1.2,3.3-1.2,5.4
	c0,6.2,6.1,8,11.8,10.2c0.6-1.1,1.8-1.7,1.8-3c0-4.8-4.7-6.6-4.7-11.5c0-2.3,1.5-3.5,2.4-5.4c4.9,5,4.4,13.9,11.2,13.9
	c4.1,0,8.4-1.2,9.3-5.4c3.4,1.1,7.1,2.4,7.1,6c0,3.8-3.5,5.3-3.5,9.1c0,0.9,0.6,1.5,0.6,2.4c1.3,0.2,2.2,0.6,3.6,0.6
	c8.8,0,10.8-10.1,13.6-18.7c1.2,0,1.8-0.6,3-0.6c4.3,0,4.9,5.3,7.5,8.4c1.2,1.5,3.5,0.9,4.7,2.4c4.7,5.7,3.8,15.7,11.2,15.7
	c4.3,0,4.4-5.7,5.9-9.6c2.4-5.9,5.2-8.9,7.1-15.1c-0.3-1.8-0.4-3.5-0.6-5.3c6.6,2.4,10.3,6,17.4,6c4.1,0,5.3-5.4,9.4-5.4
	c2.1,0,2.7,2.4,4.7,2.4c3.7,0,5.7-0.3,9.4-0.3c-3.1,4.1-9.4,4.7-9.4,9.9c0,2.4,2.9,3,2.9,5.4c0,2.1-2.4,2.7-2.4,4.8
	c0,6.5,7.4,6.6,12.4,10.5c3.4,2.6,4.3,7.2,8.7,7.2c4.3,0,7.1-2.7,8.9-6.6l2.7-0.6c0.3,3.9,0,6,0,10c0,5.9,2.2,13,8,13
	c2.6,0,4.7-2.1,4.7-4.7v-0.1c0-2-1.8-2.9-1.8-4.8c0-2.4,2.8-2.4,4.7-3.6l9.3,6c6.9-2.9,11.4-4.7,18.9-5.4
	c0.9-10.1,6.8-14.2,11.2-23.2c-0.9-0.5-0.6-2.4-1.8-2.4c-6.8,0-9.4,5.4-15.9,7.2c-1.5-3.8,0-6.2,0-10.2c0-6.3-8-5.7-13.6-8.4
	c-4.1-2-4-8.4-8.7-8.4c-1.8,0-3,0.5-4.7,0.6c-0.3,3.8-0.4,6.2-1.8,9.6c-2.9-1.2-6.5-2.1-6.5-5.4c0-2.7,2.8-3.6,3.6-6
	c0.9-2.7-0.6-5.3,1.2-7.5c2.8-3.6,6.6-3.6,11.2-3.6c2.6,0,4.3,0.5,6.9,0.6c-0.3,5.3-1.8,8.3-1.8,13.6c0,4.1,4.9,5.4,8.9,5.4
	c8.6,0,10.2-9,15.9-15.4c0.3,1.1,1.2,1.8,1.2,3c0,3.3-1.2,5.1-2.4,8.1c1,0,1.3,1.2,2.4,1.2c4.7,0,4.3-8.4,9-8.4
	c6.3,0,7.7,6.5,12.7,10.3c-2.9,3-4.1,7.2-8.3,7.2c-2.1,0-3.3-0.8-5.2-1.2c1.6,4.4,3.7,6.3,6.9,9.7c5.6-3.3,9-5.3,14.2-9.1
	c2.4-1.7,3.5-4.2,6.5-4.2c8.7,0,7,12.4,12.7,18.7c2.8,3,6.2,2.6,10,3.6c4.3,1.2,6.6,3.3,11.2,3.3c2.4,0,3-3.3,5.3-3.3
	c2.5,0,3.4,3,5.9,3c1.8,0,2.8-1.2,4.6-1.2c3,0,5.3,2.7,5.3,5.7c0,1.5-0.4,2.4-0.6,3.9c-3.9,0-6.1-0.2-9.9,0v2.7
	c0.6,4.5,2.4,8,6.3,9.6l7.1-6c4.3,4.4,3,10.4,8.3,13.3c3.5,2,6.6-0.9,10.6,0c8.6,2.1,10.8,9.2,18.8,13.1c9.9,4.8,16.8,6.3,24.8,14.5
	c9.6,11.6,18.5,16.9,30,26.4c5.8,4.7,0,0,0,0s65.8,61.3,102.8,97.3s64.6,102,67,109.2s5.4,14.2,5.4,14.2s-69.9,19.4-129.9,19.4
	c-60.1,0-112-1.7-205.2-12.5c-94-10.9-191.7-41.3-228.7-52.3c-26.4-7.8-132.2-43.4-181-60.1c-48.8-16.7-162.7-49.7-220.4-62.9
	c-57.7-13.3-135.9-26.9-172.3-32.4c-36.4-5.4-76.6-7.2-87.6-6.6c-11,0.6-58.7,0.6-58.7,0.6s8.7-8.6,15.8-15.1
	c7.1-6.5,13.6-12.5,13.6-12.5l1.8-14.5c0,0-1.8,4.2,7.1-3.6s25.8-31.2,25.8-31.2l10-6.6l3.5-5.4l4.7-0.6l8.3-6l2.2-7
	c0,0,1.8-2.4,4.1-2.4c2.4,0,9.4-10.3,9.4-10.3l8.3-4.8l4.7-0.6l1.8,6.6l7.7-3l5.1-5.4l-9.3-1.8l-4.1-1.2c0,0-1.2-3.6,1.2-6
	s6.5-7.7,6.5-7.7l14-10.9l-0.6,15.1l1.8,5.9l3.5-8.9v-4.8l5.3-4.2l-2.4-5.4l4.7-7.2l6.5-1.8l4.7-3l-1.2-7.2c0,0,11.6-5.2,19.9-8.3
	c8.3-3,11.2-9,11.2-9s3,3,5.3,1.2c2.4-1.8,3-6,3-6s6.3,0.6,9.3-1.8c3-2.4,6.5-7.2,6.5-7.2l-1.2-5.4c0,0,1.2,19.9-0.6,24.7
	s-7.7,14.3-7.7,14.3l-5.1,10.3l-6.5,7.2l-5.3,1.8l-4.1-1.8l-5.9,3.6l-4.1-1.8l-0.6-7.8l-0.6-9.7l-5.3,7.2l1.8,9.6l0.6,9l-4.7,1.8
	l-4.5-5.4l-4.7-0.6l-1.8,5.4l0.6,5.4l0.6,8.3l-5.3,7.2l-11.2,13.3l-28.2,27l-9.4,12.1l-10.6,4.2c0,0-8.7,10.7-13.4,14.3
	c-4.7,3.6-14.8,13.3-14.8,13.3l-5.3,3l1.2,7.2l-12.2,8.9l-13,15.7l39.4,0.6l-1.2-4.8l6.5-3.6l4.1-2.4l10.4-10.7l-6.3-10.9l-1.2-3.6
	l10.4,10.9l1.8-4.8l-3.5-7.8l0.6-3l5.9-1.2l13,0.6l7.1,4.8l7.5,4.2l3.5-2.4v-4.2l-2.4-4.2l-3-2.4l-5.7-3.6v-7.2l6.3-1.6l14.2,8.3
	l4.1-2.4l-1.8-7.7l-5.9,0.6l2.4-7.2c0,0,1.2-5.4,3.5-7.2c2.4-1.8,11.8-8.4,11.8-8.4l5.3-6l3-0.6l1.6,4.8l4.7-4.2l3-7.6l4.1-4.2
	l5.9-2.4l5.9,3l-1.2,5.8l-0.6,4.8l9.5-5.4l1.8-7.6l-1.8-11.5l-1.2-4.2h4.1l1.2-6l5.1,2.4l3,5.4l1.8-12.1c0,0,10-7.6,15.9-8.9
	c5.9-1.2,14.6-9,14.6-9l7.1-4.8l7.1,0.6l4.1-6l3.5-4.8h4.7c0,0,30.5-22.1,36.4-25.1s22.3-9.7,22.3-9.7l9.4-6l9.4-5.4l7.1-3l6.3-2.8
	l7.1,0.4l4.1-4.6l4.1-3l5.9-1.2l7.1,1.8l4.7-4.2l0.6-6.6l3.9-2.4l12.4-3l10.6-1.2l8.9-0.6l5.1-2.4l3-4.2l3.5-2.4l3.6,3l11.8-1.8
	l8.8-4.8l4.7-3.4l11.6-10.2l20.7-7.8l19.9-6l8.3-2.4h13.6l4.5-4.2l5.9-7l3-1.8h15.9l7.7-5.4l6.9,4.2l-3.4,4l-3.5,3l-1.8,4.2
	l-5.9,4.8l-0.6-2.4l-1.2-3.6l-7.1,3v7.2l5.9,7.8l8.3,1.2l8.1-0.6l0.6-3.6l6.5-3.6l5.3,3.6l7.1,4.2l2.4-6l2.9-4.8l6.5,1.8l6.3,2.4
	l8.3-3l4.1-3l12.4,1.2l8.9-1.2l3.5,6.6l10.4-3l5.9,5.4l4.1,1.8l8.3-4.2l7.7,2.4l1.8,3.6l10.5-10.2l21.3,5.4l25.8,11.5l17.1-1.2
	l13.4,4.8l11.2,3.4l21.7,7.2l17.1,5.4l8.3,4.8l16.4,6l12.4,4.2l6.5,4.2l9.4,6.6l12.8,5.2l10,5.4l4.7,3l8.3,6l2.8,6.6l-3.4,3
	l-5.3-0.6l-1.2-5.4l-5.9-1.8l-5.9,2.4l-7.7,1.2l-3-3.6l-2.4-7.8h-5.7l-3.6-4.2l-2.4,3.6l-3.5,1.2l-13.6,2.4l-5.3-5.4l-3.6-1.8
	l-5.7,6.6l-7.7-1.8l-7.7-1.2l-4.7-7.2h-8.9l-9.3-1.2l-5.9-3.6l-5.3,1.8l-3,8.4l-4.1,7.8l0.6,6l5.9,3l-7.1,1.2l-7.1,7.2l-3.6-0.6
	l0.6-7.2l-7.7,1.2h-8.7l-1.8-4.8v-3.6h-10.6l-7.7-1.8l-5.9-3.6l-7.5,3.6l-7.7,4.2l-5.9-4.2l-0.6-6.6l-3-3l-5.3,3.6l-8.3,0.6l1.2-4.8
	l0.6-7.2l-6.3-4l-5.9,0.6v8.3l-2.4,3l-5.3-6l2.4-5.9l-7.1-4.8l-4.1-2.4l-7.7,0.6l-9.3,3l-1.2,6.5l0.6,3.6l-7.1,2.4l-1.8-5.4
	l-1.2-3.4l-4.1,6.5l-4.7,1.8l-11.2-4.8l-8.7-3.4l-6.5,4l-9.4,0.6l-2.9-3.4l1.2-7.8l-6.5,5.4l-2.4,1.2l-3.6-6.6l-1.8-12.7l-5.7-1.8
	l-7.1,3.6l-2.4,7.2l-4.1,10.2l-6.5-5.4l-1.2-8.4l-7.1,3.6l3.5,10.2l-11.6-9l-4.1,4.8l-5.9-1.8l-1.8-10.3l-1.8-7.8l-4.1,1.8l-3,15.1
	l-5.9,3l-7.7-1.8l1.8-9l-1.8-3.6l-5.1,0.6l-3,3.6l-1.2,7.2l0.6,7.8l-4.7-9h-8.3l-4.1-1.8l-3-3l-4.1,6.6l-7.7-1.2l-6.3,7.8l-5.9,5.9
	l-1.2,7.2l10.6,9l-15.4-6.6l-5.9-7.2l-14.8,1.2l-1.6,5.4l-0.6,5.4l-4.7-8.4l-4.1,1.2l-3,9l0.6,9l-6.5-1.2l-5.3,5.4l-0.6,3.6l-5.3-6
	l-9.9-6l-5.3,0.6l-6.6,8.4l-4.7,7.7l-7.7,3l-5.3,3.6l-3,4.2h-6.9l-3,3.6l12.8,7.8l9.4,3.6l-12.4-1.2l-17-3.6l-7.7-3l-9.4,0.6
	l-8.7,1.8l-3.5,15.7l-3.5,7.7l-4.1,1.8l-4.7-3l-1.2-5.4l-3,4.8l-1.8,9l-4.1,3.6l-7.7,1.2H719l-9.4,1.2l-1.2,10.3l-1.2,7.8l-4.7,5.2
	l-7.7,8.4l-5.3,2.4l-5.1-3l-4.7,6l-10.6-4.2l-10,6.6l-6.5,11.5l-4,6l-3.6,5.9l-4.1,4.8l-5.9,4.8l2.4,7.2l5.9-5.4l6.3-0.6l7.7-10.9
	l5.9-8.3l6.5-6.6l5.3-2.4l11.2,0.6l7.5-3l3-3l7.1,4.8l21.7-4.8l8.9-5.4l7.7-10.2l5.9-7.7l6.5-6l4.1-2.4h5.1l4.7-5.4l5.3-1.8
	l11.2-1.2l5.3-8.4l3-7.8l7.1,4.2l5.1,3.6l3.5-6l-1.2-6.5l7.7-2.4l1.8-7.8l5.3-3l5.3-1.8l3,3.6l4.1-1.2l4.1-1.8l3.4,0.6l4.1,3l3,3.6
	l1.8,3.6l5.9,2.4l3.6-3l4.7-3.6l6.5-6l-7.7-5.4l9.4,0.6l3.6,2.4l8.1,1.2l5.3,1.2l4.1,3h4.1l3.5-4.8l3-5.4h5.3l5.7,7.2l1.2-13.3
	l1.2-7.8l2.4-8.9l4.1,11.3l3.5,1.2l2.4-7.6l3.6,0.4l1.8,3.6v3.6l3.5,0.6l2.4,7.8l7.1,0.6l7.5,8.4l4.1,3l4.7-6l1.8-3.6l7.1,4.8l4.7-3
	l2.4-4.2L986,218.9L986,218.9z"/></svg>