<svg version="1.1" id="Layer_1" xmlns="http://www.w3.org/2000/svg" xmlns:xlink="http://www.w3.org/1999/xlink" x="0px" y="0px" viewBox="0 0 2038.6 1779.4" style="enable-background:new 0 0 2038.6 1779.4;" xml:space="preserve"><style type="text/css">
	.st0{fill:#CC2131;}
	.st1{fill:#7F3733;}
	.st2{fill:#ECB73B;}
	.st3{fill:#FFFFFF;}
</style><path class="st0" d="M1476,1250.6l5.6-19.8h4.5c4.1,0,4.2,2.6,2.4,9.2c-2.3,8.1-3.4,10.6-9.4,10.6L1476,1250.6L1476,1250.6z
	 M1425.4,1235.6c0.7-1.3,1.2-2.6,1.8-3.9c0.2-0.6,0.5-1.3,0.8-1.9h0.1c-0.1,0.6-0.2,1.2-0.3,1.9c-0.2,1.3-0.4,2.6-0.4,3.9l-0.4,7.9
	h-5.8L1425.4,1235.6z M1394.1,1230.9h5c2.6,0,4.1,0.6,3.3,3.7c-0.6,2.4-2.7,4.1-5.1,4h-5.3L1394.1,1230.9z"/></svg>