<svg version="1.1" id="Layer_1" xmlns="http://www.w3.org/2000/svg" xmlns:xlink="http://www.w3.org/1999/xlink" x="0px" y="0px" viewBox="0 0 2038.6 1779.4" style="enable-background:new 0 0 2038.6 1779.4;" xml:space="preserve"><style type="text/css">
	.st0{fill:#CC2131;}
	.st1{fill:#7F3733;}
	.st2{fill:#ECB73B;}
	.st3{fill:#FFFFFF;}
</style><path class="st3" d="M1179.3,170.3v-11.5h-6.7c-3,1.2-5.7,3.2-7.7,5.9c-7.2-8.3-9.3-20.5-20.3-20.5c-1.7,0-2.6,0.7-4.3,1v5.9
	c3.8,7.3,10.8,8.1,17,13.7c6.5,5.9,6.9,16.4,15.8,16.4c6.5,0,6.2-8.8,7-15.4L1179.3,170.3z M1239.4,169.4c-5.5-1.2-8.6-3.2-13.4-6.6
	c-2.1,2-3.8,3.7-5.5,5.9c-6.7-3.4-8.1-11.7-15.8-11.7c-2.6,0-5.3,2.2-5.3,4.9c0,7.3,4.8,11,4.8,18.3c3.8,0.2,5.7,1,9.6,1
	c2.6,0,4.1-2,6.7-2c2.9,0,2.6,4.9,5.5,4.9C1233.6,184,1235.6,175.9,1239.4,169.4L1239.4,169.4z M1103.8,128.5
	c-8.8,5.4-15.3,8.6-25.9,8.6c0,1.5-1,2.5-1,3.9c0,3.7,2.6,6.8,6.2,6.8c4.8,0,5.7-5.9,10.1-7.8c6.5-2.9,15.3-2.4,16.1-9.8
	C1105.7,130.4,1107.4,128,1103.8,128.5L1103.8,128.5z M1050.4,141c-0.1-4.4,0.8-8.9-2.8-10.9c-3.7-2.1-7,0.2-11.2-0.8
	c-5.6-1.4-8.2-5.1-13.9-5.1c-1.7,0-2.8,0.3-4.4,0.8c1.6,4.1,5.3,5.2,9.6,5.9c2.8,0.5,5.5-1.6,7.5,0.4c1.9,1.9,1.2,4.2,2.9,6.4
	c2.3,2.9,5.1,3.3,8.7,3.3C1047.8,141,1049.4,141.2,1050.4,141z M1179.2,132.5c-1.5,0-1.4-1.8-2.4-2.9c-2.9-3-5.4-5.1-9.6-5.1
	c-2.7,0-3.7,3.2-3.7,5.9c0,1.8,1.8,2.4,2.5,4c0.9,2,1.7,4,3.7,4.8l5.9-0.7c0.1-1,3.3-1,3.3-2c0-1.3-1.2-1.7-1.2-3
	C1177.6,132.9,1179.9,132.5,1179.2,132.5L1179.2,132.5z M879.1,1596.7c0,3.5-1.3,5.4-1.3,9c0,7,4.4,10.3,8.2,16.2
	c1-5.7,3.1-8.6,3.1-14.2c0-13.7-9-23.6-22-26.9h-8.4v3.9C863.2,1592.6,879.1,1587.3,879.1,1596.7L879.1,1596.7z M773.8,1569.8
	c0.4-2.7,1.3-4.5,1.3-7.4c0-2.7-2.1-5.1-4.8-5.1c-3.4,0-3.6,4.3-4.2,7.8c-7.6-3.9-10.3-9.4-17.4-14c-1.9,3.3-3.6,7-7.6,7
	c-8.2,0-12.2-4.9-19.1-9.4c-6.5-4.1-14.1-4.7-16.1-12.5h-15.3c-0.2,1.8-0.8,2.9-0.8,4.7c0,5.1,6.3,5.1,10.7,7
	c8,3.5,13,5.9,20.6,10.2c10.7,6.2,19.5,3.7,30.6,9.4c9.4,4.9,16.2,4.1,26.6,6c13.9,2.5,20.5,11.7,34.6,11.7c4.8,0,7.5-2.5,11.1-5.4
	C804.2,1579.7,792.7,1576.2,773.8,1569.8z M947.3,1648.6c-1.1-4.1,0.8-5.7,0.8-10c0-5.9,0.4-14,6.1-14c6.1,0,8.2,7.4,8.2,13.6
	c0,5.9-2.7,9.2-3.1,15C955.9,1650.9,950.9,1650.9,947.3,1648.6L947.3,1648.6z M567.4,1441.8c-1.9,0-1.4-3.1-2.3-4.7
	c-1.5-2.5-2.9-4.1-3.8-7c3.2-1,7.6-1.2,7.6-4.7c0-8.4-6.3-11.7-9.9-19.3c-6.5,9.6-9.9,16-9.9,27.5c0,12.9,5,24.2,17,28.3
	c0.6-1.8,1.4-3.1,1.4-5.1c0-3.5-1.4-5.7-1.4-9.2C566.1,1445.3,569.7,1441.8,567.4,1441.8L567.4,1441.8z M761.6,1593.2
	c-2.3-8.6-10.7-9.9-14.5-17.9c-4,2-6.1,5.5-6.1,10.2c0,9.6,10.1,11.9,19.1,14.8c0.8-1.8,1.5-2.7,1.5-4.7
	C761.6,1593.8,762.7,1594.5,761.6,1593.2z M825.8,1612.7c1.3-2.5,5.4-2.9,5.4-6.1c0-3.5-2.9-5.1-4.8-7.8c3.6-2.3,5.9-3.3,10.1-4.7
	v-3.9c-1.7-0.2-2.9-0.8-4.6-0.8c-5.2,0-6.1,5.9-9.9,9.4c-3.8,3.5-11.5,2.7-11.5,8.2c0,6.6,5.7,11.9,12.2,11.9
	C826.1,1618.9,825,1616,825.8,1612.7L825.8,1612.7z M615.6,1477.7c3.1,0,1.3-5.1,1.3-8.2c0-8.6-9.6-9.6-15.7-15.2
	c-7.6-7-8.6-15.2-17.6-20.9c-1.9,1.9-3.8,3.5-3.8,6.2c0,6.8,10.7,7.2,10.7,14c0,3.5-4.6,4.1-4.6,7.6c0,2.1,0.6,3.3,0.8,5.5h4.6
	c3.4-2.4,3.1-6.5,5.4-10.2c4.8,3.7,7.6,7.8,7.6,14c0,4.7-5.4,6.2-5.4,10.9c0,5.5,3.8,10.9,9.2,10.9c3.4,0,5.5-2.9,6.7-6.2
	C616,1483.2,612.3,1477.7,615.6,1477.7z M665.3,1519.1c-5.9-3.5-9.6-5.3-14.5-10.2c-3.4-3.3-1.3-8.2-4.4-11.7
	c-5-5.5-11.9-4.5-16.1-10.7c-1.3,1.6-2.1,2.7-2.7,4.7v14.6c2.5-0.8,3.8-2.3,5-4.7c6.7,8.6,8.6,20.3,19.3,20.3c2.5,0,3.6-2,5.7-3.1
	L665.3,1519.1z M1107,1633c0-6.4-3.3-13.3-9.6-13.3c-5.3,0-8,6.2-8,11.7c0,6.6,8.2,7.2,10.7,13.3C1103.5,1641,1107,1638.2,1107,1633
	z M1224.7,1576l-9.8-9.2c3.2-1.7,5.5-3.1,9.4-3.1c4.8,0,5.7,5.5,8,9.6C1229.6,1573.9,1227.4,1576.2,1224.7,1576L1224.7,1576z
	 M1136,1652.4c0.2-2.3,0.6-3.7,0.6-6c0-2.9-1.3-4.5-1.3-7.4c0-5.7,4.8-8.2,9.2-11.3c6.3,6,12,7.4,20.4,10.2c0.2-1.2,1.5-2.1,1.5-3.5
	c0-8.6-12.8-7.4-16.1-15.2l1.5-4.7c-9.2-1.8-17-1.6-22-9.4c-1.3,1-2.4,2.4-3.1,3.9l3.1,7.8c-4.6,0.8-9,2.1-9.9,6.6
	c3.6,1.2,6.5,1.4,9.9,0c0.2,1.4,1.5,2.1,1.5,3.5c0,6.2-6.9,8.2-6.9,14.4c0,9,1.1,15.4,6.9,22c2.9-2.3,6.7-3.1,6.7-7
	C1138.1,1653.6,1137.4,1654.8,1136,1652.4L1136,1652.4z M1365.3,1254.7c4.9,0,7.9-1.5,10.4-5c0.7-1.1,1.1-2.3,1.4-3.4
	c1-3.6,0.3-6.1-3.5-6.5v-0.1c4-1.1,5.3-3.4,6-5.9c0.5-1.9,0.7-3.5-0.4-5c-1.4-1.9-4.3-2-7.2-2h-11l-7.9,28L1365.3,1254.7
	L1365.3,1254.7z"/></svg>