<svg version="1.1" id="Layer_1" xmlns="http://www.w3.org/2000/svg" xmlns:xlink="http://www.w3.org/1999/xlink" x="0px" y="0px" viewBox="0 0 2038.6 1779.4" style="enable-background:new 0 0 2038.6 1779.4;" xml:space="preserve"><style type="text/css">
	.st0{fill:#CC2131;}
	.st1{fill:#7F3733;}
	.st2{fill:#ECB73B;}
	.st3{fill:#FFFFFF;}
</style><g><path class="st0" d="M1939.9,882.8c-5.57-218.87-70.79-376.87-76.06-389.31c1.34,3.56,5.05,18.58-19.84,34.21
		c-28.5,17.9-99.1,82-284.3,80s-325.7-39.2-533-111.1c-207.1-71.9-351.8-101.2-478.1-115.1c-126.3-13.9-259.6,23.1-313.4,47
		c-53.8,23.8-76.5,43.2-87.4,78c-8.1,25.5-71.4,177.1-74.5,361c-5.4,312.2,76.4,475.3,76.4,475.3s26.5-76,175.4-79.9
		c184.3-4.9,481.2,17.9,569.3,39s263.6,90,313.5,103.9c49.9,14,156.8,39,233.2,47s185.2-5.9,235.1-13.9c49.9-8,127.6-41,141.2-47
		c13.7-6,24.6-19.2,36.3-31.1s20.7-54.9,20.7-54.9S1945.7,1110.9,1939.9,882.8z"/><path class="st0" d="M1863.84,493.49c-0.19-0.52-0.34-0.79-0.34-0.79S1863.62,492.97,1863.84,493.49z"/></g></svg>