<svg version="1.1" id="Layer_1" xmlns="http://www.w3.org/2000/svg" xmlns:xlink="http://www.w3.org/1999/xlink" x="0px" y="0px" viewBox="0 0 2038.6 1779.4" style="enable-background:new 0 0 2038.6 1779.4;" xml:space="preserve"><style type="text/css">
	.st0{fill:#CC2131;}
	.st1{fill:#7F3733;}
	.st2{fill:#ECB73B;}
	.st3{fill:#FFFFFF;}
</style><g><path d="M1748.3,743c7.3-6.7,13.9-20.9,13.9-20.9l17.4-65.3h-30.9l-9.1,34.1c0,0-6.5,14.2-13.9,20.9c-7.4,6.7-23.5,9-23.5,9
		s-95.2-1.7-103.2,0.8c-7.9,2.5-13.9,4.1-19.6,20s3.3,34.8,12.3,45.7c1.93,2.34,5.84,5.92,10.94,10.22
		c-2.66-8.07-3.49-16.77-0.64-24.72c5.7-15.9,11.6-17.5,19.6-20s103.2-0.8,103.2-0.8S1740.9,749.7,1748.3,743z"/><path d="M1721.35,909.38c15.45,26.88,40.45,88.63-4.35,167.52c-52.2,92-179.8,84.7-179.8,84.7h-140.08
		c-3.22,15.62-6.32,31.2-6.32,31.2h169c0,0,127.6,7.3,179.8-84.7c52.7-92.8,8.8-161.9-2.5-178.4
		C1733.22,923.98,1727.64,916.76,1721.35,909.38z"/></g></svg>