<svg version="1.1" id="Layer_1" xmlns="http://www.w3.org/2000/svg" xmlns:xlink="http://www.w3.org/1999/xlink" x="0px" y="0px" viewBox="0 0 2038.6 1779.4" style="enable-background:new 0 0 2038.6 1779.4;" xml:space="preserve"><style type="text/css">
	.st0{fill:#CC2131;}
	.st1{fill:#7F3733;}
	.st2{fill:#ECB73B;}
	.st3{fill:#FFFFFF;}
</style><path class="st2" d="M1593,1448.8c-8,26.9-23.5,37.5-44.9,54.4c-11.3,8.8-18.5,13.1-29.8,21.9c-7.8,6-9.2,17.2-19.1,17.2
	c-8.4,0-9.2,10.2-16.1,14.8c-5.9,3.9-9,7.4-15.3,10.9c-6.1,3.3-11.8,2.7-16.8,7.8c-10.1,10.3-15.5,20.5-29.8,23.4
	c-17.2,3.5-26.2,9.2-42.8,14.8c-17,5.7-30.2,0-45.1,10.2c9.2,5.1,16.2,5.4,26.8,5.4l-4.6,1.6h-15.3c-14.9,2.1-21,14-35.9,14
	c-3.1,0-4.6-1.6-7.7-1.6c-5.9,0-3.8,8.8-4.6,14.8c-2.5-1.7-3.4-4.7-6.5-4.7c-6.7,0-10.7,2.7-15.7,7c-2.9,2.5-1.1,7.2-4.6,8.6
	c-3.6,1.6-6.3-0.8-10.3-0.8c-11.5,0-18.2,2.3-28.7,7c-12.6,10.5-23.4,14.8-39.7,14.8c-4-1.6-7.5-2.7-11.9-2.7
	c-9.2,0-13.8,4.5-22.9,4.5c-1.3,0-1.1-2.1-1.9-3.1c-2.3,1.2-3.6,2.9-4.6,5.5c-7.9-1.4-12-3.3-19.9-3.3c-3.6,0-3.8,4.5-6.1,7.2
	c-8,9.6-17.6,10.1-29.8,10.1c-8,0-11.9-5.5-19.9-5.5c-6.7,0-9.4,7-16.1,7c-3.4,0-4.2-4.7-7.6-4.7c-4.4,0-4.6,5.9-8.4,7.8
	c-4.8,2.5-8.4,1.6-13.8,1.6c-1.9,0-2.7-2.3-4.6-2.3c-4,0-5.4,4.1-9.2,5.4c-5.5,2-9.4,1.6-15.3,1.6c-8.6,0-12.8-5.5-21.4-5.5
	c-6.5,0-10.5,1.6-16.1,4.7c-2.1,1.6-3.8,2.3-6.5,2.3c-7.8,0-11.5-5.3-18.7-7.8c-10.3-3.7-16.6-3.9-27.5-3.9c-8,0-12.6,2.3-20.6,2.3
	c-14.1,0-21.8-4.5-35.9-7H831c-9.5-2.1-13.8-6.8-22.9-9.4c-12.2-3.3-19.9-4.1-31.3-9.2c-5.4-2.3-9.7,1.8-15.3,0
	c-5.7-2-7.6-6-12.2-10.2l-3.1,4.7c-9.4-3.1-13.2-10.1-22.9-10.1h-9.9c-18.5,0-27.3-10.3-44.3-18c-0.8,1.8-1.2,2.7-1.5,4.7h-5.4
	c-15.3-6.2-22.9-13.7-39-17.9c-7.3-2-12.6-1.6-19.1-5.5c-10.5-6.4-15.7-12.1-26.8-17.9c-6.3-3.3-12.2,0-17.6-4.7
	c-7.3-6.2-11.5-10.2-19.1-16.4c-26-13.8-41-22.2-64.1-39.8c-11.8-9-16.8-17.6-29.8-25c-7.3-4.1-9.4-9.8-16.1-14.8
	c-5.4-4.1-13.8-4.1-13.8-10.9c0-4.9,3.1-7.2,5.4-11.3c-6.9,3.1-9.9,6.6-16.8,9.8c-4.4-8.4-7.6-13.8-14.5-20.3
	c-3.8-3.5-9.4-2.5-12.2-7c-2.1-3.3-1.3-9.4-5.4-9.4c-3.8,0-4.2-4.5-7.6-6.3c-3.4-1.7-5.9-2.9-7.6-6.2c2.7-0.6,4.2,0.8,6.9,0.8
	c1.9,0,2.7-1.6,4.6-1.6c8.6,0,12,7.4,17.6,14c1.3,1.8,1.1,4.7,3.4,4.7c3.2,0,4.8-2.3,8-2.3c4.4,0,3.1,6.6,3.8,10.9
	c0.9,5.1,4,10.1,9.2,10.1s6.3-6.2,11.5-6.2c6.7,0,7.6,7.4,12.2,12.5c3.8,4.3,9.4,2.7,13.8,6.2c4.2,3.3,3.8,10.9,9.2,10.9
	c5.2,0,9.9-4.1,9.9-9.4c0-10.5-10.3-13.1-18.3-19.5c-4.2-3.3-4-8.4-7.6-12.5c-8-9-14.7-13.7-19.1-25c-1.7,0.8,0,0,0,0
	s-24.6-22-39.1-45.4s-28.4-47.2-28.4-47.2l-27.4-92.4c0,0,344.3-2.7,560.9,38.2c140.6,26.5,250.7,106.9,481.5,140.5
	c38.4,5.6,58.8,10.2,99.3,12.5C1510.5,1455.8,1593,1448.8,1593,1448.8L1593,1448.8z"/></svg>