<svg version="1.1" id="Layer_1" xmlns="http://www.w3.org/2000/svg" xmlns:xlink="http://www.w3.org/1999/xlink" x="0px" y="0px" viewBox="0 0 2038.6 1779.4" style="enable-background:new 0 0 2038.6 1779.4;" xml:space="preserve"><style type="text/css">
	.st0{fill:#CC2131;}
	.st1{fill:#7F3733;}
	.st2{fill:#ECB73B;}
	.st3{fill:#FFFFFF;}
</style><path d="M821.2,741c0,0,2.5-26.6-24.1-30.3c-26.5-3.7-38.2,13.6-46.2,19.2c-8,5.5-42.6,42-65.4,117.4c-22.8,75.3-17.2,121-16,156.2
	s4.3,41.3,6.2,47.5c1.8,6.2,11.7,17.9,11.7,17.9l9.9,6.1c0,0-9.9-87.6-0.6-139.5c9.2-51.9,16.5-71,34.4-110.3
	c17.5-38.5,37.8-62.6,51.4-70.6c13.5-8,16.1-11.1,22.8-12.3c6.8-1.2,13.6-1,13.6-1L821.2,741z"/></svg>