<svg version="1.1" id="Layer_1" xmlns="http://www.w3.org/2000/svg" xmlns:xlink="http://www.w3.org/1999/xlink" x="0px" y="0px" viewBox="0 0 2500 2500" style="enable-background:new 0 0 2500 2500;" xml:space="preserve"><style type="text/css">
	.st0{fill-rule:evenodd;clip-rule:evenodd;}
	.st1{fill-rule:evenodd;clip-rule:evenodd;fill:#F2CA30;}
	.st2{fill:#F2CA30;}
</style><path class="st2" d="M1833.68,1151.39c-4.15-3.32-7.47-4.98-12.46-4.98l-9.96,2.49l-5.82-5.81l-10.79,2.49
	c-4.15-0.83-7.47-2.49-8.31-4.98l-9.96-41.5c-0.83-1.66-1.65-1.66-2.48-1.66l-2.5-2.48l-1.65-19.1l-4.15-3.32l-0.8-2.48l1.65-1.66
	l-5.8-27.39l-3.33-3.36h0l-0.8-16.6l-9.14-24.9l1.67-4.15l1.65-4.15l-11.62-49.82l-5.8-8.3l-10.79-2.49l-14.94,1.66l-2.48,2.49
	l-0.83,2.49l-4.15,0.83l-1.65-1.66l-1.67-0.82l-13.27,2.48l-6.67-0.83h-6.64l-0.83,3.32l-1.65,2.48l-4.15-1.66
	c-0.83,0.83-1.67,4.15-3.32,9.14c-0.83,6.64-1.67,10.79-0.83,12.45c0.83,2.49,3.32,4.98,7.47,7.47c3.32,1.66,5.8,3.32,7.47,3.32
	l25.73-3.32l7.47-2.49c3.32,0,5.8,0.83,7.47,2.49l4.15,4.15l3.32,4.15l-1.67,4.98c-1.46,1.58-1.79,3.89-0.83,5.81
	c0,2.49,1.67,4.15,2.5,4.98l3.32,1.66v4.15c0,1.66,0.83,2.49,1.67,2.49c2.48,1.66,4.15,3.32,3.32,4.98l-3.32,8.3l-3.35,3.32
	l-9.12,3.32c-2.48,0.83-4.15,0-5.8-1.66l-1.67-6.64h-2.48l-2.5,0.82h-5.8c-0.83,0-1.67-0.82-1.67-1.65l-1.65-0.83l-6.67,0.83
	l-19.08,0.83l-8.31,7.47l-9.14,2.49l-7.44,5.81l-13.29,18.26l-4.99,2.49l-3.32,6.64l-1.65,8.3l0.83,1.66v1.66l-2.5,5.81l1.67,6.64
	l-2.48,6.64l0.8,1.66l0.83,2.49l-4.97,7.47l4.97,41.52l2.48,0.83l-1.65,2.49c3.32,7.47,5.8,11.62,6.64,12.45l3.32,2.49v4.98
	l0.83,4.98l21.58,20.76l-0.83,4.98l5.82,4.98l7.47,4.15h1.65l0.83-1.66l4.99,3.32l3.32,4.15l4.15,4.15l14.94-2.49l4.15,0.83
	l2.48,3.32h4.97l5.82-2.49l0.83-2.49l1.65-1.63l2.5,1.66c0.9,0.43,1.74,0.99,2.48,1.66l1.65-0.83l3.32-1.66l3.35,0.83h3.32
	l4.12-7.47l3.35-7.47l8.29-1.66c0.83-4.98,2.5-7.47,5.82-7.47c1.65,0,3.32,0,4.15,1.66l2.48,3.32l5.82,1.66h4.12l4.99-2.49
	l4.99,3.32l13.27-2.49l0.83-1.66v-1.66l5.8-0.83l3.32,2.49l6.64-0.83l4.99-4.98l10.79-1.66l14.11-14.11l-1.65-6.65L1833.68,1151.39z
	 M1742.37,1113.19c-0.8,0-0.8,0-1.65,0.83c-1.67,4.15-2.48,6.64-1.67,7.47l0.83,4.15c0,2.49-3.32,8.3-10.79,16.61l-8.31,3.32
	l-1.65,3.32l-0.83,4.15l-5.8,2.49v8.3c-0.83,0-1.67,0.83-1.67,0.83l-1.65,0.83l-0.83,0.82l-0.83,1.66l-12.46,3.32
	c-0.8-0.83-0.8-0.83-0.8-2.49l-0.83-2.49l-12.46-11.62l-0.83-4.98c-1.65-1.66-4.97-3.32-9.96-4.15l-6.64,0.83l-9.14-14.11
	l-10.79-39.86c0-4.15,0.83-6.64,1.67-9.13l5.8-5.81l1.67-10.79l1.65-0.83c1.67,0,1.67-0.83,2.5-1.66l3.32-11.62l8.31-8.3l29.9-1.66
	l11.57,9.97h0c2.5,1.66,4.15,1.66,7.47,0l4.99-0.83c2.48,0.83,4.15,4.15,5.8,9.13l3.35,25.73l9.96,11.62
	c1.65,6.65,1.65,10.8,1.65,13.28L1742.37,1113.19z"/></svg>