<svg version="1.1" id="Layer_1" xmlns="http://www.w3.org/2000/svg" xmlns:xlink="http://www.w3.org/1999/xlink" x="0px" y="0px" viewBox="0 0 2500 2500" style="enable-background:new 0 0 2500 2500;" xml:space="preserve"><style type="text/css">
	.st0{fill-rule:evenodd;clip-rule:evenodd;}
	.st1{fill-rule:evenodd;clip-rule:evenodd;fill:#F2CA30;}
	.st2{fill:#F2CA30;}
</style><path class="st0" d="M1920.87,1348.17l0.83-0.83l0.83-1.67c0.8-3.32,0-7.47-1.67-13.27l-9.96-12.46l-3.32-25.73l-4.99-8.31
	l-5.8,0.83h-6.67l-12.44-9.96l-29.05,1.65c-4.99,3.35-7.47,5.82-8.31,8.31l-4.15,11.62l-1.67,0.83c-0.8,0-1.65,0.83-2.48,1.65
	l-1.65,9.99l-2.5,3.32l-2.48,3.32l-1.67,9.12l10.79,39.04l9.14,14.11h6.64c4.99,0.83,8.31,1.67,9.14,4.15l1.65,4.97l12.46,11.62
	v2.48l0.83,2.5l13.27-3.32l0.83-1.67l0.8-1.65l1.67-0.83l0.83-0.83l0.83-7.47l5.8-3.32l0.83-3.32l0.83-3.32l9.12-4.15
	c6.64-7.47,9.96-13.27,9.96-15.78v-2.48l-0.8-1.67C1918.38,1354.81,1919.2,1352.31,1920.87,1348.17L1920.87,1348.17z"/></svg>