<svg version="1.1" id="Layer_1" xmlns="http://www.w3.org/2000/svg" xmlns:xlink="http://www.w3.org/1999/xlink" x="0px" y="0px" viewBox="0 0 2500 2500" style="enable-background:new 0 0 2500 2500;" xml:space="preserve"><style type="text/css">
	.st0{fill-rule:evenodd;clip-rule:evenodd;}
	.st1{fill-rule:evenodd;clip-rule:evenodd;fill:#F2CA30;}
	.st2{fill:#F2CA30;}
</style><path class="st2" d="M1377.1,990.32c0.83,0,1.65-0.83,2.48-1.66l2.5-2.49l9.12-0.82l9.12-9.14l19.93-4.98l4.99-8.3l9.96-9.13
	l3.32-9.14l7.47-10.79v-3.32l-0.83-2.49l0.83-2.49v-2.49l-4.15-4.98l-5.8-3.32c-1.67-0.83-4.15,0-5.82,2.49l-11.61,13.28l-9.99,6.64
	l-3.32,14.11v-0.83c-1.65,1.66-4.15,3.32-7.47,4.98l-14.11,2.49l-9.96,6.64l-2.5-1.66l-12.44-0.83l-5.8-4.15l-22.44-6.64v-1.65
	l-13.27-4.15c-2.48,0-4.99-4.15-8.31-10.8v-5.8l-5.8-5.81l2.48-5.81l-5.8-9.13l4.97-5.82l1.67,1.66l6.64,0.83l11.62-4.98l25.73-6.64
	l8.31,6.64c1.56,0.82,3.41,0.82,4.97,0l4.15-5.81c11.62-5.81,19.1-7.47,20.78-6.64c6.64,2.49,10.79,4.15,13.27,4.15
	c4.15-0.83,8.31-3.32,10.79-6.65l2.5-2.49l5.8-0.83l4.15,1.66c1.65,0.83,4.15,1.66,7.47,1.66c4.15-0.83,6.64-1.66,7.47-3.32
	c2.48-1.66,2.48-4.98,2.48-9.13l-2.48-1.66v-8.27l2.48-2.5l-0.83-4.15l0.83-4.98l-1.67-2.49l-1.65-1.66l0.83-0.83v-1.66l-5.82-5.81
	c-1.65-0.83-4.97-5.81-10.79-15.77v-2.48l-0.83-3.32l-5.8-4.98l-6.64-3.32l-2.48-4.15l-2.5-4.15l-4.99-0.83
	c-1.65,0.83-2.48,0-4.12-1.66l-1.67-2.49h-4.97l-4.15-3.32l-42.36-2.49l-13.29,2.46l0,0l-2.5,1.66l-1.65,1.66l-5.8,1.66l-0.83,1.66
	l-2.5,1.66h-4.15c-4.97,1.66-7.47,4.15-9.12,6.64v6.64l-14.11,9.13c-4.99,2.49-8.31,6.65-10.79,11.62c-1.67,1.66-1.67,3.32,0,4.98
	l-5.82,16.6c-2.48,0-2.48,4.98-0.83,16.6l-2.48,8.3l-4.15,3.32c-1.65,4.15-1.65,7.48,0,8.3l9.14,9.96l8.31,37.35l7.47,9.14
	l10.79,5.81l3.32,10.8l2.48,1.66l6.64,3.32c-0.83,0.82-0.83,2.49,0,3.32l2.5,0.83l1.65-0.83l2.5,2.49v3.32l15.76,8.3l28.22-0.83
	l7.47,4.15L1377.1,990.32z M1311.48,850.03c0.8-3.32,1.65-4.98,3.32-6.64l6.65-9.13h0l4.15-2.49l3.32-2.48v-4.98l-1.67-4.98
	l4.15-5.81l9.14-0.83l0.83,1.66c0,0.83,0.8,1.66,1.65,2.49l3.32-1.66l3.32,2.48l2.5-2.48c2.48-2.49,5.8-3.32,9.96-3.32
	c0.83,0,1.65,0.83,1.65,1.66c1.67,0.83,2.5,1.66,4.15,1.66h0.83l1.67-0.83l18.26,3.31c4.97,2.5,9.12,7.48,11.61,14.95l3.35,13.28
	l1.65,12.45l-13.27,4.15l-12.46,1.65l-4.97-0.82l-2.5,4.98h-4.97l-2.5,2.49l-1.65,1.66l-8.31-5.81c-3.32,0-4.99,0-5.8,3.32
	l-9.14,6.64l-9.96-0.83l-6.67,0.83l-1.65-2.49l-9.96,0.83l1.65-10.8l0.83-4.15l-1.67-3.31
	C1310.63,855.02,1310.63,852.53,1311.48,850.03z"/></svg>