<svg version="1.1" id="Layer_1" xmlns="http://www.w3.org/2000/svg" xmlns:xlink="http://www.w3.org/1999/xlink" x="0px" y="0px" viewBox="0 0 2500 2500" style="enable-background:new 0 0 2500 2500;" xml:space="preserve"><style type="text/css">
	.st0{fill-rule:evenodd;clip-rule:evenodd;}
	.st1{fill-rule:evenodd;clip-rule:evenodd;fill:#F2CA30;}
	.st2{fill:#F2CA30;}
</style><path class="st2" d="M859,1044.25c0.83-4.98-0.83-9.13-3.32-13.28l-28.24-1.66l-5.81-11.62l-4.15-36.52
	c-2.49-14.94-5.81-25.73-12.45-33.22c2.49-9.13,3.32-20.76,3.32-34.86l-0.83-35.69c-3.32-0.83-5.81-3.32-7.47-8.3l-3.32-10.79
	c-6.65-8.31-18.27-12.45-34.05-15.78c-5.82,0-11.62,1.66-19.09,4.15l-17.44,8.3c1.66,3.32,0.83,5.81-1.66,8.3l-7.47,4.98
	l-10.79-0.82l-1.66,3.32l-3.32,2.49c-5.14-2.99-9.88-6.62-14.11-10.79l-13.28-12.46l-7.47,4.15l-3.32-2.49l-2.49-1.66
	c-1.66,1.66-2.49,2.49-5.81,2.49l-5.81,0.83l-12.45,14.11l-14.11,12.45h-0.83c-1.66-4.15-4.15-4.15-6.64-0.83l-10.8-7.47
	l-11.62-4.98h-16.6c-3.32-4.15-6.64-4.15-9.13-3.32c-4.98,0.82-9.97,3.32-14.11,9.13l-10.8,14.94l4.99,5.86h0
	c1.66,3.32,3.32,4.14,5.82,3.32c4.14,3.32,11.62,7.47,22.41,11.62l7.48-6.65l9.13,7.47l2.49,5.81c0.83,2.49,2.49,4.15,4.15,4.98
	c-2.49,4.98-4.15,14.11-5.81,28.22l8.3,9.13c1.65,9.13,2.49,22.41,2.49,40.69c0,17.43,0.83,30.73,3.32,40.69l-1.66,5.81
	c-0.83,2.49-0.83,4.15,0,5.81c0,3.33-2.49,5.81-6.64,5.81l-11.62-1.66l-13.28,14.94h-4.98l-4.98,3.32
	c-4.98,4.15-5.81,9.14-2.49,14.11l9.13,12.45l32.37-4.98v1.66l0.83,2.49l57.29-12.45c2.49-2.49,4.98-6.64,4.98-12.45l1.66-14.12
	c-8.3-6.64-14.94-9.96-20.76-9.96c0-3.32-0.83-7.47-4.98-12.45l-5.81-41.52c-1.43-13.96-4.78-27.65-9.96-40.69l4.16-17.43
	c2.48-0.83,3.32-3.32,3.32-6.64c-0.83-12.45,6.64-23.24,21.58-33.22l28.22,4.98l1.66,4.15l9.96,5.81c0,2.49-1.66,4.98-3.32,8.3
	l-5.81,8.3l2.49,14.94c0,5.81,3.32,9.97,7.47,11.62l-7.47,23.24l11.62,15.77l-4.15,10.79l2.49,1.66c-2.49,3.32-2.49,6.64,0,11.62
	l6.64,10.79c-2.49,6.64-6.64,14.11-14.11,22.42l-6.65,1.66c-2.49,2.48-4.15,3.32-4.98,4.15l-5.81,4.15v7.47
	c3.32,7.47,6.64,11.62,9.13,12.45l23.24-2.49l22.42,0.83c1.66-4.98,5.81-6.64,10.79-6.64h6.64l97.13-9.13l11.62-6.64L859,1044.25z
	 M769.35,1037.65c-5.81,0-10.8-0.82-16.6-3.32l-14.94,6.64c-2.49-2.49-3.32-4.98-2.49-7.47l1.66-4.15l-15.77-14.11
	c3.32-5.81,4.98-13.28,4.98-23.24l0.83-24.07c-0.83-1.66-2.49-4.98-5.82-8.3l-6.64-7.47l3.32-10.79c1.66-5.81,1.66-9.97,0-14.12
	l6.64-14.11l9.13-13.28h0.83l1.66-8.3l-0.83-8.31l9.96-0.83l0,0l9.96,2.49l4.98,7.47c2.49,3.33,5.81,4.15,9.96,3.33l9.13,12.45
	l-4.15,23.24c4.15,1.66,4.98,5.81,2.49,10.79l-4.15,11.62l8.31,24.9c2.49,9.96,0.82,17.43-5.81,22.41
	c1.66,14.94,4.98,24.07,8.3,29.9C780.97,1034.33,775.16,1036.82,769.35,1037.65z"/></svg>