<svg version="1.1" id="Layer_1" xmlns="http://www.w3.org/2000/svg" xmlns:xlink="http://www.w3.org/1999/xlink" x="0px" y="0px" viewBox="0 0 2500 2500" style="enable-background:new 0 0 2500 2500;" xml:space="preserve"><style type="text/css">
	.st0{fill-rule:evenodd;clip-rule:evenodd;}
	.st1{fill-rule:evenodd;clip-rule:evenodd;fill:#F2CA30;}
	.st2{fill:#F2CA30;}
</style><path class="st2" d="M1048.32,770.33l22.41,0.83l3.32,16.6l-0.83,24.9l6.64,9.13l0.82,15.77l1.66,4.98v3.32l-0.83,4.15
	c0.83,9.13,2.49,14.94,4.98,18.26l0.83,6.65l-0.83,2.49l-1.66,2.49l4.15,32.39v9.96c-0.83,0.83-0.83,2.49,0,4.98l2.49,10.79
	l4.15,4.15c-1.66,6.64-2.49,12.45-0.83,19.1l-1.66,5.81l-0.83,4.98l1.66,3.32l0.83,3.32l-6.64,6.64l-17.44,6.64l-3.32,3.32
	l-1.66,0.83h-1.66l-4.15,5.81l-1.66,7.47l14.94,19.1l5.81-0.83l14.11-4.99l31.56-2.48l5.81-6.65l9.13-1.66l6.65-4.98l7.47,3.32
	c4.15,2.48,7.47,3.31,9.14,3.31c1.77-0.94,3.21-2.38,4.15-4.15l3.32-9.13l-2.49-14.11l-5.81-2.49l-31.56-0.83l-4.98-12.45l1.66-2.49
	l1.66-3.32l-4.98-6.64l-1.66-13.28l4.15-4.98l1.66,2.49l3.32-2.49l0.83-1.66v-0.83l0.83-1.66l1.66-1.66v-3.32l7.47-8.3
	c2.49-0.83,4.15-1.66,4.98-2.49l2.49-3.32l1.66-4.98l9.96-7.47l3.32,3.32l3.32,9.96c3.32,0,4.98,0.83,5.81,2.49l-1.66,4.98v6.64
	l9.13,5.81l0.83,9.96c0.83,2.49,2.49,3.32,5.81,4.98h1.66l1.66,0.83l5.81,20.75c1.66,4.15,2.49,7.47,1.66,8.3l-2.49,0.83l-2.49-0.83
	l-1.66,4.15l-2.49,3.32l-11.62,2.49v5.81l2.49,6.64l16.6,12.45h4.15c0.83,1.66,2.49,1.66,4.15,0.83c2.49-0.83,4.15-2.49,5.81-4.98
	l-0.83-1.65l5.81-3.32l24.9-3.32l1.65,1.66l2.49,0.83l34.86-7.47h5.82v-0.83l1.65-1.66h0.83l1.67-0.82l-2.5-3.32l1.67-1.66
	l1.65-3.32l-4.15-6.64l0.83-1.66v-1.65l-3.32-3.32l-23.22-2.52l-5.8,6.64c-1.66-0.83-2.49-0.83-1.66-1.66l-16.6-2.48l-7.47-10.8
	l-5.81-14.94c-1.66-1.66-3.32-2.49-6.64-3.32l-7.48-2.49c-1.65-1.65-4.15-9.96-5.81-24.9l-7.47-6.64c-2.49-1.66-3.32-1.66-3.32,0
	l-3.32-1.66h-11.62v-16.6c0.83-4.15,14.94-25.73,44.01-63.93l5.81-3.33l4.98-3.32c0.83-1.66,0.83-3.32,0-5.81l0.83-4.15l-0.83-2.49
	h-19.92l-8.3,5.81l-2.49,3.32l-2.48,2.49l-3.32-0.83h-4.15l-0.83,1.66h-1.66l-3.32-3.32l-4.98-0.83l-4.98-3.32l-8.3,2.48l-6.64,4.98
	c-1.66,0.83-1.66,2.49,0,4.15l0.83,6.64l1.66,4.98l2.49,0.83l0.83-2.49l9.13-4.98l3.33-0.83l0.82,1.66l-16.6,34.05l-5.81,8.3
	l-7.51,17.43l-4.15,3.33l-3.33,4.15l-6.64,4.15l-10.79-2.49l-6.64-3.32l-4.98-15.77c-1.66-2.49-3.32-3.32-3.32-2.49l-2.49-0.83
	l-2.49-9.96l4.15-10.79v-7.47l-2.48-4.98l-6.64-44.01v-14.94l-1.66-7.47l-2.49-4.99l2.49-9.96c0.83-2.49,0.83-4.98,0-6.64
	l-2.49-3.32l-1.66-1.66l-0.83-9.97l-4.15-1.65l-3.32-1.66l-30.71,3.31l-1.66,1.67l-2.49,0.82l-4.98-0.82h-9.96l-9.14,8.3
	c-0.83,5.81-0.83,9.13,1.66,11.62C1031.71,767.84,1038.35,769.5,1048.32,770.33z"/></svg>