<svg version="1.1" id="Layer_1" xmlns="http://www.w3.org/2000/svg" xmlns:xlink="http://www.w3.org/1999/xlink" x="0px" y="0px" viewBox="0 0 2500 2500" style="enable-background:new 0 0 2500 2500;" xml:space="preserve"><style type="text/css">
	.st0{fill-rule:evenodd;clip-rule:evenodd;}
	.st1{fill-rule:evenodd;clip-rule:evenodd;fill:#F2CA30;}
	.st2{fill:#F2CA30;}
</style><path class="st2" d="M1542.2,1477.66h-2.48l-1.67,1.67c-1.65,0-4.15-0.83-8.31-4.15c-1.65-2.48-4.97-16.61-10.79-41.52l-7.47-43.16
	c0-1.67,0.83-4.15,2.5-6.64l2.48-5.82c-0.83-3.32-4.15-7.47-8.31-11.62l-4.97-9.12c-0.83-1.67-0.83-4.15-0.83-8.31v-5.8l-8.31-10.79
	l-10.79-9.14h-4.98l-14.94-7.47c-0.8-0.8-1.65,0-2.48,0.83l-3.32,0.83h-7.38h0l-4.99,3.32l-4.15-1.67h-4.97
	c-1.67,0-4.15,2.5-8.31,7.47l-6.64,7.47l-3.32,0.83h-2.48l-9.99,11.62l-8.31,2.48l-7.44,0.83l-1.67-1.65l-0.83-2.5l-1.65-0.83h-2.5
	l-1.65-0.8l-1.67-0.83l-7.47,0.83l-7.47-3.35l-2.48-4.97h-2.5l-1.65-1.67h-1.67l-0.8,1.67l-0.83,0.83l-2.48,0.8l-9.14,9.99
	l-29.9-1.67c-4.15,0.83-7.47,4.99-8.31,12.46l2.5,8.29l4.97,7.5l21.61,9.12l3.32,6.64l7.47-0.83c3.32-0.8,5.8-0.8,7.47,0
	c1.65,1.67,2.48,4.15,2.48,6.67l-1.65,1.65c-1.67,0.83-2.5,1.67-1.67,2.48l0.83,0.83l1.65,2.48l7.47,39.87l2.48,3.32l2.5,1.65
	l4.97,24.93l1.67,1.65l0.83,1.67l-2.5,4.15c-1.65,1.65-2.48,3.32-1.65,4.12l0.83,1.67l2.48,0.83l0.83,3.32l-3.32,9.12
	c1.65,2.5,1.65,4.99-0.83,5.82h-4.98l-10.79,7.47l-12.44,3.32l-4.99,5.8l-1.67,8.31l-1.65,4.15c0,4.15,0,6.64,0.83,6.64l2.48-0.83
	h1.65l9.14,6.64l2.48-0.8l2.5-2.48l9.96-4.15l5.8,1.65l1.67-1.65l3.32-2.5h2.48l2.5,0.83l32.37-6.64l4.99,1.65l4.12-2.48
	c2.5-2.48,4.15-3.32,4.99-3.32l10.79,0.83l4.99-5.82l4.12-6.64l0.83-14.11l6.67-7.47l-2.5-0.83l-1.65-0.83h-1.67l-3.32,4.15
	l-29.9,4.99c-1.65-0.83-4.15-4.15-7.47-9.14c-0.83-3.32-1.65-4.97-0.83-7.47l2.5-0.8l2.48-4.15l-11.62-28.25
	c-0.83-3.32,0-8.29,2.48-15.76l4.99-12.46v-9.96c0.83-0.83,1.67-1.67,2.5-1.67l3.32-0.8l0.8-1.67v-2.48l6.67-19.1l0.8-1.67
	l-1.65-1.65c-0.83-2.48,0-4.99,1.65-7.47l3.32-1.67h4.15l4.99-3.32l9.12-10.79c2.5-2.48,4.99-4.15,7.47-4.99
	c3.35-0.8,8.31,0.83,14.94,4.15c4.99,2.5,9.14,4.99,11.62,7.47l2.48,4.99l0.83,4.99l3.32,3.32l3.35,5.8l2.48,27.41l3.32,3.32
	l1.65,4.15l-1.65,4.97l3.32,3.32l2.48,4.15l-0.8,4.15l-1.67,3.32v10.79l11.62,19.93l-0.83,4.15l1.67,1.65h0.8l-2.48,4.99
	l-33.22,9.12c-1.65,0-3.32,1.67-4.15,2.5l-1.65,1.65l-1.67-0.83l-1.65,0.83c0,0-0.83,2.48,0,6.64l1.65,8.31l4.99,4.99l15.78-3.32
	l5.8,3.32l12.46-2.48l11.61-3.35l0.83-1.65v-1.67l26.58-4.97l7.47,4.15l1.65-1.67l0.83-2.48l3.32-1.67l1.67-2.48l-6.64-10.79
	L1542.2,1477.66z"/></svg>