<svg version="1.1" id="Layer_1" xmlns="http://www.w3.org/2000/svg" xmlns:xlink="http://www.w3.org/1999/xlink" x="0px" y="0px" viewBox="0 0 2500 2500" style="enable-background:new 0 0 2500 2500;" xml:space="preserve"><style type="text/css">
	.st0{fill-rule:evenodd;clip-rule:evenodd;}
	.st1{fill-rule:evenodd;clip-rule:evenodd;fill:#F2CA30;}
	.st2{fill:#F2CA30;}
</style><path class="st2" d="M701.24,1657.78c-4.98-2.48-9.13-4.15-11.62-4.15l-16.6,6.64v1.67l-1.66,1.67l-9.13-0.83l-5.81-4.15
	c-3.32-2.48-5.81-4.15-6.64-4.15l-3.32,3.32l-2.49,4.99l-8.31,1.65l-4.15-3.32v0.83l-7.47-16.59c-2.49-2.5-2.49-6.64-0.83-14.14
	l2.49-13.27l-9.13-67.26l0.83-3.32v-3.32l-8.3-34.05l-9.13-13.27l0.83-1.67c0-0.8,0.83-2.48,0.83-4.97l-1.66-4.99l-1.66-0.83
	l0.83-10.79c0-2.48,0-9.96-1.66-19.1l-3.29-19.05l0,0l-8.3-9.99l-22.41,3.32c-2.49,0.83-4.98,1.67-8.31,2.5l-19.09,8.31l-3.32-3.35
	c-0.83-1.65-2.49-2.48-3.32-2.48l-30.71,5.82l-3.32,2.48l-0.83,1.67c-0.83,0.8-2.49,0-4.15-1.67c-5.81,2.48-9.96,4.99-11.62,7.47
	c-0.83,0.83,0.82,4.97,4.15,11.62l8.3,11.62l12.45,2.48c1.66,0.83,1.66-0.83,1.66-4.15l0.83-5.82l3.32,5.82
	c1.66,4.15,3.32,4.99,4.98,4.15c2.49,0,4.15-0.83,4.98-2.48l2.49-4.15l23.24-4.99l2.49,0.83l4.15,0.8l7.47-2.48
	c1.66-1.65,2.49-1.65,3.32,0l5.81,19.1l3.32,19.1l-0.83,3.32l-1.66,1.67l4.98,10.79l4.15,0.8c0.83,0,1.66,1.67,2.49,4.15
	c0,3.32-0.83,6.64-2.49,9.14l-4.15,5.8l6.64,29.05l-0.83,17.43l-7.47,14.94l0.83,5.82l7.47,4.99c4.15,2.48,6.64,4.97,7.47,6.64
	c0,2.48-0.83,4.97-2.49,7.47l-4.98,6.64c-0.83,2.48,0,7.47,0.83,14.11l2.48,5.8c4.15,3.35,5.81,5.82,3.32,9.14l-2.49,5.8l-4.98,7.5
	l-6.64,1.65l-5.81-0.83l-14.11,9.14l-10.79,0.8c-5.81,0-8.3,1.67-9.13,2.5v4.97l-0.83,4.15l-4.98,5.82
	c-1.66,7.47-1.66,10.79,0.83,11.62l29.9,2.48l12.45-2.48c4.15-0.83,6.64,0,6.64,1.65h5.81l4.98-2.48l7.47-3.32
	c4.15-0.83,6.64-2.5,6.64-3.32c0-0.83,2.49-2.5,6.65-3.35l9.96-0.8v-2.5l4.98-0.8l1.65,2.48h5.81l2.49-2.48l3.32-2.5h7.47l8.3,2.5
	l4.98-1.67c1.66-2.48,3.32-3.32,4.98-3.32l8.3,1.65c2.85,0,5.56-1.2,7.47-3.32l4.98-3.32h7.47c4.15-2.48,9.13-6.64,14.11-13.27
	c1.66-2.48,1.66-4.99,0.83-9.14C705.39,1661.95,703.73,1660.27,701.24,1657.78z"/></svg>