<svg version="1.1" id="Layer_1" xmlns="http://www.w3.org/2000/svg" xmlns:xlink="http://www.w3.org/1999/xlink" x="0px" y="0px" viewBox="0 0 2500 2500" style="enable-background:new 0 0 2500 2500;" xml:space="preserve"><style type="text/css">
	.st0{fill-rule:evenodd;clip-rule:evenodd;}
	.st1{fill-rule:evenodd;clip-rule:evenodd;fill:#F2CA30;}
	.st2{fill:#F2CA30;}
</style><path class="st0" d="M1250.05,1422.87l-2.49-7.47c-0.83-1.65-4.15-2.48-8.3-2.48l-6.64-2.48l-0.83-1.67l-1.66-0.83l-4.15-0.83h-2.49
	l-1.66-2.48h-7.47l-4.15-2.48l-4.98-1.67c-0.83,0.83-3.32,1.67-5.81,4.15l-4.15,3.32l-4.15-0.83l-3.32,5.82l-19.92,4.99l-6.64,7.44
	l-5.81,9.99l0.82,13.27l-2.49,5.8l-2.49,4.15l9.96,20.78l6.64,25.73l9.13,4.97c0.83,0.83,0.83,1.67-0.83,2.5
	c-0.82,0-0.82,0.83,0,1.65l21.59,20.78h9.96c1.65,0,1.65,0.8,1.65,0.8l1.66,1.67l9.96-1.67l9.97-2.48l9.96-9.12l5.81-1.67l2.49,0.83
	c0.83,0.83,1.66,1.65,3.32,1.65l2.49-3.32l1.66-3.32v-1.65l-0.83-2.5c0-1.65,1.66-4.15,4.97-8.29l4.15-6.67l-1.65-7.47l7.47-10.79
	l-3.32-12.44c-0.83-1.67,0-3.35,1.65-5.82l1.67-5.8c0-3.32-3.32-8.31-8.31-14.11l-3.32-0.83l-1.66-1.67v-6.64l-2.49-1.65l-3.32-1.67
	C1250.88,1429.51,1250.88,1427.02,1250.05,1422.87L1250.05,1422.87z"/></svg>