<svg version="1.1" id="Layer_1" xmlns="http://www.w3.org/2000/svg" xmlns:xlink="http://www.w3.org/1999/xlink" x="0px" y="0px" viewBox="0 0 2500 2500" style="enable-background:new 0 0 2500 2500;" xml:space="preserve"><style type="text/css">
	.st0{fill-rule:evenodd;clip-rule:evenodd;}
	.st1{fill-rule:evenodd;clip-rule:evenodd;fill:#F2CA30;}
	.st2{fill:#F2CA30;}
</style><path class="st1" d="M1832.86,625.87c-5.8-4.15-14.11-7.48-26.57-9.97c-13.27-2.49-22.42-4.98-27.38-7.47l-73.89-33.22
	c-8.31-1.66-19.1-6.64-33.22-16.6c-13.29-9.97-24.08-15.77-32.4-17.43c-14.94-12.45-37.34-19.93-67.24-21.59l-71.41-5.81
	c-9.96,5.81-23.25,6.64-40.69,2.49l-144.44-8.3c-9.99,4.15-24.08,7.47-42.36,9.13l-43.18,6.64c-8.3,4.15-21.58,6.65-40.69,7.47
	c-19.09,0.83-33.22,3.32-42.35,6.64l-44.84,2.49l-44.01,13.28c-9.96-1.66-22.41,0-36.52,4.15l-34.05,9.97
	c-11.62,2.48-20.76,5.81-27.39,8.3c-9.97,5.81-15.78,12.46-16.61,21.59c-18.26-9.13-41.52-8.3-70.57,3.32l-15.77-1.66l-14.94,1.66
	c-7.47,9.13-18.26,15.77-33.22,19.92l-36.52,11.62c-5.81,6.64-12.45,12.45-21.58,16.6l-24.91,9.14c-4.98,5.81-12.45,10.79-24.9,16.6
	c-10.79,4.98-19.09,9.96-23.24,15.77c-3.32,4.15-9.14,6.64-18.27,9.13c-9.13,2.49-14.94,4.98-18.26,7.47
	c-3.32,6.64-8.3,10.79-15.77,14.11l-37.35,14.12c-5.81,4.15-9.96,9.13-12.45,16.6c-6.64-0.83-14.11,3.32-23.24,10.8
	c-9.14,8.3-16.61,12.45-23.25,12.45l-30.71,39.86c-11.62,14.94-24.07,24.9-36.52,31.54l-67.26,90.5
	c-7.47,8.3-14.94,20.75-24.07,37.37c-9.13,17.43-16.6,29.88-22.41,36.52c-0.83,7.47-4.15,15.77-8.3,24.07l-9.97,23.24
	c-8.3,19.1-10.79,35.71-7.47,50.65c-3.32,2.49-6.64,7.47-9.13,14.94c-3.32,6.64-6.64,9.96-11.62,11.62
	c-8.3,0.83-15.77,6.64-23.24,14.94l-19.1,22.41c-15.77,9.96-33.22,26.56-51.48,48.99l-44.84,56.44c-0.87,7.69-4.06,14.94-9.14,20.78
	l-14.11,18.26c-8.3,7.47-10.79,19.91-8.3,37.37l2.49,19.91c0,8.31,0,14.94-2.49,19.93c1.66,22.42,9.13,43.16,22.41,65.59
	l42.35,56.47l13.28,5.8c5.81,2.48,8.3,5.8,8.3,11.62c10.79,4.99,23.24,16.59,38.2,33.22c14.94,15.76,28.22,26.58,38.18,32.37
	l5.81,1.67l4.15-3.35c4.15,0,8.3,0.83,11.62,3.35c0,2.48-0.82,4.97-2.49,8.29l29.9,29.08c7.47,0.8,14.94,5.8,23.24,15.76
	c8.3,10.79,16.61,16.61,23.24,16.61c8.3,15.76,20.76,32.37,37.35,49.8l44.01,44.84c9.13,1.65,21.58,9.96,37.35,23.23
	c14.94,13.29,27.39,20.78,38.18,21.61c14.11,13.27,34.05,26.58,58.12,39.01l63.93,30.73c8.31,7.47,21.59,14.94,39.03,21.58
	c19.93,8.29,34.05,14.11,40.69,19.1c6.64-0.83,15.77,0,25.73,3.32l25.73,4.97c81.36,30.73,159.4,48.99,235.79,56.47l26.56,2.48
	c12.45-0.8,20.76,0,25.74,3.35l156.91-2.5c8.3,4.15,19.92,6.64,33.22,6.64l35.69-3.32c10.79,4.15,24.06,4.15,39.84,0.83l41.52-4.99
	c7.47-4.15,16.59-7.47,27.38-9.96l29.08-7.47l63.92-8.31c11.62,0,23.25-3.32,34.88-9.12l31.54-17.43l33.22-6.67
	c36.52-9.12,70.57-23.23,102.95-40.69c13.29-3.32,29.9-10.79,48.16-23.23c23.25-15.78,38.17-24.9,45.67-28.22
	c3.32-6.67,9.96-12.46,20.75-17.46c11.62-4.97,18.26-10.79,20.75-18.26c5.82,0.83,13.29-0.83,22.42-6.64
	c9.14-5.82,15.78-9.14,21.58-9.14c4.15-4.97,11.62-10.79,23.25-16.59l23.25-19.1c4.97-0.83,11.61-4.97,17.43-9.96l12.46-14.94
	l-5.82-4.99c-3.32-4.97-1.67-9.96,4.99-14.11c5.8,0.83,10.79,3.32,12.44,7.47c0.83-2.48,2.5-4.15,4.15-5.8l5.82-3.32
	c3.32-6.67,9.96-13.29,20.75-19.93c10.79-6.64,16.59-13.27,19.91-20.75l29.08-21.58c10.79-9.14,18.26-19.1,22.42-28.25h-4.15
	l-2.5-2.48c-0.8-1.67-1.65-2.48-0.8-4.15c1.65-3.32,4.12-4.99,8.29-4.15c4.16,0.84,5.82,3.32,4.99,5.82l10.79-10.82h-2.48
	c-1.67-0.8-2.5-1.65-2.5-3.32v-4.97c0-2.5,1.67-3.32,4.15-3.32h6.64l3.35-20.78c9.12-0.83,14.94-6.64,19.91-15.76l4.99-12.46
	c2.48-4.99,4.97-8.31,7.47-10.79c9.12-7.47,16.59-18.26,23.23-32.37l18.26-35.72c0-10.79,4.99-24.06,14.94-39.84
	c11.62-16.59,17.46-29.05,19.1-38.17c5.82-4.15,11.62-10.82,15.78-20.78c5.8-13.27,9.12-20.75,10.79-23.23
	c7.47-3.35,14.11-9.99,19.93-18.26l15.76-21.61c11.62-5.8,24.08-16.59,37.37-33.19l33.22-39.87l3.32-14.94
	c8.31-9.96,12.46-24.07,14.11-41.52l0.83-45.67c-4.15-9.13-5.8-18.26-6.64-29.9l1.65-31.54c-2.03-6.2-3.42-12.6-4.15-19.09
	l-1.65-19.93c-2.48-16.6-7.47-28.22-14.94-36.52c-4.97-14.11-15.78-28.22-29.9-40.69c-13.27-10.79-28.22-19.92-44.01-25.73
	c-9.12-11.62-23.23-21.58-44.01-29.88l-24.06-9.13c-8.31-4.15-15.78-9.13-21.58-14.95l-32.4-28.22
	c-14.11-12.45-23.23-23.24-29.9-33.22c-8.29-2.49-17.43-9.13-26.55-19.92l-38.2-39.03l-16.59-9.96
	c-22.42-11.62-44.01-26.56-65.59-43.18c-6.67-8.3-15.78-15.77-28.25-22.42l-31.54-15.77c-7.47-9.13-20.78-14.94-39.04-17.43
	l-21.58-2.49C1845.3,630.85,1837.85,629.19,1832.86,625.87L1832.86,625.87z M1607.03,571.07c6.67-4.15,10.79-2.49,14.11,4.98
	c-0.8,4.15,0.83,7.48,2.5,11.62c2.48,3.32,5.8,6.64,9.12,7.47h4.15l2.48,2.49c0.83,3.32,0,5.81-4.12,5.81
	c-4.99,0.83-11.62-2.48-17.46-9.96c-4.97,2.49-6.64,4.98-4.97,9.13c1.65,4.98,1.65,8.3-0.83,10.79h-13.27v-12.45l2.48-0.83
	l1.65-2.49l-6.64-5.81c-3.32-2.49-4.99-4.98-3.32-8.3c2.46-1.31,4.7-2.99,6.64-4.98L1607.03,571.07z M1660.18,626.7l5.8,1.66
	l1.67,4.15c0.83,1.66,0.83,3.32-0.83,4.15l-4.15,1.66l-4.15-0.83l-3.32-2.49C1652.71,630.02,1655.19,627.52,1660.18,626.7
	L1660.18,626.7z M1888.49,730.47h9.96l-2.48,11.62l-7.47-0.83v-10.79H1888.49z M1843.65,701.42l-2.48,7.47
	c-1.67,2.49-4.15,3.32-6.67,0.83c-4.97-2.49-5.8-9.96-4.12-22.41c4.12-0.83,7.47,0,9.96,4.15L1843.65,701.42L1843.65,701.42z
	 M1819.57,705.56c1.67,4.98-1.65,7.48-9.12,6.64c-2.48-0.82-3.32-3.32-2.48-5.81C1813.77,702.25,1817.92,701.42,1819.57,705.56z
	 M1465.08,577.71c-3.32,0-4.99-0.83-6.64-2.49c-0.83-3.31,0-4.98,4.15-5.81c3.32,0,4.97,0.82,5.8,3.32
	C1469.23,576.88,1468.4,578.54,1465.08,577.71L1465.08,577.71z M1489.98,576.05l3.32,1.66v3.32l-3.32,0.83l-2.48-1.66
	C1487.46,578.46,1488.43,576.85,1489.98,576.05z M1498.28,583.52c-2.48-3.32-2.48-6.64-0.83-9.14c2.48-3.32,4.99-4.15,9.14-3.32
	l0.8,6.64l-4.12,4.15l-2.5,1.66h-2.49L1498.28,583.52L1498.28,583.52z M1559.72,597.63h5.82c2.48,0,4.15,0.83,4.15,3.32
	c0.8,4.98-0.83,8.3-3.35,9.96l-10.79-0.83v-7.47C1556.4,600.12,1557.23,598.46,1559.72,597.63L1559.72,597.63z M1281.59,586.01
	l0.83,6.64c0,3.32-1.67,4.98-4.15,4.98l-10.79-1.66c-3.32,0-4.99-2.49-4.15-6.64c-1.67-4.98,0-8.3,6.64-8.3
	C1274.97,581.86,1279.12,582.69,1281.59,586.01L1281.59,586.01z M1333.07,576.05l3.32-3.32l6.64,0.83c1.67,1.66,1.67,3.32,0.83,6.64
	v3.32c-3.32,1.65-7.47,0.83-11.62-2.49C1331.4,579.37,1331.4,577.71,1333.07,576.05z M1937.46,727.98l-5.8,3.32l-5.8-0.83
	c0-6.64,1.65-9.96,4.97-10.79c4.15,0,6.64,0.83,7.47,2.49C1939.14,724.66,1938.29,726.32,1937.46,727.98L1937.46,727.98z
	 M2069.47,840.06c4.99-1.66,9.99,1.66,13.29,7.47v9.97c-0.83,3.32-2.48,5.81-5.82,6.63h-7.47c-2.48-0.82-4.12-1.65-4.12-4.98v-10.79
	C2065.33,845.04,2066.98,841.72,2069.47,840.06L2069.47,840.06z M2344.28,1127.32c1.65,3.32,0,4.98-4.99,6.64h-4.99
	c-1.65,0-3.32-0.83-3.32-3.32c0-1.66,0-3.32,0.83-4.15l4.99-3.32l4.99,0.82L2344.28,1127.32L2344.28,1127.32z M2264.57,1318.29
	l-4.12,4.12c-4.15,0-8.31-1.65-9.14-4.12v-6.67c0.83-3.32,2.48-4.15,4.99-4.15l6.64,0.83c1.65,1.67,2.48,3.32,2.48,4.99
	L2264.57,1318.29L2264.57,1318.29z M2219.75,1360.61l-4.99,0.83h-2.48c-1.67-0.83-1.67-1.67-1.67-3.32c-0.83-3.32,0-4.99,4.15-5.82
	c3.32-0.8,4.99,0,5.8,3.32L2219.75,1360.61L2219.75,1360.61z M2187.35,1366.42c4.99,0.83,5.82,3.32,4.15,8.31
	c0.83,3.32,0,4.99-3.32,5.82c-4.97,0-7.47-3.32-8.29-9.99C2179.91,1366.42,2182.4,1365.6,2187.35,1366.42z M1981.46,1627.12
	l3.35-4.99c8.74,2.38,16.74,6.95,23.23,13.27c-0.8,4.99-3.32,6.67-6.64,6.67c-3.32,1.65-6.64,0-9.12-4.15
	c-2.5-4.15-5.82-6.67-8.31-6.67C1981.46,1630.44,1980.65,1628.77,1981.46,1627.12z M2172.41,1462.72c1.67,2.48,1.67,5.82,0.83,8.31
	c-0.83,3.32-3.32,4.15-6.64,3.32h-3.32c-2.48-3.17-2.48-7.62,0-10.79L2172.41,1462.72L2172.41,1462.72z M2011.35,1668.61
	c0.83,2.5,0.83,4.99,0,8.31l-4.97,6.64l-13.29,8.31l-14.94,0.83c-2.48-0.83-3.32-2.5-3.32-5.82l0.83-5.8
	c1.67-2.48,5.8-3.32,13.27-1.67c4.99,0.83,7.47-1.65,6.67-7.44C1996.41,1667.78,2001.39,1666.96,2011.35,1668.61L2011.35,1668.61z
	 M1306.5,1907.72c0.83,9.99-1.67,14.94-6.64,15.78l-7.47-2.48c-2.48-2.5-4.15-4.15-4.15-7.47l2.48-6.64l4.15-4.99
	C1300.7,1901.08,1304.82,1902.76,1306.5,1907.72L1306.5,1907.72z M1909.24,1659.49h6.64c1.67,0,2.5,0.8,3.32,3.32
	c0.83,3.32,0,7.47-3.32,13.27c-3.32,4.15-4.15,9.14-2.48,13.29c-4.99,0-7.47,2.48-9.14,6.64c-0.8,4.15-0.8,7.47,0,12.46
	c1.67,2.48,0,4.97-4.12,5.8c-9.14,0.83-14.94-1.67-18.29-8.31c-0.8-4.99,0-7.47,4.15-9.12l9.99-3.35c-1.67-4.97,0-10.79,3.32-17.43
	L1909.24,1659.49L1909.24,1659.49z M1840.34,1720.09c4.97-4.15,9.12-3.32,11.62,0.83c0.8,4.15,0,6.64-4.15,7.47
	c-4.15,1.67-5.82,4.15-6.64,5.8l9.12,9.99c4.15,2.48,4.99,6.64,1.67,10.79c-2.5,3.32-4.99,4.15-8.31,3.32c0-2.5-1.67-5.82-4.99-9.14
	l-9.96-5.8c-8.31-5.8-8.31-11.62-1.65-18.26C1830.38,1727.56,1835.35,1725.08,1840.34,1720.09L1840.34,1720.09z M1900.93,1736.7
	c-2.48-0.83-3.32-4.15-3.32-10.79c3.32-3.32,7.47-4.15,11.62-1.67c4.15,3.32,4.99,6.64,1.67,11.62L1900.93,1736.7z M1820.4,1749.98
	c5.82,1.67,9.14,4.15,9.14,9.14l8.31,7.47c3.15,2.26,4.2,6.48,2.48,9.96l-6.64,4.15l-7.47-0.83c-0.83-3.32-1.67-6.64-4.15-9.12
	l-8.31-4.15c-7.47-4.15-9.14-9.14-7.47-15.78L1820.4,1749.98L1820.4,1749.98z M1766.44,1826.35c1.67-1.65,3.32-1.65,4.15,1.67v4.99
	h-2.48l-3.32-1.67C1763.12,1829.7,1763.97,1828.02,1766.44,1826.35L1766.44,1826.35z M1757.3,1831.34h-5.8
	c-1.67-0.83-3.32-1.65-3.32-3.32c-1.67-4.99,0-6.64,4.15-6.64l9.12,2.48C1761.45,1828.02,1760.65,1830.51,1757.3,1831.34z
	 M1897.62,1765.77l-1.65,10.79l-19.93,7.47l-21.58,2.48l-0.83-3.32v-4.15l18.26-5.8c7.47-3.32,11.62-7.47,12.46-14.94
	C1893.46,1757.45,1898.45,1760.78,1897.62,1765.77z M1607.03,1833.02c0-4.15,0.83-7.47,2.5-9.99l3.32-9.96l9.12,0.83
	c3.32,0.83,5.82,2.48,6.64,4.97c0.83,4.99-0.8,8.31-4.97,10.82c-4.99,2.48-5.82,5.8-4.15,9.96l-9.96,0.83l-4.99,6.64l-4.99,4.97
	c-2.48,0.83-4.97-1.65-8.31-5.8v-6.64c0.83-2.48,2.5-3.32,4.99-3.32l6.64,0.83L1607.03,1833.02L1607.03,1833.02z M1697.55,1814.76
	c1.65-1.67,3.32-2.5,4.97-2.5c9.99-0.83,16.61,0.83,19.1,4.15c1.67,4.15,1.67,6.64-1.67,9.14l-9.12,0.8h-9.12
	c-3.32-0.8-4.99-2.48-4.99-5.8C1695.87,1818.88,1696.7,1816.4,1697.55,1814.76z M471.3,903.99c4.15-1.66,6.64,0,7.47,4.15l-1.66,8.3
	c-2.49,4.15-6.65,4.15-13.28,1.66c-1.66-2.49-1.66-5.81,0-9.13C465.48,906.48,467.98,903.99,471.3,903.99L471.3,903.99z
	 M487.07,889.87c0.83,3.32,0,5.82-3.32,6.64c-4.98-0.82-7.47-3.32-7.47-6.64c0-2.49,1.66-3.32,5.81-3.32
	C485.41,886.55,487.07,887.38,487.07,889.87z M1138.8,551.15v5.81c0,2.49-0.83,4.15-2.49,4.98l-8.3-1.66l-4.15-5.81
	c-0.83-1.66,0-4.15,0.83-5.81l4.98-2.5C1134.65,545.33,1137.97,546.99,1138.8,551.15L1138.8,551.15z M1079.85,618.39
	c1.66,0,3.32,0.83,4.98,3.33c0,4.15-0.82,7.47-2.49,10.79c-1.66,3.32-4.98,4.15-8.3,2.49l-2.49-7.47l2.49-7.47L1079.85,618.39z
	 M1191.09,569.41c3.32-4.15,7.48-4.98,12.45-3.32l0.83,5.82v6.64c-4.98,3.32-8.3,4.15-12.45,2.49
	C1188.61,577.71,1188.61,573.56,1191.09,569.41L1191.09,569.41z M1233.44,598.46v-4.98c-1.66-4.98,0.83-6.64,5.81-5.81
	c5.81,1.66,7.47,4.15,5.81,7.47c0.83,2.49,0,4.15-2.49,4.15l-4.98,0.83C1235.1,600.95,1234.27,600.12,1233.44,598.46L1233.44,598.46
	z M1000.98,635.83c0.82,4.15-0.83,6.64-3.32,7.47c-4.15,0.83-5.81-0.83-5.81-3.32c0-4.15,0.83-6.64,2.49-6.64L1000.98,635.83
	L1000.98,635.83z M936.22,642.47v-4.98c2.49-4.15,5.81-4.98,9.97-3.32c4.98,2.48,4.98,5.81,1.65,9.96
	c-3.32,4.15-7.47,4.98-9.96,2.49C936.22,645.79,936.22,644.13,936.22,642.47L936.22,642.47z M726.18,668.2
	c-0.83-4.15,0.83-6.64,5.81-6.64l10.79,1.66c1.66,2.49,1.66,5.81,0.83,8.3c-1.13,2.64-3.78,4.3-6.65,4.15l-8.3-0.83
	C726.18,674.01,724.52,671.52,726.18,668.2L726.18,668.2z M685.49,722.17h6.64c1.66,1.66,1.66,3.32,1.66,5.81
	c-1.66,1.66-2.49,2.49-4.98,2.49c-2.49,0-4.98-0.82-5.81-2.49C683,724.66,683,723,685.49,722.17z M767.68,674.01v-5.81
	c5.81-0.82,10.79,2.49,14.94,9.13l-1.65,4.15C774.33,680.65,770.17,678.18,767.68,674.01L767.68,674.01z M847.39,1848.78
	c1.65-9.12,6.64-9.96,14.94-4.15l5.81,12.46c2.49,4.99,2.49,9.96,0,13.29l-19.1-0.83C846.56,1862.89,845.73,1855.42,847.39,1848.78
	L847.39,1848.78z M882.26,1838.81c0.83,2.14,0.83,4.5,0,6.64c-1.48,1.64-3.6,2.55-5.81,2.48c-4.98,0-9.13-4.12-14.11-13.27
	c0.83-5.8,4.15-8.31,9.97-6.64C878.1,1830.51,881.43,1833.83,882.26,1838.81z M1067.4,1908.55h-8.3l-4.98-6.64
	c-1.66-6.64,2.49-13.29,11.62-19.1c12.45-3.32,17.43-0.83,16.6,7.47c0,4.15-0.83,8.31-4.15,11.62
	C1075.7,1906.08,1072.38,1907.72,1067.4,1908.55z M1006.79,1903.59c3.32,8.29,1.66,15.76-3.32,22.4c-3.32,2.5-7.48,4.15-13.28,3.32
	c-2.49-2.48-2.49-5.8-1.65-10.79l1.65-10.79C992.68,1904.4,998.49,1903.59,1006.79,1903.59z M1230.12,1886.97
	c5.81-2.48,9.97,0,12.45,5.8c0.83,4.99-1.65,8.31-6.64,10.82c-7.47,2.48-11.62,4.97-12.45,6.61l-6.64-0.8l-3.32-4.99
	c-0.83-4.15,0.83-8.31,5.81-10.79C1225.97,1891.13,1229.29,1888.62,1230.12,1886.97L1230.12,1886.97z M326.84,1516.7
	c-0.83-4.15,0-6.67,3.32-8.31c5.81-0.83,9.14,1.65,9.97,7.47c1.65,3.32,0,5.8-4.98,9.12l-6.64-0.8L326.84,1516.7L326.84,1516.7z
	 M247.97,1534.13h-9.96c-0.83-2.5-1.65-4.99-0.83-8.31c0.83-2.48,2.49-4.15,5.81-4.15l4.98,1.67c2.49,0,3.32,0.83,3.32,3.32
	C252.12,1529.98,251.29,1533.3,247.97,1534.13L247.97,1534.13z M435.6,1651.19l8.3,0.83v10.79c-6.65,1.65-9.97,0.83-10.8-3.32
	L435.6,1651.19z M208.11,1280.92c4.15,0.83,5.81,3.32,4.98,7.47c0,4.97-0.82,8.29-3.32,9.96l-9.96-0.83
	c-3.32-0.83-5.81-3.32-5.81-6.64c-0.83-5.8,0.82-9.12,3.32-10.79L208.11,1280.92L208.11,1280.92z M215.6,1257.67l-5.81-1.67
	c-1.66-0.8-2.49-2.48-1.66-4.97c-0.83-3.32,0.83-4.99,4.15-4.99c3.32-0.83,4.98,0,5.81,2.49
	C219.73,1252.67,218.07,1255.18,215.6,1257.67z M209.77,1317.44c5.81-1.67,11.62,0.83,17.44,8.31v5.8l-3.32,3.32
	c-7.47,2.48-12.45,0-15.77-6.64L209.77,1317.44L209.77,1317.44z M164.95,1363.1c1.66,0,2.49,1.67,1.66,4.15c0,2.48,0,3.32-0.83,4.15
	l-4.15,0.83c-3.32,0.83-5.81-0.83-5.81-4.15c-0.83-4.15,0-5.8,3.32-6.64L164.95,1363.1z M489.57,1684.4c0,4.99-1.66,8.31-4.98,9.12
	c-8.3,0.83-13.28-0.8-15.77-4.12c-0.83-8.31,1.66-12.46,5.81-12.46C482.09,1676.08,486.24,1677.76,489.57,1684.4L489.57,1684.4z
	 M1623.66,616.73c6.64-0.83,9.96,1.66,9.12,5.81c0.83,2.49-0.8,4.98-3.32,7.47c-2.48,2.49-4.15,4.98-4.15,7.47l14.11,2.49l3.35-6.64
	c0.8-1.66,2.48-1.66,4.97,0c0.83,3.32,4.15,5.81,9.96,8.3c6.67,2.49,9.99,4.98,11.62,8.3l11.62-4.15l11.62,0.83l9.14-0.83
	l4.12-13.28c1.67-1.66,4.15-0.83,9.14,2.49c3.32,2.49,3.32,6.64,0.83,12.45c-3.32-0.82-6.64-0.82-8.31,2.49l-4.99,7.47v3.32
	l-22.42-2.48l-9.96,7.47c-4.97,3.32-7.47,5.81-8.31,9.96c0,6.64,2.5,10.79,7.47,12.45l11.62-0.83c3.32,1.65,5.8,4.98,8.31,10.79
	c1.65,4.98,4.99,6.64,9.96,5.81c2.5-2.49,3.32-6.64,0-11.62c-1.65-4.15,0-7.47,4.99-9.13c1.65-0.83,4.99,0.83,10.79,4.98
	c4.15,2.49,7.47,2.49,9.96-2.49c1.67-2.49,4.15-4.98,8.31-4.98l9.96-0.82l9.96-6.64c3.35-3.32,6.67-4.15,11.65-2.49l6.61,7.47
	c0.83,3.32,0.83,6.64-0.8,9.13c-1.67,4.98-4.15,8.3-7.47,9.13l-19.1,2.49c-3.32,1.66-4.99,4.98-4.99,9.96
	c-1.65,1.66-3.32,2.49-4.97,2.49h-6.64c0-1.66-1.67-2.49-3.35-2.49l-2.48,2.49c-0.83,0-0.83,1.66-0.83,3.32l4.15,3.32h4.99
	c2.48-2.49,5.8-3.32,11.62-2.49l12.44,1.66c3.32,4.15,9.99,7.47,19.93,8.3c9.96,1.66,16.59,4.98,19.93,9.97l12.44,7.46
	c4.99,4.15,9.14,5.82,13.27,4.98l16.61,0.83l15.78-3.32l21.58-1.66c7.5,1.51,14.58,4.62,20.75,9.13c12.46,1.66,19.1,4.15,19.93,8.3
	l27.38,1.66l17.46,16.6c6.64,6.64,12.44,12.45,19.08,14.11c2.5,4.15,6.67,7.47,12.46,9.13l15.78,2.49
	c6.64,4.98,12.44,11.62,14.94,21.59l7.47,24.07l14.92-16.6c6.67-0.83,11.62,0.83,14.97,5.81c1.65,4.15,0.8,9.13-1.67,15.77
	c-2.48,6.65-1.67,10.8,1.67,14.94c2.48,1.66,6.64,4.15,13.27,5.81c4.97,2.49,9.12,4.98,10.79,9.13l1.65,9.97
	c0.83,4.15,3.35,6.63,6.67,6.63l5.8-10.79c2.48-5.81,5.8-8.31,9.96-9.14l7.47,0.83l3.32,5.81c0,9.97-4.12,15.77-12.44,18.26
	c0.83,0.83,1.65,0.83,4.15,0.83l3.32,1.66c-0.83,11.62,3.32,19.09,13.27,22.42l13.29,3.32c6.64,4.14,10.79,5.81,13.27,6.64
	c-1.58-3.89-0.95-8.33,1.65-11.62c1.67-4.15,4.99-6.64,9.14-9.14l6.64,0.83l2.48,4.98c-2.48,3.32-4.12,5.81-3.32,8.31
	c0,1.66,1.67,2.48,4.99,3.32c6.64,3.32,10.79,6.64,10.79,10.79l27.41,14.11c10.79,6.65,14.11,15.77,10.79,27.41l5.8,7.47
	c1.67,3.32,4.15,4.15,6.64,3.32c-2.48-4.15-3.32-9.96-0.8-19.92c2.48-6.64,7.47-9.96,14.94-9.96l19.08,2.49l1.67,4.97v6.64
	c-1.67,4.98-4.99,7.47-11.62,6.64l-6.64,1.66c-1.67,0.83-2.48,3.32-1.67,7.47c-1.65,8.31,1.67,14.94,9.99,19.92l24.9-3.32
	l23.25-21.59c0.8,4.98-0.83,13.29-6.67,23.25c-5.8,9.96-8.31,18.26-6.64,24.07l-3.32,4.15l12.46,35.69
	c9.12-2.49,14.11-0.83,15.76,4.98c1.67,6.64-1.65,13.28-8.29,17.44l-19.1,10.79l-8.31-0.83c-3.32-1.66-4.15-4.15-3.32-7.47
	c-1.67,4.15-4.99,8.3-10.79,12.45c-5.82,4.98-9.96,8.3-10.79,11.62h4.97c-1.65,2.49-2.48,4.98-1.65,9.97v9.13l2.48,0.83
	c-0.83,1.66-3.32,2.49-9.12,3.32c-4.15,0.82-4.99,3.32-2.5,6.64c4.99,0,7.47,2.49,6.67,7.47c0,5.81,0.8,9.96,2.48,11.62
	c-1.67,7.48-3.32,19.93-4.15,35.69l1.67,4.99c1.65,1.65,3.32,2.48,4.97,0.82c0.83-5.81,4.15-12.45,11.62-18.26
	c8.31-7.47,14.11-12.45,15.78-17.43c3.32-5.81,9.12-7.47,19.91-4.98c0.83,5.81,0,11.62-4.97,17.43l-10.79,14.11
	c-4.15,1.66-7.47,4.15-9.14,8.31l-3.32,12.45l-4.15,9.95c-3.32,2.5-7.47,3.33-12.44,2.5l-6.67,0.82l-6.64,2.49
	c1.67,6.64,1.67,13.27-2.48,20.75l-9.14,18.26l-9.96,0.83c-4.15-1.67-5.8-4.15-5.8-8.31c0,6.64-4.99,10.79-14.11,13.29
	c-7.5-4.99-14.14-4.15-20.78,3.32l-9.12,9.96l-9.99,6.64l6.67,8.31c1.65,2.53,1.65,5.79,0,8.31c-6.67,4.97-10.82,14.11-12.46,26.58
	c-2.48,14.94-5.82,24.06-9.14,29.05l-1.65,13.27c-1.67,4.99-3.32,8.31-6.64,10.79c-5.82,0-9.14,1.67-10.79,4.99
	c2.48,0,4.12,1.65,4.97,4.97l-0.83,8.31h-14.11c-4.97-0.83-8.31,1.67-10.79,6.64l4.99,10.79c3.32,3.32,3.32,7.47,1.65,10.79
	c-14.11,4.15-19.91,10.79-15.76,19.1l-5.82,5.82l-7.47-1.67c-2.16-0.14-4.2-1.01-5.8-2.48c-9.14,0.83-18.26,4.15-25.73,10.79
	c-4.99,3.32-11.62,9.96-19.93,19.91l-11.62,4.99l-14.11,2.48c-9.96,2.5-15.76,8.31-17.43,17.46c2.48,8.31,1.67,16.59-3.32,22.42
	l-9.96,1.65l-5.82,14.94l-9.12-0.83l-4.99,4.15c-1.67,2.48-1.67,4.15,0.83,4.99c0.83,2.48,0.83,4.97-0.83,6.64l-2.48,0.83
	l-1.67,2.48l-13.27-0.83c-4.15,0-8.31,2.5-11.62,6.64c-3.32,2.5-4.99,8.31-4.99,18.26c4.99,2.5,7.47,5.82,8.31,9.99l0.83,12.46
	c-5.82,6.64-14.94,9.12-27.41,8.29l-7.47-7.47c-2.48,1.67-4.15,3.32-4.97,6.64l-3.32,8.31c-2.5,6.64-7.47,8.31-13.29,4.99
	l-10.79-0.83l-10.79,7.47c0.83,9.14-2.48,13.27-11.62,13.27h-9.96c-4.15,0.83-7.47,1.67-9.14,4.15c-4.97-0.83-9.12,1.67-13.27,7.47
	l4.15,4.99c0.83,2.48,0,4.15-0.83,5.8c-0.83,2.5-1.65,3.32-4.15,2.5h-6.64c-1.65-0.83-2.48-2.5-2.48-4.99l-0.83-6.64
	c-14.94-0.83-24.9,1.65-31.54,8.29c0.8,2.5,3.32,4.99,7.44,8.31c3.35,2.5,4.15,6.64,2.5,10.79l-6.64,1.67l-7.47,1.65
	c-2.5-1.65-3.35-4.12-2.5-7.47c0-4.12-0.83-5.8-3.32-6.64c-7.47-0.8-12.44,1.67-14.11,5.82l6.64,8.29c3.35,1.67,3.35,4.99,0.83,8.31
	h-8.31c-0.83,0-2.48-4.15-2.48-9.12c-0.83-4.15-3.32-5.82-6.64-3.32l-5.82,9.12c-3.32,4.15-4.97,7.47-4.15,10.79l10.82,4.99
	c3.32,2.48,4.12,6.64,2.48,12.44c-5.82,4.15-10.79,4.15-15.78,1.67l-24.06-21.58c-4.99-0.83-9.14,1.65-14.11,7.47
	c4.15,4.15,4.97,10.79,4.97,20.75h-14.94c-3.32,0.83-7.47,4.15-12.44,8.31l-12.46,7.47l-14.11-0.83l5.8,8.31
	c2.5,3.32,2.5,6.64,1.67,10.79c-2.5,0-5.82,2.48-10.79,6.64l-10.79,0.83c-0.83-4.15-3.32-7.47-5.82-9.96
	c-2.48,0.8-4.97,2.48-7.47,4.97l-5.8,5.82l0.83,3.32c-1.67,1.65-5.82,1.65-10.79-1.67c-4.99-2.48-8.31-0.83-10.82,3.32l-1.65,19.1
	c-4.15,2.48-8.31,1.67-10.79-3.32c-3.32-4.15-6.64-6.64-9.96-4.99c0,4.15-0.83,7.47-3.32,9.99l-9.14,3.32
	c-4.15,1.65-6.64,2.48-8.31,4.15c-2.48,1.65-3.32,5.8-3.32,9.96l-26.58-1.67c-0.8-4.15-0.8-7.47,1.67-9.12
	c0.83-0.83,3.32-1.67,8.31-1.67l8.31-1.65c1.65-1.67,1.65-4.99,0-9.99c-2.5-2.48-4.99-3.32-8.31-4.12c-3.32-0.83-6.64,0-8.31,1.65
	c-1.67,3.32-4.99,5.82-8.31,7.47l-10.79,5.82c-9.12,4.97-13.27,11.61-12.44,19.08c-7.47,3.32-14.11,1.67-19.1-4.97l-5.82-8.31
	c-2.14-2.27-5.17-3.48-8.29-3.32l-10.82,6.64l-13.27,1.65c-2.48-4.12-7.47-4.97-14.11-1.65l-0.83,4.99c-4.15,1.65-7.47,0-10.79-4.99
	s-7.47-5.8-11.62-3.32c-1.65,3.32-5.8,5.8-14.11,8.31c-6.64,1.65-9.96,5.8-10.79,11.61c-3.32,1.67-7.47,0.83-10.79-2.48
	c-4.15-4.15-7.47-5.8-9.96-4.99c-1.67,3.35-4.99,5.82-9.99,8.31l-8.29,6.67h-4.99l-0.83-24.93c-6.64-2.48-14.94-0.83-23.23,4.99
	c-9.14,5.8-16.61,7.47-22.42,5.8l-10.79-2.48l-10.8-5.82c-9.14-4.12-14.94-2.48-19.1,4.99v2.48l-21.58-5.8
	c-8.3-2.48-15.77-1.67-21.59,1.67h-14.94l-14.11-4.99c-11.62-3.32-19.93,0-26.58,9.12l-9.96-3.32c-4.15-0.8-5.81,1.67-5.81,6.67
	c-4.15,2.48-7.47,0-9.96-5.82c-1.66-2.48-2.49-4.15-3.33-4.15c-1.65-0.83-3.32,0.83-5.81,4.15c0,9.14-1.66,14.94-4.98,16.61
	l-14.94,2.48l-14.12-1.65c-1.66,5.8-4.98,8.29-9.96,8.29l-24.9-2.48c-4.15,0.83-5.81,4.97-6.64,12.44c-2.49,2.5-4.98,3.35-9.14,2.5
	c-0.83-2.5-2.49-4.15-5.81-4.15c-3.32,0.83-5.81,0-6.64-1.67c-2.49-0.8-5.81-4.97-8.3-11.62c-2.49-5.8-5.81-6.64-10.79-3.29
	l-4.15,7.44c-1.66,3.32-4.15,4.99-6.65,4.99l-9.96-0.83l-9.96,7.47c-4.15,4.15-7.48,5.82-9.97,5.82c-2.49,0-4.98-4.15-6.64-9.99
	c-3.32-1.65-7.47-0.8-13.28,2.5c-4.15,3.32-8.3,1.65-10.8-4.15c-0.83-5.82,0.83-9.99,3.32-13.27c-3.32-1.67-5.81-6.67-6.64-14.14
	c-0.83-8.31-3.32-13.27-6.64-15.76l-14.11-6.67c-4.98-3.32-6.64-7.47-4.98-13.27c-1.66-3.32-4.15-4.99-9.13-4.15l-9.96,2.48
	c-3.32,1.67-8.3,4.15-13.28,7.47l-13.28,7.47c-9.97,5.82-19.93,7.47-29.07,4.99c-4.15-7.47-11.62-10.79-22.42-10.79h-13.27
	l-9.97-1.67c-1.48-1.63-3.61-2.54-5.81-2.48l-5.81,8.31c-1.66,3.32-4.15,4.99-7.47,4.15c0-4.15-1.66-6.64-4.15-8.31
	c-1.66-1.67-4.15-2.48-9.14-2.48c-9.13-1.67-14.11-4.99-15.77-10.79v-9.14c0-3.32,0.83-5.8,4.15-6.64
	c-5.81-7.47-17.43-10.79-34.05-11.62l-19.09-0.83c-6.64-0.83-12.45-3.32-16.6-6.64c-7.47-0.83-12.45,1.67-15.77,8.31
	c2.49,4.15,1.66,8.31-1.66,14.94c-4.15,0-6.64-1.67-7.47-4.99c-0.83-4.99-2.49-8.31-2.49-9.14c-2.49,0-5.81,0.83-10.79,3.35
	l-10.8,1.65c-3.32-3.32-3.32-8.31-0.83-15.78c1.66-5.8,0.83-10.79-4.98-13.27c-3.32-3.32-8.3-4.15-13.28-4.99L570,1760.8
	l-13.28-2.48c-3.32-2.5-5.81-6.64-6.64-13.27l-45.67-28.25c3.32-4.97,1.66-9.96-3.32-14.94c-5.81-5.8-7.47-11.62-4.98-16.59
	l-10.79-10.79c-4.15-4.15-8.3-5.82-13.28-5.82l-5.81-9.12l-4.15-9.99c-4.98-8.29-10.8-9.96-19.93-7.44
	c-6.64-11.62-9.96-24.93-9.13-40.69c6.64,0,11.62-2.5,14.11-7.47c-2.49-1.67-3.32-3.32-3.32-6.67v-8.29l2.48-2.48
	c0-0.83,0-1.67-1.66-2.5L433,1573.2c-4.98,2.5-7.47,6.64-7.47,14.11l-0.83,8.31l-7.47,4.99c-6.64-0.83-13.28-4.99-19.92-12.46
	l-14.94-19.91c-1.66-4.15-0.82-8.31,2.49-14.14c4.15-5.8,6.64-9.96,6.64-13.27c-10.79-10.79-19.92-16.59-27.39-18.26
	c-0.83-2.48-4.98-7.47-11.62-14.11c-6.64-5.82-8.3-10.79-6.64-16.61h9.13l9.13,2.5c2.49-2.5,5.81-8.31,9.13-16.61
	c2.49-7.47,5.81-12.46,9.13-14.94c-4.98-9.96-7.47-16.59-9.96-18.26h-3.32l-2.49,1.67v2.48c-4.15,2.48-8.3,1.67-14.11-2.48
	l-20.75-53.95c1.65-7.47,0-17.46-2.49-28.25l-7.47-26.58l-23.24-0.8c-1.66-0.83-2.49-3.35-1.66-8.31
	c-4.99-4.15-9.97-4.99-15.78-1.67l-7.47,4.99l-8.3,3.32c-14.11,3.32-25.73-5.8-34.88-27.41c0-4.15,3.32-8.29,9.97-13.27
	c6.64-4.15,9.96-9.12,9.96-14.11c8.3-4.99,13.28-9.14,14.11-13.27v-6.76c0.83-3.32,2.49-4.97,4.98-4.97
	c4.15,0.8,8.3-0.83,12.45-3.33c4.15-3.32,6.64-6.65,7.47-10.79c0.82-2.49,1.66-4.98,1.66-9.13l-0.83-9.13
	c0.83-6.65,4.15-10.8,9.97-11.62l18.26-2.49c5.81-2.49,10.79-5.81,13.28-10.79c-0.83-4.15,0-7.47,4.15-10.79
	c7.47,0,12.45-4.15,16.6-12.45c5.82-9.96,10.8-16.6,14.94-19.09l4.98-7.47l7.47-7.47c6.65-5.81,6.65-11.62,1.67-17.43
	c0-6.65,3.31-14.94,9.96-23.24c7.47-9.96,11.62-17.43,12.45-21.59l9.97-6.64c4.15-1.66,5.81-4.98,4.98-9.14
	c-4.98-2.49-8.3-4.98-9.14-6.64c-3.32-2.48-3.32-6.64-0.83-9.96c5.81-2.49,11.62-8.3,15.77-17.43c4.98-9.97,9.97-15.78,14.11-19.1
	c0.83-1.66-0.83-5.81-4.15-9.96c-2.49-4.15-2.49-8.3,0.83-10.79c4.15-2.49,8.3-7.47,11.62-14.94c3.32-7.47,6.64-11.62,12.45-12.45
	c1.66-7.47,8.3-17.44,17.44-29.05c9.96-11.62,15.77-21.59,18.26-28.24c2.49-5.81,6.64-8.3,14.11-9.96
	c8.3-2.49,13.28-4.15,15.77-5.81l26.56-39.01c10.79-15.77,23.24-24.07,36.52-28.24c0.83-6.64,3.32-12.45,8.31-15.77l30.71-13.28
	c4.98-4.15,8.3-9.13,9.13-16.6c9.96-5.81,19.92-12.45,29.9-18.26c12.44-7.47,22.41-12.45,32.37-15.77c2.49,0.83,6.64,0,9.97-3.32
	c4.15-3.32,7.46-4.98,9.96-4.15c0-6.64,4.15-10.8,11.62-11.62c4.15-0.83,6.64-1.65,8.3-2.49c2.49-1.66,4.15-4.15,4.15-8.3
	c5.81,0.82,12.45,0,20.76-3.32c9.13-4.15,15.77-5.81,21.58-4.98c0-5.81,1.66-9.13,5.81-11.62l11.62-1.66
	c4.98-0.83,8.3-1.65,9.13-3.32c2.49-1.66,1.66-5.81-1.65-12.45c4.98-7.47,10.79-11.62,14.94-10.79l15.77,1.66
	c7.47-2.49,13.28-2.49,16.6,0c3.32-4.15,8.3-5.81,15.77-4.98c1.66,0.82,2.49,3.32,3.32,8.3c0,4.15,1.66,5.81,4.98,5.81
	c0-3.32,1.66-4.98,4.98-5.81h8.3l0.83,2.49c2.39-0.73,4.25-2.59,4.98-4.98l3.32-7.47c3.31-5.82,8.3-7.48,14.11-4.99
	c-1.66,6.65-0.83,12.45,2.49,17.44c3.28,0.79,5.85,3.36,6.64,6.64c1.66,2.49,0.83,5.81,0,8.3c-4.15,0.83-4.98,3.32-4.15,6.64
	c4.15,4.15,8.3,5.81,12.45,5.81c2.49-0.83,5.81-1.66,10.8-4.98l10.79-6.65l14.11,0.83c1.66-1.66,4.98-3.32,11.62-4.15
	c4.98-0.83,8.3-3.32,9.13-7.47l9.96-4.98c4.98-1.66,5.81-4.15,4.15-7.47v-7.5c0-4.15,1.66-5.81,4.15-6.64l14.94,0.83
	c0.83-0.83,5.81-2.49,14.11-7.47l11.62-2.49c3.32,1.66,4.98,6.64,4.98,14.94l8.3,5.81c0.83-6.64,5.81-10.79,13.28-11.62l19.92-1.66
	c9.13-7.47,16.6-9.96,23.25-6.64l15.77-1.66l17.43-3.32c2.49,0.82,6.64,0,13.28-3.32c4.15-2.49,8.3-1.66,10.79,3.32l63.93-12.45
	c9.13-0.83,15.77-3.32,19.92-6.64l8.31-13.28h12.46l10.79-6.64c4.12-3.32,7.47-4.15,10.79-4.98c3.32,0,7.47,2.48,11.62,6.64
	c4.15-4.98,9.96-8.3,19.91-8.3l35.69-4.15c4.21-1.91,6.84-6.18,6.67-10.8c0-0.83,0.8-1.66,3.32-1.66l3.32,10.8
	c1.65,4.15,4.99,5.81,8.29,5.81h11.62l8.31-7.47c2.5-2.49,4.99-3.32,6.64-3.32c2.5,0.83,4.99,4.15,6.64,9.96
	c3.35,0.83,4.99,0,7.47-1.66l4.15-6.64c-0.8-1.66-2.48-2.49-6.64-3.32c-2.48,0-3.32-2.49-2.48-4.98c1.65-2.49,4.15-3.32,6.64-1.66
	c3.32,0.83,4.99,2.49,4.99,4.98l-1.67,2.49c4.15-1.66,9.14,1.66,13.29,8.3l4.97,4.98c1.67,0.83,4.99,0,8.31-2.49
	c2.48,3.32,5.8,4.15,9.96,4.15l10.79-2.49h9.99c2.48,1.66,4.12,4.98,4.97,9.97c2.5,3.32,7.47,5.81,14.94,7.47
	c6.64,1.66,11.62,4.15,14.11,7.47l16.61,1.66l18.26-2.49c14.94-1.66,26.55,0.83,34.05,7.47c5.8,1.66,10.79,4.98,14.11,12.45
	C1612.86,626.7,1616.18,620.89,1623.66,616.73L1623.66,616.73z M2118.46,1493.44l4.99,1.65l-0.83,9.99l-2.48,0.83l-3.32-0.83
	l-3.32-2.5c-0.83-2.48-0.83-4.15,0-5.8C2115.14,1495.09,2116.81,1494.29,2118.46,1493.44L2118.46,1493.44z M984.38,620.06
	l-0.83-9.14c0-4.15,1.65-6.64,5.81-7.47c6.64-0.82,9.96,0.83,11.62,4.98l-2.49,17.44C992.68,627.52,987.7,625.04,984.38,620.06
	L984.38,620.06z M702.94,1798.97c1.99,1.05,3.49,2.84,4.15,4.99c-3.32,3.32-4.15,6.64-2.49,9.96l11.62,11.62
	c0.83,2.48,0,5.8-3.31,9.12c-4.98,4.99-10.8,5.82-16.6,2.5c-4.98-3.35-9.13-7.47-10.8-14.14l-4.15-16.59
	c1.66-4.15,5.81-6.64,14.94-8.31L702.94,1798.97L702.94,1798.97z"/></svg>