<svg version="1.1" id="Layer_1" xmlns="http://www.w3.org/2000/svg" xmlns:xlink="http://www.w3.org/1999/xlink" x="0px" y="0px" viewBox="0 0 2500 2500" style="enable-background:new 0 0 2500 2500;" xml:space="preserve"><style type="text/css">
	.st0{fill-rule:evenodd;clip-rule:evenodd;}
	.st1{fill-rule:evenodd;clip-rule:evenodd;fill:#F2CA30;}
	.st2{fill:#F2CA30;}
</style><path class="st0" d="M2174.91,1158.86h-0.83v-0.83v0.83l-2.48-1.66h-0.84l0.84,1.66l-0.84,1.66l0.84,3.32l0.8,5.82l1.67,0.83v1.65
	h0.83v1.66l1.65,4.16l0.84,0.83v0.83l0.83,0.83l0.84,0.83l1.65-0.83l1.67,1.66l-0.84-1.66l-0.83-0.83v-1.66l-0.82-0.84l-0.83-4.98
	l-2.52-1.65l0.84-0.83v-1.67l-1.65-2.48v-2.5v0.83l-0.84-0.83h0.84l-0.84-0.83V1158.86L2174.91,1158.86z"/></svg>