<svg version="1.1" id="Layer_1" xmlns="http://www.w3.org/2000/svg" xmlns:xlink="http://www.w3.org/1999/xlink" x="0px" y="0px" viewBox="0 0 2500 2500" style="enable-background:new 0 0 2500 2500;" xml:space="preserve"><style type="text/css">
	.st0{fill-rule:evenodd;clip-rule:evenodd;}
	.st1{fill-rule:evenodd;clip-rule:evenodd;fill:#F2CA30;}
	.st2{fill:#F2CA30;}
</style><path class="st2" d="M1791.32,1427.84l0.83-14.11l-1.67-14.94l-4.97-3.32l-0.83-1.67l-4.95,0.86h0l-9.96,4.15l-10.79,7.47
	l-4.99-1.67l-1.65-3.32h-4.15c-3.32-2.48-4.99-4.15-5.82-6.64c0-0.83,0-1.67,1.67-1.67l1.67-2.48l-4.15-10.79
	c-1.67-4.15-6.67-29.05-14.11-75.56l-4.99-11.61c-1.67-3.35-3.32-4.99-7.47-4.15c-0.83-0.83-0.83-1.67-0.83-2.5v-3.32
	c-0.83-3.32-4.15-6.64-9.12-9.12l-4.99-0.83l-4.15,0.83l-2.48-1.67l-0.86-1.63c-0.83-1.67-3.32-1.67-8.31-2.5l-17.43,1.67
	l-4.15-1.67l-24.9,9.14l-19.93-0.83l-14.94,8.31h-2.48l-1.65-0.83l-14.14,13.27h-5.8l-2.48,3.35l-2.5,3.29l-1.65,0.83l-1.67,0.83
	l1.67,5.82l-0.83,1.65l-1.65,2.5l0.8,1.65l0.83,1.67l-4.15,7.47l0.83,9.12l5.8,7.47l0.83,9.14c4.15,8.29,7.47,12.44,10.79,14.92
	l3.32,1.67l0.83,2.48v1.67l15.78,0.83l0.83,3.32l-8.31,4.15l-7.47,0.83l-3.32,4.97l-7.47,18.26l-4.99,4.15l-3.32,4.15
	c-1.65,4.15-1.65,7.47,0,9.96l3.32,4.15l1.67,3.32c-3.32,4.99-4.15,9.14-3.32,11.62l9.96,16.59v5.82l4.97,2.48l0.83,1.67l1.67,1.65
	h1.65l1.67-0.83l9.12,7.5l11.62,6.64l9.14-2.5c3.32-1.65,4.97-2.48,6.64-2.48l3.32,1.67l3.32,1.65h2.48c0-0.83,0.83-0.83,1.67-1.65
	l4.99-0.83l4.97-1.67l1.67,1.67l3.32,0.83l8.31-4.15l0.83-1.67l1.65-1.65l2.48,0.8c0,1.67,0.83,1.67,2.5,1.67l12.44-3.32l4.99-4.15
	l10.79-2.5l8.31-9.96l12.44-4.15l4.15-4.12l6.67,7.44l9.12,4.15l8.31,1.67l4.12-1.67l1.67,0.83l3.32,0.83l24.9-7.47l0.83-2.48
	l-0.83-2.5l4.15-4.97l4.15-4.99l-1.65-6.64l0.8-0.83L1791.32,1427.84z M1604.57,1360.62c0.83-1.65,4.99-2.48,11.62-4.15
	c7.47-6.64,10.79-11.62,10.79-14.94l-4.99-7.47l-4.97-5.8l0.8-3.32l-4.97-6.64c0-4.15,0.83-7.47,2.48-7.47l7.47-0.83l3.32-4.15
	l9.96-3.32l9.99-0.83l1.65,1.65c0,1.67,1.67,2.5,4.15,2.5l18.26-3.32l3.32,1.65l0.83,2.5l7.47,1.65l6.65-0.86v0l4.15,3.35l3.32,4.15
	c2.5,4.97,2.5,8.29,1.67,9.96h-2.5l-4.15-0.83c-2.48,0.83-4.97,1.67-5.8,4.15l-0.83,4.97l-1.65,3.35l-14.11,0.8l-4.99,0.83
	l-3.32,2.48v4.15l-0.83,3.35l-7.47,4.97c-4.99,2.48-7.47,3.32-8.31,1.67l-1.65-1.67h-1.67l-3.32,8.31l-14.11,3.32l-14.94,1.65
	C1605.41,1364.77,1604.57,1363.1,1604.57,1360.62z M1706.65,1400.45l-2.48,0.83l-2.48,0.83c-2.5,2.48-4.15,4.15-4.15,6.64l1.65,0.83
	v1.65l-3.32,6.67l-4.99,6.64l-9.12,1.65c-0.83,0.83-1.67,2.48-2.48,4.99l-3.32,4.15l-9.14,1.65h-9.96l-14.94,2.5l-1.67,2.48
	l-0.83,1.67c-1.65,2.48-3.32,2.48-4.97,2.48l-1.67-2.48l-1.65-1.67l-3.32,0.83h-2.5l-7.47-4.15c-1.65-2.5-3.32-7.47-4.12-14.11
	l1.65-7.47l-3.32-3.32c-0.83-3.32-0.83-4.99,0-5.82l1.67-0.83l1.65-0.8l0.83-0.83l0.83-1.67l5.8-1.65l1.65,2.48h1.67v-6.63l0,0
	l1.67,0.83l2.48,0.8l0.83-2.48l0.83-2.48l17.43-3.32v-0.83l2.48-0.83l4.15-0.83l3.32,0.83l9.96-1.65l21.58-9.99l1.67-2.48
	c1.67-0.83,3.32-0.83,5.82,1.67v0.8l-1.67,0.83l-1.67,5.82l-0.8,5.8c1.65,3.32,4.15,4.99,6.64,4.99h6.63L1706.65,1400.45z"/></svg>