<svg version="1.1" id="Layer_1" xmlns="http://www.w3.org/2000/svg" xmlns:xlink="http://www.w3.org/1999/xlink" x="0px" y="0px" viewBox="0 0 2500 2500" style="enable-background:new 0 0 2500 2500;" xml:space="preserve"><style type="text/css">
	.st0{fill-rule:evenodd;clip-rule:evenodd;}
	.st1{fill-rule:evenodd;clip-rule:evenodd;fill:#F2CA30;}
	.st2{fill:#F2CA30;}
</style><path class="st0" d="M988.53,1181.29l-9.97,11.62l1.66,0.83v2.49l-1.66,3.32l-4.98,1.66l-5.81,4.15l0.82,10.79l-15.77,19.1
	l-4.15,14.94l-1.66,2.48l-0.82,1.67l0.82,4.15l-1.66,1.65v2.5l1.66,16.59l2.49,3.32l3.32,2.5c1.66,4.12,2.49,6.64,1.66,8.29v3.32
	l1.66,4.15l2.49,3.32l3.32,14.14c2.49,2.48,5.81,4.12,9.96,4.12l2.49-2.48l3.32-2.48l11.62,0.83l2.49-1.67
	c0.83-0.83,1.66-0.83,2.49-0.83l5.81,0.83l1.66,4.99l4.15,3.32c3.32,0,6.64-0.83,10.79-4.15l10.79-13.29l13.28-3.32l3.32-0.83h5.81
	c0.83,0,0.83-3.29-0.83-9.96l-3.32-11.61l0.83-11.62l-7.47-9.99l3.32-6.64l-0.82-12.45l3.32-4.98l-1.66-9.13l-4.15-9.97l-4.15-2.49
	l-4.98-24.07l-5.81-6.64l-3.32,0.83l-3.32-4.15l-1.65,0.84c0,0-0.83,0.83-1.66,0.83l-4.98,0.83l-5.81-3.32h-7.48L988.53,1181.29z"/></svg>