<svg version="1.1" id="Layer_1" xmlns="http://www.w3.org/2000/svg" xmlns:xlink="http://www.w3.org/1999/xlink" x="0px" y="0px" viewBox="0 0 2500 2500" style="enable-background:new 0 0 2500 2500;" xml:space="preserve"><style type="text/css">
	.st0{fill-rule:evenodd;clip-rule:evenodd;}
	.st1{fill-rule:evenodd;clip-rule:evenodd;fill:#F2CA30;}
	.st2{fill:#F2CA30;}
</style><path class="st0" d="M734.48,1519.19v11.62l-4.15,11.62l-3.32,3.32l-3.32,3.32l4.98,8.31l2.49,1.65l1.66,0.83l2.49,2.48l2.49-0.83
	l2.48-1.65l9.97,0.83l4.98-4.15c2.23-2.42,5.11-4.16,8.3-4.99l4.98,0.83l4.15,2.48l1.66-1.65l1.66-1.67l4.15-0.83l1.66-2.48
	l1.66-2.48h2.49l1.66,0.8l8.3-2.48c1.66-0.8,0.83-5.8-0.83-15.78l-3.32-16.59l-13.28-11.62v-3.32l-1.65-1.67l-3.33,3.32l-4.15-2.48
	l-9.96,4.15l-3.32,4.15l-0.83-1.67l-2.49-1.65h-4.15l-0.83-1.67c0.83-0.83,0-1.65,0-1.65c-2.49-0.83-5.81,0-9.13,2.48l-3.32,6.64
	v3.32l1.66,3.35L734.48,1519.19L734.48,1519.19z M2123.45,1495.09l-4.99-1.65c-1.65,0.83-3.32,1.65-4.97,3.32
	c-0.83,1.65-0.83,3.32,0,5.8l3.32,2.5l3.32,0.83l2.48-0.83L2123.45,1495.09z M983.55,610.91l0.83,9.14
	c3.32,4.98,8.3,7.47,14.11,5.81l2.49-17.44c-1.66-4.15-4.99-5.81-11.62-4.98C985.2,604.27,983.55,606.76,983.55,610.91
	L983.55,610.91z M707.09,1803.96c-0.67-2.15-2.16-3.94-4.15-4.99l-6.64-0.83c-9.13,1.67-13.28,4.15-14.94,8.31l4.15,16.59
	c1.66,6.67,5.81,10.79,10.8,14.14c5.81,3.32,11.62,2.48,16.6-2.5c3.31-3.32,4.15-6.64,3.31-9.12l-11.62-11.62
	C702.94,1810.61,703.75,1807.29,707.09,1803.96L707.09,1803.96z"/></svg>