<svg version="1.1" id="Layer_1" xmlns="http://www.w3.org/2000/svg" xmlns:xlink="http://www.w3.org/1999/xlink" x="0px" y="0px" viewBox="0 0 2500 2500" style="enable-background:new 0 0 2500 2500;" xml:space="preserve"><style type="text/css">
	.st0{fill-rule:evenodd;clip-rule:evenodd;}
	.st1{fill-rule:evenodd;clip-rule:evenodd;fill:#F2CA30;}
	.st2{fill:#F2CA30;}
</style><path class="st0" d="M1861.08,593.48c-5.8-4.98-14.94-9.13-28.22-10.79c-14.11-2.49-24.08-4.98-29.05-8.31l-39.01-16.6
	c-15.78-6.64-28.25-13.28-38.2-18.26c-9.14-1.66-20.78-7.47-34.88-17.43c-14.11-10.8-25.73-16.6-34.86-17.44
	c-14.94-14.11-38.2-21.58-69.74-23.24l-75.56-5.81c-9.96,4.98-24.06,5.81-42.33,2.49l-151.94-9.13c-9.96,4.15-24.9,7.47-44.01,9.96
	l-44.84,6.64c-9.13,4.15-24.07,6.65-44.01,7.48c-19.09,1.65-34.05,4.15-43.18,7.46l-47.33,2.49l-46.5,14.11
	c-10.79-2.49-23.24-0.83-38.18,4.15c-19.92,6.64-31.56,10.79-35.69,10.79c-12.45,2.49-22.41,5.81-29.07,9.14
	c-9.96,4.98-15.77,12.45-17.43,22.41c-19.1-9.96-44.01-9.13-74.72,3.32l-15.77-1.66l-16.6,1.66c-6.64,9.13-18.26,16.6-34.05,21.59
	l-38.18,10.79c-5.81,7.47-13.28,13.28-22.42,18.26c-4.15,1.66-13.28,4.98-26.56,9.96c-4.98,5.81-13.28,11.62-25.73,16.6
	c-12.45,4.98-20.75,10.8-24.9,17.44c-3.32,3.32-9.97,6.64-19.1,9.13l-19.92,7.47c-3.32,6.64-8.3,11.62-14.94,14.94
	c-4.15,2.48-10.8,4.15-19.92,7.47l-19.93,7.47c-5.81,4.15-10.79,9.96-13.28,17.43c-6.64-0.83-14.94,3.32-24.9,11.62
	c-9.13,8.3-17.43,12.45-23.24,11.62L460.5,791.9c-13.28,15.77-25.73,26.56-39.03,33.22l-70.57,94.64
	c-7.47,9.13-15.77,21.59-24.9,39.01c-9.97,18.26-17.44,30.73-24.07,39.03c-0.83,7.47-3.32,15.77-7.47,24.9l-11.62,24.07
	c-8.3,19.93-10.8,38.2-7.47,53.97c-3.32,1.66-7.48,6.64-9.96,14.94c-3.32,6.64-6.64,10.79-12.45,12.45
	c-8.3,0.83-16.6,6.64-24.07,15.77l-19.92,23.24c-16.6,9.96-34.86,27.41-53.97,51.48l-47.31,59.76c-1,7.91-4.17,15.38-9.14,21.61
	l-15.77,18.26c-8.3,9.12-10.79,22.4-8.3,39.84l3.32,21.58c0,7.47-0.83,14.94-3.32,20.75c1.66,22.42,9.13,45.67,24.07,68.09
	l44.01,59.75l14.94,6.67c4.98,1.65,8.3,5.8,8.3,11.61c10.79,5.82,24.07,17.46,39.84,34.05c15.78,17.43,29.07,28.25,39.86,34.88
	l5.81,1.65c1.66,0.83,3.32-0.83,4.15-3.32c4.99-0.83,9.14,0.83,12.45,3.32l-2.48,9.14l31.56,30.7c7.47,0,15.77,4.99,24.9,16.61
	c8.3,10.79,16.6,16.59,24.07,16.59c9.13,16.61,21.58,34.05,39.01,52.31l46.5,46.48c9.13,2.5,22.42,10.82,39.01,25.76
	c15.77,13.27,29.07,20.75,39.86,22.42c14.94,14.11,35.69,27.38,61.44,40.66l66.42,32.37c9.13,6.67,23.24,14.14,41.52,22.42
	c20.75,8.31,34.86,15.78,43.18,19.93c6.64-0.83,15.77,0,26.56,4.15l27.41,4.99c84.68,31.54,166.87,51.48,247.4,58.95l27.39,2.48
	c13.28-0.83,22.42,0.83,27.41,4.15l164.38-3.32c9.14,4.97,20.78,6.64,35.72,6.64l37.34-2.5c9.99,3.35,24.08,4.15,41.52,0.83
	l43.16-5.8c7.47-4.15,17.46-7.47,29.05-9.96l63.94-14.14l34.05-3.32c11.62,0,24.06-2.48,36.52-8.29l32.37-18.26l34.88-7.47
	c39.84-10.82,75.54-24.93,108.75-43.19c14.11-3.32,30.7-11.61,50.63-24.06c24.08-16.61,39.84-25.73,48.16-29.9
	c2.48-6.64,9.96-12.46,21.58-18.26c11.62-4.99,18.26-10.79,20.75-19.1c7.47,1.67,14.97-0.83,24.08-6.64
	c9.12-6.64,17.43-9.96,22.42-9.96c4.99-4.99,13.27-10.79,24.06-18.26c11.62-6.67,19.93-13.29,24.93-19.1
	c5.8-1.67,12.44-4.15,18.26-10.79l13.27-15.78l-6.64-4.99c-2.5-4.97-0.83-9.96,5.8-14.94c6.64,1.67,10.79,4.15,13.29,7.47l4.15-4.97
	l6.64-3.32c2.48-7.47,9.96-14.11,21.58-21.58c10.79-6.67,17.43-14.14,20.75-21.61l30.73-22.42c11.62-9.96,19.1-19.91,22.42-30.7
	h-3.32l-2.5-2.48c-1.65-0.83-1.65-2.5-0.83-3.35c0.83-4.12,4.15-5.8,9.14-4.97c4.15,1.65,4.99,3.32,4.15,6.64l11.62-11.62h-2.5
	l-2.48-4.15v-4.97c0-2.5,1.67-3.32,4.15-3.32h7.47l3.32-21.61c9.14-1.65,15.78-6.64,19.93-17.43l5.8-12.44
	c2.48-4.99,4.99-9.14,8.31-11.62c8.29-7.47,16.59-18.26,24.06-34.05l18.26-37.37c0-11.62,5.82-24.9,16.61-41.52
	c11.62-16.59,18.26-30.7,19.91-39.84c6.67-4.12,12.46-11.61,16.61-22.42l12.44-24.06c6.67-3.32,13.29-9.96,19.93-19.1l16.59-22.42
	c12.46-6.64,25.73-18.26,39.04-34.86l34.88-41.52l4.12-16.6c8.31-9.96,12.46-24.9,14.11-43.18v-48.16
	c-3.82-10.08-5.79-20.76-5.8-31.54l0.83-32.39c-1.67-5.81-3.32-12.45-3.32-20.75l-2.5-20.76c-2.48-17.43-7.44-29.88-14.94-37.35
	c-5.8-16.6-15.76-30.73-31.54-44.01c-13.27-12.45-29.9-20.75-46.48-26.56c-9.14-12.45-24.93-23.24-45.67-31.56l-25.73-9.96
	c-8.45-3.81-16.28-8.84-23.25-14.94l-34.02-30.73c-14.11-12.45-24.08-23.24-30.73-33.2c-9.14-3.32-18.26-9.97-27.41-21.59
	c-11.61-14.95-19.91-24.07-24.9-27.41l-15.76-14.11c-6.67-5.81-12.46-9.13-17.46-9.96c-23.96-13.36-46.98-28.34-68.9-44.84
	c-7.47-9.97-16.59-17.44-29.05-24.07l-34.05-16.6c-7.47-9.97-21.58-15.77-39.84-18.26l-23.25-2.49
	C1873.55,598.46,1866.08,595.97,1861.08,593.48L1861.08,593.48z M1806.3,615.9c12.46,2.49,20.78,5.82,26.57,9.97
	c4.99,3.32,12.44,4.98,20.75,6.64l21.58,2.49c18.26,2.49,31.57,8.3,39.04,17.43l31.54,15.77c12.46,6.64,21.58,14.11,28.25,22.42
	c21.58,16.6,43.16,31.54,65.59,43.18l16.59,9.96l38.2,39.03c9.12,10.79,18.26,17.43,26.55,19.92c6.67,9.96,15.78,20.76,29.9,33.22
	l32.4,28.22c5.8,5.82,13.27,10.8,21.58,14.95l24.06,9.13c20.78,8.3,34.88,18.26,44.01,29.88c15.78,5.81,30.73,14.94,44.01,25.73
	c14.11,12.45,24.93,26.58,29.9,40.69c7.47,8.3,12.46,19.92,14.94,36.52l1.65,19.93c0.83,7.47,2.5,14.11,4.15,19.09l-1.65,31.54
	c0.83,11.62,2.48,20.76,6.64,29.9l-0.83,45.67c-1.65,17.44-5.8,31.56-14.11,41.52l-3.32,14.94l-33.22,39.87
	c-13.27,16.59-25.73,27.38-37.37,33.19l-15.76,21.61c-5.82,8.29-12.46,14.92-19.93,18.26c-1.67,2.48-4.99,9.96-10.79,23.23
	c-4.15,9.96-9.96,16.61-15.78,20.78c-1.65,9.12-7.47,21.58-19.1,38.17c-9.96,15.78-14.94,29.05-14.94,39.84l-18.26,35.72
	c-6.64,14.11-14.11,24.9-23.23,32.37c-3.08,3.15-5.6,6.8-7.47,10.79l-4.99,12.46c-4.97,9.12-10.79,14.92-19.91,15.76l-3.35,20.78
	h-6.64c-2.48,0-4.15,0.8-4.15,3.32v4.97c0,1.67,0.83,2.5,2.5,3.32h2.48l-10.79,10.82c0.83-2.5-0.83-4.99-4.99-5.82
	c-4.16-0.83-6.64,0.83-8.29,4.15c-0.83,1.67,0,2.48,0.8,4.15l2.5,2.48h4.15c-4.15,9.14-11.62,19.1-22.42,28.25l-29.07,21.54
	c-3.32,7.47-9.12,14.11-19.91,20.75c-10.79,6.64-17.43,13.27-20.75,19.93l-5.82,3.32c-1.65,1.65-3.32,3.32-4.15,5.8
	c-1.65-4.15-6.64-6.64-12.44-7.47c-6.67,4.15-8.31,9.14-4.99,14.11l5.82,4.99l-12.46,14.94c-5.82,4.99-12.46,9.12-17.43,9.96
	l-23.25,19.1c-11.62,5.8-19.1,11.62-23.25,16.59c-5.8,0-12.44,3.32-21.58,9.14c-9.12,5.8-16.59,7.47-22.42,6.64
	c-2.48,7.47-9.12,13.29-20.75,18.26c-10.79,4.99-17.43,10.79-20.75,17.46c-7.5,3.32-22.42,12.44-45.67,28.22
	c-18.26,12.44-34.86,19.91-48.16,23.23c-32.37,17.46-66.42,31.57-102.95,40.69l-33.22,6.67l-31.54,17.43
	c-11.62,5.8-23.25,9.12-34.88,9.12l-63.92,8.31l-29.08,7.47c-10.79,2.48-19.91,5.8-27.38,9.96l-41.52,4.99
	c-15.78,3.32-29.05,3.32-39.84-0.83l-35.69,3.32c-13.29,0-24.91-2.48-33.22-6.64l-156.91,2.5c-4.98-3.35-13.28-4.15-25.74-3.35
	l-26.56-2.48c-76.39-7.47-154.42-25.73-235.79-56.47l-25.73-4.97c-9.96-3.32-19.09-4.15-25.73-3.32
	c-6.64-4.99-20.75-10.82-40.69-19.1c-17.43-6.64-30.71-14.11-39.03-21.58l-63.93-30.73c-24.07-12.44-44.01-25.73-58.12-39.01
	c-10.79-0.83-23.24-8.31-38.18-21.61c-15.77-13.27-28.22-21.58-37.35-23.23l-44.01-44.84c-16.6-17.43-29.05-34.05-37.35-49.8
	c-6.64,0-14.94-5.82-23.24-16.61c-8.3-9.96-15.77-14.94-23.24-15.76l-29.9-29.08c1.66-3.32,2.49-5.8,2.49-8.29
	c-3.32-2.5-7.47-3.35-11.62-3.35l-4.15,3.35l-5.81-1.67c-9.96-5.8-23.24-16.61-38.18-32.37c-14.94-16.61-27.41-28.22-38.2-33.22
	c0-5.82-2.49-9.14-8.3-11.62l-13.28-5.8l-42.35-56.47c-13.28-22.42-20.75-43.16-22.41-65.59c2.49-4.99,2.49-11.62,2.49-19.93
	l-2.49-19.91c-2.49-17.46,0-29.9,8.3-37.37l14.11-18.26c5.08-5.84,8.27-13.09,9.14-20.78l44.84-56.44
	c18.26-22.42,35.69-39.03,51.48-48.99l19.1-22.41c7.47-8.3,14.94-14.11,23.24-14.94c4.98-1.66,8.3-4.98,11.62-11.62
	c2.49-7.47,5.81-12.45,9.13-14.94c-3.32-14.94-0.83-31.56,7.47-50.65l9.97-23.24c4.15-8.3,7.47-16.6,8.3-24.07
	c5.81-6.65,13.28-19.1,22.41-36.52c9.13-16.61,16.61-29.07,24.07-37.37l67.26-90.5c12.45-6.64,24.9-16.6,36.52-31.54l30.71-39.86
	c6.64,0,14.11-4.15,23.25-12.45c9.13-7.48,16.6-11.62,23.24-10.8c2.49-7.47,6.64-12.45,12.45-16.6l37.35-14.12
	c7.48-3.32,12.45-7.47,15.77-14.11c3.32-2.49,9.13-4.98,18.26-7.47c9.13-2.49,14.94-4.98,18.27-9.13
	c4.15-5.81,12.45-10.79,23.24-15.77c12.45-5.81,19.92-10.79,24.9-16.6l24.91-9.14c9.13-4.15,15.77-9.96,21.58-16.6l36.52-11.62
	c14.94-4.15,25.73-10.8,33.22-19.92l14.94-1.66l15.77,1.66c29.05-11.62,52.31-12.45,70.57-3.32c0.83-9.13,6.64-15.77,16.61-21.59
	c8.9-3.46,18.06-6.24,27.39-8.3l34.05-9.97c14.11-4.15,26.56-5.81,36.52-4.15l44.01-13.28l44.84-2.49
	c9.13-3.32,23.24-5.81,42.35-6.64c19.1-0.82,32.39-3.32,40.69-7.47l43.18-6.64c18.26-1.66,32.37-4.98,42.36-9.13l144.44,8.3
	c17.43,4.15,30.73,3.32,40.69-2.49l71.41,5.81c29.9,1.66,52.28,9.13,67.24,21.59c8.31,1.66,19.1,7.47,32.4,17.43
	c14.11,9.96,24.9,14.94,33.22,16.6l73.89,33.22C1783.87,610.92,1793.02,613.41,1806.3,615.9L1806.3,615.9z"/></svg>