<svg version="1.1" id="Layer_1" xmlns="http://www.w3.org/2000/svg" xmlns:xlink="http://www.w3.org/1999/xlink" x="0px" y="0px" viewBox="0 0 2500 2500" style="enable-background:new 0 0 2500 2500;" xml:space="preserve"><style type="text/css">
	.st0{fill-rule:evenodd;clip-rule:evenodd;}
	.st1{fill-rule:evenodd;clip-rule:evenodd;fill:#F2CA30;}
	.st2{fill:#F2CA30;}
</style><path class="st0" d="M1717.46,1052.6c-3.32,1.66-4.97,1.66-7.47,0l-11.61-9.96l-29.9,1.66l-8.31,8.3l-3.32,11.62
	c-0.83,0.83-0.83,1.66-2.5,1.66l-1.65,0.83l-1.67,10.79l-5.8,5.81c-0.83,2.49-1.67,4.98-1.67,9.13l10.79,39.86l9.14,14.11l6.64-0.83
	c4.99,0.83,8.31,2.49,9.96,4.15l0.83,4.98l12.46,11.62l0.83,2.49c0,1.66,0,1.66,0.8,2.49l12.46-3.32l0.83-1.66l0.83-0.82l1.65-0.83
	c0,0,0.83-0.83,1.67-0.83v-8.3l5.8-2.49l0.83-4.15l1.65-3.32l8.31-3.32c7.47-8.31,10.79-14.11,10.79-16.61l-0.83-4.15
	c-0.8-0.83,0-3.32,1.67-7.47c0.83-0.83,0.83-0.83,1.65-0.83l0.83-1.66c0-2.49,0-6.64-1.65-13.28l-9.96-11.62l-3.35-25.73
	c-1.65-4.98-3.32-8.3-5.8-9.13L1717.46,1052.6L1717.46,1052.6z"/></svg>