<svg version="1.1" id="Layer_1" xmlns="http://www.w3.org/2000/svg" xmlns:xlink="http://www.w3.org/1999/xlink" x="0px" y="0px" viewBox="0 0 2500 2500" style="enable-background:new 0 0 2500 2500;" xml:space="preserve"><style type="text/css">
	.st0{fill-rule:evenodd;clip-rule:evenodd;}
	.st1{fill-rule:evenodd;clip-rule:evenodd;fill:#F2CA30;}
	.st2{fill:#F2CA30;}
</style><polygon class="st2" points="2133.4,1165.52 2132.57,1165.52 2133.4,1167.16 2133.4,1167.99 2134.24,1170.5 2133.4,1172.14 
	2133.4,1173.8 2135.07,1174.63 2137.56,1175.46 2138.39,1173.8 2137.56,1173.8 2138.39,1172.97 2138.39,1171.33 2137.56,1169.67 
	2137.56,1166.33 2139.22,1165.52 2139.22,1163.84 2138.39,1163.84 2138.39,1162.18 2140.04,1161.35 2142.54,1160.52 
	2143.36,1161.35 2144.19,1166.33 2145.03,1166.33 2145.86,1167.16 2145.86,1167.99 2145.03,1170.5 2145.86,1171.33 2145.03,1172.14 
	2145.86,1172.97 2146.7,1174.63 2146.7,1177.97 2147.51,1179.63 2147.51,1181.29 2148.35,1182.12 2148.35,1187.1 2147.51,1187.93 
	2146.7,1187.1 2145.86,1187.1 2145.03,1187.93 2143.36,1188.76 2142.54,1187.93 2140.04,1188.76 2140.04,1191.25 2141.71,1192.91 
	2143.36,1192.91 2145.86,1191.25 2147.51,1192.08 2147.51,1191.25 2148.35,1191.25 2149.18,1190.42 2159.97,1189.59 
	2159.97,1188.76 2160.81,1188.76 2162.45,1187.93 2161.62,1186.27 2159.97,1185.44 2159.14,1185.44 2156.65,1184.61 
	2155.82,1186.27 2153.33,1185.44 2153.33,1186.27 2151.66,1185.44 2150.83,1181.29 2150.01,1178.8 2150.01,1177.97 2149.18,1177.12 
	2150.01,1177.12 2149.18,1176.31 2150.01,1175.46 2149.18,1172.97 2150.01,1172.97 2148.35,1169.67 2149.18,1169.67 
	2149.18,1168.84 2148.35,1166.33 2148.35,1165.51 2147.51,1164.67 2147.51,1159.7 2149.18,1159.7 2148.35,1160.52 2150.01,1163.01 
	2150.01,1159.7 2150.83,1160.52 2151.66,1160.52 2152.5,1159.7 2154.15,1161.35 2154.98,1164.67 2155.82,1166.33 2155.82,1167.16 
	2157.49,1171.33 2159.97,1170.5 2159.97,1166.33 2159.14,1166.33 2159.97,1165.51 2158.3,1163.01 2158.3,1159.7 2157.49,1158.86 
	2158.3,1157.2 2157.49,1157.2 2157.49,1156.38 2156.65,1156.38 2155.82,1154.71 2154.15,1153.88 2151.66,1154.71 2150.83,1153.88 
	2150.83,1153.88 2150.01,1155.54 2145.03,1155.54 2145.03,1156.38 2139.22,1156.38 2138.39,1157.2 2137.56,1157.2 2135.89,1158.03 
	2135.07,1157.2 2131.75,1160.52 2132.57,1161.35 "/></svg>