<svg version="1.1" id="Layer_1" xmlns="http://www.w3.org/2000/svg" xmlns:xlink="http://www.w3.org/1999/xlink" x="0px" y="0px" viewBox="0 0 2500 2500" style="enable-background:new 0 0 2500 2500;" xml:space="preserve"><style type="text/css">
	.st0{fill-rule:evenodd;clip-rule:evenodd;}
	.st1{fill-rule:evenodd;clip-rule:evenodd;fill:#F2CA30;}
	.st2{fill:#F2CA30;}
</style><path class="st2" d="M2013,1385.49c-3.32-3.32-7.47-5.8-11.62-5.8l-10.79,2.48l-4.99-4.97l-10.79,2.48l-9.12-4.99l-9.99-42.33
	c0-0.83-0.8-1.67-2.48-1.67l-2.48-1.65c0-0.83-0.83-4.15,0-9.14l-0.83-9.96l-4.15-3.32l-0.83-2.5l0.83-1.65l-5.8-27.41l-2.5-3.32
	l-0.8-16.59l-9.14-25.74l3.32-7.47l-12.44-49.82l-5.82-8.3l-10.79-2.49l-14.94,1.66l-1.65,2.49l-1.67,2.48l-3.32,0.83l-1.69-1.62
	l0,0l-1.65-1.65l-13.27,3.32l-7.47-0.83h-5.82l-0.83,2.49l-2.48,3.32l-1.67-0.83l-1.65-0.83c-1.67,0.83-2.48,3.32-3.32,9.13
	c-1.67,5.81-1.67,9.96-0.83,12.45c0.83,1.65,3.32,4.15,6.64,7.47l7.47,3.32l26.57-3.32l3.32-1.66l4.15-0.82
	c2.48,0,4.99,0.82,6.64,2.48l4.15,3.32l3.32,4.98l-0.83,4.98c-1.46,1.57-1.79,3.9-0.8,5.81l2.48,4.98l2.48,1.66l0.83,4.15
	c0,0.83,0,2.49,0.83,2.49l4.15,4.98l-2.5,4.98l-4.15,6.64l-9.12,3.32c-2.48,0.83-4.99,0-5.82-2.48l-1.65-5.82l-10.79,0.83
	c-1.67,0-1.67-0.83-2.48-1.65l-1.67-0.83l-6.64,0.83l-18.26,0.82l-8.31,7.47l-9.96,1.67l-6.64,5.8l-14.14,18.26l-2.48,2.5
	l-2.48,0.83l-2.48,6.64l-1.67,7.47l0.83,2.48v0.83l-2.5,5.8l1.67,6.64l-2.48,7.47l1.65,3.32l-4.97,8.31c0,4.99,0,9.14,0.8,11.62
	l3.32,29.05l3.35,1.67l-2.5,2.48c4.15,7.47,5.8,11.62,7.47,11.62l3.32,3.32v4.15l0.83,5.8l20.75,20.78v4.12l5.82,5.82l7.47,4.15
	l1.65-0.83l0.83-0.83c1.67,0,3.32,0.83,4.99,2.48l2.48,4.99l4.15,3.32l14.94-2.48l4.97,1.67l1.67,2.48h5.8l4.99-1.67l1.67-2.48
	l1.65-1.67c0.83-0.8,1.67,0,2.5,1.67l2.48,1.67l1.65-0.83l3.32-0.83h6.65l7.47-15.78c0.8-0.83,1.65-0.83,3.32,0l4.15-0.83
	c0.8-4.97,3.32-7.44,6.64-7.44l3.32,1.65l2.48,3.32l10.79,1.67l1.67-1.67l3.32-0.83l4.15,3.32l13.27-2.48l0.83-1.65
	c0-0.83,0-1.67,0.83-1.67l4.97-0.83l1.67,0.83l1.65,1.67h7.47l2.5-3.32l1.65-2.5l11.62-1.65l7.47-6.67l5.82-8.29l-0.83-6.64
	L2013,1385.49z M1922.59,1345.66l-0.88,1.67l0,0l-0.83,0.83c-1.67,4.12-2.48,6.64-2.48,7.44l0.8,1.67v2.48
	c0,2.5-3.32,8.31-9.96,15.78l-9.12,4.15l-0.83,3.32l-0.83,3.32l-5.8,3.32l-0.83,7.47l-0.83,0.83l-1.67,0.83l-0.8,1.65l-0.83,1.67
	l-13.27,3.32l-0.83-2.5v-2.48l-12.46-11.62l-1.65-4.97c-0.83-2.48-4.15-3.32-9.14-4.15h-6.64l-9.14-14.11l-10.79-39.04l1.67-9.12
	l2.48-3.32l2.5-3.32l1.65-9.99c0.83-0.8,1.67-1.65,2.48-1.65l1.67-0.83l4.15-11.62c0.83-2.48,3.32-4.97,8.31-8.31l29.05-1.65
	l12.44,9.96h6.67l5.8-0.83l4.99,8.31l3.32,25.73l9.96,12.46C1922.59,1338.19,1923.39,1342.36,1922.59,1345.66z"/></svg>