<svg version="1.1" id="Layer_1" xmlns="http://www.w3.org/2000/svg" xmlns:xlink="http://www.w3.org/1999/xlink" x="0px" y="0px" viewBox="0 0 2500 2500" style="enable-background:new 0 0 2500 2500;" xml:space="preserve"><style type="text/css">
	.st0{fill-rule:evenodd;clip-rule:evenodd;}
	.st1{fill-rule:evenodd;clip-rule:evenodd;fill:#F2CA30;}
	.st2{fill:#F2CA30;}
</style><path class="st0" d="M1692.55,1310.8l-4.15-3.35l-6.64,0.83l-7.47-1.65l-0.83-2.5l-3.32-1.65l-18.26,3.32
	c-2.48,0-4.15-0.83-4.15-2.5l-1.65-1.65l-9.99,0.83l-9.96,3.32l-3.32,4.15l-7.47,0.83c-1.65,0-2.48,3.32-2.48,7.47l4.97,6.64
	l-0.8,3.32l4.97,5.8l4.99,7.47c0,3.32-3.32,8.31-10.79,14.94c-6.64,1.67-10.79,2.5-11.62,4.15c0,2.48,0.83,4.15,3.32,5.8l14.94-1.65
	l14.11-3.32l3.32-8.31h1.67l1.65,1.67c0.83,1.65,3.32,0.8,8.31-1.67l7.47-4.97l0.83-3.35v-4.15l3.32-2.48l4.99-0.83l14.11-0.8
	l1.65-3.35l0.83-4.97c0.83-2.48,3.32-3.32,5.8-4.15l4.15,0.83h2.5c0.83-1.67,0.83-4.99-1.67-9.96L1692.55,1310.8L1692.55,1310.8z
	 M1627.81,1398.82l-1.67-0.83v6.64h-1.67l-1.65-2.48l-5.8,1.65l-0.83,1.67l-0.83,0.83l-1.65,0.8l-1.67,0.83
	c-0.83,0.83-0.83,2.5,0,5.82l3.32,3.32l-1.65,7.47c0.8,6.64,2.48,11.61,4.12,14.11l7.47,4.15h2.5l3.32-0.83l1.65,1.67l1.67,2.48
	c1.65,0,3.32,0,4.97-2.48l0.83-1.67l1.67-2.48l14.94-2.5h9.96l9.14-1.65l3.32-4.15c0.8-2.5,1.65-4.15,2.48-4.99l9.12-1.65l4.99-6.64
	l3.32-6.67v-1.65l-1.65-0.83c0-2.48,1.65-4.15,4.15-6.64l2.48-0.83l2.48-0.83l0.83-4.97h-6.63c-2.48,0-4.99-1.67-6.64-4.99l0.8-5.8
	l1.67-5.82l1.67-0.83v-0.8c-2.5-2.5-4.15-2.5-5.82-1.67l-1.67,2.48l-21.58,9.99l-9.96,1.65l-3.32-0.83l-4.15,0.83l-2.48,0.83v0.83
	l-17.43,3.32l-0.83,2.48l-0.83,2.48L1627.81,1398.82L1627.81,1398.82z"/></svg>