<svg version="1.1" id="Layer_1" xmlns="http://www.w3.org/2000/svg" xmlns:xlink="http://www.w3.org/1999/xlink" x="0px" y="0px" viewBox="0 0 2500 2500" style="enable-background:new 0 0 2500 2500;" xml:space="preserve"><style type="text/css">
	.st0{fill-rule:evenodd;clip-rule:evenodd;}
	.st1{fill-rule:evenodd;clip-rule:evenodd;fill:#F2CA30;}
	.st2{fill:#F2CA30;}
</style><path class="st0" d="M1259.18,1126.49l-6.64,1.66l-7.47-2.49l-0.83-2.48l-3.31-1.66l-8.31,1.66c-4.98,1.65-8.3,2.48-10.79,1.65
	c-1.66,0-2.49-0.83-4.15-1.65l-0.83-2.49l-19.93,4.15l-0.82,1.66l-2.49,2.49l-7.47,0.83c-1.66,0.83-2.49,3.32-2.49,8.3l4.98,6.64
	l-0.83,3.32l4.98,4.98c3.32,3.32,4.15,5.81,4.15,7.47c0,3.32-2.49,8.3-9.96,15.77c-6.64,0.82-10.8,1.66-10.8,3.32
	c-0.82,3.32,0,4.98,2.49,5.81l29.07-4.15c0.83-0.83,0.83-2.49,1.65-4.98l1.66-3.32l1.66-0.83l1.66,1.66
	c0.83,1.66,3.32,0.83,7.47-1.66l8.3-4.98l0.83-7.47l3.31-2.49l4.15-0.82h14.95l1.66-4.15l0.83-4.98l5.81-4.15l4.15,1.66l2.48-0.83
	l-1.65-9.97l-3.32-4.15L1259.18,1126.49L1259.18,1126.49z M1278.29,1214.49h-2.5l-4.15,0.83c-2.48-0.83-4.97-2.49-5.8-4.98v-5.81
	l1.67-5.81l1.65-1.66v-0.83l-5.8-1.66l-1.67,3.32l-21.58,9.96l-9.97,1.66l-4.15-0.83h-4.15l-0.83,0.83l-0.83,1.66l-16.6,2.49
	l-1.66,2.49c0,1.66-0.83,2.49-0.83,3.32c-0.82,0-1.65,0-2.48-0.82l-1.66-1.66v4.15c0.83,1.66,0.83,2.49,0,2.49l-1.66-0.82
	l-2.49-1.66l-4.15,1.66l-2.49,3.32h-1.66l-0.83,0.83l-0.83,5.81l3.32,3.32l-1.66,7.47l4.15,14.11c1.66,1.67,4.15,3.32,7.48,4.15
	h2.49l2.48-0.83l4.15,3.32l4.15-0.8l3.32-4.99l14.94-2.5h10.79l8.31-0.8l3.32-4.99c0.83-2.48,1.65-4.15,2.49-4.15l4.15-1.65
	l4.97-0.83l4.99-5.81l4.15-7.47l-0.83-1.66l-1.67-0.82c0-2.49,1.67-4.15,4.15-6.64l4.99-1.66
	C1279.12,1217.81,1279.93,1216.15,1278.29,1214.49L1278.29,1214.49z"/></svg>