<svg version="1.1" id="Layer_1" xmlns="http://www.w3.org/2000/svg" xmlns:xlink="http://www.w3.org/1999/xlink" x="0px" y="0px" viewBox="0 0 2500 2500" style="enable-background:new 0 0 2500 2500;" xml:space="preserve"><style type="text/css">
	.st0{fill-rule:evenodd;clip-rule:evenodd;}
	.st1{fill-rule:evenodd;clip-rule:evenodd;fill:#F2CA30;}
	.st2{fill:#F2CA30;}
</style><path class="st2" d="M1361.27,1218.65l-4.99-4.15l-0.8-1.66l-4.99,0.83l-9.96,4.15l-10.79,8.31l-4.99-2.49l-1.67-2.49l-4.12-0.83
	l-5.82-5.81l1.67-2.49l1.65-1.66l-18.26-86.34l-5.8-12.45c-0.83-2.49-2.48-4.15-6.64-4.15c-1.67-0.83-1.67-1.66,0-2.49v-3.33
	l-9.99-9.13l-4.97-0.83l-4.15,0.83c-1.67,0-2.48,0-2.48-0.83l-0.82-2.52l0,0l-8.31-2.49l-17.43,2.49l-1.66-1.66l-2.49-0.83
	l-24.9,9.13h-19.93l-14.94,8.3h-2.49l-1.66-0.83l-3.32,2.49c-4.98,5.81-8.3,9.13-10.79,9.97h-5.81l-4.98,6.64l-1.66,0.83l-1.65,0.82
	l0.83,3.32l0.82,2.49l-0.82,1.66l-1.66,2.49l0.83,1.66l0.83,1.66l-4.15,7.47l0.83,9.13l5.81,7.47l0.83,9.13l9.97,14.94l4.14,2.49
	v3.31l8.31,0.83h8.3v3.32l-7.47,4.15l-7.47,1.66l-2.52,5.02c-4.15,9.96-7.47,15.77-8.3,18.26l-4.15,3.32l-4.15,3.32
	c-1.66,4.98-1.66,8.3,0,11.62l3.32,3.32l1.66,4.15c-2.49,4.99-4.15,8.31-3.32,10.79l9.96,16.61v5.8l4.98,2.48l2.49,3.32h1.66
	l1.65-0.8l9.14,7.47l11.62,7.44c2.49,0,4.98-0.8,9.14-2.48l6.64-3.32l3.32,1.67l3.32,2.48l1.65-0.83l2.49-0.8l4.98-1.67l4.98-0.83
	l1.66,0.83l2.49,0.83l9.14-3.32l0.83-2.5l1.66-1.65l2.49,1.65l2.48,0.83l12.45-3.32l4.15-4.15l11.62-2.48l8.31-9.14l12.44-4.97
	l2.48-2.5l1.67-1.65l3.32,3.32l3.32,4.15l17.46,6.64l4.12-2.48c0,0,0.83,0,1.67,0.8l3.32,1.67l24.9-8.31l0.83-2.48l-0.83-2.48
	l4.15-4.15l4.15-5.82l-0.83-3.32l-0.83-2.48l2.5-3.32L1361.27,1218.65z M1176.18,1179.61c0-1.66,4.15-2.49,10.8-3.32
	c7.47-7.47,9.96-12.45,9.96-15.77c0-1.66-0.82-4.15-4.15-7.47l-4.98-4.98l0.83-3.32l-4.98-6.64c0-4.98,0.83-7.47,2.49-8.3l7.47-0.83
	l2.49-2.49l0.82-1.66l19.93-4.15l0.83,2.49c1.66,0.82,2.49,1.65,4.15,1.65c2.49,0.83,5.81,0,10.79-1.65l8.31-1.66l3.31,1.66
	l0.83,2.48l7.46,2.5l0,0l6.64-1.66l4.15,3.32l3.32,4.15l1.65,9.97l-2.48,0.83l-4.15-1.66l-5.81,4.15l-0.83,4.98l-1.66,4.15h-14.95
	l-4.15,0.82l-3.31,2.49l-0.83,7.47l-8.3,4.98c-4.15,2.49-6.64,3.32-7.47,1.66l-1.66-1.66l-1.66,0.83l-1.66,3.32
	c-0.82,2.49-0.82,4.15-1.65,4.98l-29.07,4.15C1176.18,1184.59,1175.35,1182.93,1176.18,1179.61z M1277.44,1219.47l-4.99,1.66
	c-2.48,2.49-4.15,4.15-4.15,6.64l1.67,0.82l0.83,1.66l-4.15,7.47l-4.99,5.81l-4.97,0.83l-4.15,1.65c-0.83,0-1.66,1.67-2.49,4.15
	l-3.32,4.99l-8.31,0.8h-10.79l-14.94,2.5l-3.32,4.99l-4.15,0.8l-4.15-3.32l-2.48,0.83h-2.49c-2.83-0.68-5.41-2.11-7.48-4.15
	l-4.15-14.11l1.66-7.47l-3.32-3.32l0.83-5.81l0.83-0.83h1.66l2.49-3.32l4.15-1.66l2.49,1.66l1.66,0.82c0.83,0,0.83-0.82,0-2.49
	v-4.15l1.66,1.66c0.83,0.82,1.66,0.82,2.48,0.82c0-0.82,0.83-1.66,0.83-3.32l1.66-2.49l16.6-2.49l0.83-1.66l0.83-0.83h4.15
	l4.15,0.83l9.97-1.66l21.58-9.96l1.67-3.32l5.8,1.66v0.83l-1.65,1.66l-1.67,5.81v5.81c0.83,2.49,3.32,4.15,5.8,4.98l4.16-0.77v0h2.5
	C1279.92,1216.15,1279.1,1217.81,1277.44,1219.47z"/></svg>