<svg version="1.1" id="Layer_1" xmlns="http://www.w3.org/2000/svg" xmlns:xlink="http://www.w3.org/1999/xlink" x="0px" y="0px" viewBox="0 0 2500 2500" style="enable-background:new 0 0 2500 2500;" xml:space="preserve"><style type="text/css">
	.st0{fill-rule:evenodd;clip-rule:evenodd;}
	.st1{fill-rule:evenodd;clip-rule:evenodd;fill:#F2CA30;}
	.st2{fill:#F2CA30;}
</style><path class="st0" d="M1022.56,1444.46l-4.98,2.5l1.65,5.8v5.8l-2.49,2.5l-0.83,4.12l-4.98,5.82l-4.98,16.59l0.83,8.31l-1.66,13.29
	l4.15,4.15c3.32,2.48,4.98,4.12,5.81,6.64v2.48l0.83,2.48l-0.83,17.46l1.66,6.64c-4.15,6.64-4.98,11.62-2.49,14.11l6.65,4.15
	l4.98,5.8l1.65,8.31l1.66,1.65v1.67l5.81-2.48c1.66-3.32,4.15-4.15,9.13-3.32l5.81,5.8h1.66l4.98-4.99l7.47-1.65l7.47-5.8v-2.5
	l-3.32-4.99c-2.49-1.65-4.15-7.44-4.15-16.59c-0.82-4.15,0.83-8.31,4.98-11.62l-1.66-6.64l-5.81-11.62l-3.32-13.27l4.15-15.78
	l-0.82-1.67l-2.49-1.65l0.83-2.48c0.83-7.47,1.66-12.46,0-15.78c-0.83-3.32-2.49-4.99-4.98-5.82l-4.15-6.64h-5.81l-3.32-2.48
	l-3.33-5.8c-1.92-1.62-4.19-2.76-6.64-3.32L1022.56,1444.46L1022.56,1444.46z"/></svg>