<svg version="1.1" id="Layer_1" xmlns="http://www.w3.org/2000/svg" xmlns:xlink="http://www.w3.org/1999/xlink" x="0px" y="0px" viewBox="0 0 2500 2500" style="enable-background:new 0 0 2500 2500;" xml:space="preserve"><style type="text/css">
	.st0{fill-rule:evenodd;clip-rule:evenodd;}
	.st1{fill-rule:evenodd;clip-rule:evenodd;fill:#F2CA30;}
	.st2{fill:#F2CA30;}
</style><path class="st0" d="M1325.6,831.75l-4.15,2.49l-6.64,9.13c-1.67,1.66-2.5,3.32-3.32,6.64c-0.83,2.49-0.83,4.98,0.8,6.65l1.67,3.31
	l-0.83,4.15l-1.65,10.8l9.96-0.83l1.65,2.49l6.67-0.83l9.96,0.83l9.13-6.64c0.8-3.32,2.48-3.32,5.8-3.32l8.31,5.81l1.65-1.66
	l2.5-2.49h4.97l2.5-4.98l4.97,0.82l12.46-1.65l13.27-4.15l-1.65-12.45l-3.35-13.28c-2.48-7.47-6.64-12.45-11.61-14.95l-18.26-3.31
	l-1.67,0.83h-0.83c-1.65,0-2.48-0.83-4.15-1.66c0-0.83-0.8-1.66-1.65-1.66c-4.15,0-7.47,0.83-9.96,3.32l-2.5,2.48l-3.32-2.48
	l-3.32,1.66c-0.83-0.83-1.65-1.66-1.65-2.49l-0.83-1.66l-9.14,0.83l-4.15,5.81l1.67,4.98v4.98L1325.6,831.75L1325.6,831.75z"/></svg>