<svg version="1.1" id="Layer_1" xmlns="http://www.w3.org/2000/svg" xmlns:xlink="http://www.w3.org/1999/xlink" x="0px" y="0px" viewBox="0 0 2500 2500" style="enable-background:new 0 0 2500 2500;" xml:space="preserve"><style type="text/css">
	.st0{fill-rule:evenodd;clip-rule:evenodd;}
	.st1{fill-rule:evenodd;clip-rule:evenodd;fill:#F2CA30;}
	.st2{fill:#F2CA30;}
</style><path class="st2" d="M1622.8,946.34c1.65,1.66,2.48,2.49,4.99,1.66c3.32,0,12.44-4.15,26.55-11.62c1.67-1.66,2.5-7.47,3.32-19.93
	l3.35-3.32v-7.47l4.97-5.81v-3.32l-0.8-3.32v-12.45c0.8-4.98,0.8-9.96-1.67-15.77l-12.46-9.96l-4.97-9.13l-6.67-1.66l-14.94-9.96
	l-20.75,0.83l-6.64,4.15c-1.67,0-4.99-0.83-9.14-4.15l-0.8-1.66h-28.24l-21.58,1.66l-9.96-6.64l-0.83-7.47l-4.97-3.32l3.32-6.64
	l1.65,1.66h2.5v-4.15l-7.47-6.64c0-1.66,0.8-3.32,3.32-4.15l16.59-18.26l8.31-3.32l9.96-0.83l18.26,1.66l0.83,1.66l11.62-1.66
	l12.44,6.64c6.67,3.32,10.82,5.81,13.29,8.3l4.15,10.79l14.11,10.79v4.14c1.65,1.66,4.15,0.83,8.31-0.82
	c1.65-1.66,2.48-3.32,2.48-7.48l-5.82-13.27l1.67-0.83l0.83-1.66l-2.5-4.15h-0.8l4.15-16.6l-3.35-7.48l-4.97-6.64v-1.67h0.01v0
	l-1.67-4.15h-2.48l-8.31-0.83l-1.65,2.49l-0.83,2.49h-0.83l-1.65-0.83l-4.99,13.28c-0.83,0.83-2.48,0.83-4.15,0l-4.99-5.81
	l-12.44,0.83l-9.14-7.47l-12.44,1.66l-6.64-1.66l-5.82-0.83l-4.15,3.32l-11.62-1.66l-28.22,15.77l-4.99,1.66
	c-7.47,14.94-11.61,24.9-11.61,27.39l8.29,32.39l10.79,11.62l3.32-1.66h3.35l18.26,10.79l19.08,0.83l7.47,1.66l15.78-4.15l2.48-3.32
	l3.32,3.32h5.82l0.83-2.49l10.79,6.64l7.47,0.82l15.76,9.97l2.5,5.81l2.48,1.66l0.83,1.66l-2.48,1.66l-6.67,4.98l-2.48,28.24
	l-4.99,1.66l-3.32-0.83h-2.48c-2.48,1.66-3.32,3.32-2.48,6.64l-2.5,3.32c-1.65,0.83-2.48,1.66-3.32,0.83l-4.15-3.33l-12.44,1.66
	l-1.67,4.15c0,1.66-1.65,2.49-3.32,2.49c-1.65,0-2.48-0.83-3.32-3.32l-2.48-4.98l-4.15-1.65l-4.99-0.83l-4.97,1.66l-14.94-2.49
	l2.48-5.81l-2.48-5.81l-4.99,0.83l-8.31-11.62v-2.49l-2.48-1.66h-1.67l-4.15-5.81v-1.66l-0.8-2.49l-4.15-4.98l-5.82-4.15
	c-3.32,0-6.64,0.83-8.29,2.49l-1.67,4.15l-0.83,3.32l-0.8,0.83l-1.67,1.66l0.83,7.47l4.15,7.48l1.65,1.65l-1.65,2.49l-1.67,8.3
	l3.32,34.05l11.62,12.45l5.8-0.83l19.93-8.3l15.78-3.32l5.8,2.49l4.15,0.83h2.48l4.15,2.49h4.99l1.65-1.66h0.83l4.99,3.32
	c2.48,0.82,3.32,1.66,4.15,0.82l5.8-0.82h4.99l1.65-3.32c1.67-1.66,5.82-3.32,11.62-4.98L1622.8,946.34z"/></svg>