<svg version="1.1" id="Layer_1" xmlns="http://www.w3.org/2000/svg" xmlns:xlink="http://www.w3.org/1999/xlink" x="0px" y="0px" viewBox="0 0 2500 2500" style="enable-background:new 0 0 2500 2500;" xml:space="preserve"><style type="text/css">
	.st0{fill-rule:evenodd;clip-rule:evenodd;}
	.st1{fill-rule:evenodd;clip-rule:evenodd;fill:#F2CA30;}
	.st2{fill:#F2CA30;}
</style><path class="st2" d="M908.82,813.48c2.48,1.66,6.64,3.32,12.45,4.15l16.6-2.48l2.49-1.66l1.66,1.66h2.48
	c5.81-4.15,9.13-8.3,9.97-12.45c1.66-4.15,0.83-9.13-2.49-14.94l-6.63-13.29c-5.81-3.32-11.62-5.81-15.77-4.98
	c-3.32,0-6.64,1.66-9.96,4.15h-1.66l-4.15,1.66l-2.5,2.49l-4.15,2.48c-2.49,0.83-3.31,4.15-4.15,9.97l0.83,5.81
	C904.65,806.01,906.31,811.82,908.82,813.48z"/></svg>