<svg version="1.1" id="Layer_1" xmlns="http://www.w3.org/2000/svg" xmlns:xlink="http://www.w3.org/1999/xlink" x="0px" y="0px" viewBox="0 0 2500 2500" style="enable-background:new 0 0 2500 2500;" xml:space="preserve"><style type="text/css">
	.st0{fill-rule:evenodd;clip-rule:evenodd;}
	.st1{fill-rule:evenodd;clip-rule:evenodd;fill:#F2CA30;}
	.st2{fill:#F2CA30;}
</style><path class="st2" d="M1434.34,761.18v1.66l5.82,8.3l1.65,0.83v2.48l0.83-0.82l4.99,14.11h1.65l-0.83,4.15l-0.8,4.98
	c-0.83,0.83,0,2.49,0.8,3.32c-0.8,0-0.8,1.66,0,4.15l0.83,2.49l4.99,6.64c1.65,3.32,3.32,4.15,5.8,4.15l0.83-2.48l2.48,1.66
	l2.5-3.32v-1.66l-0.83-1.66l0.83-0.83l0.8-0.82l0.83-4.15l-0.83-2.49l3.35-0.83v-11.62l-1.67-19.92l-0.83-1.66l1.67-4.98l-0.83-5.81
	l0.83-1.66l-0.83-1.65l0.83-0.83l-1.67-8.3l-3.32-3.32l-2.48-6.64l-2.5-1.66l-4.12-0.83l-0.82-1.7l0,0l-1.67-0.83l-14.11,4.15
	l-3.32,3.32l-2.48,11.62l0.8,5.81l0.83,0.83l-1.65,2.49L1434.34,761.18z"/></svg>