<svg version="1.1" id="Layer_1" xmlns="http://www.w3.org/2000/svg" xmlns:xlink="http://www.w3.org/1999/xlink" x="0px" y="0px" viewBox="0 0 2500 2500" style="enable-background:new 0 0 2500 2500;" xml:space="preserve"><style type="text/css">
	.st0{fill-rule:evenodd;clip-rule:evenodd;}
	.st1{fill-rule:evenodd;clip-rule:evenodd;fill:#F2CA30;}
	.st2{fill:#F2CA30;}
</style><path class="st0" d="M2040.4,1231.93l1.67,7.47l-2.48,4.98v12.44l-4.15,11.62l-3.32,2.48c-1.67,0.83-2.5,2.5-2.5,3.35l4.15,9.12
	c0.83,0.83,0.83,1.67,2.48,1.67h2.5v1.65l1.65,1.67l3.32-0.83c0.83-1.67,1.67-1.67,2.5-1.67h9.12l4.99-3.32
	c2.48-3.32,5.8-4.97,8.31-5.8l4.97,1.65l4.15,2.5l2.5-2.5l0.8-1.65l4.15-0.83l3.32-4.99h3.35c0,0.83,0.8,1.67,1.65,0.83l14.94-3.32
	c5.8-0.83,7.47-5.8,3.32-15.78l-7.47-16.59l-13.27-11.62l-0.83-2.49l-0.83-2.49l-10.79,4.98l-4.15-3.32c-0.83,0-4.99,1.66-9.96,4.98
	l-1.67,1.66l-1.65,1.66l-0.83-0.83l-2.48-2.48l-4.15,0.83c-0.83,0-0.83-0.83-0.83-1.66v-1.66c-2.48-0.82-5.8,0-9.14,2.49
	L2040.4,1231.93L2040.4,1231.93z"/></svg>