<svg version="1.1" id="Layer_1" xmlns="http://www.w3.org/2000/svg" xmlns:xlink="http://www.w3.org/1999/xlink" x="0px" y="0px" viewBox="0 0 2500 2500" style="enable-background:new 0 0 2500 2500;" xml:space="preserve"><style type="text/css">
	.st0{fill-rule:evenodd;clip-rule:evenodd;}
	.st1{fill-rule:evenodd;clip-rule:evenodd;fill:#F2CA30;}
	.st2{fill:#F2CA30;}
</style><path class="st0" d="M1632.78,622.55c0.83-4.15-2.48-6.64-9.12-5.81c-7.47,4.15-10.79,9.97-10.79,18.26
	c-3.32-7.47-8.31-10.79-14.11-12.45c-7.5-6.64-19.1-9.13-34.05-7.47l-18.26,2.49l-16.61-1.66c-2.48-3.32-7.47-5.81-14.11-7.47
	c-7.47-1.66-12.44-4.15-14.94-7.47c-0.83-4.98-2.48-8.3-4.97-9.97h-9.99l-10.79,2.49c-4.15,0-7.47-0.83-9.96-4.15
	c-3.32,2.49-6.64,3.32-8.31,2.49l-4.97-4.98c-4.15-6.64-9.14-9.96-13.29-8.3l1.67-2.49c0-2.49-1.67-4.14-4.99-4.98
	c-2.48-1.66-4.99-0.83-6.64,1.66c-0.83,2.49,0,4.98,2.48,4.98c4.15,0.83,5.82,1.66,6.64,3.32l-4.15,6.64
	c-2.48,1.66-4.12,2.49-7.47,1.66c-1.65-5.81-4.12-9.13-6.64-9.96c-1.65,0-4.12,0.83-6.64,3.32l-8.31,7.47h-11.62
	c-3.73,0.06-7.07-2.29-8.29-5.81l-3.32-10.8c-2.5,0-3.32,0.83-3.32,1.66c0.17,4.62-2.46,8.88-6.67,10.8l-35.69,4.15
	c-9.96,0-15.76,3.32-19.91,8.3c-4.15-4.15-8.31-6.64-11.62-6.64c-3.32,0.83-6.67,1.66-10.79,4.98l-10.79,6.64h-12.46l-8.31,13.28
	c-4.15,3.32-10.79,5.81-19.92,6.64l-63.93,12.45c-2.49-4.98-6.64-5.81-10.79-3.32c-6.64,3.32-10.8,4.15-13.28,3.32l-17.43,3.32
	l-15.77,1.66c-6.65-3.32-14.12-0.83-23.25,6.64l-19.92,1.66c-7.47,0.83-12.45,4.98-13.28,11.62l-8.3-5.81
	c0-8.3-1.66-13.28-4.98-14.94l-11.62,2.49c-8.31,4.98-13.28,6.64-14.11,7.47l-14.94-0.83c-2.49,0.83-4.15,2.49-4.15,6.64v7.47
	c1.66,3.32,0.83,5.81-4.15,7.47l-9.96,4.98c-0.83,4.15-4.15,6.64-9.13,7.47c-6.64,0.83-9.96,2.49-11.62,4.15l-14.11-0.83
	l-10.79,6.65c-4.99,3.32-8.31,4.15-10.8,4.98c-4.15,0-8.3-1.66-12.45-5.81c-0.82-3.32,0-5.81,4.15-6.64c0.83-2.49,1.66-5.81,0-8.3
	c-0.79-3.28-3.36-5.85-6.64-6.64c-3.32-4.98-4.15-10.79-2.49-17.44c-5.81-2.49-10.8-0.83-14.11,4.99l-3.32,7.47
	c-0.73,2.39-2.59,4.25-4.98,4.98l-0.83-2.49h-8.3c-3.32,0.83-4.98,2.49-4.98,5.81c-3.32,0-4.98-1.66-4.98-5.81
	c-0.83-4.98-1.66-7.47-3.32-8.3c-7.47-0.83-12.45,0.82-15.77,4.98c-3.32-2.49-9.13-2.49-16.6,0l-15.77-1.66
	c-4.15-0.83-9.96,3.32-14.94,10.79c3.32,6.64,4.15,10.79,1.65,12.45c-0.83,1.66-4.15,2.49-9.13,3.32l-11.62,1.66
	c-4.15,2.49-5.81,5.81-5.81,11.62c-5.81-0.82-12.45,0.83-21.58,4.98c-8.3,3.32-14.94,4.15-20.76,3.32c0,4.15-1.66,6.64-4.15,8.3
	c-1.66,0.83-4.15,1.66-8.3,2.49c-7.47,0.83-11.62,4.98-11.62,11.62c-2.49-0.83-5.81,0.83-9.96,4.15c-3.32,3.32-7.48,4.15-9.97,3.32
	c-9.96,3.32-19.93,8.3-32.37,15.77c-9.97,5.81-19.93,12.45-29.9,18.26c-0.83,7.47-4.15,12.45-9.13,16.6l-30.71,13.28
	c-4.98,3.32-7.48,9.14-8.31,15.77c-13.28,4.15-25.73,12.45-36.52,28.24l-26.56,39.01c-2.49,1.66-7.47,3.32-15.77,5.81
	c-7.47,1.66-11.62,4.15-14.11,9.96c-2.49,6.64-8.31,16.6-18.26,28.24c-9.14,11.62-15.78,21.58-17.44,29.05
	c-5.81,0.83-9.13,4.98-12.45,12.45c-3.32,7.47-7.47,12.45-11.62,14.94c-3.32,2.49-3.32,6.64-0.83,10.79
	c3.32,4.15,4.98,8.3,4.15,9.96c-4.15,3.32-9.13,9.13-14.11,19.1c-4.15,9.13-9.96,14.94-15.77,17.43c-2.49,3.32-2.49,7.48,0.83,9.96
	c0.83,1.66,4.15,4.15,9.14,6.64c0.83,4.15-0.83,7.48-4.98,9.14l-9.97,6.64c-0.82,4.15-4.98,11.62-12.45,21.59
	c-6.64,8.3-9.96,16.6-9.96,23.24c4.98,5.81,4.98,11.62-1.67,17.43l-7.47,7.47l-4.98,7.47c-4.15,2.49-9.13,9.13-14.94,19.09
	c-4.14,8.3-9.13,12.45-16.6,12.45c-4.15,3.32-4.98,6.64-4.15,10.79c-2.49,4.98-7.47,8.3-13.28,10.79l-18.26,2.49
	c-5.81,0.82-9.13,4.98-9.97,11.62l0.83,9.13c0,4.15-0.83,6.64-1.66,9.13c-0.83,4.14-3.32,7.47-7.47,10.79
	c-4.15,2.49-8.3,4.14-12.45,3.33c-2.49,0-4.15,1.65-4.98,4.97v6.67c-0.83,4.12-5.81,8.29-14.11,13.27c0,4.99-3.32,9.96-9.96,14.11
	c-6.64,4.99-9.97,9.12-9.97,13.27c9.14,21.61,20.76,30.73,34.88,27.41l8.3-3.32l7.47-4.99c5.81-3.32,10.79-2.48,15.78,1.67
	c-0.83,4.97,0,7.47,1.66,8.31l23.24,0.8l7.47,26.58c2.49,10.79,4.15,20.78,2.49,28.25l20.75,53.95c5.82,4.15,9.97,4.97,14.11,2.48
	v-2.43l2.49-1.67h3.32c2.49,1.67,4.98,8.31,9.96,18.26c-3.32,2.48-6.64,7.47-9.13,14.94c-3.32,8.31-6.64,14.11-9.13,16.61l-9.13-2.5
	h-9.13c-1.66,5.82,0,10.79,6.64,16.61c6.65,6.64,10.8,11.62,11.62,14.11c7.47,1.67,16.6,7.47,27.39,18.26
	c0,3.32-2.49,7.47-6.64,13.27c-3.31,5.82-4.15,9.99-2.49,14.14l14.94,19.91c6.64,7.47,13.28,11.62,19.92,12.46l7.47-4.99l0.83-8.31
	c0-7.47,2.49-11.61,7.47-14.11l11.62,0.83c1.66,0.83,1.66,1.67,1.66,2.5l-2.48,2.48v8.29c0,3.35,0.82,4.99,3.32,6.67
	c-2.49,4.97-7.47,7.47-14.11,7.47c-0.83,15.76,2.49,29.05,9.13,40.69c9.13-2.5,14.94-0.83,19.93,7.44l4.15,9.99l5.81,9.12
	c4.98,0,9.13,1.67,13.28,5.82l10.79,10.79c-2.49,4.97-0.82,10.79,4.98,16.59c4.98,4.99,6.64,9.99,3.32,14.94l45.67,28.25
	c0.83,6.64,3.32,10.76,6.64,13.27l13.28,2.48l14.94-0.83c4.98,0.83,9.96,1.67,13.28,4.99c5.81,2.48,6.64,7.47,4.98,13.27
	c-2.49,7.47-2.49,12.46,0.83,15.78l10.8-1.65c4.98-2.5,8.3-3.35,10.79-3.35c0,0.83,1.66,4.15,2.49,9.14
	c0.83,3.32,3.32,4.99,7.47,4.99c3.33-6.64,4.15-10.79,1.66-14.94c3.32-6.64,8.3-9.14,15.77-8.31c4.15,3.32,9.96,5.8,16.6,6.64
	l19.09,0.83c16.6,0.83,28.22,4.15,34.05,11.62c-3.32,0.83-4.15,3.32-4.15,6.64v9.14c1.66,5.8,6.64,9.12,15.77,10.79
	c4.98,0,7.47,0.8,9.14,2.48c2.49,1.67,4.15,4.15,4.15,8.31c3.32,0.83,5.81-0.83,7.47-4.15l5.81-8.31c2.49,0,4.15,0.83,5.81,2.48
	l9.97,1.67h13.27c10.8,0,18.27,3.32,22.42,10.79c9.13,2.48,19.09,0.83,29.07-4.99l13.28-7.47c4.98-3.32,9.96-5.8,13.28-7.47
	l9.96-2.48c4.98-0.83,7.47,0.83,9.13,4.15c-1.66,5.8,0,9.96,4.98,13.27l14.11,6.67c3.32,2.48,5.81,7.44,6.64,15.76
	c0.83,7.47,3.32,12.46,6.64,14.14c-2.93,3.76-4.14,8.57-3.32,13.27c2.49,5.8,6.64,7.47,10.8,4.15c5.81-3.32,9.96-4.15,13.28-2.5
	c1.66,5.82,4.15,9.99,6.64,9.99s5.81-1.67,9.97-5.82l9.96-7.47l9.96,0.83c2.49,0,4.98-1.67,6.65-4.99l4.15-7.44
	c4.98-3.35,8.3-2.5,10.79,3.29c2.49,6.67,5.81,10.82,8.3,11.62c0.83,1.67,3.32,2.5,6.64,1.67c3.32,0,4.98,1.65,5.81,4.15
	c4.15,0.83,6.65,0,9.14-2.5c0.82-7.47,2.48-11.61,6.64-12.44l24.9,2.48c4.98,0,8.3-2.48,9.96-8.29l14.12,1.65l14.94-2.48
	c3.32-1.67,4.98-7.47,4.98-16.61c2.49-3.32,4.15-4.99,5.81-4.15c0.83,0,1.66,1.67,3.33,4.15c2.49,5.82,5.81,8.31,9.96,5.82
	c0-4.99,1.66-7.47,5.81-6.67l9.96,3.32c6.64-9.12,14.94-12.44,26.58-9.12l14.11,4.99h14.94c5.81-3.35,13.28-4.15,21.59-1.67
	l21.58,5.8v-2.48c4.15-7.47,9.96-9.12,19.1-4.99l10.8,5.82l10.79,2.48c5.8,1.67,13.27,0,22.42-5.8c8.29-5.82,16.59-7.47,23.23-4.99
	l0.83,24.93h4.99l8.29-6.67c4.99-2.48,8.31-4.97,9.99-8.31c2.48-0.8,5.8,0.83,9.96,4.99c3.32,3.32,7.47,4.15,10.79,2.48
	c0.83-5.8,4.15-9.96,10.79-11.61c8.31-2.5,12.46-4.99,14.11-8.31c4.15-2.48,8.31-1.67,11.62,3.32s6.64,6.64,10.79,4.99l0.83-4.99
	c6.64-3.32,11.62-2.48,14.11,1.65l13.27-1.65l10.82-6.64c3.12-0.16,6.15,1.05,8.29,3.32l5.82,8.31c4.99,6.64,11.62,8.29,19.1,4.97
	c-0.83-7.47,3.32-14.11,12.44-19.08l10.79-5.82c3.32-1.65,6.64-4.15,8.31-7.47c1.67-1.65,4.99-2.48,8.31-1.65
	c3.32,0.8,5.8,1.65,8.31,4.12c1.65,4.99,1.65,8.31,0,9.99l-8.31,1.65c-4.99,0-7.47,0.83-8.31,1.67c-2.48,1.65-2.48,4.97-1.67,9.12
	l26.58,1.67c0-4.15,0.83-8.31,3.32-9.96c1.67-1.67,4.15-2.5,8.31-4.15l9.14-3.32c2.48-2.5,3.32-5.82,3.32-9.99
	c3.32-1.65,6.64,0.83,9.96,4.99c2.48,4.99,6.64,5.8,10.79,3.32l1.65-19.1c2.5-4.15,5.82-5.8,10.82-3.32
	c4.97,3.32,9.12,3.32,10.79,1.67l-0.83-3.32l5.8-5.82c2.5-2.48,4.99-4.15,7.47-4.97c2.5,2.48,4.99,5.8,5.82,9.96l10.79-0.83
	c4.97-4.15,8.29-6.64,10.79-6.64c0.83-4.15,0.83-7.47-1.67-10.79l-5.8-8.31l14.11,0.83l12.46-7.47c4.97-4.15,9.12-7.47,12.44-8.31
	h14.94c0-9.96-0.8-16.59-4.97-20.75c4.97-5.82,9.12-8.31,14.11-7.47l24.06,21.58c4.99,2.48,9.96,2.48,15.78-1.67
	c1.65-5.8,0.83-9.96-2.48-12.44l-10.82-4.99c-0.8-3.32,0.83-6.64,4.15-10.79l5.82-9.12c3.32-2.5,5.8-0.83,6.64,3.32
	c0,4.97,1.65,9.12,2.48,9.12h8.31c2.5-3.32,2.5-6.64-0.83-8.31l-6.64-8.29c1.67-4.15,6.64-6.64,14.11-5.82
	c2.48,0.83,3.32,2.5,3.32,6.64c-0.83,3.35,0,5.82,2.5,7.47l7.47-1.65l6.64-1.67c1.65-4.15,0.83-8.29-2.5-10.79
	c-4.12-3.32-6.64-5.8-7.44-8.31c6.64-6.64,16.59-9.12,31.54-8.29l0.83,6.64c0,2.48,0.83,4.15,2.48,4.99h6.64
	c2.5,0.8,3.32,0,4.15-2.5c0.83-1.65,1.67-3.32,0.83-5.8l-4.15-4.99c4.15-5.8,8.31-8.31,13.27-7.47c1.67-2.48,4.99-3.32,9.14-4.15
	h9.96c9.14,0,12.46-4.12,11.62-13.27l10.79-7.47l10.79,0.83c5.82,3.32,10.79,1.65,13.29-4.99l3.32-8.31
	c0.8-3.32,2.48-4.97,4.97-6.64l7.47,7.47c12.46,0.83,21.58-1.65,27.41-8.29l-0.83-12.46c-0.83-4.15-3.32-7.47-8.31-9.99
	c0-9.96,1.67-15.76,4.99-18.26c3.32-4.12,7.47-6.64,11.62-6.64l13.27,0.83l1.67-2.48l2.48-0.83c1.67-1.67,1.67-4.15,0.83-6.64
	c-2.5-0.83-2.5-2.5-0.83-4.99l4.99-4.15l9.12,0.83l5.82-14.94l9.96-1.65c4.99-5.82,5.8-14.11,3.32-22.42
	c1.67-9.14,7.47-14.94,17.43-17.46l14.11-2.48l11.62-4.99c8.31-9.96,14.94-16.59,19.93-19.91c7.47-6.64,16.59-9.96,25.73-10.79
	c1.59,1.46,3.64,2.34,5.8,2.48l7.47,1.67l5.82-5.82c-4.15-8.31,1.65-14.94,15.76-19.1c1.67-3.32,1.67-7.47-1.65-10.79l-4.99-10.79
	c2.48-4.97,5.82-7.47,10.79-6.64h14.11l0.83-8.31c-0.83-3.32-2.48-4.97-4.97-4.97c1.65-3.32,4.97-4.99,10.79-4.99
	c3.32-2.48,4.97-5.8,6.64-10.79l1.65-13.27c3.32-4.99,6.67-14.11,9.14-29.05c1.65-12.46,5.8-21.61,12.46-26.58
	c1.65-2.53,1.65-5.79,0-8.31l-6.67-8.31l9.99-6.64l9.12-9.96c6.64-7.47,13.27-8.31,20.78-3.32c9.12-2.5,14.11-6.67,14.11-13.29
	c0,4.15,1.65,6.64,5.8,8.31l9.96-0.83l9.14-18.26c4.15-7.47,4.15-14.11,2.48-20.75l6.64-2.49l6.67-0.82c4.97,0.82,9.12,0,12.44-2.5
	l4.15-9.95l3.32-12.45c1.67-4.15,4.99-6.65,9.14-8.31l10.79-14.11c4.97-5.81,5.8-11.62,4.97-17.43
	c-10.79-2.49-16.59-0.83-19.91,4.98c-1.67,4.98-7.47,9.96-15.78,17.43c-7.47,5.81-10.79,12.45-11.62,18.26
	c-1.65,1.66-3.32,0.83-4.97-0.82l-1.67-4.99c0.83-15.77,2.48-28.22,4.15-35.69c-1.67-1.66-2.48-5.81-2.48-11.62
	c0.8-4.98-1.67-7.47-6.67-7.47c-2.48-3.32-1.65-5.81,2.5-6.64c5.8-0.83,8.29-1.66,9.12-3.32l-2.48-0.83v-9.13
	c-0.83-4.98,0-7.47,1.65-9.97h-4.97c0.83-3.32,4.97-6.64,10.79-11.62c5.8-4.15,9.12-8.3,10.79-12.45c-0.83,3.32,0,5.81,3.32,7.47
	l8.31,0.83l19.1-10.79c6.64-4.15,9.96-10.8,8.29-17.44c-1.65-5.81-6.64-7.47-15.76-4.98l-12.46-35.69l3.32-4.15
	c-1.67-5.81,0.83-14.11,6.64-24.07c5.82-9.96,7.47-18.27,6.67-23.25l-23.25,21.59l-24.9,3.32c-8.31-4.98-11.62-11.62-9.99-19.92
	c-0.8-4.15,0-6.64,1.67-7.47l6.64-1.66c6.64,0.83,9.96-1.66,11.62-6.64v-6.64l-1.67-4.97l-19.08-2.49c-7.47,0-12.46,3.32-14.94,9.96
	c-2.5,9.96-1.67,15.77,0.8,19.92c-2.48,0.83-4.97,0-6.64-3.32l-5.8-7.47c3.32-11.62,0-20.75-10.79-27.41l-27.41-14.11
	c0-4.15-4.15-7.47-10.79-10.79c-3.32-0.83-4.99-1.66-4.99-3.32c-0.8-2.49,0.83-4.98,3.32-8.31l-2.48-4.98l-6.64-0.83
	c-4.15,2.49-7.47,4.98-9.14,9.14c-2.6,3.29-3.23,7.73-1.65,11.62c-2.48-0.82-6.64-2.49-13.27-6.64l-13.29-3.32
	c-9.96-3.32-14.11-10.8-13.27-22.42l-3.32-1.66c-2.5,0-3.32,0-4.15-0.83c8.31-2.49,12.44-8.3,12.44-18.26l-3.32-5.81l-7.47-0.83
	c-4.15,0.83-7.47,3.32-9.96,9.14l-5.8,10.79c-3.32,0-5.82-2.48-6.67-6.63l-1.65-9.97c-1.67-4.15-5.82-6.64-10.79-9.13
	c-4.74-1.13-9.23-3.09-13.27-5.81c-3.35-4.15-4.15-8.3-1.67-14.94c2.48-6.64,3.32-11.62,1.67-15.77c-3.35-4.98-8.31-6.64-14.97-5.81
	l-14.92,16.6l-7.47-24.07c-2.5-9.96-8.31-16.6-14.94-21.59l-15.78-2.49c-5.8-1.66-9.96-4.98-12.46-9.13
	c-6.64-1.66-12.44-7.47-19.08-14.11l-17.46-16.6l-27.38-1.66c-0.83-4.15-7.47-6.64-19.93-8.3c-6.17-4.51-13.25-7.63-20.75-9.13
	l-21.58,1.66l-15.78,3.32l-16.61-0.83c-4.12,0.83-8.29-0.83-13.27-4.98l-12.44-7.46c-3.35-4.99-9.99-8.31-19.93-9.97
	c-9.96-0.83-16.61-4.15-19.93-8.3l-12.44-1.66c-5.82-0.83-9.14,0-11.62,2.49h-4.99l-4.15-3.32c0-1.66,0-3.32,0.83-3.32l2.48-2.49
	c1.67,0,3.35,0.83,3.35,2.49h6.64c1.65,0,3.32-0.83,4.97-2.49c0-4.98,1.67-8.3,4.99-9.96l19.1-2.49c3.32-0.83,5.8-4.15,7.47-9.13
	c1.65-2.49,1.65-5.81,0.8-9.13l-6.61-7.47c-4.99-1.66-8.31-0.83-11.65,2.49l-9.96,6.64l-9.96,0.82c-4.15,0-6.64,2.49-8.31,4.98
	c-2.48,4.98-5.8,4.98-9.96,2.49c-5.8-4.15-9.14-5.81-10.79-4.98c-4.99,1.66-6.64,4.98-4.99,9.13c3.32,4.98,2.5,9.13,0,11.62
	c-4.97,0.83-8.31-0.83-9.96-5.81c-2.5-5.81-4.99-9.14-8.31-10.79l-11.62,0.83c-4.97-1.66-7.47-5.81-7.47-12.45
	c0.83-4.15,3.35-6.64,8.31-9.96l9.96-7.47l22.42,2.48v-3.32l4.99-7.47c1.67-3.32,4.99-3.32,8.31-2.49
	c2.48-5.81,2.48-9.96-0.83-12.45c-4.99-3.32-7.47-4.15-9.14-2.49l-4.12,13.28l-9.14,0.83l-11.62-0.83l-11.62,4.15
	c-1.65-3.32-4.97-5.81-11.62-8.3c-5.8-2.49-9.12-4.98-9.96-8.3c-2.48-1.66-4.15-1.66-4.97,0l-3.35,6.64l-14.11-2.49
	c0-2.49,1.67-4.98,4.15-7.47C1631.96,627.51,1633.61,625.04,1632.78,622.55L1632.78,622.55z M1452.61,729.64l1.67,0.82l0.83,1.66
	l4.12,0.83l2.5,1.66l2.48,6.64l3.32,3.32l1.67,8.3l-0.83,0.83l0.83,1.65l-0.83,1.66l0.83,5.81l-1.67,4.98l0.83,1.66l1.67,19.92V801
	l-3.35,0.83l0.83,2.49l-0.83,4.15l-0.8,0.82l-0.83,0.83l0.83,1.66v1.66l-2.5,3.32l-2.48-1.66l-0.83,2.48c-2.48,0-4.15-0.82-5.8-4.15
	l-4.99-6.64l-0.83-2.49c-0.8-2.49-0.8-4.15,0-4.15c-0.8-0.83-1.65-2.49-0.8-3.32l0.8-4.98l0.83-4.15h-1.65l-4.99-14.11l-0.83,0.82
	v-2.48l-1.65-0.83l-5.82-8.3v-1.66l-1.65-3.32l1.65-2.49l-0.83-0.83l-0.8-5.81l2.48-11.62l3.32-3.32L1452.61,729.64L1452.61,729.64z
	 M2150.83,1166.33h-0.8l-0.83-1.66h0.83L2150.83,1166.33z M2252.13,1246.87c-3.62,0.97-7.01,2.67-9.96,4.98
	c-3.35,3.33-5.82,7.48-6.67,11.63l-1.65,7.44l-4.99,6.67l-8.31-6.67l11.62-19.91c4.99-7.48,9.99-12.45,15.78-14.11L2252.13,1246.87
	L2252.13,1246.87z M929.58,769.5c4.15-0.83,9.96,1.66,15.77,4.98l6.64,13.28c3.32,5.81,4.15,10.79,2.49,14.94
	c-0.83,4.15-4.15,8.3-9.97,12.45h-2.48l-1.66-1.66l-2.49,1.66l-16.6,2.48c-5.81-0.82-9.97-2.48-12.45-4.15
	c-2.49-1.66-4.15-7.47-4.98-17.43l-0.83-5.81c0.83-5.82,1.66-9.13,4.15-9.97l4.15-2.48l2.5-2.49l4.15-1.66h1.66
	C922.94,771.16,926.26,769.5,929.58,769.5L929.58,769.5z M1634.45,757.05v1.66l4.97,6.64l3.35,7.48l-4.15,16.6h0.8l2.5,4.15
	l-0.83,1.66l-1.67,0.83l5.82,13.27c0,4.15-0.83,5.82-2.48,7.48c-4.15,1.66-6.67,2.49-8.31,0.82v-4.14l-14.11-10.79l-4.15-10.79
	c-2.48-2.49-6.64-4.98-13.29-8.3l-12.44-6.64l-11.62,1.66l-0.83-1.66l-18.26-1.66l-9.96,0.83l-8.31,3.32l-16.59,18.26
	c-2.5,0.83-3.32,2.49-3.32,4.15l7.47,6.64v4.15h-2.5l-1.65-1.66l-3.32,6.64l4.97,3.32l0.83,7.47l9.96,6.64l21.58-1.66h28.24
	l0.8,1.66c4.15,3.32,7.47,4.15,9.14,4.15l6.64-4.15l20.75-0.83l14.94,9.96l6.67,1.66l4.97,9.13l12.46,9.96
	c2.48,5.81,2.48,10.79,1.67,15.77v12.45l0.8,3.32v3.32l-4.97,5.81v7.47l-3.35,3.32c-0.8,12.45-1.65,18.26-3.32,19.93
	c-14.11,7.47-23.23,11.62-26.55,11.62c-2.5,0.83-3.35,0-4.99-1.66l-4.15-0.83c-5.8,1.66-9.96,3.32-11.62,4.98l-1.65,3.32h-4.99
	l-5.8,0.82c-0.83,0.83-1.67,0-4.15-0.82l-4.99-3.32h-0.83l-1.65,1.66h-4.99l-4.15-2.49h-2.48l-4.15-0.83l-5.8-2.49l-15.78,3.32
	l-19.93,8.3l-5.8,0.83l-11.62-12.45l-3.32-34.05l1.67-8.3l1.65-2.49l-1.65-1.65l-4.15-7.48l-0.83-7.47l1.67-1.66l0.8-0.83l0.83-3.32
	l1.67-4.15c1.65-1.66,4.97-2.49,8.29-2.49l5.82,4.15l4.15,4.98l0.8,2.49v1.66l4.15,5.81h1.67l2.48,1.66v2.49l8.31,11.62l4.99-0.83
	l2.48,5.81l-2.48,5.81l14.94,2.49l4.97-1.66l4.99,0.83l4.15,1.65l2.48,4.98c0.83,2.49,1.67,3.32,3.32,3.32
	c1.67,0,3.32-0.83,3.32-2.49l1.67-4.15l12.44-1.66l4.15,3.33c0.83,0.82,1.67,0,3.32-0.83l2.5-3.32c-0.83-3.32,0-4.98,2.48-6.64h2.48
	l3.32,0.83l4.99-1.66l2.48-28.24l6.67-4.98l2.48-1.66l-0.83-1.66l-2.48-1.66l-2.5-5.81l-15.76-9.97l-7.47-0.82l-10.79-6.64
	l-0.83,2.49h-5.82l-3.32-3.32l-2.48,3.32l-15.78,4.15l-7.47-1.66l-19.08-0.83l-18.26-10.79h-3.35l-3.32,1.66l-10.79-11.62
	l-8.29-32.39c0-2.49,4.12-12.45,11.61-27.39l4.99-1.66l28.22-15.77l11.62,1.66l4.15-3.32l5.82,0.83l6.64,1.66l12.44-1.66l9.14,7.47
	l12.44-0.83l4.99,5.81c1.67,0.83,3.32,0.83,4.15,0l4.99-13.28l1.65,0.83h0.83l0.83-2.49l1.65-2.49l8.31,0.83h2.48L1634.45,757.05
	L1634.45,757.05z M1327.25,793.57l2.5-1.66l13.27-2.49l42.36,2.49l4.15,3.32h4.97l1.67,2.49c1.65,1.66,2.48,2.49,4.12,1.66
	l4.99,0.83l2.5,4.15l2.48,4.15l6.64,3.32l5.8,4.98l0.83,3.32v2.48c5.82,9.97,9.14,14.94,10.79,15.77l5.82,5.81v1.66l-0.83,0.83
	l1.65,1.66l1.67,2.49l-0.83,4.98l0.83,4.15l-2.48,2.5v8.3l2.48,1.66c0,4.15,0,7.47-2.48,9.13c-0.83,1.66-3.32,2.49-7.47,3.32
	c-3.32,0-5.82-0.83-7.47-1.66l-4.15-1.66l-5.8,0.83l-2.5,2.49c-2.7,3.42-6.52,5.78-10.79,6.65c-2.48,0-6.64-1.66-13.27-4.15
	c-1.67-0.83-9.14,0.83-20.78,6.64l-4.15,5.81c-1.56,0.82-3.41,0.82-4.97,0l-8.31-6.64l-25.73,6.64l-11.62,4.98l-6.64-0.83
	l-1.67-1.66l-4.97,5.82l5.8,9.13l-2.48,5.81l5.8,5.81v5.81c3.32,6.65,5.82,10.8,8.31,10.8l13.27,4.15v1.66l22.44,6.64l5.8,4.15
	l12.44,0.83l2.5,1.66l9.96-6.64l14.11-2.49c3.32-1.66,5.82-3.32,7.47-4.98v0.83l3.32-14.11l9.99-6.64l11.61-13.28
	c1.67-2.49,4.15-3.32,5.82-2.49l5.8,3.32l4.15,4.98v2.49l-0.83,2.49l0.83,2.49v3.32l-7.47,10.79l-3.32,9.14l-9.96,9.13l-4.99,8.3
	l-19.93,4.98l-9.12,9.14l-9.12,0.82l-2.5,2.49c-0.83,0.83-1.65,1.66-2.48,1.66l-5.82,0.83l-7.47-4.15l-28.22,0.83l-15.76-8.3v-3.32
	l-2.5-2.49l-1.65,0.83l-2.5-0.83c-0.83-0.95-0.83-2.37,0-3.32l-6.64-3.32l-2.48-1.66l-3.32-10.8l-10.79-5.81l-7.47-9.14l-8.31-37.35
	l-9.14-9.96c-1.65-0.82-1.65-4.15,0-8.3l4.15-3.32l2.48-8.3c-1.65-11.62-1.65-16.6,0.83-16.6l5.82-16.6c-1.67-1.66-1.67-3.32,0-4.98
	c2.48-4.98,5.8-9.13,10.79-11.62l14.11-9.13v-6.67c1.65-2.49,4.15-4.98,9.12-6.64h4.15l2.5-1.66l0.83-1.66l5.8-1.66L1327.25,793.57
	L1327.25,793.57z M1520.7,1039.31l4.15-0.82l4.97-0.83l9.99-4.98c2.48,0,6.64,1.66,12.44,6.64v4.98l8.31,2.49l4.99-0.83l4.15,5.81
	l4.12,19.09l-4.12,5.81l1.65,10.79c0,2.49-2.48,4.98-5.8,7.48l-7.47,4.15l-8.31-2.49c-3.32-1.65-5.82-3.32-6.64-4.98l-5.82-10.79
	l0.83-1.66v-2.49l-4.15-5.81l-5.8-5.81h-7.47c-3.11-0.11-6.13,1.1-8.31,3.32l-0.83,4.15l-16.59,16.6l-11.62,20.76
	c0,0,0,0.83,0.83,1.66v2.49l-9.14,9.13c-3.32,4.98-4.97,9.13-4.15,11.62l4.15,9.97l-1.65,4.15l-2.5,4.15l0.83,0.83l0.83,0.83
	l-0.83,3.32v9.96l-0.83,1.67v1.65l5.82,1.66l3.32,6.64l1.65,10.79c0,5.81,0.83,9.13,1.67,9.96l6.61,5.8l5.82,3.32l4.12-4.15
	l4.99-0.83l2.48-1.66l2.5,0.83l1.65,0.83l4.15-0.83l3.33,2.49h19.1l4.15,1.66l1.65,0.83l0.83-0.83h0.83l3.32,8.3v9.97
	c-1.65,4.98-4.99,7.47-8.31,9.13l-11.61,1.66c-2.5,0.82-4.99,2.49-7.47,4.98v3.31l-9.14,1.67l-2.48-0.83l-1.67-1.65l-8.31,1.65
	l-2.48-0.83l-1.65-0.82l-5.82,4.97l-7.47,1.67l-0.83,2.48l-2.48,1.67l-18.26-0.83l-8.31,0.82l-2.48,4.15l-5.82,1.65l-0.8,0.83
	l-1.67,1.67l-13.27,4.12l-1.67-1.65l-2.48-0.83l-9.12,0.83l-4.99-4.15l-2.48,0.83l-1.67,0.83l-17.43-14.95
	c-0.83-1.66-0.83-4.98,0-8.3l6.64-8.3c1.65-0.83,5.8-3.33,13.27-5.81l11.62-4.15l2.48-3.32l3.32,2.49l7.47,1.66h8.31
	c2.48-1.66,3.32-3.33,4.15-5.82c0-1.66-1.67-4.15-4.15-7.47l-1.65-4.98l5.8-0.83l2.48-8.31c0.83-2.48-0.8-10.79-5.8-26.56
	l-1.67-3.32l0.83-1.66l0.83-1.66l-1.67-24.07l1.67-0.83v-0.83l-3.32-2.49c-2.48-0.83-4.15-1.65-4.15-3.32
	c-0.83-0.83-0.83-2.49-0.83-4.15l0.83-4.98l-0.83-19.09l-3.32-2.49l-3.32-1.66l0.83-1.66l0.83-2.49l-3.35-2.49l-5.8-2.49l-9.96,2.49
	l-0.83-0.82l-0.83-0.83l-0.8,0.83l-1.67,0.82l-18.26,7.48l-0.83,1.66h-1.65l-2.5-1.66l-1.65-1.66l-1.67,1.66
	c-3.32,0-6.64-2.49-9.96-7.48c-1.67-1.65-2.48-5.81-2.48-12.45c0-7.47,1.65-11.62,4.97-12.45l27.41-1.66l29.9-5.82l14.11,7.48
	l7.47,8.3c1.65,2.49,2.48,5.81,2.48,11.62l-1.65,8.31l0.8,1.66h0.83l3.32,5.81l4.99,2.49l4.97-10.8v-1.65l-2.48-0.83l5.82-5.81
	l7.44-4.15l-1.65-13.28l16.59-9.97l6.67-8.3l17.43-4.15l1.65-3.32C1519.03,1040.98,1519.03,1040.15,1520.7,1039.31L1520.7,1039.31z
	 M1255.03,978.71l5.8-6.64l23.25,2.49l3.32,3.32v1.65l-0.83,1.66l4.15,6.64l-1.65,3.32l-1.67,1.66l2.5,3.32l-1.67,0.82h-0.83
	l-1.65,1.66v0.83h-5.82l-34.86,7.47l-2.49-0.83l-1.65-1.66l-24.9,3.32l-5.81,3.32l0.83,1.65c-1.66,2.49-3.32,4.15-5.81,4.98
	c-1.66,0.83-3.32,0.83-4.15-0.83h-4.15l-16.6-12.45l-2.49-6.64v-5.81l11.62-2.49l2.49-3.32l1.66-4.15l2.49,0.83l2.49-0.83
	c0.83-0.83,0-4.15-1.66-8.3l-5.81-20.75l-1.66-0.83h-1.66c-3.32-1.66-4.98-2.49-5.81-4.98l-0.83-9.96l-9.13-5.81v-6.61l1.66-4.98
	c-0.83-1.66-2.49-2.49-5.81-2.49l-3.32-9.96l-3.36-3.32l-9.96,7.47l-1.66,4.98l-2.49,3.32c-0.82,0.83-2.49,1.65-4.98,2.49l-7.47,8.3
	v3.32l-1.66,1.66l-0.83,1.66v0.82l-0.83,1.66l-3.32,2.49l-1.66-2.49l-4.15,4.98l1.66,13.28l4.98,6.64l-1.66,3.32l-1.66,2.49
	l4.98,12.45l31.56,0.83l5.81,2.49l2.49,14.11l-3.32,9.13c-0.94,1.77-2.38,3.21-4.15,4.15c-1.66,0-4.98-0.83-9.14-3.31l-7.47-3.32
	l-6.65,4.98l-9.13,1.66l-5.81,6.65l-31.56,2.48l-14.11,4.99l-5.81,0.83l-14.94-19.1l1.66-7.47l4.15-5.81h1.66l1.66-0.83l3.32-3.32
	l17.44-6.64l6.64-6.64l-0.83-3.32l-1.66-3.32l0.83-4.98l1.66-5.81c-1.66-6.65-0.83-12.45,0.83-19.1l-4.15-4.15l-2.49-10.79
	c-0.83-2.48-0.83-4.15,0-4.98v-9.95l-4.15-32.39l1.66-2.49l0.83-2.49l-0.83-6.65c-2.48-3.32-4.15-9.13-4.98-18.26l0.83-4.15v-3.32
	l-1.66-4.98l-0.82-15.77l-6.64-9.13l0.83-24.9l-3.32-16.6l-22.41-0.83c-9.97-0.83-16.6-2.49-19.1-5.81
	c-2.49-2.49-2.49-5.81-1.66-11.62l9.14-8.3h9.96l4.98,0.82l2.49-0.82l1.66-1.67l30.71-3.31l3.32,1.66l4.15,1.65l0.83,9.97l1.66,1.66
	l2.49,3.32c0.83,1.66,0.83,4.15,0,6.64l-2.49,9.96l2.49,4.99l1.66,7.47v14.94l6.64,44.01l2.48,4.98v7.47l-4.15,10.79l2.49,9.96
	l2.49,0.83c0-0.83,1.66,0,3.32,2.49l4.98,15.77l6.64,3.32l10.79,2.49l6.64-4.15l3.33-4.15l4.15-3.33l7.47-17.43l5.81-8.3l16.6-34.05
	l-0.82-1.66l-3.33,0.83l-9.13,4.98l-0.83,2.49l-2.49-0.83l-1.66-4.98l-0.83-6.64c-1.66-1.66-1.66-3.32,0-4.15l6.64-4.98l8.3-2.48
	l4.98,3.32l4.98,0.83l3.32,3.32h1.66l0.83-1.66h4.15l3.32,0.83l2.48-2.49l2.49-3.32l8.3-5.81h19.92l0.83,2.49l-0.83,4.15
	c0.83,2.49,0.83,4.15,0,5.81l-4.98,3.32l-5.81,3.33c-29.05,38.18-43.18,59.76-44.01,63.93v16.6h11.62l3.32,1.66
	c0-1.66,0.83-1.66,3.32,0l7.47,6.64c1.66,14.94,4.15,23.25,5.81,24.9l7.48,2.49c3.32,0.83,4.98,1.66,6.64,3.32l5.81,14.94l7.47,10.8
	l16.6,2.48C1252.54,977.88,1253.37,977.88,1255.03,978.71L1255.03,978.71z M1255.03,1086.63l8.31,2.49l0.83,2.49
	c0,0.83,0.8,0.83,2.48,0.83l4.15-0.83l4.97,0.83l9.99,9.13v3.33c-1.67,0.82-1.67,1.66,0,2.49c4.15,0,5.8,1.66,6.64,4.15l5.8,12.45
	l18.26,86.34l-1.65,1.66l-1.67,2.49l5.82,5.81l4.12,0.83l1.67,2.49l4.99,2.49l10.79-8.31l9.96-4.15l4.99-0.83l0.8,1.66l4.99,4.15
	l1.67,29.07l-2.5,3.32l0.83,2.48l0.83,3.32l-4.15,5.82l-4.15,4.15l0.83,2.48l-0.83,2.48l-24.9,8.31l-3.32-1.67
	c-0.83-0.8-1.67-0.8-1.67-0.8l-4.12,2.48l-17.46-6.64l-3.32-4.15l-3.32-3.32l-1.67,1.65l-2.48,2.5l-12.44,4.97l-8.31,9.14
	l-11.62,2.48l-4.15,4.15l-12.45,3.32l-2.48-0.83l-2.49-1.65l-1.66,1.65l-0.83,2.5l-9.14,3.32l-2.49-0.83l-1.66-0.83l-4.98,0.83
	l-4.98,1.67l-2.49,0.8l-1.65,0.83l-3.32-2.48l-3.32-1.67l-6.64,3.32c-4.15,1.67-6.64,2.48-9.14,2.48l-11.62-7.44l-9.14-7.47
	l-1.66,0.84h-1.66l-2.49-3.32l-4.98-2.48v-5.8l-9.96-16.61c-0.83-2.48,0.83-5.8,3.32-10.79l-1.66-4.15l-3.32-3.32
	c-1.66-3.32-1.66-6.64,0-11.62l4.15-3.32l4.15-3.32c0.83-2.49,4.15-8.3,8.3-18.26l2.49-4.98l7.47-1.66l7.47-4.15v-3.32h-8.3
	l-8.31-0.83v-3.33l-4.15-2.49l-9.97-14.94l-0.83-9.13l-5.81-7.47l-0.83-9.13l4.15-7.47l-0.83-1.66l-0.83-1.66l1.66-2.49l0.82-1.66
	l-0.82-2.49l-0.83-3.32l1.65-0.82l1.66-0.83l4.98-6.64h5.81c2.49-0.83,5.81-4.15,10.79-9.97l3.32-2.49l1.66,0.83h2.49l14.94-8.3
	h19.93l24.9-9.13l2.49,0.83l1.66,1.66L1255.03,1086.63L1255.03,1086.63z M1756.5,1021.04l0.8,16.6l3.35,3.32l5.8,27.39l-1.65,1.66
	l0.8,2.48l4.15,3.32l1.65,19.1l2.5,2.48c0.83,0,1.65,0,2.48,1.66l9.96,41.5c0.83,2.49,4.15,4.15,8.31,4.98l10.79-2.49l5.82,5.81
	l9.96-2.49c4.99,0,8.31,1.66,12.46,4.98l3.32,7.47l1.65,6.65l-14.11,14.11l-10.79,1.66l-4.99,4.98l-6.64,0.83l-3.32-2.49l-5.8,0.83
	v1.66l-0.83,1.66l-13.27,2.49l-4.99-3.32l-4.99,2.49h-4.12l-5.82-1.66l-2.48-3.28c-0.83-1.66-2.5-1.66-4.15-1.66
	c-3.32,0-4.99,2.49-5.82,7.47l-8.29,1.66l-3.35,7.47l-4.12,7.47h-3.32l-3.35-0.83l-3.32,1.66l-1.65,0.83c0,0-0.83-0.83-2.48-1.66
	l-2.52-1.66l-1.65,1.66l-0.83,2.49l-5.82,2.49h-4.97l-2.48-3.32l-4.15-0.83l-14.94,2.49l-4.15-4.15l-3.32-4.15l-4.99-3.32
	l-0.83,1.66h-1.65l-7.47-4.15l-5.82-4.98l0.83-4.98l-21.58-20.76l-0.83-4.98v-4.97l-3.32-2.49c-0.83-0.83-3.32-4.98-6.64-12.45
	l1.65-2.49l-2.48-0.83l-4.97-41.52l4.97-7.47l-0.83-2.49l-0.8-1.66l2.48-6.64l-1.67-6.64l2.5-5.81v-1.66l-0.83-1.66l1.65-8.3
	l3.32-6.64l4.99-2.49l13.29-18.26l7.44-5.81l9.14-2.49l8.31-7.47l19.08-0.83l6.67-0.83l1.65,0.83c0,0.83,0.83,1.65,1.67,1.65h5.8
	l2.5-0.82h2.48l1.67,6.64c1.65,1.66,3.32,2.49,5.8,1.66l9.12-3.32l3.35-3.32l3.32-8.3c0.83-1.66-0.83-3.32-3.32-4.98
	c-0.83,0-1.67-0.83-1.67-2.49v-4.15l-3.32-1.66c-0.83-0.83-2.5-2.49-2.5-4.98c-0.95-1.92-0.62-4.23,0.83-5.81l1.67-4.98l-3.32-4.15
	l-4.15-4.15c-1.67-1.66-4.15-2.49-7.47-2.49l-7.47,2.49l-25.73,3.32c-1.67,0-4.15-1.66-7.47-3.32c-4.15-2.49-6.64-4.98-7.47-7.47
	c-0.83-1.66,0-5.81,0.83-12.45c1.65-4.98,2.48-8.3,3.32-9.14l4.15,1.66l1.65-2.48l0.83-3.32h6.64l6.67,0.83l13.27-2.48l1.67,0.82
	l1.65,1.66l4.15-0.83l0.83-2.49l2.48-2.49l14.94-1.66l10.79,2.49l5.8,8.3l11.62,49.82l-1.65,4.15l-1.67,4.15L1756.5,1021.04
	L1756.5,1021.04z M1876.87,1165.52l1.65,1.65l1.67,1.66l3.32-0.83l1.67-2.48l1.65-2.49l14.94-1.66l10.79,2.49l5.82,8.3l12.44,49.82
	l-3.32,7.47l9.14,25.74l0.8,16.59l2.5,3.32l5.8,27.41l-0.83,1.65l0.83,2.5l4.15,3.32l0.83,9.96c-0.83,4.99,0,8.31,0,9.14l2.48,1.65
	c1.67,0,2.48,0.83,2.48,1.67l9.99,42.33l9.12,4.99l10.79-2.48l4.99,4.97l10.79-2.48c4.15,0,8.31,2.48,11.62,5.8l4.15,6.67l0.83,6.64
	l-5.82,8.29l-7.47,6.67l-11.62,1.65l-1.65,2.5l-2.5,3.32h-7.47l-1.65-1.67l-1.67-0.83l-4.97,0.83c-0.83,0-0.83,0.83-0.83,1.67
	l-0.83,1.65l-13.27,2.48l-4.15-3.32l-3.32,0.83l-1.67,1.67l-10.79-1.67l-2.48-3.32l-3.31-1.67c-3.32,0-5.82,2.48-6.64,7.44
	l-4.15,0.83c-1.67-0.83-2.5-0.83-3.32,0l-7.47,15.78h-6.65l-3.32,0.83l-1.65,0.83l-2.48-1.67c-0.83-1.67-1.67-2.48-2.5-1.67
	l-1.65,1.67l-1.67,2.48l-4.99,1.67h-5.8l-1.67-2.48l-4.97-1.67l-14.94,2.48l-4.15-3.32l-2.48-4.99c-1.67-1.65-3.32-2.48-4.99-2.48
	l-0.83,0.83l-1.65,0.83l-7.47-4.15l-5.82-5.82v-4.12l-20.75-20.78l-0.83-5.8v-4.15l-3.32-3.32c-1.67,0-3.32-4.15-7.47-11.62
	l2.5-2.48l-3.35-1.67l-3.32-29.05c-0.8-2.48-0.8-6.64-0.8-11.62l4.97-8.31l-1.65-3.32l2.48-7.47l-1.67-6.64l2.5-5.8v-0.83
	l-0.83-2.48l1.67-7.47l2.48-6.64l2.48-0.83l2.48-2.5l14.14-18.26l6.64-5.8l9.96-1.67l8.31-7.47l18.26-0.82l6.64-0.83l1.67,0.83
	c0.8,0.82,0.8,1.65,2.48,1.65l10.79-0.83l1.65,5.82c0.83,2.48,3.35,3.32,5.82,2.48l9.12-3.32l4.15-6.64l2.5-4.98l-4.15-4.98
	c-0.83,0-0.83-1.65-0.83-2.49l-0.83-4.15l-2.48-1.66l-2.48-4.98c-0.97-1.92-0.65-4.23,0.8-5.81l0.83-4.98l-3.32-4.98l-4.15-3.32
	c-1.8-1.66-4.19-2.55-6.64-2.48l-4.15,0.82l-3.32,1.66l-26.58,3.32l-7.47-3.32c-3.32-3.32-5.8-5.81-6.64-7.47
	c-0.83-2.49-0.83-6.64,0.83-12.45c0.83-5.81,1.65-8.3,3.32-9.13l1.65,0.83l1.67,0.83l2.48-3.32l0.83-2.49h5.82l7.47,0.83
	L1876.87,1165.52L1876.87,1165.52z M2036.25,1207.02l4.15-4.98l53.98-4.98l4.12,2.49l1.67,1.66l2.48-0.83l2.5-0.83v1.66l2.48,2.49
	l6.64,0.83l5.82,8.3l12.44,7.47l2.5,3.32v2.49l9.96,14.11l3.32,1.66l2.48,2.49v2.49l2.5,2.48l1.65,2.49v1.66l-0.83,2.48l0.83,1.67
	v2.48l-0.83,0.83l-1.65,0.83v8.31l1.65,0.8l1.67,1.67l-0.83,8.31l-6.64,2.48l-6.64,0.83l-9.14-1.67l-13.27,12.46
	c-1.67,0-4.99-0.83-9.14-3.32c-3.32-2.5-6.64-3.32-8.29-3.32c-5.88,3.04-11.45,6.65-16.61,10.79l-2.48,4.12
	c-1.67,2.5-2.48,3.35-4.99,3.35l-2.48-1.67v-2.48c-2.48-2.48-4.15-3.32-6.64-3.32c-10.79,2.48-19.93,4.97-25.73,8.29l-9.99,5.82
	l-8.29-2.48c-2.5,2.48-4.15,4.15-4.15,6.64l7.47,8.31l-1.67,3.32c-1.65,0.8-1.65,1.65-0.8,2.48l2.48,2.48l2.48,1.67v2.48
	c-0.83,0.83,0,1.67,0,2.48l9.96,10.82l11.62,3.32l1.67,0.8l1.65,1.67l18.26,3.32l9.14,5.8l3.32-0.8c1.67-0.83,3.32-1.67,4.15-1.67
	l2.48,1.67l2.5,1.65l4.97-2.48l4.99-4.15l9.12-2.48l9.14-4.99l4.99-14.94l4.12-4.99l4.99-3.32l9.14-14.11l7.44-2.48
	c4.15-1.67,6.67,0,6.67,5.8l0.8,11.62l-2.48,7.47c-2.48,6.64-6.64,14.11-14.94,22.42l-2.48,9.12l-22.42,8.31l-1.67,3.35l-3.32,3.32
	l-9.96,2.48l-3.32,4.99l-13.27-3.35l-27.41,1.67c-6.64-0.83-11.62-2.48-15.78-5.8l-1.65-2.5v-2.48h-4.98v-2.48l-0.83-1.67
	l-4.97-1.65l-4.15-2.5l-2.48-9.12l-5.82-2.5l-6.64-4.15l-4.99-4.12l-2.48-3.32l-10.79-34.05l-9.14-9.99
	c-1.65-3.32-1.65-5.8-1.65-7.47c0.83-1.65,0.83-1.65,2.48-2.48l2.48-0.83c2.5-4.15,3.35-7.47,2.5-9.12l-1.67-5.82l-1.65-6.64
	l3.32-4.97l0.83-9.14c0-5.81,0-9.96,0.8-10.79l24.93-21.59v-6.64l5.8-6.65l2.48,0.83l1.67,0.83l3.36-7.46l2.48,0.83L2036.25,1207.02
	L2036.25,1207.02z M2167.44,1153.05l0.83-0.83h4.12v0.83h0.83l1.67,1.66l1.65,5.81v0.83l0.83,0.82l2.5,5.81v1.67h0.8l0.83,1.65
	l0.83,0.83l0.83-2.48v0.82h0.8l0.83-2.49v-0.83l-0.83-1.65v-6.64h0.83l0.83,1.66l-0.83,0.83l0.83,1.66l-0.83,0.83h0.83v1.66
	l-0.83,0.82h0.83l-0.83,0.83l1.67,0.83l-0.83,0.83v0.83l0.83,1.65v0.83l-0.83,1.66h0.83v0.83l0.8,4.15v0.83h2.5l0.83-0.83h1.65
	v-4.15l-0.83-2.49v-2.48h-0.8v-3.33l-0.83-4.15l-0.83-3.32l0.83-0.83l-3.32-6.64v4.15l-0.83-0.83v1.66l-1.67-0.83l-0.8,0.83v-2.49
	l0.8-0.83v-0.83l-0.8-1.66h0.8v-0.83l0.83-0.82l4.99-0.83v-0.82h0.83l1.65,0.82l0.83-0.82l0.83,0.82l-3.32,2.49v4.98l-0.83,0.83
	h0.83l1.65,4.15l0.83,0.83h-0.83l1.67,6.64l1.65,4.98l0.83,2.49v0.83l0.83,1.66l2.48-0.83l0.83,0.83l0.83,1.66h0.8l-1.65,1.66h-3.32
	v0.83l-0.83,0.83h-2.48v-0.83c-1.67,0.83-2.5,1.66-3.32,1.66l-2.5-0.83v-0.83l-0.83,1.66v-0.83l-0.8,1.66h-1.67l-1.65-0.83
	l-0.83,0.83l-0.83,0.83l-6.64,2.49l-1.67-1.66l-3.32,0.83v-0.83l-0.83-1.66l0.83-1.66v0.83v-0.83h1.66l0.8-0.83v-3.32l-0.8-1.66
	l-0.83-0.82v-4.15l-0.83-3.32l-0.83-2.49h0.83l-0.83-1.66l0.83-0.83l-0.83-0.83v-3.32l-0.8-0.83v-0.83l-0.83-1.65h-3.31l-1.67-0.83
	v-1.66l4.15-0.83h0.9L2167.44,1153.05L2167.44,1153.05z M2150.01,1155.54l0.8-1.66l0.83,0.83l2.48-0.83l1.67,0.83l0.83,1.66h0.83
	v0.82h0.8l-0.8,1.66l0.8,0.83v3.31l1.67,2.49l-0.83,0.82h0.83v4.15l-2.48,0.83l-1.67-4.15v-0.83l-0.83-1.66l-0.83-3.32l-1.65-1.66
	l-0.83,0.83h-0.83l-0.8-0.83v3.32l-1.67-2.49l0.83-0.83h-1.66v4.98l0.83,0.83v0.82l0.83,2.49v0.83h-0.83l1.67,3.31h-0.83l0.83,2.49
	l-0.83,0.83l0.83,0.82h-0.83l0.83,0.83v0.83l0.8,2.49l0.83,4.15l1.67,0.83v-0.74l2.48,0.83l0.83-1.66l2.48,0.83h0.83l1.65,0.83
	l0.83,1.66l-1.65,0.83h-0.83v0.83l-10.79,0.82l-0.83,0.83h-0.83v0.83l-1.65-0.83l-2.5,1.66h-1.65l-1.67-1.66v-2.49l2.5-0.83
	l0.8,0.83l1.67-0.83l0.83-0.83h0.83l0.8,0.83l0.83-0.83v-4.98l-0.83-0.83v-1.66l-0.8-1.66v-3.32l-0.83-1.66l-0.83-0.83l0.83-0.83
	l-0.83-0.83l0.83-2.49v-0.83l-0.83-0.83h-0.83l-0.83-4.98l-0.8-0.83l-2.5,0.83l-1.65,0.82v1.66h0.83v1.66l-1.67,0.82v3.33l0.83,1.65
	v1.66l-0.83,0.83h0.83l-0.83,1.66l-2.48-0.83l-1.67-0.83v-1.66l0.83-1.66l-0.83-2.49v-0.83l-0.83-1.65h0.83l-0.83-4.15l-0.8-0.83
	l3.32-3.32l0.8,0.83l1.67-0.83h0.83l0.83-0.82h5.8v-0.83H2150.01L2150.01,1155.54z M1769.76,1398.82l9.96-4.15l4.99-0.83l0.83,1.67
	l4.97,3.32l1.67,14.94l-0.83,14.11l-0.83,2.48l-0.8,0.83l1.65,6.64l-4.15,4.99l-4.15,4.97l0.83,2.5l-0.83,2.48l-24.9,7.47
	l-3.32-0.83l-1.67-0.83l-4.12,1.67l-8.31-1.67l-9.12-4.15l-6.67-7.44l-4.15,4.12l-12.44,4.15l-8.31,9.96l-10.79,2.5l-4.99,4.15
	l-12.44,3.32c-1.67,0-2.5,0-2.5-1.67l-2.48-0.8l-1.65,1.65l-0.83,1.67l-8.31,4.15l-3.32-0.83l-1.67-1.67l-4.97,1.67l-4.99,0.83
	c-0.83,0.8-1.67,0.8-1.67,1.65h-2.48l-3.32-1.65l-3.32-1.67c-1.67,0-3.32,0.83-6.64,2.48l-9.14,2.5l-11.62-6.64l-9.12-7.5
	l-1.67,0.83h-1.65l-1.67-1.65l-0.83-1.67l-4.97-2.48v-5.82l-9.96-16.59c-0.83-2.48,0-6.64,3.32-11.62l-1.67-3.32l-3.32-4.15
	c-1.65-2.48-1.65-5.8,0-9.96l3.32-4.15l4.99-4.15l7.47-18.26l3.32-4.97l7.47-0.83l8.31-4.15l-0.83-3.32l-15.78-0.83v-1.67
	l-0.83-2.48l-3.32-1.67c-3.32-2.48-6.64-6.64-10.79-14.92l-0.83-9.14l-5.8-7.47l-0.83-9.12l4.15-7.47l-0.83-1.67l-0.8-1.65l1.65-2.5
	l0.83-1.65l-1.67-5.82l1.67-0.83l1.65-0.83l2.5-3.29l2.48-3.35h5.8l14.14-13.27l1.65,0.83h2.48l14.94-8.31l19.93,0.83l24.9-9.14
	l4.15,1.67l17.43-1.67c4.99,0.83,7.47,0.83,8.31,2.5l0.83,1.65l2.48,1.67l4.15-0.83l4.99,0.83c4.97,2.48,8.29,5.8,9.12,9.12v3.32
	c0,0.83,0,1.67,0.83,2.5c4.15-0.83,5.8,0.8,7.47,4.15l4.99,11.61c7.44,46.51,12.44,71.41,14.11,75.56l4.15,10.79l-1.67,2.48
	c-1.67,0-1.67,0.83-1.67,1.67c0.83,2.48,2.5,4.15,5.82,6.64h4.15l1.65,3.32l4.99,1.67L1769.76,1398.82L1769.76,1398.82z
	 M1445.14,1320.76l4.99-3.32h7.47l3.32-0.83c0.83-0.83,1.67-1.65,2.48-0.83l14.94,7.47h4.98l10.79,9.14l8.31,10.79v5.8
	c0,4.15,0,6.64,0.83,8.31l4.97,9.12c4.15,4.15,7.47,8.31,8.31,11.62l-2.48,5.82c-1.67,2.48-2.5,4.97-2.5,6.64l7.47,43.16
	c5.82,24.9,9.14,39.04,10.79,41.52c4.15,3.32,6.67,4.15,8.31,4.15l1.67-1.67h2.48l8.31,9.14l6.64,10.79l-1.67,2.48l-3.32,1.67
	l-0.83,2.48l-1.65,1.67l-7.47-4.15l-26.58,4.97v1.67l-0.83,1.65l-11.61,3.35l-12.46,2.48l-5.8-3.32l-15.78,3.32l-4.99-4.99
	l-1.65-8.31c-0.83-4.15,0-6.64,0-6.64l1.65-0.83l1.67,0.83l1.65-1.65c0.83-0.83,2.5-2.5,4.15-2.5l33.22-9.12l2.48-4.99h-0.8
	l-1.67-1.65l0.83-4.15l-11.62-19.93v-10.79l1.67-3.32l0.8-4.15l-2.48-4.15l-3.32-3.32l1.65-4.97l-1.65-4.15l-3.32-3.32l-2.48-27.41
	l-3.35-5.8l-3.32-3.32l-0.83-4.99l-2.48-4.99c-2.48-2.48-6.64-4.97-11.62-7.47c-6.64-3.32-11.61-4.97-14.94-4.15
	c-2.48,0.83-4.97,2.5-7.47,4.99l-9.12,10.79l-4.99,3.32h-4.15l-3.32,1.67c-1.65,2.48-2.48,4.99-1.65,7.47l1.65,1.65l-0.8,1.67
	l-6.67,19.1v2.48l-0.8,1.67l-3.32,0.8c-0.83,0-1.67,0.83-2.5,1.67v9.96l-4.99,12.46c-2.48,7.47-3.32,12.44-2.48,15.76l11.62,28.25
	l-2.48,4.15l-2.5,0.8c-0.8,2.5,0,4.15,0.83,7.47c3.32,4.99,5.82,8.31,7.47,9.14l29.9-4.99l3.32-4.15h1.67l1.65,0.83l2.5,0.83
	l-6.67,7.47l-0.83,14.11l-4.12,6.64l-4.99,5.82l-10.79-0.83c-0.83,0-2.48,0.83-4.99,3.32l-4.12,2.48l-4.99-1.65l-32.37,6.64
	l-2.5-0.83h-2.48l-3.32,2.5l-1.67,1.65l-5.8-1.65l-9.96,4.15l-2.5,2.48l-2.48,0.8l-9.14-6.64h-1.65l-2.48,0.83
	c-0.83,0-0.83-2.48-0.83-6.64l1.65-4.15l1.67-8.31l4.99-5.8l12.44-3.32l10.79-7.47h4.98c2.48-0.83,2.48-3.32,0.83-5.82l3.32-9.12
	l-0.83-3.32l-2.48-0.83l-0.83-1.67c-0.83-0.8,0-2.48,1.65-4.12l2.5-4.15l-0.83-1.67l-1.67-1.65l-4.97-24.93l-2.5-1.65l-2.48-3.32
	l-7.47-39.87l-1.65-2.48l-0.83-0.83c-0.83-0.8,0-1.65,1.67-2.48l1.65-1.65c0.07-2.46-0.82-4.85-2.48-6.67c-1.67-0.8-4.15-0.8-7.47,0
	l-7.47,0.83l-3.32-6.64l-21.61-9.12l-4.97-7.5l-2.5-8.29c0.83-7.47,4.15-11.62,8.31-12.46l29.9,1.67l9.14-9.99l2.48-0.8l0.83-0.83
	l0.8-1.67h1.67l1.65,1.67h2.5l2.48,4.97l7.47,3.35l7.47-0.83l1.67,0.83l1.65,0.8h2.5l1.65,0.83l0.83,2.5l1.67,1.65l7.44-0.83
	l8.31-2.48l9.99-11.62h2.48l3.32-0.83l6.64-7.47c4.15-4.97,6.64-7.47,8.31-7.47h4.97L1445.14,1320.76L1445.14,1320.76z
	 M1246.72,1370.57c2.49,0,3.32,0.83,2.49,2.5c0,2.48,1.66,4.15,7.47,5.8l4.97,0.83l9.96,9.96l1.67,2.5l0.83,2.48l9.96,8.29
	l2.48,5.82l13.29,12.46l-0.83,4.12l-1.67,2.5l2.5,1.65l2.48,2.5l1.67,10.79l2.48,4.15l2.48,4.12l2.5,8.31l0.8,9.14l-1.65,4.97
	l-1.67,2.5l1.67,25.73l-3.32,5.8l-3.32,2.48c-0.83,1.67,0,3.35,0,4.15l0.8,3.32l-5.8,6.67l0.83,3.32l0.83,2.48l-8.31,10.79
	l-9.14,8.31v3.32l-1.65,3.32c-12.46,9.12-22.42,13.27-26.58,14.11l-8.3-1.65l-39.01,9.12l-3.32-2.48l-3.32-3.32l-7.47,0.83
	l-7.47-1.67l-29.05-18.26l-7.47-8.31h-2.49l-4.15-0.8l-6.64-4.99l0.83-1.67l0.83-1.65l-9.96-14.14c-1.66-5.8-2.49-12.44-1.66-20.75
	l3.32-4.15l-1.66-2.48l-2.49-3.32v-4.15l0.83-5.8l-4.98-21.61l5.81-16.59l-1.66-4.15l1.66-2.48l0.83-1.67l0.83-8.31h1.66l2.49-1.65
	c0.83-0.83,0.83-1.67,0-2.48v-3.32l3.32-2.5l5.81-9.96l14.11-19.1l11.62-4.15l4.15-4.97l4.98-4.15l24.07-2.5l9.14-7.47
	c3.32-1.65,7.47-1.65,11.62,0l9.96,6.64l2.49-1.65l2.49-0.83l5.81,4.15l2.49-0.83h1.71L1246.72,1370.57L1246.72,1370.57z
	 M552.67,896.52c-2.49,0.82-4.15,0-5.82-3.32l-4.98-5.81l10.8-14.94c4.14-5.81,9.13-8.31,14.11-9.13c2.49-0.82,5.81-0.82,9.13,3.32
	h16.6l11.62,4.98l10.8,7.47c2.48-3.32,4.98-3.32,6.64,0.83h0.83l14.11-12.45l12.45-14.11l5.81-0.83c3.32,0,4.15-0.83,5.81-2.49
	l2.49,1.66l3.32,2.49l7.47-4.15l13.28,12.46c4.98,4.98,9.96,8.3,14.11,10.79l3.32-2.49l1.66-3.32l10.79,0.82l7.47-4.98
	c2.49-2.49,3.32-4.98,1.66-8.3l17.44-8.3c7.47-2.49,13.27-4.15,19.09-4.15c15.77,3.32,27.39,7.47,34.05,15.78l3.32,10.79
	c1.66,4.98,4.15,7.47,7.47,8.3l0.83,35.69c0,14.11-0.83,25.73-3.32,34.86c6.64,7.47,9.96,18.26,12.45,33.22l4.15,36.52l5.81,11.62
	l28.24,1.66c2.48,4.15,4.15,8.3,3.32,13.28l-4.98,13.28l-11.62,6.64l-97.13,9.13h-6.65c-4.98,0-9.13,1.66-10.79,6.64l-22.42-0.83
	l-23.24,2.49c-2.49-0.83-5.81-4.98-9.13-12.45v-7.47l5.81-4.15c0.83-0.83,2.49-1.66,4.98-4.15l6.65-1.66
	c7.47-8.3,11.62-15.77,14.11-22.42l-6.64-10.79c-2.49-4.98-2.49-8.3,0-11.62l-2.49-1.66l4.15-10.79l-11.62-15.77l7.47-23.24
	c-4.15-1.66-7.47-5.81-7.47-11.62l-2.49-14.94l5.81-8.3c1.66-3.32,3.32-5.81,3.32-8.3l-9.96-5.81l-1.66-4.15l-28.22-4.98
	c-14.94,9.97-22.42,20.76-21.58,33.22c0,3.32-0.83,5.81-3.32,6.64l-4.16,17.43c4.16,10.8,8.31,24.08,9.96,40.69l5.81,41.52
	c4.15,4.98,4.98,9.13,4.98,12.45c5.81,0,12.45,3.32,20.76,9.96l-1.66,14.12c0,5.81-2.49,9.96-4.98,12.45l-57.29,12.45l-0.83-2.49
	v-1.66l-32.37,4.98l-9.13-12.45c-3.32-4.98-2.49-9.96,2.49-14.11l4.98-3.32h4.98l13.28-14.94l11.62,1.66c4.15,0,6.64-2.48,6.64-5.81
	c-0.83-1.65-0.83-3.32,0-5.81l1.66-5.81c-2.49-9.96-3.32-23.24-3.32-40.69c0-18.27-0.83-31.56-2.49-40.69l-8.3-9.13
	c1.66-14.11,3.32-23.24,5.81-28.22c-1.98-1.05-3.47-2.84-4.15-4.98l-2.49-5.81l-9.13-7.47l-7.48,6.65
	C564.28,903.99,556.81,899.84,552.67,896.52L552.67,896.52z M875.61,845.88l6.64-1.66l39.03,1.66l2.49-4.15h4.15l2.49-4.15
	l15.78,1.66c2.48,1.66,5.8,7.47,9.13,17.44l11.62,80.53l-1.66,7.47v9.14l6.64,29.88l6.64,11.62l0.83,4.15
	c1.66,4.98,6.64,5.81,14.11,2.49l11.62-3.32l26.56,1.66c4.15,2.49,6.64,4.98,7.47,8.3l-1.66,2.49l0.82,1.65l4.15,3.32l4.15,5.81
	l-2.49,8.3l-9.96,5.81l-9.13,0.83l-5.81-0.83l-4.15-1.66l-37.37,5.81l-2.48-0.83h-4.15l-28.24,3.32l-9.96,5.81l-14.11-2.49
	l-28.22,4.98l-3.32-1.66l-0.83-1.66l-2.49,1.66h-10.79l-5.81-2.49l-5.81-9.96v-0.83c-0.83-5.81,0-9.96,1.65-13.28
	c1.66-2.48,4.98-3.32,9.14-3.32l11.62-1.66l5.81-4.15l46.5-4.15l-1.66-18.26c-3.32-3.32-4.15-6.64-3.32-10.8l2.49-4.15
	c1.66-1.65,2.49-2.49,1.66-4.15l-0.82-4.98v-28.22l-3.32-7.47c-3.32-9.13-4.98-20.75-4.15-35.69l0.83-11.63l1.66-4.98l-0.83-4.98
	l-6.64-4.98l-4.99-1.66l-4.15,3.32c-1.66,2.49-3.32,4.15-4.98,4.15c-2.49,0-4.14,0-5.81-2.49l-8.3-1.66h-1.66l-2.5,0.83l-14.11,1.66
	l-5.81-0.83l-3.32-4.15l-1.66-4.98c-3.31,1.66-4.98,0.82-5.81-1.66v-6.64l0.83-7.47l4.98-0.83l3.32-0.83L875.61,845.88
	L875.61,845.88z M847.39,1124.83l3.32-13.28l-0.83-3.32c2.49-5.81,5.81-8.3,9.96-9.97l22.41,2.49c8.31,0,14.11-0.83,17.44-2.49
	l9.96-2.49l5.81,3.32l4.98,4.98l-0.83,17.43c0.83,2.49,0.83,4.15-1.66,5.81c-0.83,0.83-0.83,2.49,1.66,4.98l5.81,6.64
	c2.49,4.98,2.49,9.13,0.83,12.45l-3.32,4.98l7.47,16.6l-1.66,2.49l-0.83,5.81l3.32,14.94l5.81,4.98c2.49-0.83,5.81-2.48,9.14-4.15
	l5.8-13.28l6.65-3.32c0.82-0.83,2.49-3.32,3.32-6.64l0.83-7.47l6.64-5.81l7.47-5.81l4.15-0.83h3.32l1.65-4.15l2.5-0.82
	c0.82,0,1.65-0.83,2.48-0.83l0.83-2.49l4.98-4.15l3.32,1.66c1.66,1.66,6.64,2.49,12.45,3.32l17.43-1.66c4.98,0,8.3,1.66,9.96,4.15
	l1.66,9.13l7.47,3.32l3.32,0.82l4.15,9.14v4.15l2.49,1.66l3.32,7.48l8.3,34.86l2.49,1.66l0.83,2.49c0.83,1.66,0.83,3.32,0,4.15
	l-1.66,0.82v10.8l2.49,13.27l13.28,40.69l0.83,1.67l9.96-0.83l12.45-3.32l10.79-1.67c1.66,0.83,3.32,2.5,5.81,4.99l3.32,7.47
	l0.83,9.14l-1.66,7.47l-2.49,7.47l-41.52,7.44H1074l-7.47,5.82h-1.66l-2.49-0.83c-4.15-0.83-8.3,0-11.62,2.48l-4.98,4.15l-4.15,2.5
	l-4.98-1.67l-3.32-1.65l-4.15-0.83l-1.66-2.5c0-1.65-2.49-3.32-5.81-4.12v-4.15l-7.48-4.15l-6.64,8.31l-0.83,5.8l-3.32,4.15
	l-9.96,2.48l-6.65,6.64h-5.81l-9.13,2.5c-1.66-0.83-2.49,0-2.49,0.83l-2.49,2.48l-8.3,0.83l-2.49-3.32l-1.66-0.83
	c-1.66,0-3.32,0.83-4.98,2.48l-4.15,4.15l-4.15,1.65l-4.15-2.48l-3.32,1.67l-4.15-0.83l-2.49,3.32l-19.1,0.83
	c-5.81-1.67-9.96-3.32-11.62-6.64l-1.66-4.99l0.83-3.32l2.49-2.48l-1.66-13.29c0-1.65,3.32-2.48,9.96-3.32l24.07-3.32l2.49-5.8
	l-0.83-4.99l-2.49-4.99v-8.31l-2.49-4.15v-5.8c0-3.32-2.49-8.31-6.64-17.43l-2.49-17.43l0.83-4.99l-3.32-4.99l-1.65-10.79l0.82-4.15
	l-3.32-4.98l-4.15-9.13l0.83-4.98l0.83-4.98l-0.83-13.28l1.66-4.98l-2.49-1.65l-2.49-2.49l-1.66-20.75l-4.98-4.98v-25.74
	c-0.83-3.32-1.66-5.81-3.32-6.64l-5.81-1.66h-7.43l-9.13,2.49l-0.83,0.83l-1.66,0.83l-10.79-1.66l-5.81-2.49L847.39,1124.83
	L847.39,1124.83z M938.71,1437.82l7.48-8.31l6.64-2.48c0-0.83,0.82-1.67,2.49-1.67l4.15,1.67l4.98-2.48c1.66,0,5.81,2.48,13.28,9.12
	l11.62,9.99l6.64-5.82h8.31l8.3-7.47c-0.83-1.56-0.83-3.43,0-4.99l7.47-4.97l17.44-7.47l24.9,4.15l1.66,3.32
	c2.49,0.83,4.15,0.83,5.81,2.48l1.66,7.47l3.32,7.47l4.98,2.48l1.66,10.79l1.66,25.76l-1.66,22.4c4.98,6.67,8.3,11.62,9.13,14.94
	l9.13,44.84c2.49,6.64,4.15,9.96,5.81,10.79l5.81,0.83l6.64-0.83l2.49-2.48l1.65-0.83l6.64,0.83c3.32,4.15,4.98,7.47,4.98,9.14
	l-0.83,7.44l-2.49,4.99l-9.13,5.8h-13.28l-57.29,10.82c-1.66,0-2.49,1.65-4.15,2.48l-3.32-0.83l-16.6,2.48l-1.66,2.5l-1.66,2.48
	l-28.22,1.65l-4.15,3.35l-6.64-0.83l-5.81-7.47v-8.31l9.97-6.64h2.48l9.97-13.29l1.66-4.12l0.83-5.82c-0.83-3.32-3.32-5.8-6.64-8.31
	c-2.49-4.12-2.49-7.44-0.83-9.96l-0.82-3.32l1.66-6.64l-10.8-12.46l4.15-16.59l1.66-3.32v-1.67l-1.66-0.83l-5.81-4.97l-2.49-14.94
	l7.47-13.27l-0.82-3.35l-4.98-0.8l-3.32-1.67l-3.32-4.99l-21.58-0.83l-1.66-1.65c-0.82,0-0.82-0.83-2.48-0.83l-11.62,10.79
	l-4.98,10.79v13.29l-1.66,0.8h-2.49l-2.49,14.97l9.13,23.23l9.96,48.99l4.15,4.15l0.82,4.97l-1.66,1.67l10.8,0.83
	c4.15,0.8,6.64,3.32,8.3,6.64v5.8l-0.83,5.82c0.83,3.32,1.66,5.8,0.83,6.64l-42.35,14.11l-6.64,0.83l-1.66-1.67
	c-0.83-0.8-0.83-0.8-1.66-0.8l-24.9,5.8c-2.49-0.83-5.81-4.99-9.97-13.27v-4.99l4.15-6.64c2.49-1.67,4.15-0.83,6.64,1.65l1.66-2.48
	l9.14-9.12l13.27-2.5l3.32-5.8c0.83-0.83,0-1.67,0-2.5l-0.83-2.48v-1.65l0.83-2.5l-6.64-30.7l0.82-9.99l-1.66-16.59l-3.32-13.29
	c0-1.65-0.83-2.48-2.49-3.32l-3.31-4.15c-1.67-3.32-1.67-8.29,0-13.27l1.65-9.14c0-1.65-0.83-3.32-1.65-3.32l-4.15-7.44l-4.15-4.15
	l-4.98-2.5c-1.66,0-3.32,1.67-6.64,5.82l-7.47-1.67l-7.51-3.33l-0.82-1.67l-3.32-1.65l-2.49,0.83l-4.15-5.82l-1.66-1.65l4.99-8.31
	l7.44-8.3c2.49-2.48,5.81-2.48,9.14-2.48l4.15,0.83h1.66l1.66-0.83c0.83,0,2.49,0,4.98,2.48l4.15-1.65l17.43,4.97l3.32,3.32h0.83
	l1.66-0.8h1.66c0.83,0,1.66,0,2.49,0.8l2.48,0.83l7.47-7.47c0-2.48,0.83-5.8,2.49-7.47h1.66L938.71,1437.82L938.71,1437.82z
	 M585.87,1425.35l8.3,9.99l3.32,19.08c1.13,6.3,1.69,12.7,1.66,19.1l-0.83,10.79l1.66,0.83l1.66,4.99c0,2.48-0.83,4.15-0.83,4.97
	l-0.83,1.67l9.13,13.27l8.3,34.05v3.32l-0.83,3.32l9.13,67.26l-2.49,13.27c-1.66,7.5-1.66,11.62,0.83,14.14l7.47,16.59v-0.83
	l4.15,3.32l8.31-1.65l2.49-4.99l3.32-3.32c0.83,0,3.32,1.67,6.64,4.15l5.81,4.15l9.13,0.83l1.66-1.67v-1.67l16.6-6.64
	c2.49,0,6.64,1.67,11.62,4.15c2.49,2.48,4.15,4.15,4.98,6.64c0.83,4.15,0.83,6.67-0.83,9.14c-4.98,6.64-9.96,10.79-14.11,13.27
	h-7.47l-4.98,3.32c-1.91,2.11-4.62,3.32-7.47,3.32l-8.3-1.65c-1.66,0-3.32,0.83-4.98,3.32l-4.98,1.67l-8.3-2.5h-7.47l-3.32,2.5
	l-2.49,2.48h-5.81l-1.65-2.48l-4.98,0.8v2.5l-9.96,0.8c-4.15,0.83-6.65,2.5-6.65,3.35c0,0.8-2.48,2.48-6.64,3.32l-7.47,3.32
	l-4.98,2.48h-5.81c0-1.65-2.49-2.48-6.64-1.65l-12.45,2.48l-29.9-2.48c-2.49-0.83-2.49-4.15-0.83-11.62l4.98-5.82l0.83-4.15v-4.97
	c0.83-0.83,3.32-2.5,9.13-2.5l10.79-0.8l14.11-9.14l5.81,0.83l6.64-1.65l4.98-7.5l2.49-5.8c2.49-3.32,0.83-5.8-3.32-9.14l-2.48-5.8
	c-0.83-6.64-1.66-11.62-0.83-14.11l4.98-6.64c1.66-2.5,2.49-4.99,2.49-7.47c-0.83-1.67-3.32-4.15-7.47-6.64l-7.47-4.99l-0.83-5.82
	l7.47-14.94l0.83-17.43l-6.64-29.05l4.15-5.8c1.66-2.5,2.49-5.82,2.49-9.14c-0.83-2.48-1.66-4.15-2.49-4.15l-4.15-0.8l-4.98-10.79
	l1.66-1.67l0.83-3.32l-3.32-19.1l-5.81-19.1c-0.83-1.65-1.66-1.65-3.32,0l-7.47,2.48l-4.15-0.8l-2.49-0.83l-23.24,4.99l-2.49,4.15
	c-0.83,1.65-2.49,2.48-4.98,2.48c-1.66,0.83-3.32,0-4.98-4.15l-3.32-5.82l-0.83,5.82c0,3.32,0,4.99-1.66,4.15l-12.45-2.48
	l-8.3-11.62c-3.32-6.67-4.98-10.79-4.15-11.62c1.66-2.48,5.81-4.99,11.62-7.47c1.66,1.67,3.32,2.48,4.15,1.67l0.83-1.67l3.32-2.48
	l30.71-5.82c0.83,0,2.49,0.83,3.32,2.48l3.32,3.35l19.09-8.31c3.32-0.83,5.81-1.67,8.31-2.5L585.87,1425.35L585.87,1425.35z
	 M712.9,1500.08c0.83-1.67,0.83-2.48,0-4.15l-0.83-3.32l6.64-6.64l2.49,0.83l1.66,0.8l3.32-6.64h2.49l2.49,0.83l1.66-2.48l2.49-2.48
	l53.97-4.99c2.49,0,4.15,0.83,4.15,1.65l1.65,1.67h2.49l1.66-0.83l0.83,1.67l1.66,1.65l7.47,1.67l5.81,8.29l6.64,2.5
	c2.49,1.65,4.98,2.48,5.81,4.15c1.66,1.65,2.49,2.48,1.66,3.32v3.32l10.79,13.27l3.33,1.67l2.48,2.48v3.32l2.49,2.5l1.66,2.48v1.65
	l-0.83,1.67l0.83,2.48v1.67l-1.63,0.87l-0.83,0.8v8.31l1.65,0.83l1.66,1.65c0,4.99,0,7.47-0.83,8.31l-6.64,2.5l-7.48,1.65
	l-3.32-1.65l-4.98-0.83l-14.11,12.44l-8.3-2.48c-4.15-3.32-6.64-4.15-8.3-3.32c-4.98,0.83-10.8,4.99-16.6,10.79l-2.49,4.15
	l-4.98,3.32l-2.49-1.67v-3.29c-2.49-2.5-4.98-3.35-6.64-2.5l-26.58,7.47l-9.13,5.8l-8.3-1.65l-4.15,6.64l6.64,7.47
	c0.83,1.67,0,2.48-1.66,3.32v3.32l2.49,2.5c0.83,0,1.66,0.8,2.49,1.65v4.15l9.96,10.79l11.62,3.32l1.66,1.67l1.66,1.65l18.26,2.5
	l4.15,3.32l4.15,3.32l4.15-1.67l4.15-1.65c0.83,0,1.66,0.83,2.49,1.65l2.48,1.67l4.98-2.48l4.98-3.35l9.13-3.32l9.13-4.15
	l4.98-15.76l8.3-8.31l9.97-14.11l3.32-2.5h4.15c3.32,1.67,5.81,4.15,8.31,8.31c1.66,3.32,2.49,6.64,0.82,9.14l-6.64,11.61
	l-1.66,8.31l-4.98,5.82l-5.81,4.15l-3.32,9.96l-21.58,8.31l-1.66,3.32l-3.32,3.32l-4.98,0.8l-4.98,0.83l-3.32,4.99l-14.11-2.48
	l-26.56,1.65c-6.64-0.83-11.62-2.48-15.77-6.64l-1.66-2.48c0-1.67,0-1.67-0.83-2.5l-1.66,0.83l-2.49-0.83l-0.83-1.65v-2.5l-4.98-0.8
	l-4.15-2.5l-0.83-4.97l-1.66-4.99c-0.82,0-2.48-0.83-5.81-1.65l-6.64-4.15l-4.98-4.15l-2.49-3.32l-11.62-34.88
	c-0.83-1.65-1.66-3.32-4.98-5.8l-4.15-4.15l-0.83-7.47l2.49-1.67l2.49-1.65c1.66-3.32,3.32-6.64,2.49-9.14l-2.49-5.8l-0.83-5.82
	l3.32-4.97l1.66-20.78L712.9,1500.08L712.9,1500.08z"/></svg>