<svg version="1.1" id="Layer_1" xmlns="http://www.w3.org/2000/svg" xmlns:xlink="http://www.w3.org/1999/xlink" x="0px" y="0px" viewBox="0 0 2500 2500" style="enable-background:new 0 0 2500 2500;" xml:space="preserve"><style type="text/css">
	.st0{fill-rule:evenodd;clip-rule:evenodd;}
	.st1{fill-rule:evenodd;clip-rule:evenodd;fill:#F2CA30;}
	.st2{fill:#F2CA30;}
</style><path class="st2" d="M864.82,863.31l1.66,4.98l3.32,4.15l5.81,0.83l14.11-1.66l2.49-0.83h1.66l8.3,1.66
	c1.67,2.49,3.32,2.49,5.81,2.49c1.66,0,3.32-1.66,4.98-4.15l4.15-3.32l4.99,1.66l6.64,4.98l0.83,4.98l-1.66,4.98l-0.83,11.63
	c-0.83,14.94,0.83,26.56,4.15,35.69l3.32,7.47v28.22l0.82,4.98c0.83,1.66,0,2.49-1.66,4.15l-2.49,4.15c-0.83,4.15,0,7.47,3.32,10.8
	l1.66,18.26l-46.5,4.15l-5.81,4.15l-11.62,1.66c-4.15,0-7.48,0.83-9.14,3.32c-1.65,3.32-2.49,7.47-1.65,13.28v0.83l5.81,9.96
	l5.81,2.49h10.8l2.49-1.66l0.83,1.66l3.32,1.66l28.22-4.98l14.11,2.49l9.96-5.81l28.24-3.32h4.15l2.48,0.83l37.37-5.81l4.15,1.66
	l5.81,0.83l9.13-0.83l9.96-5.81l2.49-8.3l-4.15-5.81l-4.15-3.32l-0.82-1.65l1.66-2.49c-0.83-3.32-3.32-5.81-7.47-8.3l-26.56-1.66
	l-11.62,3.32c-7.48,3.32-12.45,2.49-14.11-2.49l-0.83-4.15l-6.64-11.62l-6.64-29.88v-9.14l1.66-7.47l-11.62-80.53
	c-3.32-9.97-6.64-15.78-9.13-17.44l-15.78-1.66l-2.49,4.15h-4.15l-2.49,4.15l-39.03-1.66l0,0l-6.64,1.66h-7.47l-3.32,0.83
	l-4.98,0.83l-0.83,7.47v6.64C859.84,864.12,861.5,864.97,864.82,863.31z"/></svg>