<svg version="1.1" id="Layer_1" xmlns="http://www.w3.org/2000/svg" xmlns:xlink="http://www.w3.org/1999/xlink" x="0px" y="0px" viewBox="0 0 2500 2500" style="enable-background:new 0 0 2500 2500;" xml:space="preserve"><style type="text/css">
	.st0{fill-rule:evenodd;clip-rule:evenodd;}
	.st1{fill-rule:evenodd;clip-rule:evenodd;fill:#F2CA30;}
	.st2{fill:#F2CA30;}
</style><path class="st2" d="M1128.01,1294.21c-2.49-2.48-4.15-4.15-5.81-4.99l-10.79,1.67l-12.45,3.32l-9.96,0.83l-0.83-1.67l-13.28-40.69
	l-2.49-13.27v-10.8l1.66-0.82c0.83-0.83,0.83-2.49,0-4.15l-0.83-2.49l-2.49-1.66l-8.3-34.86l-3.32-7.48l-2.49-1.66v-4.15l-4.15-9.14
	l-3.32-0.82l-7.47-3.32l-1.66-9.13c-1.66-2.49-4.98-4.15-9.96-4.15l-17.43,1.66c-5.81-0.83-10.8-1.66-12.45-3.32l-3.32-1.66
	l-4.98,4.15l-0.83,2.49c-0.83,0-1.66,0.83-2.48,0.83l-2.5,0.82l-1.65,4.15h-3.32l-4.15,0.83l-7.47,5.81l-6.64,5.81l-0.83,7.47
	c-0.57,2.44-1.7,4.72-3.32,6.64l-6.65,3.32l-5.8,13.28c-3.33,1.66-6.65,3.32-9.14,4.15l-5.81-4.98l-3.32-14.94l0.83-5.81l1.66-2.49
	l-7.47-16.6l3.32-4.98c1.66-3.32,1.66-7.47-0.83-12.45l-5.81-6.64c-2.49-2.49-2.49-4.15-1.66-4.98c2.49-1.66,2.49-3.32,1.66-5.81
	l0.83-17.43l-4.98-4.98l-5.81-3.32l-9.96,2.49c-3.32,1.66-9.13,2.49-17.44,2.49l-22.41-2.49c-4.15,1.66-7.47,4.15-9.96,9.97
	l0.79,3.29l-3.32,13.28l5.81,6.64l5.81,2.49l10.79,1.66l1.66-0.83l0.83-0.83l9.13-2.49h7.47l5.81,1.66
	c1.66,0.83,2.49,3.32,3.32,6.64v25.74l4.98,4.98l1.66,20.75l2.49,2.49l2.49,1.65l-1.66,4.98l0.83,13.28l-0.83,4.98l-0.83,4.98
	l4.15,9.13l3.32,4.98l-0.82,4.15l1.65,10.79l3.32,4.99l-0.83,4.99l2.49,17.43c4.15,9.12,6.64,14.11,6.64,17.43v5.8l2.49,4.15v8.31
	l2.49,4.99l0.83,4.99l-2.49,5.8l-24.07,3.32c-6.64,0.83-9.96,1.67-9.96,3.32l1.66,13.29l-2.49,2.48l-0.83,3.32l1.66,4.99
	c1.66,3.32,5.81,4.97,11.62,6.64l19.1-0.83l2.49-3.32l4.15,0.83l3.32-1.67l4.15,2.48l4.15-1.65l4.15-4.15
	c1.66-1.65,3.32-2.48,4.98-2.48l1.66,0.83l2.49,3.32l8.3-0.83l2.49-2.48c0-0.83,0.83-1.67,2.49-0.83l9.13-2.5h5.81l6.65-6.64
	l9.96-2.48l3.32-4.15l0.83-5.8l6.64-8.31l7.48,4.15v4.15c3.32,0.8,5.81,2.48,5.81,4.12l1.66,2.5l4.15,0.83l3.32,1.65l4.98,1.67
	l4.15-2.5l4.98-4.15c3.32-2.48,7.47-3.32,11.62-2.48l2.49,0.83h1.66l7.47-5.82h12.45l41.52-7.44l2.49-7.47l1.66-7.47l-0.83-9.14
	L1128.01,1294.21z M1049.95,1303.33h-5.81l-3.32,0.83l-13.28,3.32l-10.79,13.29c-4.15,3.32-7.47,4.15-10.79,4.15l-4.15-3.32
	l-1.66-4.99l-5.81-0.83c-0.82,0-1.66,0-2.49,0.83l-2.49,1.67l-11.62-0.83l-3.32,2.48l-2.49,2.48c-4.15,0-7.47-1.65-9.96-4.12
	l-3.32-14.14l-2.49-3.32l-1.66-4.15v-3.32c0.83-1.65,0-4.15-1.66-8.29l-3.32-2.5l-2.49-3.32l-1.66-16.59v-2.52l1.66-1.65l-0.82-4.15
	l0.82-1.67l1.66-2.48l4.15-14.94l15.77-19.1l-0.82-10.79l5.81-4.15l4.98-1.66l1.66-3.32v-2.49l-1.67-0.83l9.97-11.62l7.46-1.66h7.48
	l5.81,3.32l4.98-0.83c0.83,0,1.66-0.83,1.66-0.83l1.66-0.83l3.32,4.15l3.32-0.83l5.81,6.64l4.98,24.07l4.15,2.49l4.15,9.97
	l1.66,9.13l-3.32,4.98l0.82,12.45l-3.32,6.64l7.47,9.99l-0.83,11.62l3.32,11.61C1050.78,1300.04,1050.78,1303.33,1049.95,1303.33z"/></svg>