<svg version="1.1" id="Layer_1" xmlns="http://www.w3.org/2000/svg" xmlns:xlink="http://www.w3.org/1999/xlink" x="0px" y="0px" viewBox="0 0 2500 2500" style="enable-background:new 0 0 2500 2500;" xml:space="preserve"><style type="text/css">
	.st0{fill-rule:evenodd;clip-rule:evenodd;}
	.st1{fill-rule:evenodd;clip-rule:evenodd;fill:#F2CA30;}
	.st2{fill:#F2CA30;}
</style><path class="st2" d="M849.03,1587.2h-4.15l-3.32,2.5l-9.97,14.11l-8.3,8.31l-4.98,15.76l-9.13,4.15l-9.13,3.32l-4.98,3.35
	l-4.98,2.48l-2.48-1.67c-0.83-0.8-1.66-1.65-2.49-1.65l-4.15,1.65l-4.15,1.67l-4.15-3.32l-4.15-3.32l-18.26-2.5l-1.66-1.65
	l-1.66-1.67l-11.62-3.32l-9.96-10.79v-4.15c-0.83-0.83-1.66-1.65-2.49-1.65l-2.49-2.5v-3.32c1.66-0.83,2.49-1.65,1.66-3.32
	l-6.64-7.47l4.15-6.64l8.3,1.65l9.13-5.8l26.58-7.47c1.66-0.83,4.15,0,6.64,2.5v3.29l2.49,1.67l4.98-3.32l2.49-4.15
	c5.81-5.8,11.62-9.96,16.6-10.79c1.66-0.83,4.15,0,8.3,3.32l8.3,2.48l14.11-12.44l4.98,0.83l3.32,1.65l7.48-1.65l6.64-2.5
	c0.83-0.83,0.83-3.32,0.83-8.31l-1.66-1.65l-1.65-0.83v-8.31l0.83-0.8l1.66-0.83v-1.67l-0.83-2.48l0.83-1.67v-1.65l-1.66-2.48
	l-2.49-2.5v-3.32l-2.48-2.48l-3.33-1.67l-10.79-13.27v-3.32c0.83-0.83,0-1.67-1.66-3.32c-0.83-1.67-3.32-2.5-5.81-4.15l-6.64-2.5
	l-5.81-8.29l-7.47-1.67l-1.66-1.65l-0.83-1.67l-1.66,0.83h-2.49l-1.65-1.67c0-0.8-1.66-1.65-4.15-1.65l-53.97,4.99l-2.49,2.48
	l-1.66,2.48l-2.49-0.83h-2.53l-3.32,6.64l-1.66-0.8l-2.49-0.83l-6.64,6.64l0.83,3.33l0,0c0.83,1.67,0.83,2.48,0,4.15l-24.9,20.75
	l-1.66,20.78l-3.32,4.97l0.83,5.82l2.49,5.8c0.83,2.5-0.83,5.82-2.49,9.14l-2.49,1.65l-2.49,1.67l0.83,7.47l4.15,4.15
	c3.32,2.48,4.15,4.15,4.98,5.8l11.62,34.88l2.49,3.32l4.98,4.15l6.64,4.15c3.32,0.8,4.98,1.65,5.81,1.65l1.66,4.99l0.83,4.97
	l4.15,2.5l4.98,0.8v2.5l0.83,1.65l2.49,0.83l1.66-0.83c0.83,0.83,0.83,0.83,0.83,2.5l1.66,2.48c4.15,4.15,9.13,5.8,15.77,6.64
	l26.56-1.65l14.11,2.48l3.32-4.99l4.98-0.83l4.98-0.8l3.32-3.32l1.66-3.32l21.58-8.31l3.32-9.96l5.81-4.15l4.98-5.82l1.66-8.31
	l6.64-11.61c1.66-2.5,0.83-5.82-0.82-9.14C854.85,1591.36,852.36,1588.87,849.03,1587.2z M727.01,1545.76l3.32-3.32l4.15-11.63h0
	v-11.62l2.49-5.8l-1.66-3.35v-3.32l3.32-6.64c3.32-2.48,6.64-3.32,9.13-2.48c0,0,0.83,0.8,0,1.65l0.83,1.67h4.15l2.49,1.65
	l0.83,1.67l3.32-4.15l9.96-4.15l4.15,2.48l3.33-3.32l1.65,1.67v3.32l13.28,11.62l3.32,16.59c1.66,9.99,2.49,14.97,0.83,15.78
	l-8.3,2.48l-1.66-0.8h-2.49l-1.66,2.48l-1.66,2.48l-4.15,0.83l-1.66,1.67l-1.66,1.65l-4.15-2.48l-4.98-0.83
	c-3.19,0.83-6.07,2.56-8.3,4.99l-4.98,4.15l-9.97-0.83l-2.48,1.65l-2.49,0.83l-2.49-2.48l-1.66-0.83l-2.49-1.65l-4.98-8.31
	L727.01,1545.76z"/></svg>