<svg version="1.1" id="Layer_1" xmlns="http://www.w3.org/2000/svg" xmlns:xlink="http://www.w3.org/1999/xlink" x="0px" y="0px" viewBox="0 0 2500 2500" style="enable-background:new 0 0 2500 2500;" xml:space="preserve"><style type="text/css">
	.st0{fill-rule:evenodd;clip-rule:evenodd;}
	.st1{fill-rule:evenodd;clip-rule:evenodd;fill:#F2CA30;}
	.st2{fill:#F2CA30;}
</style><path class="st0" d="M755.23,884.89l-9.96-2.49l-9.97,0.83l0.83,8.31l-1.66,8.3h-0.83l-9.13,13.28l-6.64,14.11
	c1.66,4.15,1.66,8.31,0,14.12l-3.32,10.79l6.64,7.47c3.32,3.32,4.98,6.64,5.82,8.3l-0.83,24.07c0,9.96-1.66,17.43-4.98,23.24
	l15.77,14.11l-1.66,4.15c-0.83,2.49,0,4.98,2.49,7.47l14.94-6.64c5.81,2.49,10.8,3.32,16.6,3.32c5.81-0.82,11.62-3.32,14.94-6.64
	c-3.32-5.81-6.64-14.94-8.3-29.9c6.64-4.98,8.3-12.45,5.81-22.41l-8.31-24.9l4.15-11.62c2.49-4.98,1.66-9.13-2.49-10.79l4.15-23.24
	l-9.13-12.45c-4.15,0.82-7.47,0-9.96-3.33L755.23,884.89L755.23,884.89z"/></svg>