<svg version="1.1" id="Layer_1" xmlns="http://www.w3.org/2000/svg" xmlns:xlink="http://www.w3.org/1999/xlink" x="0px" y="0px" viewBox="0 0 2500 2500" style="enable-background:new 0 0 2500 2500;" xml:space="preserve"><style type="text/css">
	.st0{fill-rule:evenodd;clip-rule:evenodd;}
	.st1{fill-rule:evenodd;clip-rule:evenodd;fill:#F2CA30;}
	.st2{fill:#F2CA30;}
</style><path class="st2" d="M1569.68,1051.76l-4.15-5.81l-4.99,0.83l-8.31-2.49v-4.98c-5.8-4.98-9.96-6.64-12.44-6.64l-9.99,4.98
	l-4.94,0.84h0l-4.15,0.82c-1.67,0.83-1.67,1.66-2.5,3.32l-1.65,3.32l-17.43,4.15l-6.67,8.3l-16.59,9.97l1.65,13.28l-7.44,4.15
	l-5.82,5.81l2.48,0.83v1.66l-4.97,10.8l-4.99-2.49l-3.32-5.81h-0.83l-0.8-1.65l1.65-8.31c0-5.81-0.83-9.13-2.48-11.62l-7.47-8.3
	l-14.11-7.48l-29.9,5.82l-27.41,1.66c-3.32,0.83-4.97,4.98-4.97,12.45c0,6.64,0.8,10.8,2.48,12.45c3.32,4.98,6.64,7.48,9.96,7.48
	l1.67-1.66l1.65,1.66l2.5,1.66h1.65l0.83-1.66l18.26-7.48l1.67-0.82l0.8-0.83l0.83,0.83l0.83,0.82l9.96-2.49l5.8,2.49l3.35,2.49
	l-0.83,2.49l-0.83,1.66l3.32,1.66l3.32,2.49l0.83,19.09l-0.83,4.98c0,1.66,0,3.32,0.83,4.15c0,1.66,1.67,2.49,4.15,3.32l3.32,2.49
	v0.83l-1.67,0.83l1.67,24.07l-0.83,1.66l-0.83,1.66l1.67,3.32c4.99,15.77,6.64,24.07,5.8,26.56l-2.48,8.31l-5.8,0.83l1.65,4.98
	c2.48,3.32,4.15,5.81,4.15,7.47c-0.83,2.49-1.67,4.15-4.15,5.82h-8.31l-7.47-1.66l-3.32-2.49l-2.48,3.32l-11.62,4.15
	c-7.47,2.48-11.62,4.98-13.27,5.81l-6.64,8.3c-0.83,3.32-0.83,6.64,0,8.3l17.43,14.95l1.67-0.83l2.48-0.83l4.99,4.15l9.12-0.83
	l2.48,0.83l1.67,1.65l13.27-4.12l1.67-1.67l0.8-0.83l5.82-1.65l2.48-4.15l8.31-0.83l18.26,0.83l2.48-1.67l0.83-2.48l7.47-1.67
	l5.82-4.97l1.65,0.82l2.48,0.83l8.31-1.65l1.67,1.65l2.48,0.83l9.14-1.67v-3.31c2.48-2.49,4.97-4.15,7.47-4.98l11.61-1.66
	c3.32-1.66,6.67-4.15,8.31-9.13v-9.97l-3.32-8.3h-0.83l-0.83,0.83l-1.65-0.83l-4.15-1.67h-19.1l-3.32-2.49l-4.15,0.83l-1.65-0.83
	l-2.5-0.83l-2.48,1.66l-4.99,0.83l-4.12,4.15l-5.84-3.32l-6.64-5.81c-0.83-0.83-1.67-4.15-1.67-9.96l-1.65-10.79l-3.32-6.64
	l-5.82-1.66v-1.65l0.83-1.67v-9.96l0.83-3.32l-0.83-0.83l-0.83-0.83l2.5-4.15l1.65-4.15l-4.15-9.97c-0.8-2.48,0.83-6.64,4.15-11.62
	l9.14-9.13v-2.49c-0.83-0.83-0.83-1.66-0.83-1.66l11.62-20.76l16.59-16.6l0.83-4.15c2.18-2.22,5.2-3.43,8.31-3.32h7.47l5.8,5.81
	l4.15,5.81v2.49l-0.83,1.66l5.82,10.79c0.8,1.66,3.32,3.33,6.64,4.98l8.31,2.49l7.47-4.15c3.32-2.5,5.8-4.98,5.8-7.48l-1.65-10.79
	l4.12-5.81L1569.68,1051.76z"/></svg>