<svg version="1.1" id="Layer_1" xmlns="http://www.w3.org/2000/svg" xmlns:xlink="http://www.w3.org/1999/xlink" x="0px" y="0px" viewBox="0 0 2500 2500" style="enable-background:new 0 0 2500 2500;" xml:space="preserve"><style type="text/css">
	.st0{fill-rule:evenodd;clip-rule:evenodd;}
	.st1{fill-rule:evenodd;clip-rule:evenodd;fill:#F2CA30;}
	.st2{fill:#F2CA30;}
</style><path class="st2" d="M2154.15,1313.27l-7.44,2.48l-9.14,14.11l-4.99,3.32l-4.12,4.99l-4.99,14.94l-9.14,4.99l-9.12,2.48l-4.99,4.15
	l-4.97,2.48l-2.5-1.65l-2.48-1.67c-0.83,0-2.48,0.83-4.15,1.67l-3.32,0.8l-9.14-5.8l-18.26-3.32l-1.65-1.67l-1.67-0.8l-11.62-3.32
	l-9.96-10.82c0-0.8-0.83-1.65,0-2.48v-2.48l-2.48-1.67l-2.48-2.48c-0.83-0.83-0.83-1.67,0.8-2.48l1.67-3.32l-7.47-8.31
	c0-2.48,1.65-4.15,4.15-6.64l8.29,2.48l9.99-5.82c5.8-3.32,14.94-5.8,25.73-8.29c2.48,0,4.15,0.83,6.64,3.32v2.48l2.48,1.67
	c2.5,0,3.32-0.83,4.99-3.35l2.48-4.12c5.17-4.14,10.73-7.76,16.61-10.79c1.65,0,4.97,0.8,8.29,3.32c4.15,2.48,7.47,3.32,9.14,3.32
	l13.27-12.46l9.14,1.67l6.64-0.83l6.64-2.48l0.83-8.31l-1.67-1.67l-1.65-0.8v-8.31l1.65-0.83l0.83-0.83v-2.48l-0.83-1.67l0.83-2.48
	v-1.66l-1.65-2.49l-2.5-2.48v-2.49l-2.48-2.49l-3.32-1.66l-9.96-14.11v-2.49l-2.5-3.32l-12.44-7.47l-5.82-8.3l-6.64-0.83l-2.48-2.49
	v-1.66l-2.5,0.83l-2.48,0.83l-1.67-1.66l-4.12-2.49l-54.02,4.97l0,0l-4.15,4.98h-2.48l-2.49-0.83l-3.32,7.47l-1.67-0.83l-2.48-0.83
	l-5.8,6.65v6.64l-24.93,21.59c-0.8,0.83-0.8,4.98-0.8,10.79l-0.83,9.14l-3.32,4.97l1.65,6.64l1.67,5.82c0.83,1.65,0,4.97-2.5,9.12
	l-2.48,0.83c-1.65,0.83-1.65,0.83-2.48,2.48c0,1.67,0,4.15,1.65,7.47l9.14,9.99l10.79,34.05l2.48,3.32l4.99,4.12l6.64,4.15l5.82,2.5
	l2.48,9.12l4.15,2.5l4.97,1.65l0.83,1.67v2.48h4.98v2.48l1.65,2.5c4.15,3.32,9.14,4.97,15.78,5.8l27.41-1.67l13.27,3.35l3.32-4.99
	l9.96-2.48l3.32-3.32l1.67-3.35l22.42-8.31l2.48-9.12c8.31-8.31,12.46-15.78,14.94-22.42l2.48-7.47l-0.8-11.62
	C2160.81,1313.27,2158.31,1311.59,2154.15,1313.27z M2032.13,1270.92l3.32-2.48l4.15-11.62v-12.44l2.48-4.98h0l-1.67-7.47l3.32-5.81
	c3.35-2.49,6.67-3.32,9.14-2.49v1.66c0,0.83,0,1.66,0.83,1.66l4.15-0.83l2.48,2.48l0.83,0.83l1.65-1.66l1.67-1.66
	c4.97-3.32,9.12-4.98,9.96-4.98l4.15,3.32l10.79-4.98l0.83,2.49l0.83,2.49l13.27,11.62l7.47,16.59c4.15,9.99,2.48,14.94-3.32,15.78
	l-14.94,3.32c-0.83,0.83-1.65,0-1.65-0.83h-3.35l-3.32,4.99l-4.15,0.83l-0.8,1.65l-2.5,2.5l-4.15-2.5l-4.97-1.65
	c-3.3,1.04-6.2,3.06-8.31,5.8l-4.99,3.32h-9.12c-0.83,0-1.67,0-2.5,1.67l-3.32,0.83l-1.65-1.67v-1.65h-2.48
	c-1.65,0-1.65-0.83-2.48-1.67l-4.15-9.12C2029.63,1273.44,2030.46,1271.76,2032.13,1270.92z"/></svg>