<svg version="1.1" id="Layer_1" xmlns="http://www.w3.org/2000/svg" xmlns:xlink="http://www.w3.org/1999/xlink" x="0px" y="0px" viewBox="0 0 2500 2500" style="enable-background:new 0 0 2500 2500;" xml:space="preserve"><style type="text/css">
	.st0{fill-rule:evenodd;clip-rule:evenodd;}
	.st1{fill-rule:evenodd;clip-rule:evenodd;fill:#F2CA30;}
	.st2{fill:#F2CA30;}
</style><path class="st1" d="M2168.29,1152.22l-0.83,0.83h-0.83l-4.15,0.83v1.66l1.67,0.83h3.31l0.83,1.65v0.83l0.8,0.83v3.32l0.83,0.83
	l-0.83,0.83l0.83,1.66h-0.83l0.83,2.49l0.83,3.32v4.15l0.83,0.82l0.8,1.66v3.32l-0.8,0.83h-1.66v0.83v-0.83l-0.83,1.66l0.83,1.66
	v0.83l3.32-0.83l1.67,1.66l6.64-2.49l0.83-0.83l0.83-0.83l1.65,0.83h1.67l0.8-1.66v0.83l0.83-1.66v0.83l2.5,0.83
	c0.8,0,1.65-0.83,3.32-1.66v0.83h2.48l0.83-0.83v-0.79h3.32l1.65-1.66h-0.8l-0.83-1.66l-0.83-0.83l-2.48,0.83l-0.83-1.66v-0.83
	l-0.83-2.49l-1.65-4.98l-1.67-6.64h0.83l-0.83-0.83l-1.65-4.15h-0.83l0.83-0.83v-4.98l3.32-2.49l-0.83-0.82l-0.83,0.82l-1.65-0.82
	h-0.83v0.82l-4.99,0.83l-0.83,0.82v0.83h-0.8l0.8,1.66v0.83l-0.8,0.83v2.49l0.8-0.83l1.67,0.83v-1.66l0.83,0.83v-4.15l3.32,6.64
	l-0.83,0.83l0.83,3.32l0.83,4.15v3.33h0.8v2.48l0.83,2.49v4.15h-1.65l-0.83,0.83h-2.5v-0.83l-0.8-4.15v-0.83h-0.83l0.83-1.66v-0.83
	l-0.83-1.65v-0.83l0.83-0.83l-1.67-0.83v0.83l-0.83,2.49h-0.8v-0.82l-0.83,2.48l-0.83-0.83l-0.83-1.65h-0.8v-1.67l-2.5-5.81
	l-0.83-0.82v-0.83l-1.65-5.81l-1.67-1.66h-0.83v-0.83h-4.19L2168.29,1152.22L2168.29,1152.22z M2174.08,1158.86h0.83v3.31l0.83,0.83
	h-0.83l0.83,0.83V1163v2.49l1.65,2.48v1.67l-0.83,0.82l2.5,1.66l0.83,4.98l0.8,0.83v1.66l0.83,0.83l0.83,1.66l-1.67-1.66l-1.65,0.83
	l-0.83-0.83l-0.83-0.83v-0.83l-0.83-0.83l-1.65-4.15v-1.66h-0.83v-1.66l-1.67-0.82l-0.8-5.82l-0.83-3.32l0.83-1.66l-0.83-1.66h0.83
	L2174.08,1158.86v-0.83V1158.86L2174.08,1158.86z"/></svg>