<svg version="1.1" id="Layer_1" xmlns="http://www.w3.org/2000/svg" xmlns:xlink="http://www.w3.org/1999/xlink" x="0px" y="0px" viewBox="0 0 2500 2500" style="enable-background:new 0 0 2500 2500;" xml:space="preserve"><style type="text/css">
	.st0{fill-rule:evenodd;clip-rule:evenodd;}
	.st1{fill-rule:evenodd;clip-rule:evenodd;fill:#F2CA30;}
	.st2{fill:#F2CA30;}
</style><path class="st0" d="M1621.14,576.05c-3.32-7.47-7.44-9.13-14.11-4.98l-7.47,7.47c-1.94,2-4.18,3.68-6.64,4.98
	c-1.67,3.32,0,5.81,3.32,8.3l6.64,5.81l-1.65,2.49l-2.48,0.83v12.45h13.27c2.48-2.49,2.48-5.81,0.83-10.79
	c-1.67-4.15,0-6.64,4.97-9.13c5.82,7.47,12.46,10.79,17.46,9.96c4.12,0,4.97-2.48,4.12-5.81l-2.48-2.49h-4.15
	c-3.32-0.83-6.64-4.15-9.12-7.47C1621.99,583.52,1620.34,580.2,1621.14,576.05L1621.14,576.05z M1665.98,628.36l-5.8-1.66
	c-4.99,0.82-7.47,3.32-4.99,8.3l3.32,2.49l4.15,0.83l4.15-1.66c1.67-0.82,1.67-2.48,0.83-4.15L1665.98,628.36L1665.98,628.36z
	 M1898.45,730.47h-9.96v10.79l7.48,0.83L1898.45,730.47L1898.45,730.47z M1841.17,708.89l2.48-7.47l-3.32-9.96
	c-2.48-4.15-5.82-4.98-9.96-4.15c-1.67,12.45-0.83,19.92,4.12,22.41C1837.02,712.21,1839.5,711.38,1841.17,708.89L1841.17,708.89z
	 M1810.45,712.21c7.47,0.83,10.79-1.66,9.12-6.64c-1.65-4.15-5.8-3.31-11.61,0.83C1807.13,708.89,1807.96,711.38,1810.45,712.21z
	 M1458.44,575.22c1.65,1.66,3.32,2.49,6.64,2.49c3.32,0.83,4.15-0.83,3.32-4.98c-0.83-2.49-2.48-3.32-5.8-3.32
	C1458.44,570.23,1457.61,571.9,1458.44,575.22L1458.44,575.22z M1493.3,577.71l-3.32-1.66c-1.55,0.8-2.51,2.41-2.48,4.15l2.48,1.66
	l3.32-0.83V577.71z M1497.45,574.39c-1.65,2.49-1.65,5.81,0.83,9.14h2.48l2.5-1.66l4.12-4.15l-0.8-6.64
	C1502.44,570.23,1499.93,571.07,1497.45,574.39L1497.45,574.39z M1565.54,597.63h-5.82c-2.48,0.83-3.32,2.49-4.15,4.98v7.47
	l10.79,0.83c2.5-1.65,4.15-4.98,3.35-9.96C1569.69,598.46,1568.02,597.63,1565.54,597.63L1565.54,597.63z M1282.44,592.65
	l-0.83-6.64c-2.48-3.32-6.64-4.15-11.62-4.98c-6.64,0-8.31,3.32-6.64,8.3c-0.83,4.15,0.83,6.64,4.15,6.64l10.79,1.66
	C1280.76,597.63,1282.44,595.97,1282.44,592.65L1282.44,592.65z M1336.39,572.73l-3.32,3.32c-1.67,1.66-1.67,3.32-0.83,4.98
	c4.15,3.32,8.31,4.15,11.62,2.49v-3.32c0.83-3.32,0.83-4.98-0.83-6.64L1336.39,572.73z M1931.66,731.3l5.8-3.32
	c0.83-1.66,1.67-3.32,0.83-5.81c-0.83-1.65-3.32-2.49-7.47-2.49c-3.32,0.83-4.97,4.15-4.97,10.79L1931.66,731.3L1931.66,731.3z
	 M2082.76,847.54c-3.32-5.81-8.31-9.13-13.29-7.47c-2.48,1.66-4.12,4.98-4.12,8.3v10.79c0,3.33,1.65,4.15,4.12,4.98h7.47
	c3.35-0.82,4.99-3.31,5.82-6.63V847.54L2082.76,847.54z M2339.29,1133.96c4.99-1.65,6.64-3.32,4.99-6.64l-2.48-3.32l-4.99-0.82
	l-4.99,3.32c-0.83,0.83-0.83,2.49-0.83,4.15c0,2.49,1.67,3.32,3.32,3.32h4.98L2339.29,1133.96L2339.29,1133.96z M2260.44,1322.41
	l4.12-4.12l0.83-4.99c0-1.67-0.83-3.32-2.48-4.99l-6.64-0.83c-2.5,0-4.15,0.83-4.99,4.15v6.67
	C2252.13,1320.76,2256.29,1322.41,2260.44,1322.41L2260.44,1322.41z M2214.77,1361.45l4.99-0.83l0.8-4.99
	c-0.8-3.32-2.48-4.12-5.8-3.32c-4.15,0.83-4.99,2.5-4.15,5.82c0,1.65,0,2.48,1.67,3.32L2214.77,1361.45L2214.77,1361.45z
	 M2191.51,1374.72c1.67-4.99,0.83-7.47-4.15-8.31c-4.97-0.8-7.44,0-7.44,4.15c0.8,6.67,3.32,9.99,8.29,9.99
	C2191.51,1379.71,2192.34,1378.04,2191.51,1374.72z M1984.8,1622.13l-3.35,4.99c-0.8,1.65,0,3.32,2.5,4.12c2.48,0,5.8,2.5,8.31,6.67
	c2.48,4.15,5.8,5.8,9.12,4.15c3.32,0,5.82-1.67,6.64-6.67C2001.53,1629.08,1993.54,1624.52,1984.8,1622.13z M2173.24,1471.03
	c0.83-2.48,0.83-5.82-0.83-8.31l-9.12,0.83c-2.48,3.17-2.48,7.62,0,10.79h3.32C2169.93,1475.18,2172.41,1474.35,2173.24,1471.03
	L2173.24,1471.03z M2011.35,1676.93c0.83-3.32,0.83-5.8,0-8.31c-9.96-1.65-14.94-0.83-15.76,3.35c0.8,5.8-1.67,8.29-6.67,7.44
	c-7.47-1.65-11.61-0.8-13.27,1.67l-0.83,5.8c0,3.32,0.83,4.99,3.32,5.82l14.94-0.83l13.29-8.31L2011.35,1676.93L2011.35,1676.93z
	 M1299.87,1923.51c4.97-0.83,7.47-5.8,6.64-15.78c-1.67-4.97-5.8-6.64-11.62-5.8l-4.15,4.99l-2.48,6.64c0,3.32,1.67,4.97,4.15,7.47
	L1299.87,1923.51L1299.87,1923.51z M1915.88,1659.49h-6.64l-9.96,16.59c-3.32,6.64-4.99,12.46-3.32,17.43l-9.99,3.35
	c-4.15,1.65-4.97,4.12-4.15,9.12c3.35,6.64,9.14,9.14,18.29,8.31c4.12-0.83,5.8-3.32,4.12-5.8c-0.8-4.99-0.8-8.31,0-12.46
	c1.67-4.15,4.15-6.64,9.14-6.64c-1.67-4.15-0.83-9.14,2.48-13.29c3.32-5.8,4.15-9.96,3.32-13.27
	C1918.38,1660.31,1917.55,1659.49,1915.88,1659.49L1915.88,1659.49z M1851.97,1720.93c-2.5-4.15-6.67-4.99-11.62-0.83
	c-4.99,4.99-9.96,7.47-13.27,4.99c-6.67,6.64-6.67,12.46,1.65,18.26l9.96,5.8c3.32,3.32,4.99,6.64,4.99,9.14
	c3.32,0.83,5.8,0,8.31-3.32c3.32-4.15,2.48-8.31-1.67-10.79l-9.12-9.99c0.8-1.65,2.48-4.12,6.64-5.8
	C1851.97,1727.56,1852.78,1725.08,1851.97,1720.93z M1897.62,1725.91c0,6.64,0.83,9.96,3.32,10.79l9.99-0.83
	c3.32-4.99,2.48-8.31-1.67-11.62C1905.09,1721.76,1900.93,1722.59,1897.62,1725.91L1897.62,1725.91z M1829.54,1759.13
	c0-4.99-3.32-7.47-9.14-9.14l-14.11,0.83c-1.67,6.64,0,11.62,7.47,15.78l8.31,4.15c2.48,2.48,3.32,5.8,4.15,9.12l7.47,0.83
	l6.64-4.15c1.72-3.48,0.67-7.69-2.48-9.96L1829.54,1759.13L1829.54,1759.13z M1770.61,1828.02c-0.83-3.32-2.48-3.32-4.15-1.67
	c-2.48,1.67-3.32,3.35-1.65,4.99l3.32,1.67h2.48L1770.61,1828.02L1770.61,1828.02z M1751.5,1831.34h5.8
	c3.35-0.83,4.15-3.32,4.15-7.47l-9.12-2.48c-4.15,0-5.82,1.65-4.15,6.64C1748.18,1829.7,1749.83,1830.51,1751.5,1831.34z
	 M1895.97,1776.56l1.65-10.79c0.83-4.99-4.15-8.31-13.27-7.47c-0.83,7.47-4.99,11.62-12.46,14.94l-18.26,5.8v4.15l0.83,3.32
	l21.58-2.48L1895.97,1776.56z M1609.55,1823.04c-1.67,2.5-2.5,5.82-2.5,9.99l-4.15,4.15l-6.64-0.83c-2.48,0-4.15,0.83-4.99,3.32
	v6.64c3.35,4.15,5.82,6.64,8.31,5.8l4.99-4.97l4.99-6.64l9.96-0.83c-1.67-4.15-0.83-7.47,4.15-9.96c4.15-2.5,5.8-5.82,4.97-10.82
	c-0.8-2.48-3.32-4.12-6.64-4.97l-9.12-0.83L1609.55,1823.04L1609.55,1823.04z M1702.52,1812.25c-1.65,0-3.32,0.83-4.97,2.5
	c-0.83,1.65-1.67,4.12-0.83,5.8c0,3.32,1.67,4.99,4.99,5.8h9.12l9.12-0.8c3.35-2.5,3.35-4.99,1.67-9.14
	C1719.13,1813.08,1712.49,1811.41,1702.52,1812.25z M478.78,908.14c-0.83-4.15-3.32-5.82-7.47-4.15c-3.32,0-5.81,2.49-7.47,4.98
	c-1.66,3.32-1.66,6.64,0,9.13c6.64,2.49,10.79,2.49,13.28-1.66L478.78,908.14L478.78,908.14z M483.75,896.52
	c3.32-0.82,4.15-3.32,3.32-6.64c0-2.49-1.66-3.32-4.98-3.32c-4.15,0-5.81,0.83-5.81,3.32C476.28,893.2,478.78,895.69,483.75,896.52z
	 M1138.8,556.95v-5.81c-0.83-4.15-4.15-5.81-9.13-4.98l-4.98,2.49c-0.83,1.66-1.66,4.15-0.83,5.81l4.15,5.81l8.3,1.66
	C1137.97,561.1,1138.8,559.45,1138.8,556.95L1138.8,556.95z M1084.83,621.72c-1.66-2.49-3.32-3.33-4.98-3.33l-5.81,1.66l-2.49,7.47
	l2.49,7.47c3.32,1.66,6.64,0.83,8.3-2.49C1084.01,629.19,1084.83,625.87,1084.83,621.72L1084.83,621.72z M1203.56,566.08
	c-4.98-1.66-9.13-0.83-12.45,3.32c-2.49,4.15-2.49,8.3,0.83,11.62c4.15,1.66,7.47,0.83,12.45-2.49v-6.64L1203.56,566.08
	L1203.56,566.08z M1233.44,593.48v4.98c0.83,1.66,1.66,2.49,4.15,1.66l4.98-0.83c2.49,0,3.32-1.66,2.49-4.15
	c1.66-3.32,0-5.81-5.81-7.47C1234.27,586.84,1231.78,588.5,1233.44,593.48L1233.44,593.48z M997.66,643.3
	c2.49-0.83,4.15-3.32,3.32-7.47l-6.65-2.49c-1.66,0-2.49,2.49-2.49,6.64C991.85,642.47,993.51,644.13,997.66,643.3L997.66,643.3z
	 M936.22,637.49v4.98c0,1.66,0,3.32,1.66,4.15c2.49,2.49,6.64,1.66,9.96-2.49c3.32-4.15,3.32-7.47-1.65-9.96
	C942.03,632.51,938.71,633.34,936.22,637.49L936.22,637.49z M731.99,661.56c-4.98,0-6.64,2.49-5.81,6.64
	c-1.66,3.32,0,5.81,2.49,6.64l8.3,0.83c2.87,0.14,5.52-1.51,6.65-4.15c0.82-2.49,0.82-5.81-0.83-8.3L731.99,661.56L731.99,661.56z
	 M692.13,722.17h-6.64C683,723,683,724.66,683,727.98c0.83,1.66,3.32,2.49,5.81,2.49c2.49,0,3.32-0.82,4.98-2.49
	C693.8,725.49,693.8,723.83,692.13,722.17z M767.68,668.2v5.81c2.49,4.15,6.64,6.64,13.28,7.47l1.65-4.15
	C778.47,670.69,773.49,667.39,767.68,668.2L767.68,668.2z M862.33,1844.62c-8.3-5.8-13.28-4.97-14.94,4.15
	c-1.66,6.64-0.83,14.11,1.65,20.78l19.1,0.83c2.49-3.35,2.49-8.31,0-13.29L862.33,1844.62L862.33,1844.62z M882.26,1845.45
	c0.83-2.14,0.83-4.5,0-6.64c-0.82-4.99-4.15-8.31-9.96-10.79c-5.81-1.67-9.14,0.83-9.97,6.64c4.98,9.14,9.13,13.27,14.11,13.27
	C878.64,1848.01,880.78,1847.1,882.26,1845.45z M1059.1,1908.55h8.3c4.98-0.83,8.3-2.48,10.8-6.64c3.32-3.32,4.15-7.47,4.15-11.62
	c0.83-8.31-4.15-10.79-16.6-7.47c-9.13,5.8-13.28,12.46-11.62,19.1L1059.1,1908.55L1059.1,1908.55z M1003.47,1925.98
	c4.98-6.64,6.64-14.11,3.32-22.4c-8.3,0-14.11,0.8-16.6,4.12l-1.65,10.79c-0.83,4.99-0.83,8.31,1.65,10.79
	C995.99,1930.13,1000.15,1928.49,1003.47,1925.98L1003.47,1925.98z M1242.57,1892.78c-2.48-5.8-6.64-8.29-12.45-5.8
	c-0.83,1.65-4.15,4.15-10.79,6.64c-4.98,2.48-6.64,6.64-5.81,10.79l3.32,4.99l6.64,0.8c0.83-1.65,4.98-4.12,12.45-6.61
	C1240.92,1901.08,1243.4,1897.76,1242.57,1892.78L1242.57,1892.78z M330.16,1508.4c-3.32,1.65-4.15,4.15-3.32,8.31l1.66,7.47
	l6.64,0.8c4.98-3.32,6.64-5.8,4.98-9.12C339.3,1510.04,335.97,1507.55,330.16,1508.4L330.16,1508.4z M238.01,1534.13h9.96
	c3.32-0.83,4.15-4.15,3.32-7.47c0-2.48-0.83-3.32-3.32-3.32l-4.98-1.67c-3.32,0-4.98,1.67-5.81,4.15
	C236.35,1529.14,237.18,1531.63,238.01,1534.13L238.01,1534.13z M443.9,1652.02l-8.3-0.83l-2.49,8.31c0.83,4.15,4.15,4.97,10.8,3.32
	v-10.8L443.9,1652.02L443.9,1652.02z M213.09,1288.39c0.83-4.15-0.82-6.64-4.98-7.47l-10.79-0.83c-2.49,1.67-4.15,4.99-3.32,10.79
	c0,3.32,2.48,5.8,5.81,6.64l9.96,0.83C212.28,1296.68,213.09,1293.36,213.09,1288.39L213.09,1288.39z M209.77,1255.99l5.81,1.67
	c2.49-2.48,4.15-4.99,2.49-9.13c-0.83-2.49-2.49-3.33-5.81-2.49c-3.32,0-4.98,1.67-4.15,4.99
	C207.28,1253.5,208.11,1255.17,209.77,1255.99z M227.22,1325.76c-5.81-7.47-11.62-9.99-17.44-8.31l-1.66,10.79
	c3.32,6.64,8.3,9.12,15.77,6.64l3.32-3.32v-5.8L227.22,1325.76L227.22,1325.76z M166.61,1367.25c0.83-2.48,0-4.15-1.66-4.15
	l-5.81-1.65c-3.32,0.83-4.15,2.48-3.32,6.64c0,3.32,2.49,4.99,5.81,4.15l4.15-0.83C166.61,1370.57,166.61,1369.72,166.61,1367.25z
	 M484.58,1693.51c3.32-0.8,4.98-4.12,4.98-9.12c-3.32-6.64-7.47-8.31-14.94-7.47c-4.15,0-6.64,4.15-5.81,12.46
	C471.3,1692.71,476.28,1694.36,484.58,1693.51L484.58,1693.51z"/></svg>