<svg version="1.1" id="Layer_1" xmlns="http://www.w3.org/2000/svg" xmlns:xlink="http://www.w3.org/1999/xlink" x="0px" y="0px" viewBox="0 0 2500 2500" style="enable-background:new 0 0 2500 2500;" xml:space="preserve"><style type="text/css">
	.st0{fill-rule:evenodd;clip-rule:evenodd;}
	.st1{fill-rule:evenodd;clip-rule:evenodd;fill:#F2CA30;}
	.st2{fill:#F2CA30;}
</style><path class="st2" d="M1122.16,1566.49l-1.65,0.83l-2.49,2.48l-6.64,0.83l-5.81-0.83c-1.66-0.83-3.32-4.15-5.81-10.79l-9.13-44.84
	c-0.83-3.32-4.15-8.29-9.13-14.94l1.66-22.4l-1.66-25.76l-1.66-10.79l-4.98-2.48l-3.32-7.47l-1.66-7.47
	c-1.66-1.65-3.32-1.65-5.81-2.48l-1.66-3.32l-24.9-4.15l-17.44,7.47l-7.47,4.97c-0.83,1.56-0.83,3.43,0,4.99l-8.3,7.47h-8.31
	l-6.64,5.82l-11.62-9.99c-7.47-6.64-11.62-9.12-13.28-9.12l-4.98,2.48l-4.15-1.67c-1.66,0-2.49,0.83-2.49,1.67l-6.61,2.5v0
	l-7.48,8.31l-2.49-0.83h-1.66c-1.66,1.67-2.49,4.99-2.49,7.47l-7.47,7.47l-2.48-0.83c-0.83-0.8-1.66-0.8-2.49-0.8h-1.66l-1.66,0.8
	h-0.83l-3.32-3.32l-17.43-4.97l-4.15,1.65c-2.49-2.48-4.15-2.48-4.98-2.48l-1.66,0.83h-1.66l-4.15-0.83c-3.32,0-6.64,0-9.14,2.48
	l-7.46,8.31l-4.99,8.31l1.66,1.65l4.15,5.82l2.49-0.83l3.32,1.65l0.82,1.65l7.48,3.32l7.47,1.67c3.32-4.15,4.98-5.82,6.64-5.82
	l4.98,2.5l4.15,4.15l4.15,7.44c0.82,0,1.65,1.67,1.65,3.32l-1.65,9.14c-1.67,4.99-1.67,9.96,0,13.27l3.31,4.15
	c1.66,0.83,2.49,1.67,2.49,3.32l3.32,13.29l1.66,16.59l-0.82,9.99l6.64,30.7l-0.83,2.5v1.65l0.83,2.48c0,0.83,0.83,1.67,0,2.5
	l-3.32,5.8l-13.27,2.5l-9.14,9.12l-1.66,2.48c-2.49-2.48-4.15-3.32-6.64-1.65l-4.15,6.64v4.99c4.15,8.29,7.47,12.44,9.97,13.27
	l24.9-5.8c0.83,0,0.83,0,1.66,0.8l1.66,1.67l6.64-0.83l42.35-14.11c0.83-0.83,0-3.32-0.83-6.64l0.83-5.82v-5.8
	c-1.66-3.32-4.15-5.82-8.3-6.64l-10.8-0.83l1.66-1.67l-0.82-4.97l-4.15-4.15l-9.96-48.99l-9.13-23.23l2.49-14.97h2.49l1.66-0.8
	v-13.29l4.98-10.79l11.62-10.79c1.66,0,1.66,0.83,2.48,0.83l1.66,1.65l21.58,0.83l3.32,4.99l3.32,1.67l4.98,0.8l0.82,3.35
	l-7.47,13.27l2.49,14.94l5.81,4.97l1.66,0.83v1.67l-1.66,3.32l-4.15,16.59l10.8,12.46l-1.66,6.64l0.82,3.32
	c-1.66,2.5-1.66,5.82,0.83,9.96c3.32,2.5,5.81,4.99,6.64,8.31l-0.83,5.82l-1.66,4.12l-9.97,13.29h-2.48l-9.97,6.64v8.31l5.81,7.47
	l6.64,0.83l4.15-3.35l28.22-1.65l1.66-2.48l1.66-2.5l16.6-2.48l3.32,0.83c1.66-0.83,2.49-2.48,4.15-2.48l57.29-10.82h13.28l9.13-5.8
	l2.49-4.99l0.83-7.44c0-1.67-1.66-4.99-4.98-9.14L1122.16,1566.49z M1071.54,1572.31l-7.47,5.8l-7.47,1.65l-4.98,4.99h-1.66
	l-5.81-5.8c-4.98-0.83-7.47,0-9.13,3.32l-5.81,2.48v-1.67l-1.66-1.65l-1.65-8.31l-4.98-5.8l-6.65-4.15
	c-2.48-2.48-1.65-7.47,2.49-14.11l-1.66-6.64l0.83-17.46l-0.83-2.48V1520c-0.83-2.5-2.49-4.15-5.81-6.64l-4.15-4.15l1.66-13.29
	l-0.83-8.31l4.98-16.59l4.98-5.82l0.83-4.12l2.49-2.5v-5.8l-1.66-5.81l0,0l4.98-2.5l9.13-0.8c3.32,0.8,5.81,2.48,6.64,3.32l3.33,5.8
	l3.32,2.48h5.81l4.15,6.64c2.49,0.83,4.15,2.5,4.98,5.82c1.66,3.32,0.83,8.31,0,15.78l-0.83,2.48l2.49,1.65l0.82,1.67l-4.15,15.78
	l3.32,13.27l5.81,11.62l1.66,6.64c-4.15,3.32-5.81,7.47-4.98,11.62c0,9.14,1.66,14.94,4.15,16.59l3.32,4.99V1572.31z"/></svg>