<svg version="1.1" id="Layer_1" xmlns="http://www.w3.org/2000/svg" xmlns:xlink="http://www.w3.org/1999/xlink" x="0px" y="0px" viewBox="0 0 2500 2500" style="enable-background:new 0 0 2500 2500;" xml:space="preserve"><style type="text/css">
	.st0{fill-rule:evenodd;clip-rule:evenodd;}
	.st1{fill-rule:evenodd;clip-rule:evenodd;fill:#F2CA30;}
	.st2{fill:#F2CA30;}
</style><path class="st2" d="M1309.01,1451.07l-2.48-4.12l-2.48-4.15l-1.67-10.79l-2.48-2.5l-2.5-1.65l1.67-2.5l0.83-4.12l-13.29-12.46
	l-2.48-5.82l-9.96-8.29l-0.83-2.48l-1.67-2.5l-9.96-9.96l-4.97-0.83c-5.86-1.65-7.52-3.32-7.52-5.81l0,0c0.83-1.67,0-2.5-2.49-2.5
	h-1.66l-2.49,0.83l-5.81-4.15l-2.49,0.83l-2.49,1.65l-9.96-6.64c-4.15-1.65-8.3-1.65-11.62,0l-9.14,7.47l-24.07,2.5l-4.98,4.15
	l-4.15,4.97l-11.62,4.15l-14.11,19.1l-5.81,9.96l-3.32,2.5v3.32c0.83,0.8,0.83,1.65,0,2.48l-2.49,1.65h-1.66l-0.83,8.31l-0.83,1.67
	l-1.66,2.48l1.66,4.15l-5.81,16.59l4.98,21.61l-0.83,5.8v4.15l2.49,3.32l1.66,2.48l-3.32,4.15c-0.83,8.31,0,14.94,1.66,20.75
	l9.96,14.14l-0.83,1.65l-0.83,1.67l6.64,4.99l4.15,0.8h2.49l7.47,8.31l29.05,18.26l7.47,1.67l7.47-0.83l3.32,3.32l3.32,2.48
	l39.01-9.12l8.3,1.65c4.15-0.83,14.11-4.99,26.58-14.11l1.65-3.32v-3.32l9.14-8.31l8.31-10.79l-0.83-2.48l-0.83-3.32l5.8-6.67
	l-0.8-3.32c0-0.8-0.83-2.48,0-4.15l3.32-2.48l3.32-5.8L1309,1476l1.67-2.5l1.65-4.97l-0.8-9.14L1309.01,1451.07z M1267.47,1468.54
	l3.32,12.44l-7.47,10.79l1.65,7.47l-4.15,6.67c-3.31,4.12-4.97,6.64-4.97,8.29l0.83,2.5v1.65l-1.66,3.32l-2.49,3.32
	c-1.66,0-2.49-0.8-3.32-1.65l-2.49-0.83l-5.81,1.67l-9.96,9.12l-9.97,2.48l-9.96,1.67l-1.66-1.67c0,0,0-0.8-1.65-0.8h-9.96
	l-21.59-20.78c-0.82-0.8-0.82-1.65,0-1.65c1.66-0.83,1.66-1.67,0.83-2.5l-9.13-4.97l-6.64-25.73l-9.96-20.78l2.49-4.15l2.49-5.8
	l-0.82-13.27l5.81-9.99l6.64-7.44l19.92-4.99l3.32-5.82l4.15,0.83l4.15-3.32c2.48-2.48,4.98-3.32,5.81-4.15l4.98,1.67l4.15,2.48
	h7.47l1.66,2.48h2.49l4.15,0.83l1.66,0.83l0.83,1.67l6.64,2.48c4.15,0.01,7.47,0.86,8.3,2.5l2.49,7.47
	c0.83,4.15,0.83,6.64,1.65,7.47l3.32,1.67l2.49,1.65v6.64l1.66,1.67l3.32,0.83c4.99,5.8,8.31,10.79,8.31,14.11l-1.67,5.8
	C1267.47,1465.19,1266.64,1466.87,1267.47,1468.54z"/></svg>