<svg version="1.1" id="Layer_1" xmlns="http://www.w3.org/2000/svg" xmlns:xlink="http://www.w3.org/1999/xlink" x="0px" y="0px" viewBox="0 0 2500 2500" style="enable-background:new 0 0 2500 2500;" xml:space="preserve"><style type="text/css">
	.st0{fill-rule:evenodd;clip-rule:evenodd;fill:#EFC141;}
	.st1{fill-rule:evenodd;clip-rule:evenodd;fill:#FFFFFF;}
	.st2{fill:#BB6F5E;}
	.st3{fill-rule:evenodd;clip-rule:evenodd;fill:#536780;}
	.st4{fill-rule:evenodd;clip-rule:evenodd;fill:#BB6F5E;}
	.st5{fill:#536780;}
</style><path class="st5" d="M1883.94,1140.47c41.92-24.56,64.82-49.49,82.98-75.3c18.09-25.84,34.98-57.61,45.5-110.37
	c10.31-51.87-12.14-121.64-32.72-152.29c-2.61-3.8-5.45-7.85-8.56-12.1l-421.31,81.09l-1.12,377.86c0,0-0.93,19.83,1.88,50.15
	c2.2,24.08,11.27,83.41,43.47,122.77c31.36,38.22,81.24,68.36,118.4,78.17c26.77,7.08,57.86,10.65,90.39,5.28
	c92.49-15.37,164.17-119.32,194.2-184.55c0,0-29.36,26.21-79.12,43.85c-75.16,26.69-132.06-11.04-154.17-56.63
	c-12.36-25.36-25.51-71.14-24.14-123.34C1739.62,1185.06,1803.08,1187.84,1883.94,1140.47z"/></svg>