<svg version="1.1" id="Layer_1" xmlns="http://www.w3.org/2000/svg" xmlns:xlink="http://www.w3.org/1999/xlink" x="0px" y="0px" viewBox="0 0 2500 2500" style="enable-background:new 0 0 2500 2500;" xml:space="preserve"><style type="text/css">
	.st0{fill-rule:evenodd;clip-rule:evenodd;fill:#EFC141;}
	.st1{fill-rule:evenodd;clip-rule:evenodd;fill:#FFFFFF;}
	.st2{fill:#BB6F5E;}
	.st3{fill-rule:evenodd;clip-rule:evenodd;fill:#536780;}
	.st4{fill-rule:evenodd;clip-rule:evenodd;fill:#BB6F5E;}
	.st5{fill:#536780;}
</style><path class="st2" d="M1250,2104.59h0.09c254.97-0.01,485.85-102.73,652.88-268.76c167.01-165.95,270.37-395.25,270.39-648.49v-0.3
	c0-253.29-103.38-482.63-270.45-648.62c-167.04-165.94-397.83-268.62-652.73-268.66h-0.3c-254.96,0.01-485.81,102.72-652.88,268.72
	c-166.99,165.96-270.33,395.24-270.37,648.46v0.3c0.01,253.3,103.38,482.67,270.46,648.66
	c167.05,165.97,397.83,268.66,652.72,268.69h0.18V2104.59z M1250.1,2125.94h-0.29c-260.69-0.05-496.79-105.11-667.74-274.93
	c-170.99-169.89-276.76-404.58-276.8-663.77v-0.3c0.05-259.11,105.82-493.72,276.74-663.55
	c170.95-169.85,407.12-274.96,667.9-274.98h0.3c260.72,0.05,496.83,105.13,667.75,274.91c170.99,169.87,276.75,404.57,276.77,663.71
	v0.3c-0.05,259.12-105.81,493.75-276.7,663.6C1747.07,2020.82,1510.9,2125.91,1250.1,2125.94z"/></svg>