<svg version="1.1" id="Layer_1" xmlns="http://www.w3.org/2000/svg" xmlns:xlink="http://www.w3.org/1999/xlink" x="0px" y="0px" viewBox="0 0 2500 2500" style="enable-background:new 0 0 2500 2500;" xml:space="preserve"><style type="text/css">
	.st0{fill-rule:evenodd;clip-rule:evenodd;fill:#EFC141;}
	.st1{fill-rule:evenodd;clip-rule:evenodd;fill:#FFFFFF;}
	.st2{fill:#BB6F5E;}
	.st3{fill-rule:evenodd;clip-rule:evenodd;fill:#536780;}
	.st4{fill-rule:evenodd;clip-rule:evenodd;fill:#BB6F5E;}
	.st5{fill:#536780;}
</style><path class="st4" d="M1495.88,541.36c9.38-9.66,16.69-22.76,15.05-35.21c-0.58-1.36-1.89-2.35-3.5-2.08
	c-8,3.63-10.74,13.29-14.89,20.18c-2.63,7.21-6.59,14.24-5.95,22.26c0.71,1.32,2.79,0.61,3.83-0.09c1.89-1.52,3.88-3.45,5.63-5.28
	l6.64,16.03c-5.42,4.67-11.45,9.34-17.12,12.93c-1.83,1.79-1.83,3.92-1.12,6.17c1.1,5.25,5.34,9.26,10.64,10.09
	c14.94,0,23.33-12.35,32.02-23.15c8.96-14.85,20.52-29.29,24.53-45.26c6.03-21.31,10.95-42.9,15.6-64.63l2.45-3.22l36.46-18.53
	c1.75-0.53,3.72-2.36,5.32-0.75c0.13,6.69-2.98,13.05-2.5,19.7c0.64,0.71,1.32-0.09,1.89-0.51c7.34-10.7,15.5-22.54,24.19-32.2
	c1.65-1.14,3.06,0.38,3.9,1.47c4.25,8.62,14.01,17.29,24.69,16.68c5.05,0.29,10.39-1.52,15.52-1.56c1.49,1.13,0.18,3.15-0.05,4.67
	c-6.56,17.59-20.04,36.35-40.74,38.57c-7.78,1.04-14.64-3.06-21.18-7.41c-6.89-0.61-10.08,8.02-13.13,12.93
	c-12.11,25.87-15.55,53.27-22.01,80.27c-0.35,2.5-3.01,3.79-4.73,5.24l-35.19,18.02c-0.93,0.51-2.84,1.04-3.35-0.14
	c-0.16-6.89,2.76-13.2,2.1-20.27c-0.56-1.32-1.62,0.18-2.41,0.66c-16.11,20.84-30.91,44.55-56.29,51.67
	c-13.15,3.02-25.17-2.5-34.45-11.27c-4.44,0.23-5.75,6.26-8.08,9.43c-6.16,9.86-12.87,20.14-20.6,29.18
	c-7.83,9.2-16.74,17.07-27.35,21.83c-9.37,3.95-20.12,2.85-28.49-2.92c-2.05-0.14-3.45,1.41-4.73,2.78
	c-12.06,16.12-24.42,32.62-42.86,39.7c-9.93,3.02-19.08,0-26.95-5.51l-2.26,0.57c-13.23,17.3-26.21,35.98-47.39,41.35
	c-9.53,2.63-18.3-3.16-24.1-9.91c-1.65-1.14-2.65,0.99-3.86,1.7c-14.37,22.15-31.62,44.23-55.16,54.54
	c-10.36,3.45-20.74,3.2-29.18-2.81c-16.59-13.76-12.74-40.45-10.89-59.38c1.22-8.18,3.35-16.26,5.28-24.32
	c0.52-2.17,1.02-4.29,1.5-6.46l16.59-59.88c3.86-16.59,9.25-34.14,2.4-51.33c-1.83-3.16-3.77-6.78-7.96-7.92l-2.54,0.66
	c-9.62,9.05-18.57,18.96-27.55,29.16l-1.4,3.33c-0.16,33.57-5.19,66.25-12.31,98.51c-5.9,26.54-13.11,52.75-20.18,79.06
	c-4.58,17.35-10.7,34.56-15.8,51.87c-4.85,5.76-12.81,7.78-19.09,11.84l-48.01,24.63c-1.47,0.27-3.63,2.17-4.59,0.42
	c2.13-10.18,5.58-20.26,9.1-30.08c11.93-41.62,24.24-83.07,33.53-125.18c4.29-19.43,7.87-38.99,10.51-58.79
	c1.48-14.19,2.04-32.71-7.5-44.12c-1.32-0.89-3.11-1.52-4.38-0.47c-10.83,10.89-21.74,22.15-31.3,34.56
	c1.21,18.34,2.44,36.64-0.43,54.16c-1.22,7.33-2.65,14.63-4.29,21.88c-6.98,30.56-17.54,60.45-28.66,90.14
	c-11.45,30.09-22.53,60.22-35.84,90.01l-3.96,3.15c-23.44,11.75-46.21,24.62-69.88,36.07c-1.12,0.23-2.17,0.89-3.35,0.84
	c-1.22-2.49,1.52-5.1,1.89-7.57c18.86-43.34,36.35-86.9,54.88-130.19c8.39-23.57,17.59-47,24.62-70.76
	c5.75-19.42,10.09-39.04,11.45-59.31c0.34-26.12-12.4-48.65-36.63-59.49c-19.57-8.68-41.02-10.93-63.42-5.65
	c-28.77,6.5-52.9,20.18-73.98,38.14c-23.42,22.77-40.54,52.8-31.63,84.25c4.53,14.76,16.73,28.14,31.97,33.44
	c15.62,5.25,32.85,1.93,45.39-8.77c1.85-1.61,3.54-3.36,5.1-5.24c6.46-9.1,7.41-19.38,5.81-29.79c0.43-2.46,3.35-2.88,5.1-4.34
	c23.85-12.44,47.43-25.5,71.66-37.38c1.18-0.05,2.5,0,2.88,1.22c3.27,15.71-0.42,30.47-5.65,44.8c-2.5,5.71-5.47,11.08-8.87,16.03
	c-15.84,23.35-40.88,38.33-68.55,45.69c-29.38,7.11-56.59,3.06-80.81-11.79c-1.75-1.29-3.45-2.64-5.1-4.06
	c-15.84-13.71-25.37-32.28-25.55-54.16c-0.34-20.93,5.56-41.26,19.04-58.93c8.95-13.06,19.44-23.1,30.61-32.62
	c1.97-0.05,1.97-2.32,3.53-2.93c34.08-28.52,78.54-45.78,126.27-48.43c30.26,0.38,62.71,6.6,83.73,31.17
	c5.42,6.51,10.79,12.97,15.32,20.13c1.14,0.89,3.07,0.66,4.1-0.32l22.54-24.05l45.34-48.66c3.29-3.02,6.17-6.94,10.14-9
	c9.47,1.23,13.8,10.14,20.18,15.51c4.81,5.8,8.52,12.26,11.49,19.04c0.95,0.95,2.4,0.65,3.11-0.14l55.03-56.57
	c4.34-3.72,7.59-9.13,12.65-11.69c1.79-0.18,2.02-0.8,3.67,0c9.77,3.74,19.8,15.46,24.1,22.53c5.6,9.34,9.56,17.78,10.22,32.06
	c1.32,29.16-9.05,56.3-15.71,84.16c-3.76,11.93-7.21,23.97-10.31,36.03c-2.93,11.26-5.62,22.57-8.08,33.94
	c-0.41,6.37-3.49,15.75,4.54,18.99c9.16,0.14,14.37-8.18,19.57-14.98c9.52-14.49,16.94-29.38,20.6-45.04
	c0.53-2.26,0.95-4.47,1.32-6.73l11.83-49.51l2.41-2.54l38.33-20.08c1.41-0.43,3.37-1.93,4.59-0.39l0.05,3.22
	c-4.76,22.74-10.44,45.12-15.52,67.7c-0.64,2.93-1.32,5.85-1.92,8.82c-0.51,5.03-2.4,10.51,0.1,15.65c1.49,1.93,4.15,1.93,6.51,0.99
	c11.96-5.55,16.64-19.22,21.08-30.4c0.43-1.09,0.79-2.09,1.22-3.07c1.25-5.51,2.45-11.02,4.05-16.59l20.7-85.82
	c4.92-18.57,8.59-37.2,14.14-55.58l2.18-2.18c13.35-7.54,27.35-14.23,41.11-21.21c0.99-0.05,2.13-0.09,2.36,1.14
	c-3.14,17.9-7.52,35.55-11.56,53.32l-22.52,94.76l-4.92,23.54c0,0.84,0.1,1.74,0.32,2.59c0.38,1.41,1.14,2.63,2.79,3.06
	c3.59-0.53,6.3-2.63,8.69-5.28c2.02-2.26,3.8-4.9,5.65-7.26c8.77-13.26,13.96-27.03,17.86-41.26l20.52-84.16l13.58-53.98
	c0.43-3.45,3.57-5.33,6.3-6.99l36.94-18.66c0.74-0.32,1.6-0.19,2.08,0.57l-1.25,8.53L1421.8,567.1
	c-3.35,15.69-8.05,31.17-10.03,47.24c-0.05,2.59,0.18,5.1,1.36,7.26c1.27,1.66,3.24,1.61,4.94,0.8c9.81-7.02,14.29-18.95,18.77-28.9
	c6.96-19.96,3.22-34.94,17.91-62.86c11.56-21.97,28.86-38.23,51.22-47.38c7.57-2.27,15.25-2.31,21.31,2.26
	c8.05,5.51,9.62,17.72,7.02,26.21c-5.1,17.68-17.57,33.53-31.92,45.94L1495.88,541.36L1495.88,541.36z"/></svg>