<svg version="1.1" id="Layer_1" xmlns="http://www.w3.org/2000/svg" xmlns:xlink="http://www.w3.org/1999/xlink" x="0px" y="0px" viewBox="0 0 2500 2500" style="enable-background:new 0 0 2500 2500;" xml:space="preserve"><style type="text/css">
	.st0{fill-rule:evenodd;clip-rule:evenodd;fill:#EFC141;}
	.st1{fill-rule:evenodd;clip-rule:evenodd;fill:#FFFFFF;}
	.st2{fill:#BB6F5E;}
	.st3{fill-rule:evenodd;clip-rule:evenodd;fill:#536780;}
	.st4{fill-rule:evenodd;clip-rule:evenodd;fill:#BB6F5E;}
	.st5{fill:#536780;}
</style><path class="st0" d="M1554.24,2077.68c0.05,0.05-18.66,75.63-66.52,110.61c-9.38-6.26-17.91-17.39-18.02-17.63
	c53.77-30.65,72.66-93.81,73.14-97.22C1542.84,2073.44,1549.54,2076.32,1554.24,2077.68z M1576.18,2083.29
	c0.03,0.04-12.84,77.31-44.84,119.53c-8.16-3.98-13.23-7.87-18.04-11.27c39.12-42.24,50.74-111,50.74-111
	C1568.36,2081.54,1570.17,2082.22,1576.18,2083.29z M1599.46,2086.5c-0.23,12.17-0.23,87.83-30.88,140.92
	c-8.94-2.41-17.73-5.1-25.73-8.57c37.61-56.67,43.95-133.76,43.95-133.76C1591.3,2085.78,1599.46,2086.5,1599.46,2086.5z
	 M1675.94,2077.68c-0.05,0.05,18.72,75.63,66.52,110.61c9.38-6.26,17.96-17.39,18.07-17.63c-53.8-30.65-72.7-93.81-73.14-97.22
	C1687.39,2073.44,1680.7,2076.32,1675.94,2077.68z M1654,2083.29c0,0.04,12.89,77.31,44.84,119.53c8.21-3.98,13.23-7.87,18.07-11.27
	c-39.06-42.24-50.76-111-50.76-111C1661.85,2081.54,1660.05,2082.22,1654,2083.29z M1630.71,2086.5
	c0.23,12.17,0.23,87.83,30.93,140.92c8.92-2.41,17.73-5.1,25.73-8.57c-37.66-56.67-43.98-133.76-43.98-133.76
	C1638.87,2085.78,1630.71,2086.5,1630.71,2086.5z M1614.84,2087.12c1.97,0,6.64-0.16,6.64-0.16s-0.71,70.53,6.99,139.79
	c0,0-6.33,1.25-14.14,1.25c-4.98,0.04-9.96-0.39-14.86-1.3c8.82-67.13,8.79-139.68,8.79-139.68S1612.82,2087.12,1614.84,2087.12
	L1614.84,2087.12z M1755.81,2019.78c1.83-0.86,5.69-4.9,3.5-11.74c0.61,0.29,8.77,2.4,10.29,14.15c9.11,1.88,17.79,5.46,25.59,10.54
	l-0.13,0.86l-7.87-1.57c12.28,12.7,19.38,27.12,19.66,40.27c0,0.09-7.78-5.33-7.78-5.33s1.41,6.37,1.41,16.23
	c0,20.54-8.03,36.16-19.53,49.58c-0.88-0.42-3.57-4.62-4.66-6.21c-2.74,7.83-6.61,13.54-11.37,20.45
	c-0.88-0.27-9.38-12.11-9.38-12.11c-1.14,1.13-2.92,3.02-3.11,2.97c-0.61,0-9.96-11.59-14.16-16.96c-1.54,1.88-2.71,5.1-3.62,5.78
	c-23.18-19.18-23.94-44.37-24.55-47.77c-1.67,2.18-1.89,6.23-3.03,10.61c-5.32-18.11-2.26-27.39-1.49-31.1
	c-3.02,2.15-5.25,5.23-6.36,8.77h-0.27c1.72-20.84,21.21-35.9,23.13-37.31c-1.49-0.27-7.63,0.62-12.28,2.5l-1.19,0.05
	c5.34-6.41,18.95-10.56,27.11-12.54c0,0-5.37-0.84-13.63-0.84c-7.83,0-19.45,3.76-19.45,3.76c3.62-4.94,8.11-10.84,12.97-14.93
	C1731.57,2007.9,1744.3,2013,1755.81,2019.78L1755.81,2019.78z M1736.76,2038.41c1.04,3.81,3.62,7.35,5.88,9.77
	c0,0,1.95-7.5,5.63-13.35C1748.26,2034.83,1743.11,2035.62,1736.76,2038.41L1736.76,2038.41z M1768.96,2034.72
	c2.26,4.97,8.26,23.36,24.11,27.92C1790.51,2046.32,1780.76,2038.21,1768.96,2034.72z M1756.85,2033.74
	c-1.22,0.8-4.2,9.35-4.97,11.88c5.19,17.12,13.32,22.54,13.32,22.54s2.2-20.6-5.63-34.46
	C1758.17,2033.65,1757.56,2033.7,1756.85,2033.74L1756.85,2033.74z M1729.92,2042.18c-3.45,2.79-12.26,8.81-12.26,23.09
	c0,4.68,0.8,7.56,1.65,10.86c1.24-2.11,0.96-7.28,15.63-24.71C1731.17,2045.71,1730.35,2042.89,1729.92,2042.18z M1740.53,2058.2
	l-1.65,2.5c-1.7,8.35-1.62,21.13,7.28,29.13c3.62-7.07,4.05-20.92,1.35-26.59C1744.91,2061.27,1743.05,2060.05,1740.53,2058.2
	L1740.53,2058.2z M1774.3,2061.41c0,0,1.22,7.3-1.52,15.98c4.66,3.1,12.2,8.3,18.02,19.1c1.19-5.33,0.88-10.48,0.77-15.71
	C1791.22,2073.15,1776.83,2062.56,1774.3,2061.41L1774.3,2061.41z M1728.99,2073.67c-2.56,6.23-4.81,11.13-4.81,20.56
	c0,6.98,6.51,14.95,8.48,16.23c3.62-10.8,2.74-17.06,1.65-22.87C1732.18,2083.33,1728.99,2073.67,1728.99,2073.67L1728.99,2073.67z
	 M1758.26,2075.71c-0.19,5.14-1.12,10.24-2.74,15.12c1.49,6.51,3.77,12.7,8.48,17.37c6.64-9.82,6.48-20.76,6.03-22.74
	C1765.81,2082.35,1762.42,2079.24,1758.26,2075.71z M1777.6,2092.4c-0.77,6.91-1.6,9.23-2.28,11.26
	c-0.03,0.25,2.76,11.32,5.77,15.55c3.51-5.65,4.57-10.47,4.68-14.14C1784.37,2100.12,1781.53,2095.71,1777.6,2092.4z
	 M1743.27,2099.61c0,0-0.32,7.87-1.09,9.43c2.87,7.03,9.57,13.74,10.13,13.58c0,0,1.57-3.96,0-15.12c-0.14-1.17-0.47-2.3-0.99-3.36
	C1750.49,2103.66,1747.65,2102.58,1743.27,2099.61z M1767.18,2116.39c-1.47,1.56-2.76,3.2-3.22,3.2c-0.56,0-2.41-1.22-3.45-1.79
	c-0.32,2.54-0.61,5.23-0.93,7.91l4.1,7.13C1763.68,2132.85,1768.06,2127.56,1767.18,2116.39L1767.18,2116.39z M1514.83,2007.9
	c4.86,4.09,9.35,10,12.97,14.93c0,0-11.65-3.76-19.48-3.76c-8.18,0-13.61,0.84-13.61,0.84c8.13,1.97,21.79,6.13,27.11,12.54
	l-1.19-0.05c-4.66-1.89-10.79-2.79-12.31-2.5c1.95,1.41,21.48,16.47,23.18,37.31h-0.3c-1.22-3.54-3.35-6.76-6.36-8.77
	c0.77,3.71,3.85,13-1.52,31.1c-1.09-4.38-1.36-8.43-3.01-10.61c-0.61,3.4-1.32,28.57-24.53,47.77c-0.93-0.7-2.13-3.92-3.67-5.78
	c-4.18,5.37-13.48,16.96-14.14,16.96c-0.16,0.06-2-1.84-3.06-2.97c0,0-8.53,11.83-9.43,12.11c-4.79-6.91-8.59-12.63-11.32-20.45
	c-1.09,1.6-3.83,5.8-4.71,6.21c-11.53-13.42-19.53-29.04-19.53-49.58c0-9.86,1.41-16.23,1.41-16.23s-7.78,5.42-7.78,5.33
	c0.27-13.16,7.34-27.59,19.66-40.27l-7.83,1.57l-0.18-0.86c7.79-5.09,16.47-8.67,25.59-10.54c1.52-11.75,9.68-13.85,10.29-14.15
	c-2.2,6.83,1.7,10.88,3.5,11.74C1486.08,2013,1498.8,2007.9,1514.83,2007.9L1514.83,2007.9z M1482.12,2034.83
	c3.72,5.85,5.6,13.35,5.6,13.35c2.26-2.41,4.86-5.95,5.93-9.77C1487.24,2035.62,1482.12,2034.83,1482.12,2034.83z M1437.34,2062.65
	c15.84-4.58,21.82-22.97,24.06-27.92C1449.67,2038.21,1439.88,2046.32,1437.34,2062.65z M1470.8,2033.7
	c-7.78,13.86-5.63,34.46-5.63,34.46s8.16-5.42,13.35-22.54c-0.79-2.53-3.77-11.08-4.99-11.88
	C1472.83,2033.7,1472.28,2033.65,1470.8,2033.7L1470.8,2033.7z M1495.45,2051.41c14.67,17.44,14.38,22.59,15.6,24.71
	c0.86-3.29,1.67-6.17,1.67-10.86c0-14.29-8.79-20.3-12.28-23.09C1500.08,2042.89,1499.23,2045.71,1495.45,2051.41z M1482.91,2063.26
	c-2.74,5.67-2.31,19.52,1.36,26.59c8.82-8,8.92-20.79,7.28-29.13l-1.7-2.5C1487.35,2060.05,1485.44,2061.27,1482.91,2063.26
	L1482.91,2063.26z M1438.84,2080.8c-0.16,5.23-0.43,10.38,0.77,15.71c5.8-10.8,13.32-15.99,18.02-19.1
	c-2.74-8.68-1.52-15.98-1.52-15.98C1453.55,2062.56,1439.16,2073.15,1438.84,2080.8z M1496.06,2087.59
	c-1.01,5.8-1.97,12.06,1.67,22.87c1.97-1.27,8.48-9.25,8.48-16.23c0-9.43-2.23-14.32-4.81-20.56
	C1501.41,2073.67,1498.19,2083.33,1496.06,2087.59L1496.06,2087.59z M1460.34,2085.46c-0.43,1.97-0.58,12.92,6.08,22.74
	c4.66-4.67,6.91-10.86,8.48-17.37c-1.7-4.87-2.62-9.97-2.74-15.12C1467.97,2079.23,1464.57,2082.35,1460.34,2085.46z
	 M1444.59,2105.08c0.18,3.67,1.17,8.48,4.71,14.14c3.01-4.23,5.8-15.32,5.75-15.55c-0.66-2.02-1.49-4.34-2.26-11.26
	C1448.84,2095.72,1445.98,2100.13,1444.59,2105.08L1444.59,2105.08z M1479.06,2104.12c-0.5,1.06-0.83,2.2-0.99,3.36
	c-1.52,11.17,0,15.12,0,15.12c0.58,0.16,7.25-6.55,10.13-13.58c-0.77-1.54-1.04-9.43-1.04-9.43
	C1482.73,2102.58,1479.9,2103.66,1479.06,2104.12z M1466.75,2132.85l4.05-7.13c-0.32-2.64-0.62-5.27-0.91-7.91
	c-1.06,0.57-2.92,1.79-3.48,1.79c-0.48,0-1.75-1.65-3.22-3.2C1462.31,2127.56,1466.75,2132.85,1466.75,2132.85z"/></svg>