<svg version="1.1" id="Layer_1" xmlns="http://www.w3.org/2000/svg" xmlns:xlink="http://www.w3.org/1999/xlink" x="0px" y="0px" viewBox="0 0 2500 2500" style="enable-background:new 0 0 2500 2500;" xml:space="preserve"><style type="text/css">
	.st0{fill-rule:evenodd;clip-rule:evenodd;fill:#EFC141;}
	.st1{fill-rule:evenodd;clip-rule:evenodd;fill:#FFFFFF;}
	.st2{fill:#BB6F5E;}
	.st3{fill-rule:evenodd;clip-rule:evenodd;fill:#536780;}
	.st4{fill-rule:evenodd;clip-rule:evenodd;fill:#BB6F5E;}
	.st5{fill:#536780;}
</style><path class="st0" d="M1806.01,1989.08c-12.65-5.99-26.95-6.08-33.81-11.12c-0.45-0.36,2.48-1.5,10.29-1.5
	c24.11,0,45.6,19.84,45.6,19.84s-0.05-7.17-0.23-10.38c0-1.27-23-17.87-45.07-17.87c-9.25,0-16.95,3.11-19.48,4.1
	c-2.28,0.56-4.86,0.47-4.86,0.47s9.68-11.36,27.53-11.36c12.92,0,34.18,11.36,41.59,15.62c-0.19-3.75-0.42-7.49-0.71-11.23
	c-43.95-22.62-77.64-13.29-78.88-13.15c43.85-31.54,71.01-37.86,71.01-37.86s-2.58-6.37-3.96-9.53
	c-9.68,3.11-18.57,7.83-27.69,11.79c0,0-10.77,4.62-36.15,5.53c1.49-2.13,2.87-3.58,5.14-6.08c4.97-0.43,11.72-1.24,16.98-2.65
	c9.38-2.48,36.86-16.93,37.74-17.2c-1.22-2.79-2-4.67-3.62-7.69c-9.55,4.71-18.02,8.87-28.57,13.8c-8.72,3.01-9.52,3.54-15.12,3.98
	c10.84-10.96,40.13-24.85,40.13-24.85c-1.35-2.45-2.66-4.92-3.93-7.41c0,0-14.33,6.08-32.85,17.3c-5.58,3.35-10.95,7.35-14.27,12.68
	c-3.75,5.24-11.45,16.65-19.22,20.09c2.26-11.72,10-24.98,16.37-29.95c17.96-14.1,44.23-29.6,44.23-29.6
	c-1.39-2.45-3.88-5.37-5.21-7.19c-0.1,0.12-30.91,16.24-65.78,45.37c19.38-26.26,44.84-67.72,50.82-77.13
	c-3.19-1.93-3.5-2.31-9.27-6.04c-23.49,38.2-25.01,43.2-60.65,53.94c0,0-0.32-3.11,0.48-6.36c1.49-0.58,15.5-6.38,25.14-16.94
	c9.35-10.22,26.34-36.11,26.34-36.11l-8.99-5.62c-0.61-0.1-26.77,43.47-39.62,45.68c12.57-30.93,29.13-50.6,29.71-51.62
	c-2.56-1.66-6.83-4.15-8.11-4.81c-2.23,2.74-34.93,41.39-35.56,80.01c-2.68,1.69-4.01,2.36-6.16,3.68
	c-3.4-9.91-4.25-30.04-0.32-37.73c12.76-25.14,32.32-51.49,32.32-51.49c-3.14-1.83-7.02-3.83-10.03-5.53
	c-21.89,32.26-42.61,64.84-54.97,94.5l0.08-114.86l-10.84-0.03v48.23c-0.03,5.62,2.05,22.35-17.57,38.13
	c-1.33-2.51-2.71-5-4.12-7.46c10.92-12.49,11.19-30.67,11.19-30.67l-0.03-48.23h-11.24v48.23c-0.3,12.01-6.08,20.09-6.08,20.09
	c-0.61-0.86-4.84-5.19-5.27-20.09v-48.23h-10.61c0,0-0.05,33.94-0.05,48.23c0,8.05,1.35,15.84,4.03,22.62
	c2.53,6.41,8.05,13.11,14.8,23.57c-1.65,2.54-3.54,5.33-4.71,8.16c-23.44-24.42-23.1-31.17-24.19-38.36
	c-0.27-9.91-0.16-64.19-0.16-64.19h-11.02l-0.48,120.32c-11.98-31.1-33.94-65.7-57.12-99.96c-3.03,1.7-6.94,3.7-10.1,5.53
	c0,0,19.58,26.35,32.35,51.49c3.93,7.69,3.06,27.83-0.27,37.73c-2.23-1.34-3.54-2-6.23-3.68c-0.61-38.62-33.28-77.27-35.54-80.01
	c-1.27,0.66-5.53,3.15-8.13,4.81c0.58,1.02,17.17,20.7,29.77,51.62c-12.87-2.22-39.04-45.78-39.65-45.68
	c-0.05,0.05-8.96,5.62-8.96,5.62s17.02,25.89,26.34,36.11c9.62,10.54,23.63,16.35,25.15,16.94c0.74,3.24,0.4,6.36,0.4,6.36
	c-35.64-10.74-37.16-15.75-60.62-53.94c-5.8,3.74-6.08,4.1-9.25,6.04c5.95,9.43,31.44,50.87,50.82,77.13
	c-34.88-29.13-65.7-45.25-65.81-45.37c-1.36,1.82-3.77,4.72-5.21,7.19c0,0,26.29,15.5,44.25,29.6c6.33,4.97,14.06,18.21,16.32,29.95
	c-7.73-3.44-15.42-14.85-19.22-20.09c-3.29-5.32-8.69-9.34-14.19-12.68c-18.6-11.22-32.93-17.3-32.93-17.3
	c-1.01,2.13-2.68,5.17-3.9,7.41c0,0,29.29,13.89,40.13,24.85c-5.58-0.43-6.38-0.96-15.15-3.98c-10.49-4.94-18.95-9.09-28.57-13.8
	c-1.29,2.52-2.5,5.09-3.62,7.69c0.91,0.27,28.44,14.72,37.82,17.2c5.19,1.4,11.98,2.22,16.98,2.65c2.23,2.49,3.62,3.96,5.14,6.08
	c-25.46-0.89-36.22-5.53-36.22-5.53c-9.04-3.96-17.96-8.68-27.66-11.79c-1.36,3.16-3.98,9.53-3.98,9.53s27.24,6.32,71.04,37.86
	c-1.19-0.16-34.9-9.47-78.88,13.15c-0.27,3.54-0.48,7.26-0.71,11.23c7.44-4.25,28.65-15.62,41.59-15.62
	c17.86,0,27.53,11.36,27.53,11.36s-2.61,0.09-4.81-0.47c-2.61-0.99-10.26-4.1-19.53-4.1c-22.06,0-45.07,16.6-45.07,17.87
	c-0.16,3.2-0.21,10.38-0.21,10.38s21.45-19.84,45.6-19.84c7.78,0,10.71,1.14,10.23,1.45c-6.78,5.1-21.18,5.17-33.81,11.17
	c-9.09,4.29-16.37,11.52-21.89,19.57c0.1,3.72,0.35,7.35,0.51,11.13c0,0,6.64-14.01,22.85-21.92c21.69-9.68,37.61-7.68,44.05-16.23
	c0.23-0.32,0.79-0.71,0.79-0.71s9.7,1.05,12.81,0.95c0,0-14.57,11-23.33,13.16c-43.14,10.83-54.19,34.75-56,37.7
	c0.38,3.67,0.88,8.21,1.52,12.04c1.22-0.86,1.83-2.13,2.58-3.27c8.61-13.28,25.14-33.94,58.62-39.56c8.79-1.49,22.42-0.7,29.64-2.17
	c14.57-2.93,18.62-7.3,21.79-9.14c14.33,11.56,21.84,21.22,25.59,32.35c4.25,1.18,12.57,3.29,12.7,3.15
	c-10.08-30.78-37.16-49.6-38.27-50.63c-3.06-2.79-9.07-8.87-9.07-8.87s20.01,2.93,28.78,8.37c7.92,4.85,23.81,28.05,27.66,53.09
	c3.98,0.89,9.4,1.7,13.68,2.44c0,0-4.89-33.67-31.81-69.67c-4.86-6.52-5.63-15.99-9.73-22.92c9.07,10.51,27.41,19.18,31.84,24.51
	c3.45,4.19,15.04,17.96,18.16,69.15c3.19,0.43,7.09,0.8,13.18,1.24c-2.81-49.17-13.93-71.71-14.69-74.12
	c-1.09-3.81-1.7-8.53-0.61-12.58c2.48-9.26,2.58-19.44,0.79-30.27c3.72,8.15,9.57,17.02,14.38,24.28
	c5.63,9.61,7.12,21.87,7.87,34.05c-0.61,19.08,0.13,39.54-0.61,59.08c0,0,1.27,0.32,6.84,0.32c7.25,0,7.2-0.43,7.2-0.43
	c0-4.38-0.1-9.38-0.1-12.78c0.43-19.93-0.61-38.13,2.13-56.81c0.43-9.57,3.93-17.35,8.31-24.58c3.62-6.36,6.81-12.87,9.73-19.66
	l2.44-5.99c-2.15,11.83-2.26,22.88,0.38,32.77c1.14,4.05,0.48,8.77-0.56,12.58c-0.8,2.41-11.93,24.95-14.77,74.12
	c6.08-0.43,10-0.8,13.24-1.25c3.06-51.19,14.67-64.97,18.16-69.15c4.44-5.32,22.72-14.01,31.76-24.51
	c-4.1,6.91-4.81,16.39-9.65,22.92c-26.98,36-31.81,69.67-31.81,69.67c4.28-0.75,9.65-1.54,13.61-2.44
	c3.93-25.03,19.75-48.23,27.72-53.09c8.79-5.43,28.78-8.37,28.78-8.37s-6,6.08-9.07,8.87c-1.12,1.04-28.22,19.86-38.27,50.63
	c0.1,0.14,8.38-1.97,12.7-3.15c3.77-11.13,11.27-20.8,25.54-32.35c3.22,1.84,7.22,6.21,21.79,9.14c7.22,1.47,20.89,0.67,29.71,2.17
	c33.44,5.62,49.93,26.26,58.57,39.56c0.77,1.14,1.36,2.41,2.58,3.27c0.66-3.83,1.19-8.37,1.52-12.04
	c-1.8-2.97-12.81-26.87-56.03-37.7c-8.77-2.17-23.28-13.16-23.28-13.16c3.11,0.1,12.79-0.95,12.79-0.95s0.58,0.38,0.83,0.71
	c6.36,8.55,22.35,6.55,43.98,16.23c16.24,7.91,22.93,21.92,22.93,21.92c0.16-3.77,0.32-7.41,0.43-11.13
	C1822.38,2000.6,1815.16,1993.37,1806.01,1989.08L1806.01,1989.08z M1499.98,1873.38c9.81,6.94,36.35,12.13,41.17,19.1
	c-0.16,2.97-0.27,5.94-0.27,9c-6.06-2.41-26.21-9.09-33.49-16.5C1504.97,1881.03,1502.24,1877.2,1499.98,1873.38z M1528.46,1946.98
	c-3.96-3.96-8.48-7.3-12.87-10.7c-10.89-7.26-11.22-19.79-11.65-21.49C1523.14,1930.06,1528.46,1946.98,1528.46,1946.98z
	 M1466.97,1930.06c6.36,0.89,14.44,0.47,20.97,2.17c5.42,1.7,12.18,6.89,14.29,8.53c-5.12-0.41-12.39,0.29-17.86-1
	C1477.26,1938.66,1466.97,1930.06,1466.97,1930.06L1466.97,1930.06z M1476.5,1965.53c-2.87-2.41-6.33-4.25-9.65-6.23
	c20.78-1.05,35.87,14.85,36.35,15.41c-2.45-0.27-12.31-1.4-15.2-2.11C1483.34,1971.46,1480.17,1968.21,1476.5,1965.53
	L1476.5,1965.53z M1480.94,1992.07c2.08-1.84,9.81-7.12,15.28-7.98c4.15-0.6,9.52,1.19,11.93,1.61
	C1503,1988.24,1499.6,1991.03,1480.94,1992.07L1480.94,1992.07z M1494.71,1948.41c7.63,0.8,16.34,1.14,23.28,3.67
	c3.77,2.97,7.6,5.8,10.74,9.35C1527.4,1960.56,1509.63,1960.29,1494.71,1948.41z M1551.74,1934.73
	c-20.78-10.36-29.51-29.13-31.62-31.67c6.64,3.83,14.36,6.36,21.35,9.91c3.9,2.4,7.73,4.66,11.37,7.5
	C1552.36,1924.54,1551.74,1929.46,1551.74,1934.73L1551.74,1934.73z M1561.97,1889.14c-0.13,3.1-1.78,13.63-5.5,21.4
	c-1.7-0.99-3.35-1.97-4.41-3.4c0,0-1.83-8.16-0.32-16.8c1.47-8.34,3.8-16.82,2.89-26.17
	C1562.32,1876.17,1562.05,1887.91,1561.97,1889.14z M1573.12,1945.85l-0.77,2.83c-3.35-2.41-6.36-5.23-10.13-7.07
	c-0.61-13.67,3.14-25.27,6.91-36.73c0.96-2.97,1.7-6.32,1.09-9.87C1570.22,1895.01,1580,1918.28,1573.12,1945.85z M1596.16,1864.72
	c8.26,9.61,20.54,23.62,21.79,30.69c-1.36,2.41-2.89,4.66-4.1,7.08h-0.43c-5.24-7.51-24.69-23.97-24.69-47.59
	C1588.72,1854.87,1591.64,1859.37,1596.16,1864.72z M1617.95,1935.15c-1.52,2.22-2.18,3.81-3.93,7.02
	c-11.24-19.7-21.05-33.05-23.49-50.53C1620.43,1924.78,1617.95,1935.15,1617.95,1935.15z M1624.92,1924.26
	c-1.27-3.8-2.73-7.52-4.38-11.17c7.09-14.89,14.51-17.96,17.68-24.71C1637.61,1891.77,1637.11,1907.24,1624.92,1924.26
	L1624.92,1924.26z M1624.79,1887.26c-1.85-3.41-3.35-6.8-5.34-9.9c12.7-20.52,23.76-28.39,23.76-28.39
	C1642.8,1858.39,1645.72,1867.92,1624.79,1887.26z M1742.18,1932.22c6.51-1.7,14.57-1.27,20.95-2.17c0,0-10.31,8.59-17.41,9.7
	c-5.47,1.3-12.74,0.58-17.89,1C1729.97,1939.12,1736.7,1933.92,1742.18,1932.22L1742.18,1932.22z M1726.2,1914.79
	c-0.45,1.7-0.8,14.24-11.62,21.49c-4.46,3.4-8.96,6.76-12.89,10.7C1701.67,1946.98,1706.99,1930.06,1726.2,1914.79z
	 M1730.11,1873.38c-2.28,3.83-5.02,7.65-7.42,11.61c-7.25,7.41-27.38,14.14-33.46,16.5c0-3.06-0.16-6.04-0.27-9
	C1693.83,1885.51,1720.3,1880.33,1730.11,1873.38z M1667.94,1941.61c-3.83,1.84-6.83,4.66-10.16,7.07l-0.79-2.83
	c-6.89-27.57,2.92-50.84,2.92-50.84c-0.61,3.54,0.16,6.9,1.04,9.87C1664.72,1916.35,1668.53,1927.94,1667.94,1941.61z
	 M1673.68,1910.55c-3.72-7.78-5.42-18.3-5.58-21.4c-0.05-1.23-0.27-12.97,7.34-24.95c-0.88,9.35,1.41,17.83,2.89,26.17
	c1.54,8.64-0.27,16.8-0.27,16.8C1676.98,1908.57,1675.33,1909.55,1673.68,1910.55L1673.68,1910.55z M1678.34,1934.73
	c0.05-5.27-0.61-10.18-1.04-14.28c3.64-2.84,7.39-5.11,11.35-7.5c6.94-3.54,14.67-6.08,21.34-9.91
	C1707.86,1905.6,1699.19,1924.36,1678.34,1934.73L1678.34,1934.73z M1701.35,1961.42c3.22-3.54,6.99-6.38,10.74-9.35
	c6.99-2.53,15.71-2.88,23.36-3.67C1720.49,1960.29,1702.71,1960.56,1701.35,1961.42z M1749.22,1992.07
	c-18.74-1.04-22.14-3.83-27.26-6.37c2.41-0.41,7.78-2.2,11.91-1.61C1739.39,1984.95,1747.09,1990.22,1749.22,1992.07
	L1749.22,1992.07z M1742.07,1972.6c-2.87,0.71-12.71,1.84-15.12,2.11c0.4-0.57,15.5-16.47,36.35-15.41
	c-3.35,1.97-6.83,3.83-9.7,6.23C1749.96,1968.21,1746.79,1971.46,1742.07,1972.6L1742.07,1972.6z M1614.46,2078.57h-0.51
	c-6.72,0-77.44-2.87-77.44-24.01c0-2.78,1.25-4.09,1.25-4.09s31.36,14.06,76.6,14.06h0.26c45.29,0,76.6-14.06,76.6-14.06
	s1.22,1.32,1.22,4.09c0,21.14-70.7,24.01-77.42,24.01H1614.46L1614.46,2078.57z"/></svg>