<svg version="1.1" id="Layer_1" xmlns="http://www.w3.org/2000/svg" xmlns:xlink="http://www.w3.org/1999/xlink" x="0px" y="0px" viewBox="0 0 2500 2500" style="enable-background:new 0 0 2500 2500;" xml:space="preserve"><style type="text/css">
	.st0{fill-rule:evenodd;clip-rule:evenodd;fill:#EFC141;}
	.st1{fill-rule:evenodd;clip-rule:evenodd;fill:#FFFFFF;}
	.st2{fill:#BB6F5E;}
	.st3{fill-rule:evenodd;clip-rule:evenodd;fill:#536780;}
	.st4{fill-rule:evenodd;clip-rule:evenodd;fill:#BB6F5E;}
	.st5{fill:#536780;}
</style><path class="st1" d="M1345.48,2011.3c7.68,2.88,9.04,3.53,9.68,3.53c0.64,0,1.06-0.48,1.01-1.98l1.3-0.04l0.03,19.57h-1.22
	c-0.32-1.57-0.77-2.22-2.45-2.88c-2.41-0.99-48.69-19.48-49.32-19.48c-0.77,0-0.93,1.18-1.04,2.23h-1.27l-0.1-28.82l1.3-0.05
	c0.08,1.23,0.32,2.02,1.35,2.02c0.86-0.04,32.22-13.72,48.21-20.6c2.5-1.1,3.11-1.76,3.11-3.11h1.27l0.03,21.79h-1.19
	c-0.16-1.57-0.69-2.13-1.3-2.13c-0.4,0-8.11,3.35-9.47,3.77L1345.48,2011.3L1345.48,2011.3z M1337.1,2008.55l-0.13-20.49
	l-24.93,10.79L1337.1,2008.55z M1366.96,1902.24l-1.22-0.31c0.48-2.74-0.13-3.2-1.04-3.5l-38.05-10.04l-4.81,18.34
	c-0.32,1.19,0.05,1.75,2.31,2.68l-0.32,1.28l-18.09-4.76l0.32-1.28c2.45,0.27,3.06,0,3.35-1.17l13.96-52.71
	c0.27-1.18-0.1-1.75-2.36-2.65l0.32-1.32l18.11,4.8l-0.35,1.3c-2.44-0.3-3.03,0-3.35,1.17l-4.86,18.34l38.03,10.05
	c0.93,0.23,1.7,0.09,2.63-2.5l1.22,0.32L1366.96,1902.24L1366.96,1902.24z M1388.09,1833.28c0.86,0.47,1.65,0.52,3.22-1.75
	l1.09,0.61l-11.22,19.75l-1.09-0.61c1.17-2.49,0.71-3.16-0.16-3.63l-42.61-24.14c-0.8-0.43-1.62-0.52-3.16,1.8l-1.09-0.66
	l19.88-35.14c8.08-14.2,16.24-17.54,26.7-11.63c8.38,4.75,9.62,13.06,7.22,22.22l21.61-2.71c1.62-0.22,2.61-0.8,3.19-1.88l1.14,0.61
	l-11.32,20l-1.14-0.62c0.66-1.41,0.66-2.44-0.43-3.05c-0.83-0.48-19.22,2.58-21.82,2.72l-5.34,9.39L1388.09,1833.28L1388.09,1833.28
	z M1363.07,1819.07l9.14-16.12c3.22-5.67,1.8-8.73-0.86-10.23c-2.63-1.5-6-1.13-9.22,4.54l-9.09,16.11L1363.07,1819.07
	L1363.07,1819.07z M1421.86,1716.7c-0.61-0.75-1.36-1.08-3.59,0.58l-0.83-0.99l17.3-14.77l0.8,1c-1.95,1.92-1.75,2.68-1.14,3.44
	l18.34,21.35c12.04,14.05,5.65,27.5-7.17,38.48c-12.81,11-27.11,15.19-39.14,1.14l-18.29-21.41c-0.61-0.71-1.36-1.04-3.57,0.57
	l-0.86-0.93l17.3-14.77l0.8,0.95c-1.92,1.93-1.75,2.74-1.14,3.45l18.34,21.39c5.24,6.15,11.22,5.28,17.91-0.41
	c6.72-5.75,8.46-11.5,3.22-17.66L1421.86,1716.7L1421.86,1716.7z M1516.9,1702.57l-1.22,0.47c-0.8-1.18-1.89-1.84-3.98-1.02
	l-19.13,7.5l3.57,9.09l33.01-12.97c1.14-0.42,1.36-1.09,0.71-3.62l1.22-0.53l6.69,17.07l-1.27,0.47c-0.93-1.56-1.54-1.89-2.68-1.41
	l-51.3,20.09l-0.4-1.18c2.44-1.18,2.48-1.97,2.15-2.88l-17.86-45.64c-0.38-0.84-0.93-1.41-3.59-0.62l-0.45-1.18l51.3-20.13
	c1.14-0.42,1.36-1.09,0.79-3.45l1.25-0.52l6.64,17.07l-1.22,0.47c-1.19-2.11-1.8-2.45-2.94-2.02l-33.01,12.96l3.22,8.12l19.1-7.5
	c2.08-0.8,2.41-2.06,2.23-3.45l1.22-0.51L1516.9,1702.57L1516.9,1702.57z M1601.77,1705.78c0.05,0.95,0.38,1.65,3.16,1.85v1.22
	l-22.72,0.42l-0.05-1.27c2.79-0.23,3.11-0.99,3.06-1.93l-0.88-48.94c0-0.93-0.38-1.7-3.11-1.83l-0.05-1.28l39.52-0.7
	c13.93-0.25,21.26,7.82,21.43,17.15c0.16,9.39-6.86,17.59-20.78,17.82l-19.86,0.38L1601.77,1705.78L1601.77,1705.78z
	 M1601.26,1677.48l16.8-0.27c5.98-0.09,8.9-2.02,8.79-6.45c-0.03-4.1-3.04-5.71-9.04-5.63l-16.72,0.27L1601.26,1677.48z
	 M1656.08,1710.63l0.21-1.27c2.74,0.19,3.16-0.47,3.29-1.41l7.28-48.42c0.13-0.93-0.1-1.7-2.79-2.32l0.21-1.27l22.49,3.4l-0.21,1.24
	c-2.79-0.19-3.22,0.45-3.35,1.4l-7.22,48.42c-0.13,0.93,0.05,1.7,2.74,2.36l-0.18,1.23L1656.08,1710.63L1656.08,1710.63z
	 M1718.6,1711.3l35.56,13.33c1.17,0.43,1.75,0.09,2.92-2.08l1.24,0.48l-6.48,17.3l-1.22-0.47c0.43-2.18,0.23-2.84-0.93-3.26
	l-53.98-20.19l0.48-1.18c2.63,0.77,3.19,0.19,3.51-0.71l17.12-45.82c0.32-0.9,0.27-1.7-2.23-2.88l0.43-1.17l21.31,7.95l-0.4,1.18
	c-2.68-0.75-3.27-0.19-3.59,0.71L1718.6,1711.3L1718.6,1711.3z M1776.59,1727.66l0.53,1.08c-0.53,0.27-0.93,0.86-1.54,1.6
	c-1.75,2.23,4.6,13.24,13.63,20.38c8.69,6.82,14.14,7.91,17.02,4.28c4.81-6.13-36.28-27.48-23.73-43.42
	c6.51-8.25,19.35-7.41,32.13,2.63c11.88,9.39,17.73,19.62,20.09,21.46c1.09,0.88,2.18,0.8,3.29,0.6l0.71,1.1l-15.04,6.73l-0.66-1.32
	l0.71-0.9c1.65-2.06-6.41-12.17-14.57-18.57c-7.55-5.94-11.72-6.03-13.24-4.1c-5.75,7.3,37.24,26.6,22.24,45.6
	c-5.55,7.11-17.38,10.51-36.2-4.34c-14.51-11.36-17.91-20.23-19.93-21.83c-0.69-0.52-1.67-0.38-2.56-0.27l-0.83-1.04
	L1776.59,1727.66L1776.59,1727.66z M1859.01,1760.93c0.8-0.51,1.24-1.18-0.03-3.62l1.06-0.67l14.21,22.45l-1.12,0.71
	c-1.44-2.13-2.26-2.22-2.76-1.89c-0.99,0.61-7.17,27.07-9.86,37.92l23.71-14.99c1.04-0.66,1.04-1.7,0.38-2.97l1.04-0.66l10.79,17.06
	l-1.09,0.67c-1.65-2.22-2.44-2.08-3.24-1.61l-41.39,26.17c-0.8,0.53-1.24,1.18,0.05,3.62l-1.09,0.71l-11.19-17.72l1.12-0.71
	c1.01,1.7,1.7,1.93,2.28,1.54c1.14-0.75,0.86-3.76,11.53-44.97l-27.91,17.63c-0.8,0.52-1.24,1.18,0.05,3.63l-1.09,0.65l-11.17-17.72
	l1.06-0.66c1.67,2.2,2.48,2.11,3.27,1.6L1859.01,1760.93L1859.01,1760.93z M1886.09,1894.34l-0.38-1.3c1.22-0.7,2-1.74,1.36-3.85
	l-5.75-19.73l-9.4,2.74l9.96,34.05c0.32,1.14,0.93,1.41,3.57,1.04l0.38,1.28l-17.57,5.1l-0.38-1.28c1.6-0.84,2.02-1.41,1.65-2.54
	l-15.41-52.94l1.22-0.32c0.99,2.58,1.75,2.68,2.68,2.44l47.07-13.67c0.88-0.23,1.49-0.8,0.93-3.5l1.22-0.32l15.42,52.9
	c0.32,1.13,0.99,1.4,3.4,1.08l0.38,1.28l-17.57,5.1l-0.38-1.28c2.26-0.99,2.63-1.56,2.26-2.74l-9.91-34.03l-8.38,2.45l5.75,19.7
	c0.61,2.13,1.83,2.59,3.24,2.5l0.38,1.27L1886.09,1894.34L1886.09,1894.34z M1877.22,1945.35c-0.96,0.09-1.67,0.45-1.67,3.24
	l-1.27,0.09l-1.85-22.67l1.3-0.1c0.4,2.74,1.19,3.02,2.1,2.93l48.82-4.01c0.93-0.05,1.65-0.47,1.65-3.22l1.27-0.13l3.27,40.3
	c1.32,16.26-3.57,23.67-15.52,24.66c-9.6,0.75-15.3-5.42-18.42-14.33l-16.37,14.37c-1.3,1.14-1.7,2.18-1.6,3.36l-1.27,0.14
	l-1.85-22.92l1.22-0.09c0.23,1.5,0.86,2.35,2.13,2.26c0.93-0.09,14.44-12.9,16.48-14.57l-0.83-10.74L1877.22,1945.35z
	 M1905.87,1942.97l1.52,18.55c0.51,6.46,3.4,8.25,6.46,7.96c3.01-0.25,5.55-2.45,5.05-8.92l-1.47-18.52L1905.87,1942.97z
	 M1474.04,2255.52c0.38-0.9,0.32-1.7-2.1-2.97l0.51-1.19l38.61,16.65c10.95,4.76,17.25,12.07,13.15,21.58
	c-2.48,5.8-8.08,7.65-14.27,6.32l-0.1,0.19c6.03,4.67,9.52,10.27,6.41,17.46c-3.35,7.68-12.26,11.63-26.65,5.41l-39.12-16.82
	l0.51-1.18c2.61,0.88,3.22,0.38,3.59-0.52L1474.04,2255.52z M1482.2,2278.24l13.83,5.94c8.66,3.77,11.17,4.15,12.81,0.27
	c1.7-3.81-0.27-5.37-9.01-9.13l-13.76-5.95L1482.2,2278.24L1482.2,2278.24z M1472.98,2299.7l17.2,7.39
	c7.07,3.07,10.61,2.75,12.44-1.5c1.85-4.23-0.32-6.98-7.44-10.03l-17.2-7.44L1472.98,2299.7L1472.98,2299.7z M1591.74,2320.36
	l-1.32-0.16c-0.16-1.41-0.8-2.54-3.01-2.78l-20.41-2.27l-1.04,9.71l35.21,3.92c1.19,0.14,1.7-0.34,2.31-2.93l1.32,0.14l-1.97,18.2
	l-1.32-0.14c-0.13-1.8-0.51-2.41-1.75-2.5l-54.75-6.08l0.1-1.27c2.79,0.14,3.22-0.57,3.29-1.5l5.4-48.75
	c0.08-0.93-0.16-1.7-2.89-2.23l0.16-1.22l54.72,6.03c1.25,0.16,1.7-0.32,2.33-2.68l1.32,0.16l-1.97,18.18l-1.32-0.19
	c-0.1-2.41-0.48-2.97-1.65-3.11l-35.29-3.9l-0.93,8.68l20.41,2.26c2.23,0.25,3.06-0.71,3.57-2.02l1.3,0.14L1591.74,2320.36
	L1591.74,2320.36z M1676.58,2317l-1.35,0.14c-0.48-1.32-1.36-2.27-3.51-2.08l-20.41,2.13l0.99,9.71l35.21-3.63
	c1.24-0.1,1.6-0.66,1.65-3.35l1.32-0.14l1.89,18.2l-1.32,0.14c-0.53-1.75-1.04-2.22-2.23-2.08l-54.8,5.67l-0.13-1.28
	c2.74-0.47,3.01-1.27,2.94-2.2l-5.02-48.73c-0.08-0.93-0.51-1.63-3.27-1.54l-0.13-1.27l54.8-5.68c1.17-0.09,1.54-0.7,1.65-3.09
	l1.32-0.16l1.85,18.2l-1.35,0.14c-0.56-2.41-1.04-2.88-2.26-2.74l-35.24,3.62l0.91,8.68l20.41-2.11c2.18-0.18,2.84-1.32,3.01-2.74
	l1.35-0.14L1676.58,2317z M1743.64,2317.19c0.38,0.88,0.93,1.41,3.57,0.57l0.48,1.18l-20.97,8.77l-0.48-1.14
	c2.45-1.27,2.5-2.06,2.13-2.97l-18.97-45.16c-0.3-0.89-0.93-1.4-3.57-0.56l-0.45-1.18l37.24-15.62c15.1-6.32,23.61-4.01,28.25,7.07
	c3.72,8.92-0.38,16.23-7.87,22.02l18.77,11.04c1.41,0.88,2.53,0.99,3.67,0.52l0.45,1.18l-21.15,8.87l-0.48-1.18
	c1.36-0.66,1.97-1.52,1.52-2.65c-0.38-0.88-16.8-9.75-18.97-11.22l-9.99,4.2L1743.64,2317.19L1743.64,2317.19z M1732.5,2290.64
	l17.12-7.22c6.01-2.49,6.74-5.8,5.58-8.57c-1.19-2.83-4.07-4.58-10.05-2.06l-17.09,7.16L1732.5,2290.64L1732.5,2290.64z"/></svg>