<svg version="1.1" id="Layer_1" xmlns="http://www.w3.org/2000/svg" xmlns:xlink="http://www.w3.org/1999/xlink" x="0px" y="0px" viewBox="0 0 2500 2500" style="enable-background:new 0 0 2500 2500;" xml:space="preserve"><style type="text/css">
	.st0{fill-rule:evenodd;clip-rule:evenodd;fill:#04593C;stroke:#04593C;stroke-width:1.984;stroke-miterlimit:2.613;}
	.st1{fill-rule:evenodd;clip-rule:evenodd;fill:#CC2131;}
	.st2{fill-rule:evenodd;clip-rule:evenodd;fill:#23835A;}
</style><path class="st2" d="M1980.98,548.67c3.77-19.52,5.69-51.88,5.63-84.46l-0.4-180.33c-0.03-15.91-2.08-24.46-7.68-20.87l-21.91,14.14
	c-4.25,2.75-7.15,12.96-7.09,30.39l0.43,180.32c0.08,32.58,2.15,62.36,5.98,76.96l-64.64,41.68c3.77-19.53,5.72-51.89,5.65-84.49
	l-0.45-195.48c-0.08-32.59-2.18-62.38-6.03-76.59l54.8-35.34l1.67,36.13l0.45-0.29c2.63-23.72,7.07-41.76,14.24-46.38l42.55-27.44
	c24.27-15.64,34.93,28.36,35.14,103.38l0.35,150.02c0.05,32.58,2.15,62.35,6.01,76.95L1980.98,548.67L1980.98,548.67z"/></svg>