<svg version="1.1" id="Layer_1" xmlns="http://www.w3.org/2000/svg" xmlns:xlink="http://www.w3.org/1999/xlink" x="0px" y="0px" viewBox="0 0 2500 2500" style="enable-background:new 0 0 2500 2500;" xml:space="preserve"><style type="text/css">
	.st0{fill-rule:evenodd;clip-rule:evenodd;fill:#04593C;stroke:#04593C;stroke-width:1.984;stroke-miterlimit:2.613;}
	.st1{fill-rule:evenodd;clip-rule:evenodd;fill:#CC2131;}
	.st2{fill-rule:evenodd;clip-rule:evenodd;fill:#23835A;}
</style><path class="st2" d="M1750.43,339.5l-109.13,69.12c0,0-0.71,81.83,0.51,77.71c1.92-6.46,9.55-14.84,26.9-24.2l59.91-37.64
	c5.72-3.79,7.95,2.37,7.29,21.15c-0.64,17.99-3.22,25.03-9.43,29.13l-53.76,32.17c-22.52,14.84-32.22,51.39-34.84,126.21
	l-1.19,33.12c-2.68,77.13,5.63,100.33,28.14,85.5l42.55-28.05c12.89-8.5,19.4-21.08,22.67-54.16l0.48-0.31l1.47,39.88l57.22-37.69
	c-3.42-14.29-4.46-44.53-3.32-77.71h0l5.32-152.76C1794.73,340.75,1773.65,324.21,1750.43,339.5z M1730.67,598.19L1730.67,598.19
	c-1.14,31.87-2.71,42.98-11.78,48.71l-15.3,9.68c-9.07,5.76-11.17-0.89-10.44-20.88l1.52-52.86c0.74-20.01,3.19-30.26,13.23-36.61
	l24.82-15.71L1730.67,598.19z"/></svg>