<svg version="1.1" id="Layer_1" xmlns="http://www.w3.org/2000/svg" xmlns:xlink="http://www.w3.org/1999/xlink" x="0px" y="0px" viewBox="0 0 2500 2500" style="enable-background:new 0 0 2500 2500;" xml:space="preserve"><style type="text/css">
	.st0{fill-rule:evenodd;clip-rule:evenodd;fill:#04593C;stroke:#04593C;stroke-width:1.984;stroke-miterlimit:2.613;}
	.st1{fill-rule:evenodd;clip-rule:evenodd;fill:#CC2131;}
	.st2{fill-rule:evenodd;clip-rule:evenodd;fill:#23835A;}
</style><path class="st2" d="M1167.91,816.89c-0.16-64.49-6.76-98.96-29.44-84.33L1053,787.67c-22.7,14.62-29.1,57.49-28.95,121.98
	l0.34,150.36c0.16,64.5,6.76,98.96,29.45,84.33l85.46-55.1c22.67-14.64,29.1-57.5,28.96-121.98L1167.91,816.89z M1115.26,1008.26
	c0.05,18.22-2.19,28.03-7.35,31.36l-23,14.82c-5.18,3.33-7.44-3.57-7.5-21.78l-0.38-164.03c-0.04-18.22,2.19-28.03,7.38-31.37
	l22.98-14.81c5.18-3.35,7.44,3.57,7.5,21.78L1115.26,1008.26L1115.26,1008.26z"/></svg>