<svg version="1.1" id="Layer_1" xmlns="http://www.w3.org/2000/svg" xmlns:xlink="http://www.w3.org/1999/xlink" x="0px" y="0px" viewBox="0 0 2500 2500" style="enable-background:new 0 0 2500 2500;" xml:space="preserve"><style type="text/css">
	.st0{fill-rule:evenodd;clip-rule:evenodd;fill:#04593C;stroke:#04593C;stroke-width:1.984;stroke-miterlimit:2.613;}
	.st1{fill-rule:evenodd;clip-rule:evenodd;fill:#CC2131;}
	.st2{fill-rule:evenodd;clip-rule:evenodd;fill:#23835A;}
</style><path class="st2" d="M1627.28,418.03l-35.64,22.88c0,0-0.71-23.59-0.71-35.43c0-10.45,2.23-17.21,2.23-17.21l-59.78,38.36
	c0,0,4.44,2.52,4.01,14.02c1.01,14.32,0.35,34.4,0.35,34.4l-27.29,17.74c0,0-1.04,81.61,0.26,76.09c0.64-2.75,3.32-7.26,12.09-12.65
	c6.59-4.99,15.2-9.69,15.2-9.69l0.48,183.59c-2.87,60.58,3.45,96.26,29.44,84.47l59.73-38.56l-0.35-76.76
	c-5.37,13.98-24.08,23.66-26.24,23.66c-5.4,0-8.72,0.01-8.77-20.06l-0.48-190.5c0,0,10.21-7.54,19.93-13.99
	c6.81-4.5,13.48-5.36,15.55-3.31v-77.05L1627.28,418.03L1627.28,418.03z"/></svg>