<svg version="1.1" id="Layer_1" xmlns="http://www.w3.org/2000/svg" xmlns:xlink="http://www.w3.org/1999/xlink" x="0px" y="0px" viewBox="0 0 2500 2500" style="enable-background:new 0 0 2500 2500;" xml:space="preserve"><style type="text/css">
	.st0{fill-rule:evenodd;clip-rule:evenodd;fill:#04593C;stroke:#04593C;stroke-width:1.984;stroke-miterlimit:2.613;}
	.st1{fill-rule:evenodd;clip-rule:evenodd;fill:#CC2131;}
	.st2{fill-rule:evenodd;clip-rule:evenodd;fill:#23835A;}
</style><path class="st1" d="M963.02,1480.24c-0.05-114.13-62.93-177.79-142.93-125.7v0l-357.33,233.81c10.08,20.65,14.49,49.01,14.67,96.59
	l-0.58,0.35l0.84,442.87c0.04,49.27-4.36,83.95-14.6,118.35l384.23-250.15c80-52.06,115.91-143.23,115.86-257.37L963.02,1480.24z
	 M730.39,1935.89l-73.64,47.95l-0.82-390.58l0.6-0.4l51.37-33.14c55.63-35.03,76.05-11.83,76.05,59.8l0.17,204.35h0
	C784.13,1878.84,767.08,1911.12,730.39,1935.89z"/></svg>