<svg version="1.1" id="Layer_1" xmlns="http://www.w3.org/2000/svg" xmlns:xlink="http://www.w3.org/1999/xlink" x="0px" y="0px" viewBox="0 0 2500 2500" style="enable-background:new 0 0 2500 2500;" xml:space="preserve"><style type="text/css">
	.st0{fill-rule:evenodd;clip-rule:evenodd;fill:#04593C;stroke:#04593C;stroke-width:1.984;stroke-miterlimit:2.613;}
	.st1{fill-rule:evenodd;clip-rule:evenodd;fill:#CC2131;}
	.st2{fill-rule:evenodd;clip-rule:evenodd;fill:#23835A;}
</style><path class="st1" d="M1368.44,1002.37l-270.52,175.74c-71.92,46.72-96.16,127.82-96.17,249.11l-0.05,273.03
	c-0.01,134.94,24.18,179.05,96.12,132.33l348.02-226.09l13.2-164.38c-19.73,30.93-40.96,54.43-73.14,75.34l-175.07,113.72
	c-23.48,15.28-35.95-0.3-35.94-43.42v-61.23l289.25-187.92h0l0.05-211.81C1464.22,1005.52,1440.11,955.79,1368.44,1002.37z
	 M1296.02,1319.86L1296.02,1319.86l-121.11,78.67l0.04-90.81c0-37.72,6.6-55.98,26.43-68.86l68.22-44.33
	c19.83-12.88,26.42-3.2,26.42,34.53V1319.86z"/></svg>