<svg version="1.1" id="Layer_1" xmlns="http://www.w3.org/2000/svg" xmlns:xlink="http://www.w3.org/1999/xlink" x="0px" y="0px" viewBox="0 0 2500 2500" style="enable-background:new 0 0 2500 2500;" xml:space="preserve"><style type="text/css">
	.st0{fill-rule:evenodd;clip-rule:evenodd;fill:#04593C;stroke:#04593C;stroke-width:1.984;stroke-miterlimit:2.613;}
	.st1{fill-rule:evenodd;clip-rule:evenodd;fill:#CC2131;}
	.st2{fill-rule:evenodd;clip-rule:evenodd;fill:#23835A;}
</style><path class="st2" d="M1287.94,993.67l-1.65-36.12l-0.45,0.27c-2.63,23.73-7.07,41.79-14.24,46.39l-42.57,27.46
	c-24.27,15.63-34.94-28.35-35.12-103.24l-0.35-149.67c-0.06-32.5-2.17-62.18-6.03-76.37l58.86-37.94l0.6,260.03
	c0.04,15.88,2.08,24.41,7.67,20.8l21.93-14.14c4.23-2.74,7.12-12.92,7.09-30.31l-0.43-187.47c-0.1-32.5-1.04-55.37-4.89-69.56
	l57.73-37.2l0.64,275.14c0.08,32.57,2.15,62.36,6.03,76.57L1287.94,993.67L1287.94,993.67z"/></svg>