<svg version="1.1" id="Layer_1" xmlns="http://www.w3.org/2000/svg" xmlns:xlink="http://www.w3.org/1999/xlink" x="0px" y="0px" viewBox="0 0 2500 2500" style="enable-background:new 0 0 2500 2500;" xml:space="preserve"><style type="text/css">
	.st0{fill-rule:evenodd;clip-rule:evenodd;fill:#04593C;stroke:#04593C;stroke-width:1.984;stroke-miterlimit:2.613;}
	.st1{fill-rule:evenodd;clip-rule:evenodd;fill:#CC2131;}
	.st2{fill-rule:evenodd;clip-rule:evenodd;fill:#23835A;}
</style><g><path class="st0" d="M687.71,682.22l9.34,96.37l33.07-226.67c0.77-5.24,2.14-10.38,4.1-15.3c0.48-1.37,0.99-2.72,1.54-4.05
		l-33.18,46.35c-5.55,8.33-9.16,17.8-10.57,27.7l-9.62,54.89C685.15,667.9,686.99,674.88,687.71,682.22z"/><path class="st0" d="M1630.13,342.14c0.08-0.05,0.21-0.14,0.35-0.23c-0.11,0.07-0.22,0.15-0.34,0.22
		c-0.06-0.06-0.12-0.11-0.18-0.18C1630.02,342.02,1630.07,342.08,1630.13,342.14z"/><path class="st0" d="M2060.9,1233.14l-148.69,209.16c-13.98,19.61-36.98,27.82-58.31,20.73c-21.35-7.07-36.85-28.01-39.29-53.1
		l-9.57-98.71l-21.48,147.28l0.9-6.05c0.43,11.63,2.61,28.14,5.37,36.94c14.23,45.16,92.76,77.48,140.38,27.96
		c45.51-47.31,91.06-120.48,91.06-120.48c6.94-9.08,20.84-27.98,24.67-62.4l16.44-103.59
		C2061.9,1231.64,2061.41,1232.4,2060.9,1233.14z"/><path class="st0" d="M1760.67,1570.77l-162.78,241.54c-13.85,20.57-37.47,29.3-59.35,21.96c-21.88-7.34-37.51-29.26-39.26-55.04
		l-9.27-135.68c-4.35,6.81-10.08,12.64-16.82,17.09l-348,226.09c-46.28,30.06-86.4,34.32-119.27,12.74
		c-3.83-2.53-7.35-5.4-10.71-8.38c-23.23,68.39-63.68,122.45-120.46,159.44l-384.2,250.11c-19.84,12.92-44.68,10.58-62.36-5.9
		c-17.68-16.47-24.54-43.64-17.21-68.22c8.33-27.99,11.71-56.46,11.69-98.23l-0.36-193.76l0.45-67.08
		c-44.9,32.29-72.55,52.31-72.55,52.31c-19.87,12.63-44.71,8.27-62.25-8.26c-17.54-16.51-24.28-43.57-16.95-68.07
		c13.65-45.31,23.5-91.69,29.45-138.63c0.08-0.71,0.18-1.39,0.29-2.1L429.1,893.55l0.03-3.54c0.73-4.6,1.96-9.09,3.6-13.45
		l-46.58,64.78c-5.46,8.02-9.1,17.42-10.65,27.39c0,0-65.91,441.46-112.88,707.8c-7.6,43.03-11.39,83.9-22.77,120.45
		c-5.46,17.56-60.71,200.1,73.36,215.14c36.92,4.14,70.83-32.27,70.83-32.27c-4.47,110.48,2.41,172.54-5.69,204.38
		c-49.32,193.61,45.52,236.65,127.1,187.18l331.09-219.1c56.42-36.63,91.07-92.33,114.45-160.02c3.3,3,6.83,5.75,10.54,8.21
		c32.88,21.63,74.28,25.23,120.54-4.81l375.12-241.72c2.54,21.5,4.44,50.18,4.44,50.18c11.37,131.25,108.14,177.85,201.08,27.29
		l60.72-88.23c7.9-12.53,16.45-22.2,18.97-51.62c8.14-42.89,15.75-85.87,22.85-128.95
		C1763.92,1565.45,1762.4,1568.17,1760.67,1570.77z"/></g></svg>