<svg version="1.1" id="Layer_1" xmlns="http://www.w3.org/2000/svg" xmlns:xlink="http://www.w3.org/1999/xlink" x="0px" y="0px" viewBox="0 0 2500 2500" style="enable-background:new 0 0 2500 2500;" xml:space="preserve"><style type="text/css">
	.st0{fill-rule:evenodd;clip-rule:evenodd;fill:#04593C;stroke:#04593C;stroke-width:1.984;stroke-miterlimit:2.613;}
	.st1{fill-rule:evenodd;clip-rule:evenodd;fill:#CC2131;}
	.st2{fill-rule:evenodd;clip-rule:evenodd;fill:#23835A;}
</style><path class="st2" d="M1448.76,890.74c3.77-19.52,5.69-51.88,5.63-84.46l-0.43-180.33c-0.03-15.91-2.08-24.46-7.65-20.86
	l-21.93,14.12c-4.23,2.74-7.12,12.96-7.07,30.39l0.4,180.33c0.08,32.58,2.18,62.36,6.01,76.98l-64.64,41.67
	c3.75-19.53,5.69-51.91,5.63-84.47l-0.45-195.49c-0.08-32.59-2.15-62.37-6.03-76.59l54.82-35.34l1.65,36.13l0.45-0.29
	c2.66-23.73,7.07-41.78,14.27-46.39l42.55-27.44c24.24-15.63,34.93,28.35,35.11,103.37l0.35,150.02
	c0.08,32.58,2.15,62.35,6.03,76.95L1448.76,890.74L1448.76,890.74z"/></svg>