<svg version="1.1" id="Layer_1" xmlns="http://www.w3.org/2000/svg" xmlns:xlink="http://www.w3.org/1999/xlink" x="0px" y="0px" viewBox="0 0 501.14 292.89" style="enable-background:new 0 0 501.14 292.89;" xml:space="preserve"><style type="text/css">
	.st0{fill:#CB004C;}
	.st1{fill:#6460A9;}
	.st2{fill:#F27021;}
	.st3{fill:#0088CF;}
	.st4{fill:#FBB611;}
	.st5{fill:#0DB04B;}
</style><path class="st1" d="M281.13,243.19c-1.75-11.42-3.32-21.42-4.82-31.44c-5.55-37.19-11.16-74.37-16.58-111.57
	c-2.12-14.55,2.39-22.09,13.07-26.61c1.28-0.54,3.45-0.95,3.03-2.71c-0.4-1.65-2.5-2.19-4.15-2.27c-4.16-0.21-8.33-0.34-12.49-0.18
	c-2.72,0.11-3.4-1.06-3.49-3.49c-0.97-25.63,19.45-47.68,45.09-49.48c28.52-2.01,50.65,22.26,51.68,45.01
	c0.36,7.96-0.62,15.64-3.71,22.97c-22,52.29-44.04,104.56-66.07,156.83C282.44,240.85,282.09,241.4,281.13,243.19z"/></svg>