<svg version="1.1" id="NEW_YORK_GIANTS" xmlns="http://www.w3.org/2000/svg" xmlns:xlink="http://www.w3.org/1999/xlink" x="0px" y="0px" viewBox="0 0 2500 1963" style="enable-background:new 0 0 2500 1963;" xml:space="preserve"><style type="text/css">
	.st0{fill:#B21E35;}
	.st1{fill:#25316A;}
</style><path class="st1" d="M435.72,1291.13h277.97l-0.77-691.83v-1.54c0-0.77-4.63-41.7,20.08-70.26c17.76-20.08,47.87-30.89,88.8-30.89
	c31.66,0,56.37,8.49,72.58,25.48c27.8,28.57,27.02,72.58,27.02,73.35l0.77,545.9c0,2.32-1.54,68.72,40.15,112.73
	c23.94,24.71,55.59,37.06,94.97,37.06h259.44v-222.38l-27.8,3.86c-0.77,0-40.15,5.41-65.63-16.21
	c-14.67-12.35-22.39-33.2-22.39-61.77V480.38c0-3.09,3.09-100.38-64.86-171.41c-44.78-46.33-108.87-70.26-189.95-70.26
	c-122,0-195.35,47.1-237.05,90.34v-69.49H296.74v230.1l29.34-6.95c0.77,0,54.82-11.58,85.71,15.44
	c15.44,13.9,23.94,37.06,23.94,67.95V1291.13L435.72,1291.13z"/></svg>