<svg version="1.1" id="NEW_YORK_GIANTS" xmlns="http://www.w3.org/2000/svg" xmlns:xlink="http://www.w3.org/1999/xlink" x="0px" y="0px" viewBox="0 0 2500 1963" style="enable-background:new 0 0 2500 1963;" xml:space="preserve"><style type="text/css">
	.st0{fill:#B21E35;}
	.st1{fill:#25316A;}
</style><path class="st1" d="M1423.29,1025.51c0,82.62,27.02,152.88,77.99,203.07c53.28,53.28,130.49,82.62,216.97,81.85
	c92.66,0,158.29-31.66,197.67-57.91v72.58c0,61.77-2.32,100.38-16.99,115.82c-10.81,10.81-34.75,15.44-83.39,15.44l-1379.81,0.77
	v265.61l1486.36-0.77c101.92,0,178.36-28.57,227.01-84.16c47.87-54.82,54.82-121.23,54.82-155.97c0-10.81-0.77-17.76-0.77-20.85
	l-0.77-1202.99h-288.01l0.77,664.04c0,5.4-1.54,130.49-104.24,131.26c-27.8,0-49.42-7.72-65.63-24.71
	c-35.52-36.29-33.97-100.38-33.97-101.15l-0.77-669.44h-416.95v223.15h23.94c45.56,0,77.99,10.04,93.43,29.34
	s11.58,42.47,10.81,43.24v471.78H1423.29z"/></svg>