<svg version="1.1" id="NEW_YORK_GIANTS" xmlns="http://www.w3.org/2000/svg" xmlns:xlink="http://www.w3.org/1999/xlink" x="0px" y="0px" viewBox="0 0 2500 1963" style="enable-background:new 0 0 2500 1963;" xml:space="preserve"><style type="text/css">
	.st0{fill:#B21E35;}
	.st1{fill:#25316A;}
</style><path class="st0" d="M2232.49,1461.77V230.21l-54.05-0.77h-293.41l0.77,693.38c0,16.99-4.63,101.15-74.13,101.15
	c-25.48,0-37.83-9.27-44.01-15.44c-21.62-22.39-26.25-64.86-25.48-79.53l-0.77-699.56H1265v282.6h54.05
	c49.42,0,65.63,12.35,70.26,17.76c4.63,5.4,5.4,12.35,5.4,16.21v3.09c0,1.54-0.77,3.86-0.77,3.86v471.78
	c0,90.34,30.11,168.33,86.48,224.69c58.68,58.68,143.62,91.11,238.59,91.11c69.49,0,125.86-16.99,168.33-37.06v20.08
	c0,47.87-1.54,88.02-8.49,97.29c-1.54,1.54-12.35,6.95-61.77,6.95H406.38v325.84h1515.7c111.19,0,194.58-32.43,249.4-94.2
	c54.05-61.77,61-137.44,61-176.05C2232.49,1473.35,2233.26,1466.4,2232.49,1461.77z M2149.09,1637.82
	c-48.64,55.59-125.09,84.16-227.01,84.16l-1486.36,0.77v-265.61l1379.81-0.77c48.64,0,72.58-4.63,83.39-15.44
	c14.67-15.44,16.99-54.05,16.99-115.82v-72.58c-39.38,26.25-105.01,57.91-197.67,57.91c-86.48,0.77-163.69-28.57-216.97-81.85
	c-50.96-50.19-77.99-120.45-77.99-203.07h-1.54V553.74c0.77-0.77,4.63-23.94-10.81-43.24c-15.44-19.3-47.87-29.34-93.43-29.34
	h-23.94V258.01h416.95l0.77,669.44c0,0.77-1.54,64.86,33.97,101.15c16.21,16.99,37.83,24.71,65.63,24.71
	c102.69-0.77,104.24-125.86,104.24-131.26l-0.77-664.04h288.01l0.77,1202.99c0,3.09,0.77,10.04,0.77,20.85
	C2203.92,1516.59,2196.97,1582.99,2149.09,1637.82z"/></svg>