<svg version="1.1" id="NEW_YORK_GIANTS" xmlns="http://www.w3.org/2000/svg" xmlns:xlink="http://www.w3.org/1999/xlink" x="0px" y="0px" viewBox="0 0 2500 1963" style="enable-background:new 0 0 2500 1963;" xml:space="preserve"><style type="text/css">
	.st0{fill:#B21E35;}
	.st1{fill:#25316A;}
</style><path class="st0" d="M1283.53,1041.73c-6.95,0.77-30.11,1.54-41.7-9.27c-10.04-8.49-12.35-26.25-13.13-39.38V481.16
	c0-4.63,4.63-114.28-72.58-193.81c-49.42-51.73-120.45-77.99-210.02-77.99c-92.66,0-159.83,25.48-207.7,57.14v-37.06H266.63v296.5
	l65.63-13.9c13.13-3.09,44.78-4.63,59.45,9.27c10.81,9.27,13.9,28.57,13.9,45.56l0.77,753.6h337.42l-0.77-722.72l-0.77-3.86
	c0,0-3.09-29.34,13.13-47.87c14.67-16.99,44.01-20.08,65.63-20.08c23.16,0,40.15,5.4,51.73,16.21
	c15.44,16.21,18.53,43.24,18.53,51.73v1.54l0.77,543.6c-0.04,11.53-0.26,83.92,48.65,134.33c29.34,30.11,69.49,46.33,115.82,45.56
	h288.78v-284.92L1283.53,1041.73z M1316.73,1291.13h-259.44c-39.38,0-71.04-12.35-94.97-37.06
	c-41.7-44.01-40.15-110.42-40.15-112.73l-0.77-545.9c0-0.77,0.77-44.78-27.02-73.35c-16.21-16.99-40.92-25.48-72.58-25.48
	c-40.92,0-71.04,10.81-88.8,30.89c-24.71,28.57-20.08,69.49-20.08,70.26v1.54l0.77,691.83H435.72v0V566.09
	c0-30.89-8.49-54.05-23.94-67.95c-30.89-27.02-84.93-15.44-85.71-15.44l-29.34,6.95v-230.1h412.32v69.49
	c41.7-43.24,115.05-90.34,237.05-90.34c81.07,0,145.16,23.94,189.95,70.26c67.95,71.04,64.86,168.33,64.86,171.41v514.24
	c0,28.57,7.72,49.42,22.39,61.77c25.48,21.62,64.86,16.21,65.63,16.21l27.8-3.86V1291.13z"/></svg>