<svg version="1.1" id="Layer_1" xmlns="http://www.w3.org/2000/svg" xmlns:xlink="http://www.w3.org/1999/xlink" x="0px" y="0px" viewBox="0 0 2500 2500" style="enable-background:new 0 0 2500 2500;" xml:space="preserve"><path d="M408.83,1425.64c0,19.71,15.19,33.14,34.41,33.14c19.21,0,34.41-13.51,34.41-33.14c0-19.7-15.12-33.2-34.41-33.2
	C423.94,1392.43,408.83,1405.94,408.83,1425.64z M467.2,1425.64c0,13.35-10.38,23.64-23.96,23.64c-13.76,0-23.97-10.05-23.97-23.64
	c0-13.58,10.13-23.71,23.97-23.71C456.91,1401.93,467.2,1412.21,467.2,1425.64z"/><path d="M2006.85,682.55c19.21,0,34.41-13.51,34.41-33.12c0.01-19.69-15.1-33.2-34.41-33.2c-19.3,0-34.41,13.51-34.41,33.2
	C1972.44,669.12,1987.64,682.55,2006.85,682.55z M2006.85,625.73c13.67,0,23.97,10.28,23.97,23.71c0,13.35-10.38,23.64-23.97,23.64
	c-13.76,0-23.97-10.05-23.97-23.64C1982.88,635.86,1993.01,625.73,2006.85,625.73z"/></svg>