<svg version="1.1" id="Layer_1" xmlns="http://www.w3.org/2000/svg" xmlns:xlink="http://www.w3.org/1999/xlink" x="0px" y="0px" viewBox="0 0 2500 2500" style="enable-background:new 0 0 2500 2500;" xml:space="preserve"><path d="M408.83,1425.64c0,19.71,15.19,33.14,34.41,33.14c19.21,0,34.41-13.51,34.41-33.14c0-19.7-15.12-33.2-34.41-33.2
	C423.94,1392.43,408.83,1405.94,408.83,1425.64z M467.2,1425.64c0,13.35-10.38,23.64-23.96,23.64c-13.76,0-23.97-10.05-23.97-23.64
	c0-13.58,10.13-23.71,23.97-23.71C456.91,1401.93,467.2,1412.21,467.2,1425.64z"/><path d="M429.16,1407.79v35.71h9.01v-15.2h1.52l8.21,15.2h10.36l-9.16-15.52c4.82-0.23,8.6-2.72,8.6-9.4
	c0-8.61-5.63-10.78-15.03-10.78H429.16z M448.22,1417.67c0,3.71-1.76,4.51-4.9,4.51h-5.14v-8.29h4.33
	C445.17,1413.9,448.22,1414.21,448.22,1417.67z"/></svg>