<svg version="1.1" id="Layer_1" xmlns="http://www.w3.org/2000/svg" xmlns:xlink="http://www.w3.org/1999/xlink" x="0px" y="0px" viewBox="0 0 2500 2500" style="enable-background:new 0 0 2500 2500;" xml:space="preserve"><path d="M408.83,1425.64c0,19.71,15.19,33.14,34.41,33.14c19.21,0,34.41-13.51,34.41-33.14c0-19.7-15.12-33.2-34.41-33.2
	C423.94,1392.43,408.83,1405.94,408.83,1425.64z M467.2,1425.64c0,13.35-10.38,23.64-23.96,23.64c-13.76,0-23.97-10.05-23.97-23.64
	c0-13.58,10.13-23.71,23.97-23.71C456.91,1401.93,467.2,1412.21,467.2,1425.64z"/><path d="M2446.21,1012.07c-3.39,0.85-323.7,87.61-693.16,187.71l18.34-51.1h-181.46l59.62-159.53h149.55l46.02-122.64h-149.55
	l51.27-138.59h157.52l41.8-109.69h-474.62l-162.97,197.43l75.24-197.43h-157.54L981.46,1276.3h155.55l104.52-275.19l7.16,275.19
	l223.76-0.49c-424,114.89-825.97,223.83-825.97,223.83c-227.36,63.82-486.6-75.28-299.15-450.17v0
	c-217.36,255.26-422.4,594.9-241.29,751.3c175.49,151.56,394.85,61.83,544.42,2s1802.73-777.73,1802.73-777.73
	C2469.15,1017.06,2466.16,1007.09,2446.21,1012.07z M1403,1232.43l-9.97-342.99l235.18-258.22L1403,1232.43L1403,1232.43z"/></svg>