<svg version="1.1" id="Layer_1" xmlns="http://www.w3.org/2000/svg" xmlns:xlink="http://www.w3.org/1999/xlink" x="0px" y="0px" viewBox="0 0 2500 2500" style="enable-background:new 0 0 2500 2500;" xml:space="preserve"><style type="text/css">
	.st0{fill-rule:evenodd;clip-rule:evenodd;fill:#CC2131;}
	.st1{fill:#CC2131;}
</style><path class="st1" d="M2104.69,1190.3L2104.69,1190.3c-68.27,0-123.61,47.05-123.61,105.11c0,58.01,55.35,105.06,123.61,105.06
	c68.35,0,123.69-47.04,123.69-105.06C2228.39,1237.35,2173.05,1190.3,2104.69,1190.3z M2138.69,1295.28c0-0.01,0-0.02,0-0.03
	c0,1.81-0.05,28.53-0.05,39.52c0,29.82-17.6,42.15-34.6,42.15c-16.93,0-34.66-12.33-34.66-42.15c0-11.37,0.05-40.32,0.05-40.32
	s0.08-27.66,0.08-39.04c0-29.7,17.65-41.92,34.53-41.92s34.6,12.22,34.6,41.92c0,11.36,0,32.27,0.05,39.84c0-0.06,0-0.1,0-0.1
	V1295.28z"/></svg>