<svg version="1.1" id="Layer_1" xmlns="http://www.w3.org/2000/svg" xmlns:xlink="http://www.w3.org/1999/xlink" x="0px" y="0px" viewBox="0 0 2500 2500" style="enable-background:new 0 0 2500 2500;" xml:space="preserve"><style type="text/css">
	.st0{fill-rule:evenodd;clip-rule:evenodd;fill:#CC2131;}
	.st1{fill:#CC2131;}
</style><path class="st1" d="M1415.11,1297.47c0-58.05-56-106.13-124.83-106.13c-68.79,0-124.6,47.05-124.6,105.04
	c0,58.07,55.81,105.12,124.6,105.12c57.09,0,105.3-32.61,120.07-76.83l-84.39,0.08h0c0,0,0.08,0.83,0.08,11.37
	c0,34.23-22.52,41.85-34.98,41.85c-12.52,0-35.43-7.63-35.43-41.85c0-10.28,0.13-38.65,0.13-38.65S1415.11,1297.52,1415.11,1297.47z
	 M1255.68,1268.3c-0.16-16.37,0.18-27.31,5.55-36.73c6.66-11.51,18.8-16.99,29.79-17.05c-0.01,0-0.02,0-0.03,0h0.05
	c-0.01,0-0.02,0-0.03,0c11.07,0.06,23.13,5.55,29.74,17.05c5.37,9.4,5.68,20.36,5.55,36.73H1255.68L1255.68,1268.3z"/></svg>