<svg version="1.1" id="Layer_1" xmlns="http://www.w3.org/2000/svg" xmlns:xlink="http://www.w3.org/1999/xlink" x="0px" y="0px" viewBox="0 0 2500 2500" style="enable-background:new 0 0 2500 2500;" xml:space="preserve"><style type="text/css">
	.st0{fill-rule:evenodd;clip-rule:evenodd;fill:#CC2131;}
	.st1{fill:#CC2131;}
</style><path class="st1" d="M1869.97,1212.34c-13.55-7.59-27.81-14.9-47.9-16.69c-60.95-5.34-107.58,48.57-107.58,98.01
	c0,65.07,50.26,89.19,57.88,92.76c28.48,13.24,65.08,13.29,97.43-7.02l0.05,10.76h83.64V1108.8h-83.51L1869.97,1212.34z
	 M1870.59,1295.71v33.18c0,28.92-19.96,36.47-33.14,36.47c-13.5,0-33.22-7.55-33.22-36.47c0-9.97,0.05-33.25,0.05-33.25
	s-0.05-23.81-0.05-33.36c0-28.95,19.71-36.32,33.22-36.32c13.18,0,33.14,7.37,33.14,36.32V1295.71z"/></svg>