<svg version="1.1" id="Layer_1" xmlns="http://www.w3.org/2000/svg" xmlns:xlink="http://www.w3.org/1999/xlink" x="0px" y="0px" viewBox="0 0 2500 2500" style="enable-background:new 0 0 2500 2500;" xml:space="preserve"><style type="text/css">
	.st0{fill-rule:evenodd;clip-rule:evenodd;fill:#CC2229;}
	.st1{fill:#255398;}
	.st2{fill-rule:evenodd;clip-rule:evenodd;fill:#255398;}
</style><path class="st1" d="M2155.6,967.14c14.97-68.56,17.68-147.87-100.75-147.87h-132.03c-39.47,0-59.88,1.35-51.72-30.92
	c6.81-33.62,28.57-29.57,77.58-29.57v0.01h240.94l24.5-112.93h-283.13c-106.17,0-172.86,51.09-191.91,141.15
	c-17.72,79.31-5.45,143.83,88.45,143.83h137.51c44.91,0,66.7-4.03,58.52,32.26c-8.16,36.3-29.95,29.57-78.93,29.57h-240.95
	l-24.5,111.58h277.68C2061.67,1104.26,2135.19,1063.94,2155.6,967.14z"/></svg>