<svg version="1.1" id="Layer_1" xmlns="http://www.w3.org/2000/svg" xmlns:xlink="http://www.w3.org/1999/xlink" x="0px" y="0px" viewBox="0 0 2500 2500" style="enable-background:new 0 0 2500 2500;" xml:space="preserve"><style type="text/css">
	.st0{fill-rule:evenodd;clip-rule:evenodd;fill:#CC2229;}
	.st1{fill:#255398;}
	.st2{fill-rule:evenodd;clip-rule:evenodd;fill:#255398;}
</style><path class="st2" d="M1405.3,1051.23c5.07,0,10.03,1.3,14.86,3.89c4.84,2.63,8.61,6.36,11.3,11.21c2.71,4.85,4.05,9.91,4.05,15.19
	c0,5.2-1.32,10.22-4.01,15.03c-2.63,4.82-6.38,8.56-11.17,11.21c-9.33,5.34-20.79,5.34-30.12,0c-4.73-2.59-8.63-6.48-11.22-11.21
	c-2.62-4.58-4-9.76-4.01-15.03c0-5.28,1.36-10.34,4.05-15.19c2.74-4.86,6.51-8.57,11.35-11.21
	C1395.24,1052.52,1400.2,1051.23,1405.3,1051.23L1405.3,1051.23z M1405.3,1056.24c-4.28,0-8.4,1.08-12.41,3.27
	c-3.99,2.13-7.27,5.37-9.45,9.33c-4.55,7.77-4.57,17.4-0.05,25.19c2.23,4.01,5.34,7.13,9.35,9.36c4.03,2.23,8.18,3.35,12.57,3.35
	c4.36,0,8.53-1.12,12.54-3.35c4.03-2.23,7.12-5.36,9.35-9.36c2.2-3.99,3.32-8.16,3.32-12.5c0-4.41-1.12-8.61-3.37-12.68
	c-2.19-3.95-5.47-7.19-9.45-9.33C1413.9,1057.4,1409.64,1056.27,1405.3,1056.24L1405.3,1056.24z M1391.99,1098.24v-32.57h11.19
	c3.83,0,6.59,0.29,8.29,0.89c1.68,0.57,3.12,1.68,4.1,3.15c1.04,1.49,1.54,3.09,1.54,4.77c0.02,2.33-0.9,4.57-2.55,6.21
	c-1.79,1.82-4.21,2.88-6.76,2.97c1.17,0.48,2.08,1.05,2.76,1.72c1.32,1.28,2.92,3.44,4.81,6.47l3.98,6.37h-6.43l-2.87-5.14
	c-2.28-4.03-4.1-6.56-5.5-7.57c-0.96-0.75-2.39-1.12-4.23-1.12h-3.06v13.83L1391.99,1098.24L1391.99,1098.24z M1397.26,1079.91h6.38
	c3.04,0,5.12-0.48,6.23-1.37c1.09-0.88,1.71-2.22,1.67-3.62c-0.03-1.92-1.23-3.63-3.03-4.29c-0.96-0.38-2.68-0.57-5.29-0.57h-5.95
	V1079.91z"/></svg>