<svg version="1.1" id="Layer_1" xmlns="http://www.w3.org/2000/svg" xmlns:xlink="http://www.w3.org/1999/xlink" x="0px" y="0px" viewBox="0 0 1715.5 521" style="enable-background:new 0 0 1715.5 521;" xml:space="preserve"><style type="text/css">
	.st0{fill:none;}
</style><g><path class="st0" d="M1172.63,371.11h300.57c1.1,0,2.24-1.13,2.24-2.25V183.83c0-4.13-3.74-4.5-5.62-3l-299.03,185.03
		c-1.9,1.13-2.64,2.25-2.24,3.76C1168.89,370.37,1170.04,371.11,1172.63,371.11L1172.63,371.11z"/><path d="M1114.8,405.64h358.41c1.1,0,1.84,0.75,1.84,1.5v30.4c0,1.5,1.14,2.25,2.24,2.25h64.6c1.14,0,2.23-0.75,2.23-2.25V407.9
		c0-1.13,1.14-2.25,2.24-2.25h64.2c1.5,0,2.24-1.13,2.24-2.25v-30.03c0-1.13-0.75-2.25-2.24-2.25h-64.2c-1.1,0-2.24-1.13-2.24-2.25
		V152.3c0-17.67-6.56-28.93-17.61-32.66h-18.69c-5.83,1.5-12.16,4.18-18.95,8.26l-386.02,238.33
		c-14.94,9.38-20.17,19.88-16.43,27.77C1089.41,400.76,1097.97,405.64,1114.8,405.64L1114.8,405.64z M1170.79,365.86l299.03-185.03
		c1.89-1.5,5.63-1.12,5.63,3v185.04c0,1.13-1.14,2.25-2.24,2.25h-300.57c-2.59,0-3.74-0.74-4.09-1.5
		C1168.15,368.11,1168.9,366.99,1170.79,365.86L1170.79,365.86z"/></g></svg>