<svg version="1.1" id="Layer_1" xmlns="http://www.w3.org/2000/svg" xmlns:xlink="http://www.w3.org/1999/xlink" x="0px" y="0px" viewBox="0 0 1715.5 521" style="enable-background:new 0 0 1715.5 521;" xml:space="preserve"><style type="text/css">
	.st0{fill:none;}
</style><path d="M1115.72,119.65H887.51c-49.47,6.29-73.63,40.76-73.63,84.82v149c0,30.4-14.58,52.17-44.44,52.17H572.34
	c-1.12,0-2.24,0.76-2.24,2.25v29.65c0,1.23,0.76,2.18,1.64,2.49h223.79c58.32-1.53,87.04-38.77,87.04-86.55l0,0v-149
	c0-30.4,14.19-52.17,44.45-52.17h186.64c1.14,0,2.24-1.13,2.24-2.26V120.4C1115.88,120.14,1115.82,119.88,1115.72,119.65z"/></svg>