<svg version="1.1" id="Layer_1" xmlns="http://www.w3.org/2000/svg" xmlns:xlink="http://www.w3.org/1999/xlink" x="0px" y="0px" viewBox="0 0 1715.5 521" style="enable-background:new 0 0 1715.5 521;" xml:space="preserve"><style type="text/css">
	.st0{fill:none;}
</style><path d="M511.77,119.65H114.55c-0.11,0.25-0.31,0.44-0.31,0.76v29.65c0,1.5,0.75,2.26,2.24,2.26h355.79
	c30.24,0,44.43,21.77,44.43,52.17c0,30.4-14.19,52.17-44.43,52.17H190.77c-43.68,0-76.53,37.16-76.53,85.95v94.97
	c-0.01,1.22,0.52,2.16,1.52,2.47h0h65.53c1.01-0.4,1.67-1.39,1.64-2.48v-94.96c0-30.4,17.17-51.42,42.18-51.42h269.93
	c60.85,0,90.35-37.53,90.35-86.7C585.39,160.41,561.26,125.93,511.77,119.65z"/></svg>