<svg version="1.1" id="Layer_1" xmlns="http://www.w3.org/2000/svg" xmlns:xlink="http://www.w3.org/1999/xlink" x="0px" y="0px" viewBox="0 0 2500 2500" style="enable-background:new 0 0 2500 2500;" xml:space="preserve"><style type="text/css">
	.st0{fill:#142C61;}
</style><path class="st0" d="M987.1,1410.83l-116.12-100.09c-29.35,9.31-66.72,6.65-97.42-4.01h0c-2.67,0-4.01-1.35-6.68-1.36
	c-8-4.01-17.34-6.69-21.35-14.69h84.07c0.31,0,0.62,0,0.92,0c59.45-0.25,107.43-48.65,107.18-108.09c0-0.3,0-0.6,0-0.9
	c-0.25-59.45-48.65-107.44-108.1-107.19H569.37c-3.99,0-10.67-1.32-10.67,4.01c0,1.34,2.66,4.01,5.33,4.01
	c32.02,10.67,36.03,28.03,37.37,52.05v230.91c-1.32,25.36-5.33,41.37-37.37,52.03c-2.66,1.34-5.33,2.68-5.33,5.34
	c0,4.01,6.68,4.01,10.67,4.01h161.49c2.67,0,9.35,0,9.35-4.01c0-2.66-1.34-3.99-4.01-5.34c-28.01-9.35-36.02-24.02-37.37-44.03
	v-82.76l74.74,60.06l92.09,76.07h122.77c2.67,0,9.35,0,9.35-4.01c0-1.35,0-2.66-1.35-4.01L987.1,1410.83z M698.82,1265.36v-169.5
	h85.42c34.69,0,64.06,37.37,64.06,84.07c0,48.05-29.36,85.43-64.06,85.43h-10.67h0H698.82z"/></svg>