<svg version="1.1" id="Layer_1" xmlns="http://www.w3.org/2000/svg" xmlns:xlink="http://www.w3.org/1999/xlink" x="0px" y="0px" viewBox="0 0 2500 2500" style="enable-background:new 0 0 2500 2500;" xml:space="preserve"><style type="text/css">
	.st0{fill:#142C61;}
</style><path class="st0" d="M2384.36,1417.49c-6.67-2.66-14.67-4.01-21.34-9.35c-8.03-3.98-14.69-12.01-20.04-19.99l-178.81-314.97h-42.71
	v-0.03h-97.44c-1.35,1.34-4.01,0-4.01,2.67c-1.34,2.67,0,4.01,4.01,5.34c6.67,2.67,13.35,2.67,20.01,6.68
	c14.68,8,28.04,21.35,41.36,42.71l14.69,25.36l-101.42,212.19l-9.35,20.04c-5.32,7.98-12.01,16-20.01,19.99
	c-6.68,5.34-14.66,6.69-21.35,9.35c-3.99,1.34-5.34,2.68-5.34,5.34c0,4.01,6.69,4.01,9.35,4.01h73.41c2.66,0,9.35,0,9.35-4.01
	c0-2.66-1.35-3.99-4.03-5.34c-8-2.66-14.66-6.67-16-14.67c-2.66-10.69,1.35-16.02,12.01-37.37c8.03-20.03,18.69-38.7,20.04-44.05
	l1.32-2.66h149.48c9.61,18.99,18.95,38.12,28.01,57.38c6.67,12.04,9.35,17.35,6.67,26.7c-2.66,8-7.98,12.01-15.98,14.67
	c-2.68,1.34-5.37,2.68-5.37,5.34c0,4.01,8.03,4.01,10.69,4.01h158.8c2.68,0,9.35,0,9.35-4.01
	C2389.71,1420.18,2387.05,1418.84,2384.36,1417.49z M2121.46,1297.38L2121.46,1297.38h-62.72l56.03-117.45l6.69,10.69l62.72,106.77
	H2121.46z"/></svg>