<svg version="1.1" id="Layer_1" xmlns="http://www.w3.org/2000/svg" xmlns:xlink="http://www.w3.org/1999/xlink" x="0px" y="0px" viewBox="0 0 2500 2500" style="enable-background:new 0 0 2500 2500;" xml:space="preserve"><style type="text/css">
	.st0{fill:#142C61;}
</style><path class="st0" d="M1727.77,1074.51h-201.51c-4.01,0-10.66-1.34-10.66,4.01c0,1.34,2.66,4.01,5.32,4.01
	c29.36,9.34,36.04,25.36,37.37,45.38v244.22c-1.32,21.35-8,36.02-37.37,45.37c-2.66,1.35-5.32,2.68-5.32,5.34
	c0,4.01,6.67,4.01,10.66,4.01h129.45v-1.35h66.72v-0.01l0,0h5.34C1973.34,1425.48,1970.68,1074.51,1727.77,1074.51z
	 M1790.52,1330.74c0,37.37-30.7,68.07-68.09,68.07h-66.73v-298.94h66.73v0c37.39,0,68.09,30.7,68.09,68.05V1330.74z"/></svg>