<svg version="1.1" id="Layer_1" xmlns="http://www.w3.org/2000/svg" xmlns:xlink="http://www.w3.org/1999/xlink" x="0px" y="0px" viewBox="0 0 2500 2500" style="enable-background:new 0 0 2500 2500;" xml:space="preserve"><style type="text/css">
	.st0{fill:#142C61;}
</style><path class="st0" d="M1478.23,1417.49c-8-2.66-16.03-4.01-22.7-9.35c-8-3.98-14.68-12.01-18.69-19.99l-178.83-314.97h-44.05v-0.03
	h-96.08c-1.35,1.34-4.02,0-5.34,2.67c-1.35,2.67,1.32,4.01,3.99,5.34c8.02,2.67,13.35,2.67,21.36,6.68
	c13.35,8,28.03,21.35,41.37,42.71l14.68,25.36l-102.77,212.19l-9.34,20.04c-3.99,7.98-12.01,16-18.68,19.99
	c-8.02,5.34-14.68,6.69-22.7,9.35c-2.67,1.34-5.34,2.68-5.34,5.34c0,4.01,8.02,4.01,10.69,4.01h72.09c3.99,0,10.66,0,10.66-4.01
	c0-2.66-2.67-3.99-5.33-5.34c-8.02-2.66-13.35-6.67-16.02-14.67c-2.67-10.69,2.66-16.02,12-37.37c9.34-20.03,18.69-38.7,20.03-44.05
	l1.32-2.66h149.52c9.33,18.68,19.99,37.37,29.34,57.38c5.34,12.04,8,17.35,5.34,26.7c-1.35,8-8,12.01-14.69,14.67
	c-3.99,1.34-5.32,2.68-5.32,5.34c0,4.01,6.67,4.01,9.35,4.01h158.79c2.66,0,10.66,0,10.66-4.01
	C1483.55,1420.18,1480.89,1418.84,1478.23,1417.49z M1213.97,1297.38L1213.97,1297.38l-62.71,0l56.04-117.45l6.67,10.69
	l62.72,106.77H1213.97z"/></svg>