<svg version="1.1" id="Layer_1" xmlns="http://www.w3.org/2000/svg" xmlns:xlink="http://www.w3.org/1999/xlink" x="0px" y="0px" viewBox="0 0 2500 2500" style="enable-background:new 0 0 2500 2500;" xml:space="preserve"><style type="text/css">
	.st0{fill:#142C61;}
</style><path class="st0" d="M383.88,1074.49H119.65c-2.67,0-9.35-1.32-9.35,4.01c0,1.34,1.34,4.01,5.34,4.01
	c29.35,10.67,36.03,26.69,36.03,48.05v238.89c0,22.67-6.67,38.68-36.03,48.03c-4.01,1.34-5.34,2.68-5.34,5.34
	c0,4.01,6.68,4.01,9.35,4.01h32.02v-0.03h130.79c2.67,0,9.34,0,9.34-4.01c0-2.66-1.32-3.99-5.33-5.34
	c-28.03-9.35-34.69-24.02-36.04-45.37v-81.41h133.46c60.05,0,109.44-48.03,109.44-108.09
	C493.32,1122.53,443.93,1074.49,383.88,1074.49z M338.51,1265.37h-88.09v-169.5h76.07h12.02c36.03,0,64.06,37.37,64.06,84.07
	C402.57,1227.99,374.54,1265.37,338.51,1265.37z"/></svg>