<svg version="1.1" id="Layer_1" xmlns="http://www.w3.org/2000/svg" xmlns:xlink="http://www.w3.org/1999/xlink" x="0px" y="0px" viewBox="0 0 2048 2500" style="enable-background:new 0 0 2048 2500;" xml:space="preserve"><style type="text/css">
	.st0{fill:#E51B23;}
	.st1{fill:url(#SVGID_1_);}
	.st2{fill:url(#SVGID_2_);}
	.st3{fill:url(#SVGID_3_);}
	.st4{fill:url(#SVGID_4_);}
	.st5{fill:url(#SVGID_5_);}
	.st6{fill:#B76E23;}
	.st7{fill:url(#SVGID_8_);}
	.st8{fill:url(#SVGID_9_);}
	.st9{fill:#F58220;}
	.st10{fill:url(#SVGID_10_);}
	.st11{fill:url(#SVGID_11_);}
	.st12{fill:url(#SVGID_12_);}
	.st13{fill:url(#SVGID_13_);}
	.st14{fill:url(#SVGID_14_);}
	.st15{fill:url(#SVGID_15_);}
	.st16{fill:url(#SVGID_16_);}
	.st17{fill:#FFFBC8;}
	.st18{fill:url(#SVGID_17_);}
	.st19{fill:url(#SVGID_18_);}
	.st20{fill:url(#SVGID_19_);}
	.st21{fill:url(#SVGID_20_);}
</style><path d="M1557.38,746.46c-24.33-125.67-118.18-220.85-236.2-271.29c35.94-16.93,43.01-61.81,37.6-75.05
	c-1.36-3.33-2.66-3.76-5.93-2.23c-6.94,3.22-18.21,7.36-31.31,7.95c-51.85,2.27-65.75-50.27-134.68-69.58
	c-33.3-9.31-79.71-4.91-118.41,21.44c8.69-20.79,27.53-32.73,46.3-39.31c22.36-7.85,35.32-6.98,41.63-8.56
	c10.86-2.72,0.43-14.24-16.21-18.98c-18.62-5.34-48.11-7.97-81.51,3.87c-40.27,14.28-82.58,44.25-97.1,114.91
	c-74.31-50.34-141.78-77.8-201.05-81.41c-87.11-5.27-130.66,41.92-141.2,71.22c-8.63,2.63-17.13,5.67-25.47,9.1
	c-94.39,39.05-82.89,121.59-80.23,134.02c-27.56,24.86-36.43,60.4-31.85,98.43c-95,91.94-157.17,214.07-157.27,330.92
	c-0.16,225.17,198.22,355.03,475.38,349.87c0,0,4.05,34.28-0.31,43.02c6.65,0.73,20.81-0.09,23.02,8.46
	c8.28,32.53,0.38,63.43,69.75,61.1c18.48-0.62,43.94-17.25,47.84-20.05c1.57-1.58,27.44-26.51,29.03-28.12
	c26.37-26.74,55.69-55.42,72.86-68.52c10.26-7.79,20.3-8.68,46.64,0.19c1.66,0.55,17.66,6.47,28.48,10.07
	c0.91,0.32,26.36,17.39,49.32,14.47c11.74-1.47,22.84-8.2,31.9-14.07c8.66-5.62,36.25-2.71,40.01-1.47
	c15.31,5.06,25.73-3.46,25.73-27.97c0-16.84-5.26-72.52-3.85-104.84c0.12-2.8-2.17-3.72-5.32-3.65
	c57.06-20.59,169.41-77.67,237.03-170C1541.87,952.42,1579.4,859.91,1557.38,746.46z M1220.5,1302.53
	c-12.59,3.14-43.52-6.6-85.65-18.24c-17.07-4.74-33.61-9.35-46.63-12.49c-23.03-5.59-30.32-3.66-31.06-3.51
	c-10.44,2.01-24.72,9.78-53.11,33.14c-20.77,17.09-56.87,48.97-83.62,72.19c-17.37,15.04-42.04,38.17-57.98,34.96
	c-3.5-0.69-6.48-2.29-8.62-4.73c-6.36-7.26-5.38-21.99-5.52-37.98c-0.08-9.49-0.33-21.88-0.87-33.7c-1.34-29.97-3.83-62-5.23-76.24
	c-1.63-16.18-3.3-29.65-4.31-38.31c-1.15-9.85,5.58-11.6,28.27-8.55c12.9,1.72,112.54,23.78,134.19,29.01
	c51.15,12.37,45.03,10.38,78.43-7.4c33.64-17.89,101.27-61.56,133.35-82.51v0c8.36-5.48,13.66-6.74,13.74,3.73
	c0.01,2.68-1.58,34.14-0.56,63.52c0.69,18.37,2.43,35.92,3.68,47.86C1230.72,1279.4,1235.15,1298.88,1220.5,1302.53z
	 M1373.74,1089.02c-50.37,40.41-113.56,70.87-113.56,71.27c0.03-5.73,0.68-26.17,0.69-29.57c0.1-8.37-0.41-18.27-6-24.54
	c-3.8-5.16-9.75-7.78-19.85-7.56c-11.73,0.26-25.84,8.5-44.35,21.4c-29.5,20.57-116.62,80.8-142.77,97.75
	c-10.28,6.65-14.43,6.18-29.84,2.7c-1.13-0.32-66.39-20.99-91.97-29.02c-50.35-15.77-79.02-22.19-98.98-22.19
	c-7.57,0-13.92,1.02-19.09,3.06c-6.12,1.73-10.93,4.62-14.41,8.77c-5.86,7.02-7.63,16.91-5.35,30.18c2.35,13.58,5.62,44,8.88,81.97
	c-27.92-0.23-72.61-4.33-108.21-10.38c-175.66-29.81-292.47-124.57-314.08-276.93c-18.01-127.05,47.88-277.87,183.07-390.51
	c10.81,11.98,38.47,31.39,72.21,32.27c6.84,0.18,10.08-4.15,2.91-14.06c-8.41-11.63-25.63-41.45-30.23-52.34
	c90.59-62.91,205.97-109.43,343.08-125.76c16.62-1.98,32.96-3.5,49.03-4.58c287.71-19.31,492.75,102.35,527.9,297.19
	C1549.85,898.17,1472.32,1009.91,1373.74,1089.02z"/></svg>