<svg version="1.1" id="Layer_1" xmlns="http://www.w3.org/2000/svg" xmlns:xlink="http://www.w3.org/1999/xlink" x="0px" y="0px" viewBox="0 0 2048 2500" style="enable-background:new 0 0 2048 2500;" xml:space="preserve"><style type="text/css">
	.st0{fill:#E51B23;}
	.st1{fill:url(#SVGID_1_);}
	.st2{fill:url(#SVGID_2_);}
	.st3{fill:url(#SVGID_3_);}
	.st4{fill:url(#SVGID_4_);}
	.st5{fill:url(#SVGID_5_);}
	.st6{fill:#B76E23;}
	.st7{fill:url(#SVGID_8_);}
	.st8{fill:url(#SVGID_9_);}
	.st9{fill:#F58220;}
	.st10{fill:url(#SVGID_10_);}
	.st11{fill:url(#SVGID_11_);}
	.st12{fill:url(#SVGID_12_);}
	.st13{fill:url(#SVGID_13_);}
	.st14{fill:url(#SVGID_14_);}
	.st15{fill:url(#SVGID_15_);}
	.st16{fill:url(#SVGID_16_);}
	.st17{fill:#FFFBC8;}
	.st18{fill:url(#SVGID_17_);}
	.st19{fill:url(#SVGID_18_);}
	.st20{fill:url(#SVGID_19_);}
	.st21{fill:url(#SVGID_20_);}
</style><path d="M1735.92,1611.34c-3.68-38.02-19.79-79.22-32.5-113.58c-9.98-26.93-15.79-42.97-18.47-52.18
	c-3.51-12.06,1.77-13.95,17.07-1.89c1.99,1.57,3.71,3.04,5.15,4.29c4.94,4.3,8.19,4.82,10.61-1.48c0.97-2.49,9.99-31.16,14-45.25
	c2.98-10.41,16.59-57.88,17.3-60.82c1.07-4.28-0.03-3.97-2.97-8c-6.87-9.38-29.98-28.69-49.75-39.7
	c-77.04-42.46-124.3-5.5-141.97,23.54c-31.68-49.3-107.84-54.58-159.06-10.92c1.16-17.55,2.44-77.41,4.12-102.64
	c0.43-6.35-1.81-11.42-6.4-17.04c-2.75-3.35-5.89-6.36-9.37-8.95c-24.43-18.29-62.81-26.92-96.3-4.1
	c-2.39,1.62-41.04,10.12-43.37,12.07c-2.12,1.78-1.48,12.15-1.59,15.39c-0.91,29.42,17.97,91.71,17.97,107.72
	c0,26.19-14.14,18.66-30.62,11.59c-16.45-7.15-53.7-1.07-58.98,10.1c-5.28,11.06-39.04-6.08-39.01-6.02
	c-7.81-2.96-15.67-5.79-23.57-8.5c-39.75,13.28-64.6,42.99-77.11,80.61c-12.53-18.73-28.74-24.21-42.81-24.61
	c-4.26-0.13-10.33,1.26-16.84,3.82c-10.76,6.63-25.21,17.9-33.92,22.22c-10.54,5.17-13.72-3.83-23.21-2.68
	c-23.23,25.43-51.7,24.08-68.58,16.3c-7.93-3.64-10.9-12.68-11.91-21.33c-0.93-2.89-1.75-6.45-1.74-9.56
	c-0.02-4.39-0.38-10.71-1.15-14.52c-2.49-4-5.98-9.72-8.4-14.48c-9.32-18.18-37.81-15.32-62.55,0c-4.61,2.88-9.1,5.93-13.47,9.16
	c-18.54,13.45-33.75,21.24-50.51,24.02c-14.83,2.44-29.31,0.3-37.53,8.31c-2.22,2.16-4.12,4.63-5.25,7.1
	c-2.69,5.84-2.99,11.28-1.59,18.66c0.26,1.47,0.86,3.45,1.88,6.35c3.12,8.94,8.99,19.18,14.46,30.97
	c7.17,15.33,14.44,32.19,21.52,41.27c1.93,2.49,3.54,4.16,4.4,4.85c-14.22,6.34-27.55,20.9-31.75,27.4
	c-5.36-2.51-12.26-1.49-20.91,4.35c-11.14,7.47-28.59,15.79-38.42,22.5c-11.75-97.83-123.51-149.29-276.25-11.82
	c-21.46,19.31-37.53,37.29-47.59,50.19c-7.4,9.52-5.62,14.19-0.29,22.72c5.17,8.28,6.13,46.63,4.58,80.18
	c-5.19,113.81-11.89,316.16-16.73,419.67c-1.28,27.65-7.55,68.85,29.5,90.04c29.07,16.63,56.38,1.5,88.28-23.42
	c21.22-16.61,60.09-49.69,60.09-49.69c-0.06-6.45-0.1-14.12-0.14-20.41c-0.1-10.63,0.02-20.62,0.26-26.72
	c1.08-25.88,3.86-76.34,6.55-115.74c0.7-9.99,1.37-19.93,2.01-29.51c26.14-24.54,58.21-54.31,82.47-88
	c-2.36,48.56-6.84,156.03-7.09,160.96c10.46,7.61,20.86,15.31,31.18,23.11c43.12-31.24,86.5-60.93,130.1-87.04
	c1.05-20.52,2.1-41.08,3.15-61.63c3.29,4.96,7.12,9.14,11.52,12.46c13.54,10.16,31.74,13.88,51.25,10.8
	c27.09-4.34,51.08-20.35,65.55-33.43c33.41-17.65,67.45-34.08,102.06-49.26c19.33-8.49,25.15-12.49,25.71-23.7
	c0.05-0.99,0.11-2,0.16-3c9.32,3.83,19.26,5.91,29.33,6.14c4.68,0.1,9.49-0.19,14.43-0.89c2.57,16.88,29.66,81.35,120.29,91.9
	c41.25,5.22,73.41-0.82,97.43-15.32c4.4-2.62,8.61-5.53,12.61-8.73c48.28-38.61,46.32-106.45,47.8-139.94
	c0.86,0.53,23.33,26.05,68.27,11.34c20.71-6.78,35.89-23.54,54.13-38.31c20.28,18.86,52.34,30.81,81.54,30.8
	c25.17,0,52.29-9.64,82.65-34.02c15.28,12.83,61.17,45.32,113.95,31.64c16.63-4.42,29.2-12.62,38.55-23.49
	C1731.65,1688.48,1740.16,1655.21,1735.92,1611.34L1735.92,1611.34z"/></svg>