<svg version="1.1" id="Layer_1" xmlns="http://www.w3.org/2000/svg" xmlns:xlink="http://www.w3.org/1999/xlink" x="0px" y="0px" viewBox="0 0 2048 2500" style="enable-background:new 0 0 2048 2500;" xml:space="preserve"><style type="text/css">
	.st0{fill:#E51B23;}
	.st1{fill:url(#SVGID_1_);}
	.st2{fill:url(#SVGID_2_);}
	.st3{fill:url(#SVGID_3_);}
	.st4{fill:url(#SVGID_4_);}
	.st5{fill:url(#SVGID_5_);}
	.st6{fill:#B76E23;}
	.st7{fill:url(#SVGID_8_);}
	.st8{fill:url(#SVGID_9_);}
	.st9{fill:#F58220;}
	.st10{fill:url(#SVGID_10_);}
	.st11{fill:url(#SVGID_11_);}
	.st12{fill:url(#SVGID_12_);}
	.st13{fill:url(#SVGID_13_);}
	.st14{fill:url(#SVGID_14_);}
	.st15{fill:url(#SVGID_15_);}
	.st16{fill:url(#SVGID_16_);}
	.st17{fill:#FFFBC8;}
	.st18{fill:url(#SVGID_17_);}
	.st19{fill:url(#SVGID_18_);}
	.st20{fill:url(#SVGID_19_);}
	.st21{fill:url(#SVGID_20_);}
</style><g transform="translate(-483.03 -708.656) scale(2.41206)"><radialGradient id="SVGID_8_" cx="176.116" cy="581.3046" r="52.115" gradientTransform="matrix(16.7282 1.4235 -3.8842 13.3268 -152.442 -7360.5156)" gradientUnits="userSpaceOnUse"><stop offset="0.36" style="stop-color:#D6812C"/><stop offset="0.899" style="stop-color:#744304"/></radialGradient><path class="st7" d="M575.44,583.57c-30.08,4.14-51.95,18.36-71.12,35.27c-28.07,24.76-48.57,26.83-67.11,24.95
		c-20.89-2.13-19.87-26.82-19.38-34.73c-15.86,9.94-21.86,45.62-18.06,68.4c6.19,37.18,36.7,99.72,147.18,74.03
		c74.45-17.3,105.91-69.07,101.07-111.05C642.49,592.34,603.62,579.69,575.44,583.57L575.44,583.57z"/><radialGradient id="SVGID_9_" cx="191.1154" cy="562.9169" r="41.322" gradientTransform="matrix(11.5833 1.9405 -1.7054 10.3568 -531.1349 -5587.6562)" gradientUnits="userSpaceOnUse"><stop offset="0.36" style="stop-color:#D6812C"/><stop offset="0.899" style="stop-color:#744304"/></radialGradient><path class="st8" d="M792.87,576.33c-5.95-15.51-14.49-24.38-18.8-25.37c8.57,29.77-13.05,25.24-52.89,21.99
		c-36.85-3-63.17,3.43-62.94,52.33c0.22,52.12,62.66,80.62,112.67,45.18C802.95,641.76,802.27,600.88,792.87,576.33L792.87,576.33z"/></g></svg>