<svg version="1.1" id="Layer_1" xmlns="http://www.w3.org/2000/svg" xmlns:xlink="http://www.w3.org/1999/xlink" x="0px" y="0px" viewBox="0 0 2048 2500" style="enable-background:new 0 0 2048 2500;" xml:space="preserve"><style type="text/css">
	.st0{fill:#E51B23;}
	.st1{fill:url(#SVGID_1_);}
	.st2{fill:url(#SVGID_2_);}
	.st3{fill:url(#SVGID_3_);}
	.st4{fill:url(#SVGID_4_);}
	.st5{fill:url(#SVGID_5_);}
	.st6{fill:#B76E23;}
	.st7{fill:url(#SVGID_8_);}
	.st8{fill:url(#SVGID_9_);}
	.st9{fill:#F58220;}
	.st10{fill:url(#SVGID_10_);}
	.st11{fill:url(#SVGID_11_);}
	.st12{fill:url(#SVGID_12_);}
	.st13{fill:url(#SVGID_13_);}
	.st14{fill:url(#SVGID_14_);}
	.st15{fill:url(#SVGID_15_);}
	.st16{fill:url(#SVGID_16_);}
	.st17{fill:#FFFBC8;}
	.st18{fill:url(#SVGID_17_);}
	.st19{fill:url(#SVGID_18_);}
	.st20{fill:url(#SVGID_19_);}
	.st21{fill:url(#SVGID_20_);}
</style><g transform="translate(-483.03 -708.656) scale(2.41206)"><linearGradient id="SVGID_10_" gradientUnits="userSpaceOnUse" x1="209.1647" y1="762.0512" x2="243.9507" y2="875.1082" gradientTransform="matrix(18.7793 0.7779 -0.4166 18.7715 -3158.6084 -13709.084)"><stop offset="0.494" style="stop-color:#FFEA00"/><stop offset="0.709" style="stop-color:#FFDD00"/><stop offset="0.868" style="stop-color:#FFCB05"/><stop offset="1" style="stop-color:#FFD400"/></linearGradient><path class="st10" d="M536.36,1023.02c-0.65,0.48-1.31,1.01-1.41,1.08c-1.55,1.2-3.84,3.06-5.14,3.65
		c-0.89,0.41-1.75,0.53-2.48,0.19c-2.07-0.93-1.5-4.82-1.41-7.23c0.43-13.29,5.12-109.09,5.12-109.08
		c-0.02-0.11-20.29,11.27-26.46,15.92c-0.4,0.28-4.1,86.92-5.88,118.47c-0.4,7.06,1.54,12.72,4.3,14.79
		c3.64,2.74,9.22,2.27,15.14-1.14c10.97-6.33,18.59-20.47,18.74-24.46c0.22-5.99,0.42-12.05,0.39-12.33
		C537.22,1022.42,537.19,1022.38,536.36,1023.02z"/><linearGradient id="SVGID_11_" gradientUnits="userSpaceOnUse" x1="210.6047" y1="762.0665" x2="244.0826" y2="870.8726" gradientTransform="matrix(18.7793 0.7779 -0.4166 18.7715 -3158.6084 -13709.084)"><stop offset="0.494" style="stop-color:#FFEA00"/><stop offset="0.709" style="stop-color:#FFDD00"/><stop offset="0.868" style="stop-color:#FFCB05"/><stop offset="1" style="stop-color:#FFD400"/></linearGradient><path class="st11" d="M537.17,871.77c-0.45-3.98-1.82-6.34-3.99-7.3c-2.62-1.15-6.36-0.67-11.24,1.93
		c-3.17,1.68-6.9,4.48-10.9,7.52c-15.34,11.6-24.62,8.09-24.62,8.06c4.11,3.25,5.99,8.3,8.9,12.87c3.38,5.32,9.35,13.2,21.01,10.66
		C529.63,902.64,538.51,883.7,537.17,871.77z"/><linearGradient id="SVGID_12_" gradientUnits="userSpaceOnUse" x1="205.9208" y1="756.773" x2="243.9238" y2="880.282" gradientTransform="matrix(18.7793 0.4166 -0.4166 18.7793 -3158.6084 -13529.3594)"><stop offset="0.494" style="stop-color:#FFEA00"/><stop offset="0.709" style="stop-color:#FFDD00"/><stop offset="0.868" style="stop-color:#FFCB05"/><stop offset="1" style="stop-color:#FFD400"/></linearGradient><path class="st12" d="M480.46,942.28c-0.24,0.28-0.46,0.56-0.68,0.85c-6.86,8.63-10.15,18.91-13.75,39.32
		c0.81-11.17,1.64-22.37,2.45-33.53c-8.54,6.06-16.96,12.27-25.28,18.63c-0.15,10.6-1.03,24.36-1.59,31.53l-5.39,110.77
		c8.57-6.34,17.25-12.52,26.05-18.53c1.15-22.71,2.31-45.4,3.47-68.1c1.51-28.65,17.27-50.48,25.46-55.9
		c0.03-0.02,0.21-2.51,0.48-6.31c0.48-6.64,1.92-21.86,2.33-27.18C494.06,933.05,487.11,934.37,480.46,942.28L480.46,942.28z"/><linearGradient id="SVGID_13_" gradientUnits="userSpaceOnUse" x1="212.5545" y1="760.557" x2="247.6936" y2="874.759" gradientTransform="matrix(18.7793 0.7779 -0.4166 18.7715 -3158.6084 -13709.084)"><stop offset="0.494" style="stop-color:#FFEA00"/><stop offset="0.709" style="stop-color:#FFDD00"/><stop offset="0.868" style="stop-color:#FFCB05"/><stop offset="1" style="stop-color:#FFD400"/></linearGradient><path class="st13" d="M630.9,983.41c-1.27,0.76-4.68,2.85-5.72,3.33c-1.37,0.63-2.58,0.77-3.62,0.04c-1.98-1.38-1.42-5.1-1.35-7.47
		c0.03-0.83,0.07-2.02,0.13-3.45c0.66-15.35,1.48-36.29,1.62-37.35c0.39-6.96,0.74-13.47,1.01-18.22c0.2-3.44,0.2-6.88,0-10.31
		c-0.12-1.73-0.27-3.45-0.45-5.18c-1.81-14.08-7.62-23.64-16.99-23.63c-2.22,0.01-4.62,0.52-7.22,1.6
		c-8.36,3.42-15.13,16.51-19.48,28.67c-0.23,0.61-1.8,5.08-2.38,6.71c-0.69,1.92-0.37,0.93-0.33-0.03
		c0.37-9.18,1.23-25.46,1.41-28.77c0.03-0.68-0.07-0.81-0.57-0.56c-2.13,1.07-4.83,2.43-6.32,3.19
		c-8.3,4.24-21.08,11.18-21.08,11.33c2.37,2.65,2.35,9.03,2.07,14.47c-0.34,6.82-0.79,13.63-1.37,20.44
		c-1.43,28.14-5.34,104.61-5.34,104.61c8.69-4.57,17.49-8.96,26.37-13.15l4.09-79.73c0.66-12.26,10.1-22.07,16.12-24.59
		c1.59-0.66,3.87-0.38,4.83,2.82c-0.92,19.32-1.94,40.97-2.76,57.22c-0.36,4.46-0.65,8.51-0.66,12.2c-0.05,0.56-0.07,1.14-0.1,1.67
		c-0.4,7.01,1.56,13.07,4.35,15.69c3.67,3.47,9.3,4.1,15.25,1.84c11.02-4.17,18.66-16.84,18.83-20.8c0.17-4.43,0.4-10,0.47-12.48
		C631.72,983.06,631.26,983.21,630.9,983.41z"/><linearGradient id="SVGID_14_" gradientUnits="userSpaceOnUse" x1="224.6217" y1="759.7578" x2="266.8487" y2="896.9977" gradientTransform="matrix(18.7793 0.9991 -0.4166 18.7661 -3158.6084 -13824.168)"><stop offset="0.494" style="stop-color:#FFEA00"/><stop offset="0.709" style="stop-color:#FFDD00"/><stop offset="0.868" style="stop-color:#FFCB05"/><stop offset="1" style="stop-color:#FFD400"/></linearGradient><path class="st14" d="M898.93,946.56c-0.61-3.03-1.41-6.02-2.4-8.95c-7.84-22.88-22.54-49.31-18.32-63.4
		c0.92-3.07,2.48-5.54,4.5-7.01c7.64-5.6,17.11,2.53,17.66,2.97l5.33-16.49c-4.29-4.99-12.79-11.93-23.65-12.05
		c-7.97-0.08-14.79,2.95-19.91,8.13c-10.56,10.75-12.86,26.17-6.31,45.9c5.13,15.43,18.85,38.45,20.93,53.2
		c0.71,5.06,0.39,9.85-1.55,14.04c-2.22,4.77-6.78,6.97-13.96,4.77c-10.2-3.19-24.47-20.71-24.77-21.07
		c-3.78,4.22-27.88,31.93-38.63,5.5c-2.93-7.29-3.16-17.78-2.9-23.86c16.18-2.06,28.2-4.69,42.08-8.74
		c2.76-10.88,8.86-49.67-2.85-68.11c-4.45-6.96-12.07-10.54-19.96-10.82c-4.89-0.5-10.96,0.45-17.15,3.61
		c-24.8,12.8-34.78,65.03-27.28,102.19c0.44,3.45,0.91,6.63,1.3,8.87c-8.25,7.31-16.46,14.76-19.03,7.6
		c-0.51-1.42-0.78-3.17-0.92-5.31c-0.13-1.85,0.07-7.07,0.36-12.91c0.4-8.41,8.16-151.67,8.15-151.67c-0.58-0.29-1.19-0.53-1.82-0.7
		c-13.69-4.13-24.84,0.75-25.64,19.83c-2.37,46.36-4.74,92.75-7.1,139.17c0.2,8.27-3.84,31.07,7.67,38.83
		c5.4,3.66,12.58,4.14,18.96,1.04c3.96-1.97,7.72-4.32,11.21-7.03c8.71-6.77,13.71-14.41,13.71-14.42c0.16,0.3,0.34,0.57,0.52,0.86
		c3.54,5.4,11.46,13.15,18.9,15.71c3.25,1.09,6.68,1.58,10.11,1.43c12.49,0.5,22.2-7.36,31.3-15.19
		c6.79,6.12,17.03,13.2,25.03,15.75c13.92,4.37,24.5,0.86,30.22-5.97C900.93,972.51,900.73,955.69,898.93,946.56z M799.79,879.89
		c5.72-15.55,14.84-16.88,16.36-3.17c0.84,7.5,0.66,17.81-1.39,29.59l-0.2,1.09c0.01,0-10.61,4.19-21.2,4.45
		C793.49,903.24,796.11,889.86,799.79,879.89L799.79,879.89z"/><linearGradient id="SVGID_15_" gradientUnits="userSpaceOnUse" x1="217.6142" y1="763.486" x2="251.3002" y2="872.964" gradientTransform="matrix(18.7793 0.9991 -0.4166 18.7661 -3158.6084 -13824.168)"><stop offset="0.494" style="stop-color:#FFEA00"/><stop offset="0.709" style="stop-color:#FFDD00"/><stop offset="0.868" style="stop-color:#FFCB05"/><stop offset="1" style="stop-color:#FFD400"/></linearGradient><path class="st15" d="M711.56,848.4c-17.01-4.07-23,7-24.46,10.51c-4.88-5.8-16.77-6.91-28.5,2.47
		c-3.65,2.94-7.01,6.68-10.01,11.17c-9.09,13.71-13.88,35.28-14.58,56.77c-1.5,46.24,10.72,70.69,24.48,73.05
		c14.8,2.57,21.1-6.5,24.37-12.25c0.23-0.38-0.02,0.03-0.03,0.28c-0.07,17.43-0.68,30.1-5.29,37.08c-4.52,6.85-14.4,8.99-23.66,4.36
		c-5.74-2.88-10.62-7.84-13.13-11.33c-0.08,0.05-5.75,5.65-7.9,8.54c-2.63,3.55-2.9,6.2,0.2,10.62
		c10.67,15.19,31.19,20.16,47.7,15.74c30.45-8.14,24.78-48.05,26.3-85.6c1.37-33.79,3.59-84.21,5.05-103.79
		c0.79-10.36,1.29-17.11,1.28-17.12C712.78,848.71,712.17,848.55,711.56,848.4L711.56,848.4z M681.53,958.95
		c-0.33,4.45-1.18,9.12-2.76,12.91c-9.38,22.21-19.71,1.64-18.78-40.25c0.54-24.73,6.89-43.19,12.46-48.92
		c3.92-4.05,11.6-7.27,12.34,5.23C685.49,899.12,682.05,952.26,681.53,958.95L681.53,958.95z"/><linearGradient id="SVGID_16_" gradientUnits="userSpaceOnUse" x1="201.6047" y1="759.9178" x2="246.3917" y2="841.6918" gradientTransform="matrix(18.7832 0 0 18.7832 -3489.75 -13361.877)"><stop offset="0.494" style="stop-color:#FFEA00"/><stop offset="0.709" style="stop-color:#FFDD00"/><stop offset="0.868" style="stop-color:#FFCB05"/><stop offset="1" style="stop-color:#FFD400"/></linearGradient><path class="st16" d="M433.01,963.96c-0.01-19.32-5.79-33.93-16.54-40.26c-16.13-9.49-36.47,0.86-46.71,7.65
		c-12.59,8.28-23.99,19.91-32.07,29.26c-0.46,0.54,2.97,1.03,1.76,26.37c-2.47,53.09-7.07,158.59-9.08,192.37
		c-0.85,14.53,3.13,11.92,19.7-1.01c3.65-2.83,7.23-5.75,10.75-8.76c0-0.18-0.07-12.99,0.12-17.7c0.64-15.47,2.74-42.83,4.13-63.77
		C401.11,1063.72,433.03,1018.55,433.01,963.96L433.01,963.96z M387.96,1028.87c-6.27,15.96-14.16,24.78-21.34,30.19
		c0.87-13.32,3.34-83.98,3.9-98.11c5.75-6.42,12.38-11.03,17.46-11.06C403.34,949.8,400.79,996.27,387.96,1028.87L387.96,1028.87z"/></g></svg>