<svg version="1.1" id="Layer_1" xmlns="http://www.w3.org/2000/svg" xmlns:xlink="http://www.w3.org/1999/xlink" x="0px" y="0px" viewBox="0 0 2048 2500" style="enable-background:new 0 0 2048 2500;" xml:space="preserve"><style type="text/css">
	.st0{fill:#E51B23;}
	.st1{fill:url(#SVGID_1_);}
	.st2{fill:url(#SVGID_2_);}
	.st3{fill:url(#SVGID_3_);}
	.st4{fill:url(#SVGID_4_);}
	.st5{fill:url(#SVGID_5_);}
	.st6{fill:#B76E23;}
	.st7{fill:url(#SVGID_8_);}
	.st8{fill:url(#SVGID_9_);}
	.st9{fill:#F58220;}
	.st10{fill:url(#SVGID_10_);}
	.st11{fill:url(#SVGID_11_);}
	.st12{fill:url(#SVGID_12_);}
	.st13{fill:url(#SVGID_13_);}
	.st14{fill:url(#SVGID_14_);}
	.st15{fill:url(#SVGID_15_);}
	.st16{fill:url(#SVGID_16_);}
	.st17{fill:#FFFBC8;}
	.st18{fill:url(#SVGID_17_);}
	.st19{fill:url(#SVGID_18_);}
	.st20{fill:url(#SVGID_19_);}
	.st21{fill:url(#SVGID_20_);}
</style><g><path class="st6" d="M625.57,433.68c41.65-21.95,99.65-30.2,116.53-31.72c-42.64-1.47-84.23,7.02-118.36,21.19
		c-17.45,7.24-34.45,16.42-47.88,26.76c-72.48,55.87-31.47,135.81,0.52,162.27C532.9,556.08,528.78,484.66,625.57,433.68
		L625.57,433.68z M1136.93,366.11c33.87-5.36,60.47,1.12,76.31,3.81c-19.74-9.55-46.96-18.15-78.7-15.98
		c-32.81,2.25-66.86,15.43-85.38,43.64c-4.06,6.15-7.66,13.29-10.84,21.47c-0.24,0.61-1.28,4.12-1.5,4.76c8.01,0.14,13.06,0,13.06,0
		C1053.99,415.1,1075.04,375.9,1136.93,366.11z M1272.28,456.89c13.16,4.21,27.1,9.19,27.35,9.13c17.41-4.7,40.32-26.24,43.23-48.18
		c0,0-27.43,39.5-104.76,29.01c-0.13-0.03,4.26,1.01,9.19,2.37C1248.56,449.55,1260.05,452.96,1272.28,456.89L1272.28,456.89z"/></g></svg>