<svg version="1.1" id="Layer_1" xmlns="http://www.w3.org/2000/svg" xmlns:xlink="http://www.w3.org/1999/xlink" x="0px" y="0px" viewBox="0 0 2048 2500" style="enable-background:new 0 0 2048 2500;" xml:space="preserve"><style type="text/css">
	.st0{fill:#E51B23;}
	.st1{fill:url(#SVGID_1_);}
	.st2{fill:url(#SVGID_2_);}
	.st3{fill:url(#SVGID_3_);}
	.st4{fill:url(#SVGID_4_);}
	.st5{fill:url(#SVGID_5_);}
	.st6{fill:#B76E23;}
	.st7{fill:url(#SVGID_8_);}
	.st8{fill:url(#SVGID_9_);}
	.st9{fill:#F58220;}
	.st10{fill:url(#SVGID_10_);}
	.st11{fill:url(#SVGID_11_);}
	.st12{fill:url(#SVGID_12_);}
	.st13{fill:url(#SVGID_13_);}
	.st14{fill:url(#SVGID_14_);}
	.st15{fill:url(#SVGID_15_);}
	.st16{fill:url(#SVGID_16_);}
	.st17{fill:#FFFBC8;}
	.st18{fill:url(#SVGID_17_);}
	.st19{fill:url(#SVGID_18_);}
	.st20{fill:url(#SVGID_19_);}
	.st21{fill:url(#SVGID_20_);}
</style><path class="st17" d="M768.29,1846.55c-0.52,0.32-1.03,0.72-1.55,1c-14.25,8.23-27.74,9.32-36.53,2.71
	c-6.67-5-11.34-18.66-10.37-35.68c4.32-76.09,13.21-285.25,14.19-285.92c3.06-2.28,7.54-5.26,12.73-8.52
	c-1.66,19.91-9.87,211.91-13.96,284.12c-0.13,2.13-0.17,4.27-0.12,6.4c0.03,0.46,0.03,0.89,0.05,1.34
	c-0.16,15.29,4.26,27.43,10.42,32.09C749.57,1848.94,758.45,1849.66,768.29,1846.55L768.29,1846.55z M724.61,1443.55
	c-5.32-8.36-9.18-17.32-14.99-24.6c-12.49,2.44-19.42-0.19-19.42-0.21c9.91,7.84,14.41,20.01,21.45,31.07
	c8.18,12.83,22.58,31.88,50.7,25.74c5.5-1.17,10.67-3.58,15.47-6.75c-0.84,0.24-1.66,0.53-2.51,0.72
	C747.18,1475.52,732.77,1456.45,724.61,1443.55L724.61,1443.55z M687.16,1555.61c0.56-0.67,1.08-1.34,1.65-2
	c1.24-1.47,3.73-3.78,4.97-5.08c-5.48,3.16-12.16,8.87-17.89,15.68c-0.58,0.67-1.11,1.34-1.65,2.02c-3.49,4.4-6.65,9.05-9.45,13.91
	c-9.75,17.17-14.47,35.66-19.62,59.5c-2.37,10.87-3.79,19.63-3.85,20.54c-0.01,0.16-1.17,7.45-1.17,9.13
	C647.88,1645.84,661.23,1588.05,687.16,1555.61L687.16,1555.61z M582.55,1945.52c4.13-85.17,8.33-170.33,12.49-255.44
	c1.31-16.95,3.39-49.25,3.79-74.59c-4.3,3.21-8.58,6.44-12.86,9.69c-0.38,25.54-2.49,58.77-3.85,76.07
	c-4.34,88.99-8.66,178.07-13.02,267.13c4.26-3.13,8.49-6.35,12.75-9.44C581.93,1958.87,582.38,1949.4,582.55,1945.52L582.55,1945.52
	z M959.76,1421.29c-15.13,6.48-28.12,25.69-38.08,47.71c-5.38,12.08-10.2,25.77-15.08,39.88c-0.03,0.26-0.14,6.14-0.14,6.14
	C918.67,1483.75,945.75,1434.94,959.76,1421.29L959.76,1421.29z M970.31,1734.52c-6.2-5.93-10.66-18.98-10.53-34.31
	c-0.02-0.41-0.02-0.85-0.02-1.29c-0.06-2.09-0.05-4.21,0.1-6.39l0.23-4.04c0.01-8.88,0.73-18.67,1.58-29.41
	c1.93-38.19,4.34-88.72,6.5-134.39c-0.14-0.47-0.3-0.93-0.5-1.39c-4.17-9.52-22.92-1-25.44,0.78c3.54-1.4,5.98-1.78,8.3-0.59
	c1.98,1.02,3.74,3.04,4.83,6.69c-2.22,46.6-4.67,98.81-6.67,138.03c-0.87,10.75-1.57,20.52-1.59,29.39
	c-0.11,1.39-0.16,2.76-0.24,4.06c-0.97,16.88,3.76,31.5,10.48,37.85c8.85,8.36,22.43,9.93,36.78,4.5c2.18-0.83,4.31-1.8,6.37-2.89
	C988.67,1743.8,977.8,1741.63,970.31,1734.52L970.31,1734.52z M845.13,1782.37c2.29-44.78,9.29-181.45,12.15-237.76
	c0.71-7.85,2.21-27.89,3.29-49.29c0.14-2.68,0.24-5.41,0.27-8.17c-0.11-9.14-1.21-17.78-4.98-22.36c-0.08-0.11-1.18-1.42-1.18-1.42
	c-7.16,3.91-12.07,6.69-12.07,6.78c5.7,6.4,5.66,21.77,5,34.9c-1.07,21.38-2.61,41.41-3.32,49.28
	c-3.45,67.86-12.9,252.31-12.9,252.31c4.21-2.2,8.45-4.48,12.66-6.63C844.18,1799.96,844.65,1791.55,845.13,1782.37L845.13,1782.37z
	 M1383.1,1550.9c-2.28-24.18-2.75-54.71-0.92-76.84c5.21-63.51,26.85-124.69,63.14-149.05c-1.92,0.81-3.87,1.69-5.8,2.7
	c-46.41,23.86-71.29,105.05-71.64,182.16c-0.18,35.44,2.86,58.5,8.98,85.5c4.17-3.29,10.16-8.35,11.54-9.76
	C1388.52,1585.52,1384.93,1569.79,1383.1,1550.9L1383.1,1550.9z M1609.54,1672.47c-18.87-6.14-42.15-22.11-58.59-36.86
	c-2-1.75-3.99-3.52-5.96-5.29c-2.64,2.27-5.3,4.52-7.98,6.74c0.21,0.18,5.34,4.64,5.54,4.85c16.44,14.04,37.55,27.75,54.83,33.31
	c19.06,6.08,35.57,5.96,48.78,1.7C1635.43,1678.04,1623.19,1676.9,1609.54,1672.47L1609.54,1672.47z M1297.1,1675.85
	c-17.4-11.88-20.06-37.85-19.74-60.58c0-1-0.03-2.04-0.02-3.04c0.14-13.88,1.45-26.63,1.25-34.23
	c5.68-111.91,11.42-223.74,17.13-335.55c0.83-19.89,6.32-33.33,14.98-41.38c-15.92,5.14-26.73,20.48-27.92,49.03
	c-5.73,111.84-11.44,223.68-17.14,335.62c0.49,19.95-9.23,74.95,18.51,93.68c12.3,8.41,28.5,10.02,43.23,3.88
	C1316.63,1684.51,1305.84,1681.87,1297.1,1675.85z M1688.54,1377.51c-18.3-8.58-33.63-3.68-43.86,6.71
	c-0.34,0.33,6.59-6.33,17.01-5.88c13.74,0.56,26.05,11.14,27.01,11.91c0.24-0.78,1.69-5.22,3.52-10.85
	C1691.07,1378.75,1689.83,1378.11,1688.54,1377.51z M1476.6,1384.96c4.41,2.92,7.79,9.94,9.03,21.17
	c1.97,17.76,1.59,41.97-3.08,69.66c-0.08,0.55-0.72,3.7-0.82,4.26c7.64-2.16,12.56-4.06,12.56-4.06c0.15-0.88,0.79-4.35,0.97-5.23
	c2.59-14.67,4.06-29.52,4.39-44.41c0.03-8.46-0.4-16.14-1.14-22.9c-1.17-10.68-4.27-17.58-8.38-20.74c-5.27-4.07-13.47-3-22.74,1.39
	C1472.66,1382.09,1476.23,1384.72,1476.6,1384.96L1476.6,1384.96z M1450.06,1667.35c-13.01-4.56-26.6-15.74-36.37-26.49
	c-8.46-9.32-14.25-18.41-14.83-19.31c-0.94,0.97-4.03,4.25-8.6,8.73c3.76,5.55,6.37,9.3,12.14,15.39
	c9.6,10.13,22.42,20.32,34.71,24.55c8,2.72,16.2,3.8,24.4,3.5c8.22,0.35,15.93-0.82,23.27-3.08c-3.43,0.37-6.89,0.47-10.34,0.3
	C1466.16,1671.28,1457.89,1670.06,1450.06,1667.35L1450.06,1667.35z M1640.26,1607.27c2.88-6.18,4.19-12.94,4.43-20.07
	c-0.26-11.45-3.23-23.71-7.58-36c-2.48-6.99-25.34-55.41-35.56-79.61c-12.11-28.61-18.11-50.72-18.21-70.15
	c-0.19-34.86,8.87-51.85,21.13-65.32c1.58-1.75,7.16-6.29,8.3-7.31c-6.02,3.16-11.51,7.23-16.29,12.06
	c-27.25,27.68-31.69,68.35-11.56,120.91c19.78,51.69,61.43,112.55,43.08,152.12c-1.17,2.46-6.42,13.36-20.65,13.53
	C1617.98,1629.04,1633.01,1622.89,1640.26,1607.27L1640.26,1607.27z M1148.31,1777.12c20.35-12.72,24.88-29.04,27.26-58.96
	c0.97-12.18,0.44-55.93,0.19-55.55c-2.91,5.02-6.3,10.77-11.67,17.75c-0.02,1.61-0.2,16.56-0.25,18.13
	c-0.19,9.96-0.53,19.15-1.21,27.5c-1.32,17.09-4.84,36.94-14.78,47.91c-2.53,2.81-5.49,5.21-8.77,7.09
	c-2.19,1.28-4.54,2.26-6.99,2.92C1136.88,1783.06,1142.73,1780.64,1148.31,1777.12L1148.31,1777.12z M1198.59,1338.8
	c-4.08,1.59-7.88,3.82-11.25,6.61c-10.43,8.58-12.86,17.82-13.05,17.69c0.25,0.16,3.18,3.38,6.1,9.32
	C1181.37,1362.98,1189.96,1343.71,1198.59,1338.8L1198.59,1338.8z M1056.93,1794.42c-4.25-6.04-5.81-10.71-5.25-15.16
	c-0.1-0.7-0.15-1.4-0.15-2.1c-0.1-4.16,1.62-8.03,4.9-12.41c1.91-2.57,4.95-5.98,8.04-9.29c-0.69-0.88-1.39-1.75-1.98-2.57
	c-0.18,0.11-13.87,13.6-19.05,20.58c-6.35,8.54-6.98,14.93,0.49,25.61c25.74,36.67,75.24,48.78,115.06,38.16
	c3.32-0.9,6.57-2.03,9.73-3.38C1129.5,1842.77,1081.99,1830.23,1056.93,1794.42L1056.93,1794.42z M1118.25,1704.84
	c-31.34-5.62-59.36-58.72-59.31-158.54c0-0.56-0.01-1.05-0.01-1.58c-0.01-6.63,0.09-13.47,0.31-20.55
	c1.66-51.8,13.21-103.77,35.13-136.7c7.22-10.83,15.32-19.77,24.16-26.8c0.26-0.21,0.54-0.38,0.8-0.59
	c-4.87,2.57-9.49,5.59-13.79,9.03c-8.82,7.04-16.94,16.05-24.14,26.89c-21.91,33.05-33.48,85.05-35.17,136.88
	c-3.61,111.51,25.86,170.52,59.04,176.29c14.62,2.55,25.74,0.37,34.4-4.04C1133.47,1706.24,1126.43,1706.27,1118.25,1704.84
	L1118.25,1704.84z M1181.73,1428.99c-0.64-10.78-3.43-16.74-7.17-19.48c-8.92-6.56-24.56,1.57-29.29,5.82
	c3.96-2.57,6.5-3.32,9.38-3.59c1.61-0.15,3.21,0.06,4.87,0.77c4.73,1.95,8.47,7.89,9.23,20.58c1.67,27.04-6.64,155.18-7.89,171.31
	c-0.8,10.74-2.84,21.99-6.65,31.12c-1.64,3.81-3.25,7.13-4.89,9.91c-1.82,3.08-3.63,5.6-5.44,7.48c-1.96,2.01-3.78,3.18-5.4,3.82
	c7.89-1.63,18.43-9.28,25.67-23.06c1.06-2,2.06-4.1,3.03-6.39c3.81-9.08,5.88-20.35,6.67-31.09c1.13-14.42,7.84-118.37,8.06-159.52
	C1181.9,1434.11,1181.84,1431.55,1181.73,1428.99L1181.73,1428.99z M452.76,1773.04c-7.39,18.75-15.69,33.43-24.27,45.06
	c-6.16,8.39-13.25,16.05-21.13,22.83c-1.97,1.71-4,3.35-6.08,4.91c0,0.06-0.41,2.34-0.53,3.51c18.53-11.27,47.73-42.51,64.15-84.17
	c30.93-78.62,37.06-190.72,0.05-190.51c-7.85,0.05-17.18,4.61-26.51,11.92c5.09-2.55,9.98-4.06,14.38-4.09
	C489.84,1582.33,483.7,1694.42,452.76,1773.04L452.76,1773.04z M325.96,2128.18c4.84-81.49,15.92-335.94,21.92-464.05
	c2.89-61.09-5.4-62.3-4.27-63.59c18.5-21.4,44.26-47.68,72.79-67.39c-2.6,1.52-5.17,3.08-7.58,4.67
	c-30.36,19.97-57.88,48.03-77.35,70.57c-1.12,1.29,7.17,2.5,4.26,63.61c-5.95,128.06-17.05,382.54-21.9,464.02
	c-0.58,10.05-0.36,16.98,1.71,20.65c5.19,9.11,20.9-4.49,32.58-12.81C326.8,2155.86,324.35,2155.48,325.96,2128.18z"/></svg>