<svg version="1.1" id="Layer_1" xmlns="http://www.w3.org/2000/svg" xmlns:xlink="http://www.w3.org/1999/xlink" x="0px" y="0px" viewBox="0 0 2048 2500" style="enable-background:new 0 0 2048 2500;" xml:space="preserve"><style type="text/css">
	.st0{fill:#E51B23;}
	.st1{fill:url(#SVGID_1_);}
	.st2{fill:url(#SVGID_2_);}
	.st3{fill:url(#SVGID_3_);}
	.st4{fill:url(#SVGID_4_);}
	.st5{fill:url(#SVGID_5_);}
	.st6{fill:#B76E23;}
	.st7{fill:url(#SVGID_8_);}
	.st8{fill:url(#SVGID_9_);}
	.st9{fill:#F58220;}
	.st10{fill:url(#SVGID_10_);}
	.st11{fill:url(#SVGID_11_);}
	.st12{fill:url(#SVGID_12_);}
	.st13{fill:url(#SVGID_13_);}
	.st14{fill:url(#SVGID_14_);}
	.st15{fill:url(#SVGID_15_);}
	.st16{fill:url(#SVGID_16_);}
	.st17{fill:#FFFBC8;}
	.st18{fill:url(#SVGID_17_);}
	.st19{fill:url(#SVGID_18_);}
	.st20{fill:url(#SVGID_19_);}
	.st21{fill:url(#SVGID_20_);}
</style><g><path d="M1721.43,1757.74c0-15.91,11.98-27.88,27.33-27.88c15.18,0,27.15,11.97,27.15,27.88c0,16.15-11.98,28.05-27.15,28.05
		C1733.42,1785.79,1721.43,1773.89,1721.43,1757.74z M1748.77,1791.36c18.29,0,33.9-14.2,33.9-33.63c0-19.26-15.62-33.46-33.9-33.46
		c-18.46,0-34.08,14.2-34.08,33.46C1714.69,1777.16,1730.3,1791.36,1748.77,1791.36z M1741.66,1760.42h6.74l10.22,16.74h6.57
		l-11.01-17.04c5.68-0.72,10.02-3.73,10.02-10.64c0-7.65-4.52-11-13.66-11h-14.74v38.68h5.85L1741.66,1760.42L1741.66,1760.42z
		 M1741.66,1755.43v-11.97h8c4.07,0,8.43,0.88,8.43,5.68c0,5.93-4.44,6.3-9.42,6.3L1741.66,1755.43L1741.66,1755.43z"/></g></svg>