<svg version="1.1" id="Layer_1" xmlns="http://www.w3.org/2000/svg" xmlns:xlink="http://www.w3.org/1999/xlink" x="0px" y="0px" viewBox="0 0 2048 2500" style="enable-background:new 0 0 2048 2500;" xml:space="preserve"><style type="text/css">
	.st0{fill:#E51B23;}
	.st1{fill:url(#SVGID_1_);}
	.st2{fill:url(#SVGID_2_);}
	.st3{fill:url(#SVGID_3_);}
	.st4{fill:url(#SVGID_4_);}
	.st5{fill:url(#SVGID_5_);}
	.st6{fill:#B76E23;}
	.st7{fill:url(#SVGID_8_);}
	.st8{fill:url(#SVGID_9_);}
	.st9{fill:#F58220;}
	.st10{fill:url(#SVGID_10_);}
	.st11{fill:url(#SVGID_11_);}
	.st12{fill:url(#SVGID_12_);}
	.st13{fill:url(#SVGID_13_);}
	.st14{fill:url(#SVGID_14_);}
	.st15{fill:url(#SVGID_15_);}
	.st16{fill:url(#SVGID_16_);}
	.st17{fill:#FFFBC8;}
	.st18{fill:url(#SVGID_17_);}
	.st19{fill:url(#SVGID_18_);}
	.st20{fill:url(#SVGID_19_);}
	.st21{fill:url(#SVGID_20_);}
</style><path d="M1440.99,704.6c-12.45-47.4-35.42-87.54-69.02-93.07c-5.65-0.93-3.94,0.64-2.41,2.27c0.41,0.42,0.75,0.88,1.23,1.34
	c12.77,11.95,16.54,34.09,5.92,44.77c-10.54,10.57-46.47,8.14-81.69,5.25c-11.08-0.87-22.56-2.26-33.82-3.54
	c-63.95-7.28-110.36-4.19-141.81,32.94c-26.93,31.79-30.33,68.3-29.84,100.56c-17.89-63.98-78.18-124.76-195.65-110.09
	c-74.16,9.25-122.34,53.33-165.94,87.25c-48.07,37.42-85.19,61.69-131.39,62.11c-98.73,0.91-56.79-95.64-56.79-95.64
	c-68.84,40.66-74.44,140.67-73.23,165.2c7.29,151.22,109.42,212.87,207.88,228.36c139.65,21.87,328.29-25.8,400.27-168.97
	c2.82-5.24,5.45-10.57,7.9-15.99c14.97-33.3,20.01-64.74,21.7-79.72c45.91,88.9,123.1,107.41,201.22,92.06
	c29.37-5.76,77.39-30.36,104.34-64.66c7.36-9.4,13.68-19.56,18.85-30.32C1452.17,820.23,1456.58,763.96,1440.99,704.6L1440.99,704.6
	z M501.39,808.18c2.77-11.01,9.3-22.66,19.22-32.96c-6.58,32.16,2.07,60.18,28.56,74.5c43.53,23.53,111.94,16.53,185.56-42.39
	c48.71-38.99,94.5-78.28,163.54-87.03c110.23-14,155.76,37.54,167.26,102.59c-38.49-42.61-84.65-65.66-131.77-60.14
	c-55.85,6.52-94.32,45.26-155.28,92.65c-54.55,42.41-110.71,70.65-193.25,64.15C524.27,914.74,485.23,872.3,501.39,808.18
	L501.39,808.18z M489.78,876.8c-0.41-14.75-0.31-25.31-0.24-21.65c0.66,32.73,22.42,70.08,72.33,83.98
	c64.17,17.92,159.61,8.49,271.67-84.29c32.66-27.02,79.33-56.29,111.02-59.04c53.9-4.66,102.45,24.55,120.44,58.89
	c-45.45-17.3-67.01-13.34-94.34-1.95c-36.4,15.13-68.64,49.38-110.33,83.84c-128.31,106-259.26,96.22-318.93,55.33
	C491.71,957.87,490.9,918.19,489.78,876.8L489.78,876.8z M895.25,1069.48c-134.33,49.16-240.21,36.5-302.76,3.66
	c-57.09-29.96-73.86-73.76-73.86-73.76c37.85,40.37,183.56,96.4,367.52-41.5c25.06-18.78,73.37-63.61,90.87-72.65
	c34.89-18.01,54.67-16.86,88.67-13.45C1059.18,928.15,998.48,1031.83,895.25,1069.48z M1163.29,694.96
	c45.06-23.62,97.67-3.82,167.84-5.26c83.28-1.74,61.7-55.03,60.36-59.5c12.26,16.29,24.85,54.88,2.53,83.04
	c-8.26,10.36-20.72,17.7-36.42,21.86c-45.25,11.98-122.69-14.32-167.68-2.37c-50.35,13.38-71.18,64.06-74.49,73.29
	C1119.8,753.62,1121.98,716.61,1163.29,694.96L1163.29,694.96z M1146.17,788.63c70.22-68.81,215.21,22.61,262.04-74.28
	c8.64-17.85,6.59-46.13,3.14-56.37c30.47,33.02,14.08,188.75-142.8,175.28c-43.36-3.72-99.89-45.78-148.06-7.37
	C1129.11,808.8,1137.23,797.41,1146.17,788.63L1146.17,788.63z M1333.1,915.71c-75.44,25.24-170.96,14.7-206.55-74.31
	c27.24-15.43,51.62-0.33,88.83,10.64c114.93,33.84,185.46-16.9,204.8-76.27c9.51-29.18,13.43-57.37,10.95-70.1
	C1439.54,749.2,1437.46,880.84,1333.1,915.71L1333.1,915.71z"/></svg>