<svg version="1.1" id="Layer_1" xmlns="http://www.w3.org/2000/svg" xmlns:xlink="http://www.w3.org/1999/xlink" x="0px" y="0px" viewBox="0 0 2048 2500" style="enable-background:new 0 0 2048 2500;" xml:space="preserve"><style type="text/css">
	.st0{fill:#E51B23;}
	.st1{fill:url(#SVGID_1_);}
	.st2{fill:url(#SVGID_2_);}
	.st3{fill:url(#SVGID_3_);}
	.st4{fill:url(#SVGID_4_);}
	.st5{fill:url(#SVGID_5_);}
	.st6{fill:#B76E23;}
	.st7{fill:url(#SVGID_8_);}
	.st8{fill:url(#SVGID_9_);}
	.st9{fill:#F58220;}
	.st10{fill:url(#SVGID_10_);}
	.st11{fill:url(#SVGID_11_);}
	.st12{fill:url(#SVGID_12_);}
	.st13{fill:url(#SVGID_13_);}
	.st14{fill:url(#SVGID_14_);}
	.st15{fill:url(#SVGID_15_);}
	.st16{fill:url(#SVGID_16_);}
	.st17{fill:#FFFBC8;}
	.st18{fill:url(#SVGID_17_);}
	.st19{fill:url(#SVGID_18_);}
	.st20{fill:url(#SVGID_19_);}
	.st21{fill:url(#SVGID_20_);}
</style><g transform="translate(-483.03 -708.656) scale(2.41206)"><radialGradient id="SVGID_1_" cx="217.2742" cy="729.8583" r="44.16" gradientTransform="matrix(24.5098 0.1807 6.3223 15.2502 -9317.2383 -10649.71)" gradientUnits="userSpaceOnUse"><stop offset="0.36" style="stop-color:#D6812C"/><stop offset="0.899" style="stop-color:#744304"/></radialGradient><path class="st1" d="M552.91,463.79c7.27,3.37,14.37,7.07,21.29,11.1c1.72-0.38,10.54-1.76,17.68-2.61
		c-54.5-43.63-126.92-40.74-124.92-0.05l1.22,6.53c0,0-0.23-18.61,19.55-24.98c8.62-2.77,20.02-1.76,32.36-0.2
		C524.75,454.15,540.53,458.06,552.91,463.79L552.91,463.79z"/><radialGradient id="SVGID_2_" cx="213.6942" cy="731.3175" r="40.43" gradientTransform="matrix(19.7184 2.1134 -2.1578 18.6664 -2043.701 -13578.4453)" gradientUnits="userSpaceOnUse"><stop offset="0.36" style="stop-color:#D6812C"/><stop offset="0.899" style="stop-color:#744304"/></radialGradient><path class="st2" d="M518.21,477.56c-9.64-3.16-22.88-4.96-22.25-5.02c4.68-0.44,16.35,0.49,26.61,2.35
		c7.36,1.33,14.21,3.47,16.38,4.41c2.09,0.87,5.24,2,5.41,1.96c1.93-0.5,3.68-0.96,5.28-1.35c13.39-3.09,16.12-3.44,16.12-3.44
		c-34.69-18.73-76.79-22.26-113.71-4.19c-44.11,21.61-30.45,58.12-15.01,73.25c5.5,5.41,12.19,9.45,19.54,11.79
		c-4.57-4.91-9.03-10.65-12.65-16.68c-15.24-25.45-5.6-47.29,8.62-53.72c-12.49,11.05-13.11,28.53-8.21,37.9
		c23.75-16.31,60.57-32.63,86.46-39.71c1.57-0.44,2.91-0.77,3.99-0.97C535.02,484.09,523.65,479.34,518.21,477.56L518.21,477.56z"/><radialGradient id="SVGID_3_" cx="213.8895" cy="730.648" r="38.789" gradientTransform="matrix(19.7745 1.4912 -1.5699 18.7248 -2486.4656 -13488.4102)" gradientUnits="userSpaceOnUse"><stop offset="0.36" style="stop-color:#D6812C"/><stop offset="0.899" style="stop-color:#744304"/></radialGradient><path class="st3" d="M624.09,467.43c0.48-10.09,3.94-19.74,8.22-26.57c13.08-20.84,34.95-21.86,37.67-22.14
		c0.85-0.09,2.14-0.33,0.1-0.5c-26.41-2.23-56.05,15.8-59.1,52.17c2.71-0.21,12.9-0.71,12.9-0.71
		C623.9,469.23,624.07,467.89,624.09,467.43z"/><radialGradient id="SVGID_4_" cx="213.9359" cy="733.2839" r="42.671" gradientTransform="matrix(19.7745 1.4912 -1.5699 18.7248 -2486.4656 -13488.4102)" gradientUnits="userSpaceOnUse"><stop offset="0.36" style="stop-color:#D6812C"/><stop offset="0.899" style="stop-color:#744304"/></radialGradient><path class="st4" d="M743.46,469.56c-11.9-0.89-16.69-4.91-21.59-9.6c-7.02-6.7-24.25-19.54-47-19.57
		c-2.87-0.01-5.73,0.19-8.56,0.6c-10.53,1.48-21.86,5.88-29.46,15.41c-4.85,6.07-6.59,12.49-6.76,13.1c0,0,10.16,0.13,10.28-0.01
		c17.96-20.73,50.63-16.47,59.23-10.05c-27.91-6.1-42.16,4.31-48.65,10.3c5.15,0.4,12.63,0.78,20.25,1.6
		c9.92,1.06,20.76,2.8,33.83,5.68c2.15,0.47,6.88,1.52,11.2,2.73c10.56,3.16,22.84,7.25,22.84,7.25s2.32-0.6,5.14-2.33
		c4.7-2.88,11.11-8.58,12.78-17.65C756.47,467.18,752.95,470.27,743.46,469.56L743.46,469.56z"/><radialGradient id="SVGID_5_" cx="203.8262" cy="730.418" r="9.585" gradientTransform="matrix(17.4399 1.6999 -1.5816 15.0111 -2005.5251 -10789.0908)" gradientUnits="userSpaceOnUse"><stop offset="0.36" style="stop-color:#D6812C"/><stop offset="0.899" style="stop-color:#744304"/></radialGradient><path class="st5" d="M408.49,551.7c0.03,0.57,8.95-7.38,15.47-12.8c-2.44-2.45-5.06-7.11-6.23-10.3
		C410.62,534.44,408.08,543.31,408.49,551.7L408.49,551.7z"/></g></svg>