<svg version="1.1" id="Layer_1" xmlns="http://www.w3.org/2000/svg" xmlns:xlink="http://www.w3.org/1999/xlink" x="0px" y="0px" viewBox="0 0 2048 2500" style="enable-background:new 0 0 2048 2500;" xml:space="preserve"><style type="text/css">
	.st0{fill:#E51B23;}
	.st1{fill:url(#SVGID_1_);}
	.st2{fill:url(#SVGID_2_);}
	.st3{fill:url(#SVGID_3_);}
	.st4{fill:url(#SVGID_4_);}
	.st5{fill:url(#SVGID_5_);}
	.st6{fill:#B76E23;}
	.st7{fill:url(#SVGID_8_);}
	.st8{fill:url(#SVGID_9_);}
	.st9{fill:#F58220;}
	.st10{fill:url(#SVGID_10_);}
	.st11{fill:url(#SVGID_11_);}
	.st12{fill:url(#SVGID_12_);}
	.st13{fill:url(#SVGID_13_);}
	.st14{fill:url(#SVGID_14_);}
	.st15{fill:url(#SVGID_15_);}
	.st16{fill:url(#SVGID_16_);}
	.st17{fill:#FFFBC8;}
	.st18{fill:url(#SVGID_17_);}
	.st19{fill:url(#SVGID_18_);}
	.st20{fill:url(#SVGID_19_);}
	.st21{fill:url(#SVGID_20_);}
</style><path class="st0" d="M1212.17,1148.17c-32.08,20.96-99.72,64.63-133.36,82.51c-33.4,17.79-27.28,19.77-78.43,7.4
	c-21.65-5.23-121.28-27.29-134.19-29.01c-22.69-3.04-29.43-1.3-28.27,8.55c1,8.66,2.68,22.13,4.31,38.31
	c1.4,14.24,3.89,46.27,5.23,76.24c0.53,11.82,0.79,24.21,0.87,33.7c0.14,15.98-0.84,30.72,5.52,37.98c2.14,2.44,5.12,4.04,8.62,4.73
	c15.94,3.21,40.61-19.93,57.98-34.96c26.74-23.22,62.85-55.1,83.62-72.19c28.38-23.36,42.67-31.12,53.11-33.14
	c0.73-0.15,8.03-2.08,31.06,3.51c13.02,3.14,29.56,7.75,46.63,12.49c42.13,11.65,73.06,21.38,85.65,18.24
	c14.65-3.65,10.22-23.13,8.53-39.24c-1.25-11.94-2.99-29.49-3.68-47.86c-1.03-29.38,0.57-60.84,0.56-63.52
	C1225.83,1141.43,1220.54,1142.69,1212.17,1148.17L1212.17,1148.17z"/></svg>