<svg version="1.1" id="Layer_1" xmlns="http://www.w3.org/2000/svg" xmlns:xlink="http://www.w3.org/1999/xlink" x="0px" y="0px" viewBox="0 0 2048 2500" style="enable-background:new 0 0 2048 2500;" xml:space="preserve"><style type="text/css">
	.st0{fill:#E51B23;}
	.st1{fill:url(#SVGID_1_);}
	.st2{fill:url(#SVGID_2_);}
	.st3{fill:url(#SVGID_3_);}
	.st4{fill:url(#SVGID_4_);}
	.st5{fill:url(#SVGID_5_);}
	.st6{fill:#B76E23;}
	.st7{fill:url(#SVGID_8_);}
	.st8{fill:url(#SVGID_9_);}
	.st9{fill:#F58220;}
	.st10{fill:url(#SVGID_10_);}
	.st11{fill:url(#SVGID_11_);}
	.st12{fill:url(#SVGID_12_);}
	.st13{fill:url(#SVGID_13_);}
	.st14{fill:url(#SVGID_14_);}
	.st15{fill:url(#SVGID_15_);}
	.st16{fill:url(#SVGID_16_);}
	.st17{fill:#FFFBC8;}
	.st18{fill:url(#SVGID_17_);}
	.st19{fill:url(#SVGID_18_);}
	.st20{fill:url(#SVGID_19_);}
	.st21{fill:url(#SVGID_20_);}
</style><g transform="translate(-483.03 -708.656) scale(2.41206)"><g><defs><path id="SVGID_6_" d="M529.27,783.46c1.44-1.72,3.43-2.92,5.97-3.64c2.14-0.85,4.77-1.27,7.91-1.27c8.27,0,20.16,2.66,41.04,9.2
				c10.61,3.33,37.66,11.9,38.13,12.03c6.39,1.44,8.11,1.64,12.37-1.12c10.84-7.03,46.96-32,59.19-40.53
				c7.67-5.35,13.52-8.77,18.39-8.87c4.19-0.09,6.66,1,8.23,3.13c2.32,2.6,2.53,6.7,2.49,10.17c-0.01,1.41-0.27,9.89-0.29,12.26
				c0-0.16,26.2-12.79,47.08-29.55c40.87-32.79,73.01-79.12,61.79-141.32C817.01,523.19,732,472.75,612.72,480.75
				c-6.79,0.46-13.57,1.09-20.33,1.9c-56.84,6.77-104.68,26.06-142.24,52.14c1.91,4.52,9.05,16.88,12.54,21.7
				c2.97,4.11,1.63,5.9-1.2,5.83c-13.99-0.36-25.46-8.41-29.94-13.38c-56.05,46.7-83.36,109.23-75.9,161.9
				c8.96,63.17,57.38,102.45,130.21,114.81c14.76,2.51,33.29,4.21,44.86,4.3c-1.35-15.74-2.71-28.35-3.68-33.98
				C526.11,790.46,526.84,786.37,529.27,783.46L529.27,783.46z"/></defs><clipPath id="SVGID_7_"><use xlink:href="#SVGID_6_" style="overflow:visible;"/></clipPath></g></g></svg>