<svg version="1.1" id="Layer_1" xmlns="http://www.w3.org/2000/svg" xmlns:xlink="http://www.w3.org/1999/xlink" x="0px" y="0px" viewBox="0 0 2048 2500" style="enable-background:new 0 0 2048 2500;" xml:space="preserve"><style type="text/css">
	.st0{fill:#E51B23;}
	.st1{fill:url(#SVGID_1_);}
	.st2{fill:url(#SVGID_2_);}
	.st3{fill:url(#SVGID_3_);}
	.st4{fill:url(#SVGID_4_);}
	.st5{fill:url(#SVGID_5_);}
	.st6{fill:#B76E23;}
	.st7{fill:url(#SVGID_8_);}
	.st8{fill:url(#SVGID_9_);}
	.st9{fill:#F58220;}
	.st10{fill:url(#SVGID_10_);}
	.st11{fill:url(#SVGID_11_);}
	.st12{fill:url(#SVGID_12_);}
	.st13{fill:url(#SVGID_13_);}
	.st14{fill:url(#SVGID_14_);}
	.st15{fill:url(#SVGID_15_);}
	.st16{fill:url(#SVGID_16_);}
	.st17{fill:#FFFBC8;}
	.st18{fill:url(#SVGID_17_);}
	.st19{fill:url(#SVGID_18_);}
	.st20{fill:url(#SVGID_19_);}
	.st21{fill:url(#SVGID_20_);}
</style><g><path class="st9" d="M1018.56,1473.78c0.43,4.16,0.79,8.32,1.07,12.49c0.47,8.29,0.47,16.59,0,24.88
		c-0.65,11.45-1.49,27.15-2.44,43.94c-0.33,2.57-2.33,53.06-3.91,90.1c-0.15,3.45-0.24,6.31-0.31,8.32
		c-0.19,5.71-1.53,14.68,3.25,18.01c0.84,0.59,1.74,0.93,2.67,1.08c-1.04-3.01-0.7-7.22-0.11-22.31
		c1.58-37.02,3.58-87.48,3.93-90.08c0.95-16.79,1.8-32.44,2.44-43.91c0.47-8.65,0.43-16.96,0-24.89c-0.28-4.16-0.64-8.32-1.08-12.49
		c-4.61-35.92-19.88-62.19-45.04-62.19c-0.33,0-0.64,0.03-0.94,0.07C1000.39,1417.13,1014.23,1440.08,1018.56,1473.78z"/><path class="st9" d="M908.65,1435.16c1.22-0.61,1.46-0.3,1.39,1.34c-0.44,7.98-2.52,47.25-3.41,69.4
		c-0.11,2.31-0.86,4.72,0.79,0.08c1.32-3.67,4.72-13.36,5.6-15.79c0.43-19.07,2.56-50.29,2.56-50.29c-1.33-1.32-2.71-2.58-4.15-3.79
		c-1.82-1.53-1.72-1.6-3.49-0.6C908.18,1435.4,908.42,1435.28,908.65,1435.16z"/><path class="st9" d="M803.01,1376.52c5.25,2.31,8.54,8.01,9.63,17.6c3.25,28.76-18.18,74.44-50.29,81.38
		c-23.46,5.13-37.36-7.26-46.07-18.96c8.59,12.61,25.45,28.98,51.55,23.4c26.81-5.73,46.15-38.41,49.92-65.84l0,0
		c6.14-44.56-22.79-40.56-28.73-38.17c-0.04,0.01-0.07,0.04-0.11,0.06C794.57,1374.62,799.27,1374.87,803.01,1376.52z"/><path class="st9" d="M788.9,1770.79c0.75,0.35,1.56,0.48,2.4,0.46c-1.12-3.88-0.45-9.43-0.33-13.37
		c1.05-32.11,12.35-263.1,12.36-263.1c0,0-3.55-5.87-5.54-4.79c-1.1,0.59-2.45,1.41-3.98,2.39c2.52-1.4,4.01-2.19,4.02-2.15
		c0-0.02-11.3,231.06-12.34,263.12C785.28,1759.17,783.9,1768.54,788.9,1770.79z"/><path class="st9" d="M1118.86,1715.4c25.15,1.67,38.51-11.96,45.02-21.78c0.06-4.32,0.1-8.78,0.12-13.38
		c0.02-0.59,0.62-1.58,0.06-0.67c-7.9,13.88-23.09,35.74-58.79,29.55c-13.95-2.4-27.25-14.22-37.71-35.4
		C1080.08,1700.81,1098.92,1714.18,1118.86,1715.4z"/><path class="st9" d="M1529.05,1344.97c28.24,44.47,13.53,138.03,6.88,164.28c-33.48,9.77-62.47,16.1-101.5,21.08
		c-0.64,14.68-0.09,39.97,6.98,57.55c10.73,26.41,27,30.4,43.01,25.3c-3.43,0.82-7.96,1.46-13.14,0.86
		c-16.04-1.85-30.25-19.43-31.64-61.72c-0.18-5.54-0.15-11.09,0.09-16.63c39.04-4.91,67.97-11.27,101.44-21.02
		c4.67-18.25,13.15-68.88,8.46-113.09c-3.08-29.09-8.05-46.3-17.29-58.98c-11.55-15.98-30.77-21.49-44.93-23.26
		c-0.58-0.07-1.34-0.12-2.22-0.16C1502.67,1320.91,1519.14,1329.45,1529.05,1344.97z"/><path class="st9" d="M1138.99,1420.41c-13.43,13.82-28.77,58.36-30.06,118.01c-1.48,66.14,8.69,110.24,22.24,117.8
		c-10.66-15.14-17.99-55.71-16.75-112.49c1.34-59.63,16.6-104.21,30.04-117.94c5.55-5.7,14.2-10.72,20.78-7.84
		C1159.01,1406.53,1146.3,1412.87,1138.99,1420.41z"/><path class="st9" d="M1539.53,1580.44c3.83,4.39,9.59,10.75,16.31,17.36c-9.21-9.5-15.67-17.39-15.96-17.76
		C1539.77,1580.17,1539.65,1580.31,1539.53,1580.44z"/><path class="st9" d="M1679.52,1331.88c3.19,1.92,6.16,3.99,8.89,6.12C1685.21,1335.37,1682.09,1333.12,1679.52,1331.88z"/><path class="st9" d="M641.05,1661.05c2.75-15.57,5.42-28.69,8.31-40.02c1.02-12.29,2.04-24.59,3.06-36.87
		c-1.83-1.32-3.64-2.67-5.45-3.99C645,1607.11,643.01,1634.1,641.05,1661.05z"/><path class="st9" d="M1344.87,1202.35c1.51,0.41,2.98,0.98,4.38,1.68c0.03-0.01-18.67,345.55-19.65,365.84
		c-0.69,14.09-1.18,26.68-0.87,31.13c0.34,5.16,1,9.39,2.23,12.81c1.39,3.85,3.46,5.94,6.05,6.68c-0.2-0.44-0.4-0.91-0.58-1.42
		c-1.22-3.42-1.92-7.63-2.24-12.78c-0.28-4.48,0.18-17.06,0.86-31.16c0.91-18.84,17.11-325.48,19.4-368.76
		c0-0.06-2.41-1.74-5.2-3.03c-1.6-0.74-3.65-1.29-4.55-1.5c-3.48-0.87-8.22-1.8-11.6-2.13
		C1336.91,1200.25,1340.84,1201.14,1344.87,1202.35z"/><path class="st9" d="M1451.39,1419.09L1451.39,1419.09c8.82-23.96,20.97-33.9,29.54-29.34c-8.1-13.81-23.99-5.52-34.83,23.93v0
		c-8.87,24.06-15.18,56.32-15.5,77.08c1.84-0.04,3.68-0.14,5.51-0.28C1437.32,1469.84,1443.3,1441.05,1451.39,1419.09z"/><path class="st9" d="M646.96,1580.17c0,0-0.01-0.01-0.01-0.01c-0.04,0.04-0.09,0.07-0.13,0.11
		C646.86,1580.24,646.91,1580.21,646.96,1580.17z"/><polygon class="st9" points="1237.7,1338.95 1237.7,1338.95 1237.7,1338.95 	"/><path class="st9" d="M416.21,1613.21c13.87-15.46,29.86-26.6,42.12-26.68c2.52-0.01,4.84,0.51,6.97,1.5
		c-3.44-3.58-7.58-5.55-12.49-5.53c-12.24,0.08-28.24,11.2-42.11,26.68c-1.35,34.08-7.31,204.54-9.41,236.66
		c1.98-1.49,3.98-3.09,6-4.81C409.71,1794.22,414.92,1644.88,416.21,1613.21z"/><path class="st9" d="M1046.77,1659.93c-0.03-0.46-0.26-0.61-0.6-0.61c-0.32,0.02-5.13,2.74-6.94,3.74c-1.01,0.58-1.8,1.08-2.4,1.48
		c0.74-0.45,1.4-0.84,1.9-1.14c0.87-0.49,1.98-0.86,1.95,0.3c-0.19,5.97-0.74,19.42-1.14,30.1c-0.41,9.56-18.83,40.1-45.41,50.17
		c-14.34,5.45-27.92,3.92-36.78-4.44c-2.92-2.75-5.45-7.06-7.31-12.43c3.32,11.48,11.45,25.18,33.39,25.12
		c5.12,0.03,10.61-1.02,16.19-3.12c26.58-10.05,45.02-40.59,45.4-50.13C1045.54,1684.6,1046.83,1660.6,1046.77,1659.93z"/><path class="st9" d="M1651.27,1387.19c18.47-13.53,41.29,6.08,42.61,7.17c0.68-2.14,10.19-32.78,12.11-38.7
		c0.01-0.07-2.86-3.91-7.31-8.35c1.03,1.08,1.99,2.14,2.87,3.17l-12.85,39.77c-1.32-1.07-24.16-20.68-42.6-7.16
		c-4.87,3.56-8.64,9.51-10.85,16.91c-10.16,33.97,25.3,97.72,44.2,152.91c2.38,7.06,4.32,14.27,5.79,21.58
		c4.35,22.02,4.82,62.6-14.97,86.13c-13.81,16.48-39.33,24.96-72.9,14.41c-19.31-6.16-44-23.24-60.38-37.99
		c-21.96,18.88-45.37,37.84-75.5,36.64c-8.27,0.36-16.55-0.81-24.4-3.45c-10.05-3.46-20.46-10.84-29.18-18.95
		c4.12,4.31,8.6,8.5,12.84,12.03c17.66,14.76,43.2,20.46,68.38,12.9c20-6,37.17-20.36,53.37-34.3
		c16.98,14.25,49.49,37.42,74.85,41.61c26.13,4.15,46.17-4.07,57.82-18.02c10.74-12.77,15.55-30.46,16.96-47.55l0,0
		c5.14-61.15-38.29-127.59-49.75-173.04c-4.29-17.06-5.37-32.64-0.72-44.41C1643.95,1394.77,1647.25,1390.16,1651.27,1387.19z"/><path class="st9" d="M1391.52,1632.35c-0.44-0.69-0.86-1.35-1.26-2.07c0,0.02-12.06,18.45-33.08,34.78
		c-8.44,6.53-17.49,12.21-27.04,16.96c-15.38,7.47-32.71,6.33-45.73-2.51c-6.93-4.67-11.52-11.61-14.52-19.69
		c1.83,5.2,4.31,10.13,7.64,14.45c6.04,7.85,14.72,14.09,27.19,16.88c8.26,1.84,17.11,1.34,25.61-1.66
		c29.35-10.3,55.05-34.97,64.49-52.54C1393.59,1635.37,1392.49,1633.82,1391.52,1632.35z"/><path class="st9" d="M1237.7,1338.95C1237.7,1338.95,1237.69,1338.95,1237.7,1338.95c0,0.19-1.2,16.43-3.1,41.29
		c-3.51,47.24-8.88,168.85-12.17,250.35c-3.66,90.57,10.01,186.84-63.43,206.47c-33.26,8.92-73.26,2-100.54-21.87
		c23.39,24.15,58.67,33.95,90.75,30.2c11.63-1.37,25.8-5.61,38.45-15.41c27.07-20.9,37.78-45.05,39.14-131.82
		c0.35-21.6,0.42-44.84,1.43-69.29c3.33-81.32,8.45-197.26,11.88-243.1c1.89-24.97,3.12-41.25,3.08-41.29
		C1242.91,1343.92,1239.48,1340.79,1237.7,1338.95z"/><path class="st9" d="M954.5,1527.89c-2.62-5.55-7.36-5.94-10.76-4.52c-14.53,6.08-37.29,29.73-38.89,59.31l-9.87,192.3
		c-21.41,10.1-42.6,20.66-63.56,31.69c0.24,0.4,5.44,4.7,5.44,4.7c20.97-10.98,42.18-21.5,63.61-31.56
		c3.3-64.12,6.59-128.22,9.87-192.29c1.63-29.6,24.36-53.09,38.92-59.17C950.82,1527.69,952.69,1527.43,954.5,1527.89z"/><path class="st9" d="M561.73,1575.63c-8.68-33.76-26.36-53.89-50.79-61.27c3.58,1.32,7.12,2.96,10.56,4.99
		c25.94,15.27,39.89,50.51,39.9,97.11c0,0,0,0,0,0v0c0,0,0,0,0,0c0.06,131.67-76.93,240.64-163.88,299.47
		c-3.36,50.49-8.41,116.5-9.96,153.81c-0.47,11.36-0.3,42.26-0.3,42.7c-8.47,7.25-17.12,14.29-25.92,21.13
		c-39.21,30.61-49.2,37.23-47.63,4.37c-0.05,0.47-0.09,0.97-0.12,1.49c-0.38,5.41-0.2,16.03,3.57,20.87
		c2.5,3.18,6.5,5.41,12.56,2.57c7-3.25,15.04-9.81,24.96-17.58c16.1-12.52,38.09-29.7,38.09-29.7c-0.04-5.31-0.14-31.53,0.3-41.81
		c1.53-37.29,6.6-103.32,9.93-153.81c86.96-58.82,163.96-167.81,163.91-299.45h0C566.92,1604,565.15,1588.91,561.73,1575.63z"/><path class="st9" d="M709.67,1543.96L709.67,1543.96c-0.74-0.58-1.54-0.72-2.27-0.66c0.75,0,1.16,0.16,1.14,0.45
		c-0.99,12.85-4.46,49.55-5.63,65.57c-0.65,9.14-1.09,15.16-1.15,15.21c-19.76,13.09-57.76,65.73-61.42,134.84
		c-2.8,54.74-5.59,109.49-8.36,164.26c-21.22,14.5-42.17,29.41-62.83,44.7l0.04-0.88c-0.02,0.31-0.04,0.62-0.07,0.93
		c1.81,1.22,3.6,2.44,5.43,3.67c20.69-15.22,41.66-30.06,62.91-44.5c2.76-54.74,5.55-109.48,8.34-164.2
		c3.63-69.14,41.65-121.63,61.44-134.69c0.07-0.05,0.5-6.07,1.15-15.16c1.21-16.05,4.65-52.72,5.64-65.58
		C714.02,1547.61,711.36,1545.3,709.67,1543.96z"/><path class="st9" d="M818.07,1753.19L818.07,1753.19c-2.17,1.61-4.88,3.62-5.9,4.46c-0.26,0.22-0.56,0.51-0.85,0.8
		c1.39-1.02,1.47-0.83,1.53,0.15c0.06,0.69-0.41,15.31-0.94,29.75c-0.38,9.62-18.76,43.74-45.21,59.01
		c-14.27,8.22-27.73,9.34-36.52,2.74c-5.35-4.02-9.42-13.63-10.31-26.09c0.53,11.02,4.32,26.47,15.86,32.28
		c5.29,2.66,12.14,3.54,20.84,1.72c4.99-1.03,10.25-3.1,15.65-6.2c26.44-15.21,44.82-49.25,45.21-58.85
		c0.47-13.26,1.61-34.69,1.76-38.68C819.23,1752.82,819.54,1752.12,818.07,1753.19z"/></g></svg>