<svg version="1.1" id="Layer_1" xmlns="http://www.w3.org/2000/svg" xmlns:xlink="http://www.w3.org/1999/xlink" x="0px" y="0px" viewBox="0 0 2048 2500" style="enable-background:new 0 0 2048 2500;" xml:space="preserve"><style type="text/css">
	.st0{fill:#E51B23;}
	.st1{fill:url(#SVGID_1_);}
	.st2{fill:url(#SVGID_2_);}
	.st3{fill:url(#SVGID_3_);}
	.st4{fill:url(#SVGID_4_);}
	.st5{fill:url(#SVGID_5_);}
	.st6{fill:#B76E23;}
	.st7{fill:url(#SVGID_8_);}
	.st8{fill:url(#SVGID_9_);}
	.st9{fill:#F58220;}
	.st10{fill:url(#SVGID_10_);}
	.st11{fill:url(#SVGID_11_);}
	.st12{fill:url(#SVGID_12_);}
	.st13{fill:url(#SVGID_13_);}
	.st14{fill:url(#SVGID_14_);}
	.st15{fill:url(#SVGID_15_);}
	.st16{fill:url(#SVGID_16_);}
	.st17{fill:#FFFBC8;}
	.st18{fill:url(#SVGID_17_);}
	.st19{fill:url(#SVGID_18_);}
	.st20{fill:url(#SVGID_19_);}
	.st21{fill:url(#SVGID_20_);}
</style><g><path d="M858.39,604.62c-4.27-31.7-25.53-57-47.68-56.51c-22.17,0.55-37.91,26.3-33.62,58.4c4.19,32.12,26.82,58.04,49.05,57.16
		C848.26,662.83,862.69,636.34,858.39,604.62L858.39,604.62z M827.73,610.3c-6.83,0.28-14.01-7.3-16.05-17.01
		c-2.06-9.65,1.85-17.55,8.65-17.78c6.76-0.16,13.85,7.45,15.85,17.04l0,0C838.25,602.07,834.41,610.05,827.73,610.3z"/><path d="M1196.79,565L1196.79,565c-2.19-27.96-19.63-52.15-38.97-54.14c-19.43-1.94-34.29,18.7-32.05,46.97
		c2.2,28.33,20.77,53.27,40.23,54.91C1185.38,614.4,1199.09,593.01,1196.79,565z M1168.37,560.23c-5.96-0.14-11.74-7.17-12.91-15.72
		c-1.21-8.56,2.63-15.2,8.55-15c5.9,0.25,11.63,7.28,12.82,15.74C1178.02,553.67,1174.22,560.41,1168.37,560.23z"/></g></svg>