<svg version="1.1" id="Layer_1" xmlns="http://www.w3.org/2000/svg" xmlns:xlink="http://www.w3.org/1999/xlink" x="0px" y="0px" viewBox="0 0 2500 2500" style="enable-background:new 0 0 2500 2500;" xml:space="preserve"><style type="text/css">
	.st0{fill-rule:evenodd;clip-rule:evenodd;fill:#A89A6F;}
	.st1{fill:#526364;}
</style><path class="st0" d="M1606.86,748.72c-5.19-12.1-15.55-20.75-25.91-25.93c-15.55-3.46-31.1-1.72-41.46,12.1
	c-8.66,10.38-13.83,27.65-5.19,41.48c3.45,12.1,15.55,15.55,15.55,29.38l-108.88,248.85c-6.91,8.65-6.91,22.46-15.55,27.65
	c-3.48-1.72-6.91-5.19-6.91-8.65l12.11-205.65l8.64-139.98c1.72-10.36-3.48-25.93,5.16-34.56c15.55-3.46,25.94-10.36,32.85-22.46
	c5.16-13.83,5.16-34.56-5.19-44.93c-10.36-10.36-22.46-13.81-38.03-12.1c-13.83,5.19-29.39,15.55-31.1,34.56s8.64,34.56,22.46,41.48
	c3.45,0,5.19,3.46,6.91,6.91l-84.68,369.83c-1.72,6.91-6.91,12.1-10.36,10.36c-1.73-1.73-5.19-5.19-5.19-8.64l-38.03-406.11
	c6.91-15.55,25.91-13.83,31.1-31.1c5.19-8.64,3.48-24.2,1.72-34.56c-6.91-10.38-17.28-17.29-29.36-20.74
	c-10.39-1.72-22.46,3.46-31.1,6.91c-10.38,8.64-19.01,22.46-15.56,39.74c1.72,10.36,6.91,17.29,13.81,22.46
	c5.19,6.91,19.03,5.19,19.03,17.29l-17.28,203.92l-17.29,205.64l-3.46,6.91c-3.45,3.46-8.64-1.72-8.64-3.46l-95.06-364.63
	c-1.72-5.17-1.72-12.1,1.73-17.29c13.83-8.64,24.19-29.38,20.74-48.39c-6.91-17.28-19-27.65-38.01-27.65
	c-15.55,1.72-31.1,8.64-36.29,24.2c-6.91,15.55-3.46,34.56,6.91,44.93c8.65,10.36,29.38,3.45,34.56,17.28l6.91,67.4l32.84,307.6
	c0,8.64,3.46,17.29-1.73,24.19c-1.72,1.72-6.91,1.72-8.64-1.73c-43.2-91.59-86.4-188.37-129.61-281.69
	c-1.74-6.91-6.91-15.55-3.46-24.2c5.17-6.91,12.1-13.83,15.55-22.46c1.73-10.38,1.73-20.74-5.19-29.38
	c-3.46-8.65-12.1-13.83-22.46-17.29c-13.83-3.46-32.84,1.72-43.22,12.1c-8.64,10.38-8.64,29.38-3.45,43.2
	c5.19,10.36,13.83,17.28,24.19,19.01c10.36,3.46,20.74,0,25.93,10.36c41.46,136.52,79.49,273.04,117.52,409.57l20.74,15.55
	c43.2,25.93,93.32,48.39,146.91,44.94c22.44-1.75,41.46-8.66,58.74-15.55c17.28-5.19,65.67-32.85,76.04-39.75l86.4-300.7
	l32.83-115.78c6.91-17.29,32.83-8.64,41.46-25.93C1603.41,772.91,1608.57,760.81,1606.86,748.72L1606.86,748.72z M1425.4,1222.23
	c-32.83,15.55-67.4,27.64-108.88,29.38c-55.3,8.64-120.97-10.38-164.17-32.84c-3.45,0-1.72-3.46,0-5.19
	c34.56-24.19,74.3-38.01,120.98-43.2c57.02-1.72,110.59,8.64,152.07,41.48C1430.6,1215.32,1430.6,1220.49,1425.4,1222.23
	L1425.4,1222.23z"/></svg>