<svg version="1.1" id="Layer_1" xmlns="http://www.w3.org/2000/svg" xmlns:xlink="http://www.w3.org/1999/xlink" x="0px" y="0px" viewBox="0 0 2500 2500" style="enable-background:new 0 0 2500 2500;" xml:space="preserve"><style type="text/css">
	.st0{fill-rule:evenodd;clip-rule:evenodd;fill:#A89A6F;}
	.st1{fill:#526364;}
</style><path class="st1" d="M1366.66,1775.24c-5.19,19-19.03,25.91-32.85,32.83c-41.46,6.93-58.74,1.73-101.96,3.45h-17.29
	c-5.19-3.44-10.36-8.64-10.36-15.55h0v-281.7c0-6.91,6.93-13.8,12.1-13.8c13.83-5.19,41.48-1.75,57.04-6.91v-34.58H1062.5V1497
	c8.65,3.46,36.3-1.72,51.85,6.91c10.36,6.91,8.64,22.46,10.36,32.83v255.78c1.74,8.64-6.9,13.83-10.36,17.28
	c-25.93,3.48-31.11,0-53.58,1.72V1853l352.53-1.75v-164.17h-36.28C1373.55,1716.47,1373.55,1747.57,1366.66,1775.24z"/></svg>