<svg version="1.1" id="Layer_1" xmlns="http://www.w3.org/2000/svg" xmlns:xlink="http://www.w3.org/1999/xlink" x="0px" y="0px" viewBox="0 0 2500 2500" style="enable-background:new 0 0 2500 2500;" xml:space="preserve"><style type="text/css">
	.st0{fill-rule:evenodd;clip-rule:evenodd;fill:#A89A6F;}
	.st1{fill:#526364;}
</style><path class="st1" d="M487.04,1745.85c-1.72,19,1.72,38.03-5.19,55.3c-3.46,6.91-10.36,8.64-17.29,6.91
	c-6.91-1.72-12.1-5.19-15.55-12.11c-5.17-31.1-1.72-65.65-8.64-96.77c-8.64-31.1-36.29-38.03-62.22-44.94c-1.72,0-3.46-5.16,0-5.16
	c29.38-6.91,53.58-10.39,74.3-31.1c22.46-19.03,32.84-62.22,22.46-96.79c-15.55-46.67-60.49-60.47-100.23-62.22H113.76v36.3
	c19.01,1.72,39.74,0,55.3,5.19c5.19,1.73,6.91,8.64,8.65,13.8v235.03l-3.46,48.38c-10.36,24.21-44.93,13.83-63.94,17.3v38.03h205.64
	v-39.74h-43.2l-12.1-1.75c-5.19-3.45-6.91-10.36-6.91-17.28v-122.68l5.19-3.48c22.46-1.72,36.29-3.45,65.67,0
	c17.29,3.48,29.38,15.55,38.01,31.1c12.1,36.3,6.91,76.04,13.83,115.79c3.46,22.46,17.29,36.28,34.56,43.19
	c27.65,10.39,67.4,10.39,88.14-6.91c24.19-25.9,17.28-70.84,19.01-105.39H487.04z M347.04,1617.98L347.04,1617.98
	c-44.93,1.72-57.03,1.72-89.87,1.72l-3.46-3.48v-112.32c0-3.45,6.91-5.19,10.38-5.19c25.93,5.19,86.4-8.64,110.59,13.83
	c13.83,13.83,24.19,38.03,19.01,63.94C385.06,1598.95,369.52,1616.23,347.04,1617.98z"/></svg>