<svg version="1.1" id="Layer_1" xmlns="http://www.w3.org/2000/svg" xmlns:xlink="http://www.w3.org/1999/xlink" x="0px" y="0px" viewBox="0 0 2500 2500" style="enable-background:new 0 0 2500 2500;" xml:space="preserve"><style type="text/css">
	.st0{fill-rule:evenodd;clip-rule:evenodd;fill:#A89A6F;}
	.st1{fill:#526364;}
</style><path class="st1" d="M1472.08,1498.72c22.46,1.75,36.29,0,57.02,1.75c5.19,1.71,6.91,8.64,6.91,13.8l0,0H1536v267.9
	c1.72,8.64,0,20.73-6.91,25.91c-12.07,6.93-34.55,3.45-58.74,3.45v41.49h376.73l1.72-167.65h-39.74
	c-1.71,22.46-1.71,44.94-5.19,67.4c-5.16,31.1-25.91,51.83-51.83,57.02c-51.85,3.48-86.4,0-124.43,1.72
	c-5.19,0-13.83,1.75-15.55-5.16v-133.07l5.16-3.48c22.48-3.45,46.67-5.16,62.22,8.64c20.75,13.83,15.55,50.13,17.3,74.32h39.74
	v-202.2h-34.58c0,0-1.73,32.84-6.91,46.67c-13.8,34.55-50.1,29.39-77.77,29.39l-5.16-5.19v-115.79c1.72-6.91,15.55-3.44,17.28-5.16
	l112.32-1.75c12.1,1.75,22.46,3.46,32.85,6.91c34.55,19.01,36.28,69.13,36.28,110.59h38.03v-157.26h-376.73V1498.72z"/></svg>