<svg version="1.1" id="Layer_1" xmlns="http://www.w3.org/2000/svg" xmlns:xlink="http://www.w3.org/1999/xlink" x="0px" y="0px" viewBox="0 0 2500 2500" style="enable-background:new 0 0 2500 2500;" xml:space="preserve"><style type="text/css">
	.st0{fill-rule:evenodd;clip-rule:evenodd;fill:#A89A6F;}
	.st1{fill:#526364;}
</style><path class="st1" d="M2320.58,1794.22l-114.04-145.14l-6.91-10.39c34.55-43.2,70.85-82.94,105.41-126.16
	c13.83-17.28,67.4-13.83,67.4-13.83v-39.74h-184.92l1.75,39.74l34.55,1.75l6.91,1.72c5.18,5.17,5.18,13.84,1.73,19
	c-20.75,25.94-41.46,51.85-62.22,74.32h-5.19l-53.55-69.13c-3.46-5.2-1.75-13.84,1.73-19.03c5.16-3.44,8.64-6.89,15.55-6.89
	c8.64-1.75,20.73,1.72,27.64-1.75v-39.74h-212.56v41.49h19.03c18.99,0,39.74,1.72,48.38,15.55
	c35.65,44.09,70.22,89.03,103.68,134.79l3.45,5.16c-39.75,44.94-79.49,89.88-115.77,134.82c-10.39,10.36-20.74,17.28-32.85,20.73
	c-19,3.48-24.19,0-41.46,1.75v38l198.75,1.75v-39.74h-38.03c-6.91-1.75-12.1-5.2-15.55-10.39c-3.48-6.91-1.75-12.09,0-19
	l62.22-72.58c5.16-6.93,10.36-12.11,17.28-12.11c24.19,29.39,48.39,58.75,70.85,89.85c0,6.91-1.73,15.55-6.91,19.03
	c-13.84,8.64-41.46,1.71-53.58,5.19V1853h226.39v-41.5C2362.07,1811.5,2334.4,1813.25,2320.58,1794.22z"/></svg>