<svg version="1.1" id="Layer_1" xmlns="http://www.w3.org/2000/svg" xmlns:xlink="http://www.w3.org/1999/xlink" x="0px" y="0px" viewBox="0 0 2500 2500" style="enable-background:new 0 0 2500 2500;" xml:space="preserve"><style type="text/css">
	.st0{fill-rule:evenodd;clip-rule:evenodd;fill:#A89A6F;}
	.st1{fill:#526364;}
</style><path class="st1" d="M943.27,1516.02c-32.84-36.3-72.59-57.04-126.16-63.97c-13.83-1.72-13.83,0-29.38-1.72
	c-44.93,1.72-86.4,17.28-122.69,43.22c-57.03,41.46-93.32,133.07-70.85,216c20.74,77.77,72.58,127.89,138.26,148.62
	c19.01,3.48,51.85,6.91,69.13,6.91c79.49-1.72,141.71-46.67,178-120.96C1012.38,1669.81,993.37,1567.85,943.27,1516.02
	L943.27,1516.02z M877.59,1766.6L877.59,1766.6c-19.01,29.36-53.57,48.38-86.4,46.67c-17.29,0-38.01-3.48-51.85-13.83
	c-50.12-29.39-63.94-103.68-58.75-169.37c3.45-51.83,27.64-105.41,69.13-122.71c17.28-8.64,36.29-6.89,60.48-6.89
	c29.39,5.16,55.3,24.19,70.85,53.55C912.15,1614.5,912.15,1707.83,877.59,1766.6z"/></svg>