<svg version="1.1" id="Layer_1" xmlns="http://www.w3.org/2000/svg" xmlns:xlink="http://www.w3.org/1999/xlink" x="0px" y="0px" viewBox="0 0 2500 1106" style="enable-background:new 0 0 2500 1106;" xml:space="preserve"><style type="text/css">
	.st0{fill:#00295E;}
	.st1{fill:#4DBD38;}
	.st2{fill:#B2B7BB;}
</style><path class="st0" d="M2302.83,361.56L2302.83,361.56c-171.91-82.19-392.73-99.97-392.73-99.97
	c-96.35-117.73-259.15-135.19-423.7-135.19c0,0-828.75,1.82-957.68,1.82c-150.06,0-165.12-59.52-165.12-59.52L162.44,445.36h522.39
	c164.39,0,172.64-16.46,281.69-96.67c115.83-85.21,208.27-116.02,317.72-116.02c109.38,0,181.81,24.65,303.55,78.61
	c121.81,53.91,186.52,80.13,258.99,49.31c0,0-57.04,77.06-229.67,4.61c-172.6-72.42-218.81-87.82-323.66-87.82
	c-103.42,0-221.87,49.62-370.17,197.61l176.74,142.22c0,0-40.89,63.16-67.81,103.5c-26.84,40.32-24.34,67.25-10.02,86.94
	c14.35,19.74,32.43,28.66,97.86,28.66c65.41,0,589.7-1.17,648.36-1.17c51.01,0,210.53,4.75,335.07,29.62
	c165.36,33.08,58.69,172.55,58.69,172.55s110.74-72.91,220.36-244.77C2504.83,600.8,2474.68,443.74,2302.83,361.56z M1361.54,347.96
	c-9.73,17.67-19.35,35.25-24.96,45.59c0.16,0.05,0.59,0.05,0.59,0.05c-20.51,36.56-66,110.83,110.27,122.8
	c151.51,10.37,204.93-8.95,245.48-65.54v0c23.3,2.95,47.9,3.23,75.24-0.2c-14.51,31.68-52.77,102.93-211.1,102.93h-170.3
	c-91.1,0-158.26-10.38-258.94-109.99C1127.83,443.59,1226.46,339.61,1361.54,347.96z M1601.7,723.51
	c-126.1-7.24-204.33,12.52-242.79,70.65v-0.02h-64.93c53.25-93.75,143.86-111.87,247.65-112.2
	c212.33-0.67,517.82,71.65,689.26,172.01C2091.84,802.14,1912.93,741.55,1601.7,723.51z M2255.21,817.46
	c-144.9-75.41-419.1-174.11-763.07-174.3c-150.5,8.48-207.96,39.04-284.05,152.36h-83.28C1195.47,671.06,1264.14,598,1411.58,598
	h182.02c106.3,0,162.37,6.7,224.61-118.55c1.88-3.79,3.76-7.35,5.54-10.82c9.66-25.67,51.53-117.43,164.03-140.18
	c0,0-66.85,45.29,11.33,63.99C2155.44,414.08,2461.28,471.38,2255.21,817.46z"/></svg>