<svg version="1.1" id="Layer_1" xmlns="http://www.w3.org/2000/svg" xmlns:xlink="http://www.w3.org/1999/xlink" x="0px" y="0px" viewBox="0 0 2500 2500" style="enable-background:new 0 0 2500 2500;" xml:space="preserve"><style type="text/css">
	.st0{fill-rule:evenodd;clip-rule:evenodd;fill:#CC2229;stroke:#000000;stroke-width:0.216;stroke-miterlimit:2.613;}
	.st1{fill-rule:evenodd;clip-rule:evenodd;fill:#00ACEC;stroke:#000000;stroke-width:0.216;stroke-miterlimit:2.613;}
	.st2{fill-rule:evenodd;clip-rule:evenodd;fill:#FFF22D;stroke:#000000;stroke-width:0.216;stroke-miterlimit:2.613;}
</style><path class="st2" d="M1778,584.04c21.76,87.39,53.73,164.56,108.78,219.29c55.04,55.07,131.85,87.05,219.19,108.82v2.97
	c-88,21.1-165.47,52.76-220.19,107.83c-55.04,55.07-86.69,132.23-107.79,220.28h-2.63c-21.74-87.39-53.71-164.22-108.75-219.29
	c-55.04-54.75-131.85-87.05-219.19-108.83v-2.97c88-21.1,165.13-52.76,220.19-107.83c55.04-54.73,86.69-132.23,107.77-220.28h2.63
	L1778,584.04L1778,584.04z"/></svg>