<svg version="1.1" id="Layer_1" xmlns="http://www.w3.org/2000/svg" xmlns:xlink="http://www.w3.org/1999/xlink" x="0px" y="0px" viewBox="0 0 2500 2500" style="enable-background:new 0 0 2500 2500;" xml:space="preserve"><style type="text/css">
	.st0{fill-rule:evenodd;clip-rule:evenodd;fill:#CC2229;stroke:#000000;stroke-width:0.216;stroke-miterlimit:2.613;}
	.st1{fill-rule:evenodd;clip-rule:evenodd;fill:#00ACEC;stroke:#000000;stroke-width:0.216;stroke-miterlimit:2.613;}
	.st2{fill-rule:evenodd;clip-rule:evenodd;fill:#FFF22D;stroke:#000000;stroke-width:0.216;stroke-miterlimit:2.613;}
</style><path d="M1525.21,1296.33c-6.91-11.22-19.45-22.77-37.24-33.64c-5.95-3.62-14.19-8.25-24.72-13.85c-5.67-2.69-11.08-5.89-16.16-9.56
	v75.86c6.25,4.28,10.88,8.24,13.85,11.85c3.63,5.27,5.6,11.22,5.6,18.13c0,7.6-1.97,13.53-5.27,17.48
	c-3.29,4.28-7.94,6.29-14.19,6.59h-0.01v56.73h0.32c29,0,51.09-7.26,65.91-22.11c14.85-14.5,22.42-35.95,22.42-63.97
	C1535.74,1322.7,1532.46,1307.86,1525.21,1296.33z"/></svg>