<svg version="1.1" id="Layer_1" xmlns="http://www.w3.org/2000/svg" xmlns:xlink="http://www.w3.org/1999/xlink" x="0px" y="0px" viewBox="0 0 2500 2500" style="enable-background:new 0 0 2500 2500;" xml:space="preserve"><style type="text/css">
	.st0{fill-rule:evenodd;clip-rule:evenodd;fill:#CC2229;stroke:#000000;stroke-width:0.216;stroke-miterlimit:2.613;}
	.st1{fill-rule:evenodd;clip-rule:evenodd;fill:#00ACEC;stroke:#000000;stroke-width:0.216;stroke-miterlimit:2.613;}
	.st2{fill-rule:evenodd;clip-rule:evenodd;fill:#FFF22D;stroke:#000000;stroke-width:0.216;stroke-miterlimit:2.613;}
</style><path d="M707.49,1249.51h-0.01v-32c0-8.25,1.98-14.5,5.6-18.79c2.1-2.38,4.85-4.1,7.91-4.95v-57.04
	c-26.69,0.99-46.79,7.26-60.31,18.47c-14.51,12.53-22.09,32-22.09,58.7v136.52c0,26.37,7.59,45.16,22.42,57.04
	c12.85,10.54,32.97,16.16,59.99,17.48v-57.07c-3.29-0.99-5.93-2.63-7.91-4.6c-3.63-3.62-5.6-9.87-5.6-18.79V1297H721v-47.5
	L707.49,1249.51L707.49,1249.51z"/></svg>