<svg version="1.1" id="Layer_1" xmlns="http://www.w3.org/2000/svg" xmlns:xlink="http://www.w3.org/1999/xlink" x="0px" y="0px" viewBox="0 0 2500 2500" style="enable-background:new 0 0 2500 2500;" xml:space="preserve"><style type="text/css">
	.st0{fill-rule:evenodd;clip-rule:evenodd;fill:#CC2229;stroke:#000000;stroke-width:0.216;stroke-miterlimit:2.613;}
	.st1{fill-rule:evenodd;clip-rule:evenodd;fill:#00ACEC;stroke:#000000;stroke-width:0.216;stroke-miterlimit:2.613;}
	.st2{fill-rule:evenodd;clip-rule:evenodd;fill:#FFF22D;stroke:#000000;stroke-width:0.216;stroke-miterlimit:2.613;}
</style><path d="M976.77,1213.89v136.55c0,26.37,7.59,45.16,22.41,57.04c14.16,11.19,36.25,17.15,66.57,17.81v-56.39
	c-6.59-0.36-11.53-2.33-14.5-5.63c-3.62-3.62-5.6-9.87-5.6-18.79V1297h20.1v-47.5h-20.09v0h-0.01l0,0h0.01v-31.98
	c0-8.25,1.98-14.5,5.6-18.79c3.29-3.62,8.25-5.6,14.5-5.94v-56.39c-29.99,0.32-52.41,6.6-66.91,18.79
	C984.35,1167.72,976.77,1187.19,976.77,1213.89z"/></svg>