<svg version="1.1" id="Layer_1" xmlns="http://www.w3.org/2000/svg" xmlns:xlink="http://www.w3.org/1999/xlink" x="0px" y="0px" viewBox="0 0 2500 2500" style="enable-background:new 0 0 2500 2500;" xml:space="preserve"><style type="text/css">
	.st0{fill-rule:evenodd;clip-rule:evenodd;fill:#CC2229;stroke:#000000;stroke-width:0.216;stroke-miterlimit:2.613;}
	.st1{fill-rule:evenodd;clip-rule:evenodd;fill:#00ACEC;stroke:#000000;stroke-width:0.216;stroke-miterlimit:2.613;}
	.st2{fill-rule:evenodd;clip-rule:evenodd;fill:#FFF22D;stroke:#000000;stroke-width:0.216;stroke-miterlimit:2.613;}
</style><path d="M112.91,1353.71c-3.31-5.29-5.28-15.17-5.28-29.03c0-0.99,0.32-3.28,0.32-6.25c0.32-2.96,0.32-5.29,0.32-6.94H37.76
	c0,1.65-0.34,3.98-0.32,6.94c-0.32,8.56-0.66,14.85-0.66,18.47c0,31.33,7.59,54.08,22.75,67.94c15.16,13.83,39.54,20.44,73.82,20.44
	h1.32v-63.33c-1.31,0-2.63,0.32-3.96,0.32C122.47,1362.27,116.53,1359.31,112.91,1353.71z"/></svg>