<svg version="1.1" id="Layer_1" xmlns="http://www.w3.org/2000/svg" xmlns:xlink="http://www.w3.org/1999/xlink" x="0px" y="0px" viewBox="0 0 2500 2500" style="enable-background:new 0 0 2500 2500;" xml:space="preserve"><style type="text/css">
	.st0{fill-rule:evenodd;clip-rule:evenodd;fill:#CC2229;stroke:#000000;stroke-width:0.216;stroke-miterlimit:2.613;}
	.st1{fill-rule:evenodd;clip-rule:evenodd;fill:#00ACEC;stroke:#000000;stroke-width:0.216;stroke-miterlimit:2.613;}
	.st2{fill-rule:evenodd;clip-rule:evenodd;fill:#FFF22D;stroke:#000000;stroke-width:0.216;stroke-miterlimit:2.613;}
</style><path d="M1427.67,1212.23c0-5.59,1.65-10.22,5.27-13.84c1.96-1.92,4.32-3.38,6.91-4.29v-57.05c-25.38,0.99-44.51,7.59-58.01,19.78
	c-14.85,13.19-21.76,32.64-21.76,58.7c0,12.2,0.99,23.09,3.96,32.32c2.89,9.07,7.74,17.4,14.19,24.4
	c5.6,6.59,19.13,15.51,40.21,26.73c9.25,4.94,16.48,8.9,21.43,11.53l0,0v-76.83C1431.63,1226.42,1427.67,1219.16,1427.67,1212.23z"/></svg>