<svg version="1.1" id="Layer_1" xmlns="http://www.w3.org/2000/svg" xmlns:xlink="http://www.w3.org/1999/xlink" x="0px" y="0px" viewBox="0 0 2500 2500" style="enable-background:new 0 0 2500 2500;" xml:space="preserve"><style type="text/css">
	.st0{fill-rule:evenodd;clip-rule:evenodd;fill:#CC2229;stroke:#000000;stroke-width:0.216;stroke-miterlimit:2.613;}
	.st1{fill-rule:evenodd;clip-rule:evenodd;fill:#00ACEC;stroke:#000000;stroke-width:0.216;stroke-miterlimit:2.613;}
	.st2{fill-rule:evenodd;clip-rule:evenodd;fill:#FFF22D;stroke:#000000;stroke-width:0.216;stroke-miterlimit:2.613;}
</style><path d="M42.03,1197.07c1.84,4.69,4.28,9.12,7.25,13.19c2.97,4.28,7.91,10.22,15.16,17.47c4.28,4.95,10.54,10.56,18.46,17.82
	c8.24,7.25,21.75,18.13,40.21,32.98c4.29,3.62,8.25,6.91,11.54,10.21h0.01V1201c-17.13-13.51-25.38-28.35-25.38-44.19
	c0-9.88,1.65-17.13,5.28-21.43c3.29-3.94,9.22-6.26,17.13-6.26c1,0,1.98,0,2.97,0.34v-63.32c-34.62,0.34-59.34,6.93-74.82,20.45
	c-15.16,13.51-23.07,35.94-23.07,66.94c0,11.22,0.34,20.12,1.32,26.72C38.75,1187.19,40.05,1192.78,42.03,1197.07z"/></svg>