<svg version="1.1" id="Layer_1" xmlns="http://www.w3.org/2000/svg" xmlns:xlink="http://www.w3.org/1999/xlink" x="0px" y="0px" viewBox="0 0 2500 2500" style="enable-background:new 0 0 2500 2500;" xml:space="preserve"><style type="text/css">
	.st0{fill-rule:evenodd;clip-rule:evenodd;fill:#CC2229;stroke:#000000;stroke-width:0.216;stroke-miterlimit:2.613;}
	.st1{fill-rule:evenodd;clip-rule:evenodd;fill:#00ACEC;stroke:#000000;stroke-width:0.216;stroke-miterlimit:2.613;}
	.st2{fill-rule:evenodd;clip-rule:evenodd;fill:#FFF22D;stroke:#000000;stroke-width:0.216;stroke-miterlimit:2.613;}
</style><path d="M224.64,1300.96c-1.97-6.95-4.28-13.2-7.57-19.13c-2.97-5.95-7.91-12.87-14.18-21.1c-2.97-3.98-9.56-10.23-19.78-19.14
	c-12.78-11.1-25.75-21.98-38.9-32.64c-0.66-0.65-1.65-1.31-2.31-1.97v89.05c2.65,3.29,4.95,6.26,6.26,8.9
	c3.96,7.25,5.6,17.15,5.6,29.69c0,10.21-1.65,17.47-5.27,21.43c-1.65,1.97-3.96,3.62-6.6,4.6l0,0v64.65
	c29.66-0.99,51.09-7.6,63.62-19.8c13.84-13.18,20.76-36.57,20.76-70.22c0-9.57-0.32-17.15-0.32-22.77
	C225.62,1306.56,225.3,1302.93,224.64,1300.96z"/></svg>