<svg version="1.1" id="Layer_1" xmlns="http://www.w3.org/2000/svg" xmlns:xlink="http://www.w3.org/1999/xlink" x="0px" y="0px" viewBox="0 0 2500 2500" style="enable-background:new 0 0 2500 2500;" xml:space="preserve"><style type="text/css">
	.st0{fill-rule:evenodd;clip-rule:evenodd;fill:#333E94;}
	.st1{fill:#333E94;}
	.st2{fill-rule:evenodd;clip-rule:evenodd;fill:#F4DA3C;}
	.st3{fill-rule:evenodd;clip-rule:evenodd;fill:#D8B73D;}
	.st4{fill-rule:evenodd;clip-rule:evenodd;fill:#E8C739;}
	.st5{fill-rule:evenodd;clip-rule:evenodd;fill:#C4993B;}
</style><path class="st1" d="M800.93,1227.32H685.12c0,0-27.59,1.09-27.59-19.22v-10.16c0,0-3.5-20.52,26.33-20.52h70.26
	c0,0,37.47,0,37.47,25.38h59.92c0,0-3.54-66.86-65.07-66.86H668.32c0,0-71.27,0-71.27,53.09v26.68c0,0-3.54,53.09,60.48,53.09
	h117.09c0,0,26.3,0.19,26.3,16.06l0,0h0.01v8.48c0,21.56-26.3,20.31-26.3,20.31h-93.25c0,0-23.84,0-23.84-20.31h-60.48
	c0,0-3.54,61.75,60.48,61.75h143.39c0,0,55.54-6.56,55.54-51.62v-34.66C856.47,1268.81,852.55,1227.32,800.93,1227.32z"/></svg>