<svg version="1.1" id="Layer_1" xmlns="http://www.w3.org/2000/svg" xmlns:xlink="http://www.w3.org/1999/xlink" x="0px" y="0px" viewBox="0 0 2500 2500" style="enable-background:new 0 0 2500 2500;" xml:space="preserve"><style type="text/css">
	.st0{fill-rule:evenodd;clip-rule:evenodd;fill:#333E94;}
	.st1{fill:#333E94;}
	.st2{fill-rule:evenodd;clip-rule:evenodd;fill:#F4DA3C;}
	.st3{fill-rule:evenodd;clip-rule:evenodd;fill:#D8B73D;}
	.st4{fill-rule:evenodd;clip-rule:evenodd;fill:#E8C739;}
	.st5{fill-rule:evenodd;clip-rule:evenodd;fill:#C4993B;}
</style><path class="st1" d="M1424.18,1246.15v-2.53c0,0,31.71-0.83,31.71-40.82v-13.77c0,0,4.97-53.09-64.67-53.09h-183.99v219.12h177.15
	c0,0,82.05,3.58,82.05-51.62v-10.13C1466.44,1293.32,1467.69,1246.15,1424.18,1246.15z M1257.58,1182.75l126.22,0.01
	c17.38,0,17.38,17.73,17.38,17.73v5.73c0,22.8-16.8,21.09-16.8,21.09h-126.81V1182.75z M1406.18,1283.59v7.61
	c0,17.73-19.91,17.73-19.91,17.73h-128.69v-44.4h128.69C1409.9,1264.54,1406.18,1283.59,1406.18,1283.59z"/></svg>