<svg version="1.1" id="Layer_1" xmlns="http://www.w3.org/2000/svg" xmlns:xlink="http://www.w3.org/1999/xlink" x="0px" y="0px" viewBox="0 0 858.35 212.12" style="enable-background:new 0 0 858.35 212.12;" xml:space="preserve"><style type="text/css">
	.st0{fill:#029745;}
	.st1{fill:#FECA09;}
</style><path class="st1" d="M365.24,102.91c0.54,0.37,1.08,0.78,1.65,1.14c13.22,8.23,17.81,20.43,15.63,35.33
	c-2.91,19.95-16.86,32.58-37.61,33.14c-22.88,0.62-45.78,0.23-68.68,0.32c-1.55,0.01-2.1-0.54-1.98-2.04
	c0.09-1.06,0.02-2.14,0.02-3.21c0-41.31,0.02-82.61-0.06-123.92c0-2.51,0.51-3.28,3.17-3.26c20.17,0.13,40.33,0.04,60.5,0.09
	c9.09,0.02,17.74,1.82,25.74,6.45c17.83,10.33,23.02,39.94,3.3,54.31C366.31,101.7,365.52,101.99,365.24,102.91z M312.77,130.76
	c0,3.51,0.05,7.01-0.02,10.51c-0.03,1.38,0.17,2.17,1.85,2.15c6.42-0.08,12.86,0.09,19.28-0.11c4.59-0.14,7.84-2.97,9.07-7.38
	c0.93-3.35,0.94-6.74,0.05-10.1c-1.21-4.58-4.48-7.35-9.26-7.46c-6.33-0.15-12.66-0.02-18.98-0.09c-1.49-0.02-2.06,0.42-2.01,1.98
	C312.84,123.75,312.77,127.26,312.77,130.76z M312.77,81.06c0,3.21,0.13,6.43-0.05,9.63c-0.12,2.03,0.66,2.44,2.5,2.41
	c4.86-0.1,9.73-0.01,14.6-0.03c6.52-0.03,9.9-2.98,10.75-9.44c0.31-2.33,0.17-4.66-0.39-6.96c-1.08-4.42-4.11-7.17-8.65-7.31
	c-5.64-0.17-11.29,0-16.93-0.09c-1.68-0.02-1.87,0.78-1.84,2.15C312.82,74.64,312.77,77.85,312.77,81.06z"/></svg>