<svg version="1.1" id="Layer_1" xmlns="http://www.w3.org/2000/svg" xmlns:xlink="http://www.w3.org/1999/xlink" x="0px" y="0px" viewBox="0 0 858.35 212.12" style="enable-background:new 0 0 858.35 212.12;" xml:space="preserve"><style type="text/css">
	.st0{fill:#029745;}
	.st1{fill:#FECA09;}
</style><path class="st1" d="M262.13,89.5c0,14.04-0.21,28.07,0.05,42.1c0.34,17.68-7.74,30.35-23.36,37.51
	c-21.19,9.71-42.86,9.48-63.68-1.21c-13.46-6.92-20.2-18.73-20.21-34.06c-0.01-30.12,0.03-60.23-0.06-90.35
	c-0.01-2.44,0.64-3.09,3.06-3.06c11.01,0.13,22.03,0.12,33.04,0.01c2.28-0.02,2.92,0.56,2.91,2.89
	c-0.08,29.04-0.06,58.09-0.05,87.13c0,6.51,2.58,9.89,8.93,11.47c4.04,1.01,8.12,0.98,12.13-0.18c5.76-1.68,8.35-5.14,8.35-11.09
	c0.01-28.95,0.04-57.9-0.06-86.84c-0.01-2.6,0.54-3.44,3.3-3.4c10.91,0.17,21.83,0.13,32.75,0.02c2.25-0.02,2.96,0.52,2.94,2.88
	C262.07,58.7,262.13,74.1,262.13,89.5z"/></svg>