<svg version="1.1" id="Layer_1" xmlns="http://www.w3.org/2000/svg" xmlns:xlink="http://www.w3.org/1999/xlink" x="0px" y="0px" viewBox="0 0 858.35 212.12" style="enable-background:new 0 0 858.35 212.12;" xml:space="preserve"><style type="text/css">
	.st0{fill:#029745;}
	.st1{fill:#FECA09;}
</style><path class="st1" d="M51.71,189.17c-5.42-4.46-10.29-8.45-15.14-12.46c-7.81-6.45-15.58-12.96-23.46-19.34
	c-1.55-1.25-1.33-1.79,0.06-2.93c12.58-10.33,25.1-20.72,37.64-31.09c0.13-0.11,0.35-0.11,0.9-0.26c0,4.9,0.07,9.71-0.04,14.51
	c-0.04,1.83,0.41,2.51,2.39,2.54c16.08,0.22,32.16,0.57,48.23,0.84c4.05,0.07,6.61-1.39,7.36-4.02c0.85-2.95-0.33-5.68-3.83-7.75
	c-8.39-4.98-17.51-8.49-26.19-12.89c-8.1-4.11-16.2-8.26-22.29-15.24c-16.59-19.02-8.6-48.76,15.39-57.61
	c5.92-2.19,12.07-3.14,18.32-3.32c16.08-0.45,32.16,0.53,48.24,0.46c1.58-0.01,1.95,0.6,1.94,2.08c-0.05,9.26-0.11,18.52,0.03,27.78
	c0.04,2.38-1.24,2.15-2.75,2.12c-14.62-0.24-29.23-0.48-43.85-0.71c-0.88-0.01-1.76-0.03-2.63,0.02c-2.47,0.15-4.34,1.29-5.05,3.71
	c-0.7,2.37,0.04,4.41,2.03,5.96c3.11,2.41,6.69,3.98,10.19,5.67c9.91,4.77,20.04,9.1,29.46,14.82c9.4,5.71,16.92,12.96,18.64,24.46
	c3.99,26.61-10.43,43.08-35.02,45.56c-14.59,1.47-29.22-0.06-43.83,0.02c-4.78,0.03-9.55-0.02-14.33-0.21
	c-1.96-0.08-2.5,0.57-2.45,2.46C51.79,179.02,51.71,183.68,51.71,189.17z"/></svg>