<svg version="1.1" id="Layer_1" xmlns="http://www.w3.org/2000/svg" xmlns:xlink="http://www.w3.org/1999/xlink" x="0px" y="0px" viewBox="0 0 858.35 212.12" style="enable-background:new 0 0 858.35 212.12;" xml:space="preserve"><style type="text/css">
	.st0{fill:#029745;}
	.st1{fill:#FECA09;}
</style><path class="st0" d="M806.46,22.95c13.4,11.07,26.23,21.68,39.08,32.27c0.81,0.67,1.2,1.07,0.13,1.95
	c-12.93,10.63-25.82,21.31-39.2,32.37c0-5.03-0.11-9.54,0.05-14.04c0.07-2.08-0.32-2.93-2.66-2.82c-4.47,0.21-8.97,0.05-13.45,0.07
	c-3.61,0.02-4.29,0.68-4.31,4.24c-0.02,5.36-0.2,10.73,0.03,16.08c0.99,23.41-13.63,34.47-28.04,39.79
	c-5.46,2.02-5.48,1.97-5.48,7.9c0,9.85-0.06,19.69,0.05,29.54c0.02,2.05-0.5,2.59-2.56,2.57c-11.4-0.11-22.81-0.11-34.21,0
	c-2.09,0.02-2.56-0.59-2.55-2.6c0.1-11.11,0.01-22.23,0.09-33.34c0.01-1.74-0.45-2.52-2.22-3.03c-5.93-1.72-11.48-4.31-16.45-8.02
	c-9.85-7.36-15.13-17.16-15.22-29.48c-0.13-17.84-0.01-35.68-0.08-53.52c-0.01-1.87,0.42-2.48,2.4-2.46
	c11.21,0.1,22.42,0.11,33.63,0c2.11-0.02,2.54,0.61,2.53,2.61c-0.08,15.99-0.05,31.97-0.04,47.96c0,6.75,2.75,10.28,9.38,11.72
	c4.54,0.99,9.11,0.93,13.53-0.75c4.52-1.72,6.83-4.99,6.87-9.82c0.05-7.12,0.03-14.23,0.01-21.35c-0.01-4.42,0.59-8.77,2.08-12.92
	C754.02,46.2,763,40.94,774.8,39.94c9.53-0.81,19.1-0.26,28.65-0.26c2.37,0,3.21-0.49,3.08-3.01
	C806.3,32.34,806.46,27.98,806.46,22.95z"/></svg>