<svg version="1.1" id="Layer_1" xmlns="http://www.w3.org/2000/svg" xmlns:xlink="http://www.w3.org/1999/xlink" x="0px" y="0px" viewBox="0 0 858.35 212.12" style="enable-background:new 0 0 858.35 212.12;" xml:space="preserve"><style type="text/css">
	.st0{fill:#029745;}
	.st1{fill:#FECA09;}
</style><path class="st0" d="M670.02,123c0,15.69-0.06,31.38,0.06,47.07c0.02,2.37-0.7,2.84-2.91,2.82c-11.01-0.11-22.03-0.11-33.04,0
	c-2.14,0.02-2.77-0.43-2.75-2.68c0.13-10.91-0.03-21.83,0.13-32.74c0.04-2.55-0.75-3.01-3.09-2.96c-7.79,0.15-15.59,0.13-23.39,0.01
	c-2.19-0.03-2.95,0.43-2.92,2.82c0.14,10.91-0.02,21.83,0.13,32.74c0.03,2.37-0.7,2.84-2.91,2.82c-11.11-0.11-22.22-0.09-33.33-0.01
	c-1.82,0.01-2.48-0.33-2.47-2.35c0.07-31.09-0.1-62.18,0.12-93.27c0.1-14.43,6.78-25.86,19.44-32.44
	c22.49-11.7,45.61-11.75,67.97,0.4c12.78,6.95,18.91,18.67,18.94,33.34C670.05,93.37,670.02,108.18,670.02,123z M616.88,104.14
	c4.09,0,8.19-0.08,12.28,0.04c1.73,0.05,2.38-0.34,2.35-2.23c-0.11-7.21,0-14.42-0.06-21.64c-0.04-4.61-2.37-7.81-6.65-9.33
	c-5.31-1.89-10.75-1.9-16.05,0.03c-4.13,1.5-6.49,4.58-6.53,9.1c-0.06,7.31,0.03,14.62-0.06,21.93c-0.02,1.69,0.5,2.17,2.15,2.13
	C608.49,104.07,612.68,104.14,616.88,104.14z"/></svg>