<svg version="1.1" id="Layer_1" xmlns="http://www.w3.org/2000/svg" xmlns:xlink="http://www.w3.org/1999/xlink" x="0px" y="0px" viewBox="0 0 858.35 212.12" style="enable-background:new 0 0 858.35 212.12;" xml:space="preserve"><style type="text/css">
	.st0{fill:#029745;}
	.st1{fill:#FECA09;}
</style><path class="st0" d="M551.56,90.29c0,13.65-0.32,27.3,0.07,40.93c0.65,22.78-13.15,39.46-37.03,43.07
	c-12.99,1.96-25.85,1.13-37.33-5.88c-4.36-2.67-7.14-2.78-11.49,0.04c-9.88,6.38-21.16,7.37-32.66,6.33
	c-9.56-0.86-18.63-3.27-26.42-9.14c-9.85-7.42-14.79-17.64-14.9-29.74c-0.28-31.09-0.09-62.18-0.14-93.28c0-1.6,0.33-2.19,2.07-2.18
	c11.5,0.08,23,0.13,34.5-0.03c2.67-0.04,2.15,1.48,2.15,2.95c0.01,29.05,0.03,58.09-0.03,87.14c-0.01,4.11,0.34,8.04,4.69,9.79
	c4.92,1.97,9.96,2.02,14.51-1.15c2.46-1.72,2.78-4.49,2.78-7.33c-0.03-29.24,0.02-58.48-0.08-87.72c-0.01-2.8,0.45-3.76,3.54-3.69
	c10.81,0.23,21.64,0.17,32.45,0.03c2.37-0.03,2.83,0.68,2.83,2.91c-0.08,29.34-0.05,58.68-0.05,88.01c0,6.76,2.53,9.49,9.31,10.11
	c1.86,0.17,3.71,0.02,5.53-0.33c4.7-0.92,6.95-3.66,6.96-8.63c0.02-19.59,0.01-39.18,0.01-58.77c0-10.23,0.06-20.47-0.05-30.7
	c-0.02-2.04,0.51-2.61,2.57-2.59c11.21,0.1,22.42,0.13,33.62-0.01c2.33-0.03,2.65,0.74,2.64,2.8
	C551.52,58.9,551.56,74.6,551.56,90.29z"/></svg>