<svg version="1.1" id="Layer_1" xmlns="http://www.w3.org/2000/svg" xmlns:xlink="http://www.w3.org/1999/xlink" x="0px" y="0px" viewBox="0 0 2039 2500" style="enable-background:new 0 0 2039 2500;" xml:space="preserve"><style type="text/css">
	.st0{fill:#341B14;}
	.st1{fill:#FFB406;}
</style><path class="st1" d="M1050.55,781.65c-98.33,0-175.95,20.7-243.23,62.1v1169.58h175.95v-377.78v0c15.53,5.18,41.4,10.35,82.8,10.35
	c201.83,0,315.68-181.13,315.68-439.89C1381.76,942.08,1262.73,781.65,1050.55,781.65z M1035.03,1490.64
	c-25.88,0-46.58-5.18-56.93-10.35V931.73h5.18c15.53-5.18,41.4-15.53,62.1-15.53c103.5,0,144.9,82.8,144.9,284.63
	C1190.28,1397.49,1138.53,1490.64,1035.03,1490.64z"/></svg>