<svg version="1.1" id="Layer_1" xmlns="http://www.w3.org/2000/svg" xmlns:xlink="http://www.w3.org/1999/xlink" x="0px" y="0px" viewBox="0 0 2039 2500" style="enable-background:new 0 0 2039 2500;" xml:space="preserve"><style type="text/css">
	.st0{fill:#341B14;}
	.st1{fill:#FFB406;}
</style><path class="st1" d="M1019.5,2432.52c0,0-569.26-248.41-745.22-388.13C87.98,1889.13,0,1676.95,0,1433.72V222.74
	C450.24-20.49,1019.5,0.21,1019.5,0.21s569.26-20.7,1019.5,222.53v1205.8c0,243.23-87.98,455.41-274.28,610.66
	C1588.76,2184.11,1019.5,2432.52,1019.5,2432.52 M82.8,1433.72c0,227.71,82.8,414.01,243.23,543.39
	c144.9,119.03,574.44,310.51,693.47,362.26c119.03-51.75,553.74-248.41,693.47-362.26c160.43-129.38,243.23-320.86,243.23-543.39
	V243.44C1355.88,186.51,641.72,217.56,82.8,735.07L82.8,1433.72L82.8,1433.72z"/></svg>