<svg version="1.1" id="Layer_1" xmlns="http://www.w3.org/2000/svg" xmlns:xlink="http://www.w3.org/1999/xlink" x="0px" y="0px" viewBox="0 0 2039 2500" style="enable-background:new 0 0 2039 2500;" xml:space="preserve"><style type="text/css">
	.st0{fill:#341B14;}
	.st1{fill:#FFB406;}
</style><path class="st1" d="M1707.79,1133.56c-67.28-41.4-119.03-67.28-119.03-129.38c0-62.1,56.93-87.98,103.5-87.98
	c62.1,0,124.2,36.23,160.43,72.45V833.4c-31.05-25.88-98.33-62.1-196.65-56.93c-119.03,5.18-243.23,87.98-243.23,232.88
	c5.18,98.33,36.23,170.78,181.13,253.58c77.63,46.58,108.68,77.63,113.85,134.55c0,62.1-41.4,98.33-108.68,98.33
	c-56.93,0-124.2-31.05-170.78-72.45v165.6c56.93,31.05,124.2,56.93,196.65,56.93c175.95,0,258.76-124.2,258.76-238.06
	C1888.92,1304.34,1857.87,1221.54,1707.79,1133.56z"/></svg>