<svg version="1.1" id="Layer_1" xmlns="http://www.w3.org/2000/svg" xmlns:xlink="http://www.w3.org/1999/xlink" x="0px" y="0px" viewBox="0 0 501.14 292.89" style="enable-background:new 0 0 501.14 292.89;" xml:space="preserve"><style type="text/css">
	.st0{fill:#4447BA;}
	.st1{fill:#FFFFFF;}
</style><path class="st0" d="M301.19,98.5c11.67-22.33,28.27-38.44,52.97-44.52c24.45-6.02,46.71-1.37,67.22,15.46
	c0-4.27,0.15-7.74-0.05-11.2c-0.16-2.89,0.65-4.08,3.81-4.05c16.1,0.14,32.21,0.18,48.31-0.03c3.95-0.05,3.98,1.95,3.98,4.82
	c-0.04,58.53-0.03,117.05-0.02,175.58c0,9.55,0,9.56-9.39,9.56c-13.8,0-27.61,0-41.41,0c-1.54,0-3.09,0-5.21,0c0-5.08,0-9.7,0-14.68
	c-5.19,3.44-9.5,7.11-14.45,9.46c-28.8,13.68-55.85,9.57-81.06-9.03c-8.1-5.97-7.51-6.18-4.92-15.87
	c6.46-24.15,4.44-46.9-13.3-66.11c-9.46-10.25-22.33-14.87-35.23-19.15c-8.31-2.75-16.79-5.13-24.82-8.54
	c-11.73-4.98-16.42-13.63-14.31-24.48c1.98-10.24,11.13-17.55,22.93-17.98c12.98-0.46,24.07,4.72,34.23,12.24
	C294.02,92.6,297.39,95.46,301.19,98.5z M345.18,148.97c-0.1,10.19,2.63,19.57,7.86,28.27c14.43,24,44.56,25.66,61.46,3.36
	c14.32-18.88,13.26-48.32-2.36-65.93c-14.78-16.66-37.73-17.33-53.24-1.36C349.31,123.2,345.32,135.38,345.18,148.97z"/></svg>