<svg version="1.1" id="Layer_1" xmlns="http://www.w3.org/2000/svg" xmlns:xlink="http://www.w3.org/1999/xlink" x="0px" y="0px" viewBox="0 0 501.14 292.89" style="enable-background:new 0 0 501.14 292.89;" xml:space="preserve"><style type="text/css">
	.st0{fill:#4447BA;}
	.st1{fill:#FFFFFF;}
</style><path class="st0" d="M198.51,53.48c-1.66,1.3-3.5,2.44-4.97,3.94c-21.69,22-23.37,54.81-13.42,77.43
	c6.68,15.17,18.86,24.42,33.88,30.13c10.19,3.88,20.72,6.87,31.02,10.5c3.63,1.28,7.22,2.95,10.46,5.02
	c7.21,4.61,11.17,11.22,10.01,19.99c-1.28,9.64-6.78,16.05-16.16,18.68c-11.18,3.14-21.81,0.68-31.58-4.82
	c-6.21-3.5-11.76-8.18-17.55-12.4c-1.48-1.08-2.76-2.43-4.42-3.91c-1.95,4.09-3.55,7.9-5.51,11.52
	c-9.09,16.72-23.19,27.18-41.33,32.24c-20.93,5.83-42.08,6.03-63.13,0.9c-30.17-7.36-49.17-28.9-53.34-60.09
	c-0.84-6.25-1.29-12.6-1.31-18.91C31.02,128.17,31.13,92.64,31,57.12c-0.01-3.81,0.77-5.23,4.92-5.17
	c15.96,0.25,31.93,0.23,47.89,0.02c3.91-0.05,4.79,1.2,4.78,4.92c-0.14,31.93-0.15,63.86-0.05,95.78c0.03,9.48,0.3,18.98,3.78,28.04
	c4.07,10.62,11.65,15.93,23.1,16.06c11.59,0.13,19.79-4.57,23.2-15.56c2.6-8.38,4.06-17.42,4.19-26.19c0.48-32.5,0.25-65,0.11-97.51
	c-0.02-4.17,0.85-5.69,5.44-5.58c15.09,0.34,30.2,0.13,45.3,0.13c1.36,0,2.73,0,4.09,0C198,52.54,198.26,53.01,198.51,53.48z"/></svg>