<svg version="1.1" id="Layer_1" xmlns="http://www.w3.org/2000/svg" xmlns:xlink="http://www.w3.org/1999/xlink" x="0px" y="0px" viewBox="0 0 2500 760" style="enable-background:new 0 0 2500 760;" xml:space="preserve"><style type="text/css">
	.st0{fill:#0F7C10;}
</style><path class="st0" d="M1638.76,392.34c-9.03-7.69-19.08-14.09-29.88-19.01c33.75-17.93,54.83-53.05,54.8-91.27
	c0-29.16-10.74-123.98-148.15-123.98h-185.05v196.48h-61.63c-7.99,10.42-26.16,35.47-33.07,45.73h94.7v213.49l185.09,0.04
	c100.26,0,162.53-50.89,162.53-133.05C1678.1,444.91,1664.56,414.43,1638.76,392.34z M1381.65,205.65h133.93
	c36.23,0,96.94,9.03,96.94,72.42c0,47.93-35.35,76.49-96.94,76.49h-133.93V205.65z M1515.54,566.29h-133.93V400.41h133.93
	c50.77,0,111.52,14.02,111.52,79.37C1627.06,555.03,1557.2,566.29,1515.54,566.29z"/></svg>