<svg version="1.1" id="Layer_1" xmlns="http://www.w3.org/2000/svg" xmlns:xlink="http://www.w3.org/1999/xlink" x="0px" y="0px" viewBox="0 0 2500 760" style="enable-background:new 0 0 2500 760;" xml:space="preserve"><style type="text/css">
	.st0{fill:#0F7C10;}
</style><path class="st0" d="M182.62,58.62c65.07-16.66,168.4,37.51,196.44,53.6c0.24,0.16,0.48,0.32,0.84,0.32c0.32,0,0.56-0.16,0.8-0.32
	c10.54-6.35,122.34-69.9,195.88-54c0.76,0.2,1.56,0.04,1.84-0.64c0.28-0.72,0.08-1.52-0.64-1.88
	c-58.16-34.59-121.23-55.6-197.88-55.6c-76.45,0-140.32,21.01-198.47,55.96c-0.65,0.38-0.92,1.18-0.64,1.88
	C181.1,58.66,181.9,58.78,182.62,58.62z"/></svg>